<svg width="16" height="16" viewBox="0 0 16 16" fill="none" xmlns="http://www.w3.org/2000/svg">
<g clip-path="url(#clip0_348_3706)">
<path fill-rule="evenodd" clip-rule="evenodd" d="M0.275879 8.00002C0.275879 12.2661 3.73409 15.7242 8.00002 15.7242C12.2659 15.7242 15.7242 12.2661 15.7242 8.00002C15.7242 3.73409 12.2659 0.275879 8.00002 0.275879C3.73409 0.275879 0.275879 3.73409 0.275879 8.00002Z" fill="white"/>
<path fill-rule="evenodd" clip-rule="evenodd" d="M8 1.93115C11.3518 1.93115 14.069 4.64835 14.069 8.00012C14.069 11.352 11.3518 14.0691 8 14.0691C4.64823 14.0691 1.93103 11.352 1.93103 8.00012C1.93103 4.64835 4.64823 1.93115 8 1.93115Z" fill="#1A8CFF"/>
<path opacity="0.5" d="M0 8C0 12.4184 3.58172 16 8 16C12.4183 16 16 12.4184 16 8C16 3.58172 12.4183 0 8 0C3.58172 0 0 3.58172 0 8ZM0.275862 8C0.275862 3.73454 3.7336 0.275862 8 0.275862C12.2664 0.275862 15.7241 3.73454 15.7241 8C15.7241 12.2655 12.2664 15.7241 8 15.7241C3.73355 15.7241 0.275862 12.2655 0.275862 8Z" fill="black"/>
<path fill-rule="evenodd" clip-rule="evenodd" d="M15.7133 7.58627C15.7205 7.72329 15.7242 7.86125 15.7242 8.00007C15.7242 12.266 12.2659 15.7242 8.00002 15.7242C3.73409 15.7242 0.275879 12.266 0.275879 8.00007C0.275879 7.86125 0.279541 7.72329 0.286774 7.58627C0.501783 11.6598 3.8729 14.8966 8.00002 14.8966C12.0953 14.8966 15.4462 11.7095 15.7077 7.68035L15.7133 7.58627ZM8.00002 1.10352C11.7327 1.10352 14.7586 4.12945 14.7586 7.86214C14.7586 9.94893 13.8129 11.8148 12.3266 13.0546C13.5684 11.8965 14.3448 10.2458 14.3448 8.41386C14.3448 4.90971 11.5042 2.06903 8.00002 2.06903C4.49587 2.06903 1.65519 4.90971 1.65519 8.41386C1.65519 10.2458 2.4316 11.8965 3.67332 13.0546C2.18715 11.8148 1.2414 9.94893 1.2414 7.86214C1.2414 4.12945 4.26733 1.10352 8.00002 1.10352Z" fill="black" fill-opacity="0.0524476"/>
<path opacity="0.256138" d="M8 1.93115C11.3522 1.93115 14.069 4.64879 14.069 8.00012C14.069 11.3515 11.3523 14.0691 8 14.0691C4.68126 14.0691 1.98543 11.4056 1.93184 8.10047L1.93103 8.00012C1.93103 4.64879 4.64778 1.93115 8 1.93115ZM8 2.20701C4.80058 2.20701 2.20689 4.8007 2.20689 8.00012C2.20689 11.1997 4.80058 13.7932 8 13.7932C11.1994 13.7932 13.7931 11.1997 13.7931 8.00012C13.7931 4.8007 11.1994 2.20701 8 2.20701Z" fill="black"/>
<path d="M8.03069 3.17236C5.33378 3.17236 3.17236 5.33378 3.17236 8.03069C3.17236 10.6762 5.3438 12.8275 8.03069 12.8275C10.6662 12.8275 12.8275 10.6662 12.8275 8.03069C12.8275 5.34384 10.6761 3.17236 8.03069 3.17236ZM8.0305 3.44823C10.5138 3.44823 12.5517 5.48613 12.5517 8.0305C12.5517 10.5139 10.5138 12.5517 8.0305 12.5517C5.48613 12.5517 3.44823 10.5139 3.44823 8.0305C3.44823 5.48613 5.48613 3.44823 8.0305 3.44823Z" fill="black" fill-opacity="0.25"/>
<path fill-rule="evenodd" clip-rule="evenodd" d="M8.03052 3.44824C10.5138 3.44824 12.5517 5.48615 12.5517 8.03052C12.5517 10.5139 10.5138 12.5517 8.03052 12.5517C5.48615 12.5517 3.44824 10.5139 3.44824 8.03052C3.44824 5.48615 5.48615 3.44824 8.03052 3.44824Z" fill="#F7F7F7"/>
<path fill-rule="evenodd" clip-rule="evenodd" d="M10.069 8.00012C10.069 9.14276 9.14265 10.0691 8 10.0691C6.85734 10.0691 5.93103 9.14276 5.93103 8.00012C5.93103 6.85747 6.85734 5.93115 8 5.93115C9.14265 5.93115 10.069 6.85747 10.069 8.00012Z" fill="black" fill-opacity="0.05"/>
<path d="M7.99998 5.65527C6.70497 5.65527 5.65515 6.7051 5.65515 8.0001C5.65515 9.2951 6.70497 10.3449 7.99998 10.3449C9.29499 10.3449 10.3448 9.2951 10.3448 8.0001C10.3448 6.7051 9.29499 5.65527 7.99998 5.65527ZM7.99998 5.93114C9.14264 5.93114 10.0689 6.85746 10.0689 8.0001C10.0689 9.14275 9.14264 10.0691 7.99998 10.0691C6.85732 10.0691 5.93101 9.14275 5.93101 8.0001C5.93101 6.85746 6.85732 5.93114 7.99998 5.93114Z" fill="white"/>
<path d="M8 5.93115C9.14265 5.93115 10.069 6.85747 10.069 8.00012C10.069 9.14276 9.14265 10.0691 8 10.0691C6.85734 10.0691 5.93103 9.14276 5.93103 8.00012C5.93103 6.85747 6.85734 5.93115 8 5.93115ZM8 6.20701C7.0097 6.20701 6.20689 7.00982 6.20689 8.00012C6.20689 8.99041 7.0097 9.79322 8 9.79322C8.99029 9.79322 9.7931 8.99041 9.7931 8.00012C9.7931 7.00982 8.99029 6.20701 8 6.20701Z" fill="black" fill-opacity="0.15"/>
<path d="M8.76926 4.41406H7.23082C6.88984 4.41406 6.62073 4.71262 6.62073 5.0723V6.56083C6.62073 6.69622 6.66957 6.82703 6.75807 6.92521L6.9842 7.17609C6.98948 7.18194 6.98948 7.19837 6.9842 7.20422L6.75807 7.45509C6.66957 7.55328 6.62073 7.68408 6.62073 7.81947V10.9282C6.62073 11.2879 6.88984 11.5865 7.23082 11.5865H8.76926C9.11023 11.5865 9.37935 11.2879 9.37935 10.9282V9.4397C9.37935 9.30432 9.33051 9.17351 9.24201 9.07533L9.01587 8.82445C9.0106 8.8186 9.0106 8.80217 9.01587 8.79632L9.24201 8.54545C9.33051 8.44726 9.37935 8.31645 9.37935 8.18107V5.0723C9.37935 4.71262 9.11023 4.41406 8.76926 4.41406ZM8.75172 4.69513C8.946 4.69513 9.10349 4.87359 9.10349 5.09372V8.1798C9.10349 8.25028 9.07878 8.31787 9.0348 8.3677L8.81495 8.61683C8.72337 8.7206 8.72337 8.88885 8.81495 8.99262L9.0348 9.24175C9.07878 9.29158 9.10349 9.35917 9.10349 9.42965V10.9068C9.10349 11.127 8.946 11.3054 8.75172 11.3054H7.24835C7.05408 11.3054 6.89659 11.127 6.89659 10.9068V7.82073C6.89659 7.75026 6.9213 7.68267 6.96528 7.63283L7.18513 7.38371C7.27671 7.27994 7.27671 7.11169 7.18513 7.00791L6.96528 6.75879C6.9213 6.70896 6.89659 6.64137 6.89659 6.57089V5.09372C6.89659 4.87359 7.05408 4.69513 7.24835 4.69513H8.75172Z" fill="white"/>
<path fill-rule="evenodd" clip-rule="evenodd" d="M6.89648 6.56866V5.08916C6.89648 4.86868 7.05397 4.68994 7.24825 4.68994H8.75162C8.94589 4.68994 9.10338 4.86868 9.10338 5.08916V8.1801C9.10338 8.25069 9.07867 8.31839 9.03469 8.3683L8.81484 8.61781C8.72326 8.72175 8.72326 8.89027 8.81484 8.9942L9.03469 9.24372C9.07867 9.29363 9.10338 9.36133 9.10338 9.43191V10.9114C9.10338 11.1319 8.94589 11.3106 8.75162 11.3106H7.24825C7.05397 11.3106 6.89648 11.1319 6.89648 10.9114V7.82047C6.89648 7.74988 6.92119 7.68219 6.96517 7.63227L7.18502 7.38276C7.2766 7.27882 7.2766 7.11031 7.18502 7.00637L6.96517 6.75685C6.92119 6.70694 6.89648 6.63925 6.89648 6.56866Z" fill="#0A2D4D"/>
<path d="M8.75162 4.68994C8.94589 4.68994 9.10338 4.86868 9.10338 5.08916V8.1801C9.10338 8.25069 9.07867 8.31839 9.03469 8.3683L8.81484 8.61781C8.72326 8.72175 8.72326 8.89027 8.81484 8.9942L9.03469 9.24372C9.07867 9.29363 9.10338 9.36133 9.10338 9.43191V10.9114C9.10338 11.1319 8.94589 11.3106 8.75162 11.3106H7.24825C7.05397 11.3106 6.89648 11.1319 6.89648 10.9114V7.82047C6.89648 7.74988 6.92119 7.68219 6.96517 7.63227L7.18502 7.38276C7.2766 7.27882 7.2766 7.11031 7.18502 7.00637L6.96517 6.75685C6.92119 6.70694 6.89648 6.63925 6.89648 6.56866V5.08916C6.89648 4.86868 7.05397 4.68994 7.24825 4.68994H8.75162ZM8.71188 4.9733L7.28799 4.97145C7.23221 4.97145 7.17981 5.02375 7.17308 5.09785L7.17235 5.11406V6.58035C7.17235 6.58466 7.17325 6.58843 7.17444 6.5911L7.17637 6.59422L7.4067 6.8417C7.58678 7.03519 7.59299 7.33838 7.42533 7.53944L7.4067 7.56058L7.17637 7.80806C7.17504 7.8095 7.17369 7.81231 7.17295 7.81594L7.17235 7.82194V10.8865C7.17235 10.9636 7.22102 11.021 7.2761 11.0283L7.28799 11.0291L8.71188 11.031C8.76766 11.031 8.82005 10.9787 8.82679 10.9046L8.82752 10.8884V9.42208C8.82752 9.41776 8.82662 9.41399 8.82543 9.41132L8.82349 9.4082L8.59317 9.16073C8.41309 8.96723 8.40688 8.66404 8.57454 8.46298L8.59317 8.44184L8.82349 8.19436C8.82483 8.19293 8.82617 8.19011 8.82692 8.18648L8.82752 8.18049V5.11591C8.82752 5.03885 8.77884 4.98141 8.72376 4.97409L8.71188 4.9733Z" fill="black" fill-opacity="0.4"/>
</g>
<defs>
<clipPath id="clip0_348_3706">
<rect width="16" height="16" fill="white"/>
</clipPath>
</defs>
</svg>
