<svg width="16" height="16" viewBox="0 0 16 16" fill="none" xmlns="http://www.w3.org/2000/svg">
<g clip-path="url(#clip0_348_3765)">
<path d="M0 0V16H16V0H0Z" fill="#FF2BC2"/>
<path d="M11.2333 7.28647C11.3933 7.28647 11.52 7.30647 11.62 7.35314H11.6133V10.6531C11.4867 10.7065 11.3133 10.7265 11.1533 10.7265C10.4067 10.7265 9.83333 10.2331 9.83333 9.00647C9.83333 7.93314 10.3933 7.28647 11.2333 7.28647Z" fill="#2E001E"/>
<path fill-rule="evenodd" clip-rule="evenodd" d="M15.2 0.799805H0.799999V15.1998H15.2V0.799805ZM6.36 7.9798L8.22667 11.5998C8.26 11.6531 8.24 11.7065 8.18667 11.7065H7.02667C6.95333 11.7065 6.92 11.6865 6.88667 11.6198C6.46 10.7398 6.02667 9.82647 5.58 8.8798H5.56667C5.16667 9.77314 4.72667 10.7465 4.3 11.6265C4.26667 11.6798 4.23333 11.6998 4.18 11.6998H3.07333C3.00667 11.6998 3 11.6465 3.03333 11.6065L4.86 8.09314L3.09333 4.5998C3.05333 4.54647 3.09333 4.4998 3.14 4.4998H4.28667C4.35333 4.4998 4.38667 4.51314 4.40667 4.57314C4.51782 4.80779 4.62943 5.04151 4.7409 5.27491C5.05062 5.92343 5.3592 6.56957 5.65333 7.22647H5.66667C5.94838 6.58533 6.25132 5.94066 6.5523 5.30017C6.66442 5.06157 6.77629 4.82351 6.88667 4.58647L6.88789 4.58452C6.9205 4.53233 6.94082 4.4998 7.00667 4.4998H8.08C8.13333 4.4998 8.15333 4.5398 8.12 4.5998L6.36 7.9798ZM11.2733 6.29314C9.63333 6.29314 8.63333 7.50647 8.63333 9.0598C8.63333 10.8731 9.66667 11.7665 11.1133 11.7665C11.6733 11.7665 12.26 11.6465 12.82 11.3798C12.86 11.3598 12.86 11.3531 12.86 11.3065C12.8267 11.0598 12.8267 10.8332 12.8267 10.6532V4.5598C12.8267 4.52647 12.8133 4.50647 12.76 4.50647H11.6867C11.6533 4.50647 11.62 4.53314 11.62 4.57314V6.30647C11.4867 6.29314 11.4133 6.29314 11.2733 6.29314Z" fill="#2E001E"/>
</g>
<defs>
<clipPath id="clip0_348_3765">
<rect width="16" height="16" fill="white"/>
</clipPath>
</defs>
</svg>
