<svg width="16" height="16" viewBox="0 0 16 16" fill="none" xmlns="http://www.w3.org/2000/svg">
<g clip-path="url(#clip0_1406_3530)">
<path d="M0 0V16H16V0H0Z" fill="#FF2BC2"/>
<path fill-rule="evenodd" clip-rule="evenodd" d="M15.2 0.800049H0.800049V15.2H15.2V0.800049ZM6.36005 7.98005L8.22669 11.6C8.26005 11.6534 8.24005 11.7067 8.18669 11.7067H7.02671C6.95338 11.7067 6.92005 11.6867 6.88671 11.62C6.46005 10.74 6.02671 9.82669 5.58005 8.88005H5.56671C5.16671 9.77341 4.72671 10.7467 4.30005 11.6267C4.26671 11.68 4.23338 11.7 4.18005 11.7H3.07338C3.00671 11.7 3.00005 11.6467 3.03338 11.6067L4.86005 8.09341L3.09338 4.60005C3.05338 4.54671 3.09338 4.50005 3.14005 4.50005H4.28671C4.35338 4.50005 4.38671 4.51338 4.40671 4.57338C4.51782 4.80794 4.62938 5.04155 4.74081 5.27486C5.05054 5.92339 5.35924 6.5698 5.65338 7.22671H5.66671C5.94843 6.58557 6.25138 5.94089 6.55235 5.3004C6.66447 5.06179 6.77634 4.82375 6.88671 4.58671L6.88794 4.58476C6.92054 4.53257 6.94086 4.50005 7.00671 4.50005H8.08005C8.13341 4.50005 8.15341 4.54005 8.12005 4.60005L6.36005 7.98005ZM11.2734 6.29338C9.63341 6.29338 8.63341 7.50671 8.63341 9.06005C8.63341 10.8734 9.66669 11.7667 11.1134 11.7667C11.6734 11.7667 12.26 11.6467 12.82 11.38C12.86 11.36 12.86 11.3534 12.86 11.3067C12.8267 11.06 12.8267 10.8334 12.8267 10.6534V4.56005C12.8267 4.52671 12.8134 4.50671 12.76 4.50671H11.6867C11.6534 4.50671 11.62 4.53338 11.62 4.57338V6.30671C11.4867 6.29338 11.4134 6.29338 11.2734 6.29338ZM11.2334 7.28671C11.3934 7.28671 11.52 7.30671 11.62 7.35338H11.6134V10.6534C11.4867 10.7067 11.3134 10.7267 11.1534 10.7267C10.4067 10.7267 9.83341 10.2334 9.83341 9.00669C9.83341 7.93338 10.3934 7.28671 11.2334 7.28671Z" fill="#2E001E"/>
</g>
<defs>
<clipPath id="clip0_1406_3530">
<rect width="16" height="16" fill="white"/>
</clipPath>
</defs>
</svg>
