<svg width="16" height="16" viewBox="0 0 16 16" fill="none" xmlns="http://www.w3.org/2000/svg">
<g clip-path="url(#clip0_1406_3531)">
<path fill-rule="evenodd" clip-rule="evenodd" d="M0 16V0H16V16H0ZM0.8 0.8H15.2V15.2H0.8V0.8ZM8.22664 11.6L6.36 7.98L8.12 4.6C8.15336 4.54 8.13336 4.5 8.08 4.5H7.00666C6.94082 4.5 6.9205 4.53252 6.88789 4.58471L6.88666 4.58666C6.77634 4.82361 6.66454 5.06153 6.55246 5.30003C6.25148 5.94052 5.94838 6.58552 5.66666 7.22666H5.65334C5.35919 6.56975 5.05063 5.92365 4.7409 5.27511C4.62954 5.0419 4.51772 4.80778 4.40666 4.57334C4.38666 4.51334 4.35334 4.5 4.28666 4.5H3.14C3.09334 4.5 3.05334 4.54666 3.09334 4.6L4.86 8.09336L3.03334 11.6066C3 11.6466 3.00666 11.7 3.07334 11.7H4.18C4.23334 11.7 4.26666 11.68 4.3 11.6266C4.72666 10.7466 5.16666 9.77336 5.56666 8.88H5.58C6.02666 9.82664 6.46 10.74 6.88666 11.62C6.92 11.6866 6.95334 11.7066 7.02666 11.7066H8.18664C8.24 11.7066 8.26 11.6534 8.22664 11.6ZM8.63336 9.06C8.63336 7.50666 9.63336 6.29334 11.2734 6.29334C11.4134 6.29334 11.4866 6.29334 11.62 6.30666V4.57334C11.62 4.53334 11.6534 4.50666 11.6866 4.50666H12.76C12.8134 4.50666 12.8266 4.52666 12.8266 4.56V10.6534C12.8266 10.8334 12.8266 11.06 12.86 11.3066C12.86 11.3534 12.86 11.36 12.82 11.38C12.26 11.6466 11.6734 11.7666 11.1134 11.7666C9.66664 11.7666 8.63336 10.8734 8.63336 9.06ZM11.62 7.35334C11.52 7.30666 11.3934 7.28666 11.2334 7.28666C10.3934 7.28666 9.83336 7.93334 9.83336 9.00664C9.83336 10.2334 10.4066 10.7266 11.1534 10.7266C11.3134 10.7266 11.4866 10.7066 11.6134 10.6534V7.35334H11.62Z" fill="#FF00FF"/>
</g>
<defs>
<clipPath id="clip0_1406_3531">
<rect width="16" height="16" fill="white"/>
</clipPath>
</defs>
</svg>
