<svg width="16" height="16" viewBox="0 0 16 16" fill="none" xmlns="http://www.w3.org/2000/svg">
<g clip-path="url(#clip0_1_14)">
<path d="M0 0V16H16V0H0Z" fill="#FF2BC2"/>
<path fill-rule="evenodd" clip-rule="evenodd" d="M15.2 0.799988H0.800003V15.2H15.2V0.799988ZM6.36 7.97999L8.22664 11.6C8.26 11.6533 8.24 11.7066 8.18664 11.7066H7.02667C6.95334 11.7066 6.92 11.6866 6.88667 11.62C6.46 10.74 6.02667 9.82663 5.58 8.87999H5.56667C5.16667 9.77335 4.72667 10.7466 4.3 11.6266C4.26667 11.68 4.23334 11.7 4.18 11.7H3.07334C3.00667 11.7 3 11.6466 3.03334 11.6066L4.86 8.09335L3.09334 4.59999C3.05334 4.54665 3.09334 4.49999 3.14 4.49999H4.28667C4.35334 4.49999 4.38667 4.51332 4.40667 4.57332C4.51777 4.80788 4.62934 5.04149 4.74076 5.2748C5.05049 5.92333 5.35919 6.56974 5.65334 7.22665H5.66667C5.94839 6.58551 6.25133 5.94083 6.55231 5.30034C6.66443 5.06173 6.77629 4.82369 6.88667 4.58665L6.88789 4.5847C6.9205 4.53251 6.94082 4.49999 7.00667 4.49999H8.08C8.13336 4.49999 8.15336 4.53999 8.12 4.59999L6.36 7.97999ZM11.2734 6.29332C9.63336 6.29332 8.63336 7.50665 8.63336 9.05999C8.63336 10.8733 9.66664 11.7666 11.1134 11.7666C11.6734 11.7666 12.26 11.6466 12.82 11.38C12.86 11.36 12.86 11.3533 12.86 11.3066C12.8266 11.06 12.8266 10.8333 12.8266 10.6533V4.55999C12.8266 4.52665 12.8134 4.50665 12.76 4.50665H11.6866C11.6534 4.50665 11.62 4.53332 11.62 4.57332V6.30665C11.4866 6.29332 11.4134 6.29332 11.2734 6.29332ZM11.2334 7.28665C11.3934 7.28665 11.52 7.30665 11.62 7.35332H11.6134V10.6533C11.4866 10.7066 11.3134 10.7266 11.1534 10.7266C10.4066 10.7266 9.83336 10.2333 9.83336 9.00663C9.83336 7.93332 10.3934 7.28665 11.2334 7.28665Z" fill="#2E001E"/>
</g>
<defs>
<clipPath id="clip0_1_14">
<rect width="16" height="16" fill="white"/>
</clipPath>
</defs>
</svg>
