<svg width="16" height="16" viewBox="0 0 16 16" fill="none" xmlns="http://www.w3.org/2000/svg">
<g clip-path="url(#clip0_348_3913)">
<path fill-rule="evenodd" clip-rule="evenodd" d="M16 1.5625C16 0.700124 15.2999 0 14.4375 0H1.5625C0.700126 0 0 0.700124 0 1.5625V14.4375C0 15.2998 0.700126 16 1.5625 16H14.4375C15.2999 16 16 15.2998 16 14.4375V1.5625Z" fill="#891B26"/>
<path fill-rule="evenodd" clip-rule="evenodd" d="M7.28357 14.8281L3.25544 7.85393L1.172 11.461V14.2031C1.172 14.5481 1.452 14.8281 1.797 14.8281H7.28357ZM10.2209 14.8281H7.89841C7.89841 14.8281 4.88981 9.61738 3.88184 7.8741C3.68419 7.53225 3.68419 7.11094 3.88169 6.76904C4.24622 6.13829 4.72419 5.31107 4.72419 5.31107L10.2209 14.8281ZM13.1583 14.8281H10.8358L5.06559 4.71987L6.19278 2.76847L13.1583 14.8281ZM14.8283 12.634V14.2031C14.8283 14.5481 14.5483 14.8281 14.2033 14.8281H13.7731L6.50013 2.23626L7.11497 1.17188H8.20794L14.8283 12.634ZM14.2033 1.17188H8.82263L14.8283 11.5696V1.79687C14.8283 1.45192 14.5483 1.17188 14.2033 1.17188Z" fill="url(#paint0_radial_348_3913)"/>
</g>
<defs>
<radialGradient id="paint0_radial_348_3913" cx="0" cy="0" r="1" gradientUnits="userSpaceOnUse" gradientTransform="translate(11.6087 -1.39469) scale(16.2228 16.2228)">
<stop stop-color="#FFAE71"/>
<stop offset="1" stop-color="#FF9350"/>
</radialGradient>
<clipPath id="clip0_348_3913">
<rect width="16" height="16" fill="white"/>
</clipPath>
</defs>
</svg>
