<svg width="16" height="16" viewBox="0 0 16 16" fill="none" xmlns="http://www.w3.org/2000/svg">
<g clip-path="url(#clip0_1406_3525)">
<path fill-rule="evenodd" clip-rule="evenodd" d="M14.7998 0H15.5198C15.7806 0 15.9934 0.208514 15.9998 0.46779C15.9999 0.471846 16 0.47592 16 0.480001V9.90392V10.5278V15.52C16 15.785 15.7849 16 15.52 16H0.48C0.467575 16 0.45526 15.9995 0.443071 15.9986C0.210454 15.9809 0.023959 15.797 0.00213579 15.5655C0.00195153 15.5636 0.001779 15.5616 0.00161829 15.5597C0.000546486 15.5466 0 15.5334 0 15.52V12.0549V0.480001C0 0.215095 0.215094 0 0.48 0H6.95993H14.7998ZM0.8 10.6693V14.768C0.8 14.9034 0.862368 15.0242 0.959896 15.1034L6.19994 6.02746H3.47997L0.8 10.6693ZM9.25576 15.2H1.61986L5.43994 8.59088L9.25576 15.2ZM9.97576 15.2H14.768C15.0064 15.2 15.2 15.0064 15.2 14.768V10.5278H7.27833L9.97576 15.2ZM15.2 9.90392V1.232C15.2 1.08482 15.1262 0.954728 15.0137 0.876712L9.80184 9.90392H15.2ZM14.338 0.8H6.78182L10.5599 7.34381L14.338 0.8ZM8.68744 6.01619C8.9244 6.01718 9.15112 6.15645 9.27368 6.36283L9.27736 6.36914L9.99656 7.61494L10.0026 7.62526C10.1202 7.8309 10.1247 8.09 10.0073 8.29944C9.84824 8.57752 9.68768 8.8548 9.52712 9.13208C9.44416 9.27528 9.3612 9.41848 9.27848 9.56184C9.15912 9.76648 8.9332 9.9 8.6932 9.90304C8.24736 9.90488 7.36536 9.90392 7.31748 9.90392H7.31545C7.07849 9.90288 6.84809 9.77648 6.72554 9.57008L6.71754 9.55648L5.99658 8.30768C5.87898 8.102 5.87914 7.83633 5.99658 7.62694L6.00186 7.6177C6.00186 7.6177 6.4833 6.78225 6.72442 6.36451C6.84377 6.15986 7.07001 6.01906 7.31001 6.01605L7.32201 6.01586L8.67928 6.01619H8.68744ZM8.71992 5.40393H3.83996L6.27994 1.17778L8.71992 5.40393Z" fill="#FF00FF"/>
</g>
<defs>
<clipPath id="clip0_1406_3525">
<rect width="16" height="16" fill="white"/>
</clipPath>
</defs>
</svg>
