<svg width="16" height="16" viewBox="0 0 16 16" fill="none" xmlns="http://www.w3.org/2000/svg">
<g clip-path="url(#clip0_1_29)">
<path fill-rule="evenodd" clip-rule="evenodd" d="M8.30832 0H9.03432H15.52C15.7849 0 16 0.215095 16 0.480001V12.0649V13.3223V15.52C16 15.785 15.7849 16 15.52 16H14.8034H14.0774H11.3358H10.609H7.8664H7.1404H0.48C0.215094 16 0 15.785 0 15.52V12.155V0.480001C0 0.215095 0.215094 0 0.48 0H7.01773H8.30832ZM0.8 10.7694V14.768C0.8 15.0064 0.993584 15.2 1.232 15.2H6.67852L2.46024 7.89376L0.8 10.7694ZM7.40466 15.2H10.147L4.19457 4.88978L3.19978 6.61215C2.9665 7.01605 2.96656 7.51376 3.19997 7.91759C4.10277 9.47968 6.36478 13.3984 7.40466 15.2ZM10.8794 15.2H13.6156L5.92877 1.88611L4.59782 4.19138L10.8794 15.2ZM14.3415 15.2H14.768C15.0064 15.2 15.2 15.0064 15.2 14.768V11.9366L8.77024 0.8H6.55584L6.29175 1.25741L14.3415 15.2ZM9.49616 0.8L15.2 10.6792V1.232C15.2 0.993584 15.0064 0.8 14.768 0.8H9.49616Z" fill="#FF00FF"/>
</g>
<defs>
<clipPath id="clip0_1_29">
<rect width="16" height="16" fill="white"/>
</clipPath>
</defs>
</svg>
