<svg width="16" height="16" viewBox="0 0 16 16" fill="none" xmlns="http://www.w3.org/2000/svg">
<g clip-path="url(#clip0_1_31)">
<path fill-rule="evenodd" clip-rule="evenodd" d="M16 0.48C16 0.215094 15.7849 0 15.52 0H0.48C0.215094 0 0 0.215094 0 0.48V15.52C0 15.7849 0.215094 16 0.48 16H15.52C15.7849 16 16 15.7849 16 15.52V0.48Z" fill="#7E4DD2"/>
<mask id="mask0_1_31" style="mask-type:alpha" maskUnits="userSpaceOnUse" x="0" y="0" width="16" height="16">
<path fill-rule="evenodd" clip-rule="evenodd" d="M16 0.48C16 0.215094 15.7849 0 15.52 0H0.48C0.215094 0 0 0.215094 0 0.48V15.52C0 15.7849 0.215094 16 0.48 16H15.52C15.7849 16 16 15.7849 16 15.52V0.48Z" fill="white"/>
</mask>
<g mask="url(#mask0_1_31)">
<path fill-rule="evenodd" clip-rule="evenodd" d="M15.9798 0.495512C15.9798 0.230871 15.7649 0.0159912 15.5002 0.0159912H6.54916L-0.00430298 11.3669V15.5205C-0.00430298 15.7851 0.210577 16 0.475219 16H15.5002C15.7649 16 15.9798 15.7851 15.9798 15.5205V0.495512Z" fill="#7140C2"/>
<path fill-rule="evenodd" clip-rule="evenodd" d="M16.1864 10.1172V-0.190735H15.3809L9.4295 10.1172H16.1864ZM8.6803 5.8308C8.98766 5.83464 9.28086 6.0032 9.43862 6.26861C9.60182 6.5486 9.7635 6.82948 9.92518 7.11036C10.0061 7.25082 10.0869 7.39128 10.168 7.53164C10.3156 7.79038 10.3267 8.12289 10.182 8.39377C10.1785 8.40025 10.1749 8.40673 10.1713 8.41321C10.0085 8.69809 9.84406 8.98193 9.67966 9.26585C9.60046 9.40257 9.52118 9.53937 9.44214 9.67625C9.29094 9.93585 9.00446 10.1071 8.70254 10.1172C8.69894 10.1174 8.69366 10.1174 8.6891 10.1173L8.68046 10.1172H7.31335H7.30154C7.00009 10.1159 6.70788 9.95785 6.54822 9.70137C6.5442 9.69513 6.5404 9.68873 6.53656 9.68233C6.37522 9.40545 6.21537 9.12769 6.0555 8.84993L6.05507 8.84921C5.97257 8.70585 5.89005 8.56249 5.80734 8.41929C5.65821 8.15833 5.65101 7.82349 5.79313 7.55712L5.80384 7.53766C5.96086 7.26286 6.11951 6.989 6.27815 6.71516C6.36319 6.56836 6.44823 6.42156 6.53301 6.27463C6.68407 6.0156 6.97082 5.84132 7.2726 5.83128C7.28013 5.83103 7.28748 5.83092 7.29482 5.8308C7.75677 5.82884 8.21854 5.82884 8.6803 5.8308ZM-0.208567 16.2067H0.556895C1.55575 14.4767 2.55497 12.7464 3.55418 11.0162C4.55259 9.28729 5.55099 7.55849 6.54903 5.82988H3.35222L-0.211151 12.0037L-0.208567 16.2067ZM10.0615 16.2067H0.793777L5.43026 8.18513L10.0615 16.2067ZM16.1799 16.2055L10.3035 16.2068L6.90833 10.3263H16.1885C16.1874 11.2964 16.1858 12.2672 16.1842 13.2381C16.1826 14.2275 16.181 15.217 16.1799 16.2055ZM10.545 7.76597L6.39026 0.569705L6.82937 -0.190735H15.1389L10.545 7.76597ZM3.47367 5.62132L9.06654 5.6222C8.61422 4.83882 8.1615 4.05522 7.70885 3.27161C7.22887 2.44072 6.74888 1.60982 6.26929 0.779159L3.47367 5.62132Z" fill="#58328A"/>
<path fill-rule="evenodd" clip-rule="evenodd" d="M0.437443 16H-0.00211899L-0.0045166 12.059L3.47202 6.0375H6.1893L0.437443 16ZM15.9797 10.5335V16L10.4227 16L7.26663 10.5335H15.9797ZM9.70342 16H1.15193L5.43006 8.59837L9.70342 16ZM15.9797 9.91013H9.78766L15.5 0.0159912H15.9796L15.9797 9.91013ZM8.67438 6.02625C8.9111 6.02724 9.13758 6.16636 9.25998 6.37254C9.26126 6.37463 9.26366 6.37884 9.26366 6.37884L9.98214 7.62342C9.98214 7.62342 9.9863 7.63037 9.98822 7.63373C10.1057 7.83917 10.1102 8.09805 9.99286 8.30725C9.75198 8.72861 9.50742 9.14805 9.26478 9.56845C9.14558 9.77285 8.9199 9.90629 8.68014 9.90925C8.22246 9.91117 7.30371 9.91013 7.30371 9.91013C7.06699 9.90909 6.83682 9.78285 6.71438 9.57661C6.71166 9.57221 6.70639 9.56309 6.70639 9.56309C6.70639 9.56309 5.98774 8.31837 5.98614 8.31549C5.86866 8.11005 5.86882 7.84458 5.98614 7.63541L5.99142 7.62618C5.99142 7.62618 6.47238 6.79154 6.71326 6.37422C6.8325 6.16977 7.05852 6.02911 7.29828 6.0261C7.30227 6.02609 7.31026 6.02591 7.31026 6.02591L8.66622 6.02625H8.67438ZM6.94854 0.0159912H14.7807L10.5449 7.35255L6.62886 0.569693L6.94854 0.0159912ZM8.70678 5.41458H3.83166L6.26922 1.19261L8.70678 5.41458Z" fill="url(#paint0_radial_1_31)"/>
<path fill-rule="evenodd" clip-rule="evenodd" d="M0.0547991 16.6628L-0.37677 16.6491L-0.371656 12.6951L3.47203 6.0375H6.18932L0.0547991 16.6628ZM10.063 16.6229L0.821235 16.5723L5.43008 8.59834L10.063 16.6229ZM16.3198 16.5991L10.7469 16.5614L7.26664 10.5335H16.3409L16.3198 16.5991ZM3.5828 6.2293L-0.180007 12.7466L-0.184802 16.4634L-0.0538924 16.4675L5.85717 6.2293H3.5828ZM1.15259 16.3823L9.72975 16.4293L5.43008 8.98186L1.15259 16.3823ZM7.5988 10.7253L10.8581 16.3703L16.1287 16.406L16.1483 10.7253H7.5988ZM8.66623 6.02624H8.67439L8.67727 6.02626L8.67999 6.02629L8.68271 6.02634L8.68559 6.02638L8.68823 6.02646L8.69095 6.02654L8.69367 6.02664L8.69655 6.02674L8.69927 6.02686L8.70199 6.02699L8.70487 6.02714L8.70759 6.02728L8.71031 6.02746L8.71303 6.02763L8.71591 6.02782L8.71863 6.02803L8.72135 6.02826L8.72407 6.02848L8.72695 6.02872L8.72967 6.02898L8.73239 6.02923L8.73511 6.02952L8.73783 6.02981L8.74071 6.03011L8.74343 6.03041L8.74615 6.03074L8.74887 6.03108L8.75159 6.03143L8.75431 6.03178L8.75703 6.03217L8.75975 6.03255L8.76247 6.03295L8.76783 6.03378L8.77327 6.03466L8.77871 6.03558L8.78415 6.03655L8.78959 6.03758L8.79503 6.03862L8.80047 6.03974L8.80575 6.0409L8.81119 6.0421L8.81663 6.04334L8.82191 6.04464L8.82735 6.04598L8.83263 6.04735L8.83791 6.04879L8.84319 6.05026L8.84855 6.05177L8.85383 6.05334L8.85911 6.05493L8.86439 6.05658L8.86951 6.05827L8.87479 6.06002L8.88007 6.06179L8.88519 6.06361L8.89047 6.06546L8.89559 6.06737L8.90071 6.06932L8.90599 6.07131L8.91111 6.07334L8.91623 6.07542L8.92135 6.07754L8.92631 6.07969L8.93135 6.08188L8.93647 6.08412L8.94143 6.08641L8.94655 6.08872L8.95151 6.09107L8.95647 6.09347L8.96143 6.09591L8.96639 6.09839L8.97135 6.1009L8.97631 6.10346L8.98111 6.10606L8.98607 6.1087L8.99087 6.11137L8.99567 6.11407L9.00047 6.11682L9.00527 6.11962L9.00999 6.12245L9.01479 6.12531L9.01943 6.1282L9.02423 6.13114L9.02887 6.13411L9.03351 6.13712L9.03815 6.14018L9.04279 6.14326L9.04743 6.14638L9.05191 6.14954L9.05655 6.15272L9.06103 6.15595L9.06551 6.15922L9.06999 6.16252L9.07447 6.16585L9.07895 6.16922L9.08327 6.17262L9.08767 6.17606L9.09199 6.17953L9.09631 6.18302L9.10063 6.18658L9.10495 6.19014L9.10911 6.19375L9.11343 6.19738L9.11759 6.20106L9.12175 6.20477L9.12591 6.20849L9.13007 6.21226L9.13407 6.21606L9.13823 6.2199L9.14223 6.22375L9.14623 6.22766L9.15023 6.23158L9.15407 6.23554L9.15807 6.23953L9.16191 6.24356L9.16575 6.2476L9.16951 6.25168L9.17319 6.25578L9.17703 6.25993L9.18071 6.2641L9.18439 6.2683L9.18807 6.27252L9.19175 6.27679L9.19543 6.28107L9.19895 6.28539L9.20247 6.28974L9.20599 6.2941L9.20935 6.2985L9.21287 6.30292L9.21623 6.30738L9.21959 6.31186L9.22295 6.31638L9.22631 6.3209L9.22951 6.32548L9.23271 6.33006L9.23591 6.33468L9.23911 6.33932L9.24215 6.34398L9.24519 6.34869L9.24815 6.3534L9.25119 6.35814L9.25423 6.36293L9.25711 6.36772L9.25999 6.37254L9.26367 6.37883L9.98215 7.62341L9.98823 7.63372L9.99095 7.63854L9.99367 7.64339L9.99623 7.64825L9.99879 7.65314L10.0015 7.65803L10.0039 7.66295L10.0065 7.6679L10.0089 7.67285L10.0113 7.67782L10.0137 7.68281L10.0159 7.68781L10.0183 7.69282L10.0205 7.69786L10.0226 7.70291L10.0249 7.70798L10.0269 7.71306L10.029 7.71816L10.0311 7.72328L10.033 7.72841L10.0349 7.73354L10.0369 7.7387L10.0388 7.74386L10.0405 7.74904L10.0423 7.75424L10.0441 7.75945L10.0458 7.76466L10.0474 7.76989L10.049 7.77513L10.0505 7.78039L10.052 7.78565L10.0536 7.79092L10.055 7.79622L10.0563 7.8015L10.0577 7.80681L10.059 7.81214L10.0603 7.81746L10.0616 7.82278L10.0627 7.82814L10.0638 7.83347L10.0649 7.83882L10.0661 7.8442L10.067 7.84957L10.068 7.85495L10.0689 7.86034L10.0697 7.86573L10.0707 7.87113L10.0715 7.87654L10.0721 7.88195L10.0729 7.88737L10.0736 7.89279L10.0742 7.89822L10.0749 7.90364L10.0753 7.90907L10.0758 7.91453L10.0763 7.91996L10.0768 7.92541L10.0771 7.93086L10.0774 7.93631L10.0777 7.94176L10.0781 7.94723L10.0782 7.95268L10.0784 7.95814L10.0785 7.96362V7.98546L10.0784 7.99093V7.99638L10.0781 8.00186L10.0779 8.0073L10.0776 8.01274L10.0773 8.01826L10.0769 8.0237L10.0766 8.02914L10.0761 8.03458L10.0757 8.04002L10.0752 8.04546L10.0745 8.0509L10.0739 8.05634L10.0733 8.06178L10.0726 8.06722L10.0718 8.07266L10.071 8.0781L10.0702 8.08346L10.0693 8.0889L10.0685 8.09426L10.0675 8.0997L10.0664 8.10506L10.0654 8.1105L10.0643 8.11586L10.0632 8.12122L10.0619 8.12658L10.0608 8.13194L10.0595 8.1373L10.0582 8.14266L10.0568 8.14794L10.0553 8.1533L10.0539 8.15858L10.0525 8.16386L10.0509 8.16914L10.0495 8.17442L10.0477 8.1797L10.0461 8.18498L10.0444 8.19026L10.0426 8.19546L10.0409 8.20066L10.0391 8.20594L10.0372 8.21114L10.0353 8.21634L10.0332 8.22146L10.0313 8.22666L10.0292 8.23178L10.0271 8.2369L10.0249 8.24202L10.0228 8.24714L10.0204 8.25226L10.0181 8.2573L10.0159 8.26242L10.0135 8.26746L10.0111 8.2725L10.0085 8.27746L10.0061 8.2825L10.0036 8.28746L10.0009 8.29242L9.99831 8.29738L9.99559 8.30226L9.99287 8.30722L9.97031 8.34674L9.94767 8.38618L9.92511 8.4257L9.90239 8.46514L9.87975 8.50458L9.85703 8.54402L9.83431 8.58354L9.81159 8.6229L9.78895 8.66234L9.76623 8.70178L9.72071 8.78058L9.67511 8.85938L9.62959 8.93818L9.58383 9.01698L9.53831 9.0957L9.44703 9.25322L9.40151 9.33202L9.35591 9.41082L9.31039 9.48962L9.26479 9.56842L9.26191 9.57322L9.25903 9.57794L9.25615 9.58266L9.25327 9.58738L9.25039 9.59202L9.24743 9.59666L9.24439 9.6013L9.24119 9.60586L9.23815 9.61042L9.23495 9.61498L9.23175 9.61954L9.22855 9.62394L9.22535 9.62842L9.22199 9.6329L9.21863 9.6373L9.21527 9.64162L9.21191 9.64594L9.20839 9.65026L9.20503 9.65458L9.20151 9.65882L9.19799 9.66306L9.19431 9.66722L9.19079 9.67138L9.18711 9.67554L9.18343 9.67962L9.17975 9.6837L9.17607 9.6877L9.17223 9.69178L9.16839 9.6957L9.16463 9.6997L9.16079 9.70362L9.15695 9.70746L9.15295 9.71138L9.14895 9.71514L9.14511 9.71898L9.14095 9.72274L9.13695 9.72642L9.13295 9.73018L9.12879 9.73386L9.12463 9.73746L9.12047 9.74106L9.11631 9.74458L9.11215 9.74818L9.10783 9.75162L9.10367 9.75514L9.09935 9.7585L9.09503 9.76194L9.09055 9.7653L9.08631 9.76866L9.08183 9.77194L9.07751 9.77522L9.07303 9.77842L9.06855 9.78162L9.06407 9.78474L9.05959 9.78786L9.05495 9.79098L9.05031 9.79402L9.04583 9.79706L9.04119 9.80002L9.03655 9.80298L9.03175 9.80586L9.02711 9.80874L9.02247 9.81154L9.01767 9.81434L9.01287 9.81714L9.00807 9.81986L9.00335 9.8225L8.99855 9.82522L8.99375 9.82778L8.98879 9.83034L8.98399 9.8329L8.97903 9.83538L8.97407 9.83786L8.96911 9.84026L8.96415 9.84266L8.95919 9.84498L8.95423 9.8473L8.94911 9.84954L8.94415 9.85178L8.93903 9.85402L8.93391 9.8561L8.92879 9.85826L8.92375 9.86034L8.91863 9.86234L8.91351 9.86434L8.90839 9.86626L8.90327 9.86818L8.89799 9.87002L8.89271 9.87186L8.88759 9.87362L8.88231 9.87538L8.87703 9.87706L8.87175 9.87874L8.86647 9.88034L8.86119 9.88194L8.85591 9.88346L8.85047 9.88498L8.84527 9.88642L8.83983 9.88778L8.83455 9.88914L8.82911 9.8905L8.82367 9.89178L8.81839 9.89298L8.81295 9.89418L8.80751 9.89538L8.80207 9.89642L8.79663 9.89746L8.79119 9.8985L8.78559 9.89946L8.78015 9.90042L8.77471 9.9013L8.76911 9.9021L8.76375 9.9029L8.75815 9.90362L8.75271 9.90434L8.74711 9.90498L8.74151 9.90562L8.73607 9.90618L8.73047 9.90666L8.72487 9.90714L8.71927 9.90762L8.71367 9.90794L8.70807 9.90826L8.70247 9.90858L8.69687 9.90882L8.69127 9.90898L8.68575 9.90914L8.68015 9.90922L8.63583 9.90938L8.58919 9.90954L8.54039 9.9097L8.48959 9.90986L8.43719 9.90994L8.38327 9.91002L8.32815 9.9101L8.27223 9.91018L8.15839 9.91026L8.04383 9.91034L7.93062 9.91042H7.82081L7.71628 9.91034H7.61909L7.53134 9.91026H7.45494L7.34448 9.91018L7.30372 9.9101L7.29813 9.91002L7.2927 9.90994L7.28711 9.90986L7.28151 9.90962L7.27608 9.90938L7.27048 9.90914L7.26504 9.90882L7.25945 9.90842L7.25402 9.90802L7.24842 9.90762L7.24299 9.90706L7.2374 9.90658L7.23196 9.90594L7.22652 9.9053L7.22093 9.90466L7.21549 9.90394L7.21006 9.90314L7.20463 9.90234L7.19904 9.90154L7.1936 9.90066L7.18816 9.8997L7.18273 9.89874L7.17745 9.8977L7.17202 9.89658L7.16659 9.89554L7.16115 9.89434L7.15572 9.89314L7.15044 9.89194L7.145 9.89066L7.13973 9.8893L7.1343 9.88794L7.12902 9.88658L7.12375 9.88514L7.11848 9.88362L7.1132 9.8821L7.10776 9.8805L7.10249 9.8789L7.09737 9.8773L7.0921 9.87562L7.08683 9.87386L7.08171 9.8721L7.07644 9.87026L7.07116 9.86842L7.06604 9.8665L7.06093 9.86458L7.05581 9.86258L7.0507 9.86058L7.04559 9.8585L7.04047 9.85642L7.03536 9.85426L7.0304 9.8521L7.02528 9.84986L7.02033 9.84762L7.01521 9.84538L7.01026 9.84306L7.00531 9.84066L7.00035 9.83826L6.9954 9.83578L6.99044 9.8333L6.98564 9.83082L6.98069 9.82826L6.97589 9.82562L6.9711 9.82298L6.96631 9.82034L6.96151 9.81762L6.95672 9.81482L6.95192 9.8121L6.94712 9.80922L6.94249 9.80634L6.93785 9.80346L6.93306 9.8005L6.92842 9.79754L6.92395 9.79458L6.91931 9.79154L6.91468 9.78842L6.9102 9.7853L6.90572 9.78218L6.90109 9.77898L6.89677 9.77578L6.8923 9.7725L6.88782 9.76922L6.88351 9.76586L6.87903 9.7625L6.87471 9.75906L6.8704 9.75562L6.86608 9.75218L6.86193 9.74866L6.85761 9.74514L6.85346 9.74154L6.8493 9.73794L6.84515 9.73434L6.84099 9.73066L6.83684 9.7269L6.83284 9.72314L6.82884 9.71938L6.82484 9.71562L6.82085 9.7117L6.81685 9.70786L6.81302 9.70394L6.80918 9.70002L6.80535 9.69602L6.80151 9.69202L6.79768 9.68794L6.794 9.68386L6.79016 9.67978L6.78648 9.67562L6.7828 9.67146L6.77929 9.66722L6.77561 9.66298L6.7721 9.65874L6.76858 9.65442L6.76507 9.6501L6.76171 9.64578L6.75819 9.64138L6.75484 9.6369L6.75148 9.6325L6.74828 9.62802L6.74492 9.62346L6.74173 9.6189L6.73853 9.61434L6.73533 9.6097L6.73374 9.60746L6.7323 9.60506L6.7307 9.60274L6.7291 9.60042L6.72766 9.5981L6.72606 9.5957L6.72463 9.59338L6.72303 9.59098L6.72159 9.58866L6.72015 9.58626L6.71871 9.58386L6.71728 9.58146L6.71568 9.57906L6.7144 9.57666L6.7064 9.56306L5.98616 8.31546L5.98472 8.31306L5.98344 8.31066L5.98216 8.30818L5.98072 8.30578L5.97945 8.3033L5.97817 8.3009L5.97545 8.29602L5.97289 8.29114L5.9705 8.28618L5.96794 8.28122L5.96554 8.27626L5.96315 8.27122L5.96075 8.26626L5.95851 8.26122L5.95628 8.25618L5.95404 8.25114L5.9518 8.24602L5.94972 8.2409L5.94764 8.23578L5.94556 8.23066L5.94364 8.22554L5.94156 8.22034L5.93965 8.21522L5.93789 8.21002L5.93597 8.20482L5.93421 8.19954L5.93246 8.19434L5.93086 8.18906L5.9291 8.18378L5.9275 8.1785L5.9259 8.17322L5.92446 8.16794L5.92303 8.16258L5.92159 8.1573L5.92015 8.15194L5.91871 8.14658L5.91743 8.14122L5.91615 8.13586L5.91503 8.13042L5.91376 8.12506L5.91264 8.11962L5.91152 8.11426L5.91055 8.10882L5.90943 8.10338L5.90848 8.09794L5.90768 8.0925L5.90672 8.08706L5.90592 8.08154L5.90512 8.0761L5.90432 8.07066L5.90368 8.06514L5.90304 8.05962L5.9024 8.05418L5.90176 8.04866L5.90128 8.04314L5.90064 8.03762L5.90032 8.0321L5.89985 8.02658L5.89953 8.02106L5.89921 8.01554L5.89889 8.01002L5.89873 8.0045L5.89857 7.99897L5.89841 7.99344L5.89825 7.98791V7.98236L5.89809 7.97683L5.89825 7.97129V7.96574L5.89841 7.96021L5.89857 7.95466L5.89873 7.94912L5.89889 7.94358L5.89921 7.93806L5.89953 7.93251L5.89985 7.92698L5.90032 7.92145L5.9008 7.91592L5.90128 7.91038L5.90176 7.90487L5.9024 7.89936L5.90304 7.89384L5.90368 7.88833L5.90432 7.88282L5.90512 7.87731L5.90592 7.87182L5.90672 7.86634L5.90768 7.86085L5.90863 7.85537L5.9096 7.8499L5.91055 7.84444L5.91167 7.83898L5.91264 7.83354L5.91391 7.82809L5.91503 7.82265L5.91631 7.81723L5.91759 7.81182L5.91887 7.80641L5.92015 7.80101L5.92159 7.79562L5.92303 7.79025L5.92446 7.78488L5.92606 7.77953L5.92766 7.77418L5.92926 7.76885L5.93086 7.76354L5.93261 7.75823L5.93437 7.75293L5.93613 7.74766L5.93789 7.74238L5.93981 7.73714L5.94172 7.7319L5.94364 7.72666L5.94572 7.72146L5.9478 7.71625L5.94987 7.71106L5.95196 7.7059L5.95404 7.70076L5.95628 7.69562L5.95851 7.6905L5.96091 7.68539L5.96315 7.68031L5.96554 7.67525L5.96794 7.67021L5.9705 7.66518L5.97305 7.66016L5.97561 7.65517L5.97817 7.6502L5.98072 7.64524L5.98344 7.6403L5.98616 7.6354L5.99143 7.62618L6.0704 7.48924L6.1564 7.34008L6.26204 7.1567L6.37905 6.95373L6.49893 6.74589L6.61322 6.54783L6.66548 6.45704L6.71328 6.37421L6.71616 6.36943L6.71903 6.36467L6.72191 6.35994L6.72479 6.35524L6.72782 6.35055L6.73086 6.34589L6.7339 6.34126L6.73693 6.33665L6.73997 6.33206L6.74316 6.32749L6.74636 6.32297L6.74956 6.31844L6.75292 6.31397L6.75612 6.30951L6.75947 6.30508L6.76283 6.30067L6.76634 6.2963L6.7697 6.29194L6.77322 6.28762L6.77673 6.28333L6.78025 6.27906L6.78376 6.27482L6.78744 6.2706L6.79096 6.26642L6.7948 6.26226L6.79848 6.25814L6.80215 6.25404L6.80599 6.24997L6.80966 6.24592L6.8135 6.24191L6.81749 6.23794L6.82133 6.23398L6.82516 6.23006L6.82916 6.22617L6.83316 6.22231L6.83716 6.21848L6.84131 6.21469L6.84531 6.21092L6.84946 6.20718L6.85346 6.20349L6.85777 6.19981L6.86193 6.19617L6.86608 6.19255L6.8704 6.18899L6.87456 6.18544L6.87887 6.18193L6.88319 6.17846L6.8875 6.175L6.89198 6.1716L6.89629 6.16822L6.90077 6.16489L6.90524 6.16158L6.90972 6.1583L6.9142 6.15506L6.91868 6.15186L6.92331 6.14868L6.92794 6.14554L6.93242 6.14244L6.93705 6.13939L6.94169 6.13635L6.94648 6.13337L6.95111 6.13041L6.95592 6.1275L6.96055 6.12461L6.96535 6.12176L6.97014 6.11894L6.97494 6.11618L6.97973 6.11345L6.98468 6.11074L6.98948 6.1081L6.99444 6.10547L6.99923 6.1029L7.00419 6.10036L7.00914 6.09785L7.0141 6.09538L7.01905 6.09296L7.02416 6.09058L7.02912 6.08822L7.03424 6.08593L7.03919 6.08366L7.04431 6.08143L7.04942 6.07924L7.05454 6.0771L7.05965 6.07499L7.06476 6.07293L7.07004 6.0709L7.07516 6.06892L7.08043 6.06698L7.08555 6.0651L7.09082 6.06324L7.09609 6.06142L7.10137 6.05965L7.10664 6.05792L7.11192 6.05624L7.1172 6.05459L7.12247 6.05302L7.12774 6.05145L7.13318 6.04994L7.13845 6.04847L7.14388 6.04705L7.14932 6.04568L7.1546 6.04435L7.16003 6.04306L7.16547 6.04182L7.1709 6.04062L7.17633 6.03947L7.18177 6.03837L7.1872 6.0373L7.1928 6.0363L7.19824 6.03532L7.20367 6.03441L7.20926 6.03353L7.21198 6.03311L7.2147 6.03271L7.21741 6.03231L7.22029 6.03193L7.22301 6.03156L7.22572 6.03119L7.2286 6.03084L7.23132 6.03051L7.23404 6.03019L7.23692 6.02987L7.23963 6.02958L7.24235 6.0293L7.24523 6.02901L7.24794 6.02875L7.25066 6.0285L7.25354 6.02826L7.25625 6.02803L7.25913 6.02782L7.26185 6.02762L7.26472 6.02742L7.26744 6.02725L7.27032 6.02707L7.27303 6.02693L7.27592 6.02678L7.27864 6.02666L7.28151 6.02654L7.28423 6.02643L7.28711 6.02634L7.28982 6.02626L7.2927 6.02619L7.29542 6.02614L7.29829 6.0261L7.30197 6.02606L7.3058 6.026L7.31028 6.0259L8.66623 6.02624ZM16.3094 9.9101H9.78767L15.8293 -0.554325L16.3265 -0.584839L16.3094 9.9101ZM7.30948 6.21776L7.30452 6.21786L7.30069 6.21789L7.29877 6.21792L7.29685 6.21795L7.29478 6.218L7.29286 6.21806L7.29094 6.21813L7.28902 6.21819L7.28711 6.21827L7.28519 6.21837L7.28311 6.21846L7.28119 6.21858L7.27928 6.21869L7.27736 6.21882L7.27544 6.21894L7.27336 6.21909L7.27144 6.21925L7.26952 6.21939L7.2676 6.21957L7.26568 6.21974L7.26376 6.21992L7.26169 6.22011L7.25977 6.22032L7.25785 6.22053L7.25593 6.22075L7.25402 6.22098L7.2521 6.22122L7.25002 6.22146L7.2481 6.22171L7.24619 6.22197L7.24427 6.22224L7.24235 6.2225L7.24043 6.22281L7.23868 6.22306L7.23452 6.2237L7.23068 6.22436L7.22684 6.22505L7.22301 6.22575L7.21917 6.2265L7.21518 6.22729L7.21134 6.2281L7.2075 6.22895L7.20367 6.22985L7.19983 6.23075L7.196 6.2317L7.19216 6.23267L7.18832 6.2337L7.18448 6.23474L7.18081 6.23582L7.17697 6.23693L7.17314 6.23808L7.1693 6.23924L7.16547 6.24046L7.16179 6.24169L7.15796 6.24297L7.15428 6.24426L7.15044 6.24561L7.1466 6.24696L7.14293 6.24837L7.13925 6.24979L7.13541 6.25125L7.13174 6.25275L7.12806 6.25427L7.12439 6.25583L7.12071 6.2574L7.11704 6.25902L7.11336 6.26066L7.10968 6.26234L7.106 6.26405L7.10233 6.26579L7.09865 6.26755L7.09513 6.26934L7.09146 6.27116L7.08794 6.27302L7.08427 6.2749L7.08075 6.27682L7.07723 6.27875L7.07372 6.28072L7.07004 6.28272L7.06652 6.28475L7.06301 6.28679L7.05965 6.28889L7.05613 6.291L7.05262 6.29313L7.04926 6.2953L7.04575 6.29749L7.04239 6.29971L7.03904 6.30197L7.03568 6.30423L7.03232 6.30654L7.02896 6.30886L7.0256 6.31122L7.02225 6.31358L7.01905 6.31598L7.01569 6.31842L7.0125 6.32087L7.0093 6.32335L7.00611 6.32586L7.00291 6.32838L6.99971 6.33094L6.99652 6.33352L6.99332 6.33612L6.99028 6.33874L6.98708 6.3414L6.98404 6.34406L6.98101 6.34677L6.97797 6.3495L6.97494 6.35223L6.97206 6.35498L6.96902 6.35778L6.96615 6.36058L6.96311 6.36341L6.96023 6.36626L6.95736 6.36913L6.95464 6.37204L6.95176 6.37494L6.94888 6.37787L6.94616 6.38083L6.94344 6.38382L6.94073 6.38679L6.93801 6.38982L6.93529 6.39283L6.93258 6.39589L6.93002 6.39897L6.92746 6.40207L6.92475 6.40518L6.92235 6.4083L6.91979 6.41144L6.91724 6.41458L6.91484 6.41777L6.91228 6.42097L6.90988 6.42419L6.90748 6.42742L6.90524 6.43066L6.90284 6.43393L6.90061 6.43721L6.89821 6.4405L6.89597 6.44381L6.89374 6.44713L6.89166 6.45047L6.88942 6.45382L6.88734 6.4572L6.88527 6.46058L6.88319 6.46396L6.88111 6.46738L6.87903 6.47078L6.83172 6.55291L6.77929 6.64367L6.665 6.84171L6.54528 7.04954L6.42828 7.25247L6.32263 7.43586L6.23664 7.58502L6.15783 7.72166L6.15336 7.72956L6.15159 7.73273L6.14968 7.73624L6.14776 7.73976L6.146 7.74332L6.14408 7.74689L6.14232 7.75046L6.14056 7.75406L6.13881 7.75766L6.13705 7.7613L6.13545 7.76495L6.13369 7.76861L6.1321 7.77227L6.1305 7.77596L6.12906 7.77969L6.12746 7.78338L6.12602 7.7871L6.12443 7.79086L6.12299 7.79462L6.12171 7.79838L6.12027 7.80216L6.11899 7.80594L6.11755 7.80977L6.11628 7.81358L6.115 7.81742L6.11388 7.82126L6.11259 7.82511L6.11147 7.82896L6.11035 7.83286L6.10923 7.83675L6.10812 7.84065L6.107 7.84455L6.10604 7.84845L6.10508 7.85238L6.10412 7.85633L6.10316 7.86026L6.10236 7.86419L6.1014 7.86816L6.10061 7.87214L6.09981 7.87612L6.09901 7.88008L6.09837 7.88406L6.09757 7.88806L6.09693 7.89206L6.09629 7.89608L6.09565 7.90008L6.09501 7.90409L6.09453 7.90812L6.09405 7.91213L6.09357 7.91618L6.09309 7.9202L6.09262 7.92423L6.0923 7.92829L6.09182 7.93234L6.0915 7.93636L6.09118 7.94041L6.09102 7.94446L6.0907 7.94851L6.09054 7.95257L6.09038 7.95662L6.09022 7.96067L6.09006 7.96472V7.97283L6.0899 7.97688L6.09006 7.98092V7.98902L6.09022 7.99307L6.09038 7.9971L6.09054 8.00114L6.0907 8.00522L6.09102 8.00922L6.09118 8.01322L6.0915 8.0173L6.09182 8.0213L6.09214 8.0253L6.09262 8.0293L6.09309 8.0333L6.09341 8.03738L6.09389 8.0413L6.09453 8.0453L6.09501 8.0493L6.09565 8.0533L6.09613 8.05722L6.09677 8.06122L6.09757 8.06514L6.09821 8.06906L6.09901 8.07306L6.09965 8.07698L6.10045 8.0809L6.10124 8.08474L6.1022 8.08866L6.103 8.09258L6.10396 8.09642L6.10492 8.10034L6.10588 8.10418L6.10684 8.10802L6.10796 8.11186L6.10892 8.1157L6.11004 8.11946L6.11116 8.1233L6.11244 8.12706L6.11356 8.13082L6.11483 8.13458L6.11595 8.13834L6.11723 8.1421L6.11867 8.14578L6.11995 8.14946L6.12123 8.15314L6.12267 8.15682L6.12411 8.1605L6.12554 8.16418L6.12698 8.16778L6.12858 8.17138L6.13002 8.17498L6.13162 8.17858L6.13321 8.18218L6.13481 8.1857L6.13657 8.18922L6.13817 8.19274L6.13993 8.19626L6.14168 8.1997L6.14344 8.20314L6.1452 8.20666L6.14712 8.21026L6.14792 8.21178L6.14888 8.21346L6.14984 8.21514L6.1508 8.21682L6.15176 8.21858L6.15256 8.22002L6.87232 9.46682L6.87951 9.47914L6.88015 9.48034L6.88127 9.48202L6.88223 9.4837L6.88335 9.48538L6.88431 9.48706L6.88543 9.48874L6.88639 9.49042L6.8875 9.4921L6.88862 9.49378L6.88974 9.49546L6.8907 9.49706L6.89182 9.49866L6.89294 9.50034L6.8939 9.50186L6.89629 9.50522L6.89853 9.5085L6.90077 9.5117L6.90316 9.5149L6.9054 9.51802L6.9078 9.52122L6.9102 9.52434L6.9126 9.52746L6.91516 9.53058L6.91756 9.53362L6.92011 9.53674L6.92267 9.5397L6.92523 9.54274L6.92778 9.5457L6.93034 9.54874L6.9329 9.55162L6.93561 9.55458L6.93833 9.55754L6.94105 9.56042L6.94376 9.56322L6.94648 9.5661L6.9492 9.5689L6.95208 9.5717L6.9548 9.5745L6.95768 9.5773L6.96055 9.58002L6.96343 9.58274L6.96647 9.58538L6.96934 9.5881L6.97238 9.59074L6.97525 9.59338L6.97829 9.59594L6.98133 9.5985L6.98436 9.60106L6.9874 9.60362L6.9906 9.6061L6.99364 9.60858L6.99684 9.61106L6.99987 9.61346L7.00307 9.61594L7.00627 9.61826L7.00962 9.62066L7.01282 9.62298L7.01601 9.6253L7.01937 9.62762L7.02257 9.62986L7.02592 9.6321L7.02928 9.63426L7.03264 9.6365L7.036 9.63866L7.03935 9.64074L7.04271 9.6429L7.04623 9.64498L7.04958 9.64698L7.0531 9.64906L7.05661 9.65106L7.06013 9.65306L7.06348 9.65498L7.067 9.6569L7.07068 9.65874L7.0742 9.66066L7.07772 9.6625L7.08123 9.66426L7.08491 9.6661L7.08858 9.66786L7.0921 9.66954L7.09577 9.6713L7.09945 9.6729L7.10313 9.67458L7.1068 9.67618L7.11048 9.67778L7.11416 9.6793L7.11784 9.6809L7.12151 9.68234L7.12535 9.68386L7.12902 9.6853L7.13286 9.68666L7.13653 9.68802L7.14037 9.68938L7.1442 9.69074L7.14788 9.69202L7.15172 9.6933L7.15556 9.6945L7.15939 9.6957L7.16323 9.6969L7.16707 9.69802L7.1709 9.69914L7.17474 9.70026L7.17857 9.7013L7.18257 9.70234L7.1864 9.7033L7.19024 9.70426L7.19424 9.70514L7.19808 9.7061L7.20191 9.7069L7.20591 9.70778L7.20974 9.70858L7.21374 9.70938L7.21757 9.7101L7.22157 9.71082L7.2254 9.71146L7.2294 9.7121L7.2334 9.71274L7.23724 9.7133L7.24123 9.71386L7.24523 9.71442L7.24906 9.7149L7.25306 9.7153L7.25705 9.71578L7.26105 9.7161L7.26488 9.7165L7.26888 9.71682L7.27288 9.71714L7.27688 9.71738L7.28071 9.71762L7.28471 9.71778L7.2887 9.71794L7.2927 9.7181L7.29669 9.71818L7.30053 9.71826H7.30468L7.34464 9.71834L7.4551 9.71842L7.5315 9.7185H7.61909L7.71628 9.71858H7.82081H7.93062H8.04383L8.15823 9.7185L8.27207 9.71834H8.32799L8.38295 9.71826L8.43687 9.7181L8.48927 9.71802L8.53991 9.71786L8.58871 9.71778L8.63519 9.71762L8.67807 9.71746L8.68175 9.71738L8.68575 9.7173L8.68967 9.71714L8.69367 9.71698L8.69767 9.71674L8.70151 9.71658L8.70551 9.71626L8.70951 9.71594L8.71351 9.71562L8.71751 9.7153L8.72135 9.7149L8.72535 9.71442L8.72935 9.71394L8.73335 9.71346L8.73719 9.7129L8.74119 9.71234L8.74519 9.71178L8.74903 9.71114L8.75303 9.7105L8.75687 9.70978L8.76087 9.70906L8.76471 9.70826L8.76863 9.70746L8.77247 9.70666L8.77631 9.70586L8.78031 9.7049L8.78415 9.70402L8.78799 9.70306L8.79183 9.7021L8.79583 9.70106L8.79967 9.70002L8.80351 9.69898L8.80735 9.69786L8.81119 9.69674L8.81503 9.69554L8.81871 9.69434L8.82255 9.69314L8.82639 9.69186L8.83007 9.69058L8.83391 9.68922L8.83759 9.68786L8.84143 9.6865L8.84511 9.68514L8.84887 9.6837L8.85255 9.68218L8.85623 9.68074L8.85991 9.67922L8.86359 9.67762L8.86727 9.67602L8.87095 9.67442L8.87463 9.67274L8.87831 9.67114L8.88183 9.66938L8.88551 9.6677L8.88903 9.66594L8.89271 9.6641L8.89623 9.66234L8.89975 9.66042L8.90343 9.65858L8.90695 9.65666L8.91047 9.65474L8.91383 9.65282L8.91735 9.65082L8.92087 9.64882L8.92423 9.64682L8.92767 9.64474L8.93103 9.64266L8.93455 9.6405L8.93791 9.63842L8.94127 9.63626L8.94463 9.63402L8.94783 9.63178L8.95119 9.62954L8.95455 9.6273L8.95775 9.62498L8.96095 9.62266L8.96431 9.62034L8.96751 9.61794L8.97071 9.61554L8.97391 9.61314L8.97695 9.61066L8.98015 9.60826L8.98335 9.60578L8.98639 9.60322L8.98943 9.60066L8.99247 9.5981L8.99551 9.59554L8.99855 9.5929L9.00159 9.59034L9.00463 9.58762L9.00743 9.58498L9.01031 9.58226L9.01319 9.57954L9.01607 9.57682L9.01895 9.57402L9.02183 9.5713L9.02471 9.5685L9.02743 9.56562L9.03015 9.56282L9.03287 9.55994L9.03559 9.55706L9.03831 9.5541L9.04103 9.55122L9.04359 9.54826L9.04631 9.54522L9.04887 9.54226L9.05143 9.5393L9.05399 9.53626L9.05655 9.53314L9.05895 9.5301L9.06135 9.52706L9.06391 9.52394L9.06631 9.52082L9.06871 9.51762L9.07095 9.5145L9.07335 9.5113L9.07559 9.5081L9.07783 9.5049L9.08023 9.5017L9.08231 9.49842L9.08455 9.49514L9.08679 9.49186L9.08879 9.48858L9.09087 9.48522L9.09295 9.48194L9.09503 9.47858L9.09711 9.47522L9.09903 9.47178L9.14431 9.39362L9.18983 9.31474L9.23543 9.23594L9.28111 9.15714L9.37239 8.99962L9.41791 8.92082L9.46351 8.8421L9.50903 8.76338L9.55463 8.68466L9.59999 8.60586L9.62271 8.56658L9.64543 8.52714L9.66807 8.48778L9.69079 8.44842L9.71351 8.40898L9.73599 8.36962L9.75871 8.33026L9.78127 8.29082L9.80383 8.25138L9.82583 8.21306L9.82759 8.20994L9.82951 8.20642L9.83127 8.2029L9.83319 8.19938L9.83495 8.19586L9.83671 8.19226L9.83847 8.18874L9.84023 8.18514L9.84199 8.18154L9.84359 8.17794L9.84519 8.17434L9.84679 8.17074L9.84839 8.16714L9.84983 8.16346L9.85143 8.15978L9.85287 8.1561L9.85431 8.15242L9.85575 8.14874L9.85703 8.14506L9.85847 8.1413L9.85975 8.13762L9.86103 8.13386L9.86231 8.13018L9.86343 8.12642L9.86471 8.12266L9.86583 8.1189L9.86695 8.11506L9.86807 8.1113L9.86919 8.10754L9.87015 8.1037L9.87111 8.09986L9.87207 8.0961L9.87303 8.09226L9.87399 8.08842L9.87495 8.08458L9.87575 8.08074L9.87655 8.07682L9.87735 8.07298L9.87815 8.06914L9.87879 8.0653L9.87943 8.06138L9.88007 8.05746L9.88071 8.05362L9.88135 8.0497L9.88199 8.04578L9.88247 8.04186L9.88295 8.03794L9.88343 8.03402L9.88391 8.0301L9.88439 8.02618L9.88471 8.02226L9.88503 8.01834L9.88535 8.01442L9.88567 8.01042L9.88599 8.00658L9.88615 8.00258L9.88631 7.99863L9.88647 7.99469L9.88663 7.99074L9.88679 7.98679V7.96703L9.88663 7.96307V7.95912L9.88647 7.95516L9.88631 7.95121L9.88599 7.94728L9.88583 7.94331L9.88551 7.93937L9.88519 7.93543L9.88487 7.93149L9.88455 7.92754L9.88407 7.92361L9.88375 7.91966L9.88327 7.91574L9.88279 7.91182L9.88231 7.9079L9.88167 7.90396L9.88103 7.90006L9.88055 7.89614L9.87991 7.89223L9.87911 7.88833L9.87847 7.88445L9.87767 7.88056L9.87687 7.87668L9.87623 7.87281L9.87527 7.86893L9.87447 7.86504L9.87351 7.86119L9.87271 7.85735L9.87175 7.8535L9.87079 7.84966L9.86967 7.84584L9.86871 7.84202L9.86759 7.83822L9.86647 7.83442L9.86535 7.83061L9.86423 7.82684L9.86311 7.82305L9.86183 7.81928L9.86055 7.81554L9.85927 7.8118L9.85799 7.80806L9.85655 7.80434L9.85527 7.80061L9.85383 7.79692L9.85239 7.79322L9.85095 7.78954L9.84951 7.78589L9.84791 7.78221L9.84647 7.77857L9.84487 7.77492L9.84327 7.77133L9.84167 7.76771L9.83991 7.76412L9.83831 7.76054L9.83655 7.75696L9.83479 7.75342L9.83303 7.74989L9.83111 7.74636L9.82935 7.74284L9.82743 7.73934L9.82551 7.73584L9.82359 7.73239L9.82167 7.72895L9.81607 7.71931L9.09775 6.47507L9.09487 6.47015L9.09295 6.46702L9.09087 6.46353L9.08879 6.46006L9.08663 6.45662L9.08439 6.45318L9.08215 6.44977L9.07991 6.44637L9.07751 6.44299L9.07527 6.43962L9.07287 6.43628L9.07047 6.43294L9.06807 6.42962L9.06567 6.42634L9.06327 6.42304L9.06071 6.41977L9.05831 6.41655L9.05575 6.41333L9.05319 6.41011L9.05063 6.40693L9.04791 6.40377L9.04535 6.40062L9.04263 6.39749L9.03991 6.39438L9.03719 6.39131L9.03447 6.38825L9.03175 6.38519L9.02887 6.38217L9.02615 6.37918L9.02327 6.37619L9.02039 6.37324L9.01751 6.3703L9.01463 6.36738L9.01175 6.3645L9.00871 6.36162L9.00591 6.35877L9.00287 6.35594L8.99983 6.35314L8.99679 6.35038L8.99375 6.34762L8.99071 6.34488L8.98767 6.34218L8.98447 6.33951L8.98143 6.33686L8.97823 6.33422L8.97503 6.33162L8.97183 6.32902L8.96863 6.32647L8.96543 6.32394L8.96223 6.32143L8.95887 6.31895L8.95567 6.31651L8.95231 6.31408L8.94895 6.31166L8.94575 6.3093L8.94239 6.30695L8.93903 6.30463L8.93567 6.30234L8.93231 6.30008L8.92879 6.29784L8.92551 6.29563L8.92199 6.29346L8.91863 6.2913L8.91511 6.28918L8.91159 6.28708L8.90823 6.28502L8.90471 6.28299L8.90119 6.28096L8.89751 6.27898L8.89399 6.27705L8.89047 6.27511L8.88695 6.27322L8.88343 6.27137L8.87975 6.26954L8.87623 6.26773L8.87255 6.26595L8.86887 6.26422L8.86535 6.2625L8.86167 6.26082L8.85799 6.25918L8.85431 6.25756L8.85079 6.25598L8.84719 6.25441L8.84351 6.2529L8.83983 6.25141L8.83599 6.24994L8.83231 6.2485L8.82863 6.2471L8.82495 6.24574L8.82127 6.24441L8.81743 6.2431L8.81375 6.24183L8.80991 6.24058L8.80623 6.23938L8.80255 6.23822L8.79871 6.23707L8.79503 6.23595L8.79119 6.23488L8.78751 6.23384L8.78367 6.23283L8.77983 6.23184L8.77615 6.2309L8.77231 6.22999L8.76847 6.22911L8.76487 6.22826L8.76103 6.22745L8.75719 6.22668L8.75351 6.22593L8.74967 6.22521L8.74583 6.22454L8.74199 6.22388L8.73815 6.22327L8.73415 6.22267L8.73255 6.22241L8.73063 6.22216L8.72871 6.22189L8.72679 6.22165L8.72487 6.22141L8.72295 6.22117L8.72103 6.22093L8.71927 6.22072L8.71735 6.22051L8.71543 6.2203L8.71351 6.22011L8.71159 6.21994L8.70967 6.21976L8.70775 6.21958L8.70583 6.21942L8.70391 6.21928L8.70215 6.21914L8.70023 6.21901L8.69831 6.21888L8.69639 6.21877L8.69447 6.21866L8.69255 6.21856L8.69063 6.21848L8.68871 6.21838L8.68687 6.21832L8.68511 6.21826L8.68319 6.21819L8.68127 6.21814L8.67935 6.21811L8.67743 6.21808L8.67551 6.21806L8.67375 6.21805H8.66623L7.31236 6.21771L7.30948 6.21776ZM15.9439 -0.369183L10.12 9.71826H16.118L16.1345 -0.380867L15.9439 -0.369183ZM10.5449 7.35254L6.62888 0.569686L7.25306 -0.511264L15.1052 -0.545902L10.5449 7.35254ZM7.36399 -0.319952L6.85042 0.569686L10.5449 6.96893L14.7721 -0.352624L7.36399 -0.319952ZM8.70679 5.41458H3.83167L6.26924 1.1926L8.70679 5.41458ZM4.16398 5.22278H8.37463L6.26924 1.57622L4.16398 5.22278Z" fill="url(#paint1_linear_1_31)"/>
</g>
</g>
<defs>
<radialGradient id="paint0_radial_1_31" cx="0" cy="0" r="1" gradientUnits="userSpaceOnUse" gradientTransform="translate(12.2127 -2.98806) scale(18.9881 18.9878)">
<stop stop-color="#F9A6FF"/>
<stop offset="1" stop-color="#EA73FF"/>
</radialGradient>
<linearGradient id="paint1_linear_1_31" x1="3.31819" y1="0.0159997" x2="3.31819" y2="16" gradientUnits="userSpaceOnUse">
<stop stop-color="#F7B3FF"/>
<stop offset="1" stop-color="#EE8AFF"/>
</linearGradient>
<clipPath id="clip0_1_31">
<rect width="16" height="16" fill="white"/>
</clipPath>
</defs>
</svg>
