<svg width="16" height="16" viewBox="0 0 16 16" fill="none" xmlns="http://www.w3.org/2000/svg">
<g clip-path="url(#clip0_1_43)">
<path fill-rule="evenodd" clip-rule="evenodd" d="M16 0.48C16 0.215094 15.7849 0 15.52 0H0.48C0.215094 0 0 0.215094 0 0.48V15.52C0 15.7849 0.215094 16 0.48 16H15.52C15.7849 16 16 15.7849 16 15.52V0.48Z" fill="#C9284D"/>
<mask id="mask0_1_43" style="mask-type:alpha" maskUnits="userSpaceOnUse" x="0" y="0" width="16" height="16">
<path fill-rule="evenodd" clip-rule="evenodd" d="M16 0.48C16 0.215094 15.7849 0 15.52 0H0.48C0.215094 0 0 0.215094 0 0.48V15.52C0 15.7849 0.215094 16 0.48 16H15.52C15.7849 16 16 15.7849 16 15.52V0.48Z" fill="white"/>
</mask>
<g mask="url(#mask0_1_43)">
<path fill-rule="evenodd" clip-rule="evenodd" d="M16.069 0.468476C16.069 0.201375 15.8521 -0.0155029 15.585 -0.0155029H6.55072L-0.0636902 11.4409V15.6332C-0.0636902 15.9002 0.153189 16.1171 0.420291 16.1171H15.585C15.8521 16.1171 16.069 15.9002 16.069 15.6332V0.468476Z" fill="#BD163D"/>
<path fill-rule="evenodd" clip-rule="evenodd" d="M7.39526 16.1171H-0.0636902L-0.0636257 11.7204L2.39661 7.45914L7.39526 16.1171ZM10.8638 16.1171H7.63725C6.06005 13.3889 4.52255 10.7335 2.95167 8.0015C2.68971 7.54174 2.68477 6.96168 2.95449 6.49216L4.13093 4.4553L10.8638 16.1171ZM14.3323 16.1171H11.1058L4.25192 4.24574L5.86514 1.45149L14.3323 16.1171ZM14.5743 16.1171L5.98614 1.2419L6.71211 -0.0155029H8.48662L16.069 13.1091V16.1171H14.5743ZM16.069 -0.0155029V12.6984L8.72862 -0.0155029H16.069Z" fill="#8D102D"/>
<path fill-rule="evenodd" clip-rule="evenodd" d="M2.39655 7.87826L7.15328 16.1171H-0.0636902V12.1395L2.39655 7.87826ZM16.069 16.1171H14.8163L6.22806 1.2419L6.95404 -0.0155029H8.24462L16.069 13.5366V16.1171ZM14.0903 16.1171H11.3477L4.53413 4.17589L5.86508 1.87061L14.0903 16.1171ZM10.6218 16.1171H7.87925C7.87925 16.1171 4.32652 9.9615 3.13628 7.90209C2.90287 7.49826 2.90281 7.00054 3.13609 6.59665C3.56646 5.85152 4.13088 4.87428 4.13088 4.87428L10.6218 16.1171ZM8.97062 -0.0155029H16.069V12.2792L8.97062 -0.0155029Z" fill="url(#paint0_radial_1_43)"/>
<path fill-rule="evenodd" clip-rule="evenodd" d="M14.4126 16.6752L11.6684 16.679L4.53418 4.1759L5.86513 1.87062L14.4126 16.6752ZM10.9415 16.6709L8.19263 16.6598L8.02423 16.368L7.56999 15.5811L6.90664 14.4319L6.52051 13.7629L6.11083 13.0533L5.68722 12.3195L5.25923 11.5781L4.83647 10.8459L4.42851 10.1393L4.04494 9.47502L3.86529 9.16398L3.69533 8.86966L3.53624 8.5943L3.38926 8.33982L3.25555 8.10846L3.13633 7.9021L3.1336 7.89736L3.13091 7.89262L3.12822 7.88787L3.12555 7.8831L3.12292 7.87834L3.12031 7.87354L3.11771 7.86877L3.11513 7.86398L3.11259 7.85918L3.11005 7.85437L3.10753 7.84954L3.10505 7.84472L3.10258 7.83988L3.10013 7.83504L3.09771 7.83018L3.09531 7.82533L3.09291 7.82047L3.09056 7.8156L3.08823 7.81071L3.0859 7.80582L3.08361 7.80094L3.08132 7.79603L3.07907 7.79113L3.07683 7.78621L3.07463 7.78129L3.07243 7.77634L3.07027 7.77141L3.06812 7.76647L3.06599 7.76152L3.06388 7.75657L3.06179 7.7516L3.05975 7.74663L3.0577 7.74165L3.05568 7.73668L3.05368 7.73168L3.0517 7.72669L3.04975 7.72169L3.04781 7.71667L3.04591 7.71167L3.04402 7.70664L3.04215 7.70162L3.04029 7.69659L3.03847 7.69155L3.03667 7.6865L3.03487 7.68146L3.03311 7.67641L3.03137 7.67134L3.02964 7.66627L3.02795 7.66121L3.02627 7.65614L3.02461 7.65106L3.02299 7.64596L3.02137 7.64088L3.01977 7.63578L3.01821 7.63069L3.01666 7.62558L3.01512 7.62046L3.01363 7.61534L3.01214 7.61023L3.01067 7.6051L3.00922 7.59997L3.0078 7.59484L3.00639 7.58971L3.00503 7.58456L3.00367 7.57942L3.00233 7.57426L3.00103 7.56911L2.99972 7.56394L2.99846 7.55878L2.9972 7.55362L2.99598 7.54844L2.99476 7.54326L2.99357 7.53809L2.99241 7.5329L2.99127 7.52771L2.99015 7.52254L2.98906 7.51734L2.98797 7.51214L2.98691 7.50694L2.98587 7.50174L2.98486 7.49653L2.98386 7.49132L2.98289 7.4861L2.98194 7.4809L2.981 7.47566L2.9801 7.47044L2.97921 7.46523L2.97835 7.46L2.97751 7.45476L2.97668 7.44954L2.97587 7.44429L2.9751 7.43906L2.97435 7.43382L2.9736 7.42858L2.97289 7.42334L2.97218 7.41809L2.97152 7.41283L2.97086 7.40759L2.97023 7.40233L2.96962 7.39707L2.96903 7.39181L2.96847 7.38655L2.96792 7.38129L2.96739 7.37603L2.96689 7.37078L2.9664 7.3655L2.96595 7.36024L2.96551 7.35496L2.9651 7.3497L2.9647 7.34443L2.96432 7.33915L2.96397 7.33388L2.96365 7.3286L2.96332 7.32333L2.96305 7.31806L2.96278 7.31278L2.96253 7.3075L2.96231 7.30222L2.9621 7.29695L2.96192 7.29166L2.96176 7.28638L2.96161 7.28111L2.9615 7.27582L2.9614 7.27054L2.96132 7.26525L2.96127 7.25998L2.96124 7.25468L2.96123 7.24941L2.96124 7.24414L2.96127 7.23884L2.96132 7.23357L2.96139 7.22827L2.96148 7.223L2.96161 7.2177L2.96175 7.21243L2.96191 7.20716L2.96208 7.20186L2.96229 7.19659L2.96251 7.19131L2.96276 7.18604L2.96302 7.18076L2.96331 7.17549L2.96361 7.17022L2.96395 7.16494L2.96431 7.15966L2.96468 7.15438L2.96507 7.14911L2.96548 7.14383L2.96592 7.13858L2.96637 7.1333L2.96686 7.12804L2.96735 7.12278L2.96789 7.1175L2.96842 7.11225L2.96899 7.10699L2.96959 7.10174L2.97018 7.09649L2.97081 7.09122L2.97147 7.08598L2.97213 7.08073L2.97283 7.07548L2.97355 7.07024L2.97427 7.06499L2.97503 7.05975L2.97583 7.05451L2.97662 7.04928L2.97744 7.04404L2.97828 7.03882L2.97915 7.03358L2.98003 7.02836L2.98094 7.02314L2.98187 7.01792L2.98283 7.01271L2.98379 7.0075L2.98478 7.00229L2.98579 6.99708L2.98683 6.99186L2.98789 6.98667L2.98898 6.98148L2.99007 6.97628L2.99119 6.97109L2.99233 6.96591L2.99349 6.96071L2.99468 6.95554L2.9959 6.95036L2.99712 6.94519L2.99836 6.94002L2.99964 6.93486L3.00093 6.9297L3.00223 6.92454L3.00358 6.9194L3.00493 6.91426L3.0063 6.9091L3.00771 6.90396L3.00912 6.89883L3.01056 6.8937L3.01203 6.88857L3.01351 6.88346L3.01501 6.87834L3.01655 6.87322L3.01809 6.86811L3.01966 6.86302L3.02126 6.85792L3.02287 6.85283L3.0245 6.84774L3.02616 6.84266L3.02783 6.83759L3.02953 6.83251L3.03124 6.82744L3.03299 6.82239L3.03475 6.81733L3.03653 6.81228L3.03834 6.80725L3.04016 6.80221L3.042 6.79718L3.04387 6.79214L3.04576 6.78713L3.04768 6.78211L3.04962 6.77711L3.05157 6.7721L3.05354 6.7671L3.05554 6.76212L3.05755 6.75714L3.0596 6.75215L3.06165 6.74718L3.06373 6.74223L3.06585 6.73726L3.06796 6.73231L3.07011 6.72737L3.07228 6.72243L3.07446 6.7175L3.07667 6.71258L3.07891 6.70766L3.08115 6.70275L3.08343 6.69785L3.08574 6.69296L3.08804 6.68807L3.09039 6.68318L3.09275 6.67831L3.09513 6.67346L3.09753 6.66858L3.09995 6.66374L3.1024 6.6589L3.10487 6.65406L3.10735 6.64924L3.10987 6.64442L3.1124 6.63961L3.11495 6.6348L3.11752 6.63001L3.12011 6.62522L3.12273 6.62045L3.12538 6.61567L3.12804 6.61091L3.13071 6.60615L3.13341 6.60141L3.13614 6.59666L4.13093 4.8743L10.9415 16.6709ZM7.46572 16.6582L-0.640045 16.639L-0.463021 12.8313L2.39659 7.87827L7.46572 16.6582ZM16.4324 14.1658L16.5005 16.639L15.124 16.65L6.22811 1.24192L7.30318 -0.620139L7.89544 -0.620413L16.4324 14.1658ZM4.75739 4.17646L11.7808 16.4853L14.0775 16.4821L5.86513 2.25781L4.75739 4.17646ZM3.3039 6.69328L3.30147 6.69751L3.29915 6.70156L3.2969 6.70558L3.29459 6.7097L3.29235 6.71376L3.29014 6.71781L3.28793 6.72187L3.28571 6.72602L3.28352 6.73011L3.28139 6.73417L3.27927 6.73828L3.27715 6.74238L3.27506 6.74649L3.27295 6.75066L3.27087 6.7548L3.26886 6.75886L3.26681 6.76307L3.26479 6.76722L3.26281 6.77137L3.26084 6.77551L3.25889 6.77969L3.25694 6.7839L3.25505 6.788L3.25315 6.79219L3.25124 6.79642L3.24935 6.80066L3.24753 6.80484L3.24571 6.80903L3.24391 6.81323L3.24211 6.81746L3.24032 6.82171L3.23858 6.82593L3.23683 6.8302L3.23513 6.83442L3.23343 6.83866L3.23174 6.84293L3.23007 6.84716L3.22843 6.85146L3.22679 6.85574L3.22519 6.86L3.22361 6.86426L3.22204 6.8685L3.2205 6.87281L3.21895 6.87713L3.21743 6.88141L3.21593 6.88574L3.21443 6.89007L3.21298 6.89434L3.21154 6.89867L3.21011 6.90301L3.2087 6.90731L3.20731 6.91164L3.20593 6.91599L3.20459 6.9203L3.20325 6.92466L3.20192 6.92902L3.20062 6.93337L3.19935 6.93774L3.19809 6.94205L3.19684 6.94644L3.1956 6.95081L3.19441 6.95517L3.1932 6.95957L3.19203 6.96394L3.19089 6.9683L3.18975 6.97274L3.18862 6.97712L3.18754 6.98148L3.18646 6.98586L3.18539 6.99027L3.18434 6.99469L3.18331 6.99911L3.18229 7.00351L3.18131 7.0079L3.18034 7.01232L3.17939 7.01678L3.17843 7.02119L3.17753 7.0256L3.17663 7.03006L3.17575 7.03447L3.17489 7.03888L3.17405 7.04333L3.17321 7.04778L3.1724 7.0522L3.17161 7.05669L3.17084 7.06111L3.17008 7.06554L3.16934 7.07005L3.16863 7.07445L3.16794 7.07892L3.16724 7.08338L3.16659 7.08781L3.16595 7.09231L3.16531 7.09678L3.16471 7.10125L3.16411 7.1057L3.16355 7.11017L3.16298 7.11465L3.16245 7.11912L3.16193 7.12361L3.16143 7.12807L3.16095 7.13258L3.1605 7.13703L3.16004 7.1415L3.15961 7.14602L3.15921 7.15051L3.15882 7.15498L3.15845 7.15947L3.15809 7.16392L3.15775 7.16842L3.15743 7.17295L3.15714 7.17742L3.15685 7.18191L3.15659 7.18641L3.15635 7.1909L3.15612 7.1954L3.15591 7.1999L3.15572 7.20442L3.15555 7.2089L3.1554 7.21337L3.15526 7.21789L3.15514 7.22238L3.15504 7.2269L3.15496 7.23138L3.1549 7.23589L3.15485 7.24038L3.15483 7.24486L3.15482 7.24939L3.15483 7.25388L3.15485 7.25836L3.1549 7.2629L3.15496 7.26738L3.15504 7.27186L3.15515 7.27637L3.15527 7.28088L3.1554 7.28538L3.15556 7.28987L3.15574 7.29435L3.15593 7.29887L3.15614 7.30337L3.15637 7.30784L3.15661 7.31234L3.15688 7.31686L3.15715 7.32133L3.15747 7.32583L3.15779 7.33033L3.15811 7.33482L3.15847 7.33928L3.15885 7.34377L3.15924 7.34827L3.15964 7.35277L3.16007 7.35726L3.16051 7.3617L3.16098 7.36619L3.16147 7.37068L3.16196 7.37518L3.16248 7.37963L3.16303 7.3841L3.16358 7.38857L3.16416 7.39307L3.16475 7.39754L3.16535 7.40198L3.16599 7.40644L3.16663 7.4109L3.16731 7.41538L3.16799 7.41985L3.16867 7.42429L3.1694 7.42874L3.17015 7.43319L3.17089 7.43764L3.17167 7.44211L3.17247 7.44657L3.17326 7.45095L3.1741 7.45541L3.17495 7.45987L3.17581 7.46428L3.1767 7.46871L3.17759 7.47315L3.17851 7.47755L3.17945 7.48202L3.1804 7.48642L3.18137 7.49082L3.18237 7.49524L3.18337 7.49962L3.18443 7.50408L3.18546 7.50848L3.18652 7.51286L3.1876 7.51724L3.18871 7.52166L3.18983 7.52606L3.19095 7.53042L3.19211 7.53481L3.1933 7.53918L3.19449 7.54355L3.1957 7.54794L3.19692 7.55231L3.19817 7.55667L3.19943 7.56101L3.20071 7.56538L3.20203 7.56972L3.20335 7.5741L3.20468 7.57845L3.20603 7.58276L3.20739 7.58708L3.2088 7.59143L3.2102 7.59574L3.21163 7.60008L3.21309 7.60441L3.21454 7.60868L3.21604 7.61302L3.21755 7.61734L3.21904 7.6216L3.22058 7.6259L3.22214 7.63018L3.22372 7.6345L3.22531 7.63875L3.22691 7.64304L3.22855 7.64729L3.23019 7.65153L3.23187 7.65582L3.23355 7.6601L3.23524 7.66432L3.23695 7.66855L3.23871 7.67282L3.24047 7.67703L3.24223 7.68125L3.24403 7.6855L3.24584 7.6897L3.24765 7.69388L3.24953 7.69814L3.25139 7.70233L3.25326 7.70651L3.25515 7.71067L3.25707 7.71483L3.259 7.719L3.26099 7.72322L3.26295 7.72738L3.26494 7.73151L3.26695 7.73566L3.26897 7.73979L3.27106 7.74398L3.27312 7.74813L3.27517 7.7522L3.27727 7.7563L3.27941 7.76046L3.28155 7.76457L3.28369 7.76862L3.28587 7.77272L3.28809 7.77686L3.29027 7.78088L3.29251 7.78494L3.29475 7.78902L3.29703 7.7931L3.29932 7.79716L3.30163 7.80119L3.30406 7.80545L3.42317 8.01158L3.55689 8.24302L3.70388 8.4975L3.86296 8.77286L4.03292 9.06718L4.21258 9.37822L4.59616 10.0425L5.00413 10.7491L5.4269 11.4813L5.85488 12.2227L6.2785 12.9565L6.68815 13.6661L7.07431 14.3351L7.73765 15.4843L8.19191 16.2712L8.30471 16.4668L10.6054 16.4759L4.1309 5.26143L3.3039 6.69328ZM-0.271816 12.8873L-0.437257 16.4459L7.12995 16.4638L2.39659 8.2655L-0.271816 12.8873ZM7.41498 -0.426596L6.45165 1.24192L15.2353 16.4554L16.3015 16.4469L16.2402 14.2202L7.78371 -0.426757L7.41498 -0.426596ZM16.541 13.0965L8.62231 -0.618913L16.4296 -0.640015L16.541 13.0965ZM8.95711 -0.426225L16.3414 12.3637L16.2377 -0.445907L8.95711 -0.426225Z" fill="url(#paint1_linear_1_43)"/>
</g>
</g>
<defs>
<radialGradient id="paint0_radial_1_43" cx="0" cy="0" r="1" gradientUnits="userSpaceOnUse" gradientTransform="translate(12.2657 -3.04749) scale(19.1647 19.1646)">
<stop stop-color="#FFAE71"/>
<stop offset="1" stop-color="#FF9350"/>
</radialGradient>
<linearGradient id="paint1_linear_1_43" x1="22.4655" y1="-0.015488" x2="22.4655" y2="16.1172" gradientUnits="userSpaceOnUse">
<stop stop-color="#FFBC8F"/>
<stop offset="1" stop-color="#FFA16B"/>
</linearGradient>
<clipPath id="clip0_1_43">
<rect width="16" height="16" fill="white"/>
</clipPath>
</defs>
</svg>
