<svg width="16" height="16" viewBox="0 0 16 16" fill="none" xmlns="http://www.w3.org/2000/svg">
<g clip-path="url(#clip0_1_17)">
<path fill-rule="evenodd" clip-rule="evenodd" d="M16 0.480001C16 0.445051 15.9962 0.41097 15.9891 0.378134C15.9506 0.200374 15.8136 0.059147 15.6382 0.0146713C15.6003 0.00509106 15.5607 0 15.52 0H0.48C0.215094 0 0 0.215095 0 0.480001V15.52C0 15.5314 0.00039695 15.5427 0.00117774 15.5538C0.00205205 15.5664 0.00340763 15.5788 0.00522611 15.591C0.0378112 15.8104 0.219024 15.9815 0.443014 15.9986C0.453282 15.9994 0.463639 15.9998 0.474077 16C0.476049 16 0.478023 16 0.48 16H15.52C15.5322 16 15.5444 15.9996 15.5564 15.9986C15.5562 15.9986 15.5566 15.9986 15.5564 15.9986C15.7698 15.9823 15.9449 15.8262 15.9891 15.6219C15.9962 15.589 16 15.555 16 15.52V0.480001ZM15.2 9.90944V1.232C15.2 0.993584 15.0064 0.8 14.768 0.8H9.94136L7.15803 5.62091L9.63432 9.90944H15.2ZM0.8 10.6811L6.49423 0.818352L6.50482 0.8H9.22208L3.80141 10.189L6.69457 15.2H1.232C0.993584 15.2 0.8 15.0064 0.8 14.768V10.6811ZM7.41386 15.2L4.7192 10.5327H15.2V14.768C15.2 15.0064 15.0064 15.2 14.768 15.2H7.41386ZM8.91472 9.90944H6.16738C5.8607 9.90944 5.57731 9.74848 5.42396 9.4828C5.27062 9.21728 5.27062 8.89 5.42396 8.62448L6.79839 6.24388L8.91472 9.90944Z" fill="#FF00FF"/>
</g>
<defs>
<clipPath id="clip0_1_17">
<rect width="16" height="16" fill="white"/>
</clipPath>
</defs>
</svg>
