<svg width="16" height="16" viewBox="0 0 16 16" fill="none" xmlns="http://www.w3.org/2000/svg">
<g clip-path="url(#clip0_1_19)">
<path fill-rule="evenodd" clip-rule="evenodd" d="M16 0.480001C16 0.215095 15.7849 0 15.52 0H0.48C0.215094 0 0 0.215095 0 0.480001V15.52C0 15.785 0.215094 16 0.48 16H15.52C15.7849 16 16 15.785 16 15.52V0.480001Z" fill="#1B72BE"/>
<mask id="mask0_1_19" style="mask-type:alpha" maskUnits="userSpaceOnUse" x="0" y="0" width="16" height="16">
<path fill-rule="evenodd" clip-rule="evenodd" d="M16 0.480001C16 0.215095 15.7849 0 15.52 0H0.48C0.215094 0 0 0.215095 0 0.480001V15.52C0 15.785 0.215094 16 0.48 16H15.52C15.7849 16 16 15.785 16 15.52V0.480001Z" fill="white"/>
</mask>
<g mask="url(#mask0_1_19)">
<path fill-rule="evenodd" clip-rule="evenodd" d="M15.9893 0.49423C15.9893 0.229589 15.7744 0.0147095 15.5098 0.0147095H6.55871L0.00527954 11.3656V15.5192C0.00527954 15.7838 0.220159 15.9987 0.484799 15.9987H15.5098C15.7744 15.9987 15.9893 15.7838 15.9893 15.5192V0.49423Z" fill="#0568AA"/>
<path fill-rule="evenodd" clip-rule="evenodd" d="M7.39549 15.9987H6.28074L3.40141 10.21L9.01241 0.0147095H9.91537L4.04125 10.189L7.39549 15.9987ZM10.4152 15.9987H7.63525L4.35957 10.3251H15.9904L15.9893 11.3844L10.4152 15.9987ZM7.65212 0.0147095H6.71855L0.00527954 11.6424V13.2595L7.65212 0.0147095ZM9.27377 10.116H6.11219C5.74316 10.116 5.40001 9.92284 5.21547 9.60332C5.03097 9.28372 5.03097 8.89004 5.21547 8.57044L6.79847 5.8286L9.27377 10.116ZM15.9893 10.116H9.51353L6.91833 5.62092L10.1551 0.0147095L11.3278 0.0154478L9.62449 5.81029L10.4152 7.43453L15.9893 9.62652V10.116Z" fill="#074F7F"/>
<path fill-rule="evenodd" clip-rule="evenodd" d="M15.9892 15.9986H7.87497L4.71925 10.5327H15.9892V15.9986ZM7.15569 15.9986H0.00527954V12.0577L6.95829 0.0146484H9.67553L3.80146 10.1889L7.15569 15.9986ZM8.91481 9.90942H6.16744C5.86075 9.90942 5.57736 9.74846 5.42401 9.48278C5.27067 9.21726 5.27067 8.88998 5.42401 8.62446C6.03429 7.56738 6.79845 6.24386 6.79845 6.24386L8.91481 9.90942ZM15.9892 9.90942H9.63433L7.15809 5.6209L10.3948 0.0146484H15.9892V9.90942Z" fill="url(#paint0_radial_1_19)"/>
<path fill-rule="evenodd" clip-rule="evenodd" d="M16.36 16.2925H8.04464L4.71917 10.5327H16.3542L16.36 16.2925ZM3.80138 10.1889L7.32533 16.2925H-0.48536L-0.51152 12.9526L7.15124 -0.319702H9.86848L3.80138 10.1889ZM5.0514 10.7245L8.15536 16.1009H16.168L16.1627 10.7245H5.0514ZM7.26197 -0.127864L-0.319308 13.0033L-0.295051 16.1009H6.99312L3.5799 10.1889L9.53624 -0.127864H7.26197ZM8.91472 9.90942H6.16017L6.15659 9.90926H6.14942L6.14583 9.9091H6.14226L6.13868 9.90894L6.13511 9.90878L6.13153 9.90862L6.12795 9.90846L6.1244 9.9083L6.12083 9.90814L6.11727 9.90798L6.11371 9.90766L6.11015 9.9075L6.1066 9.90718L6.10304 9.9071L6.0995 9.90678L6.09595 9.90646L6.09241 9.90614L6.08887 9.90582L6.08535 9.9055L6.0818 9.90518L6.07827 9.90486L6.07475 9.90438L6.07122 9.90406L6.06771 9.90366L6.06418 9.90334L6.06067 9.90286L6.05715 9.90238L6.05366 9.9019L6.05015 9.90142L6.04665 9.90094L6.04316 9.90054L6.03966 9.90006L6.03616 9.89942L6.03268 9.89894L6.02919 9.8983L6.02571 9.89782L6.02224 9.89726L6.01875 9.89662L6.01529 9.89598L6.01183 9.89534L6.00837 9.8947L6.00491 9.89414L6.00146 9.8935L5.99801 9.8927L5.99456 9.89206L5.99112 9.89126L5.98767 9.8907L5.98424 9.8899L5.98083 9.8891L5.97739 9.8883L5.97397 9.88774L5.97056 9.88678L5.96713 9.88598L5.96373 9.88518L5.96033 9.88446L5.95692 9.8835L5.95354 9.8827L5.95015 9.8819L5.94676 9.88102L5.94338 9.88006L5.94 9.8791L5.93663 9.87822L5.93326 9.87726L5.92989 9.8763L5.92653 9.87534L5.92318 9.87446L5.91983 9.8735L5.9165 9.87238L5.91315 9.8715L5.90982 9.87038L5.90649 9.86926L5.90317 9.86838L5.89984 9.86726L5.89653 9.86614L5.89323 9.8651L5.88991 9.86398L5.88662 9.8627L5.88333 9.86166L5.88003 9.86054L5.87675 9.85942L5.87348 9.85822L5.8702 9.85694L5.86694 9.8559L5.86367 9.85462L5.86043 9.85334L5.85717 9.85214L5.85392 9.85086L5.85069 9.84958L5.84746 9.84838L5.84423 9.8471L5.84101 9.84574L5.83779 9.84446L5.83458 9.8431L5.83138 9.84182L5.82818 9.84038L5.82498 9.83902L5.82179 9.83758L5.81861 9.83638L5.81544 9.83478L5.81227 9.83342L5.80911 9.83198L5.80595 9.83054L5.8028 9.82918L5.79966 9.82758L5.79652 9.82622L5.79339 9.82462L5.79027 9.82326L5.78715 9.82166L5.78403 9.82014L5.78093 9.81854L5.77783 9.81702L5.77473 9.81542L5.77164 9.8139L5.76857 9.8123L5.76549 9.81078L5.76242 9.80902L5.75936 9.8075L5.75631 9.80574L5.75327 9.80422L5.75023 9.80246L5.7472 9.80078L5.74417 9.79902L5.74115 9.79734L5.73813 9.79574L5.73513 9.79406L5.73214 9.79214L5.72914 9.79046L5.72615 9.78878L5.72319 9.78686L5.72021 9.78518L5.71726 9.78342L5.7143 9.78158L5.71135 9.77966L5.70841 9.77782L5.70547 9.77606L5.70255 9.77422L5.69963 9.77238L5.69673 9.77046L5.69383 9.76862L5.69093 9.76654L5.68804 9.7647L5.68517 9.76286L5.6823 9.76078L5.67943 9.75894L5.67657 9.75686L5.67372 9.75486L5.67088 9.75302L5.66804 9.75094L5.66522 9.74894L5.66241 9.74694L5.6596 9.74486L5.65679 9.74286L5.65401 9.74086L5.65122 9.73862L5.64844 9.73662L5.64567 9.73454L5.64291 9.73238L5.64016 9.73038L5.63742 9.72814L5.63469 9.72598L5.63195 9.72382L5.62924 9.72174L5.62652 9.71958L5.62383 9.71742L5.62114 9.7151L5.61845 9.71286L5.61577 9.7107L5.61311 9.70854L5.61044 9.70614L5.60781 9.70398L5.60515 9.70182L5.60253 9.69942L5.59991 9.6971L5.59729 9.69494L5.59468 9.69262L5.59209 9.69022L5.5895 9.6879L5.58692 9.68558L5.58436 9.68326L5.5818 9.68086L5.57924 9.67854L5.5767 9.67606L5.57417 9.67374L5.57166 9.67118L5.56913 9.66886L5.56663 9.66638L5.56413 9.66406L5.56165 9.6615L5.55917 9.65902L5.55671 9.65654L5.55425 9.65406L5.5518 9.6515L5.54937 9.64902L5.54693 9.64654L5.54451 9.64406L5.54211 9.64158L5.53971 9.63886L5.53731 9.63638L5.53495 9.6339L5.53257 9.63126L5.53021 9.62862L5.52786 9.62606L5.52553 9.62342L5.52319 9.62078L5.52088 9.61814L5.51857 9.6155L5.51626 9.61286L5.51398 9.61014L5.5117 9.6075L5.50943 9.60486L5.50718 9.60222L5.50493 9.59942L5.50268 9.59678L5.50047 9.5939L5.49825 9.59126L5.49603 9.58846L5.49384 9.58566L5.49166 9.58302L5.48947 9.58022L5.48732 9.57742L5.48516 9.57462L5.48303 9.57174L5.48089 9.56894L5.47876 9.56614L5.47666 9.56334L5.47457 9.56054L5.47247 9.55758L5.4704 9.55478L5.46832 9.55182L5.46628 9.54902L5.46423 9.54598L5.46219 9.54302L5.46018 9.54022L5.45816 9.53726L5.45616 9.5343L5.45418 9.53134L5.4522 9.52838L5.45023 9.52542L5.44828 9.52246L5.44633 9.5195L5.44441 9.51654L5.44249 9.51342L5.44057 9.51046L5.43868 9.5075L5.43679 9.5043L5.43492 9.50134L5.43306 9.49822L5.4312 9.4951L5.42936 9.49214L5.42754 9.48902L5.42572 9.4859L5.42393 9.48278L5.42214 9.47966L5.42035 9.47654L5.41859 9.47342L5.41684 9.4703L5.41511 9.46718L5.41339 9.46406L5.41169 9.46094L5.40999 9.45782L5.40832 9.45454L5.40665 9.45142L5.40501 9.4483L5.40337 9.44502L5.40175 9.4419L5.40014 9.43878L5.39855 9.4355L5.39697 9.43238L5.39539 9.4291L5.39385 9.42598L5.39232 9.4227L5.39079 9.41942L5.38927 9.4163L5.38779 9.41302L5.38631 9.40974L5.38484 9.40662L5.38339 9.40334L5.38194 9.40006L5.38052 9.39694L5.37911 9.39366L5.37771 9.39038L5.37634 9.3871L5.37496 9.38382L5.3736 9.38054L5.37227 9.37726L5.37094 9.37398L5.36963 9.3707L5.36833 9.36742L5.36705 9.36414L5.36577 9.36086L5.36452 9.35758L5.36327 9.3543L5.36204 9.35094L5.36083 9.34766L5.35963 9.34438L5.35845 9.3411L5.35728 9.33782L5.35611 9.33438L5.35497 9.3311L5.35384 9.32782L5.35272 9.32438L5.35163 9.3211L5.35054 9.31766L5.34946 9.31438L5.34839 9.3111L5.34735 9.30766L5.34632 9.30438L5.34531 9.30094L5.34431 9.2975L5.34331 9.29422L5.34234 9.29078L5.34137 9.2875L5.34042 9.28406L5.3395 9.28078L5.33858 9.27742L5.33767 9.27398L5.33679 9.2707L5.33589 9.26726L5.33503 9.26382L5.33419 9.26038L5.33335 9.2571L5.33252 9.25366L5.33172 9.25022L5.33093 9.24678L5.33015 9.2435L5.32939 9.24006L5.32863 9.23662L5.3279 9.23318L5.32717 9.22974L5.32647 9.2263L5.32576 9.22294L5.32509 9.2195L5.32442 9.21606L5.32376 9.21262L5.32312 9.20934L5.3225 9.2059L5.32189 9.20246L5.3213 9.19902L5.32072 9.19542L5.32015 9.19214L5.31959 9.18854L5.31905 9.1851L5.31852 9.18166L5.318 9.1783L5.31752 9.17486L5.31703 9.17142L5.31655 9.16798L5.3161 9.16454L5.31567 9.1611L5.31523 9.15766L5.31482 9.15422L5.31442 9.15062L5.31403 9.14718L5.31367 9.14374L5.31331 9.1403L5.31296 9.13686L5.31263 9.1335L5.31231 9.1299L5.31201 9.12646L5.31173 9.12302L5.31145 9.11958L5.31119 9.11614L5.31095 9.11254L5.31071 9.1091L5.3105 9.10566L5.3103 9.10222L5.31011 9.09878L5.30992 9.09518L5.30976 9.09182L5.30963 9.08838L5.30948 9.08494L5.30935 9.08134L5.30927 9.0779L5.30917 9.07446L5.30909 9.07102L5.30903 9.06742L5.30899 9.06398L5.30894 9.06054L5.30892 9.0571V9.05014L5.30894 9.0467L5.30899 9.04326L5.30903 9.03966L5.30909 9.03622L5.30917 9.03278L5.30927 9.02934L5.30935 9.02574L5.30948 9.0223L5.30963 9.01886L5.30976 9.01542L5.30992 9.0119L5.31011 9.00846L5.3103 9.00502L5.3105 9.00158L5.31071 8.99798L5.31095 8.99454L5.31119 8.9911L5.31145 8.98766L5.31173 8.98422L5.31201 8.98078L5.31231 8.97718L5.31263 8.97374L5.31296 8.97038L5.31331 8.96694L5.31367 8.9635L5.31403 8.9599L5.31442 8.95646L5.31482 8.95302L5.31523 8.94958L5.31567 8.94614L5.3161 8.9427L5.31655 8.93926L5.31703 8.93582L5.31752 8.93222L5.318 8.92886L5.31852 8.92542L5.31905 8.92198L5.31959 8.91854L5.32015 8.9151L5.32072 8.91166L5.3213 8.90822L5.32189 8.90478L5.3225 8.90134L5.32312 8.8979L5.32376 8.89446L5.32442 8.89102L5.32509 8.88758L5.32576 8.88422L5.32647 8.88094L5.32717 8.8775L5.3279 8.87406L5.32863 8.87062L5.32939 8.86718L5.33015 8.86374L5.33093 8.8603L5.33172 8.85702L5.33252 8.85358L5.33335 8.85014L5.33419 8.8467L5.33503 8.84342L5.33589 8.83998L5.33679 8.83654L5.33767 8.8331L5.33858 8.8299L5.3395 8.82646L5.34042 8.82302L5.34137 8.81974L5.34234 8.8163L5.34331 8.81302L5.34431 8.80958L5.34531 8.8063L5.34632 8.80286L5.34735 8.79958L5.34839 8.79614L5.34946 8.79286L5.35054 8.78942L5.35163 8.78614L5.35272 8.7827L5.35384 8.77942L5.35497 8.77614L5.35611 8.77286L5.35728 8.76942L5.35845 8.76614L5.35963 8.76286L5.36083 8.75958L5.36204 8.75622L5.36327 8.75294L5.36452 8.74966L5.36577 8.74638L5.36705 8.7431L5.36833 8.73982L5.36963 8.73654L5.37094 8.73326L5.37227 8.72998L5.3736 8.7267L5.37496 8.72342L5.37634 8.72014L5.37771 8.71686L5.37911 8.71358L5.38052 8.7103L5.38194 8.70702L5.38339 8.7039L5.38484 8.70062L5.38631 8.69734L5.38779 8.69422L5.38927 8.69094L5.39079 8.68766L5.39232 8.68454L5.39385 8.68126L5.39539 8.67798L5.39697 8.67486L5.39855 8.67174L5.40014 8.66846L5.40175 8.66534L5.40337 8.66206L5.40501 8.65894L5.40665 8.65582L5.40832 8.6527L5.40999 8.64942L5.41169 8.6463L5.41339 8.64318L5.41511 8.64006L5.41684 8.63694L5.41859 8.63382L5.42035 8.63054L5.42214 8.62758L5.42393 8.62446L6.79836 6.24386L8.91472 9.90942ZM16.3503 9.90942H9.63392L7.158 5.6209L10.5878 -0.319702H16.2809L16.3503 9.90942ZM5.59015 8.72014L5.58864 8.72278L5.58725 8.7251L5.58591 8.7275L5.58454 8.72998L5.58321 8.73246L5.58183 8.73494L5.58052 8.73726L5.57921 8.73982L5.5779 8.7423L5.57662 8.74462L5.57534 8.7471L5.57406 8.74966L5.57278 8.75214L5.57156 8.75446L5.57031 8.75694L5.56907 8.75958L5.56788 8.76198L5.56667 8.76446L5.56547 8.76694L5.56431 8.76942L5.56312 8.77198L5.56195 8.77446L5.56079 8.7771L5.55967 8.77942L5.55856 8.78198L5.55742 8.78462L5.55631 8.7871L5.55522 8.78958L5.55415 8.79206L5.55307 8.79462L5.552 8.79726L5.55095 8.79974L5.5499 8.80222L5.54888 8.8047L5.54785 8.80742L5.54683 8.8099L5.54586 8.81238L5.54487 8.81502L5.54389 8.8175L5.54292 8.82022L5.54197 8.8227L5.54103 8.82518L5.54011 8.82782L5.53917 8.83046L5.53827 8.83302L5.53738 8.8355L5.53647 8.83814L5.5356 8.84078L5.53474 8.84326L5.53388 8.8459L5.53304 8.84846L5.53221 8.8511L5.53139 8.85374L5.53057 8.85622L5.52976 8.85886L5.52898 8.86158L5.5282 8.86406L5.52742 8.8667L5.52667 8.86934L5.52594 8.87182L5.52519 8.8747L5.52447 8.87718L5.52375 8.87982L5.52305 8.88246L5.52236 8.8851L5.52167 8.88774L5.521 8.8903L5.52035 8.89294L5.51969 8.89558L5.51905 8.89822L5.51844 8.90086L5.51782 8.9035L5.51721 8.90622L5.51662 8.90886L5.51603 8.9115L5.51547 8.91414L5.5149 8.91678L5.51435 8.91942L5.51381 8.92214L5.51327 8.92478L5.51278 8.92742L5.51227 8.93006L5.51176 8.9327L5.51128 8.93542L5.51081 8.93806L5.51035 8.9407L5.50989 8.94334L5.50944 8.94598L5.50902 8.94878L5.50859 8.95134L5.50819 8.95414L5.50779 8.95678L5.50741 8.95942L5.50702 8.96206L5.50666 8.9647L5.5063 8.96734L5.50595 8.97006L5.50563 8.97286L5.5053 8.9755L5.505 8.97814L5.50469 8.98078L5.50441 8.98358L5.50413 8.9863L5.50387 8.98894L5.5036 8.99158L5.50336 8.99438L5.50313 8.99702L5.5029 8.99966L5.5027 9.00238L5.50249 9.00502L5.50231 9.00782L5.50211 9.01046L5.50195 9.0131L5.50179 9.0159L5.50165 9.01854L5.50151 9.02126L5.50139 9.0239L5.50127 9.0267L5.50116 9.02934L5.50107 9.03198L5.50099 9.03462L5.50091 9.0375L5.50085 9.04014L5.50081 9.04278L5.50078 9.04542L5.50075 9.04822L5.50073 9.05086V9.05638L5.50075 9.05902L5.50078 9.06166L5.50081 9.0643L5.50085 9.0671L5.50091 9.06974L5.50099 9.07246L5.50107 9.07526L5.50116 9.0779L5.50127 9.08054L5.50139 9.08334L5.50151 9.08598L5.50165 9.0887L5.50179 9.09134L5.50195 9.09414L5.50211 9.09678L5.50231 9.09942L5.50249 9.10206L5.5027 9.10486L5.5029 9.10758L5.50313 9.11022L5.50336 9.11286L5.5036 9.11566L5.50387 9.1183L5.50413 9.12094L5.50441 9.12366L5.50469 9.1263L5.50499 9.1291L5.5053 9.13174L5.50563 9.13438L5.50595 9.13702L5.5063 9.13974L5.50666 9.14238L5.50702 9.14502L5.50741 9.14782L5.50779 9.15046L5.50819 9.1531L5.50859 9.15582L5.50902 9.15846L5.50944 9.1611L5.50989 9.1639L5.51035 9.16654L5.51081 9.16918L5.51128 9.1719L5.51176 9.17454L5.51227 9.17718L5.51276 9.17982L5.51329 9.18246L5.51381 9.1851L5.51435 9.18782L5.5149 9.19046L5.51547 9.1931L5.51604 9.19574L5.51662 9.19838L5.51721 9.20102L5.51782 9.20374L5.51843 9.20638L5.51905 9.20902L5.51969 9.2115L5.52035 9.2143L5.52102 9.21678L5.52167 9.2195L5.52236 9.22214L5.52305 9.22478L5.52375 9.22742L5.52447 9.23006L5.52519 9.23262L5.52592 9.23526L5.52669 9.2379L5.52743 9.24054L5.52819 9.24302L5.52898 9.24566L5.52976 9.24838L5.53055 9.25086L5.53139 9.2535L5.53221 9.25614L5.53304 9.25862L5.53388 9.26134L5.53474 9.26398L5.5356 9.26646L5.53647 9.2691L5.53736 9.27158L5.53827 9.27422L5.53917 9.27678L5.5401 9.27942L5.54102 9.2819L5.54197 9.28454L5.54292 9.28702L5.54389 9.28974L5.54487 9.29222L5.54586 9.2947L5.54685 9.29734L5.54785 9.29982L5.54887 9.30238L5.54991 9.30502L5.55095 9.3075L5.552 9.30998L5.55307 9.31254L5.55413 9.31502L5.55522 9.31766L5.55631 9.32014L5.55742 9.32262L5.55856 9.32518L5.55967 9.32766L5.56081 9.3303L5.56196 9.33278L5.56312 9.33526L5.56429 9.33766L5.56547 9.34014L5.56667 9.34278L5.56787 9.3451L5.5691 9.34766L5.57031 9.35014L5.57155 9.35262L5.57279 9.3551L5.57406 9.35758L5.57532 9.35998L5.57662 9.36246L5.57791 9.36494L5.57921 9.36742L5.58052 9.36998L5.58183 9.3723L5.58318 9.37478L5.58455 9.37726L5.58591 9.37966L5.58725 9.38214L5.58864 9.38446L5.59001 9.38694L5.59143 9.38926L5.59287 9.39182L5.59427 9.39414L5.59567 9.39646L5.5971 9.39886L5.59857 9.40134L5.60002 9.40366L5.60146 9.40598L5.60294 9.40838L5.60443 9.4107L5.60592 9.41302L5.60742 9.41534L5.60893 9.41774L5.61042 9.4199L5.61195 9.42222L5.61347 9.42454L5.615 9.42678L5.61659 9.4291L5.61812 9.43142L5.61967 9.43366L5.62127 9.43598L5.62286 9.43814L5.62445 9.44038L5.62607 9.4427L5.62765 9.44486L5.62927 9.44702L5.63089 9.44926L5.6325 9.45142L5.63414 9.45358L5.63584 9.45598L5.63747 9.45798L5.63911 9.46014L5.64082 9.46238L5.64254 9.46454L5.64419 9.46654L5.64585 9.46878L5.64756 9.47094L5.64935 9.4731L5.65104 9.47518L5.65273 9.47718L5.6545 9.47934L5.65626 9.48142L5.65803 9.48358L5.65975 9.48558L5.66155 9.48766L5.6633 9.48966L5.66509 9.49166L5.66692 9.4939L5.66868 9.49574L5.67051 9.49782L5.67231 9.49982L5.67416 9.50182L5.676 9.5039L5.67783 9.5059L5.67966 9.50774L5.68153 9.50982L5.68342 9.51182L5.68526 9.51374L5.68712 9.51558L5.68903 9.51758L5.69096 9.51966L5.69283 9.5215L5.69471 9.52342L5.69666 9.52526L5.69856 9.5271L5.70048 9.52902L5.70243 9.53086L5.70441 9.53294L5.70635 9.53462L5.70828 9.53646L5.7103 9.53838L5.71225 9.54022L5.7142 9.54198L5.71619 9.54382L5.71823 9.54574L5.72026 9.54758L5.72218 9.54926L5.72419 9.55102L5.72625 9.55286L5.72835 9.55462L5.73035 9.55646L5.73237 9.55822L5.73443 9.5599L5.73646 9.56166L5.73859 9.56334L5.74063 9.5651L5.74269 9.56678L5.74478 9.56846L5.74686 9.57022L5.74895 9.57174L5.7511 9.5735L5.75321 9.57518L5.75523 9.57678L5.75743 9.57846L5.75963 9.58022L5.7617 9.58174L5.76384 9.58334L5.76604 9.58502L5.76813 9.58662L5.77028 9.58814L5.77251 9.5899L5.77471 9.59142L5.77687 9.59302L5.77906 9.59454L5.78119 9.59598L5.78339 9.5975L5.78566 9.5991L5.78787 9.60062L5.79011 9.60222L5.79234 9.60374L5.7945 9.60518L5.79675 9.60662L5.79907 9.60814L5.80123 9.60958L5.8035 9.6111L5.80586 9.61254L5.80806 9.6139L5.81026 9.61534L5.81262 9.61686L5.81493 9.6183L5.81716 9.61966L5.81946 9.62094L5.82178 9.62238L5.82411 9.62374L5.82643 9.62518L5.82875 9.62654L5.83111 9.62798L5.83338 9.62918L5.83566 9.63046L5.83809 9.6319L5.84047 9.63326L5.84276 9.63454L5.84515 9.63574L5.84744 9.63702L5.84984 9.6383L5.85223 9.63966L5.85463 9.64094L5.85706 9.64214L5.8594 9.64326L5.86174 9.64454L5.86418 9.64574L5.86661 9.64702L5.86897 9.64814L5.87142 9.64934L5.87387 9.65062L5.87624 9.65166L5.87872 9.65294L5.88119 9.65406L5.88358 9.6551L5.88598 9.65622L5.88847 9.6575L5.89098 9.65854L5.8934 9.65966L5.89589 9.66078L5.89831 9.66182L5.90076 9.66278L5.90329 9.6639L5.9058 9.66494L5.90826 9.66606L5.91071 9.66702L5.91327 9.66806L5.91583 9.66918L5.91829 9.67014L5.92077 9.67102L5.92324 9.67198L5.92582 9.6731L5.92832 9.67398L5.93081 9.67494L5.93342 9.6759L5.93591 9.67686L5.93852 9.67774L5.94103 9.6787L5.94355 9.6795L5.94619 9.68038L5.94872 9.68134L5.95124 9.68214L5.9539 9.6831L5.95644 9.68382L5.95899 9.68478L5.96155 9.68558L5.96411 9.68638L5.96668 9.6871L5.96936 9.68806L5.97192 9.68886L5.9745 9.68966L5.97719 9.69038L5.97968 9.69102L5.98227 9.69182L5.98498 9.69262L5.98759 9.69334L5.99019 9.69398L5.99291 9.69478L5.99553 9.69542L5.99806 9.69614L6.00069 9.69678L6.00343 9.69742L6.00607 9.69822L6.00859 9.69886L6.01124 9.69942L6.01401 9.70006L6.01667 9.7007L6.01931 9.70118L6.02199 9.70182L6.02455 9.70246L6.02732 9.70302L6.03001 9.7035L6.03259 9.70414L6.03538 9.70462L6.03807 9.70526L6.04065 9.70574L6.04335 9.70614L6.04607 9.70662L6.04877 9.7071L6.05158 9.70758L6.0542 9.70806L6.05683 9.70854L6.05965 9.70894L6.06237 9.70942L6.065 9.70974L6.06776 9.71022L6.07048 9.7107L6.07323 9.71102L6.07598 9.7115L6.07863 9.71182L6.08138 9.71214L6.08414 9.71238L6.08691 9.7127L6.08967 9.71318L6.09234 9.7135L6.095 9.71366L6.09779 9.71398L6.10069 9.7143L6.10335 9.71462L6.10604 9.71478L6.10895 9.7151L6.11164 9.71526L6.11433 9.7155L6.11725 9.71566L6.11995 9.71582L6.12265 9.71614L6.12547 9.7163L6.12828 9.71646L6.13111 9.71662L6.13383 9.71678L6.13655 9.71694H6.13939L6.14223 9.7171L6.14495 9.71726H6.14769L6.15055 9.71742H6.15613L6.15888 9.71758H8.58248L6.79836 6.62738L5.59015 8.72014ZM10.6985 -0.127864L7.37948 5.6209L9.74472 9.71758H16.1572L16.0904 -0.127864H10.6985Z" fill="url(#paint1_linear_1_19)"/>
</g>
</g>
<defs>
<radialGradient id="paint0_radial_1_19" cx="0" cy="0" r="1" gradientUnits="userSpaceOnUse" gradientTransform="translate(12.2223 -2.98937) scale(18.9879)">
<stop stop-color="#6BE1FB"/>
<stop offset="1" stop-color="#38BDFA"/>
</radialGradient>
<linearGradient id="paint1_linear_1_19" x1="20.7282" y1="15.999" x2="20.7279" y2="0.0150393" gradientUnits="userSpaceOnUse">
<stop stop-color="#4AC5FA"/>
<stop offset="1" stop-color="#97E8FC"/>
</linearGradient>
<clipPath id="clip0_1_19">
<rect width="16" height="16" fill="white"/>
</clipPath>
</defs>
</svg>
