<svg width="16" height="16" viewBox="0 0 16 16" fill="none" xmlns="http://www.w3.org/2000/svg">
<g clip-path="url(#clip0_1406_3528)">
<path fill-rule="evenodd" clip-rule="evenodd" d="M16 0.480001C16 0.215095 15.7849 0 15.52 0H0.48C0.215094 0 0 0.215095 0 0.480001V15.52C0 15.785 0.215094 16 0.48 16H15.52C15.7849 16 16 15.785 16 15.52V0.480001Z" fill="#1B72BE"/>
<mask id="mask0_1406_3528" style="mask-type:alpha" maskUnits="userSpaceOnUse" x="0" y="0" width="16" height="16">
<path fill-rule="evenodd" clip-rule="evenodd" d="M16 0.480001C16 0.215095 15.7849 0 15.52 0H0.48C0.215094 0 0 0.215095 0 0.480001V15.52C0 15.785 0.215094 16 0.48 16H15.52C15.7849 16 16 15.785 16 15.52V0.480001Z" fill="white"/>
</mask>
<g mask="url(#mask0_1406_3528)">
<path fill-rule="evenodd" clip-rule="evenodd" d="M15.9894 0.494291C15.9894 0.22965 15.7745 0.0147705 15.5099 0.0147705H6.5588L0.00537109 11.3657V15.5192C0.00537109 15.7839 0.22025 15.9987 0.48489 15.9987H15.5099C15.7745 15.9987 15.9894 15.7839 15.9894 15.5192V0.494291Z" fill="#0568AA"/>
<path fill-rule="evenodd" clip-rule="evenodd" d="M7.39558 15.9987H6.28083L3.40151 10.21L9.0125 0.0147705H9.91546L4.04135 10.1891L7.39558 15.9987ZM10.4153 15.9987H7.63534L4.35966 10.3251H15.9905L15.9894 11.3844L10.4153 15.9987ZM7.65221 0.0147705H6.71864L0.00537109 11.6425V13.2595L7.65221 0.0147705ZM9.27386 10.116H6.11228C5.74325 10.116 5.4001 9.9229 5.21556 9.60338C5.03106 9.28378 5.03106 8.89011 5.21556 8.57051L6.79856 5.82866L9.27386 10.116ZM15.9894 10.116H9.51362L6.91843 5.62098L10.1552 0.0147705L11.3279 0.0155088L9.62458 5.81035L10.4153 7.43459L15.9894 9.62659V10.116Z" fill="#074F7F"/>
<path fill-rule="evenodd" clip-rule="evenodd" d="M15.9893 15.9986H7.87507L4.71935 10.5327H15.9893V15.9986ZM7.15579 15.9986H0.00537109V12.0577L6.95838 0.0146484H9.67562L3.80155 10.1889L7.15579 15.9986ZM8.9149 9.90942H6.16753C5.86084 9.90942 5.57745 9.74846 5.42411 9.48278C5.27076 9.21726 5.27076 8.88998 5.42411 8.62446C6.03439 7.56738 6.79854 6.24386 6.79854 6.24386L8.9149 9.90942ZM15.9893 9.90942H9.63442L7.15818 5.6209L10.3949 0.0146484H15.9893V9.90942Z" fill="url(#paint0_radial_1406_3528)"/>
<path fill-rule="evenodd" clip-rule="evenodd" d="M16.3601 16.2925H8.04469L4.71922 10.5327H16.3543L16.3601 16.2925ZM3.80142 10.1889L7.32538 16.2925H-0.485314L-0.511475 12.9526L7.15129 -0.319702H9.86853L3.80142 10.1889ZM5.05145 10.7245L8.15541 16.1009H16.168L16.1628 10.7245H5.05145ZM7.26202 -0.127864L-0.319262 13.0033L-0.295005 16.1009H6.99316L3.57994 10.1889L9.53629 -0.127864H7.26202ZM8.91477 9.90942H6.16022L6.15663 9.90926H6.14946L6.14587 9.9091H6.1423L6.13873 9.90894L6.13515 9.90878L6.13158 9.90862L6.128 9.90846L6.12444 9.9083L6.12087 9.90814L6.11731 9.90798L6.11375 9.90766L6.11019 9.9075L6.10665 9.90718L6.10309 9.9071L6.09954 9.90678L6.096 9.90646L6.09246 9.90614L6.08892 9.90582L6.08539 9.9055L6.08185 9.90518L6.07832 9.90486L6.07479 9.90438L6.07126 9.90406L6.06775 9.90366L6.06423 9.90334L6.06071 9.90286L6.0572 9.90238L6.0537 9.9019L6.05019 9.90142L6.0467 9.90094L6.0432 9.90054L6.0397 9.90006L6.0362 9.89942L6.03272 9.89894L6.02924 9.8983L6.02576 9.89782L6.02228 9.89726L6.0188 9.89662L6.01534 9.89598L6.01187 9.89534L6.00842 9.8947L6.00495 9.89414L6.0015 9.8935L5.99806 9.8927L5.99461 9.89206L5.99117 9.89126L5.98772 9.8907L5.98429 9.8899L5.98087 9.8891L5.97743 9.8883L5.97402 9.88774L5.9706 9.88678L5.96718 9.88598L5.96378 9.88518L5.96038 9.88446L5.95697 9.8835L5.95358 9.8827L5.9502 9.8819L5.94681 9.88102L5.94343 9.88006L5.94005 9.8791L5.93668 9.87822L5.9333 9.87726L5.92994 9.8763L5.92658 9.87534L5.92322 9.87446L5.91988 9.8735L5.91654 9.87238L5.9132 9.8715L5.90986 9.87038L5.90654 9.86926L5.90322 9.86838L5.89989 9.86726L5.89658 9.86614L5.89327 9.8651L5.88996 9.86398L5.88666 9.8627L5.88338 9.86166L5.88008 9.86054L5.8768 9.85942L5.87353 9.85822L5.87025 9.85694L5.86698 9.8559L5.86372 9.85462L5.86047 9.85334L5.85722 9.85214L5.85397 9.85086L5.85074 9.84958L5.8475 9.84838L5.84427 9.8471L5.84106 9.84574L5.83784 9.84446L5.83462 9.8431L5.83142 9.84182L5.82822 9.84038L5.82502 9.83902L5.82184 9.83758L5.81866 9.83638L5.81549 9.83478L5.81232 9.83342L5.80915 9.83198L5.806 9.83054L5.80285 9.82918L5.7997 9.82758L5.79657 9.82622L5.79343 9.82462L5.79031 9.82326L5.78719 9.82166L5.78408 9.82014L5.78098 9.81854L5.77787 9.81702L5.77478 9.81542L5.77169 9.8139L5.76862 9.8123L5.76554 9.81078L5.76246 9.80902L5.75941 9.8075L5.75636 9.80574L5.75332 9.80422L5.75027 9.80246L5.74725 9.80078L5.74422 9.79902L5.74119 9.79734L5.73818 9.79574L5.73518 9.79406L5.73218 9.79214L5.72918 9.79046L5.7262 9.78878L5.72324 9.78686L5.72026 9.78518L5.7173 9.78342L5.71434 9.78158L5.71139 9.77966L5.70846 9.77782L5.70552 9.77606L5.7026 9.77422L5.69968 9.77238L5.69678 9.77046L5.69388 9.76862L5.69098 9.76654L5.68809 9.7647L5.68522 9.76286L5.68234 9.76078L5.67947 9.75894L5.67662 9.75686L5.67377 9.75486L5.67093 9.75302L5.66809 9.75094L5.66526 9.74894L5.66246 9.74694L5.65965 9.74486L5.65683 9.74286L5.65406 9.74086L5.65126 9.73862L5.64849 9.73662L5.64572 9.73454L5.64296 9.73238L5.64021 9.73038L5.63746 9.72814L5.63474 9.72598L5.632 9.72382L5.62929 9.72174L5.62657 9.71958L5.62387 9.71742L5.62118 9.7151L5.6185 9.71286L5.61582 9.7107L5.61316 9.70854L5.61049 9.70614L5.60786 9.70398L5.6052 9.70182L5.60258 9.69942L5.59995 9.6971L5.59734 9.69494L5.59473 9.69262L5.59214 9.69022L5.58954 9.6879L5.58697 9.68558L5.58441 9.68326L5.58185 9.68086L5.57929 9.67854L5.57674 9.67606L5.57422 9.67374L5.5717 9.67118L5.56918 9.66886L5.56668 9.66638L5.56418 9.66406L5.5617 9.6615L5.55922 9.65902L5.55675 9.65654L5.5543 9.65406L5.55185 9.6515L5.54942 9.64902L5.54698 9.64654L5.54456 9.64406L5.54215 9.64158L5.53975 9.63886L5.53736 9.63638L5.53499 9.6339L5.53262 9.63126L5.53026 9.62862L5.5279 9.62606L5.52558 9.62342L5.52323 9.62078L5.52093 9.61814L5.51862 9.6155L5.5163 9.61286L5.51402 9.61014L5.51174 9.6075L5.50947 9.60486L5.50722 9.60222L5.50498 9.59942L5.50273 9.59678L5.50051 9.5939L5.4983 9.59126L5.49607 9.58846L5.49389 9.58566L5.4917 9.58302L5.48952 9.58022L5.48737 9.57742L5.48521 9.57462L5.48307 9.57174L5.48094 9.56894L5.47881 9.56614L5.4767 9.56334L5.47462 9.56054L5.47252 9.55758L5.47045 9.55478L5.46837 9.55182L5.46633 9.54902L5.46428 9.54598L5.46223 9.54302L5.46022 9.54022L5.45821 9.53726L5.45621 9.5343L5.45422 9.53134L5.45225 9.52838L5.45028 9.52542L5.44833 9.52246L5.44638 9.5195L5.44446 9.51654L5.44254 9.51342L5.44062 9.51046L5.43873 9.5075L5.43684 9.5043L5.43497 9.50134L5.4331 9.49822L5.43125 9.4951L5.42941 9.49214L5.42758 9.48902L5.42577 9.4859L5.42398 9.48278L5.42218 9.47966L5.4204 9.47654L5.41864 9.47342L5.41689 9.4703L5.41516 9.46718L5.41344 9.46406L5.41174 9.46094L5.41004 9.45782L5.40837 9.45454L5.4067 9.45142L5.40506 9.4483L5.40342 9.44502L5.40179 9.4419L5.40018 9.43878L5.39859 9.4355L5.39702 9.43238L5.39544 9.4291L5.3939 9.42598L5.39237 9.4227L5.39084 9.41942L5.38932 9.4163L5.38784 9.41302L5.38636 9.40974L5.38489 9.40662L5.38344 9.40334L5.38198 9.40006L5.38057 9.39694L5.37916 9.39366L5.37776 9.39038L5.37638 9.3871L5.37501 9.38382L5.37365 9.38054L5.37231 9.37726L5.37098 9.37398L5.36967 9.3707L5.36838 9.36742L5.3671 9.36414L5.36582 9.36086L5.36457 9.35758L5.36332 9.3543L5.36209 9.35094L5.36088 9.34766L5.35968 9.34438L5.3585 9.3411L5.35733 9.33782L5.35615 9.33438L5.35502 9.3311L5.35389 9.32782L5.35277 9.32438L5.35167 9.3211L5.35058 9.31766L5.3495 9.31438L5.34844 9.3111L5.3474 9.30766L5.34637 9.30438L5.34535 9.30094L5.34435 9.2975L5.34335 9.29422L5.34238 9.29078L5.34142 9.2875L5.34046 9.28406L5.33954 9.28078L5.33862 9.27742L5.33772 9.27398L5.33683 9.2707L5.33594 9.26726L5.33508 9.26382L5.33424 9.26038L5.33339 9.2571L5.33257 9.25366L5.33177 9.25022L5.33098 9.24678L5.33019 9.2435L5.32943 9.24006L5.32868 9.23662L5.32794 9.23318L5.32722 9.22974L5.32651 9.2263L5.32581 9.22294L5.32514 9.2195L5.32446 9.21606L5.32381 9.21262L5.32317 9.20934L5.32254 9.2059L5.32194 9.20246L5.32134 9.19902L5.32077 9.19542L5.32019 9.19214L5.31964 9.18854L5.3191 9.1851L5.31857 9.18166L5.31805 9.1783L5.31757 9.17486L5.31707 9.17142L5.3166 9.16798L5.31614 9.16454L5.31571 9.1611L5.31527 9.15766L5.31486 9.15422L5.31446 9.15062L5.31407 9.14718L5.31371 9.14374L5.31335 9.1403L5.31301 9.13686L5.31268 9.1335L5.31235 9.1299L5.31206 9.12646L5.31178 9.12302L5.3115 9.11958L5.31123 9.11614L5.31099 9.11254L5.31076 9.1091L5.31054 9.10566L5.31034 9.10222L5.31015 9.09878L5.30997 9.09518L5.30981 9.09182L5.30967 9.08838L5.30953 9.08494L5.3094 9.08134L5.30931 9.0779L5.30922 9.07446L5.30914 9.07102L5.30907 9.06742L5.30903 9.06398L5.30898 9.06054L5.30897 9.0571V9.05014L5.30898 9.0467L5.30903 9.04326L5.30907 9.03966L5.30914 9.03622L5.30922 9.03278L5.30931 9.02934L5.3094 9.02574L5.30953 9.0223L5.30967 9.01886L5.30981 9.01542L5.30997 9.0119L5.31015 9.00846L5.31034 9.00502L5.31054 9.00158L5.31076 8.99798L5.31099 8.99454L5.31123 8.9911L5.3115 8.98766L5.31178 8.98422L5.31206 8.98078L5.31235 8.97718L5.31268 8.97374L5.31301 8.97038L5.31335 8.96694L5.31371 8.9635L5.31407 8.9599L5.31446 8.95646L5.31486 8.95302L5.31527 8.94958L5.31571 8.94614L5.31614 8.9427L5.3166 8.93926L5.31707 8.93582L5.31757 8.93222L5.31805 8.92886L5.31857 8.92542L5.3191 8.92198L5.31964 8.91854L5.32019 8.9151L5.32077 8.91166L5.32134 8.90822L5.32194 8.90478L5.32254 8.90134L5.32317 8.8979L5.32381 8.89446L5.32446 8.89102L5.32514 8.88758L5.32581 8.88422L5.32651 8.88094L5.32722 8.8775L5.32794 8.87406L5.32868 8.87062L5.32943 8.86718L5.33019 8.86374L5.33098 8.8603L5.33177 8.85702L5.33257 8.85358L5.33339 8.85014L5.33424 8.8467L5.33508 8.84342L5.33594 8.83998L5.33683 8.83654L5.33772 8.8331L5.33862 8.8299L5.33954 8.82646L5.34046 8.82302L5.34142 8.81974L5.34238 8.8163L5.34335 8.81302L5.34435 8.80958L5.34535 8.8063L5.34637 8.80286L5.3474 8.79958L5.34844 8.79614L5.3495 8.79286L5.35058 8.78942L5.35167 8.78614L5.35277 8.7827L5.35389 8.77942L5.35502 8.77614L5.35615 8.77286L5.35733 8.76942L5.3585 8.76614L5.35968 8.76286L5.36088 8.75958L5.36209 8.75622L5.36332 8.75294L5.36457 8.74966L5.36582 8.74638L5.3671 8.7431L5.36838 8.73982L5.36967 8.73654L5.37098 8.73326L5.37231 8.72998L5.37365 8.7267L5.37501 8.72342L5.37638 8.72014L5.37776 8.71686L5.37916 8.71358L5.38057 8.7103L5.38198 8.70702L5.38344 8.7039L5.38489 8.70062L5.38636 8.69734L5.38784 8.69422L5.38932 8.69094L5.39084 8.68766L5.39237 8.68454L5.3939 8.68126L5.39544 8.67798L5.39702 8.67486L5.39859 8.67174L5.40018 8.66846L5.40179 8.66534L5.40342 8.66206L5.40506 8.65894L5.4067 8.65582L5.40837 8.6527L5.41004 8.64942L5.41174 8.6463L5.41344 8.64318L5.41516 8.64006L5.41689 8.63694L5.41864 8.63382L5.4204 8.63054L5.42218 8.62758L5.42398 8.62446L6.79841 6.24386L8.91477 9.90942ZM16.3504 9.90942H9.63397L7.15805 5.6209L10.5878 -0.319702H16.2809L16.3504 9.90942ZM5.5902 8.72014L5.58869 8.72278L5.5873 8.7251L5.58595 8.7275L5.58458 8.72998L5.58326 8.73246L5.58188 8.73494L5.58057 8.73726L5.57926 8.73982L5.57794 8.7423L5.57666 8.74462L5.57538 8.7471L5.5741 8.74966L5.57282 8.75214L5.57161 8.75446L5.57036 8.75694L5.56911 8.75958L5.56793 8.76198L5.56672 8.76446L5.56552 8.76694L5.56435 8.76942L5.56317 8.77198L5.56199 8.77446L5.56084 8.7771L5.55971 8.77942L5.55861 8.78198L5.55746 8.78462L5.55636 8.7871L5.55526 8.78958L5.55419 8.79206L5.55311 8.79462L5.55205 8.79726L5.55099 8.79974L5.54994 8.80222L5.54893 8.8047L5.5479 8.80742L5.54688 8.8099L5.5459 8.81238L5.54492 8.81502L5.54394 8.8175L5.54297 8.82022L5.54202 8.8227L5.54108 8.82518L5.54016 8.82782L5.53922 8.83046L5.53831 8.83302L5.53742 8.8355L5.53652 8.83814L5.53565 8.84078L5.53478 8.84326L5.53393 8.8459L5.53309 8.84846L5.53226 8.8511L5.53143 8.85374L5.53062 8.85622L5.52981 8.85886L5.52902 8.86158L5.52825 8.86406L5.52746 8.8667L5.52672 8.86934L5.52598 8.87182L5.52523 8.8747L5.52451 8.87718L5.5238 8.87982L5.5231 8.88246L5.52241 8.8851L5.52172 8.88774L5.52105 8.8903L5.52039 8.89294L5.51974 8.89558L5.5191 8.89822L5.51849 8.90086L5.51786 8.9035L5.51726 8.90622L5.51666 8.90886L5.51607 8.9115L5.51551 8.91414L5.51494 8.91678L5.5144 8.91942L5.51386 8.92214L5.51332 8.92478L5.51282 8.92742L5.51231 8.93006L5.51181 8.9327L5.51133 8.93542L5.51086 8.93806L5.51039 8.9407L5.50994 8.94334L5.50949 8.94598L5.50906 8.94878L5.50864 8.95134L5.50823 8.95414L5.50783 8.95678L5.50746 8.95942L5.50706 8.96206L5.5067 8.9647L5.50634 8.96734L5.506 8.97006L5.50567 8.97286L5.50534 8.9755L5.50505 8.97814L5.50474 8.98078L5.50446 8.98358L5.50418 8.9863L5.50391 8.98894L5.50365 8.99158L5.50341 8.99438L5.50318 8.99702L5.50294 8.99966L5.50274 9.00238L5.50254 9.00502L5.50235 9.00782L5.50216 9.01046L5.50199 9.0131L5.50183 9.0159L5.5017 9.01854L5.50155 9.02126L5.50143 9.0239L5.50132 9.0267L5.50121 9.02934L5.50112 9.03198L5.50104 9.03462L5.50096 9.0375L5.5009 9.04014L5.50086 9.04278L5.50082 9.04542L5.50079 9.04822L5.50078 9.05086V9.05638L5.50079 9.05902L5.50082 9.06166L5.50086 9.0643L5.5009 9.0671L5.50096 9.06974L5.50104 9.07246L5.50112 9.07526L5.50121 9.0779L5.50132 9.08054L5.50143 9.08334L5.50155 9.08598L5.5017 9.0887L5.50183 9.09134L5.50199 9.09414L5.50216 9.09678L5.50235 9.09942L5.50254 9.10206L5.50274 9.10486L5.50294 9.10758L5.50318 9.11022L5.50341 9.11286L5.50365 9.11566L5.50391 9.1183L5.50418 9.12094L5.50446 9.12366L5.50474 9.1263L5.50503 9.1291L5.50534 9.13174L5.50567 9.13438L5.506 9.13702L5.50634 9.13974L5.5067 9.14238L5.50706 9.14502L5.50746 9.14782L5.50783 9.15046L5.50823 9.1531L5.50864 9.15582L5.50906 9.15846L5.50949 9.1611L5.50994 9.1639L5.51039 9.16654L5.51086 9.16918L5.51133 9.1719L5.51181 9.17454L5.51231 9.17718L5.51281 9.17982L5.51334 9.18246L5.51386 9.1851L5.5144 9.18782L5.51494 9.19046L5.51551 9.1931L5.51609 9.19574L5.51666 9.19838L5.51726 9.20102L5.51786 9.20374L5.51847 9.20638L5.5191 9.20902L5.51974 9.2115L5.52039 9.2143L5.52106 9.21678L5.52172 9.2195L5.52241 9.22214L5.5231 9.22478L5.5238 9.22742L5.52451 9.23006L5.52523 9.23262L5.52597 9.23526L5.52674 9.2379L5.52748 9.24054L5.52823 9.24302L5.52902 9.24566L5.52981 9.24838L5.5306 9.25086L5.53143 9.2535L5.53226 9.25614L5.53309 9.25862L5.53393 9.26134L5.53478 9.26398L5.53565 9.26646L5.53652 9.2691L5.53741 9.27158L5.53831 9.27422L5.53922 9.27678L5.54014 9.27942L5.54106 9.2819L5.54202 9.28454L5.54297 9.28702L5.54394 9.28974L5.54492 9.29222L5.5459 9.2947L5.5469 9.29734L5.5479 9.29982L5.54891 9.30238L5.54996 9.30502L5.55099 9.3075L5.55205 9.30998L5.55311 9.31254L5.55418 9.31502L5.55526 9.31766L5.55636 9.32014L5.55746 9.32262L5.55861 9.32518L5.55971 9.32766L5.56086 9.3303L5.56201 9.33278L5.56317 9.33526L5.56434 9.33766L5.56552 9.34014L5.56672 9.34278L5.56791 9.3451L5.56914 9.34766L5.57036 9.35014L5.57159 9.35262L5.57284 9.3551L5.5741 9.35758L5.57537 9.35998L5.57666 9.36246L5.57796 9.36494L5.57926 9.36742L5.58057 9.36998L5.58188 9.3723L5.58322 9.37478L5.58459 9.37726L5.58595 9.37966L5.5873 9.38214L5.58869 9.38446L5.59006 9.38694L5.59148 9.38926L5.59291 9.39182L5.59432 9.39414L5.59571 9.39646L5.59714 9.39886L5.59862 9.40134L5.60006 9.40366L5.6015 9.40598L5.60298 9.40838L5.60448 9.4107L5.60597 9.41302L5.60746 9.41534L5.60898 9.41774L5.61046 9.4199L5.61199 9.42222L5.61352 9.42454L5.61505 9.42678L5.61664 9.4291L5.61817 9.43142L5.61972 9.43366L5.62131 9.43598L5.6229 9.43814L5.6245 9.44038L5.62612 9.4427L5.6277 9.44486L5.62932 9.44702L5.63094 9.44926L5.63254 9.45142L5.63418 9.45358L5.63589 9.45598L5.63751 9.45798L5.63915 9.46014L5.64086 9.46238L5.64258 9.46454L5.64424 9.46654L5.6459 9.46878L5.64761 9.47094L5.64939 9.4731L5.65109 9.47518L5.65278 9.47718L5.65454 9.47934L5.6563 9.48142L5.65807 9.48358L5.6598 9.48558L5.6616 9.48766L5.66334 9.48966L5.66514 9.49166L5.66697 9.4939L5.66873 9.49574L5.67056 9.49782L5.67235 9.49982L5.67421 9.50182L5.67605 9.5039L5.67788 9.5059L5.6797 9.50774L5.68158 9.50982L5.68346 9.51182L5.6853 9.51374L5.68717 9.51558L5.68907 9.51758L5.69101 9.51966L5.69288 9.5215L5.69475 9.52342L5.6967 9.52526L5.69861 9.5271L5.70053 9.52902L5.70248 9.53086L5.70446 9.53294L5.70639 9.53462L5.70833 9.53646L5.71034 9.53838L5.7123 9.54022L5.71425 9.54198L5.71623 9.54382L5.71827 9.54574L5.7203 9.54758L5.72222 9.54926L5.72424 9.55102L5.7263 9.55286L5.72839 9.55462L5.7304 9.55646L5.73242 9.55822L5.73448 9.5599L5.7365 9.56166L5.73863 9.56334L5.74067 9.5651L5.74274 9.56678L5.74482 9.56846L5.7469 9.57022L5.74899 9.57174L5.75114 9.5735L5.75326 9.57518L5.75528 9.57678L5.75747 9.57846L5.75967 9.58022L5.76174 9.58174L5.76389 9.58334L5.76609 9.58502L5.76818 9.58662L5.77033 9.58814L5.77256 9.5899L5.77475 9.59142L5.77692 9.59302L5.7791 9.59454L5.78124 9.59598L5.78344 9.5975L5.7857 9.5991L5.78792 9.60062L5.79015 9.60222L5.79238 9.60374L5.79454 9.60518L5.79679 9.60662L5.79911 9.60814L5.80128 9.60958L5.80354 9.6111L5.8059 9.61254L5.8081 9.6139L5.8103 9.61534L5.81266 9.61686L5.81498 9.6183L5.81721 9.61966L5.8195 9.62094L5.82182 9.62238L5.82415 9.62374L5.82648 9.62518L5.8288 9.62654L5.83116 9.62798L5.83342 9.62918L5.8357 9.63046L5.83814 9.6319L5.84051 9.63326L5.84281 9.63454L5.84519 9.63574L5.84749 9.63702L5.84989 9.6383L5.85228 9.63966L5.85468 9.64094L5.8571 9.64214L5.85945 9.64326L5.86178 9.64454L5.86422 9.64574L5.86666 9.64702L5.86902 9.64814L5.87146 9.64934L5.87391 9.65062L5.87629 9.65166L5.87877 9.65294L5.88123 9.65406L5.88362 9.6551L5.88602 9.65622L5.88851 9.6575L5.89103 9.65854L5.89344 9.65966L5.89594 9.66078L5.89836 9.66182L5.90081 9.66278L5.90334 9.6639L5.90585 9.66494L5.9083 9.66606L5.91075 9.66702L5.91331 9.66806L5.91587 9.66918L5.91834 9.67014L5.92082 9.67102L5.92329 9.67198L5.92586 9.6731L5.92836 9.67398L5.93086 9.67494L5.93347 9.6759L5.93596 9.67686L5.93857 9.67774L5.94108 9.6787L5.94359 9.6795L5.94623 9.68038L5.94876 9.68134L5.95129 9.68214L5.95394 9.6831L5.95649 9.68382L5.95903 9.68478L5.96159 9.68558L5.96415 9.68638L5.96673 9.6871L5.9694 9.68806L5.97197 9.68886L5.97454 9.68966L5.97723 9.69038L5.97973 9.69102L5.98232 9.69182L5.98502 9.69262L5.98763 9.69334L5.99023 9.69398L5.99295 9.69478L5.99558 9.69542L5.99811 9.69614L6.00074 9.69678L6.00347 9.69742L6.00611 9.69822L6.00864 9.69886L6.01129 9.69942L6.01406 9.70006L6.01671 9.7007L6.01936 9.70118L6.02203 9.70182L6.02459 9.70246L6.02737 9.70302L6.03006 9.7035L6.03263 9.70414L6.03542 9.70462L6.03811 9.70526L6.0407 9.70574L6.0434 9.70614L6.04611 9.70662L6.04882 9.7071L6.05162 9.70758L6.05425 9.70806L6.05687 9.70854L6.0597 9.70894L6.06242 9.70942L6.06505 9.70974L6.0678 9.71022L6.07053 9.7107L6.07328 9.71102L6.07602 9.7115L6.07868 9.71182L6.08142 9.71214L6.08418 9.71238L6.08695 9.7127L6.08971 9.71318L6.09238 9.7135L6.09505 9.71366L6.09783 9.71398L6.10074 9.7143L6.1034 9.71462L6.10609 9.71478L6.10899 9.7151L6.11169 9.71526L6.11438 9.7155L6.1173 9.71566L6.11999 9.71582L6.1227 9.71614L6.12552 9.7163L6.12833 9.71646L6.13115 9.71662L6.13387 9.71678L6.1366 9.71694H6.13943L6.14227 9.7171L6.145 9.71726H6.14774L6.15059 9.71742H6.15618L6.15893 9.71758H8.58253L6.79841 6.62738L5.5902 8.72014ZM10.6985 -0.127864L7.37953 5.6209L9.74477 9.71758H16.1572L16.0905 -0.127864H10.6985Z" fill="url(#paint1_linear_1406_3528)"/>
</g>
</g>
<defs>
<radialGradient id="paint0_radial_1406_3528" cx="0" cy="0" r="1" gradientUnits="userSpaceOnUse" gradientTransform="translate(12.2224 -2.98937) scale(18.9879)">
<stop stop-color="#6BE1FB"/>
<stop offset="1" stop-color="#38BDFA"/>
</radialGradient>
<linearGradient id="paint1_linear_1406_3528" x1="20.7283" y1="15.999" x2="20.728" y2="0.0150393" gradientUnits="userSpaceOnUse">
<stop stop-color="#4AC5FA"/>
<stop offset="1" stop-color="#97E8FC"/>
</linearGradient>
<clipPath id="clip0_1406_3528">
<rect width="16" height="16" fill="white"/>
</clipPath>
</defs>
</svg>
