<svg width="16" height="16" viewBox="0 0 16 16" fill="none" xmlns="http://www.w3.org/2000/svg">
<g clip-path="url(#clip0_1406_3526)">
<path fill-rule="evenodd" clip-rule="evenodd" d="M16 0.48C16 0.215094 15.7849 0 15.52 0H0.48C0.215094 0 0 0.215094 0 0.48V15.52C0 15.7849 0.215094 16 0.48 16H15.52C15.7849 16 16 15.7849 16 15.52V0.48Z" fill="#7E4DD2"/>
<mask id="mask0_1406_3526" style="mask-type:alpha" maskUnits="userSpaceOnUse" x="0" y="0" width="16" height="16">
<path fill-rule="evenodd" clip-rule="evenodd" d="M16 0.48C16 0.215094 15.7849 0 15.52 0H0.48C0.215094 0 0 0.215094 0 0.48V15.52C0 15.7849 0.215094 16 0.48 16H15.52C15.7849 16 16 15.7849 16 15.52V0.48Z" fill="white"/>
</mask>
<g mask="url(#mask0_1406_3526)">
<path fill-rule="evenodd" clip-rule="evenodd" d="M15.9799 0.495512C15.9799 0.230871 15.765 0.0159912 15.5004 0.0159912H6.54931L-0.00415039 11.3669V15.5205C-0.00415039 15.7851 0.21073 16 0.475371 16H15.5004C15.765 16 15.9799 15.7851 15.9799 15.5205V0.495512Z" fill="#7140C2"/>
<path fill-rule="evenodd" clip-rule="evenodd" d="M16.1863 10.1173V-0.190674H15.3808L9.42947 10.1173H16.1863ZM8.68027 5.83087C8.98763 5.83471 9.28083 6.00326 9.43859 6.26867C9.60179 6.54867 9.76347 6.82954 9.92515 7.11042C10.006 7.25088 10.0869 7.39135 10.168 7.53171C10.3156 7.79044 10.3267 8.12295 10.182 8.39383C10.1785 8.40031 10.1749 8.40679 10.1712 8.41327C10.0085 8.69815 9.84403 8.98199 9.67963 9.26591C9.60043 9.40263 9.52115 9.53943 9.44211 9.67631C9.29091 9.93591 9.00443 10.1072 8.70251 10.1173C8.69891 10.1174 8.69363 10.1174 8.68907 10.1174L8.68043 10.1173H7.31332H7.30151C7.00006 10.116 6.70785 9.95791 6.54819 9.70143C6.54417 9.69519 6.54037 9.68879 6.53653 9.68239C6.37519 9.40551 6.21533 9.12775 6.05547 8.84999L6.05504 8.84927C5.97253 8.70591 5.89002 8.56255 5.80731 8.41935C5.65817 8.15839 5.65098 7.82355 5.7931 7.55718L5.80381 7.53772C5.96083 7.26292 6.11948 6.98906 6.27812 6.71522C6.36316 6.56842 6.4482 6.42162 6.53298 6.27469C6.68404 6.01566 6.97079 5.84139 7.27257 5.83135C7.28009 5.83109 7.28745 5.83098 7.29479 5.83087C7.75674 5.82891 8.21851 5.82891 8.68027 5.83087ZM-0.208598 16.2067H0.556865C1.55572 14.4767 2.55493 12.7465 3.55415 11.0162C4.55256 9.28735 5.55096 7.55855 6.549 5.82995H3.35219L-0.211182 12.0038L-0.208598 16.2067ZM10.0615 16.2067H0.793746L5.43023 8.18519L10.0615 16.2067ZM16.1799 16.2056L10.3035 16.2069L6.9083 10.3264H16.1885C16.1874 11.2965 16.1858 12.2673 16.1842 13.2382C16.1826 14.2275 16.181 15.217 16.1799 16.2056ZM10.545 7.76603L6.39023 0.569766L6.82933 -0.190674H15.1388L10.545 7.76603ZM3.47364 5.62138L9.06651 5.62226C8.61419 4.83888 8.16147 4.05528 7.70882 3.27167C7.22884 2.44078 6.74885 1.60988 6.26926 0.77922L3.47364 5.62138Z" fill="#58328A"/>
<path fill-rule="evenodd" clip-rule="evenodd" d="M0.437565 16H-0.00199692L-0.00439453 12.059L3.47214 6.0375H6.18943L0.437565 16ZM15.9799 10.5335V16L10.4228 16L7.26675 10.5335H15.9799ZM9.70354 16H1.15205L5.43019 8.59837L9.70354 16ZM15.9799 9.91013H9.78778L15.5001 0.0159912H15.9797L15.9799 9.91013ZM8.6745 6.02625C8.91122 6.02724 9.1377 6.16636 9.2601 6.37254C9.26138 6.37463 9.26378 6.37884 9.26378 6.37884L9.98226 7.62342C9.98226 7.62342 9.98642 7.63037 9.98834 7.63373C10.1059 7.83917 10.1103 8.09805 9.99298 8.30725C9.7521 8.72861 9.50754 9.14805 9.2649 9.56845C9.1457 9.77285 8.92002 9.90629 8.68026 9.90925C8.22258 9.91117 7.30383 9.91013 7.30383 9.91013C7.06711 9.90909 6.83694 9.78285 6.71451 9.57661C6.71179 9.57221 6.70651 9.56309 6.70651 9.56309C6.70651 9.56309 5.98787 8.31837 5.98627 8.31549C5.86879 8.11005 5.86895 7.84458 5.98627 7.63541L5.99155 7.62618C5.99155 7.62618 6.47251 6.79154 6.71339 6.37422C6.83263 6.16977 7.05864 6.02911 7.2984 6.0261C7.30239 6.02609 7.31039 6.02591 7.31039 6.02591L8.66634 6.02625H8.6745ZM6.94867 0.0159912H14.7808L10.5451 7.35255L6.62899 0.569693L6.94867 0.0159912ZM8.7069 5.41458H3.83178L6.26935 1.19261L8.7069 5.41458Z" fill="url(#paint0_radial_1406_3526)"/>
<path fill-rule="evenodd" clip-rule="evenodd" d="M0.0548602 16.6628L-0.376709 16.6491L-0.371595 12.6951L3.47209 6.0375H6.18938L0.0548602 16.6628ZM10.0631 16.6229L0.821297 16.5723L5.43014 8.59834L10.0631 16.6229ZM16.3199 16.5991L10.7469 16.5614L7.2667 10.5335H16.341L16.3199 16.5991ZM3.58286 6.2293L-0.179946 12.7466L-0.184741 16.4634L-0.0538313 16.4675L5.85723 6.2293H3.58286ZM1.15265 16.3823L9.72981 16.4293L5.43014 8.98186L1.15265 16.3823ZM7.59886 10.7253L10.8581 16.3703L16.1288 16.406L16.1484 10.7253H7.59886ZM8.66629 6.02624H8.67445L8.67733 6.02626L8.68005 6.02629L8.68277 6.02634L8.68565 6.02638L8.68829 6.02646L8.69101 6.02654L8.69373 6.02664L8.69661 6.02674L8.69933 6.02686L8.70205 6.02699L8.70493 6.02714L8.70765 6.02728L8.71037 6.02746L8.71309 6.02763L8.71597 6.02782L8.71869 6.02803L8.72141 6.02826L8.72413 6.02848L8.72701 6.02872L8.72973 6.02898L8.73245 6.02923L8.73517 6.02952L8.73789 6.02981L8.74077 6.03011L8.74349 6.03041L8.74621 6.03074L8.74893 6.03108L8.75165 6.03143L8.75437 6.03178L8.75709 6.03217L8.75981 6.03255L8.76253 6.03295L8.76789 6.03378L8.77333 6.03466L8.77877 6.03558L8.78421 6.03655L8.78965 6.03758L8.79509 6.03862L8.80053 6.03974L8.80581 6.0409L8.81125 6.0421L8.81669 6.04334L8.82197 6.04464L8.82741 6.04598L8.83269 6.04735L8.83797 6.04879L8.84325 6.05026L8.84861 6.05177L8.85389 6.05334L8.85917 6.05493L8.86445 6.05658L8.86957 6.05827L8.87485 6.06002L8.88013 6.06179L8.88525 6.06361L8.89053 6.06546L8.89565 6.06737L8.90077 6.06932L8.90605 6.07131L8.91117 6.07334L8.91629 6.07542L8.92141 6.07754L8.92637 6.07969L8.93141 6.08188L8.93653 6.08412L8.94149 6.08641L8.94661 6.08872L8.95157 6.09107L8.95653 6.09347L8.96149 6.09591L8.96645 6.09839L8.97141 6.1009L8.97637 6.10346L8.98117 6.10606L8.98613 6.1087L8.99093 6.11137L8.99573 6.11407L9.00053 6.11682L9.00533 6.11962L9.01005 6.12245L9.01485 6.12531L9.01949 6.1282L9.02429 6.13114L9.02893 6.13411L9.03357 6.13712L9.03821 6.14018L9.04285 6.14326L9.04749 6.14638L9.05197 6.14954L9.05661 6.15272L9.06109 6.15595L9.06557 6.15922L9.07005 6.16252L9.07453 6.16585L9.07901 6.16922L9.08333 6.17262L9.08773 6.17606L9.09205 6.17953L9.09637 6.18302L9.10069 6.18658L9.10501 6.19014L9.10917 6.19375L9.11349 6.19738L9.11765 6.20106L9.12181 6.20477L9.12597 6.20849L9.13013 6.21226L9.13413 6.21606L9.13829 6.2199L9.14229 6.22375L9.14629 6.22766L9.15029 6.23158L9.15413 6.23554L9.15813 6.23953L9.16197 6.24356L9.16581 6.2476L9.16957 6.25168L9.17325 6.25578L9.17709 6.25993L9.18077 6.2641L9.18445 6.2683L9.18813 6.27252L9.19181 6.27679L9.19549 6.28107L9.19901 6.28539L9.20253 6.28974L9.20605 6.2941L9.20941 6.2985L9.21293 6.30292L9.21629 6.30738L9.21965 6.31186L9.22301 6.31638L9.22637 6.3209L9.22957 6.32548L9.23277 6.33006L9.23597 6.33468L9.23917 6.33932L9.24221 6.34398L9.24525 6.34869L9.24821 6.3534L9.25125 6.35814L9.25429 6.36293L9.25717 6.36772L9.26005 6.37254L9.26373 6.37883L9.98221 7.62341L9.98829 7.63372L9.99101 7.63855L9.99373 7.64339L9.99629 7.64825L9.99885 7.65314L10.0016 7.65803L10.004 7.66295L10.0065 7.6679L10.0089 7.67285L10.0113 7.67782L10.0137 7.68281L10.016 7.68781L10.0184 7.69282L10.0206 7.69786L10.0227 7.70291L10.0249 7.70798L10.027 7.71307L10.0291 7.71816L10.0312 7.72328L10.0331 7.72841L10.035 7.73354L10.0369 7.7387L10.0388 7.74387L10.0406 7.74904L10.0424 7.75424L10.0441 7.75945L10.0459 7.76466L10.0475 7.76989L10.0491 7.77513L10.0506 7.78039L10.052 7.78565L10.0536 7.79092L10.0551 7.79622L10.0564 7.80151L10.0578 7.80681L10.0591 7.81214L10.0604 7.81746L10.0616 7.82278L10.0628 7.82814L10.0639 7.83347L10.065 7.83882L10.0661 7.8442L10.0671 7.84957L10.068 7.85495L10.069 7.86034L10.0698 7.86573L10.0708 7.87113L10.0716 7.87654L10.0722 7.88195L10.073 7.88737L10.0736 7.89279L10.0743 7.89822L10.0749 7.90364L10.0754 7.90907L10.0759 7.91453L10.0764 7.91996L10.0768 7.92541L10.0772 7.93087L10.0775 7.93631L10.0778 7.94176L10.0781 7.94723L10.0783 7.95268L10.0784 7.95814L10.0786 7.96362V7.98547L10.0784 7.99093V7.99638L10.0781 8.00186L10.078 8.0073L10.0776 8.01274L10.0773 8.01826L10.077 8.0237L10.0767 8.02914L10.0762 8.03458L10.0757 8.04002L10.0752 8.04546L10.0746 8.0509L10.074 8.05634L10.0733 8.06178L10.0727 8.06722L10.0719 8.07267L10.0711 8.0781L10.0703 8.08346L10.0693 8.0889L10.0685 8.09426L10.0676 8.0997L10.0664 8.10506L10.0655 8.1105L10.0644 8.11586L10.0632 8.12122L10.062 8.12659L10.0608 8.13194L10.0596 8.13731L10.0583 8.14266L10.0568 8.14794L10.0554 8.1533L10.054 8.15858L10.0525 8.16386L10.0509 8.16914L10.0496 8.17443L10.0478 8.1797L10.0462 8.18499L10.0444 8.19026L10.0427 8.19546L10.0409 8.20066L10.0392 8.20594L10.0372 8.21114L10.0353 8.21634L10.0332 8.22147L10.0313 8.22666L10.0292 8.23178L10.0272 8.2369L10.0249 8.24202L10.0228 8.24714L10.0204 8.25226L10.0182 8.2573L10.016 8.26242L10.0136 8.26746L10.0112 8.2725L10.0086 8.27746L10.0062 8.2825L10.0036 8.28746L10.0009 8.29243L9.99837 8.29739L9.99565 8.30226L9.99293 8.30722L9.97037 8.34674L9.94773 8.38618L9.92517 8.4257L9.90245 8.46514L9.87981 8.50458L9.85709 8.54402L9.83437 8.58354L9.81165 8.6229L9.78901 8.66234L9.76629 8.70179L9.72077 8.78059L9.67517 8.85938L9.62965 8.93818L9.58389 9.01698L9.53837 9.09571L9.44709 9.25322L9.40157 9.33202L9.35597 9.41082L9.31045 9.48962L9.26485 9.56842L9.26197 9.57323L9.25909 9.57794L9.25621 9.58266L9.25333 9.58738L9.25045 9.59202L9.24749 9.59666L9.24445 9.60131L9.24125 9.60586L9.23821 9.61042L9.23501 9.61498L9.23181 9.61954L9.22861 9.62394L9.22541 9.62842L9.22205 9.6329L9.21869 9.63731L9.21533 9.64162L9.21197 9.64594L9.20845 9.65026L9.20509 9.65458L9.20157 9.65882L9.19805 9.66306L9.19437 9.66722L9.19085 9.67138L9.18717 9.67554L9.18349 9.67962L9.17981 9.6837L9.17613 9.68771L9.17229 9.69178L9.16845 9.6957L9.16469 9.69971L9.16085 9.70362L9.15701 9.70747L9.15301 9.71138L9.14901 9.71514L9.14517 9.71898L9.14101 9.72274L9.13701 9.72642L9.13301 9.73018L9.12885 9.73386L9.12469 9.73746L9.12053 9.74107L9.11637 9.74459L9.11221 9.74818L9.10789 9.75162L9.10373 9.75515L9.09941 9.7585L9.09509 9.76194L9.09061 9.7653L9.08637 9.76866L9.08189 9.77194L9.07757 9.77522L9.07309 9.77842L9.06861 9.78162L9.06413 9.78474L9.05965 9.78786L9.05501 9.79098L9.05037 9.79402L9.04589 9.79706L9.04125 9.80002L9.03661 9.80299L9.03181 9.80587L9.02717 9.80874L9.02253 9.81154L9.01773 9.81435L9.01293 9.81715L9.00813 9.81987L9.00341 9.8225L8.99861 9.82522L8.99381 9.82778L8.98885 9.83034L8.98405 9.8329L8.97909 9.83538L8.97413 9.83786L8.96917 9.84026L8.96421 9.84266L8.95925 9.84499L8.95429 9.8473L8.94917 9.84954L8.94421 9.85178L8.93909 9.85402L8.93397 9.8561L8.92885 9.85826L8.92381 9.86034L8.91869 9.86234L8.91357 9.86434L8.90845 9.86626L8.90333 9.86819L8.89805 9.87002L8.89277 9.87186L8.88765 9.87362L8.88237 9.87538L8.87709 9.87706L8.87181 9.87875L8.86653 9.88034L8.86125 9.88194L8.85597 9.88346L8.85053 9.88498L8.84533 9.88642L8.83989 9.88778L8.83461 9.88914L8.82917 9.8905L8.82373 9.89178L8.81845 9.89299L8.81301 9.89418L8.80757 9.89538L8.80213 9.89642L8.79669 9.89746L8.79125 9.89851L8.78565 9.89946L8.78021 9.90042L8.77477 9.90131L8.76917 9.9021L8.76381 9.9029L8.75821 9.90362L8.75277 9.90434L8.74717 9.90498L8.74157 9.90562L8.73613 9.90618L8.73053 9.90666L8.72493 9.90714L8.71933 9.90762L8.71373 9.90794L8.70813 9.90826L8.70253 9.90858L8.69693 9.90882L8.69133 9.90898L8.68581 9.90914L8.68021 9.90922L8.63589 9.90938L8.58925 9.90954L8.54045 9.90971L8.48965 9.90986L8.43725 9.90994L8.38333 9.91002L8.32821 9.9101L8.27229 9.91018L8.15845 9.91026L8.04389 9.91035L7.93068 9.91042H7.82087L7.71634 9.91035H7.61915L7.5314 9.91026H7.455L7.34454 9.91018L7.30378 9.9101L7.29819 9.91002L7.29276 9.90994L7.28717 9.90986L7.28157 9.90963L7.27614 9.90938L7.27054 9.90914L7.2651 9.90882L7.25951 9.90842L7.25408 9.90802L7.24848 9.90762L7.24305 9.90706L7.23746 9.90658L7.23202 9.90594L7.22658 9.9053L7.22099 9.90466L7.21555 9.90394L7.21012 9.90314L7.20469 9.90234L7.1991 9.90154L7.19366 9.90066L7.18822 9.8997L7.18279 9.89874L7.17751 9.8977L7.17208 9.89658L7.16665 9.89555L7.16121 9.89434L7.15578 9.89314L7.1505 9.89194L7.14506 9.89067L7.13979 9.8893L7.13436 9.88795L7.12908 9.88658L7.12381 9.88514L7.11854 9.88362L7.11326 9.8821L7.10782 9.8805L7.10255 9.87891L7.09743 9.8773L7.09216 9.87562L7.08689 9.87387L7.08177 9.8721L7.0765 9.87027L7.07122 9.86842L7.0661 9.8665L7.06099 9.86458L7.05587 9.86259L7.05076 9.86058L7.04565 9.8585L7.04053 9.85643L7.03542 9.85426L7.03046 9.8521L7.02534 9.84986L7.02039 9.84762L7.01527 9.84538L7.01032 9.84306L7.00537 9.84066L7.00041 9.83826L6.99546 9.83578L6.9905 9.8333L6.9857 9.83082L6.98075 9.82827L6.97595 9.82562L6.97116 9.82298L6.96637 9.82034L6.96157 9.81763L6.95678 9.81483L6.95198 9.8121L6.94718 9.80923L6.94255 9.80634L6.93791 9.80346L6.93312 9.8005L6.92848 9.79754L6.92401 9.79459L6.91937 9.79154L6.91474 9.78842L6.91026 9.7853L6.90578 9.78218L6.90115 9.77898L6.89683 9.77578L6.89236 9.7725L6.88788 9.76923L6.88357 9.76586L6.87909 9.7625L6.87478 9.75906L6.87046 9.75562L6.86614 9.75218L6.86199 9.74866L6.85767 9.74514L6.85352 9.74154L6.84936 9.73794L6.84521 9.73434L6.84105 9.73066L6.8369 9.7269L6.8329 9.72314L6.8289 9.71939L6.8249 9.71562L6.82091 9.7117L6.81691 9.70786L6.81308 9.70394L6.80924 9.70002L6.80541 9.69602L6.80157 9.69202L6.79774 9.68795L6.79406 9.68386L6.79022 9.67978L6.78654 9.67562L6.78286 9.67146L6.77935 9.66722L6.77567 9.66298L6.77216 9.65874L6.76864 9.65442L6.76513 9.6501L6.76177 9.64579L6.75825 9.64138L6.7549 9.6369L6.75154 9.6325L6.74834 9.62802L6.74498 9.62346L6.74179 9.6189L6.73859 9.61434L6.73539 9.6097L6.7338 9.60746L6.73236 9.60506L6.73076 9.60274L6.72916 9.60042L6.72772 9.5981L6.72612 9.59571L6.72469 9.59338L6.72309 9.59098L6.72165 9.58866L6.72021 9.58626L6.71877 9.58387L6.71734 9.58146L6.71574 9.57906L6.71446 9.57666L6.70646 9.56306L5.98622 8.31546L5.98478 8.31306L5.9835 8.31066L5.98222 8.30818L5.98078 8.30579L5.97951 8.3033L5.97823 8.3009L5.97551 8.29602L5.97295 8.29114L5.97056 8.28619L5.968 8.28122L5.9656 8.27626L5.96321 8.27122L5.96081 8.26626L5.95857 8.26122L5.95634 8.25618L5.9541 8.25114L5.95186 8.24602L5.94978 8.2409L5.9477 8.23578L5.94562 8.23066L5.9437 8.22554L5.94162 8.22034L5.93971 8.21522L5.93795 8.21002L5.93603 8.20482L5.93427 8.19954L5.93252 8.19434L5.93092 8.18906L5.92916 8.18378L5.92756 8.1785L5.92596 8.17322L5.92452 8.16794L5.92309 8.16259L5.92165 8.1573L5.92021 8.15195L5.91877 8.14658L5.91749 8.14122L5.91622 8.13586L5.9151 8.13042L5.91382 8.12506L5.9127 8.11962L5.91158 8.11426L5.91062 8.10882L5.9095 8.10338L5.90854 8.09795L5.90774 8.0925L5.90678 8.08706L5.90598 8.08154L5.90518 8.07611L5.90438 8.07066L5.90374 8.06514L5.9031 8.05962L5.90246 8.05418L5.90182 8.04866L5.90134 8.04314L5.9007 8.03762L5.90038 8.0321L5.89991 8.02658L5.89959 8.02106L5.89927 8.01554L5.89895 8.01002L5.89879 8.0045L5.89863 7.99897L5.89847 7.99344L5.89831 7.98791V7.98236L5.89815 7.97683L5.89831 7.97129V7.96574L5.89847 7.96021L5.89863 7.95467L5.89879 7.94912L5.89895 7.94358L5.89927 7.93806L5.89959 7.93251L5.89991 7.92698L5.90038 7.92145L5.90086 7.91592L5.90134 7.91038L5.90182 7.90487L5.90246 7.89936L5.9031 7.89384L5.90374 7.88833L5.90438 7.88282L5.90518 7.87731L5.90598 7.87182L5.90678 7.86634L5.90774 7.86085L5.9087 7.85537L5.90966 7.84991L5.91062 7.84444L5.91174 7.83898L5.9127 7.83354L5.91398 7.82809L5.9151 7.82265L5.91637 7.81723L5.91765 7.81182L5.91893 7.80641L5.92021 7.80101L5.92165 7.79562L5.92309 7.79025L5.92452 7.78488L5.92612 7.77953L5.92772 7.77418L5.92932 7.76885L5.93092 7.76355L5.93267 7.75823L5.93443 7.75293L5.93619 7.74766L5.93795 7.74238L5.93987 7.73714L5.94178 7.7319L5.9437 7.72666L5.94578 7.72146L5.94786 7.71625L5.94994 7.71106L5.95202 7.7059L5.9541 7.70076L5.95634 7.69562L5.95857 7.6905L5.96097 7.68539L5.96321 7.68031L5.9656 7.67525L5.968 7.67021L5.97056 7.66518L5.97311 7.66016L5.97567 7.65517L5.97823 7.6502L5.98078 7.64524L5.9835 7.6403L5.98622 7.6354L5.9915 7.62618L6.07046 7.48924L6.15646 7.34008L6.2621 7.1567L6.37911 6.95373L6.49899 6.74589L6.61328 6.54783L6.66554 6.45704L6.71334 6.37421L6.71622 6.36943L6.71909 6.36467L6.72197 6.35994L6.72485 6.35524L6.72788 6.35055L6.73092 6.34589L6.73396 6.34126L6.73699 6.33665L6.74003 6.33206L6.74322 6.32749L6.74642 6.32297L6.74962 6.31844L6.75298 6.31397L6.75618 6.30951L6.75953 6.30508L6.76289 6.30067L6.7664 6.2963L6.76976 6.29194L6.77328 6.28762L6.77679 6.28333L6.78031 6.27906L6.78382 6.27482L6.7875 6.2706L6.79102 6.26642L6.79486 6.26226L6.79854 6.25814L6.80221 6.25404L6.80605 6.24997L6.80972 6.24592L6.81356 6.24191L6.81755 6.23794L6.82139 6.23398L6.82522 6.23006L6.82922 6.22617L6.83322 6.22231L6.83722 6.21848L6.84137 6.21469L6.84537 6.21092L6.84952 6.20718L6.85352 6.20349L6.85783 6.19981L6.86199 6.19617L6.86614 6.19255L6.87046 6.18899L6.87462 6.18544L6.87893 6.18193L6.88325 6.17846L6.88756 6.175L6.89204 6.1716L6.89635 6.16822L6.90083 6.16489L6.9053 6.16158L6.90978 6.1583L6.91426 6.15506L6.91874 6.15186L6.92337 6.14868L6.928 6.14554L6.93248 6.14244L6.93711 6.13939L6.94175 6.13635L6.94654 6.13337L6.95118 6.13041L6.95598 6.1275L6.96061 6.12461L6.96541 6.12176L6.9702 6.11894L6.975 6.11618L6.97979 6.11345L6.98474 6.11074L6.98954 6.1081L6.9945 6.10547L6.99929 6.1029L7.00425 6.10036L7.0092 6.09785L7.01416 6.09538L7.01911 6.09296L7.02422 6.09058L7.02918 6.08822L7.0343 6.08593L7.03925 6.08366L7.04437 6.08143L7.04948 6.07924L7.0546 6.0771L7.05971 6.07499L7.06482 6.07293L7.0701 6.0709L7.07522 6.06892L7.08049 6.06698L7.08561 6.0651L7.09088 6.06324L7.09615 6.06142L7.10143 6.05965L7.1067 6.05792L7.11198 6.05624L7.11726 6.05459L7.12253 6.05302L7.1278 6.05145L7.13324 6.04994L7.13851 6.04847L7.14394 6.04705L7.14938 6.04568L7.15466 6.04435L7.16009 6.04306L7.16553 6.04182L7.17096 6.04062L7.17639 6.03947L7.18183 6.03837L7.18726 6.0373L7.19286 6.0363L7.1983 6.03532L7.20373 6.03441L7.20932 6.03353L7.21204 6.03311L7.21476 6.03271L7.21747 6.03231L7.22035 6.03193L7.22307 6.03156L7.22578 6.03119L7.22866 6.03084L7.23138 6.03051L7.2341 6.03019L7.23698 6.02987L7.23969 6.02958L7.24241 6.0293L7.24529 6.02901L7.248 6.02875L7.25072 6.0285L7.2536 6.02826L7.25631 6.02803L7.25919 6.02782L7.26191 6.02762L7.26478 6.02742L7.2675 6.02725L7.27038 6.02707L7.2731 6.02693L7.27598 6.02678L7.2787 6.02666L7.28157 6.02654L7.28429 6.02643L7.28717 6.02634L7.28988 6.02626L7.29276 6.02619L7.29548 6.02614L7.29835 6.0261L7.30203 6.02606L7.30586 6.026L7.31034 6.0259L8.66629 6.02624ZM16.3095 9.9101H9.78773L15.8293 -0.554325L16.3266 -0.584839L16.3095 9.9101ZM7.30954 6.21776L7.30458 6.21786L7.30075 6.21789L7.29883 6.21792L7.29691 6.21795L7.29484 6.218L7.29292 6.21806L7.291 6.21813L7.28908 6.21819L7.28717 6.21827L7.28525 6.21837L7.28317 6.21846L7.28125 6.21858L7.27934 6.21869L7.27742 6.21882L7.2755 6.21894L7.27342 6.21909L7.2715 6.21925L7.26958 6.21939L7.26766 6.21957L7.26574 6.21974L7.26382 6.21992L7.26175 6.22011L7.25983 6.22032L7.25791 6.22053L7.25599 6.22075L7.25408 6.22098L7.25216 6.22122L7.25008 6.22146L7.24816 6.22171L7.24625 6.22197L7.24433 6.22224L7.24241 6.2225L7.24049 6.22281L7.23874 6.22306L7.23458 6.2237L7.23074 6.22436L7.2269 6.22505L7.22307 6.22575L7.21923 6.2265L7.21524 6.22729L7.2114 6.2281L7.20756 6.22895L7.20373 6.22985L7.19989 6.23075L7.19606 6.2317L7.19222 6.23267L7.18838 6.2337L7.18454 6.23474L7.18087 6.23582L7.17703 6.23693L7.1732 6.23808L7.16936 6.23924L7.16553 6.24046L7.16185 6.24169L7.15802 6.24297L7.15434 6.24426L7.1505 6.24561L7.14666 6.24696L7.14299 6.24837L7.13931 6.24979L7.13547 6.25125L7.1318 6.25275L7.12812 6.25427L7.12445 6.25583L7.12077 6.2574L7.1171 6.25902L7.11342 6.26066L7.10974 6.26234L7.10606 6.26405L7.10239 6.26579L7.09871 6.26755L7.09519 6.26934L7.09152 6.27116L7.088 6.27302L7.08433 6.2749L7.08081 6.27682L7.0773 6.27875L7.07378 6.28072L7.0701 6.28272L7.06658 6.28475L7.06307 6.28679L7.05971 6.28889L7.05619 6.291L7.05268 6.29313L7.04932 6.2953L7.04581 6.29749L7.04245 6.29971L7.0391 6.30197L7.03574 6.30423L7.03238 6.30654L7.02902 6.30886L7.02566 6.31122L7.02231 6.31358L7.01911 6.31598L7.01575 6.31842L7.01256 6.32087L7.00936 6.32335L7.00617 6.32586L7.00297 6.32838L6.99977 6.33094L6.99658 6.33352L6.99338 6.33612L6.99034 6.33874L6.98714 6.3414L6.9841 6.34406L6.98107 6.34677L6.97803 6.3495L6.975 6.35223L6.97212 6.35498L6.96908 6.35778L6.96621 6.36058L6.96317 6.36341L6.96029 6.36626L6.95742 6.36913L6.9547 6.37204L6.95182 6.37494L6.94894 6.37787L6.94622 6.38083L6.9435 6.38382L6.94079 6.38679L6.93807 6.38982L6.93535 6.39283L6.93264 6.39589L6.93008 6.39897L6.92752 6.40207L6.92481 6.40518L6.92241 6.4083L6.91985 6.41144L6.9173 6.41458L6.9149 6.41777L6.91234 6.42097L6.90994 6.42419L6.90754 6.42742L6.9053 6.43066L6.9029 6.43393L6.90067 6.43721L6.89827 6.4405L6.89603 6.44381L6.8938 6.44713L6.89172 6.45047L6.88948 6.45382L6.8874 6.4572L6.88533 6.46058L6.88325 6.46396L6.88117 6.46738L6.87909 6.47078L6.83178 6.55291L6.77935 6.64367L6.66506 6.84171L6.54534 7.04954L6.42834 7.25247L6.32269 7.43586L6.2367 7.58502L6.15789 7.72166L6.15342 7.72956L6.15166 7.73273L6.14974 7.73624L6.14782 7.73976L6.14606 7.74332L6.14414 7.74689L6.14238 7.75046L6.14062 7.75406L6.13887 7.75766L6.13711 7.7613L6.13551 7.76495L6.13375 7.76861L6.13216 7.77227L6.13056 7.77596L6.12912 7.77969L6.12752 7.78338L6.12608 7.7871L6.12449 7.79086L6.12305 7.79462L6.12177 7.79838L6.12033 7.80216L6.11905 7.80594L6.11761 7.80977L6.11634 7.81358L6.11506 7.81742L6.11394 7.82126L6.11266 7.82511L6.11154 7.82896L6.11042 7.83286L6.1093 7.83675L6.10818 7.84065L6.10706 7.84455L6.1061 7.84845L6.10514 7.85238L6.10418 7.85633L6.10322 7.86026L6.10242 7.86419L6.10146 7.86816L6.10067 7.87214L6.09987 7.87612L6.09907 7.88008L6.09843 7.88406L6.09763 7.88806L6.09699 7.89206L6.09635 7.89608L6.09571 7.90008L6.09507 7.90409L6.09459 7.90812L6.09411 7.91213L6.09363 7.91618L6.09315 7.9202L6.09268 7.92423L6.09236 7.92829L6.09188 7.93234L6.09156 7.93636L6.09124 7.94041L6.09108 7.94446L6.09076 7.94851L6.0906 7.95257L6.09044 7.95662L6.09028 7.96067L6.09012 7.96472V7.97283L6.08996 7.97688L6.09012 7.98092V7.98902L6.09028 7.99307L6.09044 7.9971L6.0906 8.00114L6.09076 8.00523L6.09108 8.00922L6.09124 8.01322L6.09156 8.0173L6.09188 8.0213L6.0922 8.0253L6.09268 8.0293L6.09315 8.03331L6.09347 8.03738L6.09395 8.0413L6.09459 8.0453L6.09507 8.0493L6.09571 8.0533L6.09619 8.05722L6.09683 8.06122L6.09763 8.06514L6.09827 8.06906L6.09907 8.07306L6.09971 8.07698L6.10051 8.0809L6.1013 8.08474L6.10226 8.08866L6.10306 8.09258L6.10402 8.09642L6.10498 8.10034L6.10594 8.10419L6.1069 8.10802L6.10802 8.11187L6.10898 8.1157L6.1101 8.11946L6.11122 8.12331L6.1125 8.12706L6.11362 8.13082L6.1149 8.13458L6.11602 8.13834L6.11729 8.1421L6.11873 8.14579L6.12001 8.14946L6.12129 8.15314L6.12273 8.15683L6.12417 8.1605L6.1256 8.16418L6.12704 8.16778L6.12864 8.17138L6.13008 8.17498L6.13168 8.17858L6.13327 8.18219L6.13487 8.1857L6.13663 8.18922L6.13823 8.19274L6.13999 8.19627L6.14174 8.19971L6.1435 8.20314L6.14526 8.20666L6.14718 8.21027L6.14798 8.21178L6.14894 8.21346L6.1499 8.21514L6.15086 8.21682L6.15182 8.21859L6.15262 8.22002L6.87238 9.46682L6.87957 9.47914L6.88021 9.48034L6.88133 9.48202L6.88229 9.4837L6.88341 9.48538L6.88437 9.48706L6.88549 9.48874L6.88645 9.49042L6.88756 9.4921L6.88868 9.49378L6.8898 9.49546L6.89076 9.49706L6.89188 9.49866L6.893 9.50034L6.89396 9.50186L6.89635 9.50523L6.89859 9.5085L6.90083 9.5117L6.90322 9.5149L6.90546 9.51802L6.90786 9.52122L6.91026 9.52434L6.91266 9.52746L6.91522 9.53059L6.91762 9.53362L6.92017 9.53675L6.92273 9.5397L6.92529 9.54274L6.92784 9.5457L6.9304 9.54874L6.93296 9.55162L6.93567 9.55458L6.93839 9.55754L6.94111 9.56042L6.94382 9.56322L6.94654 9.5661L6.94926 9.5689L6.95214 9.5717L6.95486 9.5745L6.95774 9.5773L6.96061 9.58002L6.96349 9.58274L6.96653 9.58538L6.9694 9.5881L6.97244 9.59074L6.97531 9.59338L6.97835 9.59594L6.98139 9.59851L6.98442 9.60106L6.98746 9.60363L6.99066 9.6061L6.9937 9.60858L6.9969 9.61106L6.99993 9.61346L7.00313 9.61594L7.00633 9.61827L7.00968 9.62066L7.01288 9.62298L7.01607 9.6253L7.01943 9.62762L7.02263 9.62986L7.02598 9.6321L7.02934 9.63426L7.0327 9.6365L7.03606 9.63866L7.03941 9.64075L7.04277 9.64291L7.04629 9.64498L7.04964 9.64698L7.05316 9.64907L7.05667 9.65106L7.06019 9.65306L7.06354 9.65498L7.06706 9.65691L7.07074 9.65874L7.07426 9.66066L7.07778 9.66251L7.08129 9.66426L7.08497 9.6661L7.08864 9.66786L7.09216 9.66954L7.09583 9.6713L7.09951 9.6729L7.10319 9.67458L7.10686 9.67618L7.11054 9.67778L7.11422 9.67931L7.1179 9.6809L7.12157 9.68234L7.12541 9.68386L7.12908 9.6853L7.13292 9.68666L7.13659 9.68802L7.14043 9.68938L7.14426 9.69075L7.14794 9.69202L7.15178 9.69331L7.15562 9.6945L7.15945 9.6957L7.16329 9.69691L7.16713 9.69802L7.17096 9.69915L7.1748 9.70026L7.17863 9.7013L7.18263 9.70234L7.18646 9.7033L7.1903 9.70426L7.1943 9.70514L7.19814 9.7061L7.20197 9.7069L7.20597 9.70778L7.2098 9.70858L7.2138 9.70938L7.21763 9.7101L7.22163 9.71082L7.22546 9.71146L7.22946 9.7121L7.23346 9.71274L7.2373 9.7133L7.24129 9.71386L7.24529 9.71442L7.24912 9.7149L7.25312 9.7153L7.25711 9.71579L7.26111 9.7161L7.26494 9.71651L7.26894 9.71682L7.27294 9.71714L7.27694 9.71738L7.28077 9.71762L7.28477 9.71778L7.28876 9.71794L7.29276 9.7181L7.29675 9.71818L7.30059 9.71826H7.30474L7.3447 9.71834L7.45516 9.71842L7.53156 9.7185H7.61915L7.71634 9.71859H7.82087H7.93068H8.04389L8.15829 9.7185L8.27213 9.71834H8.32805L8.38301 9.71826L8.43693 9.7181L8.48933 9.71802L8.53997 9.71786L8.58877 9.71778L8.63525 9.71762L8.67813 9.71746L8.68181 9.71738L8.68581 9.7173L8.68973 9.71714L8.69373 9.71698L8.69773 9.71674L8.70157 9.71659L8.70557 9.71626L8.70957 9.71595L8.71357 9.71562L8.71757 9.7153L8.72141 9.7149L8.72541 9.71442L8.72941 9.71394L8.73341 9.71346L8.73725 9.7129L8.74125 9.71234L8.74525 9.71178L8.74909 9.71114L8.75309 9.7105L8.75693 9.70978L8.76093 9.70906L8.76477 9.70826L8.76869 9.70747L8.77253 9.70666L8.77637 9.70586L8.78037 9.7049L8.78421 9.70402L8.78805 9.70306L8.79189 9.7021L8.79589 9.70106L8.79973 9.70002L8.80357 9.69899L8.80741 9.69786L8.81125 9.69674L8.81509 9.69554L8.81877 9.69434L8.82261 9.69314L8.82645 9.69186L8.83013 9.69059L8.83397 9.68922L8.83765 9.68787L8.84149 9.6865L8.84517 9.68514L8.84893 9.6837L8.85261 9.68219L8.85629 9.68074L8.85997 9.67922L8.86365 9.67762L8.86733 9.67602L8.87101 9.67443L8.87469 9.67274L8.87837 9.67114L8.88189 9.66938L8.88557 9.6677L8.88909 9.66595L8.89277 9.6641L8.89629 9.66234L8.89981 9.66042L8.90349 9.65858L8.90701 9.65666L8.91053 9.65475L8.91389 9.65282L8.91741 9.65082L8.92093 9.64882L8.92429 9.64682L8.92773 9.64474L8.93109 9.64266L8.93461 9.6405L8.93797 9.63842L8.94133 9.63626L8.94469 9.63402L8.94789 9.63178L8.95125 9.62954L8.95461 9.6273L8.95781 9.62498L8.96101 9.62266L8.96437 9.62035L8.96757 9.61794L8.97077 9.61554L8.97397 9.61314L8.97701 9.61066L8.98021 9.60826L8.98341 9.60578L8.98645 9.60322L8.98949 9.60067L8.99253 9.5981L8.99557 9.59554L8.99861 9.59291L9.00165 9.59034L9.00469 9.58762L9.00749 9.58498L9.01037 9.58226L9.01325 9.57954L9.01613 9.57682L9.01901 9.57402L9.02189 9.5713L9.02477 9.5685L9.02749 9.56562L9.03021 9.56282L9.03293 9.55994L9.03565 9.55706L9.03837 9.5541L9.04109 9.55122L9.04365 9.54826L9.04637 9.54523L9.04893 9.54226L9.05149 9.5393L9.05405 9.53626L9.05661 9.53314L9.05901 9.5301L9.06141 9.52706L9.06397 9.52394L9.06637 9.52082L9.06877 9.51762L9.07101 9.5145L9.07341 9.5113L9.07565 9.50811L9.07789 9.5049L9.08029 9.5017L9.08237 9.49842L9.08461 9.49514L9.08685 9.49187L9.08885 9.48858L9.09093 9.48522L9.09301 9.48194L9.09509 9.47858L9.09717 9.47522L9.09909 9.47178L9.14437 9.39362L9.18989 9.31474L9.23549 9.23594L9.28117 9.15714L9.37245 8.99963L9.41797 8.92083L9.46357 8.8421L9.50909 8.76338L9.55469 8.68466L9.60005 8.60586L9.62277 8.56658L9.64549 8.52714L9.66813 8.48778L9.69085 8.44842L9.71357 8.40898L9.73605 8.36962L9.75877 8.33026L9.78133 8.29082L9.80389 8.25138L9.82589 8.21307L9.82765 8.20994L9.82957 8.20642L9.83133 8.2029L9.83325 8.19938L9.83501 8.19586L9.83677 8.19226L9.83853 8.18874L9.84029 8.18514L9.84205 8.18154L9.84365 8.17794L9.84525 8.17435L9.84685 8.17074L9.84845 8.16714L9.84989 8.16346L9.85149 8.15979L9.85293 8.1561L9.85437 8.15242L9.85581 8.14874L9.85709 8.14506L9.85853 8.1413L9.85981 8.13762L9.86109 8.13386L9.86237 8.13018L9.86349 8.12642L9.86477 8.12266L9.86589 8.1189L9.86701 8.11506L9.86813 8.1113L9.86925 8.10754L9.87021 8.1037L9.87117 8.09986L9.87213 8.0961L9.87309 8.09227L9.87405 8.08842L9.87501 8.08458L9.87581 8.08074L9.87661 8.07682L9.87741 8.07298L9.87821 8.06914L9.87885 8.0653L9.87949 8.06139L9.88013 8.05746L9.88077 8.05363L9.88141 8.0497L9.88205 8.04578L9.88253 8.04187L9.88301 8.03794L9.88349 8.03402L9.88397 8.0301L9.88445 8.02618L9.88477 8.02226L9.88509 8.01834L9.88541 8.01442L9.88573 8.01042L9.88605 8.00658L9.88621 8.00258L9.88637 7.99863L9.88653 7.99469L9.88669 7.99074L9.88685 7.98679V7.96703L9.88669 7.96307V7.95912L9.88653 7.95516L9.88637 7.95121L9.88605 7.94728L9.88589 7.94331L9.88557 7.93937L9.88525 7.93543L9.88493 7.93149L9.88461 7.92754L9.88413 7.92361L9.88381 7.91966L9.88333 7.91574L9.88285 7.91182L9.88237 7.9079L9.88173 7.90396L9.88109 7.90006L9.88061 7.89614L9.87997 7.89223L9.87917 7.88833L9.87853 7.88445L9.87773 7.88056L9.87693 7.87668L9.87629 7.87281L9.87533 7.86893L9.87453 7.86504L9.87357 7.86119L9.87277 7.85735L9.87181 7.8535L9.87085 7.84966L9.86973 7.84584L9.86877 7.84202L9.86765 7.83822L9.86653 7.83442L9.86541 7.83061L9.86429 7.82684L9.86317 7.82305L9.86189 7.81928L9.86061 7.81554L9.85933 7.8118L9.85805 7.80806L9.85661 7.80434L9.85533 7.80061L9.85389 7.79692L9.85245 7.79322L9.85101 7.78955L9.84957 7.78589L9.84797 7.78221L9.84653 7.77857L9.84493 7.77492L9.84333 7.77133L9.84173 7.76771L9.83997 7.76412L9.83837 7.76054L9.83661 7.75696L9.83485 7.75342L9.83309 7.74989L9.83117 7.74636L9.82941 7.74284L9.82749 7.73934L9.82557 7.73584L9.82365 7.73239L9.82173 7.72895L9.81613 7.71931L9.09781 6.47507L9.09493 6.47015L9.09301 6.46702L9.09093 6.46353L9.08885 6.46006L9.08669 6.45662L9.08445 6.45318L9.08221 6.44977L9.07997 6.44637L9.07757 6.44299L9.07533 6.43962L9.07293 6.43628L9.07053 6.43294L9.06813 6.42962L9.06573 6.42634L9.06333 6.42304L9.06077 6.41977L9.05837 6.41655L9.05581 6.41333L9.05325 6.41011L9.05069 6.40693L9.04797 6.40377L9.04541 6.40062L9.04269 6.39749L9.03997 6.39438L9.03725 6.39131L9.03453 6.38825L9.03181 6.38519L9.02893 6.38217L9.02621 6.37918L9.02333 6.37619L9.02045 6.37324L9.01757 6.3703L9.01469 6.36738L9.01181 6.3645L9.00877 6.36162L9.00597 6.35877L9.00293 6.35594L8.99989 6.35314L8.99685 6.35038L8.99381 6.34762L8.99077 6.34488L8.98773 6.34218L8.98453 6.33951L8.98149 6.33686L8.97829 6.33422L8.97509 6.33162L8.97189 6.32902L8.96869 6.32647L8.96549 6.32394L8.96229 6.32143L8.95893 6.31895L8.95573 6.31651L8.95237 6.31408L8.94901 6.31166L8.94581 6.3093L8.94245 6.30695L8.93909 6.30463L8.93573 6.30234L8.93237 6.30008L8.92885 6.29784L8.92557 6.29563L8.92205 6.29346L8.91869 6.2913L8.91517 6.28918L8.91165 6.28708L8.90829 6.28502L8.90477 6.28299L8.90125 6.28096L8.89757 6.27898L8.89405 6.27705L8.89053 6.27511L8.88701 6.27322L8.88349 6.27137L8.87981 6.26954L8.87629 6.26773L8.87261 6.26595L8.86893 6.26422L8.86541 6.2625L8.86173 6.26082L8.85805 6.25918L8.85437 6.25756L8.85085 6.25598L8.84725 6.25441L8.84357 6.2529L8.83989 6.25141L8.83605 6.24994L8.83237 6.2485L8.82869 6.2471L8.82501 6.24574L8.82133 6.24441L8.81749 6.2431L8.81381 6.24183L8.80997 6.24058L8.80629 6.23938L8.80261 6.23822L8.79877 6.23707L8.79509 6.23595L8.79125 6.23488L8.78757 6.23384L8.78373 6.23283L8.77989 6.23184L8.77621 6.2309L8.77237 6.22999L8.76853 6.22911L8.76493 6.22826L8.76109 6.22745L8.75725 6.22668L8.75357 6.22593L8.74973 6.22521L8.74589 6.22454L8.74205 6.22388L8.73821 6.22327L8.73421 6.22267L8.73261 6.22241L8.73069 6.22216L8.72877 6.22189L8.72685 6.22165L8.72493 6.22141L8.72301 6.22117L8.72109 6.22093L8.71933 6.22072L8.71741 6.22051L8.71549 6.2203L8.71357 6.22011L8.71165 6.21994L8.70973 6.21976L8.70781 6.21958L8.70589 6.21942L8.70397 6.21928L8.70221 6.21914L8.70029 6.21901L8.69837 6.21888L8.69645 6.21877L8.69453 6.21866L8.69261 6.21856L8.69069 6.21848L8.68877 6.21838L8.68693 6.21832L8.68517 6.21826L8.68325 6.21819L8.68133 6.21814L8.67941 6.21811L8.67749 6.21808L8.67557 6.21806L8.67381 6.21805H8.66629L7.31242 6.21771L7.30954 6.21776ZM15.944 -0.369183L10.12 9.71826H16.118L16.1345 -0.380867L15.944 -0.369183ZM10.545 7.35254L6.62894 0.569686L7.25312 -0.511264L15.1052 -0.545902L10.545 7.35254ZM7.36405 -0.319952L6.85048 0.569686L10.545 6.96893L14.7722 -0.352624L7.36405 -0.319952ZM8.70685 5.41458H3.83173L6.2693 1.1926L8.70685 5.41458ZM4.16404 5.22278H8.37469L6.2693 1.57622L4.16404 5.22278Z" fill="url(#paint1_linear_1406_3526)"/>
</g>
</g>
<defs>
<radialGradient id="paint0_radial_1406_3526" cx="0" cy="0" r="1" gradientUnits="userSpaceOnUse" gradientTransform="translate(12.2128 -2.98806) scale(18.9881 18.9878)">
<stop stop-color="#F9A6FF"/>
<stop offset="1" stop-color="#EA73FF"/>
</radialGradient>
<linearGradient id="paint1_linear_1406_3526" x1="3.31825" y1="0.0159997" x2="3.31825" y2="16" gradientUnits="userSpaceOnUse">
<stop stop-color="#F7B3FF"/>
<stop offset="1" stop-color="#EE8AFF"/>
</linearGradient>
<clipPath id="clip0_1406_3526">
<rect width="16" height="16" fill="white"/>
</clipPath>
</defs>
</svg>
