<svg width="16" height="16" viewBox="0 0 16 16" fill="none" xmlns="http://www.w3.org/2000/svg">
<g clip-path="url(#clip0_348_3936)">
<path d="M13.7729 12.9173C7.29661 15.9997 3.27736 13.4208 0.704516 11.8544C0.545309 11.7557 0.274713 11.8775 0.509492 12.1471C1.36664 13.1865 4.17568 15.6918 7.84229 15.6918C11.5114 15.6918 13.6942 13.6895 13.9673 13.3403C14.2385 12.994 14.0469 12.8029 13.7728 12.9173H13.7729ZM15.5917 11.9128C15.4178 11.6863 14.5342 11.6441 13.9781 11.7124C13.4212 11.7787 12.5852 12.1191 12.6579 12.3235C12.6952 12.4001 12.7713 12.3658 13.1539 12.3314C13.5375 12.2931 14.6123 12.1574 14.8363 12.4502C15.0612 12.745 14.4935 14.1494 14.3898 14.3758C14.2896 14.6023 14.428 14.6607 14.6162 14.5099C14.8018 14.3591 15.1379 13.9686 15.3633 13.416C15.5873 12.8603 15.7239 12.0852 15.5917 11.9128H15.5917Z" fill="#FF9900"/>
<path fill-rule="evenodd" clip-rule="evenodd" d="M9.41916 6.62789C9.41916 7.43666 9.43959 8.11113 9.03081 8.82936C8.70086 9.41336 8.17821 9.77247 7.59427 9.77247C6.79713 9.77247 6.33289 9.16515 6.33289 8.26881C6.33289 6.49939 7.9183 6.17825 9.41916 6.17825V6.62789ZM11.5126 11.6879C11.3754 11.8105 11.1768 11.8193 11.0221 11.7375C10.3331 11.1652 10.2104 10.8995 9.83084 10.3535C8.69212 11.5156 7.88624 11.863 6.40883 11.863C4.66278 11.863 3.30212 10.7856 3.30212 8.62792C3.30212 6.94325 4.21608 5.79575 5.51531 5.23519C6.6424 4.73877 8.21619 4.6512 9.41916 4.51401V4.24537C9.41916 3.7519 9.45707 3.16796 9.16805 2.7417C8.91399 2.3592 8.42932 2.20152 8.00299 2.20152C7.21176 2.20152 6.50515 2.60735 6.33289 3.44824C6.2978 3.63515 6.16062 3.81911 5.97377 3.82785L3.95906 3.61182C3.78975 3.57379 3.6029 3.43661 3.64961 3.1767C4.11385 0.735831 6.31824 0 8.29201 0C9.30228 0 10.622 0.268644 11.4192 1.03365C12.4294 1.9767 12.333 3.23511 12.333 4.60448V7.83959C12.333 8.81188 12.736 9.23814 13.1155 9.76373C13.2498 9.95058 13.2791 10.1755 13.1097 10.3155C12.6863 10.6688 11.933 11.3258 11.5184 11.6937L11.5126 11.6879" fill="black"/>
</g>
<defs>
<clipPath id="clip0_348_3936">
<rect width="16" height="16" fill="white"/>
</clipPath>
</defs>
</svg>
