<svg width="16" height="16" viewBox="0 0 16 16" fill="none" xmlns="http://www.w3.org/2000/svg">
<g clip-path="url(#clip0_1406_3523)">
<path d="M13.7728 12.9175C7.29649 15.9999 3.27724 13.4209 0.704393 11.8545C0.545187 11.7558 0.274591 11.8775 0.50937 12.1473C1.36651 13.1867 4.17556 15.6919 7.84217 15.6919C11.5113 15.6919 13.6941 13.6897 13.9672 13.3404C14.2384 12.9941 14.0469 12.8031 13.7728 12.9175ZM15.5916 11.9129C15.4177 11.6864 14.5341 11.6442 13.978 11.7125C13.421 11.7788 12.5851 12.1193 12.6577 12.3236C12.695 12.4002 12.7712 12.3659 13.1537 12.3315C13.5374 12.2932 14.6121 12.1575 14.8361 12.4503C15.0611 12.7451 14.4933 14.1495 14.3897 14.3759C14.2894 14.6024 14.4279 14.6608 14.6161 14.51C14.8017 14.3592 15.1377 13.9687 15.3633 13.4161C15.5872 12.8604 15.7237 12.0854 15.5916 11.9129Z" fill="#FF00FF"/>
<path fill-rule="evenodd" clip-rule="evenodd" d="M9.41929 6.6279C9.41929 7.43666 9.43969 8.11112 9.03089 8.82936C8.70097 9.41336 8.17833 9.77248 7.59438 9.77248C6.79725 9.77248 6.33301 9.16512 6.33301 8.2688C6.33301 6.49939 7.91842 6.17825 9.41929 6.17825V6.6279ZM11.5127 11.6878C11.3755 11.8105 11.177 11.8193 11.0223 11.7374C10.3331 11.1652 10.2105 10.8995 9.83097 10.3535C8.69225 11.5156 7.88636 11.863 6.40895 11.863C4.66289 11.863 3.30225 10.7856 3.30225 8.62792C3.30225 6.94325 4.2162 5.79574 5.51543 5.23519C6.64252 4.73878 8.21633 4.65119 9.41929 4.51401V4.24537C9.41929 3.7519 9.45721 3.16796 9.16817 2.7417C8.91409 2.3592 8.42945 2.20152 8.00313 2.20152C7.21188 2.20152 6.50527 2.60735 6.33301 3.44824C6.29793 3.63515 6.16073 3.8191 5.97389 3.82785L3.95918 3.61182C3.78987 3.57379 3.60301 3.43661 3.64973 3.1767C4.11397 0.735831 6.31836 0 8.29209 0C9.30241 0 10.6221 0.268643 11.4193 1.03365C12.4295 1.9767 12.3331 3.23511 12.3331 4.60448V7.83959C12.3331 8.81184 12.7361 9.23816 13.1157 9.76376C13.2499 9.95056 13.2792 10.1754 13.1098 10.3155C12.6864 10.6688 11.9331 11.3258 11.5186 11.6937L11.5127 11.6878Z" fill="#FF00FF"/>
</g>
<defs>
<clipPath id="clip0_1406_3523">
<rect width="16" height="16" fill="white"/>
</clipPath>
</defs>
</svg>
