<svg width="16" height="16" viewBox="0 0 16 16" fill="none" xmlns="http://www.w3.org/2000/svg">
<g clip-path="url(#clip0_1_56)">
<path d="M13.7729 12.9175C7.29661 15.9999 3.27736 13.4209 0.704515 11.8545C0.545309 11.7558 0.274713 11.8775 0.509492 12.1473C1.36663 13.1867 4.17568 15.6919 7.8423 15.6919C11.5115 15.6919 13.6943 13.6897 13.9673 13.3404C14.2385 12.9941 14.047 12.8031 13.7729 12.9175ZM15.5917 11.9129C15.4178 11.6864 14.5342 11.6442 13.9781 11.7125C13.4211 11.7788 12.5852 12.1193 12.6579 12.3236C12.6951 12.4002 12.7713 12.3659 13.1539 12.3315C13.5375 12.2932 14.6123 12.1575 14.8363 12.4503C15.0612 12.7451 14.4935 14.1495 14.3898 14.3759C14.2895 14.6024 14.428 14.6608 14.6163 14.51C14.8019 14.3592 15.1379 13.9687 15.3634 13.4161C15.5873 12.8604 15.7239 12.0854 15.5917 11.9129Z" fill="#FF9900"/>
<path fill-rule="evenodd" clip-rule="evenodd" d="M9.41917 6.6279C9.41917 7.43666 9.43957 8.11112 9.03077 8.82936C8.70085 9.41336 8.17821 9.77248 7.59426 9.77248C6.79712 9.77248 6.33288 9.16512 6.33288 8.2688C6.33288 6.49939 7.9183 6.17825 9.41917 6.17825V6.6279ZM11.5126 11.6878C11.3754 11.8105 11.1769 11.8193 11.0221 11.7374C10.333 11.1652 10.2104 10.8995 9.83085 10.3535C8.69213 11.5156 7.88624 11.863 6.40883 11.863C4.66277 11.863 3.30212 10.7856 3.30212 8.62792C3.30212 6.94325 4.21608 5.79574 5.51531 5.23519C6.6424 4.73878 8.21621 4.65119 9.41917 4.51401V4.24537C9.41917 3.7519 9.45709 3.16796 9.16805 2.7417C8.91397 2.3592 8.42933 2.20152 8.00301 2.20152C7.21176 2.20152 6.50515 2.60735 6.33288 3.44824C6.2978 3.63515 6.16061 3.8191 5.97376 3.82785L3.95906 3.61182C3.78975 3.57379 3.60289 3.43661 3.6496 3.1767C4.11384 0.735831 6.31824 0 8.29197 0C9.30229 0 10.622 0.268643 11.4192 1.03365C12.4294 1.9767 12.333 3.23511 12.333 4.60448V7.83959C12.333 8.81184 12.736 9.23816 13.1156 9.76376C13.2498 9.95056 13.2791 10.1754 13.1097 10.3155C12.6863 10.6688 11.933 11.3258 11.5185 11.6937L11.5126 11.6878Z" fill="black"/>
</g>
<defs>
<clipPath id="clip0_1_56">
<rect width="16" height="16" fill="white"/>
</clipPath>
</defs>
</svg>
