<svg width="16" height="16" viewBox="0 0 16 16" fill="none" xmlns="http://www.w3.org/2000/svg">
<g clip-path="url(#clip0_348_3949)">
<path d="M13.7729 12.9174C7.29658 15.9998 3.27733 13.4209 0.704485 11.8545C0.545278 11.7558 0.274682 11.8776 0.509461 12.1472C1.36661 13.1866 4.17565 15.6919 7.84226 15.6919C11.5114 15.6919 13.6942 13.6896 13.9673 13.3404C14.2385 12.9941 14.047 12.803 13.7729 12.9174ZM15.5917 11.9129C15.4178 11.6864 14.5342 11.6442 13.9781 11.7125C13.4211 11.7788 12.5852 12.1192 12.6579 12.3236C12.6951 12.4002 12.7713 12.3659 13.1539 12.3315C13.5375 12.2932 14.6123 12.1575 14.8362 12.4503C15.0612 12.7451 14.4934 14.1495 14.3897 14.3759C14.2895 14.6024 14.428 14.6608 14.6162 14.51C14.8018 14.3592 15.1378 13.9687 15.3633 13.4161C15.5873 12.8604 15.7239 12.0853 15.5917 11.9129Z" fill="#FF00FF"/>
<path fill-rule="evenodd" clip-rule="evenodd" d="M9.41916 6.62789C9.41916 7.43666 9.43959 8.11113 9.0308 8.82936C8.70086 9.41336 8.17821 9.77247 7.59426 9.77247C6.79712 9.77247 6.33288 9.16515 6.33288 8.26881C6.33288 6.49939 7.9183 6.17825 9.41916 6.17825V6.62789ZM11.5126 11.6879C11.3754 11.8105 11.1768 11.8193 11.0221 11.7375C10.333 11.1652 10.2104 10.8995 9.83084 10.3535C8.69212 11.5156 7.88624 11.863 6.40883 11.863C4.66277 11.863 3.30212 10.7856 3.30212 8.62792C3.30212 6.94325 4.21608 5.79575 5.51531 5.23519C6.6424 4.73877 8.21618 4.6512 9.41916 4.51401V4.24537C9.41916 3.7519 9.45707 3.16796 9.16805 2.7417C8.91399 2.3592 8.42932 2.20152 8.00299 2.20152C7.21176 2.20152 6.50515 2.60735 6.33288 3.44824C6.2978 3.63515 6.16061 3.81911 5.97376 3.82785L3.95906 3.61182C3.78975 3.57379 3.60289 3.43661 3.64961 3.1767C4.11385 0.735831 6.31823 0 8.29201 0C9.30228 0 10.622 0.268643 11.4191 1.03365C12.4294 1.9767 12.333 3.23511 12.333 4.60448V7.83959C12.333 8.81188 12.736 9.23814 13.1155 9.76373C13.2498 9.95058 13.2791 10.1755 13.1097 10.3155C12.6863 10.6688 11.933 11.3258 11.5184 11.6937L11.5126 11.6879Z" fill="#FF00FF"/>
</g>
<defs>
<clipPath id="clip0_348_3949">
<rect width="16" height="16" fill="white"/>
</clipPath>
</defs>
</svg>
