<svg width="16" height="16" viewBox="0 0 16 16" fill="none" xmlns="http://www.w3.org/2000/svg">
<path d="M11.6883 9.13554C11.556 9.13554 11.4267 9.09626 11.3168 9.02282C11.2068 8.9493 11.1211 8.8449 11.0705 8.72274C11.0198 8.6005 11.0066 8.4661 11.0325 8.33634C11.0582 8.20666 11.1219 8.08746 11.2154 7.99397C11.309 7.90045 11.4281 7.83676 11.5578 7.81096C11.6875 7.78516 11.822 7.7984 11.9442 7.84902C12.0664 7.89962 12.1708 7.98534 12.2443 8.0953C12.3178 8.2053 12.357 8.33458 12.357 8.46682C12.357 8.64418 12.2866 8.81426 12.1611 8.93962C12.0358 9.06506 11.8657 9.13554 11.6883 9.13554ZM4.32564 9.13554C4.19338 9.13554 4.0641 9.09626 3.95413 9.02282C3.84416 8.9493 3.75846 8.8449 3.70784 8.72274C3.65723 8.6005 3.64399 8.4661 3.66979 8.33634C3.69559 8.20666 3.75928 8.08746 3.8528 7.99397C3.94632 7.90045 4.06547 7.83676 4.19518 7.81096C4.3249 7.78516 4.45935 7.7984 4.58154 7.84902C4.70373 7.89962 4.80817 7.98534 4.88165 8.0953C4.95512 8.2053 4.99434 8.33458 4.99434 8.46682C4.99434 8.64418 4.92389 8.81426 4.79848 8.93962C4.67307 9.06506 4.50299 9.13554 4.32564 9.13554ZM11.9251 5.12332L13.2625 2.8177C13.2806 2.78614 13.2922 2.75131 13.2967 2.71523C13.3013 2.67915 13.2986 2.64253 13.289 2.60747C13.2794 2.57241 13.2629 2.5396 13.2406 2.51093C13.2182 2.48226 13.1903 2.45829 13.1587 2.44039C13.127 2.4225 13.0922 2.41104 13.0561 2.40666C13.0199 2.40229 12.9834 2.4051 12.9483 2.41491C12.9134 2.42473 12.8806 2.44137 12.852 2.46387C12.8234 2.48638 12.7996 2.5143 12.7819 2.54604L11.4306 4.87952C10.3573 4.38907 9.19048 4.13717 8.01048 4.14117C6.82906 4.13827 5.66066 4.38763 4.58337 4.87256L3.23204 2.53908C3.19582 2.47572 3.13599 2.42928 3.06562 2.40992C2.99526 2.39055 2.92009 2.39985 2.85655 2.43575C2.79302 2.47166 2.7463 2.53127 2.72659 2.60154C2.70689 2.67182 2.71582 2.74703 2.75142 2.81074L4.08185 5.11635C2.9315 5.74374 1.9558 6.64811 1.24307 7.74762C0.53034 8.84714 0.103091 10.107 0 11.4133H16C15.9001 10.1079 15.4748 8.84842 14.763 7.74973C14.0512 6.65101 13.0756 5.74806 11.9251 5.12332Z" fill="#3DDC84"/>
</svg>
