<svg width="16" height="16" viewBox="0 0 16 16" fill="none" xmlns="http://www.w3.org/2000/svg">
<path d="M11.6883 9.13539C11.556 9.13539 11.4267 9.09617 11.3168 9.02269C11.2068 8.94921 11.1211 8.84478 11.0705 8.72259C11.0199 8.6004 11.0066 8.46595 11.0324 8.33623C11.0582 8.20652 11.1219 8.08737 11.2155 7.99385C11.309 7.90033 11.4281 7.83664 11.5578 7.81084C11.6875 7.78504 11.822 7.79828 11.9442 7.84889C12.0664 7.89951 12.1708 7.98521 12.2443 8.09518C12.3178 8.20515 12.357 8.33443 12.357 8.46669C12.357 8.64404 12.2865 8.81413 12.1611 8.93953C12.0357 9.06494 11.8656 9.13539 11.6883 9.13539ZM4.32564 9.13539C4.19339 9.13539 4.0641 9.09617 3.95413 9.02269C3.84416 8.94921 3.75846 8.84478 3.70784 8.72259C3.65723 8.6004 3.64399 8.46595 3.66979 8.33623C3.69559 8.20652 3.75928 8.08737 3.8528 7.99385C3.94632 7.90033 4.06547 7.83664 4.19519 7.81084C4.3249 7.78504 4.45935 7.79828 4.58154 7.84889C4.70373 7.89951 4.80817 7.98521 4.88164 8.09518C4.95512 8.20515 4.99434 8.33443 4.99434 8.46669C4.99434 8.64404 4.92389 8.81413 4.79848 8.93953C4.67308 9.06494 4.50299 9.13539 4.32564 9.13539ZM11.9251 5.1232L13.2625 2.81758C13.2806 2.78601 13.2922 2.75119 13.2967 2.71511C13.3013 2.67903 13.2987 2.64241 13.289 2.60735C13.2794 2.57229 13.2629 2.53948 13.2405 2.51081C13.2182 2.48213 13.1903 2.45816 13.1587 2.44027C13.127 2.42238 13.0922 2.41091 13.0561 2.40654C13.02 2.40217 12.9834 2.40497 12.9483 2.41479C12.9133 2.42461 12.8806 2.44125 12.852 2.46375C12.8235 2.48625 12.7996 2.51418 12.7819 2.54592L11.4306 4.8794C10.3573 4.38895 9.19046 4.13705 8.01045 4.14105C6.82906 4.13815 5.66066 4.38751 4.58337 4.87244L3.23204 2.53896C3.19582 2.4756 3.13599 2.42916 3.06562 2.4098C2.99526 2.39043 2.92009 2.39972 2.85655 2.43563C2.79302 2.47154 2.74629 2.53115 2.72659 2.60142C2.70689 2.67169 2.71581 2.74691 2.75142 2.81061L4.08185 5.11623C2.9315 5.74361 1.9558 6.64799 1.24307 7.7475C0.53034 8.847 0.103091 10.1069 0 11.4131H16C15.9001 10.1078 15.4748 8.84833 14.763 7.74961C14.0512 6.65089 13.0756 5.74794 11.9251 5.1232Z" fill="#FF00FF"/>
</svg>
