<svg width="16" height="16" viewBox="0 0 16 16" fill="none" xmlns="http://www.w3.org/2000/svg">
<path d="M13.8751 11.2225C13.6574 11.7256 13.3996 12.1886 13.101 12.6144C12.6938 13.1949 12.3605 13.5966 12.1036 13.8197C11.7054 14.1859 11.2788 14.3735 10.8219 14.3841C10.4939 14.3841 10.0984 14.2908 9.63792 14.1015C9.176 13.913 8.75152 13.8197 8.36336 13.8197C7.95623 13.8197 7.51962 13.913 7.05262 14.1015C6.5849 14.2908 6.20811 14.3895 5.92003 14.3993C5.48192 14.4179 5.04522 14.225 4.60933 13.8197C4.33111 13.577 3.98313 13.1611 3.56626 12.5717C3.11898 11.9425 2.75126 11.2127 2.46318 10.3807C2.15466 9.48206 2 8.6119 2 7.76941C2 6.80437 2.20853 5.97205 2.6262 5.27455C2.95446 4.7143 3.39115 4.27236 3.9377 3.94793C4.48426 3.62349 5.07482 3.45817 5.7108 3.44759C6.05878 3.44759 6.51513 3.55523 7.08222 3.76677C7.6477 3.97904 8.0108 4.08668 8.17 4.08668C8.28904 4.08668 8.6924 3.96081 9.37616 3.70989C10.0228 3.47718 10.5686 3.38083 11.0157 3.41879C12.2272 3.51656 13.1374 3.99415 13.7427 4.85457C12.6592 5.51108 12.1232 6.4306 12.1338 7.61021C12.1436 8.52902 12.477 9.29366 13.1321 9.9007C13.4289 10.1825 13.7605 10.4003 14.1294 10.5549C14.0494 10.7869 13.9649 11.0091 13.8751 11.2225ZM11.0966 0.288571C11.0966 1.00873 10.8334 1.68115 10.309 2.30353C9.67616 3.04342 8.91072 3.47097 8.08056 3.4035C8.07 3.3171 8.06384 3.22617 8.06384 3.13062C8.06384 2.43926 8.3648 1.69937 8.89928 1.09441C9.16616 0.788111 9.50552 0.533425 9.91704 0.330258C10.3277 0.130121 10.7162 0.0194417 11.0814 0.000488281C11.0921 0.0967626 11.0966 0.193053 11.0966 0.288571Z" fill="#FF00FF"/>
</svg>
