<svg width="16" height="16" viewBox="0 0 16 16" fill="none" xmlns="http://www.w3.org/2000/svg">
<g clip-path="url(#clip0_348_3780)">
<path d="M12.4405 0H3.55947C1.59363 0 0 1.59363 0 3.55947V12.4405C0 14.4064 1.59363 16 3.55947 16H12.4405C14.4064 16 16 14.4064 16 12.4405V3.55947C16 1.59363 14.4064 0 12.4405 0Z" fill="url(#paint0_linear_348_3780)"/>
<path d="M7.18438 13.8224C6.96828 13.6136 6.87601 13.2181 6.73593 12.2452C6.5082 10.665 6.4586 9.68685 6.59033 9.37698C6.76526 8.96631 7.23993 8.73325 7.90393 8.73058C8.35795 8.72874 8.72658 8.83992 8.96945 9.04474C8.98434 9.05461 8.9988 9.06455 9.0128 9.07452C9.13013 9.15986 9.21547 9.24839 9.2688 9.35612C9.32213 9.46386 9.3488 9.59186 9.3648 9.80146C9.37547 10.0116 9.37547 10.3028 9.32747 10.8468C9.27947 11.3892 9.18347 12.1844 9.1088 12.6937C9.03413 13.2057 8.9808 13.4297 8.91147 13.595C8.84213 13.7657 8.75147 13.8777 8.65013 13.9577C8.5488 14.0377 8.43147 14.0857 8.31947 14.1124C8.20747 14.139 8.10613 14.139 8.01013 14.139C7.91413 14.139 7.82346 14.139 7.7008 14.1124C7.57813 14.0857 7.41813 14.0377 7.3008 13.9417C7.25694 13.9074 7.21854 13.8676 7.18438 13.8224Z" fill="white"/>
<path d="M5.47247 12.386C3.82446 11.5754 2.76846 10.2036 2.38446 8.37858C2.28846 7.90765 2.27246 6.78391 2.36313 6.35191C2.60313 5.19191 3.0618 4.28471 3.82446 3.48258C4.92313 2.32418 6.33646 1.71191 7.9098 1.71191C9.46713 1.71191 10.8751 2.31298 11.9471 3.43671C12.7631 4.28471 13.2218 5.18231 13.4565 6.36471C13.5365 6.75831 13.5365 7.83138 13.4618 8.27405C13.2165 9.67351 12.4378 10.9482 11.3018 11.8047C10.8965 12.1108 9.90447 12.6452 9.74447 12.6452C9.6858 12.6452 9.68047 12.5844 9.70713 12.3386C9.75513 11.9439 9.80313 11.8618 10.0271 11.7679C10.3845 11.6186 10.9925 11.1855 11.3658 10.8111C12.0111 10.1711 12.4858 9.33378 12.7045 8.45378C12.8431 7.90445 12.8271 6.68311 12.6725 6.11778C12.1871 4.32045 10.7205 2.92311 8.92313 2.54978C8.40047 2.44311 7.45113 2.44311 6.92313 2.54978C5.10446 2.92311 3.60046 4.38978 3.1418 6.23511C3.01913 6.73645 3.01913 7.95778 3.1418 8.45911C3.4458 9.68045 4.23513 10.8004 5.2698 11.4671C5.47246 11.6004 5.7178 11.7391 5.81913 11.7818C6.04313 11.8778 6.09113 11.9578 6.1338 12.3524C6.16047 12.5924 6.15513 12.6618 6.09647 12.6618C6.05913 12.6618 5.78713 12.5444 5.49913 12.4058L5.47247 12.386Z" fill="white"/>
<path d="M5.4938 10.2164C4.93913 9.77378 4.44846 8.98871 4.2458 8.21858C4.12313 7.75351 4.12313 6.86925 4.25113 6.40525C4.58713 5.15298 5.5098 4.18231 6.7898 3.72631C7.22713 3.57165 8.1978 3.53698 8.73647 3.65591C10.5925 4.06925 11.9098 5.92791 11.6538 7.77165C11.5525 8.51458 11.2965 9.12471 10.8431 9.69165C10.6191 9.97805 10.0751 10.4586 9.97913 10.4586C9.96313 10.4586 9.94713 10.2772 9.94713 10.0564V9.65325L10.2245 9.32258C11.2698 8.07031 11.1951 6.32098 10.0538 5.17325C9.61113 4.72631 9.09913 4.46391 8.4378 4.34285C8.01113 4.26391 7.92047 4.26391 7.47247 4.33751C6.79247 4.44845 6.26553 4.71191 5.7978 5.17485C4.65113 6.31085 4.57646 8.06925 5.6218 9.32258L5.897 9.65325V10.0586C5.897 10.2826 5.8794 10.4639 5.85753 10.4639C5.8362 10.4639 5.68153 10.3572 5.5162 10.2239L5.4938 10.2164Z" fill="white"/>
<path d="M6.60847 6.85858C6.61262 7.2813 6.76872 7.6274 7.06168 7.86415C7.30173 8.10017 7.63096 8.24577 7.99419 8.24577C8.7288 8.24577 9.32432 7.65025 9.32432 6.91564C9.32432 6.21746 8.78641 5.64493 8.10242 5.58985C7.83904 5.55783 7.54529 5.59328 7.3498 5.69591C6.88047 5.94498 6.60847 6.37058 6.60847 6.85858Z" fill="white"/>
</g>
<defs>
<linearGradient id="paint0_linear_348_3780" x1="7.98347" y1="16.2032" x2="7.848" y2="-7.50007e-07" gradientUnits="userSpaceOnUse">
<stop stop-color="#822CBE"/>
<stop offset="1" stop-color="#D772FB"/>
</linearGradient>
<clipPath id="clip0_348_3780">
<rect width="16" height="16" fill="white"/>
</clipPath>
</defs>
</svg>
