<svg width="16" height="16" viewBox="0 0 16 16" fill="none" xmlns="http://www.w3.org/2000/svg">
<g clip-path="url(#clip0_1406_3515)">
<path fill-rule="evenodd" clip-rule="evenodd" d="M16 4.43419V5.00676H15.9937V10.9933V11.5658C15.9937 11.7249 15.9937 11.8902 15.9873 12.0493C15.9746 12.3992 15.9555 12.7491 15.8919 13.099C15.8284 13.4489 15.7266 13.7798 15.5614 14.0978C15.4025 14.4159 15.1927 14.7022 14.9448 14.9503C14.6969 15.1984 14.4045 15.4083 14.093 15.5674C13.7751 15.7328 13.4446 15.8346 13.095 15.8982C12.7517 15.9618 12.3957 15.9873 12.0461 15.9937C11.8872 16 11.722 16 11.5631 16H10.9909H5.00278H4.43067C4.27178 16 4.10644 16 3.94756 15.9937C3.59794 15.9809 3.24831 15.9618 2.89869 15.8982C2.54906 15.8346 2.21851 15.7328 1.90067 15.5674C1.58284 15.4083 1.29678 15.1984 1.04886 14.9503C0.800952 14.7022 0.59118 14.4095 0.432261 14.0978C0.266985 13.7798 0.165276 13.4489 0.101708 13.099C0.0381406 12.7554 0.0127137 12.3992 0.00635692 12.0493C0 11.8902 0 11.7249 0 11.5658V10.9933V5.0004V4.42783C0 4.26878 0 4.10338 0.00635692 3.94434C0.0190705 3.59443 0.0381406 3.24454 0.101708 2.89463C0.165276 2.54473 0.266985 2.21392 0.432261 1.89582C0.597537 1.5841 0.800952 1.29782 1.05522 1.0497C1.30314 0.795229 1.58919 0.59165 1.90703 0.432605C2.22487 0.267197 2.55542 0.165407 2.90505 0.101789C3.24831 0.0381709 3.60429 0.0127235 3.95391 0.00636167C4.11283 0 4.27811 0 4.43703 0H5.00914H10.9972H11.5694C11.7282 0 11.8935 0 12.0525 0.00636167C12.4021 0.0190854 12.7517 0.0381709 13.1013 0.101789C13.451 0.165407 13.7815 0.267197 14.0994 0.432605C14.4172 0.59165 14.7032 0.801592 14.9511 1.0497C15.199 1.29782 15.4088 1.59046 15.5678 1.90218C15.733 2.22028 15.8347 2.5511 15.8983 2.90099C15.9618 3.24454 15.9873 3.60079 15.9937 3.9507C16 4.1097 16 4.27518 16 4.43419ZM11.315 2.44291C11.5692 2.42383 11.7155 2.58922 11.7091 2.86278V10.4079C11.7091 10.6115 11.7091 10.796 11.6646 10.9995C11.6202 11.1968 11.5438 11.3813 11.4294 11.5466C11.315 11.7121 11.1625 11.8521 10.9909 11.9538C10.8192 12.062 10.6349 12.1192 10.4378 12.1574C10.0691 12.2338 9.8148 12.2528 9.5796 12.2019C9.3508 12.1574 9.15376 12.0493 9.0012 11.9093C8.766 11.693 8.62608 11.413 8.59432 11.1141C8.56256 10.7706 8.67696 10.3952 8.9376 10.1216C9.07112 9.988 9.2364 9.87984 9.45888 9.7908C9.68768 9.70176 9.942 9.64448 10.3361 9.56816C10.387 9.55864 10.4394 9.54744 10.4918 9.53632C10.5442 9.5252 10.5967 9.51408 10.6476 9.50456C10.7874 9.47912 10.9018 9.44088 10.9972 9.3264C11.0926 9.21192 11.0926 9.07192 11.0926 8.932V5.40751C11.0926 5.14031 10.9654 5.06397 10.7111 5.11486C10.5268 5.15304 6.57288 5.94826 6.57288 5.94826C6.35039 5.99916 6.27411 6.06914 6.27411 6.34906V11.5085C6.27411 11.7121 6.26776 11.8966 6.22326 12.1002C6.17876 12.2974 6.10248 12.4818 5.98806 12.6473C5.87364 12.8126 5.72107 12.9526 5.54944 13.0544C5.37781 13.1562 5.19346 13.2198 4.9964 13.258C4.62771 13.3343 4.37344 13.3534 4.13824 13.3026C3.90939 13.2517 3.71234 13.1435 3.55977 13.0035C3.33093 12.7872 3.19743 12.5073 3.16565 12.2083C3.12751 11.8648 3.23558 11.4894 3.4962 11.2158C3.6297 11.0822 3.79497 10.9741 4.01746 10.885C4.2463 10.796 4.50058 10.7387 4.8947 10.6624L5.20618 10.5988C5.34602 10.5733 5.46045 10.5351 5.5558 10.4206C5.65115 10.3061 5.66386 10.1725 5.66386 10.0326V4.07789C5.66386 4.00154 5.67022 3.94429 5.67658 3.91884C5.69565 3.79161 5.7465 3.68346 5.8355 3.60711C5.91178 3.5435 6.00713 3.49896 6.13426 3.47351L10.8891 2.51288C10.9336 2.50652 11.2764 2.44934 11.315 2.44291Z" fill="#FF00FF"/>
</g>
<defs>
<clipPath id="clip0_1406_3515">
<rect width="16" height="16" fill="white"/>
</clipPath>
</defs>
</svg>
