<svg width="16" height="16" viewBox="0 0 16 16" fill="none" xmlns="http://www.w3.org/2000/svg">
<g clip-path="url(#clip0_1406_3514)">
<path fill-rule="evenodd" clip-rule="evenodd" d="M16 5.00676C16 4.8159 16 4.62505 16 4.43419C16 4.27515 16 4.10974 15.9937 3.9507C15.9873 3.60079 15.9618 3.24454 15.8983 2.90099C15.8347 2.5511 15.733 2.22028 15.5678 1.90218C15.4088 1.59046 15.199 1.29782 14.9511 1.0497C14.7032 0.801592 14.4172 0.59165 14.0994 0.432605C13.7815 0.267197 13.451 0.165407 13.1013 0.101789C12.7517 0.0381709 12.4021 0.0190854 12.0525 0.00636167C11.8935 -1.57207e-07 11.7282 0 11.5694 0C11.3786 0 11.1879 0 10.9972 0H5.00914C4.81843 0 4.62773 0 4.43703 0C4.27811 0 4.11283 -1.57207e-07 3.95391 0.00636167C3.60429 0.0127235 3.24831 0.0381709 2.90505 0.101789C2.55542 0.165407 2.22487 0.267197 1.90703 0.432605C1.58919 0.59165 1.30314 0.795229 1.05522 1.0497C0.800952 1.29782 0.597537 1.5841 0.432261 1.89582C0.266985 2.21392 0.165276 2.54473 0.101708 2.89463C0.0381406 3.24454 0.0190705 3.59443 0.00635692 3.94434C1.46031e-07 4.10338 0 4.26878 0 4.42783C0 4.61869 0 4.80954 0 5.0004V10.9933C0 11.1841 0 11.375 0 11.5658C0 11.7249 1.46031e-07 11.8902 0.00635692 12.0493C0.0127137 12.3992 0.0381406 12.7554 0.101708 13.099C0.165276 13.4489 0.266985 13.7798 0.432261 14.0978C0.59118 14.4095 0.800952 14.7022 1.04886 14.9503C1.29678 15.1984 1.58284 15.4083 1.90067 15.5674C2.21851 15.7328 2.54906 15.8346 2.89869 15.8982C3.24831 15.9618 3.59794 15.9809 3.94756 15.9937C4.10647 16 4.27175 16 4.43067 16C4.62138 16 4.81208 16 5.00278 16H10.9909C11.1816 16 11.3722 16 11.563 16C11.7219 16 11.8872 16 12.0461 15.9937C12.3957 15.9873 12.7517 15.9618 13.095 15.8982C13.4446 15.8346 13.7751 15.7328 14.093 15.5674C14.4045 15.4083 14.6969 15.1984 14.9448 14.9503C15.1927 14.7022 15.4025 14.4159 15.5614 14.0978C15.7266 13.7798 15.8284 13.4489 15.8919 13.099C15.9555 12.7491 15.9746 12.3992 15.9873 12.0493C15.9937 11.8902 15.9937 11.7249 15.9937 11.5658C15.9937 11.375 15.9937 11.1841 15.9937 10.9933V5.00676H16Z" fill="url(#paint0_linear_1406_3514)"/>
<path fill-rule="evenodd" clip-rule="evenodd" d="M11.315 2.4429C11.2769 2.44926 10.9336 2.50652 10.8891 2.51288L6.13427 3.47351C6.00713 3.49896 5.91178 3.5435 5.8355 3.60711C5.74651 3.68346 5.69565 3.79161 5.67658 3.91884C5.67022 3.94429 5.66387 4.00154 5.66387 4.07789C5.66387 4.07789 5.66387 8.93835 5.66387 10.0326C5.66387 10.1725 5.65115 10.3061 5.5558 10.4206C5.46045 10.5352 5.34603 10.5733 5.20618 10.5988L4.8947 10.6624C4.50058 10.7388 4.24631 10.796 4.01746 10.8851C3.79497 10.9741 3.6297 11.0823 3.4962 11.2159C3.23558 11.4894 3.12751 11.8648 3.16565 12.2083C3.19743 12.5073 3.33093 12.7872 3.55977 13.0036C3.71234 13.1435 3.90939 13.2516 4.13824 13.3025C4.37344 13.3535 4.62771 13.3344 4.9964 13.258C5.19347 13.2199 5.37781 13.1562 5.54944 13.0544C5.72107 12.9527 5.87364 12.8127 5.98806 12.6472C6.10248 12.4819 6.17876 12.2974 6.22326 12.1002C6.26776 11.8966 6.27411 11.7121 6.27411 11.5085V6.34906C6.27411 6.06914 6.35039 5.99916 6.57288 5.94826C6.57288 5.94826 10.5268 5.15304 10.7111 5.11486C10.9654 5.06397 11.0926 5.14031 11.0926 5.40751V8.93195C11.0926 9.07195 11.0926 9.21187 10.9972 9.32643C10.9018 9.44091 10.7874 9.47907 10.6476 9.50451C10.5458 9.52363 10.4378 9.54907 10.3361 9.56811C9.942 9.64451 9.68768 9.70171 9.45888 9.79083C9.2364 9.87987 9.07112 9.98803 8.9376 10.1216C8.67696 10.3952 8.56256 10.7705 8.59432 11.114C8.62608 11.4131 8.766 11.693 9.0012 11.9093C9.15376 12.0492 9.3508 12.1574 9.5796 12.202C9.8148 12.2528 10.0691 12.2338 10.4378 12.1574C10.6349 12.1192 10.8192 12.062 10.9909 11.9538C11.1625 11.852 11.315 11.7121 11.4294 11.5467C11.5438 11.3812 11.6202 11.1968 11.6646 10.9996C11.7091 10.796 11.7091 10.6115 11.7091 10.4079V2.86278C11.7155 2.58923 11.5693 2.42382 11.315 2.4429Z" fill="white"/>
</g>
<defs>
<linearGradient id="paint0_linear_1406_3514" x1="8.00288" y1="15.9452" x2="8.00288" y2="0.343792" gradientUnits="userSpaceOnUse">
<stop stop-color="#FA233B"/>
<stop offset="1" stop-color="#FB5C74"/>
</linearGradient>
<clipPath id="clip0_1406_3514">
<rect width="16" height="16" fill="white"/>
</clipPath>
</defs>
</svg>
