<svg width="16" height="16" viewBox="0 0 16 16" fill="none" xmlns="http://www.w3.org/2000/svg">
<path d="M13.8751 11.2224C13.6574 11.7255 13.3996 12.1886 13.101 12.6143C12.6938 13.1948 12.3605 13.5966 12.1036 13.8197C11.7054 14.1858 11.2788 14.3734 10.8219 14.3841C10.4939 14.3841 10.0984 14.2907 9.63792 14.1014C9.176 13.913 8.75152 13.8197 8.36336 13.8197C7.95623 13.8197 7.51962 13.913 7.05262 14.1014C6.5849 14.2907 6.20811 14.3894 5.92003 14.3992C5.48192 14.4178 5.04522 14.225 4.60933 13.8197C4.33111 13.577 3.98313 13.161 3.56626 12.5717C3.11898 11.9424 2.75126 11.2126 2.46318 10.3806C2.15466 9.482 2 8.61184 2 7.76935C2 6.80431 2.20853 5.97198 2.6262 5.27449C2.95446 4.71424 3.39115 4.2723 3.9377 3.94786C4.48426 3.62343 5.07482 3.4581 5.7108 3.44753C6.05878 3.44753 6.51513 3.55517 7.08222 3.76671C7.6477 3.97898 8.0108 4.08662 8.17 4.08662C8.28904 4.08662 8.6924 3.96075 9.37616 3.70982C10.0228 3.47712 10.5686 3.38077 11.0157 3.41873C12.2272 3.5165 13.1374 3.99409 13.7427 4.8545C12.6592 5.51102 12.1232 6.43054 12.1338 7.61015C12.1436 8.52896 12.477 9.2936 13.1321 9.90064C13.4289 10.1824 13.7605 10.4002 14.1294 10.5549C14.0494 10.7869 13.9649 11.009 13.8751 11.2224ZM11.0966 0.28851C11.0966 1.00867 10.8334 1.68109 10.309 2.30347C9.67616 3.04336 8.91072 3.4709 8.08056 3.40344C8.07 3.31704 8.06384 3.22611 8.06384 3.13056C8.06384 2.4392 8.3648 1.69931 8.89928 1.09435C9.16616 0.78805 9.50552 0.533364 9.91704 0.330197C10.3277 0.13006 10.7162 0.0193806 11.0814 0.000427246C11.0921 0.0967016 11.0966 0.192992 11.0966 0.28851Z" fill="#FF00FF"/>
</svg>
