<svg width="16" height="16" viewBox="0 0 16 16" fill="none" xmlns="http://www.w3.org/2000/svg">
<g clip-path="url(#clip0_1406_3512)">
<path d="M14.4 0H1.6C0.716344 0 0 0.716344 0 1.6V14.4C0 15.2837 0.716344 16 1.6 16H14.4C15.2837 16 16 15.2837 16 14.4V1.6C16 0.716344 15.2837 0 14.4 0Z" fill="#005CFF"/>
<path fill-rule="evenodd" clip-rule="evenodd" d="M7.97706 5.97885C7.97706 7.45853 6.76618 7.55261 6.76618 7.55261C8.33042 7.55261 8.25594 9.5251 8.25298 9.60454L8.2529 9.60702C8.2529 12.1318 5.73066 12.0493 5.73066 12.0493H1.6001V3.77661H5.73066C6.98634 3.77661 7.97706 4.49725 7.97706 5.97885ZM5.73066 5.24605H3.42026V7.09245H5.5873C5.96234 7.09245 6.29258 6.96765 6.29258 6.10621C6.29258 5.24605 5.73066 5.24605 5.73066 5.24605ZM5.61354 10.5785H3.42026V8.36734H5.73066C5.73066 8.36734 6.56778 8.35582 6.56778 9.50334C6.56778 10.471 5.9425 10.5715 5.61354 10.5785ZM8.56458 9.05918C8.56458 9.05918 8.56202 5.88029 11.6155 5.88029C14.8289 5.88029 14.3751 9.47198 14.3751 9.47198H10.2644C10.2644 11.0093 11.6622 10.912 11.6622 10.912C12.9806 10.912 12.9345 10.0217 12.9345 10.0217H14.331C14.331 12.384 11.6155 12.2214 11.6155 12.2214C8.35594 12.2214 8.56458 9.05918 8.56458 9.05918ZM12.8577 8.36734H10.2503C10.2503 8.36734 10.4206 7.09245 11.6468 7.09245C12.8731 7.09245 12.8577 8.36734 12.8577 8.36734ZM9.9073 4.26237H13.1822V5.28253H9.9073V4.26237Z" fill="white"/>
</g>
<defs>
<clipPath id="clip0_1406_3512">
<rect width="16" height="16" fill="white"/>
</clipPath>
</defs>
</svg>
