<svg width="16" height="16" viewBox="0 0 16 16" fill="none" xmlns="http://www.w3.org/2000/svg">
<g clip-path="url(#clip0_348_3916)">
<rect width="16" height="16" rx="2" fill="#005CFF"/>
<path fill-rule="evenodd" clip-rule="evenodd" d="M7.97697 5.9791C7.97697 7.45878 6.76609 7.55286 6.76609 7.55286C8.33034 7.55286 8.25589 9.52533 8.25289 9.60479L8.25281 9.60726C8.25281 12.1321 5.73057 12.0495 5.73057 12.0495H1.60001V3.77686H5.73057C6.98625 3.77686 7.97697 4.4975 7.97697 5.9791ZM5.73057 5.2463H3.42017V7.0927H5.58721C5.96225 7.0927 6.29249 6.9679 6.29249 6.10646C6.29249 5.2463 5.73057 5.2463 5.73057 5.2463ZM5.61345 10.5788H3.42017V8.36758H5.73057C5.73057 8.36758 6.56769 8.35606 6.56769 9.50358C6.56769 10.4713 5.94241 10.5717 5.61345 10.5788ZM8.56449 9.05942C8.56449 9.05942 8.56193 5.88054 11.6154 5.88054C14.8288 5.88054 14.375 9.47222 14.375 9.47222H10.2643C10.2643 11.0095 11.6621 10.9122 11.6621 10.9122C12.9805 10.9122 12.9344 10.022 12.9344 10.022H14.3309C14.3309 12.3842 11.6154 12.2217 11.6154 12.2217C8.35585 12.2217 8.56449 9.05942 8.56449 9.05942ZM12.8576 8.36758H10.2502C10.2502 8.36758 10.4205 7.0927 11.6467 7.0927C12.873 7.0927 12.8576 8.36758 12.8576 8.36758ZM9.90721 4.26262H13.1821V5.28278H9.90721V4.26262Z" fill="white"/>
</g>
<defs>
<clipPath id="clip0_348_3916">
<rect width="16" height="16" fill="white"/>
</clipPath>
</defs>
</svg>
