<svg width="16" height="16" viewBox="0 0 16 16" fill="none" xmlns="http://www.w3.org/2000/svg">
<g clip-path="url(#clip0_1_112)">
<path d="M14.4 0H1.6C0.716344 0 0 0.716344 0 1.6V14.4C0 15.2837 0.716344 16 1.6 16H14.4C15.2837 16 16 15.2837 16 14.4V1.6C16 0.716344 15.2837 0 14.4 0Z" fill="#005CFF"/>
<path fill-rule="evenodd" clip-rule="evenodd" d="M7.97694 5.97885C7.97694 7.45853 6.76606 7.55261 6.76606 7.55261C8.3303 7.55261 8.25582 9.5251 8.25286 9.60454L8.25278 9.60702C8.25278 12.1318 5.73054 12.0493 5.73054 12.0493H1.59998V3.77661H5.73054C6.98622 3.77661 7.97694 4.49725 7.97694 5.97885ZM5.73054 5.24605H3.42014V7.09245H5.58718C5.96222 7.09245 6.29246 6.96765 6.29246 6.10621C6.29246 5.24605 5.73054 5.24605 5.73054 5.24605ZM5.61342 10.5785H3.42014V8.36734H5.73054C5.73054 8.36734 6.56766 8.35582 6.56766 9.50334C6.56766 10.471 5.94238 10.5715 5.61342 10.5785ZM8.56446 9.05918C8.56446 9.05918 8.5619 5.88029 11.6153 5.88029C14.8288 5.88029 14.375 9.47198 14.375 9.47198H10.2643C10.2643 11.0093 11.6621 10.912 11.6621 10.912C12.9805 10.912 12.9344 10.0217 12.9344 10.0217H14.3309C14.3309 12.384 11.6153 12.2214 11.6153 12.2214C8.35582 12.2214 8.56446 9.05918 8.56446 9.05918ZM12.8576 8.36734H10.2502C10.2502 8.36734 10.4205 7.09245 11.6467 7.09245C12.8729 7.09245 12.8576 8.36734 12.8576 8.36734ZM9.90718 4.26237H13.1821V5.28253H9.90718V4.26237Z" fill="white"/>
</g>
<defs>
<clipPath id="clip0_1_112">
<rect width="16" height="16" fill="white"/>
</clipPath>
</defs>
</svg>
