<svg width="16" height="16" viewBox="0 0 16 16" fill="none" xmlns="http://www.w3.org/2000/svg">
<path d="M0.746569 1.06407C0.673588 1.06313 0.601284 1.07817 0.534736 1.10815C0.468188 1.13812 0.409008 1.18231 0.361352 1.23759C0.313695 1.29287 0.278717 1.35792 0.258873 1.42815C0.23903 1.49839 0.234801 1.57212 0.246485 1.64416L2.36934 14.5313C2.39579 14.689 2.47696 14.8323 2.5986 14.9362C2.72023 15.0399 2.87455 15.0975 3.03445 15.0989H13.2186C13.3385 15.1004 13.455 15.0589 13.5467 14.9818C13.6386 14.9047 13.6996 14.7971 13.7187 14.6788L15.8416 1.64667C15.8533 1.57462 15.849 1.50089 15.8292 1.43065C15.8094 1.36041 15.7744 1.29537 15.7267 1.24009C15.679 1.1848 15.6199 1.14063 15.5534 1.11065C15.4868 1.08068 15.4145 1.06563 15.3415 1.06657L0.746569 1.06407ZM9.6856 10.3781H6.43502L5.55487 5.77986H10.4732L9.6856 10.3781Z" fill="#FF00FF"/>
<path d="M15.1669 5.77985H10.4736L9.68592 10.3781H6.43541L2.59727 14.9339C2.71892 15.0391 2.87402 15.0975 3.03484 15.0989H13.2215C13.3414 15.1004 13.4578 15.0589 13.5496 14.9818C13.6414 14.9047 13.7025 14.7971 13.7216 14.6788L15.1669 5.77985Z" fill="url(#paint0_linear_1_115)"/>
<defs>
<linearGradient id="paint0_linear_1_115" x1="16.2521" y1="7.06756" x2="8.49576" y2="13.1211" gradientUnits="userSpaceOnUse">
<stop offset="0.18" stop-color="white" stop-opacity="0.43"/>
<stop offset="1" stop-color="white" stop-opacity="0"/>
</linearGradient>
</defs>
</svg>
