<svg width="16" height="16" viewBox="0 0 16 16" fill="none" xmlns="http://www.w3.org/2000/svg">
<path fill-rule="evenodd" clip-rule="evenodd" d="M0.36486 1.23847C0.461313 1.12658 0.602304 1.06308 0.750013 1.06498L15.3425 1.06748C15.4902 1.06557 15.6312 1.12909 15.7277 1.24097C15.8241 1.35286 15.8662 1.50166 15.8425 1.64748L13.72 14.6775C13.6804 14.922 13.4677 15.1007 13.22 15.0975H3.03751C2.7075 15.0947 2.4271 14.8555 2.37251 14.5299L0.250013 1.64498C0.226365 1.49917 0.268407 1.35036 0.36486 1.23847ZM6.43751 10.3775H9.68753L10.475 5.77998H5.55751L6.43751 10.3775Z" fill="#2684FF"/>
<path d="M15.1675 5.78003H10.475L9.68753 10.3775H6.43751L2.60001 14.9325C2.72164 15.0377 2.87671 15.0962 3.03751 15.0975H13.2225C13.4702 15.1007 13.6829 14.922 13.7225 14.6775L15.1675 5.78003Z" fill="url(#paint0_linear_1_118)"/>
<defs>
<linearGradient id="paint0_linear_1_118" x1="12.1707" y1="4.19275" x2="6.75007" y2="11.8893" gradientUnits="userSpaceOnUse">
<stop offset="0.18" stop-color="#0052CC"/>
<stop offset="1" stop-color="#2684FF"/>
</linearGradient>
</defs>
</svg>
