<svg width="16" height="16" viewBox="0 0 16 16" fill="none" xmlns="http://www.w3.org/2000/svg">
<path d="M0.746523 1.06401C0.673542 1.06307 0.601239 1.07811 0.534691 1.10809C0.468143 1.13806 0.408963 1.18225 0.361306 1.23753C0.313649 1.29281 0.278671 1.35785 0.258827 1.42809C0.238984 1.49833 0.234755 1.57206 0.246439 1.6441L2.3693 14.5312C2.39574 14.6889 2.47691 14.8323 2.59855 14.9361C2.72018 15.0399 2.8745 15.0975 3.03441 15.0988H13.2186C13.3384 15.1004 13.4549 15.0588 13.5467 14.9817C13.6385 14.9046 13.6996 14.7971 13.7187 14.6788L15.8416 1.64661C15.8532 1.57456 15.849 1.50083 15.8292 1.43059C15.8093 1.36035 15.7744 1.29531 15.7267 1.24003C15.679 1.18474 15.6199 1.14057 15.5533 1.11059C15.4868 1.08061 15.4144 1.06557 15.3415 1.06651L0.746523 1.06401ZM9.68555 10.378H6.43498L5.55482 5.7798H10.4732L9.68555 10.378Z" fill="#FF00FF"/>
<path d="M15.1668 5.77979H10.4735L9.68582 10.378H6.43531L2.59717 14.9338C2.71882 15.039 2.87392 15.0975 3.03474 15.0988H13.2214C13.3413 15.1004 13.4577 15.0588 13.5495 14.9817C13.6413 14.9046 13.7024 14.7971 13.7215 14.6788L15.1668 5.77979Z" fill="url(#paint0_linear_1406_3511)"/>
<defs>
<linearGradient id="paint0_linear_1406_3511" x1="16.252" y1="7.0675" x2="8.49566" y2="13.121" gradientUnits="userSpaceOnUse">
<stop offset="0.18" stop-color="white" stop-opacity="0.43"/>
<stop offset="1" stop-color="white" stop-opacity="0"/>
</linearGradient>
</defs>
</svg>
