<svg width="16" height="16" viewBox="0 0 16 16" fill="none" xmlns="http://www.w3.org/2000/svg">
<g clip-path="url(#clip0_1_121)">
<mask id="mask0_1_121" style="mask-type:luminance" maskUnits="userSpaceOnUse" x="0" y="0" width="16" height="16">
<path d="M16 0H0V16H16V0Z" fill="white"/>
</mask>
<g mask="url(#mask0_1_121)">
<path d="M6.56737 15.9096C5.09822 15.5757 4.1633 15.1499 3.10317 14.3485C1.75088 13.3218 0.649015 11.669 0.2066 9.99119C-0.0688666 8.95615 -0.0688666 7.00282 0.2066 5.98443C0.548846 4.749 1.00796 3.84748 1.83435 2.82908C2.76927 1.67714 4.43042 0.625356 5.98305 0.207983C6.57571 0.0493811 6.90126 0.0159912 7.98643 0.0159912C9.4556 0.0159912 10.1985 0.166245 11.3254 0.692136C11.9682 0.992644 12.9949 1.6354 12.9949 1.74392C12.9949 1.77731 12.3605 2.31154 11.5842 2.92926L10.1818 4.06451L9.68928 3.84748C9.28032 3.65548 9.03824 3.61375 8.27024 3.58036C6.6425 3.51358 5.91626 3.78904 4.8144 4.89926C4.24677 5.46688 4.05478 5.72566 3.85444 6.19312C3.61237 6.7524 3.60402 6.82752 3.59567 8.06295L3.58732 9.35679L2.3185 10.3919C1.62567 10.9678 1.06639 11.4437 1.08308 11.4604C1.09978 11.477 1.83435 11.3017 2.71918 11.0681L4.33025 10.634L4.86448 11.1765C5.79106 12.1031 6.57571 12.412 8.02816 12.412C9.40552 12.412 10.115 12.1281 11.1 11.1682C11.7511 10.5338 12.1935 9.76583 12.3522 8.97279L12.4606 8.45527L14.1218 8.01287C15.0401 7.77079 15.8414 7.57044 15.8998 7.57044C15.9666 7.57044 16 7.75409 16 8.23823C16 10.3501 14.8481 12.7459 13.1869 14.0981C12.1018 14.983 11.3004 15.4004 10.0232 15.7593C9.27192 15.968 7.22682 16.0598 6.56737 15.9096Z" fill="#FF00FF"/>
</g>
</g>
<defs>
<clipPath id="clip0_1_121">
<rect width="16" height="16" fill="white"/>
</clipPath>
</defs>
</svg>
