<svg width="16" height="16" viewBox="0 0 16 16" fill="none" xmlns="http://www.w3.org/2000/svg">
<g clip-path="url(#clip0_348_3708)">
<path d="M8.38441 7.39118C7.8097 7.63721 7.1575 7.91616 6.31221 7.91616C5.95861 7.91546 5.60672 7.86695 5.26611 7.77195L5.85073 13.7742C5.87142 14.025 5.98571 14.259 6.17089 14.4295C6.35607 14.6 6.59861 14.6946 6.85033 14.6946C6.85033 14.6946 7.67925 14.7376 7.95585 14.7376C8.25353 14.7376 9.14617 14.6946 9.14617 14.6946C9.39786 14.6946 9.64034 14.5999 9.82548 14.4294C10.0106 14.2588 10.1249 14.025 10.1456 13.7742L10.7717 7.14148C10.4919 7.04592 10.2095 6.98242 9.89114 6.98242C9.34054 6.98221 8.89691 7.17184 8.38441 7.39118Z" fill="#FFDD00"/>
<path d="M3.45642 4.83057L3.46632 4.83982L3.47278 4.8437C3.46781 4.83876 3.46232 4.83436 3.45642 4.83057Z" fill="#0D0C22"/>
<path d="M13.4752 4.27645L13.3872 3.83239C13.3082 3.43397 13.1289 3.0575 12.7199 2.9135C12.5888 2.86743 12.4401 2.84764 12.3396 2.75228C12.2391 2.65693 12.2094 2.50884 12.1861 2.3715C12.1431 2.11944 12.1026 1.86717 12.0585 1.61555C12.0204 1.39922 11.9902 1.15621 11.891 0.957748C11.7619 0.69127 11.4939 0.53543 11.2274 0.432325C11.0908 0.381353 10.9515 0.338233 10.81 0.303177C10.1443 0.127533 9.44427 0.0629588 8.75935 0.0261513C7.93725 -0.0192121 7.11296 -0.00554475 6.29281 0.0670484C5.68237 0.122583 5.03941 0.189741 4.45932 0.400899C4.24731 0.478174 4.02882 0.570945 3.86761 0.73475C3.66979 0.936007 3.60522 1.24726 3.74964 1.49823C3.85232 1.67646 4.02625 1.80238 4.21072 1.88569C4.45099 1.99302 4.70193 2.0747 4.95935 2.12935C5.67612 2.28777 6.41852 2.34997 7.15079 2.37646C7.96242 2.40921 8.77535 2.38266 9.5831 2.29702C9.78286 2.27506 9.98225 2.24873 10.1813 2.21803C10.4157 2.18208 10.5661 1.87557 10.4971 1.66204C10.4144 1.40676 10.1923 1.30775 9.94107 1.34628C9.90404 1.35208 9.86724 1.35746 9.83021 1.36284L9.80352 1.36672C9.71842 1.37749 9.63333 1.38752 9.54824 1.39685C9.37245 1.41579 9.19624 1.43129 9.01959 1.44335C8.62395 1.4709 8.22725 1.4836 7.83077 1.48425C7.44117 1.48425 7.05135 1.47326 6.66261 1.44766C6.48524 1.43603 6.30831 1.42125 6.13181 1.40331C6.05152 1.39491 5.97144 1.3861 5.89138 1.37619L5.81517 1.36651L5.79861 1.36414L5.71961 1.35273C5.55817 1.3284 5.39673 1.30043 5.23702 1.26663C5.22091 1.26305 5.20648 1.25409 5.19615 1.24121C5.18582 1.22834 5.18019 1.21232 5.18019 1.19581C5.18019 1.1793 5.18582 1.16329 5.19615 1.15041C5.20648 1.13754 5.22091 1.12857 5.23702 1.125H5.24003C5.37844 1.09551 5.51791 1.07032 5.65782 1.04837C5.70447 1.04105 5.75125 1.03387 5.79817 1.02684H5.79946C5.88706 1.02103 5.97511 1.00532 6.06228 0.994985C6.82074 0.916093 7.58371 0.889196 8.34586 0.914482C8.71586 0.925245 9.08566 0.946985 9.45395 0.984438C9.53316 0.992618 9.61195 1.00123 9.69072 1.01091C9.72086 1.01457 9.75121 1.01888 9.78157 1.02254L9.84269 1.03136C10.0209 1.05791 10.1982 1.09013 10.3746 1.12801C10.6359 1.18484 10.9715 1.20335 11.0877 1.48963C11.1247 1.58046 11.1415 1.68141 11.1619 1.77676L11.188 1.89838C11.1887 1.90056 11.1892 1.9028 11.1895 1.90505C11.2511 2.19205 11.3127 2.47905 11.3744 2.76605C11.3789 2.78725 11.379 2.80916 11.3747 2.8304C11.3704 2.85165 11.3618 2.87177 11.3493 2.88953C11.3369 2.90728 11.3209 2.92228 11.3024 2.93359C11.2839 2.9449 11.2633 2.95227 11.2418 2.95526H11.2401L11.2024 2.96043L11.1652 2.96537C11.0472 2.98073 10.9291 2.99508 10.8109 3.00843C10.578 3.03497 10.3447 3.05793 10.1111 3.0773C9.64689 3.1159 9.18174 3.14123 8.71565 3.15329C8.47816 3.15959 8.24074 3.16255 8.00339 3.16211C7.05867 3.16137 6.11475 3.10645 5.17632 2.99765C5.07472 2.98561 4.97312 2.97269 4.87152 2.95956C4.95031 2.96968 4.81426 2.95181 4.78672 2.94794C4.72214 2.9389 4.65757 2.9295 4.59299 2.91974C4.37623 2.88723 4.16078 2.8472 3.94445 2.81211C3.68292 2.76906 3.4328 2.79059 3.19624 2.91974C3.00207 3.026 2.84491 3.18894 2.74573 3.38683C2.6437 3.59777 2.61335 3.82744 2.56772 4.0541C2.52209 4.28076 2.45105 4.52463 2.47796 4.75732C2.53586 5.2595 2.88693 5.6676 3.39191 5.75887C3.86696 5.84497 4.3446 5.91471 4.82352 5.97412C6.70487 6.20454 8.60551 6.23209 10.4928 6.05634C10.6464 6.042 10.7999 6.02636 10.9532 6.00942C11.001 6.00417 11.0495 6.00967 11.0949 6.02556C11.1404 6.04144 11.1817 6.0673 11.2159 6.10123C11.2501 6.13516 11.2762 6.1763 11.2924 6.22164C11.3087 6.26698 11.3145 6.31538 11.3096 6.36328L11.2618 6.8278C11.1655 7.76642 11.0693 8.70498 10.973 9.64346C10.8725 10.629 10.7714 11.6145 10.6697 12.5998C10.641 12.8774 10.6123 13.1549 10.5836 13.4322C10.556 13.7055 10.5522 13.9872 10.5003 14.2571C10.4185 14.6816 10.1311 14.9423 9.71183 15.0376C9.32768 15.1251 8.93525 15.171 8.5413 15.1745C8.10456 15.1769 7.66804 15.1575 7.2313 15.1598C6.76506 15.1625 6.19402 15.1194 5.83412 14.7724C5.51791 14.4677 5.47422 13.9904 5.43117 13.5777C5.37378 13.0314 5.31688 12.4852 5.26047 11.9391L4.94406 8.90214L4.73937 6.93715C4.73591 6.90464 4.73247 6.87257 4.72925 6.83984C4.7047 6.60545 4.53875 6.37599 4.27722 6.38783C4.05337 6.39772 3.79895 6.58801 3.8252 6.83984L3.97695 8.29666L4.29078 11.3101C4.38019 12.1661 4.46937 13.0222 4.55834 13.8785C4.57556 14.0425 4.5917 14.207 4.60978 14.371C4.70816 15.2673 5.39264 15.7503 6.24029 15.8863C6.73536 15.966 7.24249 15.9824 7.74488 15.9905C8.38891 16.0009 9.03939 16.0256 9.67286 15.9089C10.6116 15.7367 11.3159 15.1099 11.4164 14.1377C11.4451 13.857 11.4738 13.5762 11.5025 13.2954C11.5979 12.3666 11.6932 11.4378 11.7883 10.509L12.0996 7.47398L12.2423 6.08304C12.2494 6.01406 12.2785 5.94921 12.3254 5.89808C12.3722 5.84696 12.4342 5.81225 12.5023 5.79912C12.7707 5.74681 13.0273 5.65748 13.2182 5.45321C13.5222 5.12798 13.5826 4.70394 13.4752 4.27645ZM3.37813 4.57651C3.38222 4.57457 3.37469 4.60965 3.37146 4.62601C3.37081 4.60126 3.3721 4.5793 3.37813 4.57651ZM3.40418 4.77798C3.40633 4.77647 3.41278 4.78509 3.41946 4.79542C3.40934 4.78594 3.40288 4.77885 3.40396 4.77798H3.40418ZM3.42979 4.81177C3.43905 4.82748 3.444 4.83739 3.42979 4.81177V4.81177ZM3.48123 4.85353H3.48253C3.48253 4.85504 3.48489 4.85654 3.48575 4.85806C3.48433 4.85639 3.48274 4.85488 3.48102 4.85353H3.48123ZM12.4898 4.79111C12.3934 4.8828 12.2481 4.92542 12.1045 4.94674C10.4945 5.18566 8.86095 5.30663 7.23323 5.25325C6.06831 5.21344 4.91565 5.08406 3.76235 4.92112C3.64934 4.90519 3.52687 4.88453 3.44916 4.80123C3.30279 4.64409 3.37469 4.32768 3.41278 4.13783C3.44766 3.96391 3.51438 3.73209 3.72124 3.70733C4.04411 3.66945 4.41907 3.8057 4.7385 3.85414C5.12308 3.91282 5.50909 3.95982 5.89653 3.99512C7.55008 4.1458 9.23139 4.12233 10.8776 3.90192C11.1777 3.86159 11.4766 3.81474 11.7746 3.76136C12.04 3.71379 12.3342 3.62447 12.4946 3.89933C12.6045 4.08661 12.6192 4.33715 12.6022 4.54874C12.5969 4.64093 12.5567 4.72763 12.4896 4.79111H12.4898Z" fill="#0D0C22"/>
</g>
<defs>
<clipPath id="clip0_348_3708">
<rect width="16" height="16" fill="white"/>
</clipPath>
</defs>
</svg>
