<svg width="16" height="16" viewBox="0 0 16 16" fill="none" xmlns="http://www.w3.org/2000/svg">
<g clip-path="url(#clip0_1_155)">
<mask id="mask0_1_155" style="mask-type:luminance" maskUnits="userSpaceOnUse" x="0" y="0" width="16" height="16">
<path d="M16 0H0V16H16V0Z" fill="white"/>
</mask>
<g mask="url(#mask0_1_155)">
<path d="M8.38433 7.39117C7.80961 7.63721 7.15741 7.91617 6.31213 7.91617C5.95853 7.91546 5.60662 7.86695 5.26602 7.77195L5.85064 13.7742C5.87133 14.025 5.98562 14.259 6.1708 14.4294C6.35598 14.6 6.59852 14.6946 6.85024 14.6946C6.85024 14.6946 7.67916 14.7376 7.95576 14.7376C8.25345 14.7376 9.14609 14.6946 9.14609 14.6946C9.39777 14.6946 9.64025 14.5998 9.82537 14.4294C10.0106 14.2589 10.1248 14.025 10.1454 13.7742L10.7716 7.14148C10.4918 7.04592 10.2094 6.98242 9.89105 6.98242C9.34049 6.98221 8.89681 7.17185 8.38433 7.39117Z" fill="#FFDD00"/>
<path d="M3.45645 4.83044L3.46635 4.8397L3.47281 4.84358C3.46784 4.83864 3.46235 4.83423 3.45645 4.83044Z" fill="#FF00FF"/>
<path d="M13.4753 4.27646L13.3872 3.83239C13.3082 3.43397 13.129 3.0575 12.7199 2.9135C12.5889 2.86742 12.4402 2.84764 12.3396 2.75227C12.2391 2.65693 12.2094 2.50883 12.1862 2.3715C12.143 2.11944 12.1026 1.86717 12.0585 1.61555C12.0204 1.39922 11.9902 1.15621 11.891 0.957752C11.7618 0.69127 11.4939 0.53543 11.2274 0.432326C11.0909 0.381353 10.9515 0.338233 10.8101 0.303177C10.1442 0.127534 9.44433 0.0629588 8.75937 0.0261513C7.93729 -0.0192121 7.11299 -0.00554473 6.29284 0.0670484C5.6824 0.122582 5.03945 0.189741 4.45935 0.400899C4.24734 0.478174 4.02885 0.570945 3.86764 0.73475C3.66982 0.936008 3.60525 1.24726 3.74968 1.49823C3.85236 1.67646 4.02628 1.80238 4.21075 1.88569C4.45102 1.99302 4.70196 2.0747 4.95938 2.12935C5.67616 2.28778 6.41855 2.34998 7.15082 2.37646C7.96245 2.40921 8.77537 2.38266 9.58313 2.29702C9.78289 2.27506 9.98225 2.24873 10.1813 2.21803C10.4157 2.18208 10.5662 1.87557 10.497 1.66203C10.4144 1.40676 10.1922 1.30774 9.94113 1.34628C9.90409 1.35208 9.86729 1.35746 9.83025 1.36284L9.80353 1.36672C9.71849 1.37749 9.63337 1.38752 9.54825 1.39686C9.37249 1.41579 9.19625 1.4313 9.01961 1.44335C8.62401 1.4709 8.22729 1.4836 7.8308 1.48425C7.4412 1.48425 7.05138 1.47326 6.66264 1.44766C6.48528 1.43603 6.30833 1.42125 6.13184 1.40331C6.05155 1.39491 5.97147 1.3861 5.89141 1.37618L5.8152 1.3665L5.79864 1.36414L5.71964 1.35273C5.5582 1.3284 5.39676 1.30043 5.23705 1.26662C5.22093 1.26305 5.20651 1.2541 5.19618 1.24121C5.18585 1.22834 5.18021 1.21232 5.18021 1.19582C5.18021 1.1793 5.18585 1.16329 5.19618 1.15042C5.20651 1.13754 5.22093 1.12857 5.23705 1.12499H5.24006C5.37847 1.0955 5.51794 1.07032 5.65785 1.04837C5.7045 1.04105 5.75128 1.03387 5.7982 1.02684H5.79949C5.88709 1.02103 5.97513 1.00532 6.06231 0.994984C6.82077 0.916096 7.58374 0.8892 8.34593 0.91448C8.71593 0.925248 9.08569 0.946984 9.45401 0.98444C9.53321 0.992616 9.61201 1.00123 9.69073 1.01091C9.72089 1.01458 9.75121 1.01888 9.78161 1.02254L9.84273 1.03136C10.021 1.05791 10.1982 1.09013 10.3746 1.12801C10.6359 1.18483 10.9715 1.20334 11.0877 1.48962C11.1247 1.58046 11.1415 1.68142 11.162 1.77676L11.188 1.89838C11.1887 1.90056 11.1892 1.9028 11.1895 1.90505C11.2511 2.19205 11.3127 2.47905 11.3744 2.76605C11.379 2.78726 11.379 2.80916 11.3747 2.8304C11.3704 2.85166 11.3618 2.87177 11.3494 2.88954C11.3369 2.90728 11.321 2.92228 11.3024 2.93359C11.2839 2.9449 11.2633 2.95227 11.2418 2.95526H11.2401L11.2025 2.96042L11.1652 2.96537C11.0473 2.98073 10.9291 2.99508 10.8109 3.00842C10.578 3.03497 10.3447 3.05793 10.1111 3.0773C9.64689 3.1159 9.18177 3.14123 8.71569 3.15329C8.47817 3.15959 8.24081 3.16254 8.00345 3.16211C7.05869 3.16137 6.11478 3.10645 5.17635 2.99766C5.07475 2.98561 4.97316 2.97269 4.87155 2.95956C4.95033 2.96968 4.81429 2.95181 4.78675 2.94794C4.72217 2.9389 4.6576 2.9295 4.59302 2.91974C4.37626 2.88723 4.16081 2.8472 3.94448 2.81211C3.68295 2.76906 3.43283 2.79059 3.19628 2.91974C3.00209 3.026 2.84493 3.18894 2.74576 3.38683C2.64373 3.59778 2.61338 3.82744 2.56775 4.0541C2.52212 4.28076 2.45109 4.52463 2.47799 4.75732C2.53589 5.2595 2.88697 5.6676 3.39193 5.75887C3.86699 5.84497 4.34463 5.91471 4.82355 5.97412C6.70489 6.20454 8.60553 6.2321 10.4928 6.05634C10.6465 6.04199 10.7999 6.02636 10.9532 6.00942C11.001 6.00417 11.0495 6.00967 11.095 6.02556C11.1404 6.04145 11.1818 6.0673 11.2159 6.10123C11.2501 6.13515 11.2762 6.1763 11.2925 6.22163C11.3087 6.26698 11.3146 6.31538 11.3096 6.36329L11.2618 6.8278C11.1656 7.76642 11.0693 8.70496 10.973 9.64344C10.8726 10.629 10.7714 11.6145 10.6697 12.5998C10.641 12.8774 10.6123 13.1549 10.5836 13.4322C10.5561 13.7054 10.5522 13.9872 10.5003 14.2571C10.4185 14.6816 10.1311 14.9423 9.71185 15.0376C9.32769 15.125 8.93529 15.171 8.54137 15.1745C8.10457 15.1769 7.66807 15.1574 7.23133 15.1598C6.76509 15.1625 6.19405 15.1194 5.83415 14.7724C5.51794 14.4677 5.47425 13.9904 5.4312 13.5778C5.37381 13.0314 5.31691 12.4853 5.2605 11.9391L4.94409 8.90216L4.7394 6.93714C4.73594 6.90465 4.7325 6.87257 4.72928 6.83984C4.70473 6.60545 4.53878 6.37599 4.27725 6.38783C4.0534 6.39772 3.79897 6.58801 3.82523 6.83984L3.97697 8.29664L4.29081 11.3102C4.38021 12.1661 4.4694 13.0222 4.55837 13.8785C4.5756 14.0425 4.59173 14.207 4.60981 14.371C4.70818 15.2673 5.39267 15.7503 6.24032 15.8863C6.7354 15.966 7.24252 15.9824 7.74491 15.9905C8.38897 16.0009 9.03945 16.0257 9.67289 15.909C10.6116 15.7366 11.3158 15.1099 11.4164 14.1377C11.4451 13.857 11.4738 13.5762 11.5025 13.2954C11.5979 12.3666 11.6932 11.4378 11.7883 10.509L12.0996 7.47398L12.2423 6.08304C12.2494 6.01406 12.2786 5.94921 12.3254 5.89808C12.3722 5.84695 12.4342 5.81226 12.5023 5.79912C12.7707 5.74682 13.0274 5.65748 13.2182 5.45321C13.5222 5.12798 13.5826 4.70394 13.4753 4.27646ZM3.37816 4.57651C3.38225 4.57458 3.37472 4.60965 3.37149 4.62602C3.37085 4.60126 3.37213 4.5793 3.37816 4.57651ZM3.40421 4.77798C3.40636 4.77647 3.41281 4.78509 3.41949 4.79542C3.40937 4.78594 3.40313 4.77885 3.40421 4.77798ZM3.42982 4.81177C3.44403 4.83739 3.43908 4.82749 3.42982 4.81177ZM3.48126 4.85353H3.48256C3.48256 4.85504 3.48493 4.85654 3.48578 4.85806C3.48436 4.85639 3.48299 4.85488 3.48126 4.85353ZM12.4898 4.7911C12.3934 4.8828 12.2482 4.92542 12.1046 4.94674C10.4945 5.18566 8.86097 5.30663 7.23326 5.25326C6.06833 5.21343 4.91569 5.08406 3.76238 4.92112C3.64937 4.90519 3.52689 4.88453 3.44919 4.80122C3.30282 4.64409 3.37472 4.32768 3.41281 4.13783C3.44769 3.96391 3.51441 3.73209 3.72127 3.70734C4.04414 3.66946 4.41909 3.8057 4.73853 3.85414C5.12311 3.91282 5.50913 3.95982 5.89657 3.99512C7.5501 4.1458 9.23145 4.12234 10.8776 3.90192C11.1777 3.86159 11.4766 3.81474 11.7746 3.76136C12.04 3.71379 12.3342 3.62447 12.4946 3.89934C12.6046 4.08661 12.6192 4.33715 12.6022 4.54874C12.597 4.64093 12.557 4.72763 12.4898 4.7911Z" fill="#FF00FF"/>
</g>
</g>
<defs>
<clipPath id="clip0_1_155">
<rect width="16" height="16" fill="white"/>
</clipPath>
</defs>
</svg>
