<svg width="16" height="16" viewBox="0 0 16 16" fill="none" xmlns="http://www.w3.org/2000/svg">
<g clip-path="url(#clip0_348_3721)">
<path d="M8.38435 7.39118C7.80964 7.63721 7.15743 7.91616 6.31215 7.91616C5.95855 7.91546 5.60665 7.86695 5.26605 7.77195L5.85067 13.7742C5.87136 14.025 5.98565 14.259 6.17083 14.4295C6.35601 14.6 6.59855 14.6946 6.85027 14.6946C6.85027 14.6946 7.67919 14.7376 7.95579 14.7376C8.25347 14.7376 9.1461 14.6946 9.1461 14.6946C9.3978 14.6946 9.64028 14.5999 9.82542 14.4294C10.0106 14.2588 10.1248 14.025 10.1455 13.7742L10.7717 7.14148C10.4918 7.04592 10.2094 6.98242 9.89108 6.98242C9.34048 6.98221 8.89685 7.17184 8.38435 7.39118Z" fill="#FF00FF"/>
<path d="M3.45636 4.83047L3.46626 4.83973L3.47272 4.8436C3.46775 4.83866 3.46226 4.83426 3.45636 4.83047Z" fill="#FF00FF"/>
<path d="M13.4752 4.27645L13.3871 3.83239C13.3081 3.43397 13.1288 3.0575 12.7199 2.9135C12.5888 2.86743 12.44 2.84764 12.3395 2.75228C12.239 2.65693 12.2093 2.50884 12.186 2.3715C12.143 2.11944 12.1025 1.86717 12.0584 1.61555C12.0203 1.39922 11.9902 1.15621 11.8909 0.957748C11.7618 0.69127 11.4938 0.53543 11.2273 0.432325C11.0908 0.381353 10.9514 0.338233 10.81 0.303177C10.1442 0.127533 9.44421 0.0629588 8.75928 0.0261513C7.93719 -0.0192121 7.1129 -0.00554475 6.29274 0.0670484C5.68231 0.122583 5.03935 0.189741 4.45926 0.400899C4.24725 0.478174 4.02876 0.570945 3.86755 0.73475C3.66973 0.936007 3.60516 1.24726 3.74958 1.49823C3.85226 1.67646 4.02619 1.80238 4.21066 1.88569C4.45093 1.99302 4.70186 2.0747 4.95929 2.12935C5.67606 2.28777 6.41846 2.34997 7.15073 2.37646C7.96236 2.40921 8.77528 2.38266 9.58304 2.29702C9.7828 2.27506 9.98219 2.24873 10.1812 2.21803C10.4156 2.18208 10.5661 1.87557 10.497 1.66204C10.4143 1.40676 10.1922 1.30775 9.94101 1.34628C9.90398 1.35208 9.86717 1.35746 9.83015 1.36284L9.80346 1.36672C9.71836 1.37749 9.63327 1.38752 9.54818 1.39685C9.37239 1.41579 9.19618 1.43129 9.01953 1.44335C8.62389 1.4709 8.22719 1.4836 7.83071 1.48425C7.4411 1.48425 7.05129 1.47326 6.66255 1.44766C6.48518 1.43603 6.30824 1.42125 6.13174 1.40331C6.05146 1.39491 5.97138 1.3861 5.89132 1.37619L5.81511 1.36651L5.79855 1.36414L5.71955 1.35273C5.55811 1.3284 5.39667 1.30043 5.23696 1.26663C5.22084 1.26305 5.20642 1.25409 5.19609 1.24121C5.18576 1.22834 5.18013 1.21232 5.18013 1.19581C5.18013 1.1793 5.18576 1.16329 5.19609 1.15041C5.20642 1.13754 5.22084 1.12857 5.23696 1.125H5.23997C5.37838 1.09551 5.51785 1.07032 5.65776 1.04837C5.70441 1.04105 5.75118 1.03387 5.79811 1.02684H5.7994C5.887 1.02103 5.97505 1.00532 6.06221 0.994985C6.82068 0.916093 7.58365 0.889196 8.3458 0.914482C8.7158 0.925245 9.0856 0.946985 9.45389 0.984438C9.5331 0.992618 9.61189 1.00123 9.69066 1.01091C9.7208 1.01457 9.75115 1.01888 9.78151 1.02254L9.84263 1.03136C10.0209 1.05791 10.1981 1.09013 10.3745 1.12801C10.6358 1.18484 10.9714 1.20335 11.0876 1.48963C11.1247 1.58046 11.1414 1.68141 11.1619 1.77676L11.1879 1.89838C11.1886 1.90056 11.1891 1.9028 11.1894 1.90505C11.251 2.19205 11.3126 2.47905 11.3743 2.76605C11.3789 2.78725 11.379 2.80916 11.3747 2.8304C11.3703 2.85165 11.3617 2.87177 11.3492 2.88953C11.3368 2.90728 11.3208 2.92228 11.3023 2.93359C11.2838 2.9449 11.2632 2.95227 11.2417 2.95526H11.24L11.2024 2.96043L11.1651 2.96537C11.0472 2.98073 10.9291 2.99508 10.8108 3.00843C10.5779 3.03497 10.3447 3.05793 10.1111 3.0773C9.64683 3.1159 9.18168 3.14123 8.71559 3.15329C8.4781 3.15959 8.24068 3.16255 8.00333 3.16211C7.05861 3.16137 6.11469 3.10645 5.17626 2.99765C5.07466 2.98561 4.97306 2.97269 4.87146 2.95956C4.95025 2.96968 4.8142 2.95181 4.78666 2.94794C4.72208 2.9389 4.6575 2.9295 4.59293 2.91974C4.37617 2.88723 4.16072 2.8472 3.94439 2.81211C3.68286 2.76906 3.43274 2.79059 3.19618 2.91974C3.00201 3.026 2.84484 3.18894 2.74567 3.38683C2.64364 3.59777 2.61329 3.82744 2.56766 4.0541C2.52203 4.28076 2.45099 4.52463 2.4779 4.75732C2.5358 5.2595 2.88687 5.6676 3.39184 5.75887C3.8669 5.84497 4.34454 5.91471 4.82346 5.97412C6.7048 6.20454 8.60545 6.23209 10.4927 6.05634C10.6464 6.042 10.7998 6.02636 10.9531 6.00942C11.001 6.00417 11.0494 6.00967 11.0949 6.02556C11.1403 6.04144 11.1817 6.0673 11.2158 6.10123C11.25 6.13516 11.2762 6.1763 11.2924 6.22164C11.3086 6.26698 11.3145 6.31538 11.3096 6.36328L11.2618 6.8278C11.1655 7.76642 11.0692 8.70498 10.9729 9.64346C10.8725 10.629 10.7714 11.6145 10.6696 12.5998C10.6409 12.8774 10.6122 13.1549 10.5835 13.4322C10.556 13.7055 10.5521 13.9872 10.5002 14.2571C10.4184 14.6816 10.1311 14.9423 9.71177 15.0376C9.32762 15.1251 8.93518 15.171 8.54124 15.1745C8.1045 15.1769 7.66798 15.1575 7.23124 15.1598C6.765 15.1625 6.19396 15.1194 5.83406 14.7724C5.51785 14.4677 5.47416 13.9904 5.43111 13.5777C5.37371 13.0314 5.31682 12.4852 5.26041 11.9391L4.73931 6.93715C4.73585 6.90464 4.73241 6.87257 4.72919 6.83984C4.70464 6.60545 4.53869 6.37599 4.27716 6.38783C4.05331 6.39772 3.79888 6.58801 3.82514 6.83984L4.29072 11.3101C4.38013 12.1661 4.46931 13.0222 4.55828 13.8785C4.5755 14.0425 4.59164 14.207 4.60972 14.371C4.70809 15.2673 5.39258 15.7503 6.24023 15.8863C6.7353 15.966 7.24242 15.9824 7.74482 15.9905C8.38884 16.0009 9.03933 16.0256 9.6728 15.9089C10.6115 15.7367 11.3158 15.1099 11.4163 14.1377C11.445 13.857 11.4737 13.5762 11.5024 13.2954C11.5978 12.3667 11.6931 11.4378 11.7883 10.509L12.2422 6.08304C12.2493 6.01406 12.2785 5.94921 12.3253 5.89808C12.3721 5.84696 12.4342 5.81225 12.5022 5.79912C12.7707 5.74681 13.0272 5.65748 13.2182 5.45321C13.5221 5.12798 13.5826 4.70394 13.4752 4.27645ZM3.37807 4.57651C3.38216 4.57457 3.37463 4.60965 3.3714 4.62601C3.37075 4.60126 3.37204 4.5793 3.37807 4.57651ZM3.40411 4.77798C3.40627 4.77647 3.41272 4.78509 3.4194 4.79542C3.40928 4.78594 3.40304 4.77885 3.40411 4.77798ZM3.42973 4.81177C3.43899 4.82748 3.44394 4.83739 3.42973 4.81177V4.81177ZM3.48117 4.85353H3.48246C3.48246 4.85504 3.48483 4.85654 3.48569 4.85806C3.48427 4.85639 3.4829 4.85488 3.48117 4.85353ZM12.4898 4.79111C12.3933 4.8828 12.248 4.92542 12.1045 4.94674C10.4944 5.18566 8.86089 5.30663 7.23317 5.25325C6.06824 5.21344 4.91559 5.08406 3.76229 4.92112C3.64928 4.90519 3.52681 4.88453 3.4491 4.80123C3.30273 4.64409 3.37463 4.32768 3.41272 4.13783C3.44759 3.96391 3.51432 3.73209 3.72118 3.70733C4.04405 3.66945 4.41901 3.8057 4.73844 3.85414C5.12302 3.91282 5.50903 3.95982 5.89647 3.99512C7.55001 4.1458 9.23133 4.12233 10.8776 3.90192C11.1776 3.86159 11.4766 3.81474 11.7745 3.76136C12.0399 3.71379 12.3341 3.62447 12.4945 3.89933C12.6045 4.08661 12.6191 4.33715 12.6021 4.54874C12.5969 4.64093 12.5568 4.72763 12.4898 4.79111Z" fill="#FF00FF"/>
</g>
<defs>
<clipPath id="clip0_348_3721">
<rect width="16" height="16" fill="white"/>
</clipPath>
</defs>
</svg>
