<svg width="16" height="16" viewBox="0 0 16 16" fill="none" xmlns="http://www.w3.org/2000/svg">
<g clip-path="url(#clip0_348_3933)">
<path d="M6.60148 6.44162C7.58278 5.46032 9.16058 5.42394 10.1848 6.35243C10.2339 6.39695 10.2376 6.47284 10.1931 6.52194C10.1486 6.57104 10.0727 6.57476 10.0236 6.53024C9.0941 5.6876 7.66188 5.72063 6.77118 6.61133C5.84955 7.53296 5.84955 9.02723 6.77118 9.94887C7.65441 10.8321 9.07161 10.8727 10.0024 10.0489C10.052 10.005 10.1278 10.0096 10.1718 10.0593C10.2157 10.1089 10.2111 10.1847 10.1614 10.2287C9.1358 11.1364 7.57455 11.0916 6.60148 10.1186C5.58611 9.10321 5.58611 7.45698 6.60148 6.44162Z" fill="#FF00FF"/>
<path fill-rule="evenodd" clip-rule="evenodd" d="M4.26663 0.666764V0.500098C4.26663 0.279184 4.44571 0.100098 4.66663 0.100098C4.88754 0.100098 5.06663 0.279184 5.06663 0.500098V0.666764H10.9333V0.500098C10.9333 0.279184 11.1124 0.100098 11.3333 0.100098C11.5542 0.100098 11.7333 0.279184 11.7333 0.500098V0.666764H13.6666C14.5871 0.666764 15.3333 1.41296 15.3333 2.33343V13.6668C15.3333 14.5872 14.5871 15.3334 13.6666 15.3334H2.33329C1.41282 15.3334 0.666626 14.5872 0.666626 13.6668V2.33343C0.666626 1.41296 1.41282 0.666764 2.33329 0.666764H4.26663ZM5.06663 1.46676H10.9333V2.66676C10.9333 2.88768 11.1124 3.06676 11.3333 3.06676C11.5542 3.06676 11.7333 2.88768 11.7333 2.66676V1.46676H13.6666L13.7611 1.47185C14.1953 1.5189 14.5333 1.88669 14.5333 2.33343V13.6668C14.5333 14.1454 14.1453 14.5334 13.6666 14.5334H2.33329C1.85465 14.5334 1.46663 14.1454 1.46663 13.6668V2.33343C1.46663 1.85478 1.85465 1.46676 2.33329 1.46676H4.26663V2.66676C4.26663 2.88768 4.44571 3.06676 4.66663 3.06676C4.88754 3.06676 5.06663 2.88768 5.06663 2.66676V1.46676Z" fill="#FF00FF"/>
</g>
<defs>
<clipPath id="clip0_348_3933">
<rect width="16" height="16" fill="white"/>
</clipPath>
</defs>
</svg>
