<svg width="16" height="16" viewBox="0 0 16 16" fill="none" xmlns="http://www.w3.org/2000/svg">
<g clip-path="url(#clip0_1_167)">
<path d="M13.6666 1.06665H2.33325C1.63369 1.06665 1.06659 1.63376 1.06659 2.33331V13.6666C1.06659 14.3662 1.63369 14.9333 2.33325 14.9333H13.6666C14.3661 14.9333 14.9332 14.3662 14.9332 13.6666V2.33331C14.9332 1.63376 14.3661 1.06665 13.6666 1.06665Z" fill="white" stroke="#656A74"/>
<path d="M4.66675 0.5V2.66666" stroke="#656A74" stroke-linecap="round"/>
<path d="M11.3334 0.5V2.66666" stroke="#656A74" stroke-linecap="round"/>
<path d="M10.1042 6.44123C9.13081 5.55874 7.62563 5.58713 6.6864 6.52636C5.7179 7.49486 5.7179 9.0651 6.6864 10.0336C7.6185 10.9657 9.10801 11.0008 10.082 10.1387" stroke="#656A74" stroke-width="0.3" stroke-linecap="round" stroke-linejoin="round"/>
</g>
<defs>
<clipPath id="clip0_1_167">
<rect width="16" height="16" fill="white"/>
</clipPath>
</defs>
</svg>
