<svg width="16" height="16" viewBox="0 0 16 16" fill="none" xmlns="http://www.w3.org/2000/svg">
<g clip-path="url(#clip0_1406_3503)">
<path d="M13.6666 1.06665H2.33331C1.63376 1.06665 1.06665 1.63376 1.06665 2.33331V13.6666C1.06665 14.3662 1.63376 14.9333 2.33331 14.9333H13.6666C14.3662 14.9333 14.9333 14.3662 14.9333 13.6666V2.33331C14.9333 1.63376 14.3662 1.06665 13.6666 1.06665Z" fill="white" stroke="#656A74"/>
<path d="M4.66675 0.5V2.66666" stroke="#656A74" stroke-linecap="round"/>
<path d="M11.3333 0.5V2.66666" stroke="#656A74" stroke-linecap="round"/>
<path d="M10.1042 6.44129C9.13075 5.5588 7.62557 5.58719 6.68634 6.52642C5.71783 7.49492 5.71783 9.06516 6.68634 10.0336C7.61844 10.9658 9.10795 11.0008 10.0819 10.1388" stroke="#656A74" stroke-width="0.3" stroke-linecap="round" stroke-linejoin="round"/>
</g>
<defs>
<clipPath id="clip0_1406_3503">
<rect width="16" height="16" fill="white"/>
</clipPath>
</defs>
</svg>
