<svg width="16" height="16" viewBox="0 0 16 16" fill="none" xmlns="http://www.w3.org/2000/svg">
<g clip-path="url(#clip0_1_165)">
<path fill-rule="evenodd" clip-rule="evenodd" d="M4.26659 0.666642V0.499976C4.26659 0.279062 4.44568 0.0999756 4.66659 0.0999756C4.88751 0.0999756 5.06659 0.279062 5.06659 0.499976V0.666642H10.9333V0.499976C10.9333 0.279062 11.1123 0.0999756 11.3333 0.0999756C11.5542 0.0999756 11.7333 0.279062 11.7333 0.499976V0.666642H13.6666C14.587 0.666642 15.3333 1.41283 15.3333 2.33331V13.6666C15.3333 14.5871 14.587 15.3333 13.6666 15.3333H2.33327C1.41279 15.3333 0.666595 14.5871 0.666595 13.6666V2.33331C0.666595 1.41283 1.41279 0.666642 2.33327 0.666642H4.26659ZM5.06659 1.46664H10.9333V2.66664C10.9333 2.88756 11.1123 3.06664 11.3333 3.06664C11.5542 3.06664 11.7333 2.88756 11.7333 2.66664V1.46664H13.6666L13.761 1.47173C14.1953 1.51878 14.5333 1.88658 14.5333 2.33331V13.6666C14.5333 14.1453 14.1453 14.5333 13.6666 14.5333H2.33327C1.85462 14.5333 1.46659 14.1453 1.46659 13.6666V2.33331C1.46659 1.85466 1.85462 1.46664 2.33327 1.46664H4.26659V2.66664C4.26659 2.88756 4.44568 3.06664 4.66659 3.06664C4.88751 3.06664 5.06659 2.88756 5.06659 2.66664V1.46664ZM6.60145 6.4415C7.58275 5.4602 9.16055 5.42382 10.1847 6.35231C10.2338 6.39682 10.2376 6.47271 10.193 6.52182C10.1486 6.57092 10.0726 6.57463 10.0235 6.53012C9.09407 5.68748 7.66185 5.7205 6.77115 6.61121C5.84951 7.53284 5.84951 9.0271 6.77115 9.94878C7.65438 10.832 9.07159 10.8726 10.0023 10.0489C10.052 10.0049 10.1278 10.0095 10.1718 10.0592C10.2157 10.1088 10.211 10.1846 10.1614 10.2285C9.13575 11.1363 7.57451 11.0915 6.60145 10.1185C5.58608 9.1031 5.58608 7.45686 6.60145 6.4415Z" fill="#FF00FF"/>
</g>
<defs>
<clipPath id="clip0_1_165">
<rect width="16" height="16" fill="white"/>
</clipPath>
</defs>
</svg>
