<svg width="20" height="20" viewBox="0 0 20 20" fill="none" xmlns="http://www.w3.org/2000/svg">
<path d="M18.4011 5.0373C18.0418 4.66087 17.5456 4.43844 16.981 4.43844H14.1407V4.40422C14.1407 3.97646 13.9696 3.56582 13.6787 3.29205C13.3878 3.00118 12.9943 2.83008 12.5665 2.83008H7.43346C6.98859 2.83008 6.59506 3.00118 6.30418 3.29205C6.01331 3.58293 5.84221 3.97646 5.84221 4.40422V4.43844H3.01901C2.45437 4.43844 1.95817 4.66087 1.59886 5.0373C1.23954 5.39661 1 5.90992 1 6.45745V14.9783C1 15.543 1.22243 16.0392 1.59886 16.3985C1.95817 16.7578 2.47148 16.9973 3.01901 16.9973H16.981C17.5456 16.9973 18.0418 16.7749 18.4011 16.3985C18.7605 16.0392 19 15.5259 19 14.9783V6.45745C19 5.89281 18.7776 5.39661 18.4011 5.0373ZM18.1103 14.9783H18.0932C18.0932 15.2863 17.9734 15.5601 17.7681 15.7654C17.5627 15.9707 17.289 16.0905 16.981 16.0905H3.01901C2.71103 16.0905 2.43726 15.9707 2.23194 15.7654C2.02662 15.5601 1.90684 15.2863 1.90684 14.9783V6.45745C1.90684 6.14946 2.02662 5.8757 2.23194 5.67038C2.43726 5.46505 2.71103 5.34528 3.01901 5.34528H6.32129C6.57795 5.34528 6.78327 5.13996 6.78327 4.88331V4.38711C6.78327 4.1989 6.85171 4.02779 6.97148 3.90802C7.09126 3.78825 7.26236 3.71981 7.45057 3.71981H12.5665C12.7548 3.71981 12.9259 3.78825 13.0456 3.90802C13.1654 4.02779 13.2338 4.1989 13.2338 4.38711V4.88331C13.2338 5.13996 13.4392 5.34528 13.6958 5.34528H16.9981C17.3061 5.34528 17.5798 5.46505 17.7852 5.67038C17.9905 5.8757 18.1103 6.14946 18.1103 6.45745V14.9783Z" fill="#FF00FF"/>
<path d="M9.99988 6.50879C8.8364 6.50879 7.77557 6.98787 7.02271 7.74072C6.25275 8.51069 5.79077 9.55441 5.79077 10.7179C5.79077 11.8814 6.26986 12.9422 7.02271 13.6951C7.79268 14.465 8.8364 14.927 9.99988 14.927C11.1634 14.927 12.2243 14.4479 12.9771 13.6951C13.7471 12.9251 14.2091 11.8814 14.2091 10.7179C14.2091 9.55441 13.73 8.49357 12.9771 7.74072C12.2243 6.98787 11.1634 6.50879 9.99988 6.50879ZM12.3269 13.062C11.7281 13.6437 10.9068 14.0202 9.99988 14.0202C9.09306 14.0202 8.27176 13.6437 7.6729 13.062C7.07404 12.4631 6.71473 11.6418 6.71473 10.735C6.71473 9.82817 7.09115 9.00688 7.6729 8.40802C8.27176 7.80916 9.09306 7.44985 9.99988 7.44985C10.9068 7.44985 11.7281 7.82628 12.3269 8.40802C12.9258 9.00688 13.2851 9.82817 13.2851 10.735C13.3022 11.6418 12.9258 12.4631 12.3269 13.062Z" fill="#FF00FF"/>
<path d="M16.0913 8.1685C16.5543 8.1685 16.9297 7.79314 16.9297 7.3301C16.9297 6.86706 16.5543 6.4917 16.0913 6.4917C15.6283 6.4917 15.2529 6.86706 15.2529 7.3301C15.2529 7.79314 15.6283 8.1685 16.0913 8.1685Z" fill="#FF00FF"/>
</svg>
