<svg width="16" height="16" viewBox="0 0 16 16" fill="none" xmlns="http://www.w3.org/2000/svg">
<g clip-path="url(#clip0_1_193)">
<path fill-rule="evenodd" clip-rule="evenodd" d="M0.253249 6C1.14182 2.54972 4.2739 0 8.00135 0C12.4198 0 16.0014 3.58185 16.0014 8C16.0014 12.4182 12.4198 16 8.00135 16C4.2739 16 1.14182 13.4503 0.253249 10C0.245345 9.96968 0.23999 9.93776 0.23999 9.90488C0.23999 9.69456 0.410566 9.524 0.621173 9.524H3.84682C3.99557 9.52416 4.13052 9.61112 4.19205 9.74656C4.19205 9.74656 4.1969 9.75552 4.19869 9.76008C4.86391 11.1948 6.31597 12.1905 8.00135 12.1905C10.3158 12.1905 12.1915 10.3146 12.1915 8C12.1915 5.68537 10.3152 3.80954 8.00079 3.80954C6.31546 3.80954 4.86314 4.8052 4.19817 6.24018C4.19665 6.24452 4.1918 6.25344 4.1918 6.25344C4.13163 6.38475 4.00032 6.47603 3.84657 6.47603H0.620918C0.410566 6.47603 0.23999 6.30546 0.23999 6.0951C0.23999 6.06222 0.2456 6.03034 0.253249 6ZM9.90623 8C9.90623 9.05208 9.05335 9.90488 8.00135 9.90488C6.94929 9.90488 6.09644 9.05208 6.09644 8C6.09644 6.94795 6.94929 6.0951 8.00135 6.0951C9.05335 6.0951 9.90623 6.94795 9.90623 8Z" fill="#141414"/>
</g>
<defs>
<clipPath id="clip0_1_193">
<rect width="16" height="16" fill="white"/>
</clipPath>
</defs>
</svg>
