<svg width="16" height="16" viewBox="0 0 16 16" fill="none" xmlns="http://www.w3.org/2000/svg">
<g clip-path="url(#clip0_1406_3501)">
<path fill-rule="evenodd" clip-rule="evenodd" d="M0.253493 6C1.14207 2.54972 4.27415 0 8.00159 0C12.42 0 16.0016 3.58185 16.0016 8C16.0016 12.4182 12.42 16 8.00159 16C4.27415 16 1.14207 13.4503 0.253493 10C0.245589 9.96968 0.240234 9.93776 0.240234 9.90488C0.240234 9.69456 0.41081 9.524 0.621418 9.524H3.84707C3.99581 9.52416 4.13076 9.61112 4.1923 9.74656C4.1923 9.74656 4.19715 9.75552 4.19893 9.76008C4.86415 11.1948 6.31622 12.1905 8.00159 12.1905C10.316 12.1905 12.1918 10.3146 12.1918 8C12.1918 5.68537 10.3154 3.80954 8.00103 3.80954C6.31571 3.80954 4.86339 4.8052 4.19842 6.24018C4.19689 6.24452 4.19204 6.25344 4.19204 6.25344C4.13187 6.38475 4.00056 6.47603 3.84681 6.47603H0.621162C0.41081 6.47603 0.240234 6.30546 0.240234 6.0951C0.240234 6.06222 0.245844 6.03034 0.253493 6ZM9.90647 8C9.90647 9.05208 9.05359 9.90488 8.00159 9.90488C6.94954 9.90488 6.09668 9.05208 6.09668 8C6.09668 6.94795 6.94954 6.0951 8.00159 6.0951C9.05359 6.0951 9.90647 6.94795 9.90647 8Z" fill="#141414"/>
</g>
<defs>
<clipPath id="clip0_1406_3501">
<rect width="16" height="16" fill="white"/>
</clipPath>
</defs>
</svg>
