<svg width="20" height="20" viewBox="0 0 20 20" fill="none" xmlns="http://www.w3.org/2000/svg">
<path d="M6.08006 18.6694C4.92761 18.6694 3.84825 18.1747 3.06925 17.3859C1.55849 15.8564 1.1378 13.187 3.25553 11.0434C4.49533 9.78839 9.46433 4.75699 11.9439 2.2462C12.8245 1.3549 13.9449 1.00996 15.0171 1.30142C16.0715 1.58664 16.9343 2.461 17.2169 3.52789C17.5039 4.61528 17.1643 5.7499 16.2846 6.6412L7.97497 15.0551C7.5008 15.5355 6.96423 15.8199 6.42589 15.8769C5.892 15.9339 5.38307 15.761 5.02655 15.4001C4.38124 14.7441 4.28855 13.5132 5.36346 12.4258L11.1997 6.51642C11.4395 6.27399 11.8281 6.27399 12.0678 6.51642C12.3076 6.75886 12.3076 7.15281 12.0678 7.39524L6.23069 13.3055C5.72622 13.8153 5.67987 14.3029 5.89467 14.5212C5.98915 14.6157 6.13176 14.6594 6.29665 14.6407C6.54889 14.6148 6.83678 14.4482 7.10684 14.1763L15.4164 5.76327C15.9869 5.18571 16.2052 4.50654 16.0314 3.85143C15.8603 3.20524 15.338 2.6767 14.7007 2.50289C14.0536 2.32731 13.3816 2.54924 12.8112 3.1268C10.3316 5.63849 5.36346 10.669 4.12277 11.924C2.50416 13.5631 2.89188 15.45 3.93648 16.5079C4.98198 17.5659 6.84391 17.9599 8.4634 16.319L17.1518 7.52181C17.3916 7.27938 17.7802 7.27938 18.0199 7.52181C18.2597 7.76424 18.2597 8.1582 18.0199 8.40152L9.33153 17.1987C8.30743 18.2344 7.16032 18.6694 6.08006 18.6694Z" fill="#FF00FF"/>
</svg>
