<svg xmlns="http://www.w3.org/2000/svg" fill="none" viewBox="0 0 16 16"><path fill="currentColor" d="M9.5 5h-3a1 1 0 0 1-1-1V2.5a1 1 0 0 1 1-1h3a1 1 0 0 1 1 1V4a1 1 0 0 1-1 1" opacity=".4"/><path fill="currentColor" fill-rule="evenodd" d="M4.418 1.751A1.75 1.75 0 0 1 6 .75h4c.699 0 1.302.41 1.582 1.001A2.75 2.75 0 0 1 14.25 4.5V12a2.75 2.75 0 0 1-2.75 2.75h-7A2.75 2.75 0 0 1 1.75 12V4.5a2.75 2.75 0 0 1 2.668-2.749M4.25 3.275c-.57.116-1 .62-1 1.225V12c0 .69.56 1.25 1.25 1.25h7c.69 0 1.25-.56 1.25-1.25V4.5c0-.605-.43-1.11-1-1.225V3.5A1.75 1.75 0 0 1 10 5.25H6A1.75 1.75 0 0 1 4.25 3.5zm6-.775a.25.25 0 0 0-.25-.25H6a.25.25 0 0 0-.25.25v1c0 .138.112.25.25.25h4a.25.25 0 0 0 .25-.25z" clip-rule="evenodd"/></svg>