<svg width="20" height="20" viewBox="0 0 20 20" fill="none" xmlns="http://www.w3.org/2000/svg">
<g clip-path="url(#clip0_341_2908)">
<path d="M11.4582 2.16679L12.5914 1.1619C13.0745 0.733526 13.7775 0.662336 14.3366 0.985159L15.6863 1.7644C16.2455 2.08723 16.5353 2.73162 16.4059 3.36416L16.1025 4.84656C16.4148 5.214 16.6949 5.61115 16.9397 6.03504C17.1844 6.45892 17.3883 6.90009 17.5503 7.35428L18.9858 7.83277C19.5983 8.03694 20.0115 8.61015 20.0115 9.25579V10.8143C20.0115 11.4599 19.5983 12.0331 18.9858 12.2373L17.5489 12.7163C17.2236 13.6323 16.7344 14.4829 16.1027 15.2244L16.4059 16.7059C16.5353 17.3384 16.2455 17.9828 15.6863 18.3057L14.3366 19.0849C13.7775 19.4077 13.0745 19.3365 12.5914 18.9082L11.46 17.9049C10.5019 18.0812 9.52076 18.0795 8.56475 17.9033L7.43152 18.9082C6.94845 19.3365 6.24546 19.4077 5.68632 19.0849L4.33663 18.3057C3.77749 17.9828 3.48765 17.3384 3.61709 16.7059L3.92044 15.2235C3.60812 14.8561 3.328 14.4589 3.08327 14.035C2.83854 13.6111 2.63466 13.17 2.4726 12.7158L1.03713 12.2373C0.424619 12.0331 0.0114745 11.4599 0.0114746 10.8143V9.2558C0.0114746 8.61015 0.42462 8.03694 1.03713 7.83277L2.47401 7.35381C2.79938 6.43777 3.28853 5.5872 3.92025 4.84566L3.61709 3.36416C3.48765 2.73162 3.77749 2.08723 4.33663 1.7644L5.68632 0.985159C6.24546 0.662336 6.94845 0.733527 7.43152 1.1619L8.56295 2.16519C9.52101 1.98888 10.5022 1.99055 11.4582 2.16679ZM8.52371 3.1929C8.36778 3.22685 8.20501 3.18433 8.08561 3.07845L6.76805 1.9101C6.60703 1.76731 6.3727 1.74358 6.18632 1.85119L4.83663 2.63043C4.65025 2.73804 4.55364 2.95284 4.59678 3.16368L4.94982 4.8889C4.98182 5.04524 4.93726 5.20747 4.82989 5.32553C4.15476 6.06795 3.64948 6.94729 3.34442 7.90171C3.29584 8.05369 3.17764 8.17336 3.02627 8.22382L1.35336 8.78145C1.14919 8.84951 1.01147 9.04058 1.01147 9.2558V10.8143C1.01147 11.0295 1.14919 11.2206 1.35336 11.2886L3.02449 11.8457C3.17567 11.896 3.29378 12.0155 3.34246 12.1672C3.49407 12.6397 3.69674 13.0976 3.9493 13.535C4.20185 13.9725 4.49705 14.3769 4.83043 14.7445C4.9375 14.8625 4.98188 15.0245 4.94993 15.1806L4.59678 16.9064C4.55364 17.1172 4.65025 17.332 4.83663 17.4396L6.18632 18.2189C6.3727 18.3265 6.60703 18.3028 6.76805 18.16L8.08743 16.99C8.20682 16.8841 8.36955 16.8416 8.52546 16.8755C9.50455 17.0885 10.5187 17.0906 11.4992 16.8772C11.6552 16.8432 11.8179 16.8857 11.9373 16.9916L13.2549 18.16C13.4159 18.3028 13.6503 18.3265 13.8366 18.2189L15.1863 17.4396C15.3727 17.332 15.4693 17.1172 15.4262 16.9064L15.0731 15.1812C15.0411 15.0248 15.0857 14.8626 15.1931 14.7445C15.8682 14.0021 16.3735 13.1228 16.6785 12.1684C16.7271 12.0164 16.8453 11.8967 16.9967 11.8462L18.6696 11.2886C18.8738 11.2206 19.0115 11.0295 19.0115 10.8143V9.2558C19.0115 9.04058 18.8738 8.84951 18.6696 8.78145L16.9985 8.22441C16.8473 8.17402 16.7292 8.05457 16.6805 7.90283C16.5289 7.43035 16.3262 6.97248 16.0737 6.53504C15.8211 6.09759 15.5259 5.69314 15.1925 5.3256C15.0855 5.20757 15.0411 5.04557 15.073 4.88944L15.4262 3.16368C15.4693 2.95284 15.3727 2.73804 15.1863 2.63043L13.8366 1.85119C13.6503 1.74358 13.4159 1.76731 13.2549 1.9101L11.9355 3.08006C11.8161 3.18592 11.6534 3.22845 11.4975 3.19453C10.5184 2.98152 9.50423 2.97943 8.52371 3.1929ZM12.0115 13.4991C10.0983 14.6037 7.65194 13.9482 6.54737 12.035C5.4428 10.1219 6.0983 7.6755 8.01147 6.57094C9.92465 5.46637 12.371 6.12187 13.4756 8.03504C14.5801 9.94821 13.9246 12.3946 12.0115 13.4991ZM11.5115 12.6331C12.9464 11.8047 13.438 9.96991 12.6096 8.53504C11.7811 7.10016 9.94635 6.60853 8.51147 7.43696C7.0766 8.26539 6.58497 10.1001 7.4134 11.535C8.24183 12.9699 10.0766 13.4615 11.5115 12.6331Z" fill="#FF00FF"/>
</g>
<defs>
<clipPath id="clip0_341_2908">
<rect width="20" height="20" fill="white"/>
</clipPath>
</defs>
</svg>
