<svg width="16" height="16" viewBox="0 0 16 16" fill="none" xmlns="http://www.w3.org/2000/svg">
<g clip-path="url(#clip0_1_228)">
<path fill-rule="evenodd" clip-rule="evenodd" d="M13.6667 1.78828L13.6633 1.78535C13.6533 1.77679 13.6392 1.76478 13.6209 1.74965C13.5845 1.71941 13.5316 1.67673 13.463 1.62451C13.3261 1.52012 13.1265 1.37731 12.871 1.21941C12.3608 0.904048 11.6234 0.525779 10.7141 0.274997C8.88303 -0.229999 6.37633 -0.210089 3.66834 1.82265L3.66709 1.82358L3.66585 1.82453L3.72549 1.90246C3.66581 1.82458 3.66594 1.82446 3.66585 1.82453L3.66436 1.82567L3.66184 1.82762L3.65374 1.83397C3.64701 1.83928 3.63764 1.84675 3.6258 1.85638C3.60215 1.87564 3.56864 1.90353 3.52674 1.93998C3.4726 1.98706 3.40438 2.0485 3.32522 2.12412C3.11773 2.2728 2.94021 2.46066 2.80348 2.67687C2.6051 2.90852 2.38905 3.1869 2.17464 3.51109C1.44648 4.61206 0.73473 6.24606 0.804764 8.36808C0.875252 10.5038 1.81054 12.0746 2.72067 13.1055C3.17552 13.6207 3.6259 14.0034 3.96358 14.258C4.1326 14.3854 4.27392 14.4811 4.37419 14.5457C4.42435 14.578 4.46428 14.6026 4.49235 14.6194C4.50638 14.6278 4.51745 14.6342 4.52535 14.6388L4.52714 14.6398L4.53201 14.643C4.54156 14.6493 4.55511 14.658 4.57252 14.669C4.60733 14.6909 4.65765 14.7217 4.72252 14.7592C4.8522 14.8342 5.04032 14.9363 5.2792 15.0481C5.75639 15.2712 6.43954 15.5344 7.26639 15.6954C8.92207 16.0178 11.1518 15.9286 13.4342 14.3026L13.4448 14.2966C13.4633 14.2861 13.4891 14.271 13.5208 14.2515C13.5839 14.2126 13.671 14.1557 13.7707 14.0814C13.9685 13.934 14.2247 13.7119 14.4413 13.419C14.6584 13.1254 14.8433 12.7499 14.8777 12.3019C14.9125 11.8495 14.7913 11.3558 14.4505 10.8351L14.4369 10.8142L14.4202 10.7956L14.1693 11.0192C14.4202 10.7956 14.4203 10.7957 14.4202 10.7956L14.4193 10.7945L14.4178 10.7929L14.4137 10.7883L14.4 10.7736C14.3885 10.7614 14.3725 10.7448 14.3521 10.7246C14.3115 10.6843 14.2534 10.6294 14.1805 10.5678C14.0362 10.4462 13.826 10.2922 13.572 10.177C13.318 10.0618 13.0043 9.97848 12.6632 10.0222C12.315 10.0667 11.9725 10.2392 11.6628 10.5768C11.1863 11.0961 10.3133 11.6502 9.28103 11.8044C8.26543 11.9561 7.08193 11.7236 5.94227 10.6532C4.83704 9.61512 4.56978 8.00224 5.04211 6.61494C5.51078 5.23839 6.69516 4.12219 8.46791 4.05425L8.78239 4.04219C8.94023 4.04508 9.15439 4.06044 9.40463 4.10752C9.95239 4.21062 10.6693 4.46497 11.3499 5.07251L11.3561 5.07927C11.3687 5.09286 11.3863 5.11148 11.4087 5.134C11.4535 5.17894 11.5177 5.23997 11.5989 5.30782C11.7597 5.44221 11.9953 5.61019 12.2845 5.72982C12.5752 5.85004 12.9302 5.92528 13.3189 5.85748C13.7107 5.78913 14.1052 5.58082 14.48 5.1871C14.8699 4.77748 15.026 4.33557 15.0121 3.90098C14.9988 3.4791 14.8267 3.09946 14.6269 2.79459C14.4258 2.48789 14.1824 2.23497 13.9933 2.06097C13.8981 1.97322 13.8145 1.90373 13.7542 1.85566C13.724 1.83158 13.6994 1.81278 13.682 1.79964L13.6667 1.78828ZM3.66364 2.73403C3.56903 2.82962 3.46256 2.94298 3.34886 3.07386C3.2358 3.26701 3.17099 3.49183 3.17099 3.73179C3.17099 4.45208 3.7549 5.03599 4.47519 5.03599C5.19548 5.03599 5.77939 4.45208 5.77939 3.73179C5.77939 3.0115 5.19548 2.42759 4.47519 2.42759C4.2079 2.42759 3.95939 2.508 3.75253 2.64594C3.7243 2.67338 3.69462 2.70274 3.66364 2.73403ZM1.47667 8.34592C1.41824 6.57576 1.94983 5.17826 2.5492 4.17756C2.75133 5.05445 3.53691 5.70826 4.47519 5.70826C4.5549 5.70826 4.6335 5.70354 4.71074 5.69437C4.58997 5.92054 4.4881 6.15628 4.40572 6.39826C3.99584 7.60208 4.06123 8.982 4.68978 10.1228C4.64552 10.1198 4.60087 10.1183 4.55585 10.1183C3.5502 10.1183 2.71997 10.8694 2.5955 11.8413C2.00632 10.9509 1.52433 9.79024 1.47667 8.34592ZM4.84955 14.0496C4.855 14.0529 4.85932 14.0554 4.86245 14.0572L4.86816 14.0605L4.88042 14.0674L4.89166 14.075L4.89286 14.0758L4.89958 14.0802C4.90601 14.0844 4.91634 14.091 4.93043 14.0999C4.95862 14.1176 5.00185 14.1442 5.05918 14.1773C5.17388 14.2437 5.34468 14.3366 5.564 14.4391C6.0032 14.6445 6.63349 14.8872 7.39488 15.0355C8.91175 15.3308 10.9509 15.253 13.0594 13.7442L13.0779 13.731L13.0973 13.7207L13.098 13.7203L13.0997 13.7194L13.1126 13.7122C13.1248 13.7052 13.1437 13.6942 13.1682 13.6791C13.2172 13.649 13.2875 13.603 13.3691 13.5423C13.5338 13.4195 13.7357 13.2425 13.9007 13.0194C14.065 12.7971 14.1852 12.5398 14.2074 12.2503C14.2289 11.9708 14.1616 11.6303 13.9033 11.2269C13.8969 11.2202 13.8885 11.2117 13.8784 11.2016C13.8487 11.1721 13.8041 11.1298 13.7472 11.0818C13.6317 10.9846 13.4739 10.8706 13.2943 10.7892C13.1147 10.7078 12.9292 10.6658 12.7485 10.689C12.5748 10.7112 12.3727 10.7975 12.1581 11.0314C11.5859 11.655 10.5765 12.2906 9.38031 12.4693C8.48839 12.6025 7.50004 12.4799 6.52492 11.9226C6.52982 11.9794 6.53232 12.0368 6.53232 12.0948C6.53232 13.0866 5.80184 13.9078 4.84955 14.0496ZM6.45166 3.73179C6.45166 3.79542 6.44865 3.85834 6.44277 3.92042C7.00983 3.60843 7.67471 3.41382 8.42911 3.38299L8.44039 3.38182C8.45631 3.38022 8.47831 3.37826 8.50607 3.37636C8.56151 3.37258 8.63999 3.36906 8.73767 3.36942C8.93295 3.3701 9.20663 3.38619 9.52895 3.44685C10.1743 3.5683 11.0181 3.86935 11.8126 4.58448L11.8281 4.59839L11.841 4.61327L11.8417 4.6141L11.8497 4.62282C11.857 4.63081 11.869 4.64347 11.8853 4.65976C11.9177 4.69244 11.9669 4.73919 12.03 4.79193C12.1577 4.89871 12.3349 5.02317 12.5414 5.10858C12.7465 5.1934 12.9705 5.23582 13.2033 5.19521C13.4329 5.15516 13.7023 5.02901 13.993 4.72358C14.2687 4.43403 14.3479 4.16334 14.3402 3.9223C14.3322 3.66855 14.2261 3.40953 14.0646 3.16314C13.9043 2.91858 13.7033 2.70763 13.5381 2.55558C13.4563 2.48031 13.3853 2.42122 13.3353 2.38149C13.3105 2.36166 13.2909 2.34674 13.2781 2.33714L13.2642 2.32679L13.2615 2.32478L13.2465 2.31415L13.2333 2.30228L13.232 2.30111L13.2247 2.29486C13.2179 2.28896 13.2069 2.27964 13.192 2.26726C13.1621 2.2425 13.1163 2.20553 13.0555 2.15917C12.9338 2.06639 12.7522 1.9363 12.5176 1.79126C12.0475 1.50074 11.3689 1.15296 10.5353 0.923072C9.06335 0.51709 7.09123 0.472486 4.89794 1.80064C5.78638 1.99422 6.45166 2.78532 6.45166 3.73179ZM3.25165 12.0948C3.25165 11.3746 3.83556 10.7906 4.55585 10.7906C5.27614 10.7906 5.86005 11.3746 5.86005 12.0948C5.86005 12.8151 5.27614 13.399 4.55585 13.399C3.83556 13.399 3.25165 12.8151 3.25165 12.0948Z" fill="#FF00FF"/>
</g>
<defs>
<clipPath id="clip0_1_228">
<rect width="16" height="16" fill="white"/>
</clipPath>
</defs>
</svg>
