<svg width="16" height="16" viewBox="0 0 16 16" fill="none" xmlns="http://www.w3.org/2000/svg">
<g clip-path="url(#clip0_1_230)">
<path d="M5.72976 11.169C4.8877 10.3294 4.41444 9.18911 4.41444 7.99999C4.41444 6.81083 4.8877 5.67057 5.72976 4.83091C6.41279 4.14789 6.41279 3.0405 5.72976 2.35748C5.04675 1.67446 3.93936 1.67446 3.25634 2.35748C1.77624 3.86336 0.943988 5.88852 0.9375 7.99999C0.958492 10.1086 1.7886 12.1285 3.25634 13.6425C3.69817 14.0843 4.34216 14.2569 4.94572 14.0952C5.54928 13.9334 6.02072 13.462 6.18244 12.8585C6.34416 12.2549 6.1716 11.6109 5.72976 11.169Z" fill="#FFD85F"/>
<path d="M5.72983 4.83091C6.5695 3.98884 7.70976 3.51557 8.89888 3.51557C10.0881 3.51557 11.2283 3.98884 12.068 4.83091C12.751 5.51392 13.8584 5.51392 14.5414 4.83091C15.2245 4.14788 15.2245 3.04049 14.5414 2.35748C13.0355 0.877388 11.0104 0.0451295 8.89888 0.0386353C6.79036 0.0596323 4.77042 0.889748 3.25641 2.35748C2.57338 3.04049 2.57338 4.14788 3.25641 4.83091C3.93942 5.51392 5.04682 5.51392 5.72983 4.83091Z" fill="#3BB4E7"/>
<path d="M12.068 11.169C11.2283 12.0111 10.0881 12.4844 8.89888 12.4844C7.70976 12.4844 6.5695 12.0111 5.72983 11.169C5.04682 10.4861 3.93942 10.4861 3.25641 11.169C2.57338 11.8521 2.57338 12.9595 3.25641 13.6425C4.76229 15.1227 6.78745 15.9549 8.89888 15.9614C11.0074 15.9403 13.0274 15.1103 14.5414 13.6425C14.9833 13.2007 15.1558 12.5567 14.9941 11.9531C14.8324 11.3496 14.361 10.8782 13.7574 10.7164C13.1538 10.5547 12.5098 10.7273 12.068 11.169Z" fill="#ED5C68"/>
<path d="M5.78474 4.85382C6.47877 4.15931 6.47838 3.03368 5.78386 2.33966C5.08936 1.64563 3.96374 1.64603 3.26971 2.34054C2.57569 3.03504 2.57608 4.16067 3.27058 4.8547C3.9651 5.54871 5.09072 5.54832 5.78474 4.85382Z" fill="#308BC5"/>
<path d="M5.77675 13.6562C6.47077 12.9617 6.47038 11.8361 5.77587 11.1421C5.08137 10.4481 3.95574 10.4485 3.26172 11.1429C2.56769 11.8375 2.56809 12.9631 3.26259 13.6571C3.9571 14.3512 5.08273 14.3508 5.77675 13.6562Z" fill="#D5465F"/>
</g>
<defs>
<clipPath id="clip0_1_230">
<rect width="16" height="16" fill="white"/>
</clipPath>
</defs>
</svg>
