<svg width="16" height="16" viewBox="0 0 16 16" fill="none" xmlns="http://www.w3.org/2000/svg">
<g clip-path="url(#clip0_1406_3499)">
<path d="M5.72976 11.169C4.8877 10.3294 4.41444 9.18911 4.41444 7.99999C4.41444 6.81083 4.8877 5.67057 5.72976 4.83091C6.41279 4.14789 6.41279 3.0405 5.72976 2.35748C5.04675 1.67446 3.93936 1.67446 3.25634 2.35748C1.77624 3.86336 0.943988 5.88852 0.9375 7.99999C0.958492 10.1086 1.7886 12.1285 3.25634 13.6425C3.69817 14.0843 4.34216 14.2569 4.94572 14.0952C5.54928 13.9334 6.02072 13.462 6.18244 12.8585C6.34416 12.2549 6.1716 11.6109 5.72976 11.169Z" fill="#FFD85F"/>
<path d="M5.72983 4.83097C6.5695 3.9889 7.70976 3.51563 8.89888 3.51563C10.0881 3.51563 11.2283 3.9889 12.068 4.83097C12.751 5.51399 13.8584 5.51399 14.5414 4.83097C15.2245 4.14794 15.2245 3.04055 14.5414 2.35754C13.0355 0.877449 11.0104 0.0451905 8.89888 0.0386963C6.79036 0.0596933 4.77042 0.889809 3.25641 2.35754C2.57338 3.04055 2.57338 4.14794 3.25641 4.83097C3.93942 5.51399 5.04682 5.51399 5.72983 4.83097Z" fill="#3BB4E7"/>
<path d="M12.068 11.169C11.2283 12.0111 10.0881 12.4843 8.89888 12.4843C7.70976 12.4843 6.5695 12.0111 5.72983 11.169C5.04682 10.486 3.93942 10.486 3.25641 11.169C2.57338 11.852 2.57338 12.9595 3.25641 13.6424C4.76229 15.1226 6.78745 15.9548 8.89888 15.9613C11.0074 15.9403 13.0274 15.1102 14.5414 13.6424C14.9833 13.2006 15.1558 12.5567 14.9941 11.9531C14.8324 11.3495 14.361 10.8781 13.7574 10.7163C13.1538 10.5547 12.5098 10.7272 12.068 11.169Z" fill="#ED5C68"/>
<path d="M5.78481 4.85376C6.47883 4.15925 6.47844 3.03362 5.78393 2.3396C5.08942 1.64557 3.9638 1.64597 3.26977 2.34048C2.57575 3.03498 2.57614 4.16061 3.27065 4.85464C3.96516 5.54865 5.09078 5.54826 5.78481 4.85376Z" fill="#308BC5"/>
<path d="M5.77699 13.6562C6.47102 12.9617 6.47063 11.8361 5.77611 11.1421C5.08161 10.4481 3.95599 10.4485 3.26196 11.1429C2.56794 11.8375 2.56833 12.9631 3.26283 13.6571C3.95735 14.3512 5.08297 14.3508 5.77699 13.6562Z" fill="#D5465F"/>
</g>
<defs>
<clipPath id="clip0_1406_3499">
<rect width="16" height="16" fill="white"/>
</clipPath>
</defs>
</svg>
