<svg width="16" height="16" viewBox="0 0 16 16" fill="none" xmlns="http://www.w3.org/2000/svg">
<g clip-path="url(#clip0_1406_3500)">
<path fill-rule="evenodd" clip-rule="evenodd" d="M13.6665 1.78828L13.6632 1.78535C13.6532 1.77679 13.639 1.76478 13.6208 1.74965C13.5843 1.71941 13.5314 1.67673 13.4628 1.62451C13.3259 1.52012 13.1263 1.37731 12.8708 1.21941C12.3606 0.904048 11.6232 0.525779 10.714 0.274997C8.88285 -0.229999 6.37615 -0.210089 3.66816 1.82265L3.66691 1.82358L3.66567 1.82453L3.72531 1.90246C3.66563 1.82458 3.66576 1.82446 3.66567 1.82453L3.66418 1.82567L3.66166 1.82762L3.65356 1.83397C3.64683 1.83928 3.63745 1.84675 3.62562 1.85638C3.60197 1.87564 3.56846 1.90353 3.52656 1.93998C3.47241 1.98706 3.4042 2.0485 3.32504 2.12412C3.11755 2.2728 2.94003 2.46066 2.8033 2.67687C2.60492 2.90852 2.38887 3.1869 2.17445 3.51109C1.4463 4.61206 0.734547 6.24606 0.804581 8.36808C0.875069 10.5038 1.81036 12.0746 2.72049 13.1055C3.17533 13.6207 3.62572 14.0034 3.9634 14.258C4.13241 14.3854 4.27373 14.4811 4.37401 14.5457C4.42417 14.578 4.4641 14.6026 4.49217 14.6194C4.5062 14.6278 4.51727 14.6342 4.52517 14.6388L4.52696 14.6398L4.53183 14.643C4.54138 14.6493 4.55493 14.658 4.57233 14.669C4.60715 14.6909 4.65747 14.7217 4.72233 14.7592C4.85201 14.8342 5.04014 14.9363 5.27901 15.0481C5.75621 15.2712 6.43936 15.5344 7.26621 15.6954C8.92189 16.0178 11.1516 15.9286 13.434 14.3026L13.4446 14.2966C13.4632 14.2861 13.4889 14.271 13.5206 14.2515C13.5837 14.2126 13.6708 14.1557 13.7705 14.0814C13.9684 13.934 14.2245 13.7119 14.4411 13.419C14.6582 13.1254 14.8431 12.7499 14.8776 12.3019C14.9124 11.8495 14.7912 11.3558 14.4504 10.8351L14.4367 10.8142L14.42 10.7956L14.1691 11.0192C14.42 10.7956 14.4201 10.7957 14.42 10.7956L14.4191 10.7945L14.4176 10.7929L14.4135 10.7883L14.3998 10.7736C14.3884 10.7614 14.3723 10.7448 14.352 10.7246C14.3113 10.6843 14.2532 10.6294 14.1803 10.5678C14.036 10.4462 13.8258 10.2922 13.5718 10.177C13.3178 10.0618 13.0041 9.97848 12.663 10.0222C12.3148 10.0667 11.9724 10.2392 11.6626 10.5768C11.1861 11.0961 10.3132 11.6502 9.28085 11.8044C8.26525 11.9561 7.08175 11.7236 5.94208 10.6532C4.83686 9.61512 4.5696 8.00224 5.04193 6.61494C5.5106 5.23839 6.69497 4.12219 8.46773 4.05425L8.78221 4.04219C8.94005 4.04508 9.15421 4.06044 9.40445 4.10752C9.95221 4.21062 10.6692 4.46497 11.3497 5.07251L11.356 5.07927C11.3685 5.09286 11.3861 5.11148 11.4085 5.134C11.4533 5.17894 11.5176 5.23997 11.5988 5.30782C11.7596 5.44221 11.9951 5.61019 12.2844 5.72982C12.575 5.85004 12.93 5.92528 13.3187 5.85748C13.7105 5.78913 14.105 5.58082 14.4798 5.1871C14.8697 4.77748 15.0258 4.33557 15.012 3.90098C14.9986 3.4791 14.8265 3.09946 14.6267 2.79459C14.4256 2.48789 14.1822 2.23497 13.9932 2.06097C13.8979 1.97322 13.8144 1.90373 13.754 1.85566C13.7238 1.83158 13.6992 1.81278 13.6818 1.79964L13.6665 1.78828ZM3.66346 2.73403C3.56885 2.82962 3.46238 2.94298 3.34868 3.07386C3.23561 3.26701 3.17081 3.49183 3.17081 3.73179C3.17081 4.45208 3.75472 5.03599 4.47501 5.03599C5.19529 5.03599 5.77921 4.45208 5.77921 3.73179C5.77921 3.0115 5.19529 2.42759 4.47501 2.42759C4.20772 2.42759 3.95921 2.508 3.75235 2.64594C3.72412 2.67338 3.69444 2.70274 3.66346 2.73403ZM1.47649 8.34592C1.41806 6.57576 1.94965 5.17826 2.54901 4.17756C2.75115 5.05445 3.53672 5.70826 4.47501 5.70826C4.55472 5.70826 4.63332 5.70354 4.71056 5.69437C4.58979 5.92054 4.48792 6.15628 4.40553 6.39826C3.99566 7.60208 4.06104 8.982 4.6896 10.1228C4.64534 10.1198 4.60069 10.1183 4.55567 10.1183C3.55002 10.1183 2.71979 10.8694 2.59532 11.8413C2.00613 10.9509 1.52415 9.79024 1.47649 8.34592ZM4.84937 14.0496C4.85482 14.0529 4.85914 14.0554 4.86227 14.0572L4.86797 14.0605L4.88024 14.0674L4.89148 14.075L4.89268 14.0758L4.8994 14.0802C4.90583 14.0844 4.91616 14.091 4.93025 14.0999C4.95844 14.1176 5.00167 14.1442 5.059 14.1773C5.17369 14.2437 5.3445 14.3366 5.56381 14.4391C6.00301 14.6445 6.63331 14.8872 7.39469 15.0355C8.91157 15.3308 10.9507 15.253 13.0592 13.7442L13.0777 13.731L13.0971 13.7207L13.0978 13.7203L13.0995 13.7194L13.1124 13.7122C13.1246 13.7052 13.1436 13.6942 13.168 13.6791C13.217 13.649 13.2873 13.603 13.3689 13.5423C13.5336 13.4195 13.7356 13.2425 13.9005 13.0194C14.0648 12.7971 14.185 12.5398 14.2072 12.2503C14.2288 11.9708 14.1614 11.6303 13.9032 11.2269C13.8967 11.2202 13.8884 11.2117 13.8782 11.2016C13.8485 11.1721 13.8039 11.1298 13.747 11.0818C13.6316 10.9846 13.4737 10.8706 13.2941 10.7892C13.1145 10.7078 12.929 10.6658 12.7484 10.689C12.5746 10.7112 12.3725 10.7975 12.158 11.0314C11.5857 11.655 10.5763 12.2906 9.38013 12.4693C8.48821 12.6025 7.49986 12.4799 6.52473 11.9226C6.52964 11.9794 6.53214 12.0368 6.53214 12.0948C6.53214 13.0866 5.80165 13.9078 4.84937 14.0496ZM6.45148 3.73179C6.45148 3.79542 6.44847 3.85834 6.44259 3.92042C7.00965 3.60843 7.67453 3.41382 8.42893 3.38299L8.44021 3.38182C8.45613 3.38022 8.47813 3.37826 8.50589 3.37636C8.56133 3.37258 8.63981 3.36906 8.73749 3.36942C8.93277 3.3701 9.20645 3.38619 9.52877 3.44685C10.1741 3.5683 11.0179 3.86935 11.8124 4.58448L11.8279 4.59839L11.8408 4.61327L11.8416 4.6141L11.8495 4.62282C11.8568 4.63081 11.8688 4.64347 11.8851 4.65976C11.9176 4.69244 11.9667 4.73919 12.0298 4.79193C12.1576 4.89871 12.3348 5.02317 12.5412 5.10858C12.7464 5.1934 12.9704 5.23582 13.2032 5.19521C13.4328 5.15516 13.7021 5.02901 13.9928 4.72358C14.2685 4.43403 14.3477 4.16334 14.34 3.9223C14.332 3.66855 14.226 3.40953 14.0644 3.16314C13.9041 2.91858 13.7031 2.70763 13.5379 2.55558C13.4561 2.48031 13.3851 2.42122 13.3352 2.38149C13.3103 2.36166 13.2908 2.34674 13.278 2.33714L13.264 2.32679L13.2613 2.32478L13.2464 2.31415L13.2331 2.30228L13.2318 2.30111L13.2245 2.29486C13.2177 2.28896 13.2068 2.27964 13.1918 2.26726C13.162 2.2425 13.1161 2.20553 13.0553 2.15917C12.9336 2.06639 12.752 1.9363 12.5174 1.79126C12.0473 1.50074 11.3688 1.15296 10.5352 0.923072C9.06317 0.51709 7.09105 0.472486 4.89776 1.80064C5.7862 1.99422 6.45148 2.78532 6.45148 3.73179ZM3.25147 12.0948C3.25147 11.3746 3.83538 10.7906 4.55567 10.7906C5.27596 10.7906 5.85987 11.3746 5.85987 12.0948C5.85987 12.8151 5.27596 13.399 4.55567 13.399C3.83538 13.399 3.25147 12.8151 3.25147 12.0948Z" fill="#FF00FF"/>
</g>
<defs>
<clipPath id="clip0_1406_3500">
<rect width="16" height="16" fill="white"/>
</clipPath>
</defs>
</svg>
