<svg width="16" height="16" viewBox="0 0 16 16" fill="none" xmlns="http://www.w3.org/2000/svg">
<path d="M5.59226 11.1691C4.75019 10.3294 4.27693 9.18915 4.27693 7.99999C4.27693 6.81083 4.75019 5.67057 5.59226 4.83091C6.27528 4.14789 6.27528 3.0405 5.59226 2.35748C4.90924 1.67446 3.80185 1.67446 3.11883 2.35748C1.63874 3.86336 0.806482 5.88852 0.799988 7.99999C0.820985 10.1086 1.6511 12.1285 3.11883 13.6425C3.56066 14.0843 4.20465 14.2569 4.80821 14.0952C5.41177 13.9334 5.8832 13.462 6.04493 12.8585C6.20665 12.2549 6.03409 11.6109 5.59226 11.1691Z" fill="#FFD85F"/>
<path d="M5.59226 4.83084C6.43192 3.98878 7.57219 3.51551 8.76134 3.51551C9.9505 3.51551 11.0908 3.98878 11.9304 4.83084C12.6134 5.51386 13.7208 5.51386 14.4039 4.83084C15.0869 4.14783 15.0869 3.04043 14.4039 2.35741C12.898 0.877324 10.8728 0.0450684 8.76134 0.0385742C6.65278 0.0595712 4.63284 0.889684 3.11883 2.35741C2.43581 3.04043 2.43581 4.14783 3.11883 4.83084C3.80185 5.51386 4.90924 5.51386 5.59226 4.83084Z" fill="#3BB4E7"/>
<path d="M11.9304 11.169C11.0908 12.0111 9.9505 12.4844 8.76134 12.4844C7.57219 12.4844 6.43192 12.0111 5.59226 11.169C4.90924 10.486 3.80185 10.486 3.11883 11.169C2.43581 11.8521 2.43581 12.9595 3.11883 13.6425C4.62472 15.1226 6.64987 15.9548 8.76134 15.9613C10.8699 15.9403 12.8898 15.1102 14.4039 13.6425C14.8457 13.2006 15.0182 12.5566 14.8565 11.9531C14.6948 11.3495 14.2234 10.8781 13.6198 10.7164C13.0163 10.5547 12.3723 10.7272 11.9304 11.169Z" fill="#ED5C68"/>
<path d="M5.64716 4.85391C6.34119 4.1594 6.34079 3.03377 5.64629 2.33975C4.95178 1.64573 3.82615 1.64612 3.13213 2.34063C2.43811 3.03513 2.4385 4.16076 3.13301 4.85478C3.82751 5.54881 4.95314 5.54841 5.64716 4.85391Z" fill="#308BC5"/>
<path d="M5.63917 13.6562C6.33319 12.9616 6.3328 11.836 5.63829 11.142C4.94378 10.448 3.81816 10.4484 3.12413 11.1429C2.43011 11.8374 2.4305 12.963 3.12501 13.657C3.81952 14.3511 4.94514 14.3507 5.63917 13.6562Z" fill="#D5465F"/>
</svg>
