<svg width="16" height="16" viewBox="0 0 16 16" fill="none" xmlns="http://www.w3.org/2000/svg">
<g clip-path="url(#clip0_348_3682)">
<circle cx="8" cy="8" r="8" fill="#0056D2"/>
<path fill-rule="evenodd" clip-rule="evenodd" d="M9.69015 3.1336C10.72 3.40775 11.7561 4.07615 12.449 4.9136L12.7377 5.2625L11.6985 5.87357C11.127 6.20961 10.6309 6.48456 10.5961 6.48456C10.5614 6.48456 10.4026 6.35007 10.2433 6.18576C9.72784 5.6539 9.21865 5.45762 8.35468 5.45762C7.50696 5.45762 7.19138 5.5704 6.58352 6.09075C6.04468 6.55198 5.73883 7.24307 5.74562 7.98425C5.7525 8.73562 5.98334 9.27847 6.52699 9.82212C7.55215 10.8474 9.19445 10.8326 10.2382 9.7889L10.6589 9.36821L11.6719 9.97902C12.229 10.3149 12.6988 10.6316 12.7159 10.6829C12.7329 10.7341 12.4317 11.0897 12.0466 11.4732C10.9498 12.565 9.8959 13.0013 8.35468 13.0013C6.84409 13.0013 5.74973 12.5587 4.73439 11.5374C3.9791 10.7775 3.51698 9.93946 3.31686 8.96637C3.1404 8.10847 3.14049 7.89647 3.31703 7.03893C3.52903 6.00957 3.91364 5.30366 4.69341 4.51256C5.39128 3.8046 6.0971 3.38024 6.98018 3.1378C7.57367 2.97482 9.08479 2.9725 9.69015 3.1336Z" fill="white"/>
</g>
<defs>
<clipPath id="clip0_348_3682">
<rect width="16" height="16" fill="white"/>
</clipPath>
</defs>
</svg>
