<svg width="16" height="16" viewBox="0 0 16 16" fill="none" xmlns="http://www.w3.org/2000/svg">
<g clip-path="url(#clip0_1406_3497)">
<mask id="mask0_1406_3497" style="mask-type:luminance" maskUnits="userSpaceOnUse" x="0" y="0" width="16" height="16">
<path d="M16 0H0V16H16V0Z" fill="white"/>
</mask>
<g mask="url(#mask0_1406_3497)">
<path d="M3.26364 12.7369L0.526891 10.0002C0.202498 9.66672 0.000488281 9.1964 0.000488281 8.73704C0.000488281 8.52448 0.12091 8.19184 0.211128 8.0004L2.73723 2.73755L3.26364 12.7369Z" fill="#01579B"/>
<path d="M12.6318 3.26352L9.89506 0.526769C9.65578 0.286711 9.15842 0.000366211 8.73714 0.000366211C8.37546 0.000366211 8.0201 0.0725407 7.78982 0.211006L2.73682 2.73711L12.6318 3.26352Z" fill="#40C4FF"/>
<path d="M6.52693 15.9995H13.1579V13.1577L8.2113 11.5789L3.68506 13.1577L6.52693 15.9995Z" fill="#40C4FF"/>
<path d="M2.7373 11.263C2.7373 12.1072 2.84321 12.3147 3.2637 12.7368L3.68459 13.1577H13.1579L8.52652 7.89479L2.7373 2.73706V11.263Z" fill="#29B6F6"/>
<path d="M11.1578 2.73706H2.7373L13.1579 13.1577H15.9998V6.63173L12.6315 3.26346C12.1584 2.78844 11.738 2.73706 11.1578 2.73706Z" fill="#01579B"/>
<path opacity="0.2" d="M3.36882 12.8419C2.94794 12.419 2.84242 12.0029 2.84242 11.263V2.84218L2.7373 2.73706V11.263C2.7373 12.0029 2.7373 12.208 3.36882 12.8419Z" fill="white"/>
<path opacity="0.2" d="M15.895 6.52625V13.0525H13.0522L13.1578 13.1577H16.0001V6.63176L15.895 6.52625Z" fill="#263238"/>
<path opacity="0.2" d="M12.6315 3.26346C12.1098 2.74176 11.6819 2.73706 11.0527 2.73706H2.7373L2.84242 2.84218H11.0527C11.3668 2.84218 12.1592 2.78962 12.6315 3.26346Z" fill="white"/>
<path opacity="0.2" d="M15.8949 6.5263L12.6317 3.26315L9.89496 0.526403C9.65568 0.286345 9.15832 0 8.73704 0C8.37536 0 8.02 0.0721746 7.78975 0.21064L2.73674 2.73675L0.21064 7.99961C0.120422 8.19104 0 8.52368 0 8.73624C0 9.196 0.20201 9.66592 0.526403 9.99928L3.04859 12.503C3.10899 12.5768 3.1796 12.6521 3.26315 12.7361L3.36827 12.8412L3.68404 13.157L6.42078 15.8937L6.52591 15.9988H13.0518H13.157V13.157H15.9988V13.1495V6.63182L15.8949 6.5263Z" fill="url(#paint0_radial_1406_3497)"/>
</g>
</g>
<defs>
<radialGradient id="paint0_radial_1406_3497" cx="0" cy="0" r="1" gradientUnits="userSpaceOnUse" gradientTransform="translate(7.99961 7.99929) scale(7.99941)">
<stop stop-color="white" stop-opacity="0.1"/>
<stop offset="1" stop-color="white" stop-opacity="0"/>
</radialGradient>
<clipPath id="clip0_1406_3497">
<rect width="16" height="16" fill="white"/>
</clipPath>
</defs>
</svg>
