<svg width="16" height="16" viewBox="0 0 16 16" fill="none" xmlns="http://www.w3.org/2000/svg">
<g clip-path="url(#clip0_348_3724)">
<path opacity="0.3" fill-rule="evenodd" clip-rule="evenodd" d="M12.6098 3.24085L9.89553 0.526617C9.65691 0.286818 9.1585 0 8.73768 0C8.37563 0 8.02063 0.0728801 7.79024 0.210412L2.738 2.73653L2.73812 2.73654H2.737L2.73972 2.73925L2.738 2.73772V2.76453L2.73653 2.73654L0.210412 7.99918C0.119899 8.19079 0 8.52345 0 8.73621C0 9.19583 0.202183 9.66602 0.526617 9.99986L3.26315 12.7364L3.26313 12.7361L3.26462 12.7376L3.68544 13.1584H3.68651L6.52646 15.9995H13.1585V13.1584H13.1587L13.1585 13.1582V13.1572H16V6.63092L12.6322 3.26315C12.6247 3.25561 12.6172 3.24818 12.6098 3.24085Z" fill="#FF00FF"/>
<path opacity="0.4" fill-rule="evenodd" clip-rule="evenodd" d="M2.73976 2.73932L13.1573 13.1569L13.1587 13.1585H3.68548L3.26465 12.7376C2.84383 12.3156 2.73804 12.1076 2.73804 11.2636V2.73779L2.73976 2.73932Z" fill="#FF00FF"/>
<path fill-rule="evenodd" clip-rule="evenodd" d="M3.26315 12.7362L0.526617 9.99965C0.202183 9.66581 0 9.19562 0 8.736C0 8.52324 0.119899 8.19058 0.210412 7.99897L2.73653 2.73633L2.738 2.76432V11.2633C2.738 12.1063 2.84355 12.3149 3.26313 12.7359L3.26315 12.7362ZM13.1573 13.1566L13.1577 13.157H16V6.63071L12.6322 3.26295C12.1597 2.78805 11.7389 2.73633 11.1582 2.73633H2.737L2.73972 2.73905L13.1573 13.1566Z" fill="#FF00FF"/>
</g>
<defs>
<clipPath id="clip0_348_3724">
<rect width="16" height="16" fill="white"/>
</clipPath>
</defs>
</svg>
