<svg width="16" height="16" viewBox="0 0 16 16" fill="none" xmlns="http://www.w3.org/2000/svg">
<g clip-path="url(#clip0_348_3711)">
<path d="M3.26346 12.7366L0.526708 9.99988C0.202315 9.66646 0.000305176 9.19615 0.000305176 8.73682C0.000305176 8.52422 0.120727 8.19159 0.210945 8.00017L2.73705 2.7373L3.26346 12.7366Z" fill="#01579B"/>
<path d="M12.6317 3.26364L9.89492 0.526892C9.65564 0.286833 9.15827 0.000488281 8.73699 0.000488281C8.37533 0.000488281 8.01995 0.0726628 7.7897 0.211128L2.73669 2.73724L12.6317 3.26364Z" fill="#40C4FF"/>
<path d="M6.52681 15.9998H13.1578V13.1579L8.21114 11.5791L3.68494 13.1579L6.52681 15.9998Z" fill="#40C4FF"/>
<path d="M2.73749 11.2633C2.73749 12.1074 2.8434 12.3149 3.26389 12.737L3.68478 13.1579H13.1581L8.52675 7.89504L2.73749 2.7373V11.2633Z" fill="#29B6F6"/>
<path d="M11.158 2.7373H2.73749L13.1581 13.1579H15.9999V6.63198L12.6317 3.26371C12.1586 2.78869 11.7381 2.7373 11.158 2.7373Z" fill="#01579B"/>
<path opacity="0.2" d="M3.36901 12.8421C2.94813 12.4193 2.84261 12.0031 2.84261 11.2633V2.84243L2.73749 2.7373V11.2633C2.73749 12.0031 2.73749 12.2082 3.36901 12.8421L3.68478 13.1579L3.36901 12.8421Z" fill="white"/>
<path opacity="0.2" d="M15.8949 6.52637V13.0527H13.0522L13.1578 13.1578H16V6.63188L15.8949 6.52637Z" fill="#263238"/>
<path opacity="0.2" d="M12.6317 3.26371C12.11 2.74201 11.682 2.7373 11.0529 2.7373H2.73749L2.84261 2.84243H11.0529C11.3671 2.84243 12.1594 2.78987 12.6317 3.26371Z" fill="white"/>
<path opacity="0.2" d="M15.8949 6.5263L12.6317 3.26315L9.89497 0.526403C9.6557 0.286345 9.15832 0 8.73704 0C8.37538 0 8.02 0.0721745 7.78975 0.21064L2.73675 2.73675L0.21064 7.99961C0.120422 8.19102 0 8.52365 0 8.73626C0 9.19598 0.20201 9.66589 0.526403 9.99931L3.04859 12.5031C3.109 12.5768 3.1796 12.6521 3.26315 12.7361L3.36827 12.8412L3.68404 13.1569L6.42079 15.8937L6.52591 15.9988H13.0518H13.1569V13.1569H15.9988V13.1495V6.63182L15.8949 6.5263Z" fill="url(#paint0_radial_348_3711)"/>
</g>
<defs>
<radialGradient id="paint0_radial_348_3711" cx="0" cy="0" r="1" gradientUnits="userSpaceOnUse" gradientTransform="translate(7.9996 7.99929) scale(7.99941)">
<stop stop-color="white" stop-opacity="0.1"/>
<stop offset="1" stop-color="white" stop-opacity="0"/>
</radialGradient>
<clipPath id="clip0_348_3711">
<rect width="16" height="16" fill="white"/>
</clipPath>
</defs>
</svg>
