<svg width="16" height="16" viewBox="0 0 16 16" fill="none" xmlns="http://www.w3.org/2000/svg">
<g clip-path="url(#clip0_1_240)">
<path opacity="0.3" fill-rule="evenodd" clip-rule="evenodd" d="M12.6098 3.24085L9.89552 0.526618C9.65688 0.286818 9.15848 0 8.73768 0C8.3756 0 8.02064 0.0728801 7.79024 0.210412L2.738 2.73653L2.73701 2.73654L2.73972 2.73926L2.738 2.73772V2.76453L2.73701 2.73654L0.210412 7.99918C0.119899 8.1908 0 8.52344 0 8.73624C0 9.19584 0.202183 9.666 0.526618 9.99984L3.26314 12.7364L3.26462 12.7376L3.68545 13.1584H3.6865L6.52646 15.9995H13.1586V13.1584V13.1572H16V6.63092L12.6322 3.26315C12.6247 3.25562 12.6173 3.24818 12.6098 3.24085Z" fill="#FF00FF"/>
<path opacity="0.4" fill-rule="evenodd" clip-rule="evenodd" d="M2.73982 2.7392L13.1574 13.1568L13.1587 13.1583H3.68554L3.26471 12.7375C2.84389 12.3155 2.7381 12.1074 2.7381 11.2634V2.73767L2.73982 2.7392Z" fill="#FF00FF"/>
<path fill-rule="evenodd" clip-rule="evenodd" d="M3.26314 12.7364L0.526618 9.99992C0.202183 9.66608 0 9.19584 0 8.73624C0 8.52352 0.119899 8.1908 0.210412 7.99921L2.73653 2.73657L2.738 2.76456V11.2635C2.738 12.1066 2.84356 12.3154 3.26314 12.7364ZM13.1573 13.1569L16 13.1573V6.63095L12.6322 3.26319C12.1597 2.78829 11.7389 2.73657 11.1582 2.73657H2.73653L2.73972 2.73928L13.1573 13.1569Z" fill="#FF00FF"/>
</g>
<defs>
<clipPath id="clip0_1_240">
<rect width="16" height="16" fill="white"/>
</clipPath>
</defs>
</svg>
