<svg width="16" height="16" viewBox="0 0 16 16" fill="none" xmlns="http://www.w3.org/2000/svg">
<path d="M2.97781 11.1933H0V12.1337H2.97781V11.1933Z" fill="#FF00FF"/>
<path d="M2.97781 10.0964H0V11.0368H2.97781V10.0964Z" fill="#FF00FF"/>
<path d="M2.97781 8.99896H0V9.78256H2.97781V8.99896Z" fill="#FF00FF"/>
<path d="M2.97781 7.90204H0V8.68569H2.97781V7.90204Z" fill="#FF00FF"/>
<path d="M2.97781 6.64819H0V7.58858H2.97781V6.64819Z" fill="#FF00FF"/>
<path d="M6.09831 11.1933H3.27716V12.1337H6.09831V11.1933Z" fill="#FF00FF"/>
<path d="M6.09831 10.0964H3.27716V11.0368H6.09831V10.0964Z" fill="#FF00FF"/>
<path d="M6.09831 8.99896H3.27716V9.78256H6.09831V8.99896Z" fill="#FF00FF"/>
<path d="M9.37569 11.1933H6.5545V12.1337H9.37569V11.1933Z" fill="#FF00FF"/>
<path d="M9.37569 10.0964H6.5545V11.0367H9.37569V10.0964Z" fill="#FF00FF"/>
<path d="M9.37569 8.9989H6.5545V9.7825H9.37569V8.9989Z" fill="#FF00FF"/>
<path d="M9.37569 7.90198H6.5545V8.68558H9.37569V7.90198Z" fill="#FF00FF"/>
<path d="M9.37569 6.64819H6.5545V7.58858H9.37569V6.64819Z" fill="#FF00FF"/>
<path d="M9.37569 5.5506H6.5545V6.49098H9.37569V5.5506Z" fill="#FF00FF"/>
<path d="M9.37569 4.4538H6.5545V5.23741H9.37569V4.4538Z" fill="#FF00FF"/>
<path d="M12.7229 11.1933H9.74493V12.1337H12.7229V11.1933Z" fill="#FF00FF"/>
<path d="M12.7229 10.0964H9.74493V11.0368H12.7229V10.0964Z" fill="#FF00FF"/>
<path d="M12.7229 8.99896H9.74493V9.78256H12.7229V8.99896Z" fill="#FF00FF"/>
<path d="M12.7229 7.90204H9.74493V8.68569H12.7229V7.90204Z" fill="#FF00FF"/>
<path d="M12.7229 6.64819H9.74493V7.58858H12.7229V6.64819Z" fill="#FF00FF"/>
<path d="M16 11.1933H13.0221V12.1337H16V11.1933Z" fill="#FF00FF"/>
<path d="M16 10.0964H13.0221V11.0368H16V10.0964Z" fill="#FF00FF"/>
<path d="M16 8.99896H13.0221V9.78256H16V8.99896Z" fill="#FF00FF"/>
<path d="M16 7.90204H13.0221V8.68569H16V7.90204Z" fill="#FF00FF"/>
<path d="M16 6.64819H13.0221V7.58858H16V6.64819Z" fill="#FF00FF"/>
<path d="M16 5.55066H13.0221V6.49104H16V5.55066Z" fill="#FF00FF"/>
<path d="M16 4.45386H13.0221V5.23747H16V4.45386Z" fill="#FF00FF"/>
<path d="M16 3.20001H13.0221V4.1404H16V3.20001Z" fill="#FF00FF"/>
</svg>
