<svg width="16" height="16" viewBox="0 0 16 16" fill="none" xmlns="http://www.w3.org/2000/svg">
<path d="M2.97781 11.1932H0V12.1336H2.97781V11.1932Z" fill="#FF00FF"/>
<path d="M2.97781 10.0964H0V11.0368H2.97781V10.0964Z" fill="#FF00FF"/>
<path d="M2.97781 8.9989H0V9.7825H2.97781V8.9989Z" fill="#FF00FF"/>
<path d="M2.97781 7.90198H0V8.68563H2.97781V7.90198Z" fill="#FF00FF"/>
<path d="M2.97781 6.64819H0V7.58858H2.97781V6.64819Z" fill="#FF00FF"/>
<path d="M6.0985 11.1932H3.27734V12.1336H6.0985V11.1932Z" fill="#FF00FF"/>
<path d="M6.0985 10.0964H3.27734V11.0368H6.0985V10.0964Z" fill="#FF00FF"/>
<path d="M6.0985 8.9989H3.27734V9.7825H6.0985V8.9989Z" fill="#FF00FF"/>
<path d="M9.37587 11.1932H6.55469V12.1336H9.37587V11.1932Z" fill="#FF00FF"/>
<path d="M9.37587 10.0964H6.55469V11.0368H9.37587V10.0964Z" fill="#FF00FF"/>
<path d="M9.37587 8.9989H6.55469V9.7825H9.37587V8.9989Z" fill="#FF00FF"/>
<path d="M9.37587 7.90198H6.55469V8.68558H9.37587V7.90198Z" fill="#FF00FF"/>
<path d="M9.37587 6.64819H6.55469V7.58858H9.37587V6.64819Z" fill="#FF00FF"/>
<path d="M9.37587 5.55066H6.55469V6.49104H9.37587V5.55066Z" fill="#FF00FF"/>
<path d="M9.37587 4.45386H6.55469V5.23747H9.37587V4.45386Z" fill="#FF00FF"/>
<path d="M12.723 11.1932H9.74512V12.1336H12.723V11.1932Z" fill="#FF00FF"/>
<path d="M12.723 10.0964H9.74512V11.0368H12.723V10.0964Z" fill="#FF00FF"/>
<path d="M12.723 8.9989H9.74512V9.7825H12.723V8.9989Z" fill="#FF00FF"/>
<path d="M12.723 7.90198H9.74512V8.68563H12.723V7.90198Z" fill="#FF00FF"/>
<path d="M12.723 6.64819H9.74512V7.58858H12.723V6.64819Z" fill="#FF00FF"/>
<path d="M15.9999 11.1932H13.022V12.1336H15.9999V11.1932Z" fill="#FF00FF"/>
<path d="M15.9999 10.0964H13.022V11.0368H15.9999V10.0964Z" fill="#FF00FF"/>
<path d="M15.9999 8.9989H13.022V9.7825H15.9999V8.9989Z" fill="#FF00FF"/>
<path d="M15.9999 7.90198H13.022V8.68563H15.9999V7.90198Z" fill="#FF00FF"/>
<path d="M15.9999 6.64819H13.022V7.58858H15.9999V6.64819Z" fill="#FF00FF"/>
<path d="M15.9999 5.55066H13.022V6.49104H15.9999V5.55066Z" fill="#FF00FF"/>
<path d="M15.9999 4.45386H13.022V5.23747H15.9999V4.45386Z" fill="#FF00FF"/>
<path d="M15.9999 3.19995H13.022V4.14034H15.9999V3.19995Z" fill="#FF00FF"/>
</svg>
