<svg width="16" height="16" viewBox="0 0 16 16" fill="none" xmlns="http://www.w3.org/2000/svg">
<path d="M2.97781 11.1933H0V12.1337H2.97781V11.1933Z" fill="#E21E25"/>
<path d="M2.97781 10.0964H0V11.0368H2.97781V10.0964Z" fill="#E21E25"/>
<path d="M2.97781 8.99896H0V9.78256H2.97781V8.99896Z" fill="#E21E25"/>
<path d="M2.97781 7.90204H0V8.68569H2.97781V7.90204Z" fill="#F3997A"/>
<path d="M2.97781 6.64819H0V7.58858H2.97781V6.64819Z" fill="#F3997A"/>
<path d="M6.09825 11.1933H3.2771V12.1337H6.09825V11.1933Z" fill="#FAEC0A"/>
<path d="M6.09825 10.0964H3.2771V11.0368H6.09825V10.0964Z" fill="#FAEC0A"/>
<path d="M6.09825 8.99896H3.2771V9.78256H6.09825V8.99896Z" fill="#FAEC0A"/>
<path d="M9.37563 11.1933H6.55444V12.1337H9.37563V11.1933Z" fill="#E5067E"/>
<path d="M9.37563 10.0964H6.55444V11.0367H9.37563V10.0964Z" fill="#E5067E"/>
<path d="M9.37563 8.9989H6.55444V9.7825H9.37563V8.9989Z" fill="#E5067E"/>
<path d="M9.37563 7.90198H6.55444V8.68558H9.37563V7.90198Z" fill="#F19DC4"/>
<path d="M9.37563 6.64819H6.55444V7.58858H9.37563V6.64819Z" fill="#F19DC4"/>
<path d="M9.37563 5.5506H6.55444V6.49098H9.37563V5.5506Z" fill="#F19DC4"/>
<path d="M9.37563 4.4538H6.55444V5.23741H9.37563V4.4538Z" fill="#F19DC4"/>
<path d="M12.7229 11.1933H9.745V12.1337H12.7229V11.1933Z" fill="#C6D32D"/>
<path d="M12.7229 10.0964H9.745V11.0368H12.7229V10.0964Z" fill="#C6D32D"/>
<path d="M12.7229 8.99896H9.745V9.78256H12.7229V8.99896Z" fill="#C6D32D"/>
<path d="M12.7229 7.90204H9.745V8.68569H12.7229V7.90204Z" fill="#E5E999"/>
<path d="M12.7229 6.64819H9.745V7.58858H12.7229V6.64819Z" fill="#E5E999"/>
<path d="M16 11.1933H13.0221V12.1337H16V11.1933Z" fill="#42C0EF"/>
<path d="M16 10.0964H13.0221V11.0368H16V10.0964Z" fill="#42C0EF"/>
<path d="M16 8.99896H13.0221V9.78256H16V8.99896Z" fill="#42C0EF"/>
<path d="M16 7.90204H13.0221V8.68569H16V7.90204Z" fill="#BCE4F9"/>
<path d="M16 6.64819H13.0221V7.58858H16V6.64819Z" fill="#BCE4F9"/>
<path d="M16 5.55066H13.0221V6.49104H16V5.55066Z" fill="#BCE4F9"/>
<path d="M16 4.45386H13.0221V5.23747H16V4.45386Z" fill="#BCE4F9"/>
<path d="M16 3.20001H13.0221V4.1404H16V3.20001Z" fill="#BCE4F9"/>
</svg>
