<svg width="16" height="16" viewBox="0 0 16 16" fill="none" xmlns="http://www.w3.org/2000/svg">
<path d="M2.97781 11.1934H0V12.1337H2.97781V11.1934Z" fill="#E21E25"/>
<path d="M2.97781 10.0962H0V11.0366H2.97781V10.0962Z" fill="#E21E25"/>
<path d="M2.97781 8.99902H0V9.78264H2.97781V8.99902Z" fill="#E21E25"/>
<path d="M2.97781 7.90186H0V8.68547H2.97781V7.90186Z" fill="#F3997A"/>
<path d="M2.97781 6.64844H0V7.58882H2.97781V6.64844Z" fill="#F3997A"/>
<path d="M6.09825 11.1934H3.2771V12.1337H6.09825V11.1934Z" fill="#FAEC0A"/>
<path d="M6.09825 10.0962H3.2771V11.0366H6.09825V10.0962Z" fill="#FAEC0A"/>
<path d="M6.09825 8.99902H3.2771V9.78264H6.09825V8.99902Z" fill="#FAEC0A"/>
<path d="M9.3756 11.1934H6.55444V12.1337H9.3756V11.1934Z" fill="#E5067E"/>
<path d="M9.3756 10.0962H6.55444V11.0366H9.3756V10.0962Z" fill="#E5067E"/>
<path d="M9.3756 8.99902H6.55444V9.78264H9.3756V8.99902Z" fill="#E5067E"/>
<path d="M9.3756 7.90186H6.55444V8.68547H9.3756V7.90186Z" fill="#F19DC4"/>
<path d="M9.3756 6.64795H6.55444V7.58834H9.3756V6.64795Z" fill="#F19DC4"/>
<path d="M9.3756 5.55078H6.55444V6.49117H9.3756V5.55078Z" fill="#F19DC4"/>
<path d="M9.3756 4.45361H6.55444V5.23723H9.3756V4.45361Z" fill="#F19DC4"/>
<path d="M12.7228 11.1934H9.74487V12.1337H12.7228V11.1934Z" fill="#C6D32D"/>
<path d="M12.7228 10.0962H9.74487V11.0366H12.7228V10.0962Z" fill="#C6D32D"/>
<path d="M12.7228 8.99902H9.74487V9.78264H12.7228V8.99902Z" fill="#C6D32D"/>
<path d="M12.7228 7.90186H9.74487V8.68547H12.7228V7.90186Z" fill="#E5E999"/>
<path d="M12.7228 6.64844H9.74487V7.58882H12.7228V6.64844Z" fill="#E5E999"/>
<path d="M16 11.1934H13.0221V12.1337H16V11.1934Z" fill="#42C0EF"/>
<path d="M16 10.0962H13.0221V11.0366H16V10.0962Z" fill="#42C0EF"/>
<path d="M16 8.99902H13.0221V9.78264H16V8.99902Z" fill="#42C0EF"/>
<path d="M16 7.90186H13.0221V8.68547H16V7.90186Z" fill="#BCE4F9"/>
<path d="M16 6.64795H13.0221V7.58834H16V6.64795Z" fill="#BCE4F9"/>
<path d="M16 5.55078H13.0221V6.49117H16V5.55078Z" fill="#BCE4F9"/>
<path d="M16 4.45361H13.0221V5.23723H16V4.45361Z" fill="#BCE4F9"/>
<path d="M16 3.2002H13.0221V4.14058H16V3.2002Z" fill="#BCE4F9"/>
</svg>
