<svg width="16" height="16" viewBox="0 0 16 16" fill="none" xmlns="http://www.w3.org/2000/svg">
<path d="M2.97781 11.1935H0V12.1339H2.97781V11.1935Z" fill="#FF00FF"/>
<path d="M2.97781 10.0966H0V11.037H2.97781V10.0966Z" fill="#FF00FF"/>
<path d="M2.97781 8.99913H0V9.78274H2.97781V8.99913Z" fill="#FF00FF"/>
<path d="M2.97781 7.90222H0V8.68583H2.97781V7.90222Z" fill="#FF00FF"/>
<path d="M2.97781 6.64839H0V7.58877H2.97781V6.64839Z" fill="#FF00FF"/>
<path d="M6.0983 11.1935H3.27715V12.1339H6.0983V11.1935Z" fill="#FF00FF"/>
<path d="M6.0983 10.0966H3.27715V11.037H6.0983V10.0966Z" fill="#FF00FF"/>
<path d="M6.0983 8.99912H3.27715V9.78274H6.0983V8.99912Z" fill="#FF00FF"/>
<path d="M9.37564 11.1935H6.55449V12.1339H9.37564V11.1935Z" fill="#FF00FF"/>
<path d="M9.37564 10.0966H6.55449V11.0369H9.37564V10.0966Z" fill="#FF00FF"/>
<path d="M9.37564 8.99911H6.55449V9.78272H9.37564V8.99911Z" fill="#FF00FF"/>
<path d="M9.37564 7.90219H6.55449V8.68581H9.37564V7.90219Z" fill="#FF00FF"/>
<path d="M9.37564 6.64837H6.55449V7.58875H9.37564V6.64837Z" fill="#FF00FF"/>
<path d="M9.37564 5.55081H6.55449V6.49119H9.37564V5.55081Z" fill="#FF00FF"/>
<path d="M9.37564 4.454H6.55449V5.23762H9.37564V4.454Z" fill="#FF00FF"/>
<path d="M12.7228 11.1935H9.74492V12.1339H12.7228V11.1935Z" fill="#FF00FF"/>
<path d="M12.7228 10.0966H9.74492V11.037H12.7228V10.0966Z" fill="#FF00FF"/>
<path d="M12.7228 8.99913H9.74492V9.78274H12.7228V8.99913Z" fill="#FF00FF"/>
<path d="M12.7228 7.90222H9.74492V8.68583H12.7228V7.90222Z" fill="#FF00FF"/>
<path d="M12.7228 6.64839H9.74492V7.58877H12.7228V6.64839Z" fill="#FF00FF"/>
<path d="M16 11.1935H13.0221V12.1339H16V11.1935Z" fill="#FF00FF"/>
<path d="M16 10.0966H13.0221V11.037H16V10.0966Z" fill="#FF00FF"/>
<path d="M16 8.99913H13.0221V9.78274H16V8.99913Z" fill="#FF00FF"/>
<path d="M16 7.90222H13.0221V8.68583H16V7.90222Z" fill="#FF00FF"/>
<path d="M16 6.64839H13.0221V7.58877H16V6.64839Z" fill="#FF00FF"/>
<path d="M16 5.55083H13.0221V6.49121H16V5.55083Z" fill="#FF00FF"/>
<path d="M16 4.45402H13.0221V5.23764H16V4.45402Z" fill="#FF00FF"/>
<path d="M16 3.2002H13.0221V4.14058H16V3.2002Z" fill="#FF00FF"/>
</svg>
