<svg width="16" height="16" viewBox="0 0 16 16" fill="none" xmlns="http://www.w3.org/2000/svg">
<g clip-path="url(#clip0_348_3778)">
<path d="M12.8254 1.61914H3.17742C2.36382 1.61914 1.70142 2.28154 1.70142 3.10234V12.8367C1.70142 13.6575 2.36382 14.3199 3.17742 14.3199H11.3422L10.9606 12.9879L11.8822 13.8447L12.7534 14.6511L14.3014 16.0191C14.3014 10.9748 14.3014 8.14666 14.3014 3.10234C14.3014 2.28154 13.639 1.61914 12.8254 1.61914Z" fill="#5865F2"/>
<path fill-rule="evenodd" clip-rule="evenodd" d="M9.57092 10.439C9.78692 10.7126 10.0461 11.0222 10.0461 11.0222C11.6373 10.9718 12.2493 9.92778 12.2493 9.92778C12.2493 7.60938 11.2125 5.73018 11.2125 5.73018C10.1757 4.95258 9.18932 4.97418 9.18932 4.97418L9.08852 5.08938C10.3125 5.46378 10.8813 6.00378 10.8813 6.00378C10.1325 5.59338 9.39812 5.39178 8.71412 5.31258C8.19572 5.25498 7.69892 5.26938 7.25972 5.32698C7.22201 5.32698 7.18978 5.33247 7.15346 5.33865C7.14818 5.33955 7.14281 5.34047 7.13732 5.34138C6.88532 5.36298 6.27332 5.45658 5.50292 5.79498C5.23652 5.91738 5.07812 6.00378 5.07812 6.00378C5.07812 6.00378 5.67572 5.43498 6.97172 5.06058L6.89972 4.97418C6.89972 4.97418 5.91332 4.95258 4.87652 5.73018C4.87652 5.73018 3.83972 7.60938 3.83972 9.92778C3.83972 9.92778 4.44452 10.9718 6.03572 11.0222C6.03572 11.0222 6.30212 10.6982 6.51812 10.4246C5.60372 10.151 5.25812 9.57498 5.25812 9.57498C5.25812 9.57498 5.33012 9.62538 5.45972 9.69738C5.46692 9.70458 5.47412 9.71178 5.48852 9.71898C5.49932 9.72618 5.51012 9.73158 5.52092 9.73698C5.53172 9.74238 5.54252 9.74778 5.55332 9.75498C5.73332 9.85578 5.91332 9.93498 6.07892 9.99978C6.37412 10.115 6.72692 10.2302 7.13732 10.3094C7.67732 10.4102 8.31092 10.4462 9.00212 10.3166C9.34052 10.259 9.68612 10.1582 10.0461 10.007C10.2981 9.91338 10.5789 9.77658 10.8741 9.58218C10.8741 9.58218 10.5141 10.1726 9.57092 10.439ZM5.96368 8.45882C5.96368 8.01962 6.28768 7.65962 6.69809 7.65962C7.10849 7.65962 7.43969 8.01962 7.43249 8.45882C7.43249 8.89802 7.10849 9.25803 6.69809 9.25803C6.29489 9.25803 5.96368 8.89802 5.96368 8.45882ZM8.59169 8.45882C8.59169 8.01962 8.91569 7.65962 9.32609 7.65962C9.73649 7.65962 10.0605 8.01962 10.0605 8.45882C10.0605 8.89802 9.73649 9.25803 9.32609 9.25803C8.92288 9.25803 8.59169 8.89802 8.59169 8.45882Z" fill="white"/>
</g>
<defs>
<clipPath id="clip0_348_3778">
<rect width="16" height="16" fill="white"/>
</clipPath>
</defs>
</svg>
