<svg width="16" height="16" viewBox="0 0 16 16" fill="none" xmlns="http://www.w3.org/2000/svg">
<g clip-path="url(#clip0_1406_3494)">
<mask id="mask0_1406_3494" style="mask-type:luminance" maskUnits="userSpaceOnUse" x="0" y="0" width="16" height="16">
<path d="M16 0H0V16H16V0Z" fill="white"/>
</mask>
<g mask="url(#mask0_1406_3494)">
<path fill-rule="evenodd" clip-rule="evenodd" d="M3.17717 1.61914H12.8252C13.6388 1.61914 14.3012 2.28154 14.3012 3.10234V16.0191L12.7532 14.6511L11.882 13.8447L10.9604 12.9879L11.342 14.3199H3.17717C2.36357 14.3199 1.70117 13.6575 1.70117 12.8367V3.10234C1.70117 2.28154 2.36357 1.61914 3.17717 1.61914ZM9.57076 10.4391C9.78676 10.7127 10.046 11.0223 10.046 11.0223C11.6372 10.9719 12.2492 9.92792 12.2492 9.92792C12.2492 7.60953 11.2124 5.73034 11.2124 5.73034C10.1756 4.95274 9.18916 4.97434 9.18916 4.97434L9.08836 5.08954C10.3124 5.46394 10.8812 6.00394 10.8812 6.00394C10.1324 5.59354 9.39796 5.39194 8.71396 5.31274C8.19556 5.25514 7.69877 5.26954 7.25957 5.32714C7.22186 5.32714 7.18964 5.33262 7.15332 5.3388C7.14803 5.33971 7.14266 5.34062 7.13717 5.34154C6.88517 5.36314 6.27317 5.45674 5.50277 5.79514C5.23637 5.91754 5.07797 6.00394 5.07797 6.00394C5.07797 6.00394 5.67557 5.43514 6.97157 5.06074L6.89957 4.97434C6.89957 4.97434 5.91317 4.95274 4.87637 5.73034C4.87637 5.73034 3.83957 7.60953 3.83957 9.92792C3.83957 9.92792 4.44437 10.9719 6.03557 11.0223C6.03557 11.0223 6.30197 10.6983 6.51797 10.4247C5.60357 10.1511 5.25797 9.57512 5.25797 9.57512C5.25797 9.57512 5.32997 9.62552 5.45957 9.69752C5.46677 9.70472 5.47397 9.71192 5.48837 9.71912C5.49917 9.72632 5.50997 9.73176 5.52077 9.73712C5.53157 9.74256 5.54237 9.74792 5.55317 9.75512C5.73317 9.85592 5.91317 9.93512 6.07877 9.99992C6.37397 10.1151 6.72677 10.2303 7.13717 10.3095C7.67717 10.4103 8.31076 10.4463 9.00196 10.3167C9.34036 10.2591 9.68596 10.1583 10.046 10.0071C10.298 9.91352 10.5788 9.77672 10.874 9.58232C10.874 9.58232 10.514 10.1727 9.57076 10.4391ZM5.96348 8.45904C5.96348 8.01984 6.28748 7.65984 6.69788 7.65984C7.10828 7.65984 7.43948 8.01984 7.43228 8.45904C7.43228 8.89824 7.10828 9.25824 6.69788 9.25824C6.29468 9.25824 5.96348 8.89824 5.96348 8.45904ZM8.59148 8.45904C8.59148 8.01984 8.91548 7.65984 9.32588 7.65984C9.73628 7.65984 10.0603 8.01984 10.0603 8.45904C10.0603 8.89824 9.73628 9.25824 9.32588 9.25824C8.92268 9.25824 8.59148 8.89824 8.59148 8.45904Z" fill="#FF00FF"/>
</g>
</g>
<defs>
<clipPath id="clip0_1406_3494">
<rect width="16" height="16" fill="white"/>
</clipPath>
</defs>
</svg>
