<svg width="16" height="16" viewBox="0 0 16 16" fill="none" xmlns="http://www.w3.org/2000/svg">
<g clip-path="url(#clip0_1_322)">
<mask id="mask0_1_322" style="mask-type:luminance" maskUnits="userSpaceOnUse" x="0" y="0" width="16" height="16">
<path d="M16 0H0V16H16V0Z" fill="white"/>
</mask>
<g mask="url(#mask0_1_322)">
<path d="M12.8254 1.61914H3.17742C2.36382 1.61914 1.70142 2.28154 1.70142 3.10234V12.8367C1.70142 13.6575 2.36382 14.3199 3.17742 14.3199H11.3422L10.9606 12.9879L11.8822 13.8447L12.7534 14.6511L14.3014 16.0191C14.3014 10.9748 14.3014 8.14664 14.3014 3.10234C14.3014 2.28154 13.639 1.61914 12.8254 1.61914Z" fill="#5865F2"/>
<path fill-rule="evenodd" clip-rule="evenodd" d="M9.57104 10.4392C9.78704 10.7128 10.0462 11.0224 10.0462 11.0224C11.6374 10.972 12.2494 9.92799 12.2494 9.92799C12.2494 7.60956 11.2126 5.73036 11.2126 5.73036C10.1758 4.95276 9.18944 4.97436 9.18944 4.97436L9.08864 5.08956C10.3126 5.46396 10.8814 6.00396 10.8814 6.00396C10.1326 5.59356 9.39824 5.39196 8.71424 5.31276C8.19584 5.25516 7.69905 5.26956 7.25984 5.32716C7.22213 5.32716 7.18991 5.33265 7.15359 5.33884C7.14831 5.33973 7.14293 5.34065 7.13745 5.34156C6.88545 5.36316 6.27345 5.45676 5.50305 5.79516C5.23665 5.91756 5.07825 6.00396 5.07825 6.00396C5.07825 6.00396 5.67585 5.43516 6.97185 5.06076L6.89984 4.97436C6.89984 4.97436 5.91344 4.95276 4.87664 5.73036C4.87664 5.73036 3.83984 7.60956 3.83984 9.92799C3.83984 9.92799 4.44464 10.972 6.03585 11.0224C6.03585 11.0224 6.30225 10.6984 6.51825 10.4248C5.60385 10.1512 5.25825 9.57519 5.25825 9.57519C5.25825 9.57519 5.33024 9.62559 5.45984 9.69759C5.46704 9.70479 5.47425 9.71199 5.48865 9.71919C5.49945 9.72639 5.51024 9.73175 5.52104 9.73719C5.53184 9.74255 5.54264 9.74799 5.55344 9.75519C5.73344 9.85599 5.91345 9.93519 6.07905 9.99999C6.37425 10.1152 6.72705 10.2304 7.13745 10.3096C7.67745 10.4104 8.31104 10.4464 9.00224 10.3168C9.34064 10.2592 9.68624 10.1584 10.0462 10.0072C10.2982 9.91359 10.579 9.77679 10.8742 9.58239C10.8742 9.58239 10.5142 10.1728 9.57104 10.4392ZM5.96381 8.45903C5.96381 8.01983 6.28781 7.6598 6.69821 7.6598C7.10861 7.6598 7.43981 8.01983 7.43261 8.45903C7.43261 8.89823 7.10861 9.25823 6.69821 9.25823C6.29501 9.25823 5.96381 8.89823 5.96381 8.45903ZM8.59184 8.45903C8.59184 8.01983 8.91584 7.6598 9.32624 7.6598C9.73664 7.6598 10.0606 8.01983 10.0606 8.45903C10.0606 8.89823 9.73664 9.25823 9.32624 9.25823C8.92304 9.25823 8.59184 8.89823 8.59184 8.45903Z" fill="white"/>
</g>
</g>
<defs>
<clipPath id="clip0_1_322">
<rect width="16" height="16" fill="white"/>
</clipPath>
</defs>
</svg>
