<svg width="16" height="16" viewBox="0 0 16 16" fill="none" xmlns="http://www.w3.org/2000/svg">
<g clip-path="url(#clip0_1_316)">
<mask id="mask0_1_316" style="mask-type:luminance" maskUnits="userSpaceOnUse" x="0" y="0" width="16" height="16">
<path d="M16 0H0V16H16V0Z" fill="white"/>
</mask>
<g mask="url(#mask0_1_316)">
<path fill-rule="evenodd" clip-rule="evenodd" d="M3.17742 1.61914H12.8254C13.639 1.61914 14.3014 2.28154 14.3014 3.10234V16.0191L12.7534 14.6511L11.8822 13.8447L10.9606 12.9879L11.3422 14.3199H3.17742C2.36382 14.3199 1.70142 13.6575 1.70142 12.8367V3.10234C1.70142 2.28154 2.36382 1.61914 3.17742 1.61914ZM9.57101 10.4391C9.78701 10.7127 10.0462 11.0223 10.0462 11.0223C11.6374 10.9719 12.2494 9.92792 12.2494 9.92792C12.2494 7.60953 11.2126 5.73034 11.2126 5.73034C10.1758 4.95274 9.18941 4.97434 9.18941 4.97434L9.08861 5.08954C10.3126 5.46394 10.8814 6.00394 10.8814 6.00394C10.1326 5.59354 9.39821 5.39194 8.71421 5.31274C8.19581 5.25514 7.69902 5.26954 7.25982 5.32714C7.2221 5.32714 7.18988 5.33262 7.15356 5.3388C7.14827 5.33971 7.1429 5.34062 7.13742 5.34154C6.88542 5.36314 6.27342 5.45674 5.50302 5.79514C5.23662 5.91754 5.07822 6.00394 5.07822 6.00394C5.07822 6.00394 5.67582 5.43514 6.97182 5.06074L6.89982 4.97434C6.89982 4.97434 5.91342 4.95274 4.87662 5.73034C4.87662 5.73034 3.83982 7.60953 3.83982 9.92792C3.83982 9.92792 4.44462 10.9719 6.03582 11.0223C6.03582 11.0223 6.30222 10.6983 6.51822 10.4247C5.60382 10.1511 5.25822 9.57512 5.25822 9.57512C5.25822 9.57512 5.33022 9.62552 5.45982 9.69752C5.46702 9.70472 5.47422 9.71192 5.48862 9.71912C5.49942 9.72632 5.51022 9.73176 5.52102 9.73712C5.53182 9.74256 5.54262 9.74792 5.55342 9.75512C5.73342 9.85592 5.91342 9.93512 6.07902 9.99992C6.37422 10.1151 6.72702 10.2303 7.13742 10.3095C7.67742 10.4103 8.31101 10.4463 9.00221 10.3167C9.34061 10.2591 9.68621 10.1583 10.0462 10.0071C10.2982 9.91352 10.579 9.77672 10.8742 9.58232C10.8742 9.58232 10.5142 10.1727 9.57101 10.4391ZM5.96372 8.45904C5.96372 8.01984 6.28772 7.65984 6.69812 7.65984C7.10852 7.65984 7.43972 8.01984 7.43252 8.45904C7.43252 8.89824 7.10852 9.25824 6.69812 9.25824C6.29492 9.25824 5.96372 8.89824 5.96372 8.45904ZM8.59173 8.45904C8.59173 8.01984 8.91573 7.65984 9.32613 7.65984C9.73653 7.65984 10.0605 8.01984 10.0605 8.45904C10.0605 8.89824 9.73653 9.25824 9.32613 9.25824C8.92293 9.25824 8.59173 8.89824 8.59173 8.45904Z" fill="#FF00FF"/>
</g>
</g>
<defs>
<clipPath id="clip0_1_316">
<rect width="16" height="16" fill="white"/>
</clipPath>
</defs>
</svg>
