<svg width="16" height="16" viewBox="0 0 16 16" fill="none" xmlns="http://www.w3.org/2000/svg">
<g clip-path="url(#clip0_348_3791)">
<path d="M5.96369 8.45904C5.96369 8.01984 6.28769 7.65984 6.69809 7.65984C7.10849 7.65984 7.43969 8.01984 7.43249 8.45904C7.43249 8.89825 7.10849 9.25825 6.69809 9.25825C6.29489 9.25825 5.96369 8.89825 5.96369 8.45904Z" fill="#FF00FF"/>
<path d="M8.59169 8.45904C8.59169 8.01984 8.91569 7.65984 9.32609 7.65984C9.73649 7.65984 10.0605 8.01984 10.0605 8.45904C10.0605 8.89825 9.73649 9.25825 9.32609 9.25825C8.92289 9.25825 8.59169 8.89825 8.59169 8.45904Z" fill="#FF00FF"/>
<path fill-rule="evenodd" clip-rule="evenodd" d="M3.17739 1.61914H12.8254C13.639 1.61914 14.3014 2.28154 14.3014 3.10234V16.0191L12.7534 14.6511L11.8822 13.8447L10.9606 12.9879L11.3422 14.3199H3.17739C2.36379 14.3199 1.70139 13.6575 1.70139 12.8367V3.10234C1.70139 2.28154 2.36379 1.61914 3.17739 1.61914ZM9.57099 10.4391C9.78699 10.7127 10.0462 11.0223 10.0462 11.0223C11.6374 10.9719 12.2494 9.92794 12.2494 9.92794C12.2494 7.60954 11.2126 5.73034 11.2126 5.73034C10.1758 4.95274 9.18939 4.97434 9.18939 4.97434L9.08859 5.08954C10.3126 5.46394 10.8814 6.00394 10.8814 6.00394C10.1326 5.59354 9.39818 5.39194 8.71418 5.31274C8.19579 5.25514 7.69899 5.26954 7.25979 5.32714C7.22207 5.32714 7.18985 5.33263 7.15353 5.33881C7.14824 5.33971 7.14287 5.34063 7.13739 5.34154C6.88539 5.36314 6.27339 5.45674 5.50299 5.79514C5.23659 5.91754 5.07819 6.00394 5.07819 6.00394C5.07819 6.00394 5.67579 5.43514 6.97179 5.06074L6.89979 4.97434C6.89979 4.97434 5.91339 4.95274 4.87659 5.73034C4.87659 5.73034 3.83979 7.60954 3.83979 9.92794C3.83979 9.92794 4.44459 10.9719 6.03579 11.0223C6.03579 11.0223 6.30219 10.6983 6.51819 10.4247C5.60379 10.1511 5.25819 9.57514 5.25819 9.57514C5.25819 9.57514 5.33019 9.62554 5.45979 9.69754C5.46699 9.70474 5.47419 9.71194 5.48859 9.71914C5.49938 9.72634 5.51018 9.73174 5.52098 9.73714C5.53178 9.74254 5.54258 9.74794 5.55339 9.75514C5.73339 9.85594 5.91339 9.93514 6.07899 9.99994C6.37419 10.1151 6.72699 10.2303 7.13739 10.3095C7.67739 10.4103 8.31099 10.4463 9.00219 10.3167C9.34059 10.2591 9.68619 10.1583 10.0462 10.0071C10.2982 9.91354 10.579 9.77674 10.8742 9.58234C10.8742 9.58234 10.5142 10.1727 9.57099 10.4391Z" fill="#FF00FF"/>
</g>
<defs>
<clipPath id="clip0_348_3791">
<rect width="16" height="16" fill="white"/>
</clipPath>
</defs>
</svg>
