<svg width="16" height="16" viewBox="0 0 16 16" fill="none" xmlns="http://www.w3.org/2000/svg">
<g clip-path="url(#clip0_1406_3493)">
<mask id="mask0_1406_3493" style="mask-type:luminance" maskUnits="userSpaceOnUse" x="0" y="0" width="16" height="16">
<path d="M16 0H0V16H16V0Z" fill="white"/>
</mask>
<g mask="url(#mask0_1406_3493)">
<path d="M12.8252 1.61914H3.17717C2.36357 1.61914 1.70117 2.28154 1.70117 3.10234V12.8367C1.70117 13.6575 2.36357 14.3199 3.17717 14.3199H11.342L10.9604 12.9879L11.882 13.8447L12.7532 14.6511L14.3012 16.0191C14.3012 10.9748 14.3012 8.14664 14.3012 3.10234C14.3012 2.28154 13.6388 1.61914 12.8252 1.61914Z" fill="#5865F2"/>
<path fill-rule="evenodd" clip-rule="evenodd" d="M9.57104 10.4392C9.78704 10.7128 10.0462 11.0224 10.0462 11.0224C11.6374 10.972 12.2494 9.92805 12.2494 9.92805C12.2494 7.60963 11.2126 5.73043 11.2126 5.73043C10.1758 4.95283 9.18944 4.97443 9.18944 4.97443L9.08864 5.08963C10.3126 5.46403 10.8814 6.00403 10.8814 6.00403C10.1326 5.59363 9.39824 5.39203 8.71424 5.31283C8.19584 5.25523 7.69905 5.26963 7.25984 5.32723C7.22213 5.32723 7.18991 5.33271 7.15359 5.3389C7.14831 5.33979 7.14293 5.34071 7.13745 5.34163C6.88545 5.36323 6.27345 5.45683 5.50305 5.79523C5.23665 5.91763 5.07825 6.00403 5.07825 6.00403C5.07825 6.00403 5.67585 5.43523 6.97185 5.06083L6.89984 4.97443C6.89984 4.97443 5.91344 4.95283 4.87664 5.73043C4.87664 5.73043 3.83984 7.60963 3.83984 9.92805C3.83984 9.92805 4.44464 10.972 6.03585 11.0224C6.03585 11.0224 6.30225 10.6984 6.51825 10.4248C5.60385 10.1512 5.25825 9.57525 5.25825 9.57525C5.25825 9.57525 5.33024 9.62565 5.45984 9.69765C5.46704 9.70485 5.47425 9.71205 5.48865 9.71925C5.49945 9.72645 5.51024 9.73181 5.52104 9.73725C5.53184 9.74261 5.54264 9.74805 5.55344 9.75525C5.73344 9.85605 5.91345 9.93525 6.07905 10C6.37425 10.1152 6.72705 10.2304 7.13745 10.3096C7.67745 10.4104 8.31104 10.4464 9.00224 10.3168C9.34064 10.2592 9.68624 10.1584 10.0462 10.0072C10.2982 9.91365 10.579 9.77685 10.8742 9.58245C10.8742 9.58245 10.5142 10.1728 9.57104 10.4392ZM5.96381 8.45909C5.96381 8.01989 6.28781 7.65987 6.69821 7.65987C7.10861 7.65987 7.43981 8.01989 7.43261 8.45909C7.43261 8.89829 7.10861 9.25829 6.69821 9.25829C6.29501 9.25829 5.96381 8.89829 5.96381 8.45909ZM8.59184 8.45909C8.59184 8.01989 8.91584 7.65987 9.32624 7.65987C9.73664 7.65987 10.0606 8.01989 10.0606 8.45909C10.0606 8.89829 9.73664 9.25829 9.32624 9.25829C8.92304 9.25829 8.59184 8.89829 8.59184 8.45909Z" fill="white"/>
</g>
</g>
<defs>
<clipPath id="clip0_1406_3493">
<rect width="16" height="16" fill="white"/>
</clipPath>
</defs>
</svg>
