<svg width="16" height="16" viewBox="0 0 16 16" fill="none" xmlns="http://www.w3.org/2000/svg">
<path fill-rule="evenodd" clip-rule="evenodd" d="M9.73538 1.21935C10.3293 1.30856 10.9357 1.51603 11.2521 1.61268C11.8892 1.80756 12.9238 2.41282 13.2891 2.70328C13.4619 2.84056 13.8252 3.20014 13.966 3.38113C14.103 3.55743 14.3648 3.93943 14.5319 4.17481C14.7977 4.56313 15.1108 5.14168 15.3765 5.67416C15.6732 6.26887 15.6935 6.44123 15.7831 6.93836L15.9793 7.81504C15.9976 7.96649 16.0129 8.52245 15.6866 8.60045C15.3603 8.67837 15.0587 8.52773 14.9167 8.30781C14.7199 8.00333 14.747 7.57098 14.5244 7.0763C14.3508 6.67637 14.275 6.09527 13.9977 5.67727L13.7803 5.30971C13.3957 4.71769 12.9948 4.24758 12.7556 3.94105C12.5452 3.68362 12.1519 3.33352 11.7791 3.0842C11.4343 2.87526 10.8773 2.63687 10.4752 2.5142C10.3471 2.47249 9.79906 2.31133 9.45842 2.26596C8.99602 2.214 8.69186 2.14098 8.25266 2.10992C7.71029 2.07173 7.45007 2.02339 6.74657 2.1056C6.48012 2.17796 6.05777 2.20657 5.67781 2.35193C5.37086 2.4772 4.94408 2.6794 4.52577 2.92505C4.07577 3.17194 3.39249 3.67661 2.93952 4.1076C2.48288 4.59555 2.25451 4.85726 1.93972 5.47575C1.80016 5.78187 1.5305 6.25523 1.42183 6.58944C1.3476 6.92865 1.20586 7.56141 1.22977 7.86877C1.24041 8.41933 1.19225 8.53285 1.23367 8.98285C1.23515 9.38805 1.36812 9.66893 1.42344 10.0003C1.47082 10.2294 1.69059 11.0216 1.82635 11.2056C2.44415 12.5365 3.27331 13.1129 4.1975 13.5288C4.45787 13.6613 5.273 13.8795 5.50883 13.9421C5.91091 14.0145 6.44003 14.063 6.9493 14.0729C7.48503 14.0834 8.22362 14.0108 8.67178 13.8458C9.15658 13.6674 9.71754 13.4139 9.71106 13.4209C9.93618 13.2969 10.2796 13.0945 10.3865 13.0055C10.5933 12.8729 10.7178 12.8217 10.8403 12.6941C11.0171 12.5395 11.124 12.4505 11.2579 12.2589C11.3324 12.1508 11.4508 11.9856 11.5662 11.8394C11.6901 11.6361 11.7614 11.4219 11.8826 11.1571C12.0275 10.7651 12.0051 10.7841 12.0326 10.3677C12.0584 10.2469 12.0297 9.84157 12.0079 9.77277C11.9427 9.39877 11.9656 9.06853 11.88 8.70533C11.7643 8.21389 11.6683 7.84593 11.5206 7.37448C11.3817 6.84361 10.9739 6.35188 10.6679 6.00052C10.4783 5.7828 9.89018 5.26857 9.0741 4.94731C8.84426 4.86994 8.4681 4.78235 8.2293 4.73877C7.71947 4.68546 7.63647 4.7196 7.14839 4.75537C6.98047 4.78466 6.59024 4.86441 6.44691 4.91476C6.02767 5.06203 5.87338 5.15571 5.4447 5.41825C5.24508 5.53405 5.0947 5.62274 4.89076 5.814C4.72783 5.96477 4.61163 6.22067 4.47974 6.37092C4.29902 6.6167 4.09791 6.94468 3.96304 7.29821C3.81675 7.64997 3.76964 8.14517 3.79176 8.46389C3.79176 8.70669 3.8579 9.15133 3.88423 9.24861C3.91042 9.34605 3.976 9.64789 3.99031 9.70853C4.00462 9.76901 4.16159 10.0885 4.18319 10.1346C4.27175 10.3231 4.44127 10.594 4.7269 10.8704C4.93758 11.1007 5.3448 11.3265 5.64975 11.414C5.92307 11.5641 6.38427 11.5894 6.63938 11.59C6.76491 11.5824 7.08561 11.5625 7.25313 11.5225C7.59231 11.4411 7.6551 11.4388 8.00498 11.2869C8.31882 11.1413 8.53178 11.0889 8.75034 10.9275C8.75034 10.9275 9.0505 10.6922 9.18698 10.5203C9.2589 10.4294 9.38226 9.99677 9.36026 9.72877C9.35002 9.36173 9.40346 9.15357 9.32842 8.85181C9.25354 8.54997 9.1257 8.19997 8.98722 7.98428C8.84682 7.76605 8.54498 7.55319 8.20162 7.38377C8.00946 7.28874 7.55386 7.20077 7.3607 7.17793C6.99342 7.13449 6.68637 7.30091 6.49995 7.49151C6.33823 7.67641 6.01861 8.06013 6.14605 8.45701C6.26118 8.81605 6.40019 9.19869 6.93889 9.17037C7.30849 9.24725 7.73596 9.13557 7.87822 9.20109C8.0897 9.32109 8.1709 9.58605 8.09394 9.77085C8.04034 10.1272 7.69909 10.17 7.33492 10.197C7.00897 10.2516 6.18139 10.0921 5.99933 9.95581C5.87746 9.88325 5.69048 9.70901 5.5589 9.59149C5.46426 9.50685 5.35711 9.31813 5.28409 9.18261C5.19432 9.01605 5.14884 8.89349 5.12576 8.78501C5.09836 8.65621 5.04194 8.41029 5.06325 8.16437C5.0777 7.99845 5.1221 7.92786 5.16636 7.68533C5.25437 7.41037 5.36371 7.20101 5.53972 6.96265C5.76892 6.72997 6.06007 6.45298 6.34418 6.32433C6.59483 6.19193 7.03378 6.14334 7.43102 6.16656C7.75323 6.19731 8.13458 6.23646 8.38658 6.32108C8.81778 6.47513 8.94106 6.50589 9.29522 6.72914C9.5945 6.91432 9.89546 7.25488 10.0632 7.53726C10.4207 8.26829 10.6255 9.08165 10.4765 10.1768C10.4644 10.3618 10.4067 10.5425 10.2914 10.7873C10.1848 11.0135 9.99802 11.2884 9.71786 11.4956C9.60498 11.6001 9.42698 11.7286 9.2821 11.8039C9.07642 11.9288 8.93818 11.9937 8.72346 12.1016C8.53506 12.1901 8.3153 12.2913 8.02882 12.3709C7.71855 12.4937 7.48015 12.4988 7.08993 12.5569C6.70551 12.6533 5.65407 12.5845 5.02763 12.3081C4.60015 12.1284 4.12044 11.8116 3.75572 11.4253C3.55313 11.2131 3.35499 10.8277 3.29667 10.749C3.00672 10.1914 2.94991 9.66709 2.90347 9.55693C2.84017 9.40725 2.80887 9.07157 2.76647 8.84197C2.71867 8.58469 2.74839 7.50513 3.00821 6.81214C3.15482 6.53625 3.24051 6.29033 3.33959 6.16103C3.51788 5.90754 3.60389 5.74921 3.75558 5.56943C3.98399 5.2923 4.1504 5.06621 4.37296 4.90695C4.94017 4.44558 5.41381 4.20249 6.05465 3.89796C6.85088 3.57377 7.08993 3.64084 7.84352 3.65287C8.18258 3.65584 8.67578 3.76234 8.91834 3.80647C9.36882 3.86638 9.62682 3.97492 9.93154 4.05996C10.2572 4.1508 10.4456 4.29603 10.7127 4.45761C10.9329 4.59973 11.1916 4.79437 11.3627 4.95242C11.8001 5.27313 12.0114 5.61045 12.2795 6.02468C12.328 6.0942 12.6466 6.77275 12.6973 6.96183C12.7208 7.05647 12.7927 7.32817 12.8391 7.48692C12.8984 7.73878 12.9273 7.9619 12.9936 8.24605C13.0531 8.53877 13.1541 9.09165 13.1979 9.60837C13.2715 10.0515 13.1535 10.9564 13.0839 11.2341C12.929 11.7519 12.6579 12.3839 12.1226 12.9927C11.8951 13.2621 11.6535 13.4711 11.3742 13.6978C11.1605 13.876 10.9775 13.9797 10.6474 14.1767C10.1991 14.4441 9.85818 14.6148 9.23002 14.8603C8.97426 14.9425 8.65202 15.0504 8.30474 15.1224C7.63188 15.1844 6.94052 15.2441 6.18571 15.1543C5.43095 15.0647 4.67493 14.852 4.22828 14.7147C3.98181 14.6222 3.50441 14.4221 3.30423 14.3142C3.17396 14.248 2.73734 13.9495 2.66322 13.8776C2.36398 13.6925 1.69421 13.0625 1.26187 12.4757C1.16712 12.2943 0.82645 11.7501 0.752608 11.5115C0.556201 11.1082 0.419227 10.6204 0.33875 10.4121C0.253851 9.92581 0.110658 9.61237 0.0545074 9.12405C0.0609721 9.00917 0.0315632 8.73869 0.00537109 8.58901C0.0435536 8.25477 -0.00744271 7.93989 0.0589649 7.57613C0.117258 7.26905 0.194348 7.14082 0.212697 6.86331C0.230665 6.74452 0.38343 6.3875 0.424203 6.22865C0.547458 5.9669 0.578074 5.75121 0.739096 5.45899C0.970994 5.00318 1.21328 4.47892 1.58582 4.02094C1.69217 3.8791 1.99387 3.53825 2.09659 3.42015C2.33955 3.17748 2.48208 3.13901 2.75783 2.89524C2.78643 2.87727 2.96854 2.66956 3.15914 2.59828C3.47497 2.35425 3.74805 2.26476 4.0485 2.04271C4.65102 1.74264 4.87051 1.64143 5.46871 1.39253C5.81426 1.26914 6.29629 1.20114 6.46986 1.13376C6.80002 1.11327 7.13516 1.00784 7.48233 1.02888C7.87227 1.02512 8.26522 1.05304 8.6569 1.08856C8.92306 1.10515 9.2677 1.11796 9.73538 1.21935Z" fill="#4365A2"/>
</svg>
