<svg width="16" height="16" viewBox="0 0 16 16" fill="none" xmlns="http://www.w3.org/2000/svg">
<path fill-rule="evenodd" clip-rule="evenodd" d="M9.73529 1.21929C10.3292 1.3085 10.9356 1.51597 11.252 1.61262C11.8891 1.8075 12.9237 2.41276 13.289 2.70322C13.4618 2.8405 13.8251 3.20008 13.9659 3.38107C14.1029 3.55737 14.3647 3.93937 14.5318 4.17475C14.7976 4.56307 15.1107 5.14162 15.3764 5.6741C15.6731 6.26881 15.6934 6.44117 15.783 6.9383L15.9792 7.81498C15.9975 7.96643 16.0128 8.52239 15.6865 8.60039C15.3602 8.67831 15.0586 8.52767 14.9166 8.30775C14.7198 8.00327 14.7469 7.57092 14.5243 7.07624C14.3507 6.67631 14.2749 6.09521 13.9976 5.67721L13.7802 5.30965C13.3956 4.71763 12.9947 4.24752 12.7555 3.94099C12.5451 3.68356 12.1518 3.33346 11.779 3.08414C11.4342 2.8752 10.8772 2.63681 10.4751 2.51414C10.347 2.47243 9.79897 2.31127 9.45833 2.2659C8.99593 2.21394 8.69177 2.14092 8.25257 2.10986C7.7102 2.07167 7.44997 2.02333 6.74648 2.10554C6.48003 2.1779 6.05768 2.2065 5.67772 2.35187C5.37077 2.47714 4.94399 2.67934 4.52568 2.92499C4.07568 3.17188 3.3924 3.67655 2.93943 4.10754C2.48279 4.59549 2.25442 4.8572 1.93963 5.47569C1.80007 5.78181 1.53041 6.25517 1.42173 6.58938C1.34751 6.92859 1.20577 7.56135 1.22968 7.86871C1.24032 8.41927 1.19216 8.53279 1.23358 8.98279C1.23506 9.38799 1.36803 9.66887 1.42335 10.0002C1.47073 10.2294 1.69049 11.0215 1.82625 11.2055C2.44405 12.5365 3.27321 13.1129 4.19741 13.5287C4.45777 13.6613 5.27291 13.8794 5.50874 13.942C5.91081 14.0145 6.43994 14.063 6.94921 14.0728C7.48493 14.0834 8.22353 14.0107 8.67169 13.8458C9.15649 13.6674 9.71745 13.4138 9.71097 13.4209C9.93609 13.2968 10.2795 13.0945 10.3864 13.0054C10.5932 12.8729 10.7177 12.8216 10.8402 12.694C11.017 12.5394 11.1239 12.4504 11.2578 12.2589C11.3323 12.1507 11.4507 11.9855 11.5661 11.8394C11.69 11.6361 11.7613 11.4218 11.8825 11.157C12.0274 10.765 12.005 10.784 12.0325 10.3677C12.0583 10.2469 12.0296 9.84151 12.0078 9.77271C11.9426 9.39871 11.9655 9.06847 11.8799 8.70527C11.7642 8.21383 11.6682 7.84587 11.5205 7.37442C11.3816 6.84355 10.9738 6.35182 10.6678 6.00046C10.4782 5.78274 9.89009 5.2685 9.07401 4.94725C8.84417 4.86988 8.46801 4.78229 8.22921 4.73871C7.71938 4.6854 7.63638 4.71954 7.1483 4.7553C6.98037 4.7846 6.59015 4.86435 6.44682 4.9147C6.02757 5.06197 5.87329 5.15565 5.44461 5.41819C5.24499 5.53398 5.09461 5.62268 4.89067 5.81394C4.72774 5.9647 4.61153 6.22061 4.47965 6.37086C4.29893 6.61664 4.09782 6.94462 3.96295 7.29815C3.81665 7.64991 3.76955 8.14511 3.79167 8.46383C3.79167 8.70663 3.85781 9.15127 3.88413 9.24855C3.91033 9.34599 3.97591 9.64783 3.99021 9.70847C4.00453 9.76895 4.1615 10.0884 4.1831 10.1346C4.27166 10.323 4.44118 10.5939 4.72681 10.8703C4.93749 11.1006 5.34471 11.3264 5.64965 11.4139C5.92297 11.564 6.38417 11.5894 6.63929 11.5899C6.76482 11.5823 7.08552 11.5625 7.25304 11.5224C7.59222 11.441 7.65501 11.4387 8.00489 11.2869C8.31873 11.1413 8.53169 11.0889 8.75025 10.9274C8.75025 10.9274 9.05041 10.6922 9.18689 10.5202C9.25881 10.4294 9.38217 9.99671 9.36017 9.72871C9.34993 9.36167 9.40337 9.15351 9.32833 8.85175C9.25345 8.54991 9.12561 8.19991 8.98713 7.98422C8.84673 7.76598 8.54489 7.55313 8.20153 7.3837C8.00937 7.28868 7.55377 7.20071 7.36061 7.17787C6.99333 7.13443 6.68628 7.30085 6.49986 7.49145C6.33814 7.67635 6.01852 8.06007 6.14596 8.45695C6.26109 8.81599 6.4001 9.19863 6.9388 9.17031C7.3084 9.24719 7.73587 9.13551 7.87813 9.20103C8.08961 9.32103 8.17081 9.58599 8.09385 9.77079C8.04025 10.1271 7.699 10.1699 7.33483 10.197C7.00888 10.2515 6.1813 10.0921 5.99924 9.95575C5.87737 9.88319 5.69039 9.70895 5.55881 9.59143C5.46417 9.50679 5.35701 9.31807 5.284 9.18255C5.19423 9.01599 5.14875 8.89343 5.12567 8.78495C5.09827 8.65615 5.04185 8.41023 5.06316 8.16431C5.07761 7.99839 5.12201 7.9278 5.16627 7.68526C5.25428 7.41031 5.36361 7.20095 5.53963 6.96259C5.76883 6.7299 6.05998 6.45292 6.34409 6.32427C6.59474 6.19186 7.03369 6.14328 7.43093 6.1665C7.75314 6.19725 8.13449 6.2364 8.38649 6.32102C8.81769 6.47507 8.94097 6.50582 9.29513 6.72908C9.59441 6.91426 9.89537 7.25482 10.0631 7.5372C10.4206 8.26823 10.6254 9.08159 10.4764 10.1767C10.4643 10.3618 10.4066 10.5425 10.2913 10.7873C10.1847 11.0134 9.99793 11.2883 9.71777 11.4955C9.60489 11.6 9.42689 11.7286 9.28201 11.8038C9.07633 11.9287 8.93809 11.9937 8.72337 12.1015C8.53497 12.19 8.31521 12.2913 8.02873 12.3709C7.71845 12.4936 7.48006 12.4987 7.08984 12.5569C6.70542 12.6533 5.65397 12.5844 5.02753 12.3081C4.60006 12.1283 4.12035 11.8115 3.75563 11.4252C3.55304 11.213 3.3549 10.8277 3.29657 10.749C3.00663 10.1914 2.94982 9.66703 2.90338 9.55687C2.84008 9.40719 2.80877 9.07151 2.76637 8.84191C2.71858 8.58463 2.7483 7.50506 3.00812 6.81208C3.15473 6.53619 3.24042 6.29027 3.33949 6.16097C3.51779 5.90748 3.6038 5.74915 3.75549 5.56937C3.98389 5.29224 4.15031 5.06615 4.37287 4.90689C4.94008 4.44552 5.41372 4.20243 6.05456 3.8979C6.85079 3.57371 7.08984 3.64078 7.84343 3.65281C8.18249 3.65578 8.67569 3.76228 8.91825 3.80641C9.36873 3.86632 9.62673 3.97486 9.93145 4.0599C10.2571 4.15074 10.4455 4.29597 10.7126 4.45754C10.9328 4.59966 11.1915 4.79431 11.3626 4.95236C11.8 5.27306 12.0113 5.61038 12.2794 6.02462C12.3279 6.09414 12.6465 6.77269 12.6972 6.96177C12.7207 7.05641 12.7926 7.32811 12.839 7.48686C12.8983 7.73872 12.9272 7.96184 12.9935 8.24599C13.053 8.53871 13.154 9.09159 13.1978 9.60831C13.2714 10.0514 13.1534 10.9563 13.0838 11.234C12.9289 11.7518 12.6578 12.3838 12.1225 12.9926C11.895 13.262 11.6534 13.471 11.3741 13.6978C11.1604 13.8759 10.9774 13.9797 10.6473 14.1766C10.199 14.444 9.85809 14.6147 9.22993 14.8602C8.97417 14.9425 8.65193 15.0503 8.30465 15.1223C7.63179 15.1843 6.94043 15.244 6.18562 15.1542C5.43085 15.0646 4.67484 14.8519 4.22819 14.7146C3.98172 14.6222 3.50432 14.422 3.30414 14.3142C3.17387 14.2479 2.73725 13.9494 2.66313 13.8775C2.36389 13.6925 1.69412 13.0625 1.26177 12.4756C1.16703 12.2942 0.826358 11.75 0.752517 11.5114C0.556109 11.1082 0.419136 10.6203 0.338659 10.4121C0.25376 9.92575 0.110567 9.61231 0.0544159 9.12399C0.0608805 9.00911 0.0314716 8.73863 0.00527954 8.58895C0.043462 8.25471 -0.00753427 7.93982 0.0588733 7.57607C0.117166 7.26899 0.194257 7.14076 0.212605 6.86325C0.230573 6.74446 0.383338 6.38744 0.424112 6.22859C0.547367 5.96684 0.577982 5.75115 0.739005 5.45893C0.970902 5.00312 1.21319 4.47886 1.58573 4.02088C1.69208 3.87904 1.99377 3.53819 2.0965 3.42009C2.33945 3.17742 2.48199 3.13895 2.75773 2.89518C2.78634 2.87721 2.96845 2.6695 3.15905 2.59822C3.47488 2.35419 3.74796 2.2647 4.04841 2.04265C4.65093 1.74258 4.87041 1.64137 5.46862 1.39247C5.81417 1.26908 6.2962 1.20108 6.46977 1.1337C6.79993 1.11321 7.13507 1.00778 7.48224 1.02882C7.87218 1.02506 8.26513 1.05298 8.65681 1.0885C8.92297 1.10509 9.26761 1.1179 9.73529 1.21929Z" fill="#4365A2"/>
</svg>
