<svg width="16" height="16" viewBox="0 0 16 16" fill="none" xmlns="http://www.w3.org/2000/svg">
<path fill-rule="evenodd" clip-rule="evenodd" d="M9.73538 1.21951C10.3293 1.30873 10.9357 1.5162 11.2521 1.61285C11.8892 1.80773 12.9238 2.41298 13.2891 2.70345C13.4619 2.84073 13.8252 3.2003 13.966 3.3813C14.103 3.5576 14.3649 3.93959 14.5319 4.17498C14.7977 4.5633 15.1108 5.14184 15.3765 5.67432C15.6732 6.26904 15.6936 6.4414 15.7832 6.93853L15.9793 7.81521C15.9976 7.96666 16.0129 8.52264 15.6866 8.60062C15.3603 8.67851 15.0588 8.52789 14.9166 8.30802C14.7198 8.00349 14.747 7.57115 14.5244 7.07647C14.3508 6.67654 14.2749 6.09544 13.9977 5.67743L13.7804 5.30988C13.3957 4.71786 12.9948 4.24775 12.7556 3.94122C12.5452 3.68379 12.1519 3.33368 11.7791 3.08438C11.4343 2.87543 10.8773 2.63704 10.4752 2.51437C10.3471 2.47266 9.7991 2.3115 9.45839 2.26613C8.99598 2.21416 8.69187 2.14115 8.25265 2.11008C7.71029 2.0719 7.45006 2.02356 6.74657 2.10577C6.48012 2.17812 6.05777 2.20673 5.67781 2.3521C5.37086 2.47736 4.94408 2.67957 4.52577 2.92522C4.07577 3.17211 3.39249 3.67678 2.93952 4.10777C2.48288 4.59572 2.25451 4.85743 1.93973 5.47592C1.80016 5.78203 1.5305 6.25539 1.42183 6.5896C1.3476 6.92882 1.20586 7.56158 1.22977 7.86894C1.24041 8.41949 1.19225 8.533 1.23367 8.98304C1.23515 9.38822 1.36812 9.66912 1.42344 10.0005C1.47082 10.2296 1.69058 11.0217 1.82635 11.2057C2.44414 12.5367 3.27331 13.1131 4.1975 13.5289C4.45786 13.6615 5.273 13.8796 5.50883 13.9422C5.9109 14.0147 6.44003 14.0632 6.9493 14.073C7.48502 14.0836 8.22362 14.011 8.67176 13.846C9.15659 13.6676 9.71754 13.4141 9.71108 13.4211C9.9362 13.297 10.2796 13.0947 10.3865 13.0056C10.5933 12.8731 10.7178 12.8218 10.8403 12.6942C11.0171 12.5397 11.124 12.4506 11.2579 12.2591C11.3324 12.1509 11.4508 11.9857 11.5662 11.8396C11.6901 11.6363 11.7614 11.4221 11.8826 11.1573C12.0276 10.7653 12.005 10.7842 12.0325 10.3679C12.0585 10.2471 12.0297 9.84175 12.0079 9.77292C11.9427 9.3989 11.9656 9.06873 11.88 8.7055C11.7644 8.21407 11.6682 7.8461 11.5206 7.37464C11.3817 6.84378 10.9739 6.35204 10.6679 6.00069C10.4783 5.78297 9.89017 5.26873 9.07411 4.94748C8.84425 4.87011 8.46806 4.78251 8.22929 4.73894C7.71948 4.68563 7.63648 4.71976 7.1484 4.75553C6.98046 4.78483 6.59024 4.86458 6.44691 4.91493C6.02766 5.0622 5.87338 5.15587 5.4447 5.41842C5.24508 5.53421 5.0947 5.62291 4.89076 5.81417C4.72784 5.96493 4.61163 6.22084 4.47974 6.37108C4.29902 6.61687 4.09791 6.94485 3.96305 7.29838C3.81674 7.65014 3.76964 8.14537 3.79176 8.46403C3.79176 8.70688 3.8579 9.15149 3.88423 9.2488C3.91042 9.34624 3.976 9.64807 3.99031 9.70868C4.00462 9.76915 4.16159 10.0886 4.18319 10.1348C4.27175 10.3232 4.44128 10.5941 4.7269 10.8706C4.93758 11.1008 5.3448 11.3267 5.64974 11.4141C5.92307 11.5642 6.38426 11.5896 6.63938 11.5901C6.76491 11.5826 7.08561 11.5627 7.25313 11.5226C7.59232 11.4412 7.6551 11.439 8.00496 11.2871C8.31878 11.1415 8.53178 11.0891 8.7503 10.9277C8.7503 10.9277 9.05051 10.6924 9.18696 10.5204C9.2589 10.4296 9.38226 9.99697 9.36025 9.72893C9.35003 9.36193 9.40344 9.15377 9.32843 8.85198C9.25351 8.55014 9.12566 8.20014 8.9872 7.98446C8.84681 7.76621 8.54501 7.55336 8.20161 7.38394C8.00942 7.28891 7.55386 7.20094 7.3607 7.1781C6.99342 7.13466 6.68637 7.30107 6.49995 7.49168C6.33824 7.67658 6.01861 8.06034 6.14605 8.45716C6.26118 8.81621 6.40019 9.19887 6.93889 9.17053C7.30849 9.24745 7.73596 9.1357 7.87822 9.20129C8.08972 9.32129 8.17086 9.58625 8.09391 9.77102C8.04031 10.1274 7.69909 10.1702 7.33492 10.1971C7.00897 10.2517 6.1814 10.0923 5.99933 9.95595C5.87746 9.88346 5.69048 9.7092 5.5589 9.59165C5.46426 9.50702 5.3571 9.31832 5.28409 9.1828C5.19432 9.01625 5.14884 8.89368 5.12576 8.78515C5.09836 8.6564 5.04193 8.41044 5.06325 8.16452C5.0777 7.99862 5.1221 7.92803 5.16636 7.68549C5.25437 7.41054 5.3637 7.20118 5.53972 6.96282C5.76892 6.73013 6.06007 6.45315 6.34418 6.3245C6.59484 6.19209 7.03378 6.14351 7.43102 6.16673C7.75323 6.19748 8.13454 6.23663 8.38655 6.32125C8.81778 6.4753 8.94104 6.50605 9.29522 6.72931C9.59446 6.91448 9.89546 7.25505 10.0632 7.53743C10.4207 8.26846 10.6256 9.08183 10.4765 10.1769C10.4644 10.362 10.4068 10.5427 10.2914 10.7875C10.1849 11.0136 9.99805 11.2886 9.71782 11.4958C9.605 11.6003 9.42694 11.7288 9.28212 11.8041C9.07642 11.9289 8.9382 11.9939 8.72345 12.1017C8.53503 12.1902 8.31526 12.2915 8.02884 12.3711C7.71854 12.4938 7.48015 12.4989 7.08993 12.5571C6.70551 12.6535 5.65406 12.5846 5.02763 12.3083C4.60016 12.1286 4.12044 11.8118 3.75572 11.4254C3.55313 11.2133 3.35499 10.8279 3.29667 10.7492C3.00672 10.1916 2.94991 9.66725 2.90347 9.55709C2.84017 9.4074 2.80886 9.07171 2.76647 8.84213C2.71868 8.58484 2.74839 7.50529 3.00821 6.8123C3.15482 6.53642 3.24052 6.2905 3.33958 6.1612C3.51788 5.90771 3.60389 5.74938 3.75558 5.56959C3.98399 5.29247 4.1504 5.06638 4.37296 4.90712C4.94017 4.44575 5.41381 4.20266 6.05465 3.89813C6.85088 3.57394 7.08993 3.64101 7.84353 3.65304C8.18257 3.656 8.6758 3.76251 8.91834 3.80663C9.36879 3.86655 9.62684 3.97509 9.9315 4.06012C10.2572 4.15097 10.4456 4.2962 10.7127 4.45777C10.9329 4.5999 11.1916 4.79454 11.3627 4.95259C11.8001 5.27329 12.0114 5.61061 12.2794 6.02485C12.328 6.09437 12.6466 6.77291 12.6973 6.96199C12.7208 7.05664 12.7927 7.32834 12.839 7.48708C12.8984 7.73895 12.9273 7.96207 12.9936 8.2462C13.0531 8.53895 13.1541 9.09182 13.198 9.60851C13.2715 10.0517 13.1536 10.9565 13.0839 11.2342C12.9289 11.7521 12.6579 12.3841 12.1226 12.9928C11.8952 13.2622 11.6536 13.4713 11.3741 13.6979C11.1605 13.8761 10.9774 13.9799 10.6474 14.1768C10.1992 14.4442 9.85821 14.615 9.23001 14.8605C8.97424 14.9427 8.65203 15.0505 8.30476 15.1225C7.63188 15.1846 6.94052 15.2442 6.18572 15.1545C5.43095 15.0649 4.67493 14.8521 4.22828 14.7149C3.98181 14.6224 3.50441 14.4222 3.30423 14.3144C3.17396 14.2481 2.73734 13.9497 2.66322 13.8777C2.36398 13.6927 1.69421 13.0627 1.26187 12.4759C1.16712 12.2944 0.82645 11.7502 0.752608 11.5117C0.556201 11.1084 0.419228 10.6206 0.338751 10.4123C0.253851 9.92599 0.110658 9.61255 0.0545074 9.12423C0.0609721 9.00934 0.0315632 8.73884 0.00537109 8.58916C0.0435536 8.25495 -0.00744271 7.94005 0.0589649 7.5763C0.117258 7.26922 0.194348 7.14099 0.212697 6.86348C0.230665 6.74468 0.383429 6.38767 0.424204 6.22882C0.547459 5.96707 0.578074 5.75138 0.739096 5.45916C0.970991 5.00335 1.21329 4.47909 1.58581 4.02111C1.69217 3.87927 1.99387 3.53842 2.0966 3.42032C2.33955 3.17764 2.48208 3.13918 2.75783 2.8954C2.78644 2.87743 2.96854 2.66973 3.15914 2.59844C3.47497 2.35442 3.74805 2.26492 4.0485 2.04288C4.65102 1.74281 4.87051 1.6416 5.46871 1.3927C5.81426 1.26931 6.29629 1.20131 6.46985 1.13393C6.80002 1.11344 7.13516 1.00801 7.48233 1.02905C7.87227 1.02528 8.26519 1.05321 8.6569 1.08873C8.92307 1.10532 9.26768 1.11813 9.73537 1.21952" fill="#4365A2"/>
</svg>
