<svg width="16" height="16" viewBox="0 0 16 16" fill="none" xmlns="http://www.w3.org/2000/svg">
<path fill-rule="evenodd" clip-rule="evenodd" d="M9.73528 1.21929C10.3292 1.3085 10.9356 1.51597 11.252 1.61262C11.8891 1.8075 12.9237 2.41276 13.289 2.70322C13.4618 2.8405 13.8251 3.20008 13.9659 3.38107C14.1029 3.55737 14.3647 3.93937 14.5318 4.17475C14.7976 4.56307 15.1107 5.14162 15.3764 5.6741C15.6731 6.26881 15.6934 6.44117 15.783 6.9383L15.9792 7.81498C15.9975 7.96643 16.0128 8.52239 15.6865 8.60039C15.3602 8.67831 15.0586 8.52767 14.9166 8.30775C14.7198 8.00327 14.7469 7.57092 14.5243 7.07624C14.3507 6.67631 14.2749 6.09521 13.9976 5.67721L13.7802 5.30965C13.3956 4.71763 12.9947 4.24752 12.7555 3.94099C12.5451 3.68356 12.1518 3.33346 11.779 3.08414C11.4342 2.8752 10.8772 2.63681 10.4751 2.51414C10.347 2.47243 9.79896 2.31127 9.45832 2.2659C8.99592 2.21394 8.69176 2.14092 8.25256 2.10986C7.71019 2.07167 7.44997 2.02333 6.74647 2.10554C6.48002 2.1779 6.05767 2.2065 5.67771 2.35187C5.37076 2.47714 4.94398 2.67934 4.52567 2.92499C4.07567 3.17188 3.39239 3.67655 2.93942 4.10754C2.48278 4.59549 2.25441 4.8572 1.93962 5.47569C1.80006 5.78181 1.5304 6.25517 1.42173 6.58938C1.3475 6.92859 1.20576 7.56135 1.22967 7.86871C1.24031 8.41927 1.19215 8.53279 1.23357 8.98279C1.23505 9.38799 1.36802 9.66887 1.42334 10.0002C1.47072 10.2294 1.69049 11.0215 1.82625 11.2055C2.44405 12.5365 3.27321 13.1129 4.1974 13.5287C4.45777 13.6613 5.2729 13.8794 5.50873 13.942C5.91081 14.0145 6.43993 14.063 6.9492 14.0728C7.48493 14.0834 8.22352 14.0107 8.67168 13.8458C9.15648 13.6674 9.71744 13.4138 9.71096 13.4209C9.93608 13.2968 10.2795 13.0945 10.3864 13.0054C10.5932 12.8729 10.7177 12.8216 10.8402 12.694C11.017 12.5394 11.1239 12.4504 11.2578 12.2589C11.3323 12.1507 11.4507 11.9855 11.5661 11.8394C11.69 11.6361 11.7613 11.4218 11.8825 11.157C12.0274 10.765 12.005 10.784 12.0325 10.3677C12.0583 10.2469 12.0296 9.84151 12.0078 9.77271C11.9426 9.39871 11.9655 9.06847 11.8799 8.70527C11.7642 8.21383 11.6682 7.84587 11.5205 7.37442C11.3816 6.84355 10.9738 6.35182 10.6678 6.00046C10.4782 5.78274 9.89008 5.2685 9.074 4.94725C8.84416 4.86988 8.468 4.78229 8.2292 4.73871C7.71937 4.6854 7.63637 4.71954 7.14829 4.7553C6.98037 4.7846 6.59014 4.86435 6.44681 4.9147C6.02757 5.06197 5.87328 5.15565 5.4446 5.41819C5.24498 5.53398 5.0946 5.62268 4.89066 5.81394C4.72773 5.9647 4.61153 6.22061 4.47964 6.37086C4.29892 6.61664 4.09781 6.94462 3.96294 7.29815C3.81665 7.64991 3.76954 8.14511 3.79166 8.46383C3.79166 8.70663 3.8578 9.15127 3.88413 9.24855C3.91032 9.34599 3.9759 9.64783 3.99021 9.70847C4.00452 9.76895 4.16149 10.0884 4.18309 10.1346C4.27165 10.323 4.44117 10.5939 4.7268 10.8703C4.93748 11.1006 5.3447 11.3264 5.64965 11.4139C5.92297 11.564 6.38417 11.5894 6.63928 11.5899C6.76481 11.5823 7.08551 11.5625 7.25303 11.5224C7.59221 11.441 7.655 11.4387 8.00488 11.2869C8.31872 11.1413 8.53168 11.0889 8.75024 10.9274C8.75024 10.9274 9.0504 10.6922 9.18688 10.5202C9.2588 10.4294 9.38216 9.99671 9.36016 9.72871C9.34992 9.36167 9.40336 9.15351 9.32832 8.85175C9.25344 8.54991 9.1256 8.19991 8.98712 7.98422C8.84672 7.76598 8.54488 7.55313 8.20152 7.3837C8.00936 7.28868 7.55376 7.20071 7.3606 7.17787C6.99332 7.13443 6.68627 7.30085 6.49985 7.49145C6.33813 7.67635 6.01851 8.06007 6.14595 8.45695C6.26108 8.81599 6.40009 9.19863 6.93879 9.17031C7.30839 9.24719 7.73586 9.13551 7.87812 9.20103C8.0896 9.32103 8.1708 9.58599 8.09384 9.77079C8.04024 10.1271 7.69899 10.1699 7.33482 10.197C7.00887 10.2515 6.18129 10.0921 5.99923 9.95575C5.87736 9.88319 5.69038 9.70895 5.5588 9.59143C5.46416 9.50679 5.35701 9.31807 5.28399 9.18255C5.19422 9.01599 5.14874 8.89343 5.12566 8.78495C5.09826 8.65615 5.04184 8.41023 5.06315 8.16431C5.0776 7.99839 5.122 7.9278 5.16626 7.68526C5.25427 7.41031 5.36361 7.20095 5.53962 6.96259C5.76882 6.7299 6.05997 6.45292 6.34408 6.32427C6.59473 6.19186 7.03368 6.14328 7.43092 6.1665C7.75313 6.19725 8.13448 6.2364 8.38648 6.32102C8.81768 6.47507 8.94096 6.50582 9.29512 6.72908C9.5944 6.91426 9.89536 7.25482 10.0631 7.5372C10.4206 8.26823 10.6254 9.08159 10.4764 10.1767C10.4643 10.3618 10.4066 10.5425 10.2913 10.7873C10.1847 11.0134 9.99792 11.2883 9.71776 11.4955C9.60488 11.6 9.42688 11.7286 9.282 11.8038C9.07632 11.9287 8.93808 11.9937 8.72336 12.1015C8.53496 12.19 8.3152 12.2913 8.02872 12.3709C7.71845 12.4936 7.48005 12.4987 7.08983 12.5569C6.70541 12.6533 5.65397 12.5844 5.02753 12.3081C4.60005 12.1283 4.12034 11.8115 3.75562 11.4252C3.55303 11.213 3.35489 10.8277 3.29657 10.749C3.00662 10.1914 2.94981 9.66703 2.90337 9.55687C2.84007 9.40719 2.80877 9.07151 2.76637 8.84191C2.71857 8.58463 2.74829 7.50506 3.00811 6.81208C3.15472 6.53619 3.24041 6.29027 3.33949 6.16097C3.51778 5.90748 3.60379 5.74915 3.75548 5.56937C3.98389 5.29224 4.1503 5.06615 4.37286 4.90689C4.94007 4.44552 5.41371 4.20243 6.05455 3.8979C6.85078 3.57371 7.08983 3.64078 7.84342 3.65281C8.18248 3.65578 8.67568 3.76228 8.91824 3.80641C9.36872 3.86632 9.62672 3.97486 9.93144 4.0599C10.2571 4.15074 10.4455 4.29597 10.7126 4.45754C10.9328 4.59966 11.1915 4.79431 11.3626 4.95236C11.8 5.27306 12.0113 5.61038 12.2794 6.02462C12.3279 6.09414 12.6465 6.77269 12.6972 6.96177C12.7207 7.05641 12.7926 7.32811 12.839 7.48686C12.8983 7.73872 12.9272 7.96184 12.9935 8.24599C13.053 8.53871 13.154 9.09159 13.1978 9.60831C13.2714 10.0514 13.1534 10.9563 13.0838 11.234C12.9289 11.7518 12.6578 12.3838 12.1225 12.9926C11.895 13.262 11.6534 13.471 11.3741 13.6978C11.1604 13.8759 10.9774 13.9797 10.6473 14.1766C10.199 14.444 9.85808 14.6147 9.22992 14.8602C8.97416 14.9425 8.65192 15.0503 8.30464 15.1223C7.63178 15.1843 6.94042 15.244 6.18561 15.1542C5.43085 15.0646 4.67483 14.8519 4.22818 14.7146C3.98171 14.6222 3.50431 14.422 3.30413 14.3142C3.17386 14.2479 2.73724 13.9494 2.66312 13.8775C2.36388 13.6925 1.69411 13.0625 1.26177 12.4756C1.16702 12.2942 0.82635 11.75 0.752509 11.5114C0.556102 11.1082 0.419128 10.6203 0.338651 10.4121C0.253752 9.92575 0.110559 9.61231 0.0544082 9.12399C0.0608729 9.00911 0.031464 8.73863 0.00527191 8.58895C0.0434544 8.25471 -0.0075419 7.93982 0.0588657 7.57607C0.117158 7.26899 0.194249 7.14076 0.212598 6.86325C0.230566 6.74446 0.38333 6.38744 0.424104 6.22859C0.547359 5.96684 0.577974 5.75115 0.738997 5.45893C0.970894 5.00312 1.21318 4.47886 1.58572 4.02088C1.69207 3.87904 1.99377 3.53819 2.09649 3.42009C2.33945 3.17742 2.48198 3.13895 2.75773 2.89518C2.78633 2.87721 2.96844 2.6695 3.15904 2.59822C3.47487 2.35419 3.74795 2.2647 4.0484 2.04265C4.65092 1.74258 4.87041 1.64137 5.46861 1.39247C5.81416 1.26908 6.29619 1.20108 6.46976 1.1337C6.79992 1.11321 7.13506 1.00778 7.48223 1.02882C7.87217 1.02506 8.26512 1.05298 8.6568 1.0885C8.92296 1.10509 9.2676 1.1179 9.73528 1.21929Z" fill="#FF00FF"/>
</svg>
