<svg width="16" height="16" viewBox="0 0 16 16" fill="none" xmlns="http://www.w3.org/2000/svg">
<path d="M13.4016 13.5661C13.4049 13.7879 13.268 14.0077 12.9988 14.213C12.7294 14.4182 12.3329 14.6048 11.8321 14.7621C11.3312 14.9193 10.736 15.044 10.0804 15.1291C9.42467 15.2143 8.72171 15.2581 8.01171 15.2581C7.30171 15.2581 6.59871 15.2143 5.9431 15.1291C5.28747 15.044 4.69215 14.9193 4.19132 14.7621C3.69049 14.6048 3.29402 14.4182 3.02469 14.213C2.75536 14.0077 2.61847 13.7879 2.62189 13.5661C2.61847 13.3443 2.75536 13.1245 3.02469 12.9193C3.29402 12.714 3.69049 12.5274 4.19132 12.3702C4.69215 12.2129 5.28747 12.0882 5.9431 12.0031C6.59871 11.918 7.30171 11.8741 8.01171 11.8741C8.72171 11.8741 9.42467 11.918 10.0804 12.0031C10.736 12.0882 11.3312 12.2129 11.8321 12.3702C12.3329 12.5274 12.7294 12.714 12.9988 12.9193C13.268 13.1245 13.4049 13.3443 13.4016 13.5661Z" fill="url(#paint0_radial_1406_3488)"/>
<path d="M8.06248 1.74976C4.476 1.74976 1.5625 4.66325 1.5625 8.24976C1.5625 11.8362 4.476 14.7498 8.06248 14.7498C11.649 14.7498 14.5625 11.8362 14.5625 8.24976C14.5625 4.66325 11.649 1.74976 8.06248 1.74976Z" fill="url(#paint1_radial_1406_3488)"/>
<path opacity="0.5" d="M8.06248 1.74976C4.476 1.74976 1.5625 4.66325 1.5625 8.24976C1.5625 11.8362 4.476 14.7498 8.06248 14.7498C11.649 14.7498 14.5625 11.8362 14.5625 8.24976C14.5625 4.66325 11.649 1.74976 8.06248 1.74976Z" stroke="#00537D" stroke-width="0.15625" stroke-linecap="round" stroke-linejoin="round"/>
<path opacity="0.5" d="M14.4375 8.24976C14.4375 11.7706 11.5833 14.6247 8.06248 14.6247C4.54162 14.6247 1.6875 11.7706 1.6875 8.24976C1.6875 4.729 4.54162 1.87476 8.06248 1.87476C11.5833 1.87476 14.4375 4.729 14.4375 8.24976Z" stroke="url(#paint2_linear_1406_3488)" stroke-width="0.15625" stroke-linecap="round" stroke-linejoin="round"/>
<path opacity="0.05" d="M8.06253 3.49927C5.37126 3.49927 3.18677 5.68377 3.18677 8.37498C3.18677 11.0663 5.37114 13.2507 8.06253 13.2507C10.7537 13.2507 12.9383 11.0664 12.9383 8.37498C12.9383 5.68377 10.7539 3.49927 8.06253 3.49927ZM8.06253 4.14652C9.98373 4.14652 11.6005 5.42827 12.1163 7.18089C11.6809 8.0633 11.0696 8.85938 10.3259 9.50338C9.96253 9.81818 9.56853 10.0959 9.13749 10.2903C8.70693 10.4844 8.23565 10.5933 7.77177 10.5667C7.50177 10.5511 7.24014 10.4759 6.99202 10.3704C7.76826 9.91786 8.47429 9.34378 9.05829 8.65962C9.47813 8.16802 9.85253 7.60252 9.99829 6.9524C10.0712 6.62689 10.0841 6.2844 10.0149 5.95315C9.94565 5.62127 9.79237 5.30389 9.55693 5.05352C9.32693 4.80889 9.02773 4.6374 8.70749 4.54915C8.38773 4.46089 8.05029 4.45477 7.72802 4.51364C7.08377 4.6314 6.51814 5.00215 6.06764 5.45615C5.27314 6.25664 4.78052 7.38489 4.87139 8.51898C4.91677 9.08586 5.10652 9.64314 5.43364 10.1115C5.46952 10.1629 5.51152 10.209 5.55052 10.2578C5.18331 10.377 4.80686 10.4655 4.42502 10.5225C4.05214 9.8925 3.83402 9.16066 3.83402 8.37498C3.83402 6.03827 5.72577 4.14652 8.06253 4.14652ZM8.08989 5.0264C8.37061 5.02677 8.65301 5.11264 8.87277 5.27864C9.07093 5.42827 9.22077 5.64427 9.30565 5.88277C9.39061 6.12202 9.41341 6.38502 9.38373 6.64215C9.32453 7.15715 9.06149 7.64114 8.73541 8.06986C8.15701 8.83002 7.38614 9.44066 6.52789 9.86818C6.46826 9.89786 6.40714 9.92538 6.34626 9.95338C6.19102 9.80754 6.04877 9.64714 5.94464 9.46266C5.70014 9.02978 5.61702 8.50874 5.66526 8.0049C5.71364 7.50015 5.88802 7.00827 6.12502 6.5494C6.39939 6.01815 6.76964 5.52515 7.27377 5.24715C7.52526 5.1084 7.80826 5.02589 8.08989 5.0264ZM12.2779 8.17978C12.2809 8.24514 12.291 8.30874 12.291 8.37498C12.291 10.7118 10.3992 12.6035 8.06253 12.6035C6.82377 12.6035 5.72302 12.0595 4.94977 11.2116C5.35439 11.1075 5.75164 10.9759 6.13477 10.8099C6.32926 10.9499 6.53602 11.0743 6.76077 11.1604C7.47752 11.4351 8.28229 11.3942 8.99741 11.1465C9.71117 10.8994 10.3377 10.4587 10.8812 9.95066C11.4329 9.4349 11.8915 8.82882 12.2779 8.17978Z" fill="black"/>
<path opacity="0.15" d="M8.06248 3.625C5.43913 3.625 3.3125 5.75162 3.3125 8.37504C3.3125 10.9984 5.43913 13.125 8.06248 13.125C10.6858 13.125 12.8125 10.9984 12.8125 8.37504C12.8125 5.75162 10.6858 3.625 8.06248 3.625ZM8.06248 4.02087C10.057 4.02087 11.7382 5.36187 12.2538 7.1915C11.8078 8.1104 11.1798 8.92928 10.4082 9.59864C10.0386 9.91872 9.63504 10.2042 9.18912 10.4051C8.74328 10.6062 8.25288 10.7202 7.76463 10.6922C7.39637 10.6716 7.03743 10.5686 6.71425 10.3909C7.56551 9.92952 8.33376 9.3144 8.96248 8.57784C9.37528 8.0944 9.7364 7.545 9.87536 6.92475C9.94496 6.61475 9.95664 6.28975 9.89176 5.97875C9.82672 5.6675 9.68304 5.37113 9.46528 5.1395C9.25264 4.91325 8.97336 4.75313 8.674 4.6705C8.37472 4.588 8.05624 4.5815 7.75076 4.63738C7.13988 4.749 6.5945 5.104 6.157 5.54487C5.386 6.32175 4.90938 7.418 4.99676 8.50912C5.0405 9.05464 5.22325 9.59072 5.53663 10.0395C5.60663 10.1396 5.68338 10.235 5.76563 10.3255C5.30894 10.4855 4.83712 10.5986 4.35751 10.663C3.93196 9.97584 3.70712 9.18328 3.70838 8.37504C3.70838 5.97025 5.65776 4.02087 8.06248 4.02087ZM8.09024 4.90062C8.39624 4.901 8.70448 4.99362 8.94864 5.17813C9.16864 5.34438 9.33176 5.58087 9.42416 5.84062C9.51664 6.1005 9.5404 6.38262 9.50872 6.65662C9.44576 7.2045 9.16928 7.707 8.83536 8.14584C8.24416 8.92312 7.45813 9.54512 6.58413 9.98064C6.49463 10.0251 6.40376 10.0675 6.31238 10.1082C6.12148 9.94192 5.96004 9.74456 5.83488 9.52448C5.57525 9.06464 5.48963 8.51864 5.54 7.993C5.59038 7.4675 5.77076 6.96087 6.01313 6.49175C6.294 5.948 6.67688 5.43275 7.213 5.13713C7.481 4.98925 7.78413 4.90013 8.09024 4.90062ZM12.3775 7.79213C12.403 7.98275 12.4165 8.17736 12.4165 8.37504C12.4165 10.7798 10.4671 12.7291 8.0624 12.7291C6.71188 12.7291 5.50488 12.1144 4.70613 11.1493C5.19942 11.0368 5.68066 10.8769 6.14313 10.6718C6.34521 10.8263 6.56829 10.9514 6.80563 11.043C7.48888 11.3049 8.26448 11.267 8.956 11.0276C9.64736 10.7882 10.2606 10.3585 10.7951 9.85888C11.433 9.262 11.9677 8.5636 12.3775 7.79213Z" fill="black"/>
<path d="M8.06248 3.5C5.43913 3.5 3.3125 5.62662 3.3125 8.25C3.3125 10.8734 5.43913 13 8.06248 13C10.6858 13 12.8125 10.8734 12.8125 8.25C12.8125 5.62662 10.6858 3.5 8.06248 3.5ZM8.06248 3.89587C10.057 3.89587 11.7382 5.23687 12.2538 7.0665C11.8078 7.9854 11.1798 8.80424 10.4082 9.4736C10.0386 9.79376 9.63504 10.0791 9.18912 10.2802C8.74328 10.4811 8.25288 10.5951 7.76463 10.5671C7.39637 10.5466 7.03743 10.4436 6.71425 10.2658C7.56551 9.80448 8.33376 9.18936 8.96248 8.45288C9.37528 7.96938 9.7364 7.42 9.87536 6.79975C9.94488 6.48975 9.95664 6.16475 9.89176 5.85375C9.82672 5.5425 9.68304 5.24613 9.46528 5.0145C9.25264 4.78825 8.97336 4.62813 8.674 4.5455C8.37472 4.463 8.05624 4.4565 7.75076 4.51238C7.13988 4.624 6.5945 4.979 6.157 5.41987C5.386 6.19675 4.90938 7.293 4.99676 8.38416C5.0405 8.9296 5.22325 9.46576 5.53663 9.91448C5.60663 10.0146 5.68338 10.11 5.76563 10.2005C5.30894 10.3606 4.83712 10.4736 4.35751 10.538C3.93196 9.8508 3.70712 9.05832 3.70838 8.25C3.70838 5.84525 5.65776 3.89587 8.06248 3.89587ZM8.09024 4.77562C8.39624 4.776 8.70448 4.86862 8.94864 5.05313C9.16864 5.21938 9.33176 5.45587 9.42416 5.71562C9.51664 5.9755 9.5404 6.25762 9.50872 6.53162C9.44576 7.0795 9.16928 7.582 8.83536 8.02088C8.24416 8.79816 7.45813 9.42016 6.58413 9.8556C6.49463 9.90016 6.40376 9.94248 6.31238 9.98328C6.12148 9.81696 5.96004 9.6196 5.83488 9.39952C5.57525 8.9396 5.48963 8.3936 5.54 7.868C5.59038 7.3425 5.77076 6.83587 6.01313 6.36675C6.294 5.823 6.67688 5.30775 7.213 5.01213C7.481 4.86425 7.78413 4.77513 8.09024 4.77562ZM12.3775 7.66713C12.403 7.85775 12.4165 8.0524 12.4165 8.25C12.4165 10.6547 10.4671 12.6042 8.0624 12.6042C6.71188 12.6042 5.50488 11.9894 4.70613 11.0242C5.19942 10.9118 5.68066 10.7519 6.14313 10.5467C6.34521 10.7014 6.56829 10.8263 6.80563 10.918C7.48888 11.1798 8.26448 11.142 8.956 10.9026C9.64736 10.6633 10.2606 10.2335 10.7951 9.73384C11.433 9.13696 11.9677 8.43864 12.3775 7.66713Z" fill="white"/>
<defs>
<radialGradient id="paint0_radial_1406_3488" cx="0" cy="0" r="1" gradientUnits="userSpaceOnUse" gradientTransform="translate(8.01163 13.5661) scale(5.38982 1.68394)">
<stop stop-color="#3D3D3D"/>
<stop offset="0.5" stop-color="#686868" stop-opacity="0.498"/>
<stop offset="1" stop-color="#686868" stop-opacity="0"/>
</radialGradient>
<radialGradient id="paint1_radial_1406_3488" cx="0" cy="0" r="1" gradientUnits="userSpaceOnUse" gradientTransform="translate(8.06216 -3.16473) rotate(90) scale(31.7074 33.5426)">
<stop stop-color="#90DBEC"/>
<stop offset="0.262" stop-color="#42BAEA"/>
<stop offset="0.705" stop-color="#3689E6"/>
<stop offset="1" stop-color="#2B63A0"/>
</radialGradient>
<linearGradient id="paint2_linear_1406_3488" x1="7.55648" y1="1.74484" x2="7.55648" y2="14.823" gradientUnits="userSpaceOnUse">
<stop stop-color="white"/>
<stop offset="0.424" stop-color="white" stop-opacity="0.235"/>
<stop offset="0.821" stop-color="white" stop-opacity="0.157"/>
<stop offset="1" stop-color="white" stop-opacity="0.392"/>
</linearGradient>
</defs>
</svg>
