<svg width="16" height="16" viewBox="0 0 16 16" fill="none" xmlns="http://www.w3.org/2000/svg">
<path d="M8 2C4.68629 2 2 4.68629 2 8C2 11.3137 4.68629 14 8 14C11.3137 14 14 11.3137 14 8C14 4.68629 11.3137 2 8 2ZM8 2.5C10.5194 2.5 12.643 4.19397 13.2944 6.505C12.7334 7.66205 11.9352 8.70376 10.9631 9.5456C10.4962 9.95 9.98632 10.3106 9.42312 10.5644C8.85992 10.8182 8.24048 10.9622 7.62375 10.9269C7.16038 10.9003 6.70266 10.7712 6.29687 10.5462C7.37228 9.96352 8.34256 9.18656 9.13688 8.25624C9.65824 7.6456 10.1144 6.95162 10.29 6.16813C10.3778 5.77638 10.3927 5.36611 10.3106 4.97313C10.2286 4.58014 10.0469 4.20564 9.77184 3.91313C9.5032 3.62736 9.15056 3.42494 8.77248 3.32062C8.3944 3.21632 7.99207 3.20824 7.60625 3.27875C6.83462 3.41977 6.14568 3.86823 5.59313 4.425C4.61917 5.40638 4.01706 6.79114 4.1275 8.16936C4.18272 8.85848 4.41366 9.5356 4.80938 10.1025C4.8977 10.229 4.99482 10.3495 5.09875 10.4638C4.52227 10.6655 3.92538 10.8091 3.32 10.89C2.80024 10.0502 2.5 9.06024 2.5 8C2.5 4.96243 4.96243 2.5 8 2.5ZM8.03504 3.61125C8.4216 3.61178 8.81088 3.72882 9.11936 3.96187C9.39728 4.17185 9.60328 4.47056 9.72 4.79875C9.83672 5.12694 9.86672 5.48333 9.82688 5.82938C9.7472 6.52147 9.39808 7.15618 8.97624 7.71062C8.22936 8.69232 7.23662 9.47808 6.1325 10.0282C6.01949 10.0844 5.90468 10.1379 5.78938 10.1894C5.54913 9.97912 5.34321 9.72976 5.18625 9.45184C4.85827 8.8712 4.75012 8.18136 4.81375 7.5175C4.87738 6.85363 5.10521 6.2138 5.41125 5.62125C5.7661 4.93422 6.24978 4.28345 6.92687 3.91C7.26542 3.72327 7.64837 3.61073 8.03504 3.61125ZM13.4506 7.26375C13.4829 7.5046 13.5 7.75033 13.5 8C13.5 11.0376 11.0376 13.5 8 13.5C6.29407 13.5 4.76945 12.7234 3.76062 11.5044C4.3833 11.363 4.99189 11.1598 5.57562 10.9013C5.8309 11.0957 6.11282 11.2551 6.4125 11.37C7.27552 11.7009 8.25536 11.653 9.12872 11.3506C10.0022 11.0482 10.7767 10.5055 11.4518 9.8744C12.2562 9.12248 12.9343 8.23624 13.4506 7.26375Z" fill="#FF00FF"/>
</svg>
