<svg width="16" height="16" viewBox="0 0 16 16" fill="none" xmlns="http://www.w3.org/2000/svg">
<path d="M13.4015 13.566C13.4049 13.7878 13.268 14.0077 12.9987 14.2129C12.7294 14.4181 12.3329 14.6047 11.8321 14.7619C11.3313 14.9191 10.7359 15.0439 10.0803 15.129C9.42469 15.2142 8.72169 15.258 8.0117 15.258C7.30171 15.258 6.59871 15.2142 5.94309 15.129C5.28747 15.0439 4.69215 14.9191 4.19132 14.7619C3.69049 14.6047 3.29402 14.4181 3.02469 14.2129C2.75536 14.0077 2.61847 13.7878 2.62189 13.566C2.61847 13.3442 2.75536 13.1244 3.02469 12.9191C3.29402 12.7139 3.69049 12.5273 4.19132 12.3701C4.69215 12.2129 5.28747 12.0881 5.94309 12.003C6.59871 11.9178 7.30171 11.874 8.0117 11.874C8.72169 11.874 9.42469 11.9178 10.0803 12.003C10.7359 12.0881 11.3313 12.2129 11.8321 12.3701C12.3329 12.5273 12.7294 12.7139 12.9987 12.9191C13.268 13.1244 13.4049 13.3442 13.4015 13.566Z" fill="url(#paint0_radial_348_3836)"/>
<path d="M8.0625 1.74951C4.476 1.74951 1.5625 4.66301 1.5625 8.24951C1.5625 11.836 4.476 14.7495 8.0625 14.7495C11.649 14.7495 14.5625 11.836 14.5625 8.24951C14.5625 4.66301 11.649 1.74951 8.0625 1.74951Z" fill="url(#paint1_radial_348_3836)"/>
<path opacity="0.5" d="M8.0625 1.74951C4.476 1.74951 1.5625 4.66301 1.5625 8.24951C1.5625 11.836 4.476 14.7495 8.0625 14.7495C11.649 14.7495 14.5625 11.836 14.5625 8.24951C14.5625 4.66301 11.649 1.74951 8.0625 1.74951V1.74951Z" stroke="#00537D" stroke-width="0.15625" stroke-linecap="round" stroke-linejoin="round"/>
<path opacity="0.5" d="M14.4375 8.24951C14.4375 11.7704 11.5833 14.6245 8.0625 14.6245C4.54163 14.6245 1.6875 11.7704 1.6875 8.24951C1.6875 4.72876 4.54163 1.87451 8.0625 1.87451C11.5833 1.87451 14.4375 4.72876 14.4375 8.24951Z" stroke="url(#paint2_linear_348_3836)" stroke-width="0.15625" stroke-linecap="round" stroke-linejoin="round"/>
<path opacity="0.05" d="M8.06252 3.49902C5.37127 3.49902 3.18677 5.68352 3.18677 8.37477C3.18677 11.066 5.37114 13.2505 8.06252 13.2505C10.7538 13.2505 12.9383 11.0661 12.9383 8.37477C12.9383 5.68352 10.7539 3.49902 8.06252 3.49902ZM8.06252 4.14627C9.98377 4.14627 11.6005 5.42802 12.1163 7.18065C11.6809 8.06302 11.0696 8.85915 10.3259 9.50315C9.96252 9.8179 9.56852 10.0956 9.13752 10.29C8.70689 10.4841 8.23564 10.593 7.77177 10.5664C7.50177 10.5509 7.24014 10.4756 6.99202 10.3701C7.76827 9.91765 8.47427 9.34352 9.05827 8.6594C9.47814 8.16777 9.85252 7.60227 9.99827 6.95215C10.0713 6.62665 10.0841 6.28415 10.0149 5.9529C9.94564 5.62102 9.79239 5.30365 9.55689 5.05327C9.32689 4.80865 9.02777 4.63715 8.70752 4.5489C8.38777 4.46065 8.05027 4.45452 7.72802 4.5134C7.08377 4.63115 6.51814 5.0019 6.06764 5.4559C5.27314 6.2564 4.78052 7.38465 4.87139 8.51877C4.91677 9.08565 5.10652 9.6429 5.43364 10.1113C5.46952 10.1626 5.51152 10.2088 5.55052 10.2575C5.18331 10.3767 4.80686 10.4653 4.42502 10.5223C4.05214 9.89227 3.83402 9.1604 3.83402 8.37477C3.83402 6.03802 5.72577 4.14627 8.06252 4.14627ZM8.08989 5.02615C8.37064 5.02652 8.65302 5.1124 8.87277 5.2784C9.07089 5.42802 9.22077 5.64402 9.30564 5.88252C9.39064 6.12177 9.41339 6.38477 9.38377 6.6419C9.32452 7.1569 9.06152 7.6409 8.73539 8.06965C8.15702 8.82977 7.38614 9.4404 6.52789 9.8679C6.46827 9.89765 6.40714 9.92515 6.34627 9.95315C6.19102 9.80727 6.04877 9.6469 5.94464 9.4624C5.70014 9.02952 5.61702 8.50852 5.66527 8.00465C5.71364 7.4999 5.88802 7.00802 6.12502 6.54915C6.39939 6.0179 6.76964 5.5249 7.27377 5.2469C7.52527 5.10815 7.80827 5.02565 8.08989 5.02615ZM12.2779 8.17952C12.2809 8.2449 12.291 8.30852 12.291 8.37477C12.291 10.7115 10.3993 12.6033 8.06252 12.6033C6.82377 12.6033 5.72302 12.0593 4.94977 11.2114C5.35439 11.1073 5.75164 10.9756 6.13477 10.8096C6.32927 10.9496 6.53602 11.074 6.76077 11.1601C7.47752 11.4349 8.28227 11.3939 8.99739 11.1463C9.71114 10.8991 10.3378 10.4584 10.8811 9.9504C11.4329 9.43465 11.8915 8.8284 12.2779 8.1794V8.17952Z" fill="black"/>
<path opacity="0.15" d="M8.0625 3.625C5.43913 3.625 3.3125 5.75163 3.3125 8.375C3.3125 10.9984 5.43913 13.125 8.0625 13.125C10.6859 13.125 12.8125 10.9984 12.8125 8.375C12.8125 5.75163 10.6859 3.625 8.0625 3.625ZM8.0625 4.02087C10.057 4.02087 11.7382 5.36188 12.2539 7.1915C11.8077 8.1104 11.1799 8.92928 10.4082 9.59863C10.0386 9.91875 9.635 10.2041 9.18913 10.4051C8.74325 10.6061 8.25287 10.7201 7.76463 10.6921C7.39637 10.6716 7.03742 10.5686 6.71425 10.3909C7.5655 9.9295 8.33375 9.31437 8.9625 8.57788C9.37525 8.09438 9.73637 7.545 9.87537 6.92475C9.945 6.61475 9.95663 6.28975 9.89175 5.97875C9.82675 5.6675 9.683 5.37113 9.46525 5.1395C9.25262 4.91325 8.97337 4.75312 8.674 4.6705C8.37475 4.588 8.05625 4.5815 7.75075 4.63737C7.13987 4.749 6.5945 5.104 6.157 5.54488C5.386 6.32175 4.90937 7.418 4.99675 8.50912C5.0405 9.05462 5.22325 9.59075 5.53662 10.0395C5.60662 10.1396 5.68337 10.235 5.76562 10.3255C5.30893 10.4855 4.83712 10.5986 4.3575 10.663C3.93196 9.9758 3.70712 9.18328 3.70837 8.375C3.70837 5.97025 5.65775 4.02087 8.0625 4.02087ZM8.09025 4.90063C8.39625 4.901 8.7045 4.99362 8.94862 5.17812C9.16862 5.34437 9.33175 5.58087 9.42412 5.84062C9.51662 6.1005 9.54037 6.38262 9.50875 6.65662C9.44575 7.2045 9.16925 7.707 8.83537 8.14587C8.24412 8.92312 7.45813 9.54513 6.58413 9.98063C6.49463 10.0251 6.40375 10.0675 6.31238 10.1082C6.12147 9.94194 5.96003 9.74458 5.83488 9.5245C5.57525 9.06462 5.48962 8.51863 5.54 7.993C5.59037 7.4675 5.77075 6.96087 6.01312 6.49175C6.294 5.948 6.67687 5.43275 7.213 5.13713C7.481 4.98925 7.78412 4.90013 8.09025 4.90063ZM12.3775 7.79213C12.403 7.98275 12.4165 8.17737 12.4165 8.375C12.4165 10.7797 10.4671 12.7291 8.06238 12.7291C6.71187 12.7291 5.50487 12.1144 4.70612 11.1493C5.19941 11.0368 5.68066 10.8769 6.14313 10.6718C6.34521 10.8263 6.56828 10.9513 6.80562 11.043C7.48887 11.3049 8.2645 11.267 8.956 11.0276C9.64738 10.7882 10.2606 10.3585 10.7951 9.85888C11.433 9.26198 11.9677 8.56363 12.3775 7.79213Z" fill="black"/>
<path d="M8.0625 3.5C5.43913 3.5 3.3125 5.62663 3.3125 8.25C3.3125 10.8734 5.43913 13 8.0625 13C10.6859 13 12.8125 10.8734 12.8125 8.25C12.8125 5.62663 10.6859 3.5 8.0625 3.5ZM8.0625 3.89587C10.057 3.89587 11.7382 5.23688 12.2539 7.0665C11.8077 7.9854 11.1799 8.80428 10.4082 9.47363C10.0386 9.79375 9.635 10.0791 9.18913 10.2801C8.74325 10.4811 8.25287 10.5951 7.76463 10.5671C7.39637 10.5466 7.03742 10.4436 6.71425 10.2659C7.5655 9.8045 8.33375 9.18937 8.9625 8.45288C9.37525 7.96938 9.73637 7.42 9.87537 6.79975C9.94487 6.48975 9.95663 6.16475 9.89175 5.85375C9.82675 5.5425 9.683 5.24613 9.46525 5.0145C9.25262 4.78825 8.97337 4.62812 8.674 4.5455C8.37475 4.463 8.05625 4.4565 7.75075 4.51237C7.13987 4.624 6.5945 4.979 6.157 5.41988C5.386 6.19675 4.90937 7.293 4.99675 8.38412C5.0405 8.92962 5.22325 9.46575 5.53662 9.9145C5.60662 10.0146 5.68337 10.11 5.76562 10.2005C5.30893 10.3605 4.83712 10.4736 4.3575 10.538C3.93196 9.8508 3.70712 9.05828 3.70837 8.25C3.70837 5.84525 5.65775 3.89587 8.0625 3.89587ZM8.09025 4.77563C8.39625 4.776 8.7045 4.86862 8.94862 5.05312C9.16862 5.21937 9.33175 5.45587 9.42412 5.71562C9.51662 5.9755 9.54037 6.25762 9.50875 6.53162C9.44575 7.0795 9.16925 7.582 8.83537 8.02087C8.24412 8.79812 7.45813 9.42013 6.58413 9.85563C6.49463 9.90013 6.40375 9.9425 6.31238 9.98325C6.12147 9.81694 5.96003 9.61958 5.83488 9.3995C5.57525 8.93962 5.48962 8.39363 5.54 7.868C5.59037 7.3425 5.77075 6.83587 6.01312 6.36675C6.294 5.823 6.67687 5.30775 7.213 5.01213C7.481 4.86425 7.78412 4.77513 8.09025 4.77563ZM12.3775 7.66713C12.403 7.85775 12.4165 8.05237 12.4165 8.25C12.4165 10.6547 10.4671 12.6041 8.06238 12.6041C6.71187 12.6041 5.50487 11.9894 4.70612 11.0243C5.19941 10.9118 5.68066 10.7519 6.14313 10.5468C6.34521 10.7013 6.56828 10.8263 6.80562 10.918C7.48887 11.1799 8.2645 11.142 8.956 10.9026C9.64738 10.6632 10.2606 10.2335 10.7951 9.73388C11.433 9.13698 11.9677 8.43863 12.3775 7.66713Z" fill="white"/>
<defs>
<radialGradient id="paint0_radial_348_3836" cx="0" cy="0" r="1" gradientUnits="userSpaceOnUse" gradientTransform="translate(8.01163 13.566) scale(5.38982 1.68394)">
<stop stop-color="#3D3D3D"/>
<stop offset="0.5" stop-color="#686868" stop-opacity="0.498"/>
<stop offset="1" stop-color="#686868" stop-opacity="0"/>
</radialGradient>
<radialGradient id="paint1_radial_348_3836" cx="0" cy="0" r="1" gradientUnits="userSpaceOnUse" gradientTransform="translate(8.06214 -3.16497) rotate(90) scale(31.7073 33.5426)">
<stop stop-color="#90DBEC"/>
<stop offset="0.262" stop-color="#42BAEA"/>
<stop offset="0.705" stop-color="#3689E6"/>
<stop offset="1" stop-color="#2B63A0"/>
</radialGradient>
<linearGradient id="paint2_linear_348_3836" x1="7.55649" y1="1.7446" x2="7.55649" y2="14.8228" gradientUnits="userSpaceOnUse">
<stop stop-color="white"/>
<stop offset="0.424" stop-color="white" stop-opacity="0.235"/>
<stop offset="0.821" stop-color="white" stop-opacity="0.157"/>
<stop offset="1" stop-color="white" stop-opacity="0.392"/>
</linearGradient>
</defs>
</svg>
