<svg width="16" height="16" viewBox="0 0 16 16" fill="none" xmlns="http://www.w3.org/2000/svg">
<path fill-rule="evenodd" clip-rule="evenodd" d="M9.80001 1.8C9.80001 2.79411 8.99412 3.6 8.00001 3.6C7.0059 3.6 6.20001 2.79411 6.20001 1.8C6.20001 0.805887 7.0059 0 8.00001 0C8.99412 0 9.80001 0.805887 9.80001 1.8ZM9.80001 8C9.80001 8.99411 8.99412 9.8 8.00001 9.8C7.0059 9.8 6.20001 8.99411 6.20001 8C6.20001 7.00589 7.0059 6.2 8.00001 6.2C8.99412 6.2 9.80001 7.00589 9.80001 8ZM8.00001 16C8.99412 16 9.80001 15.1941 9.80001 14.2C9.80001 13.2059 8.99412 12.4 8.00001 12.4C7.0059 12.4 6.20001 13.2059 6.20001 14.2C6.20001 15.1941 7.0059 16 8.00001 16Z" fill="#FF00FF"/>
</svg>
