<svg width="16" height="16" viewBox="0 0 16 16" fill="none" xmlns="http://www.w3.org/2000/svg">
<g clip-path="url(#clip0_1_361)">
<path fill-rule="evenodd" clip-rule="evenodd" d="M3.6 8.00001C3.6 8.99412 2.79411 9.80001 1.8 9.80001C0.805887 9.80001 0 8.99412 0 8.00001C0 7.0059 0.805887 6.20001 1.8 6.20001C2.79411 6.20001 3.6 7.0059 3.6 8.00001ZM9.8 8.00001C9.8 8.99412 8.99411 9.80001 8 9.80001C7.00589 9.80001 6.2 8.99412 6.2 8.00001C6.2 7.0059 7.00589 6.20001 8 6.20001C8.99411 6.20001 9.8 7.0059 9.8 8.00001ZM14.2 9.80001C15.1941 9.80001 16 8.99412 16 8.00001C16 7.0059 15.1941 6.20001 14.2 6.20001C13.2059 6.20001 12.4 7.0059 12.4 8.00001C12.4 8.99412 13.2059 9.80001 14.2 9.80001Z" fill="#FF00FF"/>
</g>
<defs>
<clipPath id="clip0_1_361">
<rect width="16" height="16" fill="white"/>
</clipPath>
</defs>
</svg>
