<svg width="16" height="16" viewBox="0 0 16 16" fill="none" xmlns="http://www.w3.org/2000/svg">
<path d="M13.5356 0H2.25209C1.33665 0 1 0.339599 1 1.25209V12.2905C1 12.3939 1.00295 12.4884 1.01181 12.5799C1.03248 12.7807 1.03544 12.9727 1.22148 13.1942C1.2392 13.2148 1.43114 13.3566 1.43114 13.3566C1.53155 13.4068 1.60242 13.4452 1.71759 13.4895L7.2752 15.8224C7.56459 15.9552 7.68272 16.0054 7.89238 15.9995C8.10205 16.0025 8.22312 15.9523 8.50956 15.8224L14.0731 13.4924C14.1882 13.4452 14.2591 13.4097 14.3595 13.3595C14.3595 13.3595 14.5485 13.2178 14.5662 13.1971C14.7523 12.9756 14.7552 12.7837 14.7759 12.5829C14.7848 12.4943 14.7877 12.3968 14.7877 12.2935V1.25504C14.7877 0.339599 14.4511 0 13.5356 0Z" fill="#2F2D2E"/>
<path fill-rule="evenodd" clip-rule="evenodd" d="M8.60132 2.1264H9.53743V8.2628H8.60132V2.1264ZM8.64857 9.75113H9.19193V11.6115H8.68105V10.5455L8.20857 11.2719H8.19675L7.72427 10.5484V11.6086H7.22225V9.75113H7.76561L8.20561 10.4717L8.64857 9.75113ZM5.58332 2.1264H7.04802C7.80695 2.1264 8.18199 2.50143 8.18199 3.26627V4.89634C8.18199 5.65823 7.80695 6.03621 7.04802 6.03621H6.51943V8.2628H5.58332V2.1264ZM3.0378 2.1264H5.11379V2.97687H3.97096V4.71325H5.06654V5.56373H3.97096V7.41823H5.13151V8.26871H3.0378V2.1264ZM4.80372 11.3605C4.69741 11.4462 4.57929 11.5141 4.44935 11.5643C4.30466 11.6204 4.1511 11.6499 3.99459 11.647C3.85875 11.647 3.72291 11.6234 3.59297 11.5761C3.47485 11.5318 3.36559 11.4639 3.27405 11.3753C3.1825 11.2897 3.11163 11.1863 3.06143 11.0711C3.00827 10.9501 2.98465 10.8172 2.98465 10.6843V10.6784C2.98465 10.5484 3.00827 10.4185 3.05848 10.2974C3.10868 10.1823 3.1825 10.0789 3.27405 9.99033C3.36559 9.90173 3.4719 9.83086 3.59002 9.78361C3.717 9.73341 3.85284 9.70683 3.98868 9.70979C4.26331 9.70093 4.53499 9.79838 4.73875 9.98147L4.43754 10.3447C4.37553 10.2915 4.30761 10.2472 4.23378 10.2148C4.157 10.1823 4.07432 10.1675 3.99163 10.1705C3.92667 10.1705 3.8617 10.1823 3.80559 10.2088C3.74949 10.2354 3.69633 10.2738 3.65499 10.3181C3.61069 10.3654 3.57821 10.4215 3.55459 10.4805C3.53096 10.5455 3.5162 10.6105 3.5162 10.6813V10.6872C3.5162 10.7581 3.52801 10.829 3.55459 10.894C3.57821 10.956 3.61365 11.0121 3.66089 11.0564C3.70519 11.1007 3.75834 11.1391 3.82036 11.1627C3.90009 11.1952 3.98868 11.207 4.07432 11.2011C4.15996 11.1952 4.2456 11.1686 4.31942 11.1243V10.8999H3.9562V10.5219H4.80372V11.3605ZM5.7546 9.73636H6.25071L7.03917 11.6086H6.49285L6.35701 11.2778H5.64238L5.50949 11.6086H4.96909L5.7546 9.73636ZM7.85125 14.7063L5.24372 13.8056H10.5858L7.85125 14.7063ZM9.53448 9.74818H11.0228V10.1882H10.0424V10.4687H10.9313V10.8762H10.0424V11.1715H11.0376V11.6086H9.53448V9.74818ZM10.0247 3.21311C10.0247 2.45123 10.3997 2.07324 11.1586 2.07324H11.6105C12.3694 2.07324 12.7356 2.44237 12.7356 3.20425V4.45929H11.8201V3.25741C11.8201 3.01231 11.7079 2.89714 11.4717 2.89714H11.3152C11.0701 2.89714 10.9578 3.01231 10.9578 3.25741V7.13179C10.9578 7.37689 11.073 7.49206 11.3152 7.49206H11.4923C11.7286 7.49206 11.8408 7.37689 11.8408 7.13179V5.74682H12.7533V7.17313C12.7533 7.93501 12.3783 8.313 11.6193 8.313H11.1557C10.3997 8.31596 10.0247 7.94092 10.0247 7.17313V3.21311ZM12.7887 11.0387C12.7887 11.1272 12.771 11.2129 12.7356 11.2926C12.7001 11.3664 12.647 11.4314 12.582 11.4816C12.5111 11.5377 12.4314 11.5761 12.3458 11.5997C12.2454 11.6293 12.142 11.644 12.0387 11.6411C11.8792 11.6411 11.7197 11.6174 11.5662 11.5643C11.4215 11.5141 11.2856 11.4373 11.1705 11.334L11.4569 10.9914C11.6252 11.1332 11.8378 11.2129 12.0593 11.2158C12.1125 11.2188 12.1686 11.207 12.2158 11.1834C12.2336 11.1745 12.2454 11.1597 12.2572 11.145C12.266 11.1272 12.2719 11.1095 12.2719 11.0889V11.0829C12.2719 11.0652 12.269 11.0475 12.2601 11.0327C12.2483 11.015 12.2306 11.0003 12.2099 10.9885C12.1804 10.9707 12.1479 10.956 12.1154 10.9471C12.077 10.9353 12.0268 10.9205 11.9619 10.9058C11.8644 10.8821 11.7699 10.8585 11.6872 10.829C11.6075 10.8054 11.5337 10.7699 11.4658 10.7227C11.4037 10.6813 11.3535 10.6252 11.3181 10.5603C11.2797 10.4864 11.262 10.4038 11.262 10.3211V10.3152C11.262 10.2325 11.2768 10.1498 11.3122 10.076C11.3447 10.0021 11.3949 9.93717 11.454 9.88697C11.5219 9.83086 11.5986 9.78952 11.6813 9.76294C11.7788 9.73341 11.8792 9.71569 11.9796 9.71865C12.1243 9.71865 12.266 9.73636 12.4048 9.78066C12.5289 9.822 12.6411 9.88402 12.7415 9.96375L12.4816 10.327C12.3989 10.2679 12.3103 10.2236 12.2158 10.1911C12.1331 10.1616 12.0446 10.1468 11.9589 10.1439C11.9117 10.1409 11.8615 10.1527 11.8201 10.1793C11.8054 10.1882 11.7935 10.2029 11.7847 10.2177C11.7758 10.2325 11.7729 10.2502 11.7729 10.2679V10.2738C11.7729 10.2945 11.7788 10.3122 11.7876 10.3299C11.7995 10.3476 11.8172 10.3624 11.8378 10.3742C11.8639 10.3899 11.8946 10.4009 11.9238 10.4114L11.9353 10.4156C11.9766 10.4274 12.0298 10.4421 12.0948 10.4569C12.1922 10.4776 12.2867 10.5042 12.3812 10.5396C12.458 10.5662 12.5318 10.6046 12.5997 10.6518C12.6617 10.6931 12.7119 10.7463 12.7474 10.8113C12.7799 10.8821 12.7976 10.9589 12.7946 11.0357V11.0416L12.7887 11.0387ZM7.24881 4.85204V3.30761C7.24881 3.06251 7.13659 2.95029 6.89444 2.95029H6.5135V5.21231H6.8974C7.13364 5.21231 7.24585 5.09715 7.24585 4.85204H7.24881ZM5.79312 10.8762L6.00279 10.3476L6.2095 10.8762H5.79312Z" fill="white"/>
</svg>
