<svg width="16" height="16" viewBox="0 0 16 16" fill="none" xmlns="http://www.w3.org/2000/svg">
<path fill-rule="evenodd" clip-rule="evenodd" d="M14.8836 7.99268L15.5467 8.54096L16 7.99268L15.5467 7.4444L15.5451 7.44242L15.5422 7.43888L15.5323 7.42719L15.4976 7.38612C15.4677 7.35115 15.4248 7.30128 15.3696 7.23865C15.2591 7.11346 15.0994 6.93688 14.8979 6.72598C14.4959 6.30528 13.922 5.74259 13.2364 5.17757C11.9108 4.0851 9.98575 2.83002 8.00001 2.83002C6.01424 2.83002 4.08917 4.0851 2.76358 5.17757C2.07798 5.74259 1.50422 6.30528 1.10217 6.72598C0.900624 6.93688 0.740925 7.11346 0.630505 7.23865C0.575264 7.30128 0.532268 7.35115 0.502445 7.38612L0.467683 7.42719L0.457908 7.43888L0.454965 7.44242L0.453976 7.44361C0.453976 7.44361 0.453322 7.4444 1.11646 7.99268L0.453322 7.4444L0 7.99268L0.453606 8.5413L0.454965 8.54294L0.457908 8.54647L0.467683 8.55817L0.502445 8.59921C0.532268 8.63423 0.575264 8.68405 0.630505 8.74669C0.740925 8.87189 0.900624 9.04854 1.10217 9.25943C1.50422 9.6801 2.07798 10.2427 2.76358 10.8078C4.08917 11.9002 6.01424 13.1554 8.00001 13.1554C9.98575 13.1554 11.9108 11.9002 13.2364 10.8078C13.922 10.2427 14.4959 9.6801 14.8979 9.25943C15.0994 9.04854 15.2591 8.87189 15.3696 8.74669C15.4248 8.68405 15.4677 8.63423 15.4976 8.59921L15.5323 8.55817L15.5422 8.54647L15.5451 8.54294L15.546 8.54173C15.546 8.54173 15.5467 8.54096 14.8836 7.99268ZM14.8836 7.99268C15.5467 7.4444 15.5467 7.4444 15.5467 7.4444L14.8836 7.99268ZM14.8836 7.99268C14.8836 7.99268 11.3265 12.2949 8.00001 12.2949C4.67354 12.2949 1.11646 7.99268 1.11646 7.99268C1.11646 7.99268 4.67354 3.69046 8.00001 3.69046C11.3265 3.69046 14.8836 7.99268 14.8836 7.99268ZM1.11646 7.99268L0.453606 8.5413C0.453606 8.5413 0.453322 8.54096 1.11646 7.99268ZM8.00001 10.574C9.42569 10.574 10.5813 9.41836 10.5813 7.99268C10.5813 6.56706 9.42569 5.41135 8.00001 5.41135C6.57439 5.41135 5.41868 6.56706 5.41868 7.99268C5.41868 9.41836 6.57439 10.574 8.00001 10.574Z" fill="#FF00FF"/>
</svg>
