<svg width="16" height="16" viewBox="0 0 16 16" fill="none" xmlns="http://www.w3.org/2000/svg">
<path fill-rule="evenodd" clip-rule="evenodd" d="M14.3555 1L0.998402 14.3572L1.67304 15.0318L15.0303 1.67464L14.3555 1ZM3.10374 8.14268L3.11296 8.15031L2.43531 8.8279C1.7206 8.2337 1.12069 7.64472 0.696234 7.20058C0.477643 6.97185 0.304859 6.78078 0.186113 6.64615C0.126731 6.57882 0.0808014 6.52554 0.0493738 6.48869L0.0132236 6.44597L0.00352058 6.43438L0.000810939 6.43112L2.82911e-09 6.43013C2.82911e-09 6.43013 -0.000458014 6.42959 0.367198 6.12561C0.734845 5.82164 0.73476 5.82152 0.73476 5.82152L0.736611 5.82376L0.744033 5.83262L0.775404 5.86969C0.803559 5.90271 0.845977 5.95193 0.901639 6.01503C1.013 6.14129 1.17718 6.32291 1.38599 6.5414C1.80419 6.979 2.39852 7.5615 3.10374 8.14268ZM8.50958 10.3864L7.54414 11.3517C7.69589 11.3658 7.84787 11.3731 7.99988 11.3731C10.0229 11.3731 12.0443 10.0809 13.5028 8.87895C14.2447 8.26757 14.8669 7.65743 15.3035 7.20058C15.5221 6.97185 15.6949 6.78078 15.8137 6.64615C15.873 6.57882 15.9189 6.52554 15.9504 6.48869L15.9865 6.44597L15.9962 6.43438L16 6.42981C16 6.42981 16.0002 6.42959 15.6326 6.12561C15.2649 5.82164 15.265 5.82152 15.265 5.82152L15.2632 5.82376L15.2557 5.83262L15.2243 5.86969C15.1962 5.90271 15.1537 5.95193 15.0981 6.01503C14.9868 6.14129 14.8226 6.32291 14.6137 6.5414C14.1955 6.979 13.6012 7.5615 12.896 8.14268C11.6058 9.20601 10.0253 10.1965 8.50958 10.3864Z" fill="#FF00FF"/>
</svg>
