<svg width="16" height="16" viewBox="0 0 16 16" fill="none" xmlns="http://www.w3.org/2000/svg">
<g clip-path="url(#clip0_1_408)">
<path d="M8 16C12.4183 16 16 12.4183 16 8C16 3.58172 12.4183 0 8 0C3.58172 0 0 3.58172 0 8C0 12.4183 3.58172 16 8 16Z" fill="#1877F2"/>
<path fill-rule="evenodd" clip-rule="evenodd" d="M11.1141 10.3125L11.4687 8H9.25V6.49933C9.25 5.86667 9.55992 5.25 10.5537 5.25H11.5625V3.28125C11.5625 3.28125 10.647 3.125 9.77168 3.125C7.94434 3.125 6.75 4.2325 6.75 6.2375V8H4.71875V10.3125H6.75V15.9028C7.15729 15.9667 7.57475 16 8 16C8.42528 16 8.84272 15.9667 9.25 15.9028V10.3125H11.1141Z" fill="white"/>
</g>
<defs>
<clipPath id="clip0_1_408">
<rect width="16" height="16" fill="white"/>
</clipPath>
</defs>
</svg>
