<svg width="16" height="16" viewBox="0 0 16 16" fill="none" xmlns="http://www.w3.org/2000/svg">
<path d="M1.6179 0.0429974C1.62507 0.0680799 1.64299 0.128993 1.65015 0.179158C1.68598 0.361899 2.06938 2.09974 2.0873 2.15707C2.10522 2.21798 2.12671 2.31472 2.15896 2.4903C2.16613 2.54763 2.19121 2.65513 2.20913 2.72321C2.22704 2.79129 2.24854 2.88803 2.25929 2.9382C2.29871 3.14602 2.42412 3.73724 2.51011 4.10272C2.61044 4.53629 2.78243 5.31383 2.80393 5.4285C2.8111 5.46791 2.83618 5.57899 2.86126 5.67932C2.88635 5.77606 2.90068 5.86922 2.90068 5.87997C2.89709 5.89072 3.15508 6.02689 3.47398 6.18096C3.79289 6.33504 4.54535 6.7041 5.14732 6.99792C7.06432 7.93671 7.7702 8.27711 7.80245 8.27711C7.81678 8.27711 7.83828 8.29145 7.85261 8.30936C7.87411 8.34878 7.84545 8.34161 5.79229 7.77547C4.99325 7.5569 4.31603 7.37057 4.28736 7.3634C4.2587 7.35624 4.11179 7.31682 3.96488 7.27383C3.81797 7.23441 3.67106 7.19141 3.64239 7.18425C3.61373 7.17708 3.54206 7.16275 3.48473 7.14842L3.38441 7.11975L3.48473 7.29532C3.53848 7.39207 3.63881 7.5569 3.70331 7.66081C3.7678 7.76472 3.82155 7.8543 3.82155 7.86505C3.82155 7.87221 3.91471 8.03704 4.03296 8.23053C4.14762 8.42402 4.42711 8.897 4.65285 9.2804C4.87859 9.6638 5.18315 10.1762 5.32648 10.4198C5.46622 10.6635 5.60597 10.8713 5.63105 10.8785C5.65613 10.8892 5.84246 10.8534 6.0467 10.8032C6.25094 10.7495 6.45876 10.6993 6.50893 10.6922C6.55909 10.6814 6.64867 10.6599 6.706 10.642C6.76691 10.6241 6.86366 10.599 6.92099 10.5883C6.9819 10.5775 7.27572 10.5094 7.57671 10.4342C7.8777 10.3553 8.10343 10.3124 8.07835 10.3374C8.05327 10.3589 7.71645 10.5703 7.33305 10.8032C6.10403 11.5485 5.81021 11.7277 5.74571 11.785C5.7063 11.8173 5.35515 12.3583 4.961 12.989C4.35903 13.9528 3.1515 15.8806 3.07984 15.9953C3.05834 16.0275 3.31633 15.8949 3.82155 15.6154C4.91083 15.0099 7.4298 13.6196 7.56596 13.5444C7.66629 13.4906 7.89919 13.3616 8.08552 13.2577C8.27184 13.1538 8.50833 13.0248 8.60508 12.9711C8.70541 12.9173 8.93831 12.7883 9.12464 12.6844C9.31096 12.5805 9.54745 12.4515 9.6442 12.3978C9.74452 12.344 10.1888 12.0968 10.6367 11.8459C11.0882 11.5987 11.5612 11.3371 11.6938 11.2655C11.8299 11.1938 11.9553 11.1221 11.9733 11.1078C11.9948 11.0935 12.156 11.0039 12.3316 10.9107C12.5107 10.8176 12.672 10.7244 12.6899 10.7065C12.7114 10.685 12.7257 9.97912 12.7257 8.73217L12.7293 6.7901L12.973 6.41387C13.1091 6.20604 13.3026 5.90864 13.4065 5.75098C13.5068 5.59332 13.7505 5.22067 13.944 4.92685C14.4707 4.12064 14.5818 3.94148 14.5603 3.91998C14.5531 3.90923 14.3847 3.93432 14.1912 3.97731C13.9942 4.01673 13.7792 4.05973 13.7111 4.07048C13.643 4.08123 13.557 4.09556 13.5248 4.10631C13.4925 4.11706 13.428 4.13139 13.3814 4.13856C12.6935 4.27113 11.4179 4.51479 11.3426 4.5327C11.3104 4.53987 11.2208 4.5542 11.1455 4.56495C11.0631 4.57929 10.9771 4.62228 10.9341 4.66886C10.841 4.77994 10.8159 4.81219 10.1853 5.6399C9.89143 6.02688 9.64061 6.3422 9.62628 6.3422C9.61195 6.3422 9.50445 6.26696 9.38621 6.17021C9.26796 6.07705 9.11389 5.9588 9.04939 5.90506C8.98131 5.85489 8.89173 5.77965 8.84873 5.74381C8.80574 5.70798 8.68749 5.61482 8.58716 5.53599C8.48325 5.45716 8.26109 5.278 8.0891 5.14184C7.92069 5.0021 7.7487 4.86594 7.7057 4.83727C7.66629 4.80861 7.55879 4.7262 7.4728 4.65453C7.3868 4.57929 6.91382 4.20305 6.41935 3.8089C5.92845 3.41834 5.07924 2.74112 4.5346 2.31114C3.99354 1.87758 3.48832 1.47268 3.41307 1.41535C3.33782 1.35444 2.90784 1.01404 2.45637 0.652136C2.00489 0.293819 1.62865 0 1.6179 0C1.61074 0 1.61074 0.0214987 1.6179 0.0429974Z" fill="#323ECB"/>
</svg>
