<svg width="16" height="16" viewBox="0 0 16 16" fill="none" xmlns="http://www.w3.org/2000/svg">
<g clip-path="url(#clip0_1_411)">
<path d="M1.61786 0.0429978C1.62503 0.0680802 1.64295 0.128994 1.65011 0.179158C1.68594 0.361899 2.06934 2.09974 2.08726 2.15706C2.10517 2.21798 2.12667 2.31473 2.15892 2.4903C2.16608 2.54763 2.19117 2.65513 2.20908 2.72321C2.227 2.79129 2.2485 2.88803 2.25925 2.93819C2.29867 3.14602 2.42407 3.73724 2.51007 4.10273C2.61039 4.53629 2.78239 5.31383 2.80389 5.4285C2.81106 5.46791 2.83614 5.57899 2.86122 5.67932C2.8863 5.77606 2.90063 5.86922 2.90063 5.87998C2.89705 5.89073 3.15504 6.02689 3.47394 6.18096C3.79284 6.33504 4.54531 6.7041 5.14728 6.99792C7.06427 7.93671 7.77015 8.27712 7.8024 8.27712C7.81674 8.27712 7.83823 8.29144 7.85257 8.30936C7.87407 8.3488 7.8454 8.3416 5.79225 7.77547C4.9932 7.5569 4.31599 7.37057 4.28732 7.36341C4.25865 7.35624 4.11175 7.31682 3.96483 7.27382C3.81792 7.23441 3.67102 7.19142 3.64235 7.18425C3.61368 7.17708 3.54202 7.16274 3.48469 7.14842L3.38436 7.11975L3.48469 7.29533C3.53843 7.39207 3.63877 7.5569 3.70327 7.66081C3.76776 7.76472 3.82151 7.8543 3.82151 7.86505C3.82151 7.87222 3.91467 8.03704 4.03291 8.23056C4.14758 8.424 4.42707 8.89704 4.6528 9.2804C4.87854 9.66376 5.18311 10.1762 5.32643 10.4198C5.46618 10.6635 5.60592 10.8714 5.631 10.8785C5.65609 10.8892 5.84241 10.8534 6.04665 10.8033C6.25089 10.7495 6.45871 10.6994 6.50888 10.6922C6.55905 10.6814 6.64863 10.6599 6.70595 10.642C6.76687 10.6241 6.86362 10.599 6.92095 10.5882C6.98186 10.5775 7.27568 10.5094 7.57667 10.4342C7.87765 10.3554 8.10343 10.3123 8.07831 10.3374C8.05319 10.359 7.71641 10.5703 7.33301 10.8033C6.10399 11.5486 5.81016 11.7277 5.74567 11.785C5.70625 11.8173 5.35511 12.3583 4.96095 12.989C4.35899 13.9529 3.15146 15.8806 3.07979 15.9953C3.05829 16.0275 3.31628 15.895 3.82151 15.6154C4.91079 15.0099 7.42975 13.6196 7.56591 13.5444C7.66624 13.4906 7.89915 13.3616 8.08551 13.2577C8.27183 13.1538 8.50831 13.0248 8.60503 12.971C8.70535 12.9173 8.9383 12.7883 9.12462 12.6844C9.31094 12.5805 9.54742 12.4515 9.64414 12.3978C9.74446 12.344 10.1888 12.0968 10.6367 11.8459C11.0881 11.5987 11.5611 11.3371 11.6937 11.2654C11.8299 11.1938 11.9553 11.1222 11.9732 11.1078C11.9947 11.0935 12.156 11.0039 12.3315 10.9107C12.5107 10.8176 12.6719 10.7244 12.6898 10.7065C12.7113 10.685 12.7257 9.97912 12.7257 8.73216L12.7293 6.7901L12.9729 6.41386C13.1091 6.20604 13.3025 5.90864 13.4065 5.75098C13.5068 5.59332 13.7505 5.22067 13.944 4.92686C14.4707 4.12064 14.5817 3.94148 14.5602 3.91998C14.5531 3.90923 14.3847 3.93432 14.1912 3.97731C13.9941 4.01673 13.7791 4.05973 13.711 4.07047C13.6429 4.08122 13.5569 4.09556 13.5247 4.1063C13.4925 4.11706 13.428 4.13139 13.3814 4.13855C12.6934 4.27114 11.4178 4.51479 11.3425 4.5327C11.3103 4.53987 11.2207 4.5542 11.1455 4.56495C11.0631 4.57929 10.9771 4.62228 10.9341 4.66886C10.8409 4.77994 10.8158 4.81219 10.1852 5.6399C9.89142 6.02689 9.64054 6.3422 9.62622 6.3422C9.6119 6.3422 9.50439 6.26696 9.38615 6.17021C9.26791 6.07705 9.11382 5.95881 9.04934 5.90506C8.98126 5.8549 8.89166 5.77965 8.8487 5.74382C8.80566 5.70798 8.68743 5.61482 8.58711 5.53599C8.48319 5.45716 8.26103 5.278 8.08903 5.14184C7.92065 5.0021 7.74866 4.86594 7.70566 4.83727C7.66624 4.80861 7.55875 4.72619 7.47275 4.65453C7.38675 4.57929 6.91378 4.20306 6.41931 3.8089C5.92841 3.41834 5.0792 2.74112 4.53455 2.31114C3.9935 1.87758 3.48827 1.47268 3.41303 1.41535C3.33778 1.35444 2.9078 1.01404 2.45632 0.652136C2.00484 0.29382 1.62861 0 1.61786 0C1.6107 0 1.6107 0.0214981 1.61786 0.0429978Z" fill="#FF00FF"/>
</g>
<defs>
<clipPath id="clip0_1_411">
<rect width="16" height="16" fill="white"/>
</clipPath>
</defs>
</svg>
