<svg width="16" height="16" viewBox="0 0 16 16" fill="none" xmlns="http://www.w3.org/2000/svg">
<g clip-path="url(#clip0_1_417)">
<path d="M8.00134 7.99998C8.00134 6.52722 9.19526 5.33331 10.668 5.33331C12.1408 5.33331 13.3347 6.52722 13.3347 7.99998C13.3347 9.47271 12.1408 10.6666 10.668 10.6666C9.19526 10.6666 8.00134 9.47271 8.00134 7.99998Z" fill="#1ABCFE"/>
<path d="M2.66797 13.3333C2.66797 11.8605 3.86188 10.6666 5.33463 10.6666H8.00128V13.3333C8.00128 14.8061 6.80739 16 5.33463 16C3.86188 16 2.66797 14.8061 2.66797 13.3333Z" fill="#0ACF83"/>
<path d="M8.00134 0V5.33334H10.668C12.1408 5.33334 13.3347 4.13942 13.3347 2.66666C13.3347 1.1939 12.1408 0 10.668 0H8.00134Z" fill="#FF7262"/>
<path d="M2.66797 2.66666C2.66797 4.13942 3.86188 5.33334 5.33463 5.33334H8.00128V0H5.33463C3.86188 0 2.66797 1.1939 2.66797 2.66666Z" fill="#F24E1E"/>
<path d="M2.66797 8.00003C2.66797 9.47283 3.86188 10.6667 5.33463 10.6667H8.00128V5.33337H5.33463C3.86188 5.33337 2.66797 6.52728 2.66797 8.00003Z" fill="#A259FF"/>
</g>
<defs>
<clipPath id="clip0_1_417">
<rect width="16" height="16" fill="white"/>
</clipPath>
</defs>
</svg>
