<svg width="16" height="16" viewBox="0 0 16 16" fill="none" xmlns="http://www.w3.org/2000/svg">
<path fill-rule="evenodd" clip-rule="evenodd" d="M5.47533 0C4.69364 0 3.94396 0.310526 3.39122 0.863267C2.83848 1.41601 2.52795 2.16569 2.52795 2.94738C2.52795 3.72907 2.83848 4.47875 3.39122 5.03149C3.56257 5.20284 3.75284 5.35091 3.95713 5.47367C3.75285 5.59643 3.56257 5.7445 3.39122 5.91585C2.83848 6.4686 2.52795 7.21827 2.52795 7.99997C2.52795 8.78166 2.83848 9.53134 3.39122 10.0841C3.56259 10.2554 3.75288 10.4035 3.9572 10.5263C3.91688 10.5505 3.87709 10.5757 3.83785 10.602C3.35316 10.9258 2.97539 11.3861 2.75231 11.9247C2.52923 12.4633 2.47086 13.0559 2.58459 13.6276C2.69832 14.1994 2.97903 14.7245 3.39124 15.1367C3.80344 15.5489 4.32862 15.8296 4.90035 15.9434C5.47209 16.0571 6.06471 15.9987 6.60327 15.7756C7.14184 15.5525 7.60215 15.1748 7.92601 14.6901C8.24987 14.2054 8.42272 13.6355 8.42271 13.0526V10.5262L8.42271 10.5251V10.0627C8.95767 10.6086 9.70327 10.9473 10.528 10.9473C12.1558 10.9473 13.4754 9.62776 13.4754 7.99997C13.4754 6.92767 12.9027 5.98912 12.0466 5.47342C12.2507 5.35071 12.4409 5.20272 12.6121 5.03149C13.1648 4.47875 13.4754 3.72907 13.4754 2.94738C13.4754 2.16569 13.1648 1.41601 12.6121 0.863267C12.0594 0.310526 11.3097 0 10.528 0H5.47533ZM5.47397 10.1052C4.91611 10.1049 4.38117 9.88311 3.98668 9.48862C3.59186 9.0938 3.37006 8.55832 3.37006 7.99997C3.37006 7.44161 3.59186 6.90613 3.98668 6.51131C4.37849 6.1195 4.90884 5.89808 5.4626 5.89473L5.47534 5.89476L7.58061 5.8947V10.1052L5.47397 10.1052ZM4.3057 11.3021C4.65138 11.0712 5.0577 10.9477 5.47341 10.9473L7.58061 10.9473V13.0526C7.58061 13.469 7.45715 13.876 7.22582 14.2222C6.99449 14.5684 6.6657 14.8383 6.28101 14.9976C5.89632 15.157 5.47302 15.1987 5.06463 15.1174C4.65625 15.0362 4.28112 14.8357 3.98669 14.5413C3.69226 14.2469 3.49175 13.8717 3.41051 13.4633C3.32928 13.055 3.37097 12.6317 3.53031 12.247C3.68965 11.8623 3.95949 11.5335 4.3057 11.3021ZM10.5408 5.05261L10.528 5.05259L10.5081 5.05265L8.42272 5.0526V0.842105H10.528C11.0863 0.842105 11.6218 1.06391 12.0166 1.45873C12.4115 1.85354 12.6333 2.38903 12.6333 2.94738C12.6333 3.50573 12.4115 4.04122 12.0166 4.43603C11.6249 4.82782 11.0945 5.04924 10.5408 5.05261ZM10.5112 5.89476C9.35622 5.90378 8.42272 6.84286 8.42272 7.99997C8.42272 9.16268 9.36528 10.1052 10.528 10.1052C11.6907 10.1052 12.6333 9.16268 12.6333 7.99997C12.6333 6.84153 11.6976 5.90163 10.5408 5.89473L10.528 5.89476L10.5112 5.89476ZM5.47533 5.05259H7.58061V0.842105H5.47533C4.91698 0.842105 4.38149 1.06391 3.98668 1.45873C3.59186 1.85354 3.37006 2.38903 3.37006 2.94738C3.37006 3.50573 3.59186 4.04122 3.98668 4.43603C4.37848 4.82784 4.90882 5.04926 5.46256 5.05261L5.47533 5.05259Z" fill="#FF00FF"/>
</svg>
