<svg width="16" height="16" viewBox="0 0 16 16" fill="none" xmlns="http://www.w3.org/2000/svg">
<g clip-path="url(#clip0_348_3917)">
<path d="M8.00134 8.00016C8.00134 6.5274 9.19525 5.3335 10.668 5.3335C12.1408 5.3335 13.3347 6.5274 13.3347 8.00016C13.3347 9.47292 12.1408 10.6668 10.668 10.6668C9.19525 10.6668 8.00134 9.47292 8.00134 8.00016Z" fill="#1ABCFE"/>
<path d="M2.668 13.3332C2.668 11.8604 3.86191 10.6665 5.33467 10.6665H8.00133V13.3332C8.00133 14.8059 6.80743 15.9998 5.33467 15.9998C3.86191 15.9998 2.668 14.8059 2.668 13.3332Z" fill="#0ACF83"/>
<path d="M8.00134 0V5.33333H10.668C12.1408 5.33333 13.3347 4.13943 13.3347 2.66667C13.3347 1.19391 12.1408 0 10.668 0L8.00134 0Z" fill="#FF7262"/>
<path d="M2.668 2.66683C2.668 4.13959 3.86191 5.3335 5.33467 5.3335L8.00133 5.3335V0.000162601L5.33467 0.000162601C3.86191 0.000162601 2.668 1.19407 2.668 2.66683Z" fill="#F24E1E"/>
<path d="M2.668 7.99984C2.668 9.4726 3.86191 10.6665 5.33467 10.6665H8.00133V5.33317L5.33467 5.33317C3.86191 5.33317 2.668 6.52708 2.668 7.99984Z" fill="#A259FF"/>
</g>
<defs>
<clipPath id="clip0_348_3917">
<rect width="16" height="16" fill="white"/>
</clipPath>
</defs>
</svg>
