<svg width="16" height="16" viewBox="0 0 16 16" fill="none" xmlns="http://www.w3.org/2000/svg">
<g clip-path="url(#clip0_1_415)">
<path fill-rule="evenodd" clip-rule="evenodd" d="M5.47534 0C4.69364 0 3.94396 0.310526 3.39123 0.863264C2.83848 1.41601 2.52795 2.16569 2.52795 2.94738C2.52795 3.72907 2.83848 4.47875 3.39123 5.03149C3.56257 5.20284 3.75285 5.35091 3.95713 5.47367C3.75285 5.59643 3.56257 5.7445 3.39123 5.91586C2.83848 6.46859 2.52795 7.21827 2.52795 7.99997C2.52795 8.78168 2.83848 9.53136 3.39123 10.0841C3.56259 10.2554 3.75289 10.4035 3.9572 10.5263C3.91688 10.5506 3.87709 10.5758 3.83786 10.602C3.35316 10.9258 2.97539 11.3862 2.75231 11.9247C2.52923 12.4633 2.47087 13.0559 2.58459 13.6276C2.69832 14.1994 2.97903 14.7246 3.39124 15.1367C3.80344 15.549 4.32862 15.8297 4.90035 15.9434C5.47209 16.0571 6.06471 15.9987 6.60327 15.7756C7.14184 15.5526 7.60215 15.1748 7.92601 14.6901C8.24987 14.2054 8.42275 13.6355 8.42275 13.0526V10.5262V10.5251V10.0627C8.95771 10.6086 9.70331 10.9474 10.528 10.9474C12.1558 10.9474 13.4754 9.62776 13.4754 7.99997C13.4754 6.92767 12.9027 5.98912 12.0466 5.47342C12.2507 5.3507 12.4409 5.20272 12.6121 5.03149C13.1648 4.47875 13.4754 3.72907 13.4754 2.94738C13.4754 2.16569 13.1648 1.41601 12.6121 0.863264C12.0594 0.310526 11.3097 0 10.528 0H5.47534ZM5.47397 10.1052C4.91611 10.1049 4.38118 9.88312 3.98668 9.48864C3.59187 9.09384 3.37006 8.55832 3.37006 7.99997C3.37006 7.44162 3.59187 6.90613 3.98668 6.51131C4.37849 6.1195 4.90884 5.89808 5.46259 5.89473L5.47535 5.89476L7.58061 5.8947V10.1052H5.47397ZM4.30571 11.3022C4.65138 11.0712 5.0577 10.9478 5.47341 10.9474L7.58061 10.9473V13.0526C7.58062 13.469 7.45715 13.876 7.22582 14.2222C6.9945 14.5685 6.6657 14.8383 6.28101 14.9976C5.89632 15.157 5.47302 15.1986 5.06463 15.1174C4.65625 15.0362 4.28112 14.8357 3.98669 14.5413C3.69226 14.2469 3.49175 13.8718 3.41051 13.4634C3.32928 13.055 3.37097 12.6317 3.53031 12.247C3.68966 11.8623 3.9595 11.5335 4.30571 11.3022ZM10.5408 5.05262L10.528 5.05258L10.5081 5.05266L8.42275 5.0526V0.842104H10.528C11.0863 0.842104 11.6219 1.06391 12.0167 1.45873C12.4115 1.85354 12.6333 2.38902 12.6333 2.94738C12.6333 3.50574 12.4115 4.04122 12.0167 4.43603C11.6248 4.82782 11.0945 5.04924 10.5408 5.05262ZM10.5112 5.89476C9.35619 5.90378 8.42275 6.84286 8.42275 7.99997C8.42275 9.16264 9.36531 10.1052 10.528 10.1052C11.6907 10.1052 12.6333 9.16264 12.6333 7.99997C12.6333 6.84153 11.6976 5.90162 10.5408 5.89473L10.528 5.89476H10.5112ZM5.47534 5.05258H7.58061V0.842104H5.47534C4.91698 0.842104 4.3815 1.06391 3.98668 1.45873C3.59187 1.85354 3.37006 2.38902 3.37006 2.94738C3.37006 3.50574 3.59187 4.04122 3.98668 4.43603C4.37848 4.82783 4.90882 5.04926 5.46256 5.05262L5.47534 5.05258Z" fill="#FF00FF"/>
</g>
<defs>
<clipPath id="clip0_1_415">
<rect width="16" height="16" fill="white"/>
</clipPath>
</defs>
</svg>
