<svg width="16" height="16" viewBox="0 0 16 16" fill="none" xmlns="http://www.w3.org/2000/svg">
<g clip-path="url(#clip0_1406_3481)">
<path d="M8.00146 8.00004C8.00146 6.52728 9.19538 5.33337 10.6681 5.33337C12.1409 5.33337 13.3348 6.52728 13.3348 8.00004C13.3348 9.47277 12.1409 10.6667 10.6681 10.6667C9.19538 10.6667 8.00146 9.47277 8.00146 8.00004Z" fill="#1ABCFE"/>
<path d="M2.66797 13.3333C2.66797 11.8605 3.86188 10.6666 5.33463 10.6666H8.00128V13.3333C8.00128 14.8061 6.80739 16 5.33463 16C3.86188 16 2.66797 14.8061 2.66797 13.3333Z" fill="#0ACF83"/>
<path d="M8.00146 0V5.33334H10.6681C12.1409 5.33334 13.3348 4.13942 13.3348 2.66666C13.3348 1.1939 12.1409 0 10.6681 0H8.00146Z" fill="#FF7262"/>
<path d="M2.66797 2.66666C2.66797 4.13942 3.86188 5.33334 5.33463 5.33334H8.00128V0H5.33463C3.86188 0 2.66797 1.1939 2.66797 2.66666Z" fill="#F24E1E"/>
<path d="M2.66797 8.00003C2.66797 9.47283 3.86188 10.6667 5.33463 10.6667H8.00128V5.33337H5.33463C3.86188 5.33337 2.66797 6.52728 2.66797 8.00003Z" fill="#A259FF"/>
</g>
<defs>
<clipPath id="clip0_1406_3481">
<rect width="16" height="16" fill="white"/>
</clipPath>
</defs>
</svg>
