<svg width="16" height="16" viewBox="0 0 16 16" fill="none" xmlns="http://www.w3.org/2000/svg">
<g clip-path="url(#clip0_1406_3482)">
<path fill-rule="evenodd" clip-rule="evenodd" d="M5.47522 0C4.69352 0 3.94384 0.310526 3.3911 0.863264C2.83836 1.41601 2.52783 2.16569 2.52783 2.94738C2.52783 3.72907 2.83836 4.47875 3.3911 5.03149C3.56245 5.20284 3.75273 5.35091 3.95701 5.47367C3.75273 5.59643 3.56245 5.7445 3.3911 5.91586C2.83836 6.46859 2.52783 7.21827 2.52783 7.99997C2.52783 8.78168 2.83836 9.53136 3.3911 10.0841C3.56246 10.2554 3.75277 10.4035 3.95708 10.5263C3.91676 10.5506 3.87697 10.5758 3.83774 10.602C3.35304 10.9258 2.97526 11.3862 2.75218 11.9247C2.52911 12.4633 2.47074 13.0559 2.58447 13.6276C2.6982 14.1994 2.97891 14.7246 3.39112 15.1367C3.80332 15.549 4.3285 15.8297 4.90023 15.9434C5.47197 16.0571 6.06459 15.9987 6.60315 15.7756C7.14172 15.5526 7.60203 15.1748 7.92589 14.6901C8.24974 14.2054 8.42262 13.6355 8.42262 13.0526V10.5262V10.5251V10.0627C8.95758 10.6086 9.70318 10.9474 10.5279 10.9474C12.1557 10.9474 13.4753 9.62776 13.4753 7.99997C13.4753 6.92767 12.9026 5.98912 12.0465 5.47342C12.2506 5.3507 12.4408 5.20272 12.612 5.03149C13.1647 4.47875 13.4753 3.72907 13.4753 2.94738C13.4753 2.16569 13.1647 1.41601 12.612 0.863264C12.0593 0.310526 11.3096 0 10.5279 0H5.47522ZM5.47385 10.1052C4.91598 10.1049 4.38106 9.88312 3.98656 9.48864C3.59174 9.09384 3.36994 8.55832 3.36994 7.99997C3.36994 7.44162 3.59174 6.90613 3.98656 6.51131C4.37837 6.1195 4.90872 5.89808 5.46247 5.89473L5.47522 5.89476L7.58049 5.8947V10.1052H5.47385ZM4.30558 11.3022C4.65126 11.0712 5.05758 10.9478 5.47329 10.9474L7.58049 10.9473V13.0526C7.5805 13.469 7.45702 13.876 7.2257 14.2222C6.99438 14.5685 6.66558 14.8383 6.28089 14.9976C5.8962 15.157 5.4729 15.1986 5.06451 15.1174C4.65613 15.0362 4.281 14.8357 3.98657 14.5413C3.69214 14.2469 3.49163 13.8718 3.41039 13.4634C3.32916 13.055 3.37085 12.6317 3.53019 12.247C3.68954 11.8623 3.95938 11.5335 4.30558 11.3022ZM10.5407 5.05262L10.5279 5.05258L10.508 5.05266L8.42262 5.0526V0.842104H10.5279C11.0862 0.842104 11.6217 1.06391 12.0165 1.45873C12.4113 1.85354 12.6332 2.38902 12.6332 2.94738C12.6332 3.50574 12.4113 4.04122 12.0165 4.43603C11.6247 4.82782 11.0944 5.04924 10.5407 5.05262ZM10.5111 5.89476C9.35606 5.90378 8.42262 6.84286 8.42262 7.99997C8.42262 9.16264 9.36518 10.1052 10.5279 10.1052C11.6905 10.1052 12.6332 9.16264 12.6332 7.99997C12.6332 6.84153 11.6975 5.90162 10.5407 5.89473L10.5279 5.89476H10.5111ZM5.47522 5.05258H7.58049V0.842104H5.47522C4.91686 0.842104 4.38138 1.06391 3.98656 1.45873C3.59174 1.85354 3.36994 2.38902 3.36994 2.94738C3.36994 3.50574 3.59174 4.04122 3.98656 4.43603C4.37836 4.82783 4.9087 5.04926 5.46244 5.05262L5.47522 5.05258Z" fill="#FF00FF"/>
</g>
<defs>
<clipPath id="clip0_1406_3482">
<rect width="16" height="16" fill="white"/>
</clipPath>
</defs>
</svg>
