<svg width="16" height="16" viewBox="0 0 16 16" fill="none" xmlns="http://www.w3.org/2000/svg">
<path d="M14.4745 7.38916H9.58757L5.31189 11.6657L7.75472 14.1087L14.4745 7.38916Z" fill="#54C5F8"/>
<path d="M4.09014 10.444L1.64624 8.00013L9.58777 0.0585938H14.4747L4.09014 10.444Z" fill="#54C5F8"/>
<path d="M7.75476 14.1085L9.58762 15.9414H14.4745L10.1987 11.6655L7.75476 14.1085Z" fill="#01579B"/>
<path d="M7.75476 14.1085L11.379 12.854L10.1986 11.6655L7.75476 14.1085Z" fill="url(#paint0_linear_348_3885)"/>
<path d="M7.75513 9.2217L5.31177 11.665L7.75513 14.1084L10.1985 11.665L7.75513 9.2217Z" fill="#29B6F6"/>
<path d="M14.4747 7.38923L10.1988 11.6649L14.4747 15.9417H9.58777L7.75492 14.1088L5.31117 11.6649L9.58793 7.38908H14.4747V7.38923ZM9.58777 0.0585938L1.64624 8.00013L4.09014 10.444L14.4747 0.0585938H9.58777Z" fill="url(#paint1_radial_348_3885)"/>
<defs>
<linearGradient id="paint0_linear_348_3885" x1="8.46759" y1="14.5806" x2="10.2876" y2="12.7606" gradientUnits="userSpaceOnUse">
<stop stop-color="#1A237E" stop-opacity="0.4"/>
<stop offset="1" stop-color="#1A237E" stop-opacity="0"/>
</linearGradient>
<radialGradient id="paint1_radial_348_3885" cx="0" cy="0" r="1" gradientUnits="userSpaceOnUse" gradientTransform="translate(2.00729 1.14153) scale(19.432)">
<stop stop-color="white" stop-opacity="0.1"/>
<stop offset="1" stop-color="white" stop-opacity="0"/>
</radialGradient>
</defs>
</svg>
