<svg width="16" height="16" viewBox="0 0 16 16" fill="none" xmlns="http://www.w3.org/2000/svg">
<path d="M14.4745 7.38904H9.58758L5.31189 11.6657L7.75472 14.1086L14.4745 7.38904Z" fill="#54C5F8"/>
<path d="M4.09002 10.4439L1.64612 7.99995L9.58762 0.0584106H14.4745L4.09002 10.4439Z" fill="#54C5F8"/>
<path d="M7.7547 14.1086L9.58753 15.9415H14.4745L10.1986 11.6656L7.7547 14.1086Z" fill="#01579B"/>
<path d="M7.7547 14.1086L11.379 12.8541L10.1986 11.6656L7.7547 14.1086Z" fill="url(#paint0_linear_1_429)"/>
<path d="M7.75507 9.22192L5.31171 11.6652L7.75507 14.1086L10.1985 11.6652L7.75507 9.22192Z" fill="#29B6F6"/>
<path d="M14.4745 7.38904L10.1987 11.6647L14.4745 15.9415H9.58762L7.7548 14.1087L5.31105 11.6647L9.58778 7.38889L14.4745 7.38904ZM9.58762 0.0584106L1.64612 7.99995L4.09002 10.4439L14.4745 0.0584106H9.58762Z" fill="url(#paint1_radial_1_429)"/>
<defs>
<linearGradient id="paint0_linear_1_429" x1="8.46753" y1="14.5807" x2="10.2875" y2="12.7607" gradientUnits="userSpaceOnUse">
<stop stop-color="#1A237E" stop-opacity="0.4"/>
<stop offset="1" stop-color="#1A237E" stop-opacity="0"/>
</linearGradient>
<radialGradient id="paint1_radial_1_429" cx="0" cy="0" r="1" gradientUnits="userSpaceOnUse" gradientTransform="translate(2.00717 1.14135) scale(19.432)">
<stop stop-color="white" stop-opacity="0.1"/>
<stop offset="1" stop-color="white" stop-opacity="0"/>
</radialGradient>
</defs>
</svg>
