<svg width="16" height="16" viewBox="0 0 16 16" fill="none" xmlns="http://www.w3.org/2000/svg">
<g clip-path="url(#clip0_1_449)">
<mask id="mask0_1_449" style="mask-type:luminance" maskUnits="userSpaceOnUse" x="0" y="0" width="16" height="16">
<path d="M16 0H0V16H16V0Z" fill="white"/>
</mask>
<g mask="url(#mask0_1_449)">
<path d="M11.9179 0.280558H10.2346V0.771536V1.26251L9.95402 1.0521C9.39298 0.420838 8.5513 0 7.63946 0C7.49918 0 7.3589 0 7.3589 0C7.28876 0 7.14848 0 7.0082 0C3.08038 0.210418 0.906055 5.05005 3.22066 8.48688C4.83387 10.8716 8.20058 11.3626 10.0242 9.53896L10.2346 9.32856V9.81952C10.2346 10.521 10.1645 10.8716 9.95402 11.3626C9.25266 13.046 7.07834 13.4668 5.18457 12.2744C5.04429 12.2043 4.90402 12.1342 4.90402 12.1342C4.83387 12.2043 3.57136 14.589 3.57136 14.6592C3.57136 14.7293 3.92205 14.9398 4.13248 15.08C5.67554 16.062 8.06026 16.2724 9.95402 15.6411C11.8479 15.0098 13.1103 13.3966 13.4611 11.1522C13.6013 10.3806 13.6013 10.591 13.6013 5.26047V0.280558H11.9179ZM9.04226 7.29452C7.49918 8.13616 5.60541 7.01396 5.60541 5.26047C5.60541 3.78754 7.14848 2.6653 8.5513 3.08614C10.5151 3.64726 10.8659 6.24242 9.04226 7.29452Z" fill="#FF00FF"/>
</g>
</g>
<defs>
<clipPath id="clip0_1_449">
<rect width="16" height="16" fill="white"/>
</clipPath>
</defs>
</svg>
