<svg width="16" height="16" viewBox="0 0 16 16" fill="none" xmlns="http://www.w3.org/2000/svg">
<g clip-path="url(#clip0_1406_3478)">
<mask id="mask0_1406_3478" style="mask-type:luminance" maskUnits="userSpaceOnUse" x="0" y="0" width="16" height="16">
<path d="M16 0H0V16H16V0Z" fill="white"/>
</mask>
<g mask="url(#mask0_1406_3478)">
<path d="M11.9178 0.280558H10.2345V0.771536V1.26251L9.9539 1.0521C9.39286 0.420838 8.55118 0 7.63933 0C7.49905 0 7.35877 0 7.35877 0C7.28864 0 7.14836 0 7.00808 0C3.08026 0.210418 0.905933 5.05005 3.22054 8.48688C4.83375 10.8716 8.20046 11.3626 10.0241 9.53896L10.2345 9.32856V9.81952C10.2345 10.521 10.1644 10.8716 9.9539 11.3626C9.25254 13.046 7.07821 13.4668 5.18445 12.2744C5.04417 12.2043 4.90389 12.1342 4.90389 12.1342C4.83375 12.2043 3.57124 14.589 3.57124 14.6592C3.57124 14.7293 3.92193 14.9398 4.13236 15.08C5.67542 16.062 8.06014 16.2724 9.9539 15.6411C11.8477 15.0098 13.1102 13.3966 13.4609 11.1522C13.6012 10.3806 13.6012 10.591 13.6012 5.26047V0.280558H11.9178ZM9.04214 7.29452C7.49905 8.13616 5.60529 7.01396 5.60529 5.26047C5.60529 3.78754 7.14836 2.6653 8.55118 3.08614C10.515 3.64726 10.8657 6.24242 9.04214 7.29452Z" fill="#FF00FF"/>
</g>
</g>
<defs>
<clipPath id="clip0_1406_3478">
<rect width="16" height="16" fill="white"/>
</clipPath>
</defs>
</svg>
