<svg width="16" height="16" viewBox="0 0 16 16" fill="none" xmlns="http://www.w3.org/2000/svg">
<path fill-rule="evenodd" clip-rule="evenodd" d="M7.99393 0L13.2212 3.03106L11.0896 4.26335L8.01875 2.4646L3.21388 5.24219L3.21229 5.24339L3.22882 5.25717L3.24373 10.7429L3.21391 10.7627L7.84506 13.4801L7.8449 13.4758L7.97906 13.5602L12.7682 10.7868L12.5605 10.6335L12.5754 10.6236V10.6137L12.7841 10.7627V7.9087L11.2139 8.81984V9.8484L8.01883 11.7316L7.97909 11.7565V8.08448L4.72934 6.15154L4.77903 6.10186L7.97902 4.29815L11.025 6.01741L14.7368 3.88076L14.9156 4.01492L14.9356 4.06953V11.985L8.01891 15.9751H7.97906L7.93935 15.9752L1.07227 12V4.01494L1.10203 3.98511L7.99393 0ZM7.97909 8.08448V11.7565L4.72934 9.87824V6.15154L7.97909 8.08448Z" fill="#FF00FF"/>
</svg>
