<svg width="16" height="16" viewBox="0 0 16 16" fill="none" xmlns="http://www.w3.org/2000/svg">
<path d="M12.5752 8.02982V10.6236L7.97884 13.2769L3.41735 10.6236L3.21362 10.7627L7.97884 13.5602L12.7838 10.7776V7.91052L12.5752 8.02982Z" fill="url(#paint0_linear_1_463)"/>
<path d="M12.5753 10.6137L12.7839 10.7627V10.7777L12.769 10.7876L12.5603 10.6335L12.5753 10.6236V10.6137Z" fill="#7A7EAE"/>
<path d="M8.01858 8.00001L4.77881 6.10187L4.72913 6.15156L7.97881 8.08449L8.01858 8.00001Z" fill="#663399"/>
<path d="M8.00866 8H8.03354V8.0248H7.99377L8.00866 8Z" fill="#663399"/>
<path d="M8.01855 8.08449V8.00009L14.9154 4.01495L14.9354 4.06961L8.01855 8.08449Z" fill="#120F22"/>
<path d="M8.01877 15.9751L8.06349 13.595L12.8486 10.8373L12.8684 7.88568H12.784V10.7776L7.97902 13.5602L7.96411 15.9751H8.01877Z" fill="url(#paint1_linear_1_463)"/>
<path d="M8.01855 11.7317V8.08439L14.9354 4.06952V11.985L8.01855 15.9751V13.5751L12.8235 10.8124V7.88567L11.2136 8.81983V9.84839L8.01855 11.7317Z" fill="url(#paint2_linear_1_463)"/>
<path d="M7.93913 15.9752H7.97889V13.5602L7.84473 13.4758L7.93913 15.9752Z" fill="url(#paint3_linear_1_463)"/>
<path d="M3.19869 5.2323L3.22851 5.25714L3.24341 10.7429L3.2136 10.7627L3.19373 10.7528L3.19869 5.2323Z" fill="#2D2868"/>
<path d="M3.41735 10.6236L3.21362 10.7627V5.24224L8.01859 2.4646V2.73789L3.42232 5.40125L3.41735 10.6236Z" fill="#453D76"/>
<path d="M8.01862 7.9851V11.7317L7.97888 11.7565V8.08449V7.97516L8.01862 7.9851Z" fill="#453D76"/>
<path d="M4.72913 6.15155V9.87823L7.97881 11.7566V8.08447L4.72913 6.15155Z" fill="url(#paint4_linear_1_463)"/>
<path d="M7.9391 15.9354V13.5354L3.21364 10.7628V5.26712L1.07202 4.01495V12L7.9391 15.9752V15.9354Z" fill="url(#paint5_linear_1_463)"/>
<path d="M3.2086 5.24225H3.17383V10.7627H3.2086V5.24225Z" fill="#2D2868"/>
<path d="M3.21364 5.24219L1.10183 3.98505L1.07202 4.01486L3.19376 5.25709L3.21364 5.24219Z" fill="#2D2868"/>
<path d="M7.93904 13.5354V13.5801L3.17383 10.8025V10.7627H3.21357L7.93904 13.5354Z" fill="url(#paint6_linear_1_463)"/>
<path d="M8.01855 2.4646L11.0894 4.26336V4.53168L8.01855 2.73789V2.4646Z" fill="url(#paint7_linear_1_463)"/>
<path d="M11.0895 4.26336V4.53168L13.2212 3.28448V3.03107L11.0895 4.26336Z" fill="#484592"/>
<path d="M7.99373 0L13.2211 3.03106L11.0894 4.26335L8.01861 2.4646L3.21361 5.24224L1.10181 3.9851L7.99373 0Z" fill="url(#paint8_linear_1_463)"/>
<path d="M4.77893 6.10186L7.97893 4.29813L11.0249 6.01739L14.7367 3.88074L14.9155 4.0149L8.01867 7.99998L4.77893 6.10186Z" fill="url(#paint9_linear_1_463)"/>
<defs>
<linearGradient id="paint0_linear_1_463" x1="4.21237" y1="11.7598" x2="14.543" y2="10.0413" gradientUnits="userSpaceOnUse">
<stop offset="0.0368" stop-color="white"/>
<stop offset="0.8957" stop-color="#898CBF"/>
</linearGradient>
<linearGradient id="paint1_linear_1_463" x1="7.96194" y1="11.9303" x2="12.8687" y2="11.9303" gradientUnits="userSpaceOnUse">
<stop stop-color="#140F2D"/>
<stop offset="1" stop-color="#3B3C75"/>
</linearGradient>
<linearGradient id="paint2_linear_1_463" x1="9.31391" y1="8.60335" x2="15.0553" y2="12.3724" gradientUnits="userSpaceOnUse">
<stop stop-color="#4C5284"/>
<stop offset="1" stop-color="#8789BC"/>
</linearGradient>
<linearGradient id="paint3_linear_1_463" x1="7.94817" y1="15.8916" x2="7.90817" y2="13.332" gradientUnits="userSpaceOnUse">
<stop offset="0.1104" stop-color="#4C407E"/>
<stop offset="0.8896" stop-color="#666699"/>
<stop offset="1" stop-color="#9BA5CD"/>
</linearGradient>
<linearGradient id="paint4_linear_1_463" x1="1.69315" y1="10.2502" x2="9.56346" y2="8.06287" gradientUnits="userSpaceOnUse">
<stop offset="0.2331" stop-color="#666699"/>
<stop offset="0.7239" stop-color="#A7B3D9"/>
</linearGradient>
<linearGradient id="paint5_linear_1_463" x1="1.82915" y1="10.7389" x2="9.69923" y2="8.55169" gradientUnits="userSpaceOnUse">
<stop offset="0.2331" stop-color="#666699"/>
<stop offset="0.9907" stop-color="#A7B3D9"/>
</linearGradient>
<linearGradient id="paint6_linear_1_463" x1="3.59124" y1="11.1096" x2="6.72076" y2="12.7841" gradientUnits="userSpaceOnUse">
<stop stop-color="#6E70A9"/>
<stop offset="0.9693" stop-color="#514A8E"/>
</linearGradient>
<linearGradient id="paint7_linear_1_463" x1="8.24007" y1="2.85862" x2="10.227" y2="3.82527" gradientUnits="userSpaceOnUse">
<stop offset="0.0368" stop-color="#9EA5D3"/>
<stop offset="0.9018" stop-color="#7675AE"/>
</linearGradient>
<linearGradient id="paint8_linear_1_463" x1="7.42372" y1="0.58166" x2="6.95504" y2="5.78922" gradientUnits="userSpaceOnUse">
<stop stop-color="#AAACD2"/>
<stop offset="0.6258" stop-color="#FCFAFB"/>
</linearGradient>
<linearGradient id="paint9_linear_1_463" x1="10.3035" y1="-0.020533" x2="9.83491" y2="5.18718" gradientUnits="userSpaceOnUse">
<stop offset="0.6743" stop-color="#AAACD2"/>
<stop offset="1" stop-color="#FCFAFB"/>
</linearGradient>
</defs>
</svg>
