<svg width="16" height="16" viewBox="0 0 16 16" fill="none" xmlns="http://www.w3.org/2000/svg">
<path d="M12.5754 8.02982V10.6236L7.97908 13.2769L3.4176 10.6236L3.21387 10.7627L7.97908 13.5602L12.784 10.7776V7.91052L12.5754 8.02982Z" fill="url(#paint0_linear_1406_3475)"/>
<path d="M12.5755 10.6136L12.7841 10.7627V10.7776L12.7693 10.7876L12.5605 10.6335L12.5755 10.6236V10.6136Z" fill="#7A7EAE"/>
<path d="M8.01846 7.99995L4.77869 6.10181L4.729 6.15149L7.97869 8.08443L8.01846 7.99995Z" fill="#663399"/>
<path d="M8.00854 8H8.03342V8.0248H7.99365L8.00854 8Z" fill="#663399"/>
<path d="M8.01855 8.08443V8.00003L14.9154 4.01489L14.9354 4.06955L8.01855 8.08443Z" fill="#120F22"/>
<path d="M8.01852 15.9752L8.06324 13.5951L12.8484 10.8373L12.8682 7.88574H12.7837V10.7776L7.97877 13.5603L7.96387 15.9752H8.01852Z" fill="url(#paint1_linear_1406_3475)"/>
<path d="M8.01855 11.7317V8.08445L14.9354 4.06958V11.9851L8.01855 15.9752V13.5752L12.8235 10.8125V7.88573L11.2136 8.81989V9.84845L8.01855 11.7317Z" fill="url(#paint2_linear_1406_3475)"/>
<path d="M7.93913 15.9751H7.97889V13.5602L7.84473 13.4757L7.93913 15.9751Z" fill="url(#paint3_linear_1406_3475)"/>
<path d="M3.19882 5.2323L3.22863 5.25714L3.24354 10.7429L3.21372 10.7627L3.19385 10.7528L3.19882 5.2323Z" fill="#2D2868"/>
<path d="M3.4176 10.6236L3.21387 10.7627V5.24224L8.01884 2.4646V2.73789L3.42256 5.40125L3.4176 10.6236Z" fill="#453D76"/>
<path d="M8.01874 7.98504V11.7316L7.979 11.7564V8.08443V7.9751L8.01874 7.98504Z" fill="#453D76"/>
<path d="M4.729 6.15161V9.87829L7.97869 11.7566V8.08453L4.729 6.15161Z" fill="url(#paint4_linear_1406_3475)"/>
<path d="M7.93935 15.9354V13.5354L3.21388 10.7627V5.26706L1.07227 4.01489V11.9999L7.93935 15.9751V15.9354Z" fill="url(#paint5_linear_1406_3475)"/>
<path d="M3.2086 5.24219H3.17383V10.7627H3.2086V5.24219Z" fill="#2D2868"/>
<path d="M3.21388 5.24225L1.10207 3.98511L1.07227 4.01492L3.194 5.25716L3.21388 5.24225Z" fill="#2D2868"/>
<path d="M7.93904 13.5354V13.5801L3.17383 10.8025V10.7627H3.21357L7.93904 13.5354Z" fill="url(#paint6_linear_1406_3475)"/>
<path d="M8.01855 2.4646L11.0894 4.26336V4.53168L8.01855 2.73789V2.4646Z" fill="url(#paint7_linear_1406_3475)"/>
<path d="M11.0894 4.2633V4.53162L13.221 3.28442V3.03101L11.0894 4.2633Z" fill="#484592"/>
<path d="M7.99348 0L13.2208 3.03106L11.0892 4.26335L8.01836 2.4646L3.21336 5.24224L1.10156 3.9851L7.99348 0Z" fill="url(#paint8_linear_1406_3475)"/>
<path d="M4.77881 6.10186L7.97881 4.29813L11.0248 6.01739L14.7365 3.88074L14.9154 4.0149L8.01854 7.99998L4.77881 6.10186Z" fill="url(#paint9_linear_1406_3475)"/>
<defs>
<linearGradient id="paint0_linear_1406_3475" x1="4.21261" y1="11.7598" x2="14.5432" y2="10.0413" gradientUnits="userSpaceOnUse">
<stop offset="0.0368" stop-color="white"/>
<stop offset="0.8957" stop-color="#898CBF"/>
</linearGradient>
<linearGradient id="paint1_linear_1406_3475" x1="7.96169" y1="11.9304" x2="12.8684" y2="11.9304" gradientUnits="userSpaceOnUse">
<stop stop-color="#140F2D"/>
<stop offset="1" stop-color="#3B3C75"/>
</linearGradient>
<linearGradient id="paint2_linear_1406_3475" x1="9.31391" y1="8.60341" x2="15.0553" y2="12.3725" gradientUnits="userSpaceOnUse">
<stop stop-color="#4C5284"/>
<stop offset="1" stop-color="#8789BC"/>
</linearGradient>
<linearGradient id="paint3_linear_1406_3475" x1="7.94817" y1="15.8915" x2="7.90817" y2="13.3319" gradientUnits="userSpaceOnUse">
<stop offset="0.1104" stop-color="#4C407E"/>
<stop offset="0.8896" stop-color="#666699"/>
<stop offset="1" stop-color="#9BA5CD"/>
</linearGradient>
<linearGradient id="paint4_linear_1406_3475" x1="1.69303" y1="10.2502" x2="9.56334" y2="8.06293" gradientUnits="userSpaceOnUse">
<stop offset="0.2331" stop-color="#666699"/>
<stop offset="0.7239" stop-color="#A7B3D9"/>
</linearGradient>
<linearGradient id="paint5_linear_1406_3475" x1="1.82939" y1="10.7388" x2="9.69947" y2="8.55163" gradientUnits="userSpaceOnUse">
<stop offset="0.2331" stop-color="#666699"/>
<stop offset="0.9907" stop-color="#A7B3D9"/>
</linearGradient>
<linearGradient id="paint6_linear_1406_3475" x1="3.59124" y1="11.1096" x2="6.72076" y2="12.7841" gradientUnits="userSpaceOnUse">
<stop stop-color="#6E70A9"/>
<stop offset="0.9693" stop-color="#514A8E"/>
</linearGradient>
<linearGradient id="paint7_linear_1406_3475" x1="8.24007" y1="2.85862" x2="10.227" y2="3.82527" gradientUnits="userSpaceOnUse">
<stop offset="0.0368" stop-color="#9EA5D3"/>
<stop offset="0.9018" stop-color="#7675AE"/>
</linearGradient>
<linearGradient id="paint8_linear_1406_3475" x1="7.42347" y1="0.58166" x2="6.95479" y2="5.78922" gradientUnits="userSpaceOnUse">
<stop stop-color="#AAACD2"/>
<stop offset="0.6258" stop-color="#FCFAFB"/>
</linearGradient>
<linearGradient id="paint9_linear_1406_3475" x1="10.3034" y1="-0.020533" x2="9.83478" y2="5.18718" gradientUnits="userSpaceOnUse">
<stop offset="0.6743" stop-color="#AAACD2"/>
<stop offset="1" stop-color="#FCFAFB"/>
</linearGradient>
</defs>
</svg>
