<svg width="16" height="16" viewBox="0 0 16 16" fill="none" xmlns="http://www.w3.org/2000/svg">
<path d="M12.575 8.0299V10.6237L7.97875 13.2771L3.41726 10.6237L3.21353 10.7628L7.97875 13.5603L12.7837 10.7777V7.91064L12.575 8.0299Z" fill="url(#paint0_linear_348_3762)"/>
<path d="M12.5751 10.6138L12.7838 10.7628V10.7777L12.7689 10.7877L12.5602 10.6336L12.5751 10.6237V10.6138Z" fill="#7A7EAE"/>
<path d="M8.01851 8.0002L4.77875 6.10205L4.72906 6.15174L7.97875 8.08467L8.01851 8.0002Z" fill="#663399"/>
<path d="M8.00859 8H8.03343V8.02483H7.99368L8.00859 8Z" fill="#663399"/>
<path d="M8.01852 8.08471V8.00024L14.9154 4.01514L14.9353 4.0698L8.01852 8.08471Z" fill="#120F22"/>
<path d="M8.01862 15.9752L8.06334 13.5951L12.8484 10.8373L12.8683 7.88574H12.7838V10.7777L7.97887 13.5603L7.96396 15.9752H8.01862Z" fill="url(#paint1_linear_348_3762)"/>
<path d="M8.01852 11.7314V8.08424L14.9353 4.06934V11.9849L8.01852 15.9749V13.5749L12.8235 10.8122V7.88548L11.2136 8.81965V9.84822L8.01852 11.7314Z" fill="url(#paint2_linear_348_3762)"/>
<path d="M7.93904 15.975H7.9788V13.5601L7.84464 13.4756L7.93904 15.975Z" fill="url(#paint3_linear_348_3762)"/>
<path d="M3.19872 5.23242L3.22854 5.25727L3.24345 10.743L3.21363 10.7629L3.19376 10.7529L3.19872 5.23242Z" fill="#2D2868"/>
<path d="M3.41726 10.6239L3.21353 10.763V5.24248L8.0185 2.46484V2.73814L3.42223 5.40149L3.41726 10.6239Z" fill="#453D76"/>
<path d="M8.01857 7.98504V11.7316L7.97882 11.7565V8.08441V7.9751L8.01857 7.98504Z" fill="#453D76"/>
<path d="M4.72906 6.15137V9.87808L7.97875 11.7563V8.08429L4.72906 6.15137Z" fill="url(#paint4_linear_348_3762)"/>
<path d="M7.93907 15.9356V13.5356L3.21361 10.763V5.26731L1.07199 4.01514V12.0002L7.93907 15.9754V15.9356Z" fill="url(#paint5_linear_348_3762)"/>
<path d="M3.20861 5.24219H3.17383V10.7627H3.20861V5.24219Z" fill="#2D2868"/>
<path d="M3.21361 5.242L1.1018 3.98486L1.07199 4.01468L3.19373 5.25691L3.21361 5.242Z" fill="#2D2868"/>
<path d="M7.93904 13.5354V13.5801L3.17383 10.8024V10.7627H3.21358L7.93904 13.5354Z" fill="url(#paint6_linear_348_3762)"/>
<path d="M8.01852 2.46484L11.0893 4.2636V4.53192L8.01852 2.73814V2.46484Z" fill="url(#paint7_linear_348_3762)"/>
<path d="M11.0893 4.26355V4.53187L13.221 3.28467V3.03125L11.0893 4.26355Z" fill="#484592"/>
<path d="M7.99367 0L13.221 3.03106L11.0893 4.26335L8.01852 2.4646L3.21355 5.24224L1.10175 3.98509L7.99367 0Z" fill="url(#paint8_linear_348_3762)"/>
<path d="M4.77875 6.10197L7.97874 4.29825L11.0247 6.0175L14.7365 3.88086L14.9154 4.01502L8.0185 8.00011L4.77875 6.10197Z" fill="url(#paint9_linear_348_3762)"/>
<defs>
<linearGradient id="paint0_linear_348_3762" x1="4.21227" y1="11.7599" x2="14.5429" y2="10.0414" gradientUnits="userSpaceOnUse">
<stop offset="0.0368" stop-color="white"/>
<stop offset="0.8957" stop-color="#898CBF"/>
</linearGradient>
<linearGradient id="paint1_linear_348_3762" x1="7.96178" y1="11.9304" x2="12.8686" y2="11.9304" gradientUnits="userSpaceOnUse">
<stop stop-color="#140F2D"/>
<stop offset="1" stop-color="#3B3C75"/>
</linearGradient>
<linearGradient id="paint2_linear_348_3762" x1="9.31386" y1="8.6032" x2="15.0553" y2="12.3722" gradientUnits="userSpaceOnUse">
<stop stop-color="#4C5284"/>
<stop offset="1" stop-color="#8789BC"/>
</linearGradient>
<linearGradient id="paint3_linear_348_3762" x1="7.94807" y1="15.8914" x2="7.90807" y2="13.3318" gradientUnits="userSpaceOnUse">
<stop offset="0.1104" stop-color="#4C407E"/>
<stop offset="0.8896" stop-color="#666699"/>
<stop offset="1" stop-color="#9BA5CD"/>
</linearGradient>
<linearGradient id="paint4_linear_348_3762" x1="1.69309" y1="10.25" x2="9.56339" y2="8.06268" gradientUnits="userSpaceOnUse">
<stop offset="0.2331" stop-color="#666699"/>
<stop offset="0.7239" stop-color="#A7B3D9"/>
</linearGradient>
<linearGradient id="paint5_linear_348_3762" x1="1.82912" y1="10.7391" x2="9.69917" y2="8.55184" gradientUnits="userSpaceOnUse">
<stop offset="0.2331" stop-color="#666699"/>
<stop offset="0.9907" stop-color="#A7B3D9"/>
</linearGradient>
<linearGradient id="paint6_linear_348_3762" x1="3.59124" y1="11.1095" x2="6.72076" y2="12.7842" gradientUnits="userSpaceOnUse">
<stop stop-color="#6E70A9"/>
<stop offset="0.9693" stop-color="#514A8E"/>
</linearGradient>
<linearGradient id="paint7_linear_348_3762" x1="8.24005" y1="2.85887" x2="10.227" y2="3.82551" gradientUnits="userSpaceOnUse">
<stop offset="0.0368" stop-color="#9EA5D3"/>
<stop offset="0.9018" stop-color="#7675AE"/>
</linearGradient>
<linearGradient id="paint8_linear_348_3762" x1="7.42366" y1="0.58166" x2="6.95498" y2="5.78921" gradientUnits="userSpaceOnUse">
<stop stop-color="#AAACD2"/>
<stop offset="0.6258" stop-color="#FCFAFB"/>
</linearGradient>
<linearGradient id="paint9_linear_348_3762" x1="10.3034" y1="-0.0204123" x2="9.8347" y2="5.1873" gradientUnits="userSpaceOnUse">
<stop offset="0.6743" stop-color="#AAACD2"/>
<stop offset="1" stop-color="#FCFAFB"/>
</linearGradient>
</defs>
</svg>
