<svg width="16" height="16" viewBox="0 0 16 16" fill="none" xmlns="http://www.w3.org/2000/svg">
<path fill-rule="evenodd" clip-rule="evenodd" d="M7.99375 0L13.2211 3.03106L11.0894 4.26335L8.01857 2.4646L3.2137 5.24219L3.21211 5.24339L3.22863 5.25717L3.24355 10.7429L3.21373 10.7627L7.84487 13.4801L7.84471 13.4758L7.97888 13.5602L12.768 10.7868L12.5603 10.6335L12.5752 10.6236V10.6137L12.7839 10.7627V7.9087L11.2137 8.81984V9.8484L8.01865 11.7316L7.97891 11.7565V8.08448L4.72915 6.15154L4.77884 6.10186L7.97883 4.29815L11.0248 6.01741L14.7366 3.88076L14.9155 4.01492L14.9354 4.06953V11.985L8.01873 15.9751H7.97888L7.93916 15.9752L1.07208 12V4.01494L1.10184 3.98511L7.99375 0ZM7.97891 8.08448V11.7565L4.72915 9.87824V6.15154L7.97891 8.08448Z" fill="#FF00FF"/>
</svg>
