<svg width="16" height="16" viewBox="0 0 16 16" fill="none" xmlns="http://www.w3.org/2000/svg">
<g clip-path="url(#clip0_1406_3474)">
<path fill-rule="evenodd" clip-rule="evenodd" d="M15.6981 7.28745L8.7124 0.301807C8.31032 -0.100602 7.65789 -0.100602 7.25514 0.301807L5.80469 1.75263L7.64466 3.59282C8.07232 3.44829 8.5628 3.54528 8.9036 3.88605C9.2464 4.22907 9.3424 4.7236 9.1944 5.15282L10.9678 6.92631C11.397 6.7783 11.8919 6.8739 12.2347 7.21727C12.7136 7.69595 12.7136 8.472 12.2347 8.95104C11.7555 9.43024 10.9797 9.43024 10.5003 8.95104C10.14 8.59064 10.051 8.06128 10.2335 7.61759L8.57936 5.96356V10.3161C8.696 10.3738 8.80624 10.451 8.9036 10.548C9.3824 11.0268 9.3824 11.8027 8.9036 12.2823C8.42472 12.761 7.64831 12.761 7.16982 12.2823C6.69098 11.8027 6.69098 11.0268 7.16982 10.548C7.28805 10.4298 7.42526 10.3402 7.57135 10.2803V5.88746C7.42526 5.82774 7.2884 5.73894 7.16982 5.62001C6.80712 5.25747 6.71988 4.72499 6.90585 4.27958L5.09182 2.46517L0.30167 7.25506C-0.100557 7.65782 -0.100557 8.31024 0.30167 8.71272L7.2877 15.6983C7.68993 16.1006 8.34216 16.1006 8.74512 15.6983L15.6981 8.74504C16.1006 8.34264 16.1006 7.68968 15.6981 7.28745Z" fill="#FF00FF"/>
</g>
<defs>
<clipPath id="clip0_1406_3474">
<rect width="16" height="16" fill="white"/>
</clipPath>
</defs>
</svg>
