<svg width="16" height="16" viewBox="0 0 16 16" fill="none" xmlns="http://www.w3.org/2000/svg">
<g clip-path="url(#clip0_348_3806)">
<path fill-rule="evenodd" clip-rule="evenodd" d="M8.00021 15.5388L10.9463 6.47168H5.05432L8.0003 15.5388H8.00021Z" fill="#E24329"/>
<path fill-rule="evenodd" clip-rule="evenodd" d="M7.99975 15.5388L5.05364 6.47168H0.924683L7.99983 15.5387L7.99975 15.5388Z" fill="#FC6D26"/>
<path fill-rule="evenodd" clip-rule="evenodd" d="M0.925231 6.47172L0.0298735 9.2271C-0.0517353 9.47847 0.0376706 9.75384 0.251525 9.90908L8.00025 15.5389L0.925231 6.47168V6.47172Z" fill="#FCA326"/>
<path fill-rule="evenodd" clip-rule="evenodd" d="M0.924726 6.47163H5.05368L3.27917 1.01055C3.1879 0.729556 2.79038 0.729556 2.69915 1.01055L0.924683 6.47163H0.924726Z" fill="#E24329"/>
<path fill-rule="evenodd" clip-rule="evenodd" d="M7.99976 15.5388L10.9459 6.47168H15.0748L7.99984 15.5387L7.99976 15.5388Z" fill="#FC6D26"/>
<path fill-rule="evenodd" clip-rule="evenodd" d="M15.0748 6.47172L15.9701 9.2271C16.0517 9.47847 15.9623 9.75384 15.7485 9.90908L7.99976 15.5389L15.0748 6.47168V6.47172Z" fill="#FCA326"/>
<path fill-rule="evenodd" clip-rule="evenodd" d="M15.0752 6.47163H10.9463L12.7208 1.01055C12.8121 0.729556 13.2096 0.729556 13.3009 1.01055L15.0753 6.47163H15.0752Z" fill="#E24329"/>
</g>
<defs>
<clipPath id="clip0_348_3806">
<rect width="16" height="16" fill="white"/>
</clipPath>
</defs>
</svg>
