<svg width="16" height="16" viewBox="0 0 16 16" fill="none" xmlns="http://www.w3.org/2000/svg">
<path fill-rule="evenodd" clip-rule="evenodd" d="M11.4189 13.7142H2.27597C2.27597 14.9766 3.29931 16 4.56171 16H11.4189C12.6812 16 13.7046 14.9766 13.7046 13.7142V4.32813C13.7046 4.28217 13.6673 4.24488 13.6213 4.24488H11.5021C11.4562 4.24488 11.4189 4.28217 11.4189 4.32813V13.7142ZM11.4189 0C12.6812 0 13.7046 1.02334 13.7046 2.2857H4.56171V11.6718C4.56171 11.7178 4.52442 11.7551 4.47841 11.7551H2.35923C2.31327 11.7551 2.27597 11.7178 2.27597 11.6718V2.2857C2.27597 1.02334 3.29931 0 4.56171 0H11.4189Z" fill="#11AA4B"/>
</svg>
