<svg width="16" height="16" viewBox="0 0 16 16" fill="none" xmlns="http://www.w3.org/2000/svg">
<g clip-path="url(#clip0_1_500)">
<path d="M16 0H0V16H16V0Z" fill="#11AA4B"/>
<path fill-rule="evenodd" clip-rule="evenodd" d="M10.7383 12.5714H3.42401C3.42401 13.5813 4.24268 14.4 5.2526 14.4H10.7383C11.7482 14.4 12.5669 13.5813 12.5669 12.5714V5.0625C12.5669 5.02573 12.537 4.9959 12.5002 4.9959H10.8049C10.7681 4.9959 10.7383 5.02573 10.7383 5.0625V12.5714ZM10.7383 1.59998C11.7482 1.59998 12.5669 2.41865 12.5669 3.42854H5.2526V10.9374C5.2526 10.9742 5.22276 11.0041 5.18596 11.0041H3.49061C3.45384 11.0041 3.42401 10.9742 3.42401 10.9374V3.42854C3.42401 2.41865 4.24268 1.59998 5.2526 1.59998H10.7383Z" fill="white"/>
</g>
<defs>
<clipPath id="clip0_1_500">
<rect width="16" height="16" fill="white"/>
</clipPath>
</defs>
</svg>
