<svg width="16" height="16" viewBox="0 0 16 16" fill="none" xmlns="http://www.w3.org/2000/svg">
<path fill-rule="evenodd" clip-rule="evenodd" d="M11.4189 13.7143H2.276C2.276 14.9766 3.29934 16 4.56174 16H11.4189C12.6812 16 13.7046 14.9766 13.7046 13.7143V4.32813C13.7046 4.28217 13.6673 4.24488 13.6213 4.24488H11.5021C11.4562 4.24488 11.4189 4.28217 11.4189 4.32813V13.7143ZM11.4189 0C12.6812 0 13.7046 1.02334 13.7046 2.2857H4.56174V11.6718C4.56174 11.7178 4.52445 11.7551 4.47844 11.7551H2.35926C2.31329 11.7551 2.276 11.7178 2.276 11.6718V2.2857C2.276 1.02334 3.29934 0 4.56174 0H11.4189Z" fill="#11AA4B"/>
</svg>
