<svg width="16" height="16" viewBox="0 0 16 16" fill="none" xmlns="http://www.w3.org/2000/svg">
<path fill-rule="evenodd" clip-rule="evenodd" d="M13.7046 2.2857C13.7046 1.02334 12.6812 0 11.4189 0H4.56171C3.29932 0 2.27598 1.02334 2.27598 2.2857V11.6718C2.27598 11.7178 2.31327 11.7551 2.35923 11.7551H4.47842C4.52443 11.7551 4.56171 11.7178 4.56171 11.6718V2.2857H13.7046ZM2.27598 13.7142H11.4189V4.32813C11.4189 4.28217 11.4562 4.24488 11.5021 4.24488H13.6213C13.6673 4.24488 13.7046 4.28217 13.7046 4.32813V13.7142C13.7046 14.9766 12.6812 16 11.4189 16H4.56171C3.29932 16 2.27598 14.9766 2.27598 13.7142Z" fill="#FF00FF"/>
</svg>
