<svg width="16" height="16" viewBox="0 0 16 16" fill="none" xmlns="http://www.w3.org/2000/svg">
<path fill-rule="evenodd" clip-rule="evenodd" d="M13.7046 2.2857C13.7046 1.02334 12.6812 0 11.4189 0H4.56174C3.29934 0 2.276 1.02334 2.276 2.2857V11.6718C2.276 11.7178 2.31329 11.7551 2.35926 11.7551H4.47844C4.52445 11.7551 4.56174 11.7178 4.56174 11.6718V2.2857H13.7046ZM2.276 13.7143H11.4189V4.32813C11.4189 4.28217 11.4562 4.24488 11.5021 4.24488H13.6213C13.6673 4.24488 13.7046 4.28217 13.7046 4.32813V13.7143C13.7046 14.9766 12.6812 16 11.4189 16H4.56174C3.29934 16 2.276 14.9766 2.276 13.7143Z" fill="#FF00FF"/>
</svg>
