<svg width="16" height="16" viewBox="0 0 16 16" fill="none" xmlns="http://www.w3.org/2000/svg">
<g clip-path="url(#clip0_1_498)">
<path fill-rule="evenodd" clip-rule="evenodd" d="M16 0H0V16H16V0ZM2.85606 13.1428H11.0846V4.69531C11.0846 4.65395 11.1182 4.62038 11.1596 4.62038H13.0668C13.1082 4.62038 13.1418 4.65395 13.1418 4.69531V13.1428C13.1418 14.279 12.2207 15.2 11.0846 15.2H4.91322C3.77706 15.2 2.85606 14.279 2.85606 13.1428ZM13.1418 2.85713C13.1418 1.72101 12.2207 0.8 11.0846 0.8H4.91322C3.77706 0.8 2.85606 1.72101 2.85606 2.85713V11.3046C2.85606 11.346 2.88962 11.3796 2.93098 11.3796H4.83826C4.87966 11.3796 4.91322 11.346 4.91322 11.3046V2.85713H13.1418Z" fill="#FF00FF"/>
</g>
<defs>
<clipPath id="clip0_1_498">
<rect width="16" height="16" fill="white"/>
</clipPath>
</defs>
</svg>
