<svg width="16" height="16" viewBox="0 0 16 16" fill="none" xmlns="http://www.w3.org/2000/svg">
<g clip-path="url(#clip0_1406_3467)">
<path d="M16 0H0V16H16V0Z" fill="#11AA4B"/>
<path fill-rule="evenodd" clip-rule="evenodd" d="M10.7384 12.5714H3.42407C3.42407 13.5813 4.24274 14.4 5.25266 14.4H10.7384C11.7483 14.4 12.5669 13.5813 12.5669 12.5714V5.0625C12.5669 5.02573 12.5371 4.9959 12.5003 4.9959H10.805C10.7682 4.9959 10.7384 5.02573 10.7384 5.0625V12.5714ZM10.7384 1.59998C11.7483 1.59998 12.5669 2.41865 12.5669 3.42854H5.25266V10.9374C5.25266 10.9742 5.22282 11.0041 5.18602 11.0041H3.49067C3.4539 11.0041 3.42407 10.9742 3.42407 10.9374V3.42854C3.42407 2.41865 4.24274 1.59998 5.25266 1.59998H10.7384Z" fill="white"/>
</g>
<defs>
<clipPath id="clip0_1406_3467">
<rect width="16" height="16" fill="white"/>
</clipPath>
</defs>
</svg>
