<svg width="16" height="16" viewBox="0 0 16 16" fill="none" xmlns="http://www.w3.org/2000/svg">
<path fill-rule="evenodd" clip-rule="evenodd" d="M11.4188 13.7142H2.27588C2.27588 14.9766 3.29922 16 4.56161 16H11.4188C12.6811 16 13.7045 14.9766 13.7045 13.7142V4.32813C13.7045 4.28217 13.6672 4.24488 13.6212 4.24488H11.502C11.4561 4.24488 11.4188 4.28217 11.4188 4.32813V13.7142ZM11.4188 0C12.6811 0 13.7045 1.02334 13.7045 2.2857H4.56161V11.6718C4.56161 11.7178 4.52433 11.7551 4.47832 11.7551H2.35913C2.31317 11.7551 2.27588 11.7178 2.27588 11.6718V2.2857C2.27588 1.02334 3.29922 0 4.56161 0H11.4188Z" fill="#11AA4B"/>
</svg>
