<svg width="16" height="16" viewBox="0 0 16 16" fill="none" xmlns="http://www.w3.org/2000/svg">
<path d="M1.09091 14.0031H3.63636V7.82127L0 5.09399V12.9122C0 13.5158 0.489091 14.0031 1.09091 14.0031Z" fill="#4285F4"/>
<path d="M12.3637 14.0031H14.9091C15.5128 14.0031 16 13.514 16 12.9122V5.09399L12.3637 7.82127" fill="#34A853"/>
<path d="M12.3637 3.094V7.82128L16 5.094V3.63945C16 2.29037 14.46 1.52128 13.3818 2.33037" fill="#FBBC04"/>
<path d="M3.63632 7.82127V3.09399L7.99996 6.36672L12.3636 3.09399V7.82127L7.99996 11.094" fill="#EA4335"/>
<path d="M0 3.63945V5.094L3.63636 7.82128V3.094L2.61818 2.33037C1.53818 1.52128 0 2.29037 0 3.63945Z" fill="#C5221F"/>
</svg>
