<svg width="16" height="16" viewBox="0 0 16 16" fill="none" xmlns="http://www.w3.org/2000/svg">
<path d="M1.09091 14.0033H3.63636V7.82151L0 5.09424V12.9124C0 13.5161 0.489091 14.0033 1.09091 14.0033Z" fill="#4285F4"/>
<path d="M12.3636 14.0033H14.9091C15.5127 14.0033 16 13.5142 16 12.9124V5.09424L12.3636 7.82151" fill="#34A853"/>
<path d="M12.3636 3.094V7.82128L16 5.094V3.63946C16 2.29037 14.46 1.52128 13.3818 2.33037" fill="#FBBC04"/>
<path d="M3.63636 7.82151V3.09424L8 6.36697L12.3636 3.09424V7.82151L8 11.0942" fill="#EA4335"/>
<path d="M0 3.63946V5.094L3.63636 7.82128V3.094L2.61818 2.33037C1.53818 1.52128 0 2.29037 0 3.63946Z" fill="#C5221F"/>
</svg>
