<svg width="16" height="16" viewBox="0 0 16 16" fill="none" xmlns="http://www.w3.org/2000/svg">
<path d="M1.09091 14.0031H3.63636V7.82127L0 5.09399V12.9122C0 13.5158 0.489091 14.0031 1.09091 14.0031Z" fill="#4285F4"/>
<path d="M12.3638 14.0031H14.9092C15.5129 14.0031 16.0001 13.514 16.0001 12.9122V5.09399L12.3638 7.82127" fill="#34A853"/>
<path d="M12.3638 3.094V7.82128L16.0001 5.094V3.63945C16.0001 2.29037 14.4601 1.52128 13.3819 2.33037" fill="#FBBC04"/>
<path d="M3.63623 7.82127V3.09399L7.99987 6.36672L12.3635 3.09399V7.82127L7.99987 11.094" fill="#EA4335"/>
<path d="M0 3.63945V5.094L3.63636 7.82128V3.094L2.61818 2.33037C1.53818 1.52128 0 2.29037 0 3.63945Z" fill="#C5221F"/>
</svg>
