<svg width="16" height="16" viewBox="0 0 16 16" fill="none" xmlns="http://www.w3.org/2000/svg">
<path fill-rule="evenodd" clip-rule="evenodd" d="M13.2448 0C9.91625 0 9.29186 4.74087 11.1643 4.74087C13.0366 4.74087 16.5734 0 13.2448 0ZM7.71792 4.15343C8.71491 4.21431 9.80877 0.348656 7.93493 0.591781C6.06177 0.834907 6.72053 4.09254 7.71792 4.15343ZM3.14879 6.55545C3.85787 6.24333 3.24011 3.19039 2.03436 4.023C0.829151 4.85574 2.4397 6.86744 3.14879 6.55545ZM5.14671 4.95748C5.99082 4.78539 6.03709 1.32292 4.53179 1.94406C3.02623 2.56533 4.30328 5.12985 5.14671 4.95748ZM7.74687 13.6773C8.71531 14.4146 9.70418 13.8498 9.55441 12.706C9.4294 11.7517 12.9082 11.1739 12.6358 12.616C12.279 14.5072 10.372 16 8.71869 16C5.35796 16 2.13713 12.0919 2.76665 9.27488C3.69667 5.10996 11.8638 4.29048 12.3117 6.95227C12.5693 8.48254 10.8394 9.54922 9.29537 10.5014C7.60376 11.5445 6.13509 12.4501 7.74687 13.6773Z" fill="#FF00FF"/>
</svg>
