<svg width="16" height="16" viewBox="0 0 16 16" fill="none" xmlns="http://www.w3.org/2000/svg">
<path fill-rule="evenodd" clip-rule="evenodd" d="M13.2448 0C9.91625 0 9.29193 4.74087 11.1644 4.74087C13.0366 4.74087 16.5734 0 13.2448 0ZM7.71795 4.15342C8.71497 4.21431 9.80881 0.348656 7.93497 0.591782C6.06181 0.834904 6.72056 4.09254 7.71795 4.15342ZM3.14881 6.55546C3.85789 6.24333 3.24014 3.19039 2.03439 4.023C0.829182 4.85574 2.43973 6.86744 3.14881 6.55546ZM5.14674 4.95748C5.99085 4.78538 6.03712 1.32292 4.53182 1.94406C3.02626 2.56533 4.30331 5.12985 5.14674 4.95748ZM7.74689 13.6773C8.71537 14.4146 9.70425 13.8498 9.55441 12.706C9.42945 11.7518 12.9082 11.1739 12.6358 12.616C12.279 14.5071 10.372 16 8.71873 16C5.35799 16 2.13716 12.0918 2.76669 9.27488C3.6967 5.10996 11.8638 4.29048 12.3118 6.95227C12.5693 8.48256 10.8394 9.5492 9.29537 10.5014C7.60379 11.5445 6.13513 12.4501 7.74689 13.6773Z" fill="black"/>
</svg>
