<svg width="16" height="16" viewBox="0 0 16 16" fill="none" xmlns="http://www.w3.org/2000/svg">
<path fill-rule="evenodd" clip-rule="evenodd" d="M8.6896 6.94209C8.51856 6.9875 8.34504 7.03358 8.14432 7.08538L8.13224 7.08861C8.03416 7.11496 8.02392 7.1177 7.93267 7.0124C7.8232 6.88833 7.74293 6.80806 7.58967 6.73508C7.1299 6.50884 6.68473 6.57452 6.26874 6.84455C5.77249 7.16565 5.51706 7.64002 5.52436 8.23113C5.53166 8.81497 5.93304 9.29665 6.50958 9.37689C7.00583 9.44257 7.42182 9.26745 7.75022 8.89529C7.79894 8.83569 7.84363 8.77217 7.89325 8.70161C7.91053 8.67705 7.92841 8.65161 7.94726 8.62521H6.53877C6.38551 8.62521 6.34902 8.53033 6.40011 8.40633C6.49498 8.18009 6.67013 7.80057 6.7723 7.61083C6.79419 7.56704 6.84528 7.49406 6.95475 7.49406H9.30336C9.40888 7.15989 9.58 6.84413 9.80824 6.54536C10.341 5.84476 10.9832 5.47987 11.8517 5.32661C12.5961 5.19525 13.2966 5.26823 13.9316 5.6988C14.5081 6.09289 14.8657 6.62564 14.9606 7.32624C15.0846 8.31145 14.8 9.11425 14.1214 9.80025C13.6397 10.2892 13.0486 10.5957 12.3698 10.7343C12.2403 10.7583 12.1109 10.7697 11.9835 10.7809C11.917 10.7867 11.851 10.7926 11.786 10.8C11.1219 10.7855 10.5162 10.5957 10.0053 10.1579C9.646 9.84721 9.39848 9.46553 9.27552 9.02113C9.19016 9.19345 9.08808 9.35857 8.96896 9.51561C8.44352 10.2089 7.75752 10.6395 6.88907 10.7563C6.17387 10.8511 5.50976 10.7124 4.92593 10.2746C4.38589 9.86585 4.07938 9.32585 3.9991 8.65441C3.90422 7.85896 4.13775 7.14376 4.61942 6.51614C5.13757 5.83744 5.82358 5.40686 6.66283 5.2536C7.34884 5.12954 8.00568 5.20981 8.5968 5.6112C8.9836 5.86663 9.26088 6.21692 9.44336 6.6402C9.48712 6.70588 9.45792 6.74238 9.37032 6.76427C9.11456 6.82923 8.904 6.88515 8.6896 6.94209ZM13.5229 7.85169C13.5208 7.82399 13.5193 7.79816 13.5178 7.77364C13.5143 7.7142 13.5114 7.66252 13.501 7.61086C13.3696 6.88836 12.7055 6.47968 12.0122 6.64024C11.3335 6.79349 10.8957 7.22407 10.7351 7.91007C10.6038 8.47929 10.881 9.05585 11.4065 9.28937C11.8079 9.46449 12.2093 9.44265 12.5961 9.24561C13.1726 8.94641 13.4864 8.47929 13.5229 7.85169ZM1.10917 6.85916C1.09457 6.88105 1.10186 6.89564 1.13106 6.89564L3.7729 6.90294C3.7948 6.90294 3.83129 6.88105 3.84588 6.85916L3.96994 6.66941C3.98454 6.64752 3.97725 6.62562 3.94806 6.62562H1.3427C1.3135 6.62562 1.27702 6.64022 1.26242 6.66211L1.10917 6.85916ZM0.00729791 7.53056C-0.00729791 7.55246 0 7.56705 0.0291917 7.56705L3.4811 7.55976C3.5103 7.55976 3.53949 7.54516 3.54678 7.51596L3.60517 7.34082C3.61246 7.31892 3.59787 7.29703 3.56868 7.29703H0.240831C0.211639 7.29703 0.17515 7.31163 0.160554 7.33352L0.00729791 7.53056ZM1.79524 8.23849C1.76605 8.23849 1.75875 8.21657 1.77334 8.19465L1.87552 8.01225C1.89011 7.99033 1.9193 7.96844 1.9485 7.96844H3.40808C3.43727 7.96844 3.45186 7.99033 3.45186 8.01953L3.43727 8.19465C3.43727 8.22385 3.40808 8.24577 3.38618 8.24577L1.79524 8.23849Z" fill="#FF00FF"/>
</svg>
