<svg width="16" height="16" viewBox="0 0 16 16" fill="none" xmlns="http://www.w3.org/2000/svg">
<path fill-rule="evenodd" clip-rule="evenodd" d="M8.6896 6.94208C8.51856 6.98749 8.34504 7.03357 8.14432 7.08537L8.13224 7.0886C8.03416 7.11494 8.02392 7.11769 7.93267 7.01238C7.8232 6.88832 7.74293 6.80805 7.58967 6.73506C7.1299 6.50883 6.68473 6.57451 6.26874 6.84454C5.77249 7.16564 5.51706 7.64001 5.52436 8.23112C5.53166 8.81496 5.93304 9.29664 6.50958 9.37688C7.00583 9.44256 7.42182 9.26744 7.75022 8.89528C7.79894 8.83568 7.84363 8.77216 7.89325 8.7016C7.91053 8.67704 7.92841 8.6516 7.94726 8.6252H6.53877C6.38551 8.6252 6.34902 8.53032 6.40011 8.40632C6.49498 8.18008 6.67013 7.80056 6.7723 7.61082C6.79419 7.56703 6.84528 7.49405 6.95475 7.49405H9.30336C9.40888 7.15988 9.58 6.84412 9.80824 6.54535C10.341 5.84475 10.9832 5.47986 11.8517 5.3266C12.5961 5.19524 13.2966 5.26822 13.9316 5.69879C14.5081 6.09288 14.8657 6.62562 14.9606 7.32622C15.0846 8.31144 14.8 9.11424 14.1214 9.80024C13.6397 10.2892 13.0486 10.5957 12.3698 10.7343C12.2403 10.7583 12.1109 10.7697 11.9835 10.7809C11.917 10.7867 11.851 10.7926 11.786 10.8C11.1219 10.7854 10.5162 10.5957 10.0053 10.1578C9.646 9.8472 9.39848 9.46552 9.27552 9.02112C9.19016 9.19344 9.08808 9.35856 8.96896 9.5156C8.44352 10.2089 7.75752 10.6394 6.88907 10.7562C6.17387 10.8511 5.50976 10.7124 4.92593 10.2746C4.38589 9.86584 4.07938 9.32584 3.9991 8.6544C3.90422 7.85894 4.13775 7.14375 4.61942 6.51613C5.13757 5.83742 5.82358 5.40685 6.66283 5.25359C7.34884 5.12953 8.00568 5.2098 8.5968 5.61119C8.9836 5.86662 9.26088 6.21691 9.44336 6.64019C9.48712 6.70587 9.45792 6.74237 9.37032 6.76426C9.11456 6.82922 8.904 6.88514 8.6896 6.94208ZM13.5229 7.85168C13.5208 7.82398 13.5193 7.79814 13.5178 7.77363C13.5143 7.71419 13.5114 7.66251 13.501 7.61085C13.3696 6.88835 12.7055 6.47967 12.0122 6.64022C11.3335 6.79348 10.8957 7.22406 10.7351 7.91006C10.6038 8.47928 10.881 9.05584 11.4065 9.28936C11.8079 9.46448 12.2093 9.44264 12.5961 9.2456C13.1726 8.9464 13.4864 8.47928 13.5229 7.85168ZM1.10917 6.85914C1.09457 6.88104 1.10186 6.89563 1.13106 6.89563L3.7729 6.90293C3.7948 6.90293 3.83129 6.88104 3.84588 6.85914L3.96994 6.6694C3.98454 6.6475 3.97725 6.62561 3.94806 6.62561H1.3427C1.3135 6.62561 1.27702 6.64021 1.26242 6.6621L1.10917 6.85914ZM0.00729791 7.53055C-0.00729791 7.55245 0 7.56704 0.0291917 7.56704L3.4811 7.55974C3.5103 7.55974 3.53949 7.54514 3.54678 7.51595L3.60517 7.34081C3.61246 7.31891 3.59787 7.29702 3.56868 7.29702H0.240831C0.211639 7.29702 0.17515 7.31162 0.160554 7.3335L0.00729791 7.53055ZM1.79524 8.23848C1.76605 8.23848 1.75875 8.21656 1.77334 8.19464L1.87552 8.01224C1.89011 7.99032 1.9193 7.96842 1.9485 7.96842H3.40808C3.43727 7.96842 3.45186 7.99032 3.45186 8.01952L3.43727 8.19464C3.43727 8.22384 3.40808 8.24576 3.38618 8.24576L1.79524 8.23848Z" fill="#00ACD7"/>
</svg>
