<svg width="16" height="16" viewBox="0 0 16 16" fill="none" xmlns="http://www.w3.org/2000/svg">
<g clip-path="url(#clip0_1406_3461)">
<mask id="mask0_1406_3461" style="mask-type:luminance" maskUnits="userSpaceOnUse" x="0" y="0" width="16" height="16">
<path d="M16 0H0V16H16V0Z" fill="white"/>
</mask>
<g mask="url(#mask0_1406_3461)">
<path d="M15.0212 10.6808C15.0212 10.6808 14.9978 10.5377 14.9842 10.5389L12.3874 10.7895C12.1808 10.8094 12.0204 10.9742 12.0058 11.1813L11.9345 12.2037L9.92556 12.3471L9.78892 11.4204C9.75852 11.2143 9.57852 11.0589 9.37012 11.0589H6.6294C6.42112 11.0589 6.24112 11.2143 6.21069 11.4204L6.07397 12.3471L4.06504 12.2037L3.99369 11.1813C3.9792 10.9741 3.81872 10.8093 3.6121 10.7894L1.01406 10.5389C1.00064 10.5377 0.990813 10.6809 0.977389 10.6809L0.973877 11.2429L3.17418 11.5977L3.24625 12.6293C3.26081 12.8381 3.42932 13.007 3.63832 13.0221L6.40508 13.2194C6.41555 13.2201 6.42589 13.2205 6.43622 13.2205C6.64414 13.2205 6.82384 13.0651 6.85428 12.8589L6.99487 11.9054H9.00476L9.14532 12.8589C9.17572 13.065 9.35565 13.2205 9.5638 13.2205C9.57405 13.2205 9.5842 13.2201 9.5942 13.2194L12.3613 13.0221C12.5703 13.007 12.7388 12.8381 12.7534 12.6293L12.8254 11.5977L15.0248 11.2413L15.0212 10.6808Z" fill="white"/>
<path d="M6.37269 0.400039C5.6418 0.562526 4.91876 0.788688 4.24089 1.12988C4.25639 1.72842 4.29509 2.30193 4.37353 2.88448C4.11028 3.05314 3.83362 3.1979 3.58772 3.39531C3.33789 3.5875 3.0827 3.77145 2.8565 3.99623C2.40457 3.69731 1.9263 3.41639 1.43355 3.1684C0.9024 3.74006 0.405706 4.35706 0 5.04745C0.305234 5.54124 0.623906 6.00406 0.967984 6.44326H0.977552V10.6807C0.985304 10.6807 0.993112 10.6811 1.00079 10.6818L3.59854 10.9322C3.73462 10.9453 3.84125 11.0548 3.85071 11.1912L3.93084 12.3379L6.19684 12.4997L6.3529 11.4413C6.37314 11.304 6.4909 11.2024 6.6297 11.2024H9.3704C9.50912 11.2024 9.62688 11.304 9.64712 11.4413L9.8032 12.4997L12.0693 12.3379L12.1493 11.1912C12.1589 11.0548 12.2654 10.9454 12.4015 10.9322L14.9982 10.6818C15.0058 10.6811 15.0136 10.6807 15.0214 10.6807V10.3425L15.0225 10.3421V6.44325H15.032C15.3762 6.00402 15.6946 5.54118 16 5.04743C15.5944 4.35699 15.0975 3.73999 14.5663 3.16838C14.0738 3.41635 13.5952 3.69726 13.1433 3.99622C12.9172 3.77143 12.6625 3.5875 12.4123 3.3953C12.1665 3.19786 11.8894 3.0531 11.6266 2.88446C11.7049 2.30191 11.7436 1.72841 11.7592 1.12986C11.0813 0.788673 10.3583 0.562497 9.62704 0.400024C9.33504 0.890728 9.06808 1.42202 8.8356 1.94151C8.55984 1.89544 8.2828 1.87836 8.00544 1.87506C8.00352 1.87506 8.00168 1.87506 8.00008 1.87506C7.99834 1.87506 7.99649 1.87468 7.99476 1.87468C7.71686 1.87798 7.44005 1.89544 7.16426 1.94151C6.93188 1.42207 6.66509 0.890743 6.37269 0.400039ZM0.97312 11.2411C0.974192 11.4921 0.977392 11.7671 0.977392 11.8219C0.977392 14.2889 4.10692 15.4746 7.99502 15.4883H8.00456C11.8927 15.4747 15.0213 14.2889 15.0213 11.8219C15.0213 11.7661 15.0247 11.4923 15.0258 11.2411L12.6909 11.4663L12.6104 12.6191C12.6007 12.7581 12.4902 12.8687 12.3512 12.8787L9.58408 13.0761C9.57736 13.0766 9.57064 13.0768 9.56392 13.0768C9.4264 13.0768 9.30784 12.9759 9.28752 12.8378L9.12888 11.7617H6.87103L6.71237 12.8378C6.69105 12.9826 6.5616 13.0867 6.41577 13.0761L3.64864 12.8787C3.5097 12.8687 3.39919 12.7581 3.3895 12.6191L3.3091 11.4663L0.97312 11.2411Z" fill="#478CBF"/>
<path d="M4.31773 6.59863C3.4535 6.59863 2.75244 7.29897 2.75244 8.16336C2.75244 9.02832 3.45345 9.72896 4.31773 9.72896C5.18239 9.72896 5.88326 9.02832 5.88326 8.16336C5.88326 7.29897 5.18239 6.59863 4.31773 6.59863ZM11.6828 6.59863C10.818 6.59863 10.1172 7.29897 10.1172 8.16336C10.1172 9.02832 10.818 9.72896 11.6828 9.72896C12.5469 9.72896 13.2479 9.02832 13.2479 8.16336C13.2479 7.29897 12.5469 6.59863 11.6828 6.59863ZM7.99991 7.51426C7.72159 7.51426 7.49603 7.7196 7.49603 7.97222V9.41336C7.49603 9.66624 7.72159 9.87136 7.99991 9.87136C8.27823 9.87136 8.50439 9.66624 8.50439 9.41336V7.97222C8.50439 7.7196 8.27823 7.51426 7.99991 7.51426Z" fill="white"/>
<path d="M4.46706 7.21729C3.89317 7.21729 3.42798 7.68273 3.42798 8.25648C3.42798 8.83016 3.89319 9.2952 4.46706 9.2952C5.04123 9.2952 5.50624 8.83016 5.50624 8.25648C5.50624 7.68274 5.04122 7.21729 4.46706 7.21729ZM11.5323 7.21729C10.9585 7.21729 10.4936 7.68273 10.4936 8.25648C10.4936 8.83016 10.9586 9.2952 11.5323 9.2952C12.1066 9.2952 12.5713 8.83016 12.5713 8.25648C12.5713 7.68274 12.1066 7.21729 11.5323 7.21729Z" fill="#414042"/>
</g>
</g>
<defs>
<clipPath id="clip0_1406_3461">
<rect width="16" height="16" fill="white"/>
</clipPath>
</defs>
</svg>
