<svg width="16" height="16" viewBox="0 0 16 16" fill="none" xmlns="http://www.w3.org/2000/svg">
<g clip-path="url(#clip0_1_519)">
<path fill-rule="evenodd" clip-rule="evenodd" d="M6.37269 0.400039C5.6418 0.562526 4.91876 0.788688 4.24089 1.12988C4.25639 1.72842 4.29509 2.30193 4.37353 2.88448C4.29193 2.93676 4.20904 2.98674 4.12618 3.0367C3.94172 3.14794 3.75739 3.25909 3.58772 3.39531C3.54677 3.42682 3.50567 3.4581 3.46458 3.48938C3.25503 3.64889 3.04559 3.80831 2.8565 3.99623C2.40457 3.69731 1.9263 3.41639 1.43355 3.1684C0.9024 3.74006 0.405706 4.35706 0 5.04745C0.305234 5.54124 0.623906 6.00406 0.967984 6.44326H0.977552V10.6807H0.978408C0.984656 10.6771 0.990144 10.6435 0.995624 10.6099C1.00146 10.5741 1.0073 10.5383 1.01403 10.539L3.61206 10.7895C3.81869 10.8094 3.97917 10.9742 3.99366 11.1813L4.065 12.2038L6.07394 12.3471L6.21066 11.4204C6.2411 11.2143 6.4211 11.059 6.62937 11.059H9.37008C9.57848 11.059 9.75848 11.2143 9.78888 11.4204L9.92552 12.3471L11.9345 12.2038L12.0058 11.1813C12.0203 10.9743 12.1808 10.8095 12.3874 10.7895L14.9842 10.539C14.9975 10.5377 15.0202 10.6751 15.0211 10.6807L15.0214 10.3425L15.0225 10.3421V6.44325H15.032C15.3762 6.00402 15.6946 5.54118 16 5.04743C15.5944 4.35699 15.0975 3.73999 14.5663 3.16838C14.0738 3.41635 13.5952 3.69726 13.1433 3.99622C12.9528 3.80686 12.7421 3.6465 12.5308 3.48576C12.4913 3.45572 12.4517 3.42555 12.4123 3.3953C12.2433 3.25957 12.0595 3.14874 11.8758 3.03792C11.7923 2.98754 11.7088 2.93717 11.6266 2.88446C11.7049 2.30191 11.7436 1.72841 11.7592 1.12986C11.0813 0.788673 10.3583 0.562497 9.62704 0.400024C9.33504 0.890728 9.06808 1.42202 8.8356 1.94151C8.55984 1.89544 8.2828 1.87836 8.00544 1.87506L8.00256 1.87488L8.00008 1.87506L7.99742 1.87487L7.99476 1.87468C7.71686 1.87798 7.44005 1.89544 7.16426 1.94151C6.93188 1.42207 6.66509 0.890743 6.37269 0.400039ZM0.973184 11.2411L0.97384 11.2429L3.17415 11.5977L3.24621 12.6294C3.26078 12.8382 3.42929 13.0071 3.63828 13.0221L6.40504 13.2195C6.41552 13.2202 6.42586 13.2206 6.43619 13.2206C6.6441 13.2206 6.82382 13.0651 6.85425 12.859L6.99484 11.9055H9.00472L9.14536 12.859C9.17568 13.0651 9.3556 13.2205 9.56384 13.2205C9.574 13.2205 9.58416 13.2201 9.59416 13.2195L12.3613 13.0221C12.5702 13.0071 12.7388 12.8382 12.7534 12.6294L12.8254 11.5977L15.0247 11.2413L15.0258 11.2411C15.0251 11.3928 15.0236 11.5529 15.0226 11.6682C15.0218 11.7435 15.0213 11.7999 15.0213 11.8219C15.0213 14.2889 11.8927 15.4747 8.00456 15.4883H7.99502C4.10692 15.4746 0.977392 14.2889 0.977392 11.8219C0.977392 11.8003 0.976896 11.7446 0.976232 11.6696C0.9752 11.5543 0.973832 11.3932 0.973184 11.2411ZM2.75246 8.16338C2.75246 7.29899 3.45351 6.59866 4.31774 6.59866C5.18241 6.59866 5.88327 7.29899 5.88327 8.16338C5.88327 9.02834 5.18241 9.72898 4.31774 9.72898C3.45346 9.72898 2.75246 9.02834 2.75246 8.16338ZM10.1172 8.16338C10.1172 7.29899 10.818 6.59866 11.6828 6.59866C12.547 6.59866 13.2479 7.29899 13.2479 8.16338C13.2479 9.02834 12.547 9.72898 11.6828 9.72898C10.818 9.72898 10.1172 9.02834 10.1172 8.16338ZM7.49605 7.97225C7.49605 7.71962 7.72161 7.51429 7.99994 7.51429C8.27824 7.51429 8.5044 7.71962 8.5044 7.97225V9.41338C8.5044 9.66626 8.27824 9.87138 7.99994 9.87138C7.72161 9.87138 7.49605 9.66626 7.49605 9.41338V7.97225ZM3.42786 8.2565C3.42786 7.68276 3.89305 7.21731 4.46694 7.21731C5.0411 7.21731 5.50611 7.68277 5.50611 8.2565C5.50611 8.83018 5.04111 9.29522 4.46694 9.29522C3.89307 9.29522 3.42786 8.83018 3.42786 8.2565ZM10.4935 8.2565C10.4935 7.68276 10.9584 7.21731 11.5322 7.21731C12.1065 7.21731 12.5713 7.68277 12.5713 8.2565C12.5713 8.83018 12.1065 9.29522 11.5322 9.29522C10.9585 9.29522 10.4935 8.83018 10.4935 8.2565Z" fill="#FF00FF"/>
</g>
<defs>
<clipPath id="clip0_1_519">
<rect width="16" height="16" fill="white"/>
</clipPath>
</defs>
</svg>
