<svg width="16" height="16" viewBox="0 0 16 16" fill="none" xmlns="http://www.w3.org/2000/svg">
<g clip-path="url(#clip0_348_3742)">
<path d="M15.0211 10.6809C15.0211 10.6809 14.9978 10.5378 14.9842 10.5391L12.3874 10.7897C12.1808 10.8096 12.0203 10.9744 12.0058 11.1814L11.9345 12.2039L9.92553 12.3473L9.78888 11.4206C9.75845 11.2145 9.57846 11.0591 9.37011 11.0591H6.62936C6.42109 11.0591 6.24109 11.2145 6.21066 11.4206L6.07394 12.3473L4.065 12.2039L3.99366 11.1814C3.97916 10.9743 3.81869 10.8095 3.61207 10.7896L1.01403 10.5391C1.00061 10.5378 0.990775 10.6811 0.977354 10.6811L0.973839 11.243L3.17415 11.5978L3.24621 12.6295C3.26078 12.8383 3.42929 13.0072 3.63828 13.0222L6.40504 13.2196C6.41552 13.2203 6.42585 13.2207 6.43619 13.2207C6.64411 13.2207 6.82381 13.0652 6.85424 12.8591L6.99484 11.9056H9.00473L9.14532 12.8591C9.17568 13.0652 9.3556 13.2206 9.56381 13.2206C9.574 13.2206 9.58419 13.2203 9.59417 13.2196L12.3613 13.0222C12.5702 13.0072 12.7388 12.8383 12.7534 12.6295L12.8254 11.5978L15.0247 11.2414L15.0211 10.6809Z" fill="white"/>
<path d="M6.37269 0.399917C5.6418 0.562404 4.91876 0.788566 4.24089 1.12976C4.25639 1.7283 4.29508 2.30181 4.37353 2.88436C4.11028 3.05302 3.83362 3.19777 3.58772 3.39519C3.33789 3.58739 3.08269 3.77133 2.8565 3.99611C2.40457 3.69719 1.9263 3.41627 1.43356 3.16828C0.902403 3.73993 0.405705 4.35694 0 5.04733C0.305233 5.54112 0.623906 6.00393 0.967982 6.44314H0.977556V10.6805C0.985307 10.6806 0.993114 10.6809 1.00079 10.6816L3.59855 10.932C3.73462 10.9452 3.84124 11.0547 3.85072 11.1911L3.93084 12.3378L6.19684 12.4995L6.3529 11.4411C6.37314 11.3039 6.4909 11.2023 6.6297 11.2023H9.37042C9.50915 11.2023 9.62689 11.3039 9.64712 11.4411L9.80319 12.4995L12.0693 12.3378L12.1493 11.1911C12.1589 11.0547 12.2654 10.9452 12.4015 10.932L14.9982 10.6816C15.0059 10.6809 15.0136 10.6806 15.0213 10.6805V10.3424L15.0224 10.342V6.44313H15.032C15.3762 6.0039 15.6946 5.54106 16 5.04731C15.5944 4.35687 15.0975 3.73987 14.5663 3.16826C14.0737 3.41623 13.5952 3.69713 13.1433 3.99609C12.9172 3.77131 12.6625 3.58738 12.4123 3.39517C12.1665 3.19774 11.8894 3.05298 11.6267 2.88434C11.7049 2.30179 11.7436 1.72828 11.7592 1.12974C11.0813 0.788551 10.3583 0.562375 9.62703 0.399902C9.33508 0.890604 9.06809 1.4219 8.83556 1.94139C8.55982 1.89532 8.2828 1.87824 8.00545 1.87493V1.87456C8.00351 1.87456 8.00171 1.87493 8.00006 1.87493C7.99834 1.87493 7.99648 1.87456 7.99476 1.87456V1.87493C7.71687 1.87823 7.44005 1.89532 7.16427 1.94139C6.93188 1.42195 6.66509 0.890604 6.3727 0.399902L6.37269 0.399917ZM0.973117 11.2409C0.974196 11.492 0.977393 11.767 0.977393 11.8218C0.977393 14.2887 4.10692 15.4745 7.99502 15.4882H8.0046C11.8928 15.4745 15.0213 14.2887 15.0213 11.8218C15.0213 11.766 15.0247 11.4921 15.0258 11.2409L12.6909 11.4662L12.6104 12.619C12.6007 12.758 12.4902 12.8686 12.3512 12.8785L9.58411 13.076C9.57737 13.0765 9.57062 13.0767 9.56394 13.0767C9.42643 13.0767 9.30782 12.9757 9.28751 12.8376L9.12885 11.7616H6.87103L6.71237 12.8376C6.69105 12.9825 6.5616 13.0867 6.41577 13.076L3.64864 12.8785C3.5097 12.8686 3.39919 12.758 3.3895 12.619L3.30909 11.4662L0.973184 11.2409L0.973117 11.2409Z" fill="#478CBF"/>
<path d="M4.31775 6.59863C3.45351 6.59863 2.75246 7.29897 2.75246 8.16335C2.75246 9.0283 3.45346 9.72896 4.31775 9.72896C5.18241 9.72896 5.88327 9.0283 5.88327 8.16335C5.88327 7.29897 5.18241 6.59863 4.31775 6.59863ZM11.6828 6.59863C10.818 6.59863 10.1172 7.29897 10.1172 8.16335C10.1172 9.0283 10.818 9.72896 11.6828 9.72896C12.547 9.72896 13.2479 9.0283 13.2479 8.16335C13.2479 7.29897 12.547 6.59863 11.6828 6.59863ZM7.99993 7.51427C7.72161 7.51427 7.49605 7.7196 7.49605 7.97222V9.41339C7.49605 9.66624 7.72161 9.87135 7.99993 9.87135C8.27826 9.87135 8.50439 9.66624 8.50439 9.41339V7.97222C8.50439 7.7196 8.27827 7.51427 7.99993 7.51427Z" fill="white"/>
<path d="M4.46694 7.21729C3.89305 7.21729 3.42786 7.68274 3.42786 8.25646C3.42786 8.83019 3.89307 9.29516 4.46694 9.29516C5.04111 9.29516 5.50612 8.83018 5.50612 8.25646C5.50612 7.68274 5.04109 7.21729 4.46694 7.21729ZM11.5322 7.21729C10.9584 7.21729 10.4936 7.68274 10.4936 8.25646C10.4936 8.83019 10.9585 9.29516 11.5322 9.29516C12.1065 9.29516 12.5712 8.83018 12.5712 8.25646C12.5712 7.68274 12.1065 7.21729 11.5322 7.21729Z" fill="#414042"/>
</g>
<defs>
<clipPath id="clip0_348_3742">
<rect width="16" height="16" fill="white"/>
</clipPath>
</defs>
</svg>
