<svg width="16" height="16" viewBox="0 0 16 16" fill="none" xmlns="http://www.w3.org/2000/svg">
<g clip-path="url(#clip0_1_521)">
<mask id="mask0_1_521" style="mask-type:luminance" maskUnits="userSpaceOnUse" x="0" y="0" width="16" height="16">
<path d="M16 0H0V16H16V0Z" fill="white"/>
</mask>
<g mask="url(#mask0_1_521)">
<path d="M15.0211 10.6808C15.0211 10.6808 14.9977 10.5377 14.9841 10.539L12.3873 10.7896C12.1808 10.8095 12.0203 10.9743 12.0057 11.1813L11.9345 12.2038L9.9255 12.3472L9.78886 11.4204C9.75846 11.2144 9.57846 11.059 9.37006 11.059H6.62934C6.42106 11.059 6.24106 11.2144 6.21063 11.4204L6.07391 12.3472L4.06498 12.2038L3.99363 11.1813C3.97914 10.9742 3.81866 10.8094 3.61204 10.7895L1.014 10.539C1.00058 10.5377 0.990752 10.6809 0.977328 10.6809L0.973816 11.2429L3.17412 11.5977L3.24618 12.6294C3.26075 12.8382 3.42926 13.0071 3.63826 13.0221L6.40502 13.2195C6.41549 13.2202 6.42582 13.2206 6.43616 13.2206C6.64408 13.2206 6.82378 13.0652 6.85422 12.859L6.99481 11.9055H9.0047L9.14526 12.859C9.17566 13.0651 9.35558 13.2205 9.56374 13.2205C9.57398 13.2205 9.58414 13.2201 9.59414 13.2195L12.3613 13.0221C12.5702 13.0071 12.7388 12.8382 12.7533 12.6294L12.8253 11.5977L15.0247 11.2413L15.0211 10.6808Z" fill="white"/>
<path d="M6.37269 0.400039C5.6418 0.562526 4.91876 0.788688 4.24089 1.12988C4.25639 1.72842 4.29509 2.30193 4.37353 2.88448C4.11028 3.05314 3.83362 3.1979 3.58772 3.39531C3.33789 3.5875 3.0827 3.77145 2.8565 3.99623C2.40457 3.69731 1.9263 3.41639 1.43355 3.1684C0.9024 3.74006 0.405706 4.35706 0 5.04745C0.305234 5.54124 0.623906 6.00406 0.967984 6.44326H0.977552V10.6807C0.985304 10.6807 0.993112 10.6811 1.00079 10.6818L3.59854 10.9322C3.73462 10.9453 3.84125 11.0548 3.85071 11.1912L3.93084 12.3379L6.19684 12.4997L6.3529 11.4413C6.37314 11.304 6.4909 11.2024 6.6297 11.2024H9.3704C9.50912 11.2024 9.62688 11.304 9.64712 11.4413L9.8032 12.4997L12.0693 12.3379L12.1493 11.1912C12.1589 11.0548 12.2654 10.9454 12.4015 10.9322L14.9982 10.6818C15.0058 10.6811 15.0136 10.6807 15.0214 10.6807V10.3425L15.0225 10.3421V6.44325H15.032C15.3762 6.00402 15.6946 5.54118 16 5.04743C15.5944 4.35699 15.0975 3.73999 14.5663 3.16838C14.0738 3.41635 13.5952 3.69726 13.1433 3.99622C12.9172 3.77143 12.6625 3.5875 12.4123 3.3953C12.1665 3.19786 11.8894 3.0531 11.6266 2.88446C11.7049 2.30191 11.7436 1.72841 11.7592 1.12986C11.0813 0.788673 10.3583 0.562497 9.62704 0.400024C9.33504 0.890728 9.06808 1.42202 8.8356 1.94151C8.55984 1.89544 8.2828 1.87836 8.00544 1.87506C8.00352 1.87506 8.00168 1.87506 8.00008 1.87506C7.99834 1.87506 7.99649 1.87468 7.99476 1.87468C7.71686 1.87798 7.44005 1.89544 7.16426 1.94151C6.93188 1.42207 6.66509 0.890743 6.37269 0.400039ZM0.97312 11.2411C0.974192 11.4921 0.977392 11.7671 0.977392 11.8219C0.977392 14.2889 4.10692 15.4746 7.99502 15.4883H8.00456C11.8927 15.4747 15.0213 14.2889 15.0213 11.8219C15.0213 11.7661 15.0247 11.4923 15.0258 11.2411L12.6909 11.4663L12.6104 12.6191C12.6007 12.7581 12.4902 12.8687 12.3512 12.8787L9.58408 13.0761C9.57736 13.0766 9.57064 13.0768 9.56392 13.0768C9.4264 13.0768 9.30784 12.9759 9.28752 12.8378L9.12888 11.7617H6.87103L6.71237 12.8378C6.69105 12.9826 6.5616 13.0867 6.41577 13.0761L3.64864 12.8787C3.5097 12.8687 3.39919 12.7581 3.3895 12.6191L3.3091 11.4663L0.97312 11.2411Z" fill="#478CBF"/>
<path d="M4.31785 6.59863C3.45362 6.59863 2.75256 7.29897 2.75256 8.16336C2.75256 9.02832 3.45357 9.72896 4.31785 9.72896C5.18252 9.72896 5.88338 9.02832 5.88338 8.16336C5.88338 7.29897 5.18252 6.59863 4.31785 6.59863ZM11.6829 6.59863C10.8181 6.59863 10.1173 7.29897 10.1173 8.16336C10.1173 9.02832 10.8181 9.72896 11.6829 9.72896C12.5471 9.72896 13.248 9.02832 13.248 8.16336C13.248 7.29897 12.5471 6.59863 11.6829 6.59863ZM8.00003 7.51426C7.72172 7.51426 7.49616 7.7196 7.49616 7.97222V9.41336C7.49616 9.66624 7.72172 9.87136 8.00003 9.87136C8.27835 9.87136 8.50451 9.66624 8.50451 9.41336V7.97222C8.50451 7.7196 8.27835 7.51426 8.00003 7.51426Z" fill="white"/>
<path d="M4.467 7.21729C3.89311 7.21729 3.42792 7.68273 3.42792 8.25648C3.42792 8.83016 3.89313 9.2952 4.467 9.2952C5.04117 9.2952 5.50618 8.83016 5.50618 8.25648C5.50618 7.68274 5.04116 7.21729 4.467 7.21729ZM11.5322 7.21729C10.9585 7.21729 10.4936 7.68273 10.4936 8.25648C10.4936 8.83016 10.9585 9.2952 11.5322 9.2952C12.1065 9.2952 12.5713 8.83016 12.5713 8.25648C12.5713 7.68274 12.1065 7.21729 11.5322 7.21729Z" fill="#414042"/>
</g>
</g>
<defs>
<clipPath id="clip0_1_521">
<rect width="16" height="16" fill="white"/>
</clipPath>
</defs>
</svg>
