<svg width="16" height="16" viewBox="0 0 16 16" fill="none" xmlns="http://www.w3.org/2000/svg">
<g clip-path="url(#clip0_1_532)">
<path d="M12.2106 16L16 12.2106H12.2106V16Z" fill="#FF00FF"/>
<path opacity="0.6" d="M16 3.78949H12.2106V12.2106H16V3.78949Z" fill="#FF00FF"/>
<path opacity="0.6" d="M12.2105 12.2106H3.78943V16H12.2105V12.2106Z" fill="#FF00FF"/>
<path d="M0 12.2106V14.7368C0 15.4347 0.565263 16 1.26316 16H3.78947V12.2106H0Z" fill="#FF00FF"/>
<path d="M16 3.78947V1.26316C16 0.565263 15.4347 0 14.7369 0H12.2106V3.78947H16Z" fill="#FF00FF"/>
<path opacity="0.6" d="M12.2106 0H1.26316C0.565263 0 0 0.565263 0 1.26316V12.2106H3.78947V3.78947H12.2106V0Z" fill="#FF00FF"/>
<path d="M5.51682 10.3221C5.20208 10.1095 4.98419 9.79898 4.86523 9.38842L5.59576 9.08738C5.66208 9.34002 5.77787 9.53578 5.94313 9.67474C6.10734 9.8137 6.30735 9.8821 6.54103 9.8821C6.77998 9.8821 6.98523 9.80946 7.15681 9.66426C7.32839 9.51898 7.41471 9.3337 7.41471 9.10946C7.41471 8.88002 7.32418 8.69266 7.14313 8.54738C6.96207 8.4021 6.73471 8.32946 6.46313 8.32946H6.04103V7.60634H6.41997C6.65366 7.60634 6.8505 7.54318 7.0105 7.41686C7.1705 7.29054 7.2505 7.11791 7.2505 6.89791C7.2505 6.70213 7.17892 6.54634 7.03576 6.4295C6.8926 6.31265 6.71155 6.2537 6.49155 6.2537C6.27682 6.2537 6.10629 6.31054 5.97997 6.42528C5.85374 6.54032 5.75883 6.68558 5.70419 6.84738L4.98103 6.54634C5.07682 6.27476 5.2526 6.03475 5.5105 5.82738C5.76839 5.62002 6.09787 5.51581 6.49787 5.51581C6.79366 5.51581 7.05997 5.57265 7.29576 5.68738C7.53155 5.80213 7.71681 5.96107 7.8505 6.16318C7.98418 6.36634 8.05048 6.5937 8.05048 6.84634C8.05048 7.10423 7.98839 7.32213 7.86419 7.50107C7.73997 7.68002 7.58734 7.81686 7.40629 7.91265V7.95581C7.64007 8.05218 7.84315 8.2105 7.99366 8.4137C8.14632 8.61898 8.22312 8.86426 8.22312 9.15058C8.22312 9.43682 8.15048 9.69266 8.0052 9.91682C7.85997 10.1411 7.65892 10.3179 7.40419 10.4463C7.14839 10.5747 6.86103 10.64 6.54207 10.64C6.1726 10.6411 5.83155 10.5347 5.51682 10.3221ZM10.0042 6.69686L9.20208 7.27686L8.80104 6.66844L10.24 5.63054H10.7915V10.5263H10.0042V6.69686Z" fill="#FF00FF"/>
</g>
<defs>
<clipPath id="clip0_1_532">
<rect width="16" height="16" fill="white"/>
</clipPath>
</defs>
</svg>
