<svg width="16" height="16" viewBox="0 0 16 16" fill="none" xmlns="http://www.w3.org/2000/svg">
<g clip-path="url(#clip0_1406_3456)">
<path d="M1.25067 12.9781L1.95203 14.1896C2.09776 14.4446 2.30725 14.645 2.55319 14.7908L5.05804 10.4551H0.0483398C0.0483398 10.7375 0.121209 11.0198 0.266945 11.2748L1.25067 12.9781Z" fill="#FF00FF"/>
<path opacity="0.75" d="M8.00008 5.35422L5.49525 1.01855C5.24931 1.16429 5.03981 1.36467 4.89407 1.61972L0.266945 9.63523C0.121209 9.89027 0.0483398 10.1727 0.0483398 10.455H5.05804L8.00008 5.35422Z" fill="#FF00FF"/>
<path d="M7.99997 5.35431L10.5048 1.01866C10.2589 0.872913 9.97648 0.800049 9.68504 0.800049H6.31489C6.02341 0.800049 5.74105 0.882025 5.49512 1.01866L7.99997 5.35431Z" fill="#FF00FF"/>
<path opacity="0.75" d="M10.9422 10.4551H5.05805L2.55322 14.7908C2.79915 14.9364 3.08152 15.0093 3.373 15.0093H12.6272C12.9187 15.0093 13.2011 14.9273 13.4471 14.7908L10.9422 10.4551Z" fill="#FF00FF"/>
<path d="M13.4469 14.7908C13.6929 14.645 13.9023 14.4446 14.0481 14.1896L14.3395 13.6886L15.7331 11.2748C15.8789 11.0198 15.9517 10.7375 15.9517 10.4551H10.9512L13.4469 14.7908Z" fill="#FF00FF"/>
<path opacity="0.75" d="M13.4196 5.62748L11.106 1.61972C10.9602 1.36467 10.7508 1.16429 10.5048 1.01855L8 5.35422L10.9421 10.455H15.9426C15.9426 10.1727 15.8698 9.89027 15.724 9.63523L13.4196 5.62748Z" fill="#FF00FF"/>
</g>
<defs>
<clipPath id="clip0_1406_3456">
<rect width="16" height="16" fill="white"/>
</clipPath>
</defs>
</svg>
