<svg width="16" height="16" viewBox="0 0 16 16" fill="none" xmlns="http://www.w3.org/2000/svg">
<path fill-rule="evenodd" clip-rule="evenodd" d="M13.76 8.13637C13.76 7.71088 13.7218 7.30179 13.6509 6.90906H8V9.22997H11.2291C11.09 9.97997 10.6673 10.6154 10.0318 11.0408V12.5464H11.9709C13.1054 11.5018 13.76 9.96357 13.76 8.13637Z" fill="#4285F4"/>
<path fill-rule="evenodd" clip-rule="evenodd" d="M7.99988 14C9.61989 14 10.9781 13.4627 11.9708 12.5464L10.0317 11.0409C9.49445 11.4009 8.80717 11.6136 7.99988 11.6136C6.43715 11.6136 5.11442 10.5582 4.64261 9.14001H2.63806V10.6946C3.62533 12.6555 5.65442 14 7.99988 14Z" fill="#34A853"/>
<path fill-rule="evenodd" clip-rule="evenodd" d="M4.64273 9.14002C4.52273 8.78002 4.45454 8.39546 4.45454 8.00002C4.45454 7.60457 4.52273 7.22002 4.64273 6.86002V5.30548H2.63818C2.23182 6.11548 2 7.03184 2 8.00002C2 8.96818 2.23182 9.88458 2.63818 10.6946L4.64273 9.14002Z" fill="#FBBC05"/>
<path fill-rule="evenodd" clip-rule="evenodd" d="M7.99988 4.38636C8.88077 4.38636 9.67173 4.68909 10.2935 5.28364L12.0145 3.56273C10.9753 2.59454 9.61717 2 7.99988 2C5.65442 2 3.62533 3.34454 2.63806 5.30546L4.64261 6.86C5.11442 5.44182 6.43715 4.38636 7.99988 4.38636Z" fill="#EA4335"/>
</svg>
