<svg width="16" height="16" viewBox="0 0 16 16" fill="none" xmlns="http://www.w3.org/2000/svg">
<path fill-rule="evenodd" clip-rule="evenodd" d="M3.21843 0.642404L11.0802 5.10798L11.0887 5.09937L11.402 5.29082L14.1316 6.84226L14.1323 6.84266C14.5971 7.10463 14.9227 7.50818 14.9227 7.99697C14.9227 8.48523 14.5976 8.89011 14.1335 9.15483L11.4023 10.7072L11.0887 10.8988L11.0803 10.8903L3.21459 15.3648C2.80152 15.5949 2.34372 15.6731 1.95961 15.5218L1.92483 15.5566L1.77971 15.4302C1.70343 15.3816 1.63139 15.322 1.56473 15.2507L1.30096 14.9681L1.34812 14.921C1.24648 14.7038 1.20166 14.4521 1.20166 14.1889V1.8105C1.20166 1.54534 1.24702 1.29646 1.34472 1.08094L1.30156 1.03782L1.49572 0.828719C1.5172 0.800967 1.53993 0.774131 1.56393 0.748268L1.57839 0.732686L1.91916 0.435889L1.96368 0.480388C2.3459 0.330402 2.80305 0.405182 3.21843 0.642404ZM2.82152 1.337L10.4934 5.69474L8.83778 7.35034L2.81987 1.33606L2.82152 1.337ZM11.2665 6.13398L9.40146 7.99905L11.2665 9.86411L13.7371 8.45987C14.056 8.27795 14.1227 8.09499 14.1227 7.99697C14.1227 7.89967 14.0571 7.71846 13.7391 7.53928L13.7377 7.53853L11.2665 6.13398ZM8.26994 7.99919L2.00336 1.73891C2.00224 1.76183 2.00166 1.78568 2.00166 1.8105V14.1889C2.00166 14.2156 2.00234 14.2412 2.00361 14.2655L8.26994 7.99919ZM2.80365 14.6778L2.82382 14.6668L10.4936 10.3036L8.8357 8.64571L2.80365 14.6778Z" fill="#FF00FF"/>
</svg>
