<svg width="16" height="16" viewBox="0 0 16 16" fill="none" xmlns="http://www.w3.org/2000/svg">
<path fill-rule="evenodd" clip-rule="evenodd" d="M13.76 8.13637C13.76 7.71088 13.7218 7.30179 13.6509 6.90906H8V9.22997H11.2291C11.09 9.97997 10.6673 10.6154 10.0318 11.0408V12.5464H11.9709C13.1054 11.5018 13.76 9.96357 13.76 8.13637Z" fill="#4285F4"/>
<path fill-rule="evenodd" clip-rule="evenodd" d="M8 14C9.62002 14 10.9782 13.4627 11.9709 12.5464L10.0319 11.0409C9.49458 11.4009 8.8073 11.6136 8 11.6136C6.43727 11.6136 5.11454 10.5582 4.64273 9.14001H2.63818V10.6946C3.62546 12.6555 5.65454 14 8 14Z" fill="#34A853"/>
<path fill-rule="evenodd" clip-rule="evenodd" d="M4.64273 9.13996C4.52273 8.77996 4.45454 8.3954 4.45454 7.99996C4.45454 7.60451 4.52273 7.21996 4.64273 6.85996V5.30542H2.63818C2.23182 6.11542 2 7.03178 2 7.99996C2 8.96812 2.23182 9.88452 2.63818 10.6945L4.64273 9.13996Z" fill="#FBBC05"/>
<path fill-rule="evenodd" clip-rule="evenodd" d="M8 4.38636C8.8809 4.38636 9.67186 4.68909 10.2936 5.28364L12.0146 3.56273C10.9755 2.59454 9.6173 2 8 2C5.65454 2 3.62546 3.34454 2.63818 5.30546L4.64273 6.86C5.11454 5.44182 6.43727 4.38636 8 4.38636Z" fill="#EA4335"/>
</svg>
