<svg width="16" height="16" viewBox="0 0 16 16" fill="none" xmlns="http://www.w3.org/2000/svg">
<path fill-rule="evenodd" clip-rule="evenodd" d="M3.21831 0.642465L11.0801 5.10804L11.0886 5.09943L11.4019 5.29088L14.1315 6.84232L14.1322 6.84272C14.5969 7.10469 14.9226 7.50824 14.9226 7.99703C14.9226 8.48529 14.5975 8.89017 14.1334 9.15489L11.4022 10.7072L11.0886 10.8988L11.0802 10.8903L3.21447 15.3649C2.8014 15.595 2.34359 15.6731 1.95949 15.5219L1.92471 15.5567L1.77959 15.4303C1.70331 15.3817 1.63127 15.3221 1.56461 15.2507L1.30083 14.9682L1.348 14.9211C1.24636 14.7039 1.20154 14.4522 1.20154 14.189V1.81056C1.20154 1.5454 1.2469 1.29652 1.3446 1.081L1.30144 1.03788L1.4956 0.82878C1.51708 0.801028 1.53981 0.774192 1.56381 0.748329L1.57827 0.732747L1.91903 0.43595L1.96356 0.480449C2.34578 0.330463 2.80293 0.405243 3.21831 0.642465ZM2.82139 1.33706L10.4933 5.6948L8.83766 7.3504L2.81975 1.33612L2.82139 1.33706ZM11.2664 6.13404L9.40134 7.99911L11.2664 9.86417L13.737 8.45993C14.0559 8.27801 14.1226 8.09505 14.1226 7.99703C14.1226 7.89973 14.057 7.71852 13.7389 7.53934L13.7376 7.53859L11.2664 6.13404ZM8.26982 7.99925L2.00324 1.73897C2.00212 1.76189 2.00154 1.78574 2.00154 1.81056V14.189C2.00154 14.2157 2.00222 14.2412 2.00349 14.2655L8.26982 7.99925ZM2.80353 14.6779L2.8237 14.6668L10.4935 10.3037L8.83558 8.64577L2.80353 14.6779Z" fill="#FF00FF"/>
</svg>
