<svg width="16" height="16" viewBox="0 0 16 16" fill="none" xmlns="http://www.w3.org/2000/svg">
<path fill-rule="evenodd" clip-rule="evenodd" d="M3.52338 0.252234L11.8006 4.95382L11.8097 4.94476L12.1395 5.14632L15.0134 6.77976L15.0141 6.78018C15.5034 7.05601 15.8463 7.48089 15.8463 7.9955C15.8463 8.50961 15.504 8.93584 15.0154 9.21453L12.1398 10.8489L11.8097 11.0507L11.8008 11.0418L3.51934 15.7528C3.08444 15.995 2.60244 16.0773 2.19804 15.9181L2.16141 15.9547L2.00862 15.8216C1.92831 15.7705 1.85246 15.7077 1.78228 15.6326L1.50456 15.3351L1.55423 15.2855C1.44721 15.0568 1.40002 14.7918 1.40002 14.5147V1.48207C1.40002 1.2029 1.44778 0.940865 1.55065 0.713944L1.50521 0.668545L1.70963 0.448398C1.73224 0.419178 1.75617 0.390923 1.78144 0.363693L1.79666 0.347288L2.15544 0.0348038L2.20232 0.081655C2.60474 -0.0762577 3.08605 0.00247448 3.52338 0.252234ZM3.10549 0.983541L11.1828 5.5716L9.43973 7.3147L3.10376 0.982551L3.10549 0.983541ZM11.9968 6.03406L10.0332 7.99769L11.9968 9.96134L14.598 8.4829C14.9338 8.29131 15.004 8.09867 15.004 7.9955C15.004 7.89306 14.9349 7.70227 14.6 7.51363L14.5986 7.51283L11.9968 6.03406ZM8.84185 7.99785L2.2441 1.4067C2.24292 1.43082 2.24231 1.45594 2.24231 1.48207V14.5147C2.24231 14.5428 2.24302 14.5697 2.24436 14.5953L8.84185 7.99785ZM3.08668 15.0294L3.10792 15.0178L11.1831 10.4241L9.43757 8.67854L3.08668 15.0294Z" fill="#FF00FF"/>
</svg>
