<svg width="16" height="16" viewBox="0 0 16 16" fill="none" xmlns="http://www.w3.org/2000/svg">
<g clip-path="url(#clip0_348_3797)">
<path d="M1.25055 12.9779L1.95191 14.1893C2.09764 14.4444 2.30713 14.6448 2.55306 14.7905L5.05792 10.4548H0.0482178C0.0482178 10.7372 0.121087 11.0196 0.266822 11.2746L1.25055 12.9779Z" fill="#FF00FF"/>
<path d="M7.99995 5.35407L10.5048 1.01841C10.2589 0.872672 9.97649 0.799805 9.68503 0.799805H6.31487C6.02339 0.799805 5.74103 0.881781 5.49509 1.01841L7.99995 5.35407Z" fill="#FF00FF"/>
<path d="M13.4469 14.7905C13.6928 14.6448 13.9023 14.4444 14.048 14.1893L14.3395 13.6884L15.7331 11.2746C15.8789 11.0196 15.9517 10.7372 15.9517 10.4548H10.9511L13.4469 14.7905Z" fill="#FF00FF"/>
<g opacity="0.75">
<path d="M7.99996 5.35421L5.49513 1.01855C5.24919 1.16429 5.03968 1.36467 4.89395 1.61972L0.266822 9.63522C0.121087 9.89027 0.0482178 10.1726 0.0482178 10.455H5.05792L7.99996 5.35421Z" fill="#FF00FF"/>
<path d="M10.942 10.455L5.05792 10.455L2.5531 14.7906C2.79904 14.9364 3.0814 15.0092 3.37288 15.0092H12.6271C12.9186 15.0092 13.201 14.9273 13.4469 14.7906L10.942 10.455Z" fill="#FF00FF"/>
<path d="M13.4195 5.62748L11.106 1.61972C10.9603 1.36467 10.7507 1.16429 10.5048 1.01855L7.99996 5.35421L10.942 10.455L15.9426 10.455C15.9426 10.1726 15.8697 9.89027 15.724 9.63522L13.4195 5.62748Z" fill="#FF00FF"/>
</g>
</g>
<defs>
<clipPath id="clip0_348_3797">
<rect width="16" height="16" fill="white"/>
</clipPath>
</defs>
</svg>
