<svg width="16" height="16" viewBox="0 0 16 16" fill="none" xmlns="http://www.w3.org/2000/svg">
<g clip-path="url(#clip0_1406_3459)">
<path d="M12.2106 3.78943H3.78955V12.2105H12.2106V3.78943Z" fill="white"/>
<path d="M12.2104 16L15.9999 12.2106H12.2104V16Z" fill="#EA4335"/>
<path d="M15.9999 3.78943H12.2104V12.2105H15.9999V3.78943Z" fill="#FBBC04"/>
<path d="M12.2106 12.2106H3.78955V16H12.2106V12.2106Z" fill="#34A853"/>
<path d="M0 12.2106V14.7368C0 15.4347 0.565263 16 1.26316 16H3.78947V12.2106H0Z" fill="#188038"/>
<path d="M15.9999 3.78947V1.26316C15.9999 0.565263 15.4346 0 14.7368 0H12.2104V3.78947H15.9999Z" fill="#1967D2"/>
<path d="M12.2106 0H1.26316C0.565263 0 0 0.565263 0 1.26316V12.2106H3.78947V3.78947H12.2106V0Z" fill="#4285F4"/>
<path d="M5.51682 10.322C5.20208 10.1094 4.98419 9.79892 4.86523 9.38836L5.59576 9.08732C5.66208 9.33996 5.77787 9.53572 5.94313 9.67468C6.10734 9.81364 6.30735 9.88204 6.54103 9.88204C6.77998 9.88204 6.98523 9.8094 7.15681 9.6642C7.32839 9.51892 7.41471 9.33364 7.41471 9.1094C7.41471 8.87996 7.32418 8.6926 7.14313 8.54732C6.96207 8.40204 6.73471 8.3294 6.46313 8.3294H6.04103V7.60627H6.41997C6.65366 7.60627 6.8505 7.54312 7.0105 7.4168C7.1705 7.29048 7.2505 7.11785 7.2505 6.89785C7.2505 6.70207 7.17892 6.54628 7.03576 6.42944C6.8926 6.31259 6.71155 6.25364 6.49155 6.25364C6.27682 6.25364 6.10629 6.31048 5.97997 6.42522C5.85374 6.54026 5.75883 6.68552 5.70419 6.84732L4.98103 6.54628C5.07682 6.2747 5.2526 6.03469 5.5105 5.82732C5.76839 5.61996 6.09787 5.51575 6.49787 5.51575C6.79366 5.51575 7.05997 5.57259 7.29576 5.68732C7.53155 5.80207 7.71681 5.96101 7.8505 6.16311C7.98418 6.36627 8.05048 6.59364 8.05048 6.84627C8.05048 7.10417 7.98839 7.32207 7.86419 7.50101C7.73997 7.67996 7.58734 7.8168 7.40629 7.91259V7.95575C7.64007 8.05212 7.84315 8.21044 7.99366 8.41364C8.14632 8.61892 8.22312 8.8642 8.22312 9.15052C8.22312 9.43676 8.15048 9.6926 8.0052 9.91676C7.85997 10.141 7.65892 10.3179 7.40419 10.4463C7.14839 10.5747 6.86103 10.64 6.54207 10.64C6.1726 10.641 5.83155 10.5347 5.51682 10.322ZM10.0042 6.6968L9.20208 7.2768L8.80104 6.66838L10.24 5.63048H10.7915V10.5263H10.0042V6.6968Z" fill="#4285F4"/>
</g>
<defs>
<clipPath id="clip0_1406_3459">
<rect width="16" height="16" fill="white"/>
</clipPath>
</defs>
</svg>
