<svg width="16" height="16" viewBox="0 0 16 16" fill="none" xmlns="http://www.w3.org/2000/svg">
<g clip-path="url(#clip0_348_3865)">
<path d="M8.17594 7.65039L1.4437 14.6886C1.66227 15.4318 2.36173 16.0001 3.19233 16.0001C3.54206 16.0001 3.84807 15.9127 4.11036 15.7378L11.7169 11.41L8.17594 7.65039Z" fill="#EA4335"/>
<path d="M14.9957 6.42617L11.717 4.54639L8.04483 7.78136L11.7607 11.4098L15.0394 9.57371C15.6077 9.2677 16.0011 8.65568 16.0011 7.99994C15.9574 7.3442 15.564 6.73218 14.9957 6.42617Z" fill="#FBBC04"/>
<path d="M1.44371 1.31152C1.39999 1.44267 1.39999 1.61753 1.39999 1.7924V14.2514C1.39999 14.4263 1.39999 14.5574 1.44371 14.7323L8.43825 7.8689L1.44371 1.31152Z" fill="#4285F4"/>
<path d="M8.21965 8L11.7169 4.54645L4.15408 0.262295C3.89178 0.0874317 3.54206 0 3.19233 0C2.36173 0 1.61856 0.568306 1.4437 1.31148L8.21965 8Z" fill="#34A853"/>
</g>
<defs>
<clipPath id="clip0_348_3865">
<rect width="16" height="16" fill="white"/>
</clipPath>
</defs>
</svg>
