<svg width="16" height="16" viewBox="0 0 16 16" fill="none" xmlns="http://www.w3.org/2000/svg">
<path fill-rule="evenodd" clip-rule="evenodd" d="M14.72 8.15887C14.72 7.6625 14.6754 7.18523 14.5927 6.72705H8V9.43478H11.7673C11.605 10.3098 11.1118 11.0511 10.3705 11.5475V13.3039H12.6327C13.9564 12.0852 14.72 10.2907 14.72 8.15887Z" fill="#4285F4"/>
<path fill-rule="evenodd" clip-rule="evenodd" d="M7.99995 15.0001C9.88995 15.0001 11.4745 14.3733 12.6327 13.3042L10.3704 11.5478C9.74359 11.9678 8.94177 12.216 7.99995 12.216C6.17677 12.216 4.63359 10.9846 4.08314 9.33008H1.74451V11.1437C2.89632 13.4314 5.26359 15.0001 7.99995 15.0001Z" fill="#34A853"/>
<path fill-rule="evenodd" clip-rule="evenodd" d="M4.08318 9.33008C3.94318 8.91008 3.86363 8.46144 3.86363 8.00008C3.86363 7.53871 3.94318 7.09008 4.08318 6.67008V4.85645H1.74454C1.27045 5.80144 1 6.87053 1 8.00008C1 9.12962 1.27045 10.1987 1.74454 11.1437L4.08318 9.33008Z" fill="#FBBC05"/>
<path fill-rule="evenodd" clip-rule="evenodd" d="M7.99995 3.78409C9.02768 3.78409 9.95041 4.13727 10.6759 4.8309L12.6836 2.82318C11.4713 1.69364 9.88677 1 7.99995 1C5.26359 1 2.89632 2.56863 1.74451 4.85636L4.08314 6.66999C4.63359 5.01545 6.17677 3.78409 7.99995 3.78409Z" fill="#EA4335"/>
</svg>
