<svg width="16" height="16" viewBox="0 0 16 16" fill="none" xmlns="http://www.w3.org/2000/svg">
<g clip-path="url(#clip0_348_3867)">
<path d="M12.2105 3.78955H3.78947V12.2106H12.2105V3.78955Z" fill="white"/>
<path d="M12.2105 15.9999L16 12.2104H12.2105V15.9999Z" fill="#EA4335"/>
<path d="M16 3.78955H12.2105V12.2106H16V3.78955Z" fill="#FBBC04"/>
<path d="M12.2105 12.2104H3.78947V15.9999H12.2105V12.2104Z" fill="#34A853"/>
<path d="M0 12.2104V14.7368C0 15.4347 0.565263 15.9999 1.26316 15.9999H3.78947V12.2104H0Z" fill="#188038"/>
<path d="M16 3.78947V1.26316C16 0.565263 15.4347 0 14.7368 0H12.2105V3.78947H16Z" fill="#1967D2"/>
<path d="M12.2105 0H1.26316C0.565263 0 0 0.565263 0 1.26316V12.2105H3.78947V3.78947H12.2105V0Z" fill="#4285F4"/>
<path d="M5.51685 10.3219C5.20211 10.1093 4.98422 9.79879 4.86527 9.38826L5.5958 9.08721C5.66211 9.33984 5.7779 9.53563 5.94317 9.67457C6.10738 9.81352 6.30738 9.88194 6.54106 9.88194C6.78001 9.88194 6.98527 9.80931 7.15685 9.66405C7.32843 9.51878 7.41475 9.33352 7.41475 9.10931C7.41475 8.87984 7.32422 8.69247 7.14317 8.54721C6.96211 8.40194 6.73475 8.32931 6.46317 8.32931H6.04106V7.60615H6.42001C6.65369 7.60615 6.85054 7.543 7.01054 7.41668C7.17054 7.29036 7.25054 7.11773 7.25054 6.89773C7.25054 6.70194 7.17896 6.54615 7.0358 6.42931C6.89264 6.31247 6.71159 6.25352 6.49159 6.25352C6.27685 6.25352 6.10632 6.31036 5.98001 6.4251C5.85378 6.54014 5.75887 6.6854 5.70422 6.84721L4.98106 6.54615C5.07685 6.27457 5.25264 6.03457 5.51054 5.8272C5.76843 5.61984 6.0979 5.51562 6.4979 5.51562C6.79369 5.51562 7.06001 5.57247 7.2958 5.6872C7.53159 5.80194 7.71685 5.96089 7.85053 6.16299C7.98422 6.36615 8.05054 6.59352 8.05054 6.84615C8.05054 7.10405 7.98843 7.32194 7.86422 7.50089C7.74001 7.67984 7.58738 7.81668 7.40632 7.91247V7.95563C7.64011 8.05201 7.84318 8.21032 7.99369 8.41352C8.14632 8.61878 8.22317 8.86405 8.22317 9.15036C8.22317 9.43668 8.15053 9.69247 8.00527 9.91668C7.86001 10.1409 7.65896 10.3177 7.40422 10.4462C7.14843 10.5746 6.86106 10.6398 6.54211 10.6398C6.17264 10.6409 5.83159 10.5346 5.51685 10.3219ZM10.0042 6.69668L9.20212 7.27668L8.80106 6.66826L10.24 5.63036H10.7916V10.5262H10.0042V6.69668Z" fill="#4285F4"/>
</g>
<defs>
<clipPath id="clip0_348_3867">
<rect width="16" height="16" fill="white"/>
</clipPath>
</defs>
</svg>
