<svg width="16" height="16" viewBox="0 0 16 16" fill="none" xmlns="http://www.w3.org/2000/svg">
<g clip-path="url(#clip0_1_584)">
<path d="M1.25055 12.9781L1.9519 14.1895C2.09764 14.4445 2.30713 14.6449 2.55306 14.7907L5.05792 10.455H0.0482178C0.0482178 10.7374 0.121087 11.0197 0.266823 11.2748L1.25055 12.9781Z" fill="#FF00FF"/>
<path opacity="0.75" d="M7.99996 5.35428L5.49513 1.01862C5.24919 1.16435 5.03969 1.36474 4.89395 1.61978L0.266823 9.6353C0.121087 9.89034 0.0482178 10.1727 0.0482178 10.4551H5.05792L7.99996 5.35428Z" fill="#FF00FF"/>
<path d="M7.99997 5.35425L10.5048 1.0186C10.2589 0.872852 9.97648 0.799988 9.68504 0.799988H6.31489C6.02341 0.799988 5.74105 0.881964 5.49512 1.0186L7.99997 5.35425Z" fill="#FF00FF"/>
<path opacity="0.75" d="M10.9421 10.455H5.05793L2.5531 14.7907C2.79903 14.9364 3.0814 15.0093 3.37288 15.0093H12.6271C12.9186 15.0093 13.2009 14.9273 13.4469 14.7907L10.9421 10.455Z" fill="#FF00FF"/>
<path d="M13.4469 14.7907C13.6929 14.6449 13.9023 14.4445 14.0481 14.1895L14.3395 13.6885L15.7331 11.2748C15.8789 11.0197 15.9517 10.7374 15.9517 10.455H10.9512L13.4469 14.7907Z" fill="#FF00FF"/>
<path opacity="0.75" d="M13.4196 5.62754L11.106 1.61978C10.9602 1.36474 10.7508 1.16435 10.5048 1.01862L8 5.35428L10.9421 10.4551H15.9426C15.9426 10.1727 15.8698 9.89034 15.724 9.6353L13.4196 5.62754Z" fill="#FF00FF"/>
</g>
<defs>
<clipPath id="clip0_1_584">
<rect width="16" height="16" fill="white"/>
</clipPath>
</defs>
</svg>
