<svg width="16" height="16" viewBox="0 0 16 16" fill="none" xmlns="http://www.w3.org/2000/svg">
<g clip-path="url(#clip0_348_3817)">
<path fill-rule="evenodd" clip-rule="evenodd" d="M7.6027 2.796C7.72877 2.8324 7.86208 2.8519 8 2.8519C8.13831 2.8519 8.27197 2.83229 8.39836 2.7957L12.7044 10.2538C12.6081 10.3457 12.5231 10.4528 12.4534 10.5741C12.3841 10.6946 12.3343 10.8211 12.3031 10.95H3.69684C3.6656 10.8212 3.61579 10.6947 3.54644 10.5741C3.47645 10.4536 3.39168 10.3471 3.29578 10.2556L7.6027 2.796ZM6.9742 2.41721C6.98749 2.43097 7.00105 2.44445 7.01488 2.45766L2.70778 9.91757C2.68917 9.91217 2.67046 9.90714 2.65165 9.9025V6.09681C3.01457 6.00659 3.34159 5.7751 3.54233 5.4259C3.7428 5.07715 3.77997 4.67931 3.6773 4.32074L6.9742 2.41721ZM9.36705 1.83351C9.40537 1.70441 9.42594 1.56762 9.42594 1.42595C9.42594 0.637387 8.78856 0 8 0C7.21144 0 6.57406 0.637387 6.57406 1.42595C6.57406 1.56686 6.59441 1.70295 6.63235 1.83143L3.34147 3.73147C3.24916 3.63399 3.14145 3.54788 3.01934 3.47696C2.33701 3.08472 1.46264 3.31761 1.07041 3.99995C0.678168 4.68228 0.91106 5.55665 1.59339 5.94888C1.71522 6.01892 1.84317 6.06902 1.9734 6.1002V9.90067C1.84467 9.93191 1.71815 9.98172 1.59751 10.0511C0.915174 10.4474 0.682283 11.3177 1.07452 12C1.46676 12.6823 2.33704 12.9152 3.02346 12.523C3.14424 12.4528 3.25094 12.3678 3.34258 12.2716L6.63172 14.1707C6.59419 14.2985 6.57406 14.4339 6.57406 14.5741C6.57406 15.3626 7.21144 16 8 16C8.78856 16 9.42594 15.3585 9.42594 14.5741C9.42594 14.417 9.40065 14.2659 9.35392 14.1247L12.6237 12.2368C12.7226 12.3477 12.8406 12.4449 12.9764 12.523C13.6587 12.9152 14.5331 12.6823 14.9253 12C15.3217 11.3177 15.0888 10.4474 14.4023 10.0511C14.2818 9.98179 14.1553 9.93202 14.0265 9.90077V6.10017C14.1567 6.069 14.2847 6.0189 14.4065 5.94888C15.0888 5.55256 15.3217 4.68228 14.9294 3.99995C14.5331 3.31761 13.6628 3.08472 12.9805 3.47696C12.8578 3.54825 12.7496 3.63488 12.6569 3.73298L9.36705 1.83351ZM8.98591 2.45691C8.99895 2.44444 9.01174 2.43173 9.0243 2.41878L12.322 4.32274C12.22 4.68079 12.2574 5.0778 12.4575 5.4259C12.6583 5.77513 12.9853 6.00663 13.3483 6.09683V9.90211C13.3298 9.90665 13.3114 9.91156 13.293 9.91684L8.98591 2.45691ZM12.3308 11.7218L9.05455 13.6134C8.79391 13.3274 8.41822 13.1481 8 13.1481C7.59612 13.1481 7.2319 13.3153 6.97266 13.5844L3.6802 11.6834C3.68551 11.6651 3.69044 11.6467 3.69501 11.6282H12.3045C12.3122 11.6597 12.321 11.6909 12.3308 11.7218Z" fill="#FF00FF"/>
</g>
<defs>
<clipPath id="clip0_348_3817">
<rect width="16" height="16" fill="white"/>
</clipPath>
</defs>
</svg>
