<svg width="16" height="16" viewBox="0 0 16 16" fill="none" xmlns="http://www.w3.org/2000/svg">
<g clip-path="url(#clip0_1_608)">
<mask id="mask0_1_608" style="mask-type:luminance" maskUnits="userSpaceOnUse" x="0" y="0" width="16" height="16">
<path d="M16 0H0V16H16V0Z" fill="white"/>
</mask>
<g mask="url(#mask0_1_608)">
<path fill-rule="evenodd" clip-rule="evenodd" d="M7.60282 2.796C7.7289 2.8324 7.8622 2.8519 8.00013 2.8519C8.13845 2.8519 8.27213 2.83229 8.39845 2.7957L12.7045 10.2538C12.6082 10.3457 12.5232 10.4528 12.4536 10.5741C12.3842 10.6946 12.3344 10.8211 12.3032 10.9499H3.69696C3.66572 10.8212 3.61591 10.6947 3.54656 10.5741C3.47658 10.4536 3.39181 10.3471 3.2959 10.2556L7.60282 2.796ZM6.97432 2.41722C6.98761 2.43097 7.00118 2.44445 7.01501 2.45766L2.7079 9.9176C2.68929 9.91216 2.67058 9.90712 2.65177 9.90248V6.09681C3.0147 6.00659 3.34171 5.7751 3.54245 5.4259C3.74293 5.07715 3.7801 4.6793 3.67742 4.32074L6.97432 2.41722ZM9.36717 1.83351C9.40549 1.70442 9.42605 1.56762 9.42605 1.42595C9.42605 0.637387 8.78869 0 8.00013 0C7.21157 0 6.57418 0.637387 6.57418 1.42595C6.57418 1.56686 6.59454 1.70294 6.63246 1.83143L3.34159 3.73147C3.24928 3.63398 3.14157 3.54788 3.01946 3.47696C2.33713 3.08472 1.46277 3.31762 1.07053 3.99994C0.67829 4.68228 0.911184 5.55665 1.59351 5.94889C1.71534 6.01892 1.84329 6.06902 1.97353 6.1002V9.90064C1.84479 9.93192 1.71827 9.98168 1.59762 10.051C0.915296 10.4474 0.682404 11.3177 1.07464 12C1.46688 12.6823 2.33716 12.9152 3.02358 12.523C3.14436 12.4528 3.25106 12.3678 3.3427 12.2717L6.63184 14.1707C6.59431 14.2986 6.57418 14.4339 6.57418 14.5741C6.57418 15.3626 7.21157 16 8.00013 16C8.78869 16 9.42605 15.3586 9.42605 14.5741C9.42605 14.417 9.40077 14.2659 9.35405 14.1246L12.6239 12.2368C12.7227 12.3478 12.8407 12.4449 12.9765 12.523C13.6588 12.9152 14.5332 12.6823 14.9255 12C15.3218 11.3177 15.0888 10.4474 14.4024 10.051C14.282 9.98176 14.1555 9.932 14.0267 9.9008V6.10018C14.1568 6.069 14.2848 6.0189 14.4066 5.94889C15.0889 5.55256 15.3218 4.68228 14.9296 3.99994C14.5332 3.31762 13.6629 3.08472 12.9806 3.47696C12.8579 3.54825 12.7497 3.63487 12.6571 3.73298L9.36717 1.83351ZM8.98605 2.4569C8.99909 2.44444 9.01189 2.43173 9.02445 2.41878L12.3221 4.32274C12.2201 4.68079 12.2576 5.0778 12.4576 5.4259C12.6584 5.77514 12.9855 6.00663 13.3484 6.09683V9.90208C13.3299 9.90664 13.3115 9.9116 13.2932 9.9168L8.98605 2.4569ZM12.3309 11.7218L9.05469 13.6134C8.79405 13.3274 8.41837 13.1481 8.00013 13.1481C7.59625 13.1481 7.23202 13.3153 6.97278 13.5844L3.68033 11.6834C3.68562 11.6651 3.69057 11.6467 3.69514 11.6282H12.3046C12.3123 11.6597 12.3211 11.6909 12.3309 11.7218Z" fill="#FF00FF"/>
</g>
</g>
<defs>
<clipPath id="clip0_1_608">
<rect width="16" height="16" fill="white"/>
</clipPath>
</defs>
</svg>
