<svg width="16" height="16" viewBox="0 0 16 16" fill="none" xmlns="http://www.w3.org/2000/svg">
<g clip-path="url(#clip0_348_3896)">
<path d="M9.05309 8.07719L10.5711 10.6845C10.602 10.7367 10.602 10.8015 10.5711 10.8519C10.542 10.9041 10.4856 10.9365 10.4238 10.9365H9.18947C9.12947 10.9365 9.07307 10.9041 9.04217 10.8519L8.23139 9.46007L7.32785 10.8573C7.29695 10.9059 7.24241 10.9347 7.18427 10.9347H5.93171C5.86807 10.9347 5.80989 10.9005 5.7808 10.8465C5.75171 10.7925 5.75353 10.7259 5.78807 10.6737L7.45877 8.14919L6.21347 6.07667C6.18257 6.02447 6.18077 5.95964 6.21167 5.90742C6.24257 5.8534 6.29891 5.82099 6.36071 5.82099H7.60421C7.66421 5.82099 7.72055 5.8516 7.75145 5.90382L9.05309 8.07719Z" fill="#FF00FF"/>
<path fill-rule="evenodd" clip-rule="evenodd" d="M14.88 0.0932177C15.7817 1.15019 16.0616 4.01319 15.5962 5.44829C15.4417 5.92545 15.3981 6.42965 15.4871 6.91943C15.578 7.40555 15.6689 7.99259 15.6689 8.40131C15.6689 12.5968 12.2348 16 7.9972 16C3.76141 16 0.325495 12.5986 0.325495 8.40131C0.325495 7.99259 0.416392 7.40555 0.507292 6.91943C0.598186 6.42965 0.556372 5.92545 0.401849 5.44829C-0.0635448 4.01499 0.216419 1.15199 1.11812 0.0932177C1.23629 -0.0436303 1.45626 -0.025624 1.55442 0.12743L2.66519 1.85423C2.94151 2.19815 3.436 2.27918 3.80686 2.0379C5.01215 1.25642 6.45197 0.802667 7.99906 0.802667C9.5461 0.802667 10.9859 1.25642 12.1912 2.0379C12.5639 2.27918 13.0584 2.19995 13.3329 1.85423L14.4437 0.12743C14.5418 -0.025624 14.7618 -0.0454309 14.88 0.0932177ZM2.058 8.41931C2.058 11.664 4.72129 14.3038 7.9972 14.3038C11.2731 14.3038 13.9383 11.664 13.9401 8.42111C13.9401 8.31671 13.9364 8.21045 13.931 8.10599C13.8128 5.89665 12.4566 4.00598 10.5387 3.10567C9.76792 2.74014 8.908 2.53847 7.99906 2.53847C7.09007 2.53847 6.22835 2.74014 5.45937 3.10387C3.54144 4.00419 2.18525 5.89304 2.06709 8.10419C2.06163 8.20865 2.058 8.31311 2.058 8.41931Z" fill="#FF00FF"/>
</g>
<defs>
<clipPath id="clip0_348_3896">
<rect width="16" height="16" fill="white"/>
</clipPath>
</defs>
</svg>
