<svg width="16" height="16" viewBox="0 0 16 16" fill="none" xmlns="http://www.w3.org/2000/svg">
<g clip-path="url(#clip0_348_3883)">
<path d="M9.05315 8.07719L10.5711 10.6845C10.602 10.7367 10.602 10.8015 10.5711 10.8519C10.542 10.9041 10.4857 10.9365 10.4239 10.9365H9.18953C9.12953 10.9365 9.07313 10.9041 9.04223 10.8519L8.23145 9.46007L7.32791 10.8573C7.29701 10.9059 7.24247 10.9347 7.18433 10.9347H5.93177C5.86813 10.9347 5.80995 10.9005 5.78086 10.8465C5.75177 10.7925 5.75359 10.7259 5.78813 10.6737L7.45883 8.14919L6.21353 6.07667C6.18263 6.02447 6.18083 5.95964 6.21173 5.90742C6.24263 5.8534 6.29897 5.82099 6.36077 5.82099H7.60427C7.66427 5.82099 7.72061 5.8516 7.75151 5.90382L9.05315 8.07719Z" fill="#1EB4D4"/>
<path fill-rule="evenodd" clip-rule="evenodd" d="M14.88 0.0932177C15.7817 1.15019 16.0617 4.01319 15.5963 5.44829C15.4418 5.92545 15.3981 6.42965 15.4872 6.91943C15.5781 7.40555 15.669 7.99259 15.669 8.40131C15.669 12.5968 12.2349 16 7.99726 16C3.76147 16 0.325556 12.5986 0.325556 8.40131C0.325556 7.99259 0.416453 7.40555 0.507353 6.91943C0.598247 6.42965 0.556433 5.92545 0.40191 5.44829C-0.0634837 4.01499 0.21648 1.15199 1.11818 0.0932177C1.23635 -0.0436303 1.45632 -0.025624 1.55448 0.12743L2.66525 1.85423C2.94157 2.19815 3.43606 2.27918 3.80692 2.0379C5.01221 1.25642 6.45203 0.802667 7.99913 0.802667C9.54616 0.802667 10.986 1.25642 12.1913 2.0379C12.564 2.27918 13.0584 2.19995 13.3329 1.85423L14.4437 0.12743C14.5419 -0.025624 14.7618 -0.0454309 14.88 0.0932177ZM2.05806 8.41931C2.05806 11.664 4.72135 14.3038 7.99726 14.3038C11.2732 14.3038 13.9383 11.664 13.9401 8.42111C13.9401 8.31671 13.9365 8.21045 13.931 8.10599C13.8129 5.89665 12.4567 4.00598 10.5387 3.10567C9.76798 2.74014 8.90806 2.53847 7.99913 2.53847C7.09013 2.53847 6.22841 2.74014 5.45943 3.10387C3.5415 4.00419 2.18531 5.89304 2.06715 8.10419C2.06169 8.20865 2.05806 8.31311 2.05806 8.41931Z" fill="#1EB4D4"/>
</g>
<defs>
<clipPath id="clip0_348_3883">
<rect width="16" height="16" fill="white"/>
</clipPath>
</defs>
</svg>
