<svg width="16" height="16" viewBox="0 0 16 16" fill="none" xmlns="http://www.w3.org/2000/svg">
<g clip-path="url(#clip0_1406_3450)">
<path fill-rule="evenodd" clip-rule="evenodd" d="M14.8802 0.0932176C15.7819 1.15018 16.0618 4.01319 15.5964 5.44829C15.4419 5.92546 15.3983 6.42965 15.4873 6.91943C15.5782 7.40555 15.6691 7.99259 15.6691 8.40128C15.6691 12.5968 12.235 16 7.99739 16C3.76159 16 0.325678 12.5986 0.325678 8.40128C0.325678 7.99259 0.416575 7.40555 0.507475 6.91943C0.59837 6.42965 0.556555 5.92546 0.402032 5.44829C-0.0633616 4.01499 0.216602 1.15198 1.1183 0.0932176C1.23647 -0.0436303 1.45644 -0.0256239 1.55461 0.12743L2.66537 1.85423C2.9417 2.19815 3.43618 2.27918 3.80704 2.0379C5.01234 1.25642 6.45215 0.802664 7.99925 0.802664C9.54626 0.802664 10.9861 1.25642 12.1914 2.0379C12.5641 2.27918 13.0586 2.19995 13.3331 1.85423L14.4439 0.12743C14.542 -0.0256239 14.7619 -0.0454309 14.8802 0.0932176ZM2.05818 8.41928C2.05818 11.6641 4.72147 14.3038 7.99739 14.3038C11.2733 14.3038 13.9385 11.6641 13.9403 8.42112C13.9403 8.31672 13.9366 8.21048 13.9311 8.106C13.813 5.89665 12.4568 4.00598 10.5389 3.10566C9.7681 2.74014 8.90818 2.53847 7.99925 2.53847C7.09025 2.53847 6.22853 2.74014 5.45955 3.10387C3.54162 4.00418 2.18543 5.89304 2.06727 8.10416C2.06182 8.20864 2.05818 8.31312 2.05818 8.41928ZM9.0533 8.0772L10.5713 10.6845C10.6022 10.7367 10.6022 10.8015 10.5713 10.8519C10.5422 10.9042 10.4859 10.9366 10.424 10.9366H9.18962C9.12962 10.9366 9.07322 10.9042 9.04234 10.8519L8.23154 9.46008L7.32803 10.8574C7.29714 10.9059 7.24259 10.9347 7.18446 10.9347H5.9319C5.86825 10.9347 5.81007 10.9006 5.78099 10.8466C5.7519 10.7926 5.75371 10.7259 5.78826 10.6737L7.45895 8.1492L6.21366 6.07667C6.18275 6.02447 6.18095 5.95964 6.21186 5.90742C6.24275 5.8534 6.2991 5.82099 6.3609 5.82099H7.60439C7.66439 5.82099 7.72074 5.8516 7.75163 5.90382L9.0533 8.0772Z" fill="#FF00FF"/>
</g>
<defs>
<clipPath id="clip0_1406_3450">
<rect width="16" height="16" fill="white"/>
</clipPath>
</defs>
</svg>
