<svg width="16" height="16" viewBox="0 0 16 16" fill="none" xmlns="http://www.w3.org/2000/svg">
<g clip-path="url(#clip0_1_622)">
<path fill-rule="evenodd" clip-rule="evenodd" d="M14.8801 0.0932176C15.7818 1.15018 16.0617 4.01319 15.5963 5.44829C15.4418 5.92546 15.3982 6.42965 15.4872 6.91943C15.5781 7.40555 15.669 7.99259 15.669 8.40128C15.669 12.5968 12.2349 16 7.99729 16C3.76149 16 0.325579 12.5986 0.325579 8.40128C0.325579 7.99259 0.416476 7.40555 0.507376 6.91943C0.598271 6.42965 0.556456 5.92546 0.401933 5.44829C-0.0634608 4.01499 0.216503 1.15198 1.1182 0.0932176C1.23637 -0.0436303 1.45634 -0.0256239 1.55451 0.12743L2.66527 1.85423C2.9416 2.19815 3.43608 2.27918 3.80694 2.0379C5.01224 1.25642 6.45205 0.802664 7.99915 0.802664C9.54616 0.802664 10.986 1.25642 12.1913 2.0379C12.564 2.27918 13.0585 2.19995 13.333 1.85423L14.4438 0.12743C14.5419 -0.0256239 14.7618 -0.0454309 14.8801 0.0932176ZM2.05808 8.41928C2.05808 11.6641 4.72137 14.3038 7.99729 14.3038C11.2732 14.3038 13.9384 11.6641 13.9402 8.42112C13.9402 8.31672 13.9365 8.21048 13.931 8.106C13.8129 5.89665 12.4567 4.00598 10.5388 3.10566C9.768 2.74014 8.90808 2.53847 7.99915 2.53847C7.09015 2.53847 6.22843 2.74014 5.45945 3.10387C3.54152 4.00418 2.18533 5.89304 2.06717 8.10416C2.06172 8.20864 2.05808 8.31312 2.05808 8.41928ZM9.0532 8.0772L10.5712 10.6845C10.6021 10.7367 10.6021 10.8015 10.5712 10.8519C10.5421 10.9042 10.4858 10.9366 10.4239 10.9366H9.18952C9.12952 10.9366 9.07312 10.9042 9.04224 10.8519L8.23144 9.46008L7.32793 10.8574C7.29704 10.9059 7.24249 10.9347 7.18436 10.9347H5.9318C5.86815 10.9347 5.80997 10.9006 5.78089 10.8466C5.7518 10.7926 5.75361 10.7259 5.78816 10.6737L7.45885 8.1492L6.21356 6.07667C6.18265 6.02447 6.18085 5.95964 6.21176 5.90742C6.24265 5.8534 6.299 5.82099 6.3608 5.82099H7.60429C7.66429 5.82099 7.72064 5.8516 7.75153 5.90382L9.0532 8.0772Z" fill="#FF00FF"/>
</g>
<defs>
<clipPath id="clip0_1_622">
<rect width="16" height="16" fill="white"/>
</clipPath>
</defs>
</svg>
