<svg width="16" height="16" viewBox="0 0 16 16" fill="none" xmlns="http://www.w3.org/2000/svg">
<g clip-path="url(#clip0_1406_3446)">
<path fill-rule="evenodd" clip-rule="evenodd" d="M0.956543 0.0240479L2.23853 14.4029L7.9913 16L13.76 14.4007L15.0433 0.0240479H0.956543ZM7.99382 6.53267H5.66633L5.50517 4.72681H7.99382H7.9999H12.2479H12.2536L12.2889 4.33042L12.3693 3.4364L12.4114 2.96327H7.9999H7.99382H3.57786L3.62008 3.4364L4.05351 8.29614H7.99382H7.9999H10.1654L9.9607 10.5833L7.99382 11.1142L7.99219 11.1148L6.02816 10.5845L5.9026 9.17797H4.94823H4.13231L4.37938 11.9469L7.99181 12.9497L7.9999 12.9475L11.6091 11.9469L11.6357 11.649L12.0501 7.00622L12.0931 6.53267H11.6179H7.9999H7.99382Z" fill="#FF00FF"/>
</g>
<defs>
<clipPath id="clip0_1406_3446">
<rect width="16" height="16" fill="white"/>
</clipPath>
</defs>
</svg>
