<svg width="16" height="16" viewBox="0 0 16 16" fill="none" xmlns="http://www.w3.org/2000/svg">
<g clip-path="url(#clip0_1_635)">
<path fill-rule="evenodd" clip-rule="evenodd" d="M0.956635 0.0240479L2.23862 14.4029L7.99139 16L13.7601 14.4007L15.0434 0.0240479H0.956635ZM7.99391 6.53267H5.66642L5.50526 4.72681H7.99391H7.99999H12.248H12.2537L12.289 4.33042L12.3694 3.4364L12.4115 2.96327H7.99999H7.99391H3.57795L3.62017 3.4364L4.0536 8.29614H7.99391H7.99999H10.1655L9.96079 10.5833L7.99391 11.1142L7.99228 11.1148L6.02825 10.5845L5.90269 9.17797H4.94832H4.1324L4.37947 11.9469L7.9919 12.9497L7.99999 12.9475L11.6092 11.9469L11.6358 11.649L12.0502 7.00622L12.0932 6.53267H11.618H7.99999H7.99391Z" fill="#FF00FF"/>
</g>
<defs>
<clipPath id="clip0_1_635">
<rect width="16" height="16" fill="white"/>
</clipPath>
</defs>
</svg>
