<svg width="16" height="16" viewBox="0 0 16 16" fill="none" xmlns="http://www.w3.org/2000/svg">
<g clip-path="url(#clip0_348_3893)">
<path fill-rule="evenodd" clip-rule="evenodd" d="M2.2386 14.4028L0.956619 0.0239258H15.0434L13.76 14.4006L7.99138 15.9998L2.2386 14.4028Z" fill="#E44D26"/>
<path fill-rule="evenodd" clip-rule="evenodd" d="M8 14.7775L12.6614 13.4852L13.7581 1.19971H8V14.7775Z" fill="#F16529"/>
<path fill-rule="evenodd" clip-rule="evenodd" d="M8 6.53278H5.66641L5.50524 4.72691H8V2.96338H7.9939H3.57794L3.62016 3.43651L4.05359 8.29627H8V6.53278Z" fill="#EBEBEB"/>
<path fill-rule="evenodd" clip-rule="evenodd" d="M8 11.113L7.99227 11.115L6.02823 10.5847L5.90268 9.17822H4.94831H4.13239L4.37945 11.9472L7.99188 12.95L8 12.9478V11.113Z" fill="#EBEBEB"/>
<path fill-rule="evenodd" clip-rule="evenodd" d="M7.9939 6.53271V8.29621H10.1655L9.96078 10.5834L7.9939 11.1142V12.9489L11.6092 11.947L11.6357 11.649L12.0501 7.00627L12.0932 6.53271H11.6179H7.9939Z" fill="white"/>
<path fill-rule="evenodd" clip-rule="evenodd" d="M7.9939 2.96338V4.05868V4.7226V4.72691H12.248H12.2536L12.289 4.33052L12.3694 3.43651L12.4115 2.96338H7.9939Z" fill="white"/>
</g>
<defs>
<clipPath id="clip0_348_3893">
<rect width="16" height="16" fill="white"/>
</clipPath>
</defs>
</svg>
