<svg width="16" height="16" viewBox="0 0 16 16" fill="none" xmlns="http://www.w3.org/2000/svg">
<path d="M0.75 4C0.75 2.89543 1.64543 2 2.75 2H13.25C14.3546 2 15.25 2.89543 15.25 4V12C15.25 13.1046 14.3546 14 13.25 14H2.75C1.64543 14 0.75 13.1046 0.75 12V4Z" stroke="#FF00FF" stroke-width="1.5" stroke-linecap="round" stroke-linejoin="round"/>
<path opacity="0.3" d="M2.99485 7.22017L1.49485 8.93446C1.17584 9.29904 1 9.76702 1 10.2515V11.8944C1 12.2893 1.11688 12.6753 1.3359 13.0038L1.40627 13.1094C1.7772 13.6658 2.40166 14 3.07037 14H13.2094C13.4019 14 13.5931 13.969 13.7757 13.9081L14.0963 13.8012C14.636 13.6213 15 13.1163 15 12.5474C15 12.1969 14.8608 11.8608 14.6129 11.6129L12.3321 9.33213C11.8185 8.81853 11.0669 8.62375 10.3685 8.82329L9.21945 9.15159C8.47501 9.36428 7.67469 9.12821 7.16485 8.54555L6.00515 7.22018C5.20833 6.30952 3.79167 6.30952 2.99485 7.22017Z" fill="#FF00FF"/>
</svg>
