<svg width="16" height="16" viewBox="0 0 16 16" fill="none" xmlns="http://www.w3.org/2000/svg">
<g clip-path="url(#clip0_1406_3443)">
<path d="M16 0H0V16H16V0Z" fill="#FF5BA2"/>
<path fill-rule="evenodd" clip-rule="evenodd" d="M14.875 1.125H1.125V14.875H14.875V1.125ZM4.78366 11.1678H6.09C6.11523 11.1678 6.13998 11.1428 6.14 11.1181V4.2311C6.13998 4.20649 6.11523 4.18111 6.09 4.18128H4.78366C4.75879 4.1811 4.73346 4.20649 4.73366 4.23084V11.1178C4.73346 11.1425 4.75879 11.1677 4.78366 11.1678ZM11.23 4.23083V10.1442C11.2369 10.3484 11.2583 10.4882 11.2734 10.5868C11.2923 10.7096 11.3014 10.7685 11.26 10.8081C10.4422 11.3013 8.4928 11.4932 7.74066 10.8078C5.636 8.8344 7.15466 5.28443 9.83664 5.7771V4.23086C9.83656 4.20626 9.8588 4.18086 9.88664 4.18104H11.1803C11.2058 4.18088 11.2299 4.20638 11.23 4.23083ZM9.83664 6.8895V10.1068C8.54136 10.402 8.23112 9.428 8.19976 8.4696C8.1948 8.10448 8.29488 6.45763 9.83664 6.8895Z" fill="#422F36"/>
</g>
<defs>
<clipPath id="clip0_1406_3443">
<rect width="16" height="16" fill="white"/>
</clipPath>
</defs>
</svg>
