<svg width="16" height="16" viewBox="0 0 16 16" fill="none" xmlns="http://www.w3.org/2000/svg">
<g clip-path="url(#clip0_1406_3442)">
<path fill-rule="evenodd" clip-rule="evenodd" d="M7.9975 0C5.8255 0 5.55314 0.00920632 4.70013 0.048127C3.8489 0.086984 3.26753 0.222159 2.75879 0.419874C2.23289 0.624254 1.78689 0.897712 1.34229 1.34232C0.89768 1.78692 0.624222 2.23292 0.419842 2.75882C0.222127 3.26753 0.0869528 3.8489 0.0480953 4.70013C0.00917464 5.55314 0 5.8255 0 7.9975C0 10.1694 0.00917464 10.4418 0.0480953 11.2948C0.0869528 12.1461 0.222127 12.7274 0.419842 13.2362C0.624222 13.7621 0.89768 14.2081 1.34229 14.6526C1.78689 15.0973 2.23289 15.3707 2.75879 15.5751C3.26753 15.7728 3.8489 15.908 4.70013 15.9468C5.55314 15.9858 5.8255 15.995 7.9975 15.995C10.1694 15.995 10.4418 15.9858 11.2948 15.9468C12.1461 15.908 12.7274 15.7728 13.2362 15.5751C13.7621 15.3707 14.2081 15.0973 14.6526 14.6526C15.0973 14.2081 15.3707 13.7621 15.5751 13.2362C15.7728 12.7274 15.908 12.1461 15.9468 11.2948C15.9858 10.4418 15.995 10.1694 15.995 7.9975C15.995 5.8255 15.9858 5.55314 15.9468 4.70013C15.908 3.8489 15.7728 3.26753 15.5751 2.75882C15.3707 2.23292 15.0973 1.78692 14.6526 1.34232C14.2081 0.897712 13.7621 0.624254 13.2362 0.419874C12.7274 0.222159 12.1461 0.086984 11.2948 0.048127C10.4418 0.00920632 10.1694 0 7.9975 0ZM7.9975 1.44102C10.1329 1.44102 10.3858 1.44914 11.2291 1.48762C12.0089 1.52321 12.4323 1.6535 12.7142 1.76298C13.0874 1.90806 13.3539 2.0814 13.6338 2.36124C13.9136 2.64108 14.0869 2.90753 14.232 3.2808C14.3415 3.56261 14.4718 3.98606 14.5074 4.76582C14.5458 5.60911 14.554 5.86206 14.554 7.9975C14.554 10.1329 14.5458 10.3858 14.5074 11.2291C14.4718 12.0089 14.3415 12.4323 14.232 12.7142C14.0869 13.0874 13.9136 13.3539 13.6338 13.6338C13.3539 13.9136 13.0874 14.0869 12.7142 14.232C12.4323 14.3415 12.0089 14.4718 11.2291 14.5074C10.386 14.5458 10.133 14.554 7.9975 14.554C5.86191 14.554 5.60902 14.5458 4.76582 14.5074C3.98606 14.4718 3.56261 14.3415 3.2808 14.232C2.9075 14.0869 2.64108 13.9136 2.36121 13.6338C2.08137 13.3539 1.90803 13.0874 1.76298 12.7142C1.65346 12.4323 1.52318 12.0089 1.48759 11.2291C1.44911 10.3858 1.44098 10.1329 1.44098 7.9975C1.44098 5.86206 1.44911 5.60911 1.48759 4.76582C1.52318 3.98606 1.65346 3.56261 1.76298 3.2808C1.90803 2.90753 2.08137 2.64108 2.36121 2.36124C2.64108 2.0814 2.9075 1.90806 3.2808 1.76298C3.56261 1.6535 3.98606 1.52321 4.76582 1.48762C5.60911 1.44914 5.86207 1.44102 7.9975 1.44102ZM3.89067 7.9975C3.89067 5.72934 5.72934 3.89067 7.9975 3.89067C10.2656 3.89067 12.1043 5.72934 12.1043 7.9975C12.1043 10.2656 10.2656 12.1043 7.9975 12.1043C5.72934 12.1043 3.89067 10.2656 3.89067 7.9975ZM7.9975 10.6633C6.52518 10.6633 5.33166 9.46976 5.33166 7.9975C5.33166 6.52518 6.52518 5.33166 7.9975 5.33166C9.46976 5.33166 10.6633 6.52518 10.6633 7.9975C10.6633 9.46976 9.46976 10.6633 7.9975 10.6633ZM12.2666 4.6881C12.7966 4.6881 13.2262 4.25845 13.2262 3.72842C13.2262 3.19838 12.7966 2.76874 12.2666 2.76874C11.7366 2.76874 11.3069 3.19838 11.3069 3.72842C11.3069 4.25845 11.7366 4.6881 12.2666 4.6881Z" fill="#FF00FF"/>
</g>
<defs>
<clipPath id="clip0_1406_3442">
<rect width="16" height="16" fill="white"/>
</clipPath>
</defs>
</svg>
