<svg width="16" height="16" viewBox="0 0 16 16" fill="none" xmlns="http://www.w3.org/2000/svg">
<g clip-path="url(#clip0_1_656)">
<path d="M8 0C5.82733 0 5.5549 0.00920928 4.70161 0.0481422C3.8501 0.0870112 3.26855 0.222229 2.75966 0.420006C2.23359 0.624451 1.78746 0.898 1.34271 1.34274C0.897968 1.78749 0.624419 2.23362 0.419974 2.7597C0.222197 3.26855 0.08698 3.8501 0.0481104 4.70161C0.00917752 5.5549 0 5.82733 0 8C0 10.1726 0.00917752 10.4451 0.0481104 11.2984C0.08698 12.1499 0.222197 12.7314 0.419974 13.2403C0.624419 13.7664 0.897968 14.2125 1.34271 14.6573C1.78746 15.102 2.23359 15.3756 2.75966 15.58C3.26855 15.7778 3.8501 15.913 4.70161 15.9518C5.5549 15.9908 5.82733 16 8 16C10.1726 16 10.4451 15.9908 11.2984 15.9518C12.1499 15.913 12.7314 15.7778 13.2403 15.58C13.7664 15.3756 14.2125 15.102 14.6573 14.6573C15.102 14.2125 15.3756 13.7664 15.58 13.2403C15.7778 12.7314 15.913 12.1499 15.9518 11.2984C15.9908 10.4451 16 10.1726 16 8C16 5.82733 15.9908 5.5549 15.9518 4.70161C15.913 3.8501 15.7778 3.26855 15.58 2.7597C15.3756 2.23362 15.102 1.78749 14.6573 1.34274C14.2125 0.898 13.7664 0.624451 13.2403 0.420006C12.7314 0.222229 12.1499 0.0870112 11.2984 0.0481422C10.4451 0.00920928 10.1726 0 8 0Z" fill="url(#paint0_radial_1_656)"/>
<path d="M8 0C5.82733 0 5.5549 0.00920928 4.70161 0.0481422C3.8501 0.0870112 3.26855 0.222229 2.75966 0.420006C2.23359 0.624451 1.78746 0.898 1.34271 1.34274C0.897968 1.78749 0.624419 2.23362 0.419974 2.7597C0.222197 3.26855 0.08698 3.8501 0.0481104 4.70161C0.00917752 5.5549 0 5.82733 0 8C0 10.1726 0.00917752 10.4451 0.0481104 11.2984C0.08698 12.1499 0.222197 12.7314 0.419974 13.2403C0.624419 13.7664 0.897968 14.2125 1.34271 14.6573C1.78746 15.102 2.23359 15.3756 2.75966 15.58C3.26855 15.7778 3.8501 15.913 4.70161 15.9518C5.5549 15.9908 5.82733 16 8 16C10.1726 16 10.4451 15.9908 11.2984 15.9518C12.1499 15.913 12.7314 15.7778 13.2403 15.58C13.7664 15.3756 14.2125 15.102 14.6573 14.6573C15.102 14.2125 15.3756 13.7664 15.58 13.2403C15.7778 12.7314 15.913 12.1499 15.9518 11.2984C15.9908 10.4451 16 10.1726 16 8C16 5.82733 15.9908 5.5549 15.9518 4.70161C15.913 3.8501 15.7778 3.26855 15.58 2.7597C15.3756 2.23362 15.102 1.78749 14.6573 1.34274C14.2125 0.898 13.7664 0.624451 13.2403 0.420006C12.7314 0.222229 12.1499 0.0870112 11.2984 0.0481422C10.4451 0.00920928 10.1726 0 8 0Z" fill="url(#paint1_radial_1_656)"/>
<path fill-rule="evenodd" clip-rule="evenodd" d="M8.00002 2.40002C6.47915 2.40002 6.28845 2.40647 5.69115 2.43372C5.0951 2.46094 4.68802 2.55558 4.33179 2.69402C3.96354 2.83714 3.65124 3.02862 3.33992 3.33994C3.0286 3.65126 2.83712 3.96356 2.69401 4.33181C2.55556 4.68802 2.46091 5.0951 2.4337 5.69115C2.40645 6.28845 2.40002 6.47915 2.40002 8.00002C2.40002 9.5209 2.40645 9.71162 2.4337 10.3089C2.46091 10.905 2.55556 11.312 2.69401 11.6683C2.83712 12.0365 3.0286 12.3488 3.33992 12.6601C3.65124 12.9715 3.96354 13.1629 4.33179 13.306C4.68802 13.4444 5.0951 13.5391 5.69115 13.5663C6.28845 13.5935 6.47915 13.6 8.00002 13.6C9.5209 13.6 9.71162 13.5935 10.3089 13.5663C10.905 13.5391 11.312 13.4444 11.6683 13.306C12.0365 13.1629 12.3488 12.9715 12.6601 12.6601C12.9715 12.3488 13.1629 12.0365 13.306 11.6683C13.4444 11.312 13.5391 10.905 13.5663 10.3089C13.5935 9.71162 13.6 9.5209 13.6 8.00002C13.6 6.47915 13.5935 6.28845 13.5663 5.69115C13.5391 5.0951 13.4444 4.68802 13.306 4.33181C13.1629 3.96356 12.9715 3.65126 12.6601 3.33994C12.3488 3.02862 12.0365 2.83714 11.6683 2.69402C11.312 2.55558 10.905 2.46094 10.3089 2.43372C9.71162 2.40647 9.5209 2.40002 8.00002 2.40002ZM8.00002 3.40906C9.49522 3.40906 9.67242 3.41474 10.2629 3.44169C10.8089 3.46661 11.1054 3.55783 11.3027 3.6345C11.5641 3.73609 11.7507 3.85746 11.9466 4.05342C12.1426 4.24936 12.2639 4.43594 12.3655 4.6973C12.4422 4.89463 12.5335 5.19115 12.5583 5.73714C12.5853 6.32764 12.591 6.50476 12.591 8.00002C12.591 9.4953 12.5853 9.67242 12.5583 10.2629C12.5335 10.8089 12.4422 11.1054 12.3655 11.3027C12.2639 11.5641 12.1426 11.7507 11.9466 11.9467C11.7507 12.1426 11.5641 12.2639 11.3027 12.3655C11.1054 12.4423 10.8089 12.5335 10.2629 12.5583C9.6725 12.5853 9.49538 12.591 8.00002 12.591C6.50463 12.591 6.32755 12.5853 5.73712 12.5583C5.19113 12.5335 4.89461 12.4423 4.69728 12.3655C4.43589 12.2639 4.24934 12.1426 4.05337 11.9467C3.85742 11.7507 3.73605 11.5641 3.63448 11.3027C3.55779 11.1054 3.46656 10.8089 3.44164 10.2629C3.4147 9.67242 3.40901 9.4953 3.40901 8.00002C3.40901 6.50476 3.4147 6.32764 3.44164 5.73714C3.46656 5.19115 3.55779 4.89463 3.63448 4.6973C3.73605 4.43594 3.85742 4.24936 4.05337 4.05342C4.24934 3.85746 4.43589 3.73609 4.69728 3.6345C4.89461 3.55783 5.19113 3.46661 5.73712 3.44169C6.32762 3.41474 6.50474 3.40906 8.00002 3.40906ZM5.12438 8.00002C5.12438 6.41182 6.41185 5.12435 8.00002 5.12435C9.58826 5.12435 10.8757 6.41182 10.8757 8.00002C10.8757 9.58826 9.58826 10.8757 8.00002 10.8757C6.41185 10.8757 5.12438 9.58826 5.12438 8.00002ZM8.00002 9.86666C6.96909 9.86666 6.13336 9.03098 6.13336 8.00002C6.13336 6.96909 6.96909 6.13336 8.00002 6.13336C9.03098 6.13336 9.86666 6.96909 9.86666 8.00002C9.86666 9.03098 9.03098 9.86666 8.00002 9.86666ZM10.9893 5.68272C11.3604 5.68272 11.6613 5.38187 11.6613 5.01073C11.6613 4.63959 11.3604 4.33874 10.9893 4.33874C10.6182 4.33874 10.3173 4.63959 10.3173 5.01073C10.3173 5.38187 10.6182 5.68272 10.9893 5.68272Z" fill="white"/>
</g>
<defs>
<radialGradient id="paint0_radial_1_656" cx="0" cy="0" r="1" gradientUnits="userSpaceOnUse" gradientTransform="translate(4.25002 17.2323) rotate(-90) scale(15.8572 14.7484)">
<stop stop-color="#FFDD55"/>
<stop offset="0.1" stop-color="#FFDD55"/>
<stop offset="0.5" stop-color="#FF543E"/>
<stop offset="1" stop-color="#C837AB"/>
</radialGradient>
<radialGradient id="paint1_radial_1_656" cx="0" cy="0" r="1" gradientUnits="userSpaceOnUse" gradientTransform="translate(-2.68009 1.15262) rotate(78.6806) scale(7.08822 29.218)">
<stop stop-color="#3771C8"/>
<stop offset="0.128" stop-color="#3771C8"/>
<stop offset="1" stop-color="#6600FF" stop-opacity="0"/>
</radialGradient>
<clipPath id="clip0_1_656">
<rect width="16" height="16" fill="white"/>
</clipPath>
</defs>
</svg>
