<svg width="16" height="16" viewBox="0 0 16 16" fill="none" xmlns="http://www.w3.org/2000/svg">
<g clip-path="url(#clip0_348_3710)">
<path d="M8.00002 0C5.82733 0 5.5549 0.00920925 4.70161 0.0481422C3.8501 0.0870116 3.26856 0.222229 2.75966 0.420006C2.23359 0.624451 1.78745 0.897998 1.34271 1.34274C0.897966 1.78748 0.624419 2.23363 0.419974 2.7597C0.222197 3.26856 0.0869798 3.8501 0.0481104 4.70161C0.0091775 5.5549 0 5.82733 0 8.00002C0 10.1727 0.0091775 10.4451 0.0481104 11.2984C0.0869798 12.1499 0.222197 12.7314 0.419974 13.2403C0.624419 13.7664 0.897966 14.2125 1.34271 14.6573C1.78745 15.102 2.23359 15.3756 2.75966 15.58C3.26856 15.7778 3.8501 15.913 4.70161 15.9519C5.5549 15.9908 5.82733 16 8.00002 16C10.1727 16 10.4451 15.9908 11.2984 15.9519C12.1499 15.913 12.7314 15.7778 13.2403 15.58C13.7664 15.3756 14.2125 15.102 14.6573 14.6573C15.102 14.2125 15.3756 13.7664 15.58 13.2403C15.7778 12.7314 15.913 12.1499 15.9519 11.2984C15.9908 10.4451 16 10.1727 16 8.00002C16 5.82733 15.9908 5.5549 15.9519 4.70161C15.913 3.8501 15.7778 3.26856 15.58 2.7597C15.3756 2.23363 15.102 1.78748 14.6573 1.34274C14.2125 0.897998 13.7664 0.624451 13.2403 0.420006C12.7314 0.222229 12.1499 0.0870116 11.2984 0.0481422C10.4451 0.00920925 10.1727 0 8.00002 0Z" fill="url(#paint0_radial_348_3710)"/>
<path d="M8.00002 0C5.82733 0 5.5549 0.00920925 4.70161 0.0481422C3.8501 0.0870116 3.26856 0.222229 2.75966 0.420006C2.23359 0.624451 1.78745 0.897998 1.34271 1.34274C0.897966 1.78748 0.624419 2.23363 0.419974 2.7597C0.222197 3.26856 0.0869798 3.8501 0.0481104 4.70161C0.0091775 5.5549 0 5.82733 0 8.00002C0 10.1727 0.0091775 10.4451 0.0481104 11.2984C0.0869798 12.1499 0.222197 12.7314 0.419974 13.2403C0.624419 13.7664 0.897966 14.2125 1.34271 14.6573C1.78745 15.102 2.23359 15.3756 2.75966 15.58C3.26856 15.7778 3.8501 15.913 4.70161 15.9519C5.5549 15.9908 5.82733 16 8.00002 16C10.1727 16 10.4451 15.9908 11.2984 15.9519C12.1499 15.913 12.7314 15.7778 13.2403 15.58C13.7664 15.3756 14.2125 15.102 14.6573 14.6573C15.102 14.2125 15.3756 13.7664 15.58 13.2403C15.7778 12.7314 15.913 12.1499 15.9519 11.2984C15.9908 10.4451 16 10.1727 16 8.00002C16 5.82733 15.9908 5.5549 15.9519 4.70161C15.913 3.8501 15.7778 3.26856 15.58 2.7597C15.3756 2.23363 15.102 1.78748 14.6573 1.34274C14.2125 0.897998 13.7664 0.624451 13.2403 0.420006C12.7314 0.222229 12.1499 0.0870116 11.2984 0.0481422C10.4451 0.00920925 10.1727 0 8.00002 0Z" fill="url(#paint1_radial_348_3710)"/>
<path fill-rule="evenodd" clip-rule="evenodd" d="M8.00004 2.3999C6.47916 2.3999 6.28845 2.40635 5.69115 2.4336C5.0951 2.46081 4.68801 2.55546 4.33179 2.69391C3.96354 2.83702 3.65124 3.0285 3.33992 3.33982C3.0286 3.65114 2.83712 3.96344 2.69401 4.33169C2.55556 4.68789 2.46091 5.09497 2.4337 5.69103C2.40645 6.28833 2.40002 6.47903 2.40002 7.99991C2.40002 9.52077 2.40645 9.71148 2.4337 10.3088C2.46091 10.9048 2.55556 11.3119 2.69401 11.6681C2.83712 12.0364 3.0286 12.3487 3.33992 12.66C3.65124 12.9713 3.96354 13.1628 4.33179 13.3059C4.68801 13.4443 5.0951 13.539 5.69115 13.5662C6.28845 13.5935 6.47916 13.5999 8.00004 13.5999C9.52089 13.5999 9.7116 13.5935 10.3089 13.5662C10.905 13.539 11.312 13.4443 11.6682 13.3059C12.0365 13.1628 12.3488 12.9713 12.6601 12.66C12.9714 12.3487 13.1629 12.0364 13.306 11.6681C13.4445 11.3119 13.5391 10.9048 13.5663 10.3088C13.5936 9.71148 13.6 9.52077 13.6 7.99991C13.6 6.47903 13.5936 6.28833 13.5663 5.69103C13.5391 5.09497 13.4445 4.68789 13.306 4.33169C13.1629 3.96344 12.9714 3.65114 12.6601 3.33982C12.3488 3.0285 12.0365 2.83702 11.6682 2.69391C11.312 2.55546 10.905 2.46081 10.3089 2.4336C9.7116 2.40635 9.52089 2.3999 8.00004 2.3999ZM8.00001 3.40893C9.49526 3.40893 9.67239 3.41462 10.2629 3.44156C10.8089 3.46648 11.1054 3.55771 11.3027 3.63438C11.5641 3.73597 11.7507 3.85734 11.9466 4.05329C12.1426 4.24924 12.2639 4.43581 12.3655 4.69718C12.4422 4.89451 12.5334 5.19103 12.5583 5.73702C12.5853 6.32752 12.591 6.50464 12.591 7.99991C12.591 9.49516 12.5853 9.67229 12.5583 10.2628C12.5334 10.8088 12.4422 11.1053 12.3655 11.3026C12.2639 11.564 12.1426 11.7506 11.9466 11.9465C11.7507 12.1425 11.5641 12.2638 11.3027 12.3654C11.1054 12.4421 10.8089 12.5333 10.2629 12.5582C9.67247 12.5852 9.49537 12.5909 8.00001 12.5909C6.50463 12.5909 6.32755 12.5852 5.73712 12.5582C5.19113 12.5333 4.89461 12.4421 4.69728 12.3654C4.43589 12.2638 4.24934 12.1425 4.05337 11.9465C3.85742 11.7506 3.73605 11.564 3.63448 11.3026C3.55779 11.1053 3.46656 10.8088 3.44164 10.2628C3.4147 9.67229 3.40901 9.49516 3.40901 7.99991C3.40901 6.50464 3.4147 6.32752 3.44164 5.73702C3.46656 5.19103 3.55779 4.89451 3.63448 4.69718C3.73605 4.43581 3.85742 4.24924 4.05337 4.05329C4.24934 3.85734 4.43589 3.73597 4.69728 3.63438C4.89461 3.55771 5.19113 3.46648 5.73712 3.44156C6.32762 3.41462 6.50474 3.40893 8.00001 3.40893ZM5.12437 7.99991C5.12437 6.4117 6.41185 5.12423 8.00006 5.12423C9.58825 5.12423 10.8757 6.4117 10.8757 7.99991C10.8757 9.5881 9.58825 10.8756 8.00006 10.8756C6.41185 10.8756 5.12437 9.5881 5.12437 7.99991ZM8.00003 9.86657C6.96909 9.86657 6.13336 9.03084 6.13336 7.99991C6.13336 6.96897 6.96909 6.13324 8.00003 6.13324C9.03096 6.13324 9.86669 6.96897 9.86669 7.99991C9.86669 9.03084 9.03096 9.86657 8.00003 9.86657ZM10.9893 5.6826C11.3604 5.6826 11.6613 5.38175 11.6613 5.01061C11.6613 4.63947 11.3604 4.33862 10.9893 4.33862C10.6182 4.33862 10.3173 4.63947 10.3173 5.01061C10.3173 5.38175 10.6182 5.6826 10.9893 5.6826Z" fill="white"/>
</g>
<defs>
<radialGradient id="paint0_radial_348_3710" cx="0" cy="0" r="1" gradientUnits="userSpaceOnUse" gradientTransform="translate(4.25002 17.2323) rotate(-90) scale(15.8572 14.7484)">
<stop stop-color="#FFDD55"/>
<stop offset="0.1" stop-color="#FFDD55"/>
<stop offset="0.5" stop-color="#FF543E"/>
<stop offset="1" stop-color="#C837AB"/>
</radialGradient>
<radialGradient id="paint1_radial_348_3710" cx="0" cy="0" r="1" gradientUnits="userSpaceOnUse" gradientTransform="translate(-2.68008 1.15261) rotate(78.6806) scale(7.08823 29.218)">
<stop stop-color="#3771C8"/>
<stop offset="0.128" stop-color="#3771C8"/>
<stop offset="1" stop-color="#6600FF" stop-opacity="0"/>
</radialGradient>
<clipPath id="clip0_348_3710">
<rect width="16" height="16" fill="white"/>
</clipPath>
</defs>
</svg>
