<svg width="16" height="16" viewBox="0 0 16 16" fill="none" xmlns="http://www.w3.org/2000/svg">
<g clip-path="url(#clip0_1406_3441)">
<path d="M8 0C5.82733 0 5.5549 0.00920928 4.70161 0.0481422C3.8501 0.0870112 3.26855 0.222229 2.75966 0.420006C2.23359 0.624451 1.78746 0.898 1.34271 1.34274C0.897968 1.78749 0.624419 2.23362 0.419974 2.7597C0.222197 3.26855 0.08698 3.8501 0.0481104 4.70161C0.00917752 5.5549 0 5.82733 0 8C0 10.1726 0.00917752 10.4451 0.0481104 11.2984C0.08698 12.1499 0.222197 12.7314 0.419974 13.2403C0.624419 13.7664 0.897968 14.2125 1.34271 14.6573C1.78746 15.102 2.23359 15.3756 2.75966 15.58C3.26855 15.7778 3.8501 15.913 4.70161 15.9518C5.5549 15.9908 5.82733 16 8 16C10.1726 16 10.4451 15.9908 11.2984 15.9518C12.1499 15.913 12.7314 15.7778 13.2403 15.58C13.7664 15.3756 14.2125 15.102 14.6573 14.6573C15.102 14.2125 15.3756 13.7664 15.58 13.2403C15.7778 12.7314 15.913 12.1499 15.9518 11.2984C15.9908 10.4451 16 10.1726 16 8C16 5.82733 15.9908 5.5549 15.9518 4.70161C15.913 3.8501 15.7778 3.26855 15.58 2.7597C15.3756 2.23362 15.102 1.78749 14.6573 1.34274C14.2125 0.898 13.7664 0.624451 13.2403 0.420006C12.7314 0.222229 12.1499 0.0870112 11.2984 0.0481422C10.4451 0.00920928 10.1726 0 8 0Z" fill="url(#paint0_radial_1406_3441)"/>
<path d="M8 0C5.82733 0 5.5549 0.00920928 4.70161 0.0481422C3.8501 0.0870112 3.26855 0.222229 2.75966 0.420006C2.23359 0.624451 1.78746 0.898 1.34271 1.34274C0.897968 1.78749 0.624419 2.23362 0.419974 2.7597C0.222197 3.26855 0.08698 3.8501 0.0481104 4.70161C0.00917752 5.5549 0 5.82733 0 8C0 10.1726 0.00917752 10.4451 0.0481104 11.2984C0.08698 12.1499 0.222197 12.7314 0.419974 13.2403C0.624419 13.7664 0.897968 14.2125 1.34271 14.6573C1.78746 15.102 2.23359 15.3756 2.75966 15.58C3.26855 15.7778 3.8501 15.913 4.70161 15.9518C5.5549 15.9908 5.82733 16 8 16C10.1726 16 10.4451 15.9908 11.2984 15.9518C12.1499 15.913 12.7314 15.7778 13.2403 15.58C13.7664 15.3756 14.2125 15.102 14.6573 14.6573C15.102 14.2125 15.3756 13.7664 15.58 13.2403C15.7778 12.7314 15.913 12.1499 15.9518 11.2984C15.9908 10.4451 16 10.1726 16 8C16 5.82733 15.9908 5.5549 15.9518 4.70161C15.913 3.8501 15.7778 3.26855 15.58 2.7597C15.3756 2.23362 15.102 1.78749 14.6573 1.34274C14.2125 0.898 13.7664 0.624451 13.2403 0.420006C12.7314 0.222229 12.1499 0.0870112 11.2984 0.0481422C10.4451 0.00920928 10.1726 0 8 0Z" fill="url(#paint1_radial_1406_3441)"/>
<path fill-rule="evenodd" clip-rule="evenodd" d="M7.9999 2.40002C6.47903 2.40002 6.28833 2.40647 5.69103 2.43372C5.09497 2.46094 4.68789 2.55558 4.33167 2.69402C3.96341 2.83714 3.65112 3.02862 3.3398 3.33994C3.02848 3.65126 2.837 3.96356 2.69389 4.33181C2.55544 4.68802 2.46079 5.0951 2.43358 5.69115C2.40633 6.28845 2.3999 6.47915 2.3999 8.00002C2.3999 9.5209 2.40633 9.71162 2.43358 10.3089C2.46079 10.905 2.55544 11.312 2.69389 11.6683C2.837 12.0365 3.02848 12.3488 3.3398 12.6601C3.65112 12.9715 3.96341 13.1629 4.33167 13.306C4.68789 13.4444 5.09497 13.5391 5.69103 13.5663C6.28833 13.5935 6.47903 13.6 7.9999 13.6C9.52078 13.6 9.7115 13.5935 10.3088 13.5663C10.9049 13.5391 11.3119 13.4444 11.6681 13.306C12.0364 13.1629 12.3487 12.9715 12.66 12.6601C12.9713 12.3488 13.1628 12.0365 13.3059 11.6683C13.4443 11.312 13.539 10.905 13.5662 10.3089C13.5934 9.71162 13.5999 9.5209 13.5999 8.00002C13.5999 6.47915 13.5934 6.28845 13.5662 5.69115C13.539 5.0951 13.4443 4.68802 13.3059 4.33181C13.1628 3.96356 12.9713 3.65126 12.66 3.33994C12.3487 3.02862 12.0364 2.83714 11.6681 2.69402C11.3119 2.55558 10.9049 2.46094 10.3088 2.43372C9.7115 2.40647 9.52078 2.40002 7.9999 2.40002ZM7.99989 3.40906C9.4951 3.40906 9.6723 3.41474 10.2628 3.44169C10.8088 3.46661 11.1053 3.55783 11.3026 3.6345C11.564 3.73609 11.7505 3.85746 11.9465 4.05342C12.1425 4.24936 12.2638 4.43594 12.3654 4.6973C12.4421 4.89463 12.5333 5.19115 12.5582 5.73714C12.5852 6.32764 12.5909 6.50476 12.5909 8.00002C12.5909 9.4953 12.5852 9.67242 12.5582 10.2629C12.5333 10.8089 12.4421 11.1054 12.3654 11.3027C12.2638 11.5641 12.1425 11.7507 11.9465 11.9467C11.7505 12.1426 11.564 12.2639 11.3026 12.3655C11.1053 12.4423 10.8088 12.5335 10.2628 12.5583C9.67238 12.5853 9.49526 12.591 7.99989 12.591C6.50451 12.591 6.32743 12.5853 5.737 12.5583C5.19101 12.5335 4.89449 12.4423 4.69716 12.3655C4.43577 12.2639 4.24922 12.1426 4.05325 11.9467C3.85729 11.7507 3.73593 11.5641 3.63436 11.3027C3.55767 11.1054 3.46644 10.8089 3.44152 10.2629C3.41457 9.67242 3.40889 9.4953 3.40889 8.00002C3.40889 6.50476 3.41457 6.32764 3.44152 5.73714C3.46644 5.19115 3.55767 4.89463 3.63436 4.6973C3.73593 4.43594 3.85729 4.24936 4.05325 4.05342C4.24922 3.85746 4.43577 3.73609 4.69716 3.6345C4.89449 3.55783 5.19101 3.46661 5.737 3.44169C6.32749 3.41474 6.50462 3.40906 7.99989 3.40906ZM5.12425 8.00002C5.12425 6.41182 6.41173 5.12435 7.9999 5.12435C9.58814 5.12435 10.8756 6.41182 10.8756 8.00002C10.8756 9.58826 9.58814 10.8757 7.9999 10.8757C6.41173 10.8757 5.12425 9.58826 5.12425 8.00002ZM7.9999 9.86666C6.96897 9.86666 6.13324 9.03098 6.13324 8.00002C6.13324 6.96909 6.96897 6.13336 7.9999 6.13336C9.03086 6.13336 9.86654 6.96909 9.86654 8.00002C9.86654 9.03098 9.03086 9.86666 7.9999 9.86666ZM10.9892 5.68272C11.3603 5.68272 11.6612 5.38187 11.6612 5.01073C11.6612 4.63959 11.3603 4.33874 10.9892 4.33874C10.6181 4.33874 10.3172 4.63959 10.3172 5.01073C10.3172 5.38187 10.6181 5.68272 10.9892 5.68272Z" fill="white"/>
</g>
<defs>
<radialGradient id="paint0_radial_1406_3441" cx="0" cy="0" r="1" gradientUnits="userSpaceOnUse" gradientTransform="translate(4.25002 17.2323) rotate(-90) scale(15.8572 14.7484)">
<stop stop-color="#FFDD55"/>
<stop offset="0.1" stop-color="#FFDD55"/>
<stop offset="0.5" stop-color="#FF543E"/>
<stop offset="1" stop-color="#C837AB"/>
</radialGradient>
<radialGradient id="paint1_radial_1406_3441" cx="0" cy="0" r="1" gradientUnits="userSpaceOnUse" gradientTransform="translate(-2.68009 1.15262) rotate(78.6806) scale(7.08822 29.218)">
<stop stop-color="#3771C8"/>
<stop offset="0.128" stop-color="#3771C8"/>
<stop offset="1" stop-color="#6600FF" stop-opacity="0"/>
</radialGradient>
<clipPath id="clip0_1406_3441">
<rect width="16" height="16" fill="white"/>
</clipPath>
</defs>
</svg>
