<svg width="16" height="16" viewBox="0 0 16 16" fill="none" xmlns="http://www.w3.org/2000/svg">
<g clip-path="url(#clip0_1406_3439)">
<mask id="mask0_1406_3439" style="mask-type:luminance" maskUnits="userSpaceOnUse" x="0" y="0" width="16" height="16">
<path d="M16 0H0V16H16V0Z" fill="white"/>
</mask>
<g mask="url(#mask0_1406_3439)">
<path d="M13.7004 8.8529C13.7004 8.99554 13.6457 9.13234 13.5485 9.23314C13.4512 9.33402 13.3193 9.39067 13.1818 9.39067C13.0443 9.39067 12.9124 9.33402 12.8152 9.23314C12.7179 9.13234 12.6632 8.99554 12.6632 8.8529V4.04849C12.6632 3.90586 12.7179 3.76906 12.8152 3.66822C12.9124 3.56736 13.0443 3.5107 13.1818 3.5107C13.3193 3.5107 13.4512 3.56736 13.5485 3.66822C13.6457 3.76906 13.7004 3.90586 13.7004 4.04849V8.8529ZM13.5204 12.1818C13.4518 12.2529 11.5232 13.9195 7.98745 13.9195C4.45167 13.9195 2.53595 12.2618 2.45452 12.1907C2.4032 12.1458 2.36093 12.0909 2.33013 12.029C2.29932 11.9671 2.28061 11.8996 2.27503 11.8303C2.26946 11.7609 2.27714 11.6911 2.29764 11.6247C2.31814 11.5585 2.35106 11.4971 2.39452 11.444C2.48403 11.3366 2.61083 11.2703 2.74732 11.2595C2.88381 11.2486 3.01889 11.2942 3.12308 11.3863C3.1531 11.4084 4.87597 12.8573 7.98316 12.8573C11.0904 12.8573 12.8261 11.3995 12.8432 11.3863C12.9486 11.2951 13.0841 11.25 13.221 11.2608C13.3579 11.2716 13.4852 11.3373 13.5761 11.444C13.6636 11.5498 13.7072 11.6871 13.6976 11.8261C13.688 11.9651 13.6258 12.0945 13.5247 12.1863L13.5204 12.1818ZM2.27023 4.04849C2.27797 3.90541 2.34003 3.77133 2.44284 3.67554C2.54562 3.57978 2.6808 3.5301 2.81881 3.53737C2.94675 3.5449 3.06747 3.6013 3.15769 3.69568C3.24791 3.79006 3.30124 3.91574 3.30738 4.04849V8.84402C3.30738 8.98666 3.25275 9.12346 3.15549 9.22427C3.05825 9.32514 2.92635 9.38178 2.78881 9.38178C2.65128 9.38178 2.51937 9.32514 2.42212 9.22427C2.32486 9.12346 2.27023 8.98666 2.27023 8.84402V4.04849ZM4.87168 2.98183C4.87945 2.83874 4.94149 2.70466 5.04429 2.60888C5.14708 2.51311 5.28227 2.46343 5.42027 2.4707C5.5482 2.47823 5.66893 2.53464 5.75915 2.62902C5.84936 2.7234 5.9027 2.84907 5.90884 2.98183V10.0929C5.90884 10.2355 5.85421 10.3723 5.75697 10.4731C5.65972 10.574 5.52781 10.6307 5.39028 10.6307C5.25274 10.6307 5.12084 10.574 5.02358 10.4731C4.92632 10.3723 4.87168 10.2355 4.87168 10.0929V2.98183ZM7.48601 2.71516C7.48601 2.57253 7.54064 2.43574 7.63791 2.3349C7.73516 2.23403 7.86707 2.17738 8.0046 2.17738C8.14212 2.17738 8.27404 2.23403 8.37132 2.3349C8.46852 2.43574 8.52316 2.57253 8.52316 2.71516V10.4484C8.52316 10.5911 8.46852 10.7279 8.37132 10.8287C8.27404 10.9295 8.14212 10.9863 8.0046 10.9863C7.86707 10.9863 7.73516 10.9295 7.63791 10.8287C7.54064 10.7279 7.48601 10.5911 7.48601 10.4484V2.71516ZM10.0575 2.98183C10.0575 2.83919 10.1121 2.70241 10.2094 2.60156C10.3066 2.5007 10.4385 2.44404 10.576 2.44404C10.7136 2.44404 10.8455 2.5007 10.9428 2.60156C11.04 2.70241 11.0947 2.83919 11.0947 2.98183V10.0929C11.0947 10.2355 11.04 10.3723 10.9428 10.4731C10.8455 10.574 10.7136 10.6307 10.576 10.6307C10.4385 10.6307 10.3066 10.574 10.2094 10.4731C10.1121 10.3723 10.0575 10.2355 10.0575 10.0929V2.98183ZM13.8418 0.048507H2.15023C1.89546 0.0467363 1.64288 0.0971044 1.40693 0.196731C1.17096 0.296336 0.956291 0.443236 0.775148 0.629006C0.594007 0.8148 0.449987 1.03579 0.351342 1.27937C0.252675 1.52294 0.201326 1.7843 0.200195 2.0485V14.0484C0.201326 14.3126 0.252675 14.574 0.351342 14.8175C0.449987 15.0611 0.594007 15.2821 0.775148 15.4679C0.956291 15.6537 1.17096 15.8006 1.40693 15.9002C1.64288 15.9998 1.89546 16.0501 2.15023 16.0484H13.8418C14.0962 16.0501 14.3484 15.9999 14.5841 15.9006C14.8198 15.8013 15.0343 15.6547 15.2154 15.4695C15.3964 15.2842 15.5406 15.0637 15.6395 14.8207C15.7384 14.5775 15.7902 14.3167 15.7919 14.0529V2.0485C15.7908 1.78467 15.7395 1.52368 15.6411 1.28039C15.5428 1.03711 15.3991 0.816312 15.2184 0.630584C15.0377 0.444879 14.8236 0.297892 14.5881 0.19801C14.3526 0.0981284 14.1005 0.0473337 13.8461 0.048507" fill="black"/>
</g>
</g>
<defs>
<clipPath id="clip0_1406_3439">
<rect width="16" height="16" fill="white"/>
</clipPath>
</defs>
</svg>
