<svg width="16" height="16" viewBox="0 0 16 16" fill="none" xmlns="http://www.w3.org/2000/svg">
<g clip-path="url(#clip0_1_666)">
<mask id="mask0_1_666" style="mask-type:luminance" maskUnits="userSpaceOnUse" x="0" y="0" width="16" height="16">
<path d="M16 0H0V16H16V0Z" fill="white"/>
</mask>
<g mask="url(#mask0_1_666)">
<path d="M13.7002 8.8529C13.7002 8.99554 13.6455 9.13234 13.5483 9.23314C13.4511 9.33402 13.3191 9.39066 13.1816 9.39066C13.0441 9.39066 12.9122 9.33402 12.815 9.23314C12.7177 9.13234 12.6631 8.99554 12.6631 8.8529V4.04849C12.6631 3.90586 12.7177 3.76906 12.815 3.66822C12.9122 3.56736 13.0441 3.5107 13.1816 3.5107C13.3191 3.5107 13.4511 3.56736 13.5483 3.66822C13.6455 3.76906 13.7002 3.90586 13.7002 4.04849V8.8529ZM13.5203 12.1818C13.4516 12.2529 11.5231 13.9195 7.98727 13.9195C4.45149 13.9195 2.53576 12.2618 2.45434 12.1907C2.40301 12.1458 2.36075 12.0909 2.32995 12.029C2.29914 11.9671 2.28043 11.8996 2.27484 11.8303C2.26928 11.7609 2.27696 11.6911 2.29745 11.6247C2.31796 11.5585 2.35088 11.4971 2.39433 11.444C2.48384 11.3366 2.61064 11.2703 2.74714 11.2595C2.88363 11.2486 3.01871 11.2942 3.1229 11.3863C3.15292 11.4084 4.87579 12.8573 7.98298 12.8573C11.0902 12.8573 12.8259 11.3995 12.8431 11.3863C12.9484 11.2951 13.0839 11.25 13.2208 11.2608C13.3577 11.2716 13.4851 11.3373 13.5759 11.444C13.6634 11.5498 13.707 11.6871 13.6974 11.8261C13.6878 11.9651 13.6256 12.0945 13.5245 12.1863L13.5203 12.1818ZM2.27004 4.04849C2.27779 3.90541 2.33984 3.77133 2.44265 3.67554C2.54544 3.57978 2.68062 3.5301 2.81863 3.53737C2.94656 3.5449 3.06728 3.6013 3.15751 3.69568C3.24772 3.79006 3.30105 3.91574 3.3072 4.04849V8.84402C3.3072 8.98666 3.25256 9.12346 3.15531 9.22426C3.05807 9.32514 2.92616 9.38178 2.78863 9.38178C2.65109 9.38178 2.51919 9.32514 2.42193 9.22426C2.32468 9.12346 2.27004 8.98666 2.27004 8.84402V4.04849ZM4.8715 2.98183C4.87927 2.83874 4.94131 2.70466 5.04411 2.60888C5.14689 2.51311 5.28208 2.46343 5.42008 2.4707C5.54802 2.47823 5.66875 2.53464 5.75896 2.62902C5.84918 2.7234 5.90252 2.84907 5.90866 2.98183V10.0929C5.90866 10.2355 5.85403 10.3723 5.75679 10.4731C5.65953 10.574 5.52763 10.6307 5.39009 10.6307C5.25256 10.6307 5.12065 10.574 5.0234 10.4731C4.92614 10.3723 4.8715 10.2355 4.8715 10.0929V2.98183ZM7.48583 2.71516C7.48583 2.57253 7.54046 2.43574 7.63772 2.3349C7.73498 2.23403 7.86688 2.17738 8.00441 2.17738C8.14193 2.17738 8.27385 2.23403 8.37113 2.3349C8.46833 2.43574 8.52297 2.57253 8.52297 2.71516V10.4484C8.52297 10.5911 8.46833 10.7279 8.37113 10.8287C8.27385 10.9295 8.14193 10.9863 8.00441 10.9863C7.86688 10.9863 7.73498 10.9295 7.63772 10.8287C7.54046 10.7279 7.48583 10.5911 7.48583 10.4484V2.71516ZM10.0573 2.98183C10.0573 2.83919 10.1119 2.70241 10.2092 2.60156C10.3064 2.5007 10.4383 2.44404 10.5759 2.44404C10.7135 2.44404 10.8453 2.5007 10.9426 2.60156C11.0399 2.70241 11.0945 2.83919 11.0945 2.98183V10.0929C11.0945 10.2355 11.0399 10.3723 10.9426 10.4731C10.8453 10.574 10.7135 10.6307 10.5759 10.6307C10.4383 10.6307 10.3064 10.574 10.2092 10.4731C10.1119 10.3723 10.0573 10.2355 10.0573 10.0929V2.98183ZM13.8416 0.048507H2.15004C1.89528 0.0467363 1.64269 0.0971044 1.40675 0.196731C1.17078 0.296336 0.956108 0.443236 0.774965 0.629006C0.593824 0.8148 0.449803 1.03579 0.351159 1.27937C0.252492 1.52294 0.201143 1.7843 0.200012 2.0485V14.0484C0.201143 14.3126 0.252492 14.574 0.351159 14.8175C0.449803 15.0611 0.593824 15.2821 0.774965 15.4679C0.956108 15.6537 1.17078 15.8006 1.40675 15.9002C1.64269 15.9998 1.89528 16.0501 2.15004 16.0484H13.8416C14.096 16.0501 14.3483 15.9999 14.5839 15.9006C14.8196 15.8013 15.0341 15.6547 15.2152 15.4695C15.3963 15.2842 15.5404 15.0637 15.6393 14.8207C15.7382 14.5775 15.79 14.3167 15.7917 14.0529V2.0485C15.7906 1.78467 15.7393 1.52368 15.6409 1.28039C15.5426 1.03711 15.3989 0.816312 15.2183 0.630584C15.0375 0.444879 14.8234 0.297892 14.5879 0.19801C14.3524 0.0981284 14.1003 0.0473337 13.8459 0.048507" fill="black"/>
</g>
</g>
<defs>
<clipPath id="clip0_1_666">
<rect width="16" height="16" fill="white"/>
</clipPath>
</defs>
</svg>
