<svg width="16" height="16" viewBox="0 0 16 16" fill="none" xmlns="http://www.w3.org/2000/svg">
<g clip-path="url(#clip0_348_3713)">
<path d="M13.7002 8.85279C13.7002 8.9954 13.6456 9.13219 13.5483 9.23305C13.4511 9.33389 13.3192 9.39055 13.1816 9.39055C13.0441 9.39055 12.9122 9.33389 12.8149 9.23305C12.7177 9.13219 12.663 8.9954 12.663 8.85279V4.04837C12.663 3.90573 12.7177 3.76895 12.8149 3.6681C12.9122 3.56724 13.0441 3.51058 13.1816 3.51058C13.3192 3.51058 13.4511 3.56724 13.5483 3.6681C13.6456 3.76895 13.7002 3.90573 13.7002 4.04837V8.85279ZM13.5202 12.1816C13.4516 12.2528 11.523 13.9194 7.98727 13.9194C4.45149 13.9194 2.53577 12.2616 2.45434 12.1905C2.40301 12.1457 2.36075 12.0907 2.32994 12.0289C2.29914 11.967 2.28043 11.8995 2.27484 11.8301C2.26927 11.7608 2.27695 11.6909 2.29745 11.6247C2.31796 11.5584 2.35087 11.4969 2.39433 11.4439C2.48384 11.3365 2.61065 11.2701 2.74714 11.2593C2.88363 11.2485 3.01871 11.2941 3.1229 11.3861C3.15292 11.4083 4.87579 12.8572 7.98298 12.8572C11.0902 12.8572 12.8259 11.3994 12.8431 11.3861C12.9484 11.2949 13.0839 11.2499 13.2208 11.2607C13.3577 11.2715 13.4851 11.3372 13.5759 11.4439C13.6634 11.5497 13.707 11.687 13.6974 11.826C13.6877 11.9649 13.6256 12.0944 13.5245 12.1861L13.5202 12.1816ZM2.27004 4.04837C2.27779 3.90529 2.33984 3.77121 2.44265 3.67542C2.54543 3.57966 2.68062 3.52997 2.81863 3.53725C2.94656 3.54478 3.06729 3.60118 3.1575 3.69556C3.24772 3.78994 3.30106 3.91561 3.3072 4.04837V8.84389C3.3072 8.98652 3.25257 9.12331 3.15531 9.22416C3.05807 9.32502 2.92617 9.38166 2.78863 9.38166C2.6511 9.38166 2.51919 9.32502 2.42193 9.22416C2.32468 9.12331 2.27004 8.98652 2.27004 8.84389V4.04837ZM4.8715 2.98171C4.87927 2.83862 4.9413 2.70455 5.04411 2.60876C5.14689 2.51299 5.28208 2.46331 5.42009 2.47058C5.54802 2.47811 5.66875 2.53452 5.75897 2.6289C5.84918 2.72328 5.90252 2.84895 5.90866 2.98171V10.0928C5.90866 10.2354 5.85403 10.3722 5.75679 10.473C5.65953 10.5739 5.52763 10.6305 5.39009 10.6305C5.25256 10.6305 5.12065 10.5739 5.0234 10.473C4.92614 10.3722 4.8715 10.2354 4.8715 10.0928V2.98171ZM7.48583 2.71504C7.48583 2.57241 7.54046 2.43562 7.63772 2.33478C7.73498 2.23391 7.86688 2.17725 8.00442 2.17725C8.14195 2.17725 8.27386 2.23391 8.37109 2.33478C8.46835 2.43562 8.52299 2.57241 8.52299 2.71504V10.4483C8.52299 10.591 8.46835 10.7277 8.37109 10.8286C8.27386 10.9294 8.14195 10.9861 8.00442 10.9861C7.86688 10.9861 7.73498 10.9294 7.63772 10.8286C7.54046 10.7277 7.48583 10.591 7.48583 10.4483V2.71504ZM10.0573 2.98171C10.0573 2.83907 10.1119 2.70228 10.2092 2.60144C10.3064 2.50058 10.4383 2.44392 10.5759 2.44392C10.7134 2.44392 10.8453 2.50058 10.9426 2.60144C11.0398 2.70228 11.0945 2.83907 11.0945 2.98171V10.0928C11.0945 10.2354 11.0398 10.3722 10.9426 10.473C10.8453 10.5739 10.7134 10.6305 10.5759 10.6305C10.4383 10.6305 10.3064 10.5739 10.2092 10.473C10.1119 10.3722 10.0573 10.2354 10.0573 10.0928V2.98171ZM13.8416 0.048385H2.15004C1.89528 0.0466143 1.64269 0.0969824 1.40675 0.196609C1.17078 0.296214 0.956105 0.443114 0.774965 0.628884C0.593824 0.814675 0.449803 1.03567 0.351158 1.27925C0.252492 1.52281 0.201143 1.78419 0.200012 2.04838V14.0483C0.201143 14.3125 0.252492 14.5739 0.351158 14.8174C0.449803 15.061 0.593824 15.282 0.774965 15.4678C0.956105 15.6536 1.17078 15.8005 1.40675 15.9001C1.64269 15.9997 1.89528 16.05 2.15004 16.0483H13.8416C14.096 16.05 14.3483 15.9999 14.584 15.9005C14.8196 15.8012 15.0341 15.6547 15.2152 15.4694C15.3963 15.2841 15.5404 15.0636 15.6393 14.8205C15.7382 14.5775 15.79 14.3166 15.7917 14.0528V2.04838C15.7905 1.78455 15.7393 1.52356 15.6409 1.28027C15.5425 1.03699 15.3989 0.81619 15.2182 0.630463C15.0375 0.444757 14.8234 0.297771 14.5879 0.197888C14.3524 0.0980061 14.1003 0.0472116 13.8459 0.048385" fill="black"/>
</g>
<defs>
<clipPath id="clip0_348_3713">
<rect width="16" height="16" fill="white"/>
</clipPath>
</defs>
</svg>
