<svg width="16" height="16" viewBox="0 0 16 16" fill="none" xmlns="http://www.w3.org/2000/svg">
<g clip-path="url(#clip0_1_674)">
<path fill-rule="evenodd" clip-rule="evenodd" d="M14.5496 0H1.45042C0.649394 0 0 0.649394 0 1.45042V14.5496C0 15.3506 0.649394 16 1.45042 16H14.5496C15.3506 16 16 15.3506 16 14.5496V1.45042C16 0.649394 15.3506 0 14.5496 0Z" fill="#F42156"/>
<path fill-rule="evenodd" clip-rule="evenodd" d="M5.34727 5.0341C5.87915 5.0341 6.32466 4.61718 6.32466 4.07082C6.32466 3.52482 5.87915 3.10803 5.34727 3.10803C4.81539 3.10803 4.36993 3.52482 4.36993 4.07082C4.36993 4.61718 4.81539 5.0341 5.34727 5.0341Z" fill="white"/>
<path fill-rule="evenodd" clip-rule="evenodd" d="M3.32058 10.1916C3.26318 10.4359 3.23433 10.6998 3.23433 10.9151C3.23433 11.7633 3.69427 12.3264 4.67172 12.3264C5.48239 12.3264 6.13954 11.8449 6.6127 11.0677L6.32378 12.2272H7.93348L8.8535 8.53726C9.08342 7.60295 9.52902 7.11804 10.2046 7.11804C10.7365 7.11804 11.067 7.44877 11.067 7.99477C11.067 8.15302 11.0526 8.32534 10.9952 8.51222L10.5208 10.2083C10.4489 10.4526 10.4203 10.6972 10.4203 10.9269C10.4203 11.7321 10.8945 12.3211 11.8863 12.3211C12.7343 12.3211 13.4098 11.7752 13.7836 10.4671L13.1513 10.2229C12.8349 11.0993 12.5618 11.2577 12.3463 11.2577C12.1306 11.2577 12.0156 11.1141 12.0156 10.8268C12.0156 10.6974 12.0445 10.5539 12.0875 10.381L12.5475 8.72862C12.6625 8.34062 12.7057 7.99653 12.7057 7.68041C12.7057 6.44429 11.9581 5.79919 11.0526 5.79919C10.2046 5.79919 9.34214 6.56411 8.91102 7.36914L9.22718 5.92417H6.76936L6.42433 7.19689H7.57427L6.86621 10.0319C6.31009 11.2681 5.28863 11.2881 5.16045 11.2594C4.94997 11.2119 4.81536 11.132 4.81536 10.8585C4.81536 10.7006 4.84409 10.474 4.91597 10.2006L5.99409 5.92417H3.26318L2.91815 7.19689H4.0536L3.32058 10.1916Z" fill="white"/>
</g>
<defs>
<clipPath id="clip0_1_674">
<rect width="16" height="16" fill="white"/>
</clipPath>
</defs>
</svg>
