<svg width="16" height="16" viewBox="0 0 16 16" fill="none" xmlns="http://www.w3.org/2000/svg">
<g clip-path="url(#clip0_348_3941)">
<path fill-rule="evenodd" clip-rule="evenodd" d="M14.5496 0H1.45042C0.649394 0 0 0.649394 0 1.45042V14.5496C0 15.3506 0.649394 16 1.45042 16H14.5496C15.3506 16 16 15.3506 16 14.5496V1.45042C16 0.649394 15.3506 0 14.5496 0Z" fill="#F42156"/>
<path fill-rule="evenodd" clip-rule="evenodd" d="M5.34718 5.03397C5.87906 5.03397 6.32458 4.61706 6.32458 4.0707C6.32458 3.5247 5.87906 3.10791 5.34718 3.10791C4.8153 3.10791 4.36985 3.5247 4.36985 4.0707C4.36985 4.61706 4.8153 5.03397 5.34718 5.03397Z" fill="white"/>
<path fill-rule="evenodd" clip-rule="evenodd" d="M3.32052 10.1915C3.26312 10.4359 3.23427 10.6997 3.23427 10.915C3.23427 11.7632 3.69421 12.3263 4.67167 12.3263C5.48233 12.3263 6.13948 11.8448 6.61264 11.0675L6.32373 12.2271H7.93342L8.85342 8.53718C9.08336 7.60288 9.52894 7.11797 10.2046 7.11797C10.7364 7.11797 11.067 7.4487 11.067 7.9947C11.067 8.15294 11.0526 8.32524 10.9951 8.51215L10.5207 10.2082C10.4488 10.4526 10.4202 10.6971 10.4202 10.9269C10.4202 11.7321 10.8944 12.3211 11.8862 12.3211C12.7343 12.3211 13.4098 11.7751 13.7835 10.4671L13.1512 10.2229C12.8349 11.0992 12.5618 11.2577 12.3462 11.2577C12.1306 11.2577 12.0155 11.114 12.0155 10.8267C12.0155 10.6974 12.0444 10.5538 12.0874 10.3809L12.5475 8.72852C12.6624 8.34052 12.7056 7.99646 12.7056 7.68033C12.7056 6.44421 11.9581 5.79912 11.0526 5.79912C10.2046 5.79912 9.34209 6.56403 8.911 7.36906L9.22712 5.92409H6.7693L6.42427 7.19682H7.57421L6.86615 10.0318C6.31003 11.268 5.28858 11.288 5.16039 11.2593C4.94991 11.2119 4.8153 11.1319 4.8153 10.8584C4.8153 10.7006 4.84403 10.4739 4.91591 10.2006L5.99403 5.92409H3.26312L2.91809 7.19682H4.05355L3.32052 10.1915Z" fill="white"/>
</g>
<defs>
<clipPath id="clip0_348_3941">
<rect width="16" height="16" fill="white"/>
</clipPath>
</defs>
</svg>
