<svg width="16" height="16" viewBox="0 0 16 16" fill="none" xmlns="http://www.w3.org/2000/svg">
<g clip-path="url(#clip0_1406_3437)">
<path fill-rule="evenodd" clip-rule="evenodd" d="M14.5496 0H1.45042C0.649394 0 0 0.649394 0 1.45042V14.5496C0 15.3506 0.649394 16 1.45042 16H14.5496C15.3506 16 16 15.3506 16 14.5496V1.45042C16 0.649394 15.3506 0 14.5496 0Z" fill="#F42156"/>
<path fill-rule="evenodd" clip-rule="evenodd" d="M5.34745 5.0341C5.87933 5.0341 6.32484 4.61718 6.32484 4.07082C6.32484 3.52482 5.87933 3.10803 5.34745 3.10803C4.81557 3.10803 4.37012 3.52482 4.37012 4.07082C4.37012 4.61718 4.81557 5.0341 5.34745 5.0341Z" fill="white"/>
<path fill-rule="evenodd" clip-rule="evenodd" d="M3.32039 10.1916C3.26299 10.4359 3.23414 10.6998 3.23414 10.9151C3.23414 11.7633 3.69409 12.3264 4.67154 12.3264C5.48221 12.3264 6.13936 11.8449 6.61251 11.0677L6.3236 12.2272H7.9333L8.85332 8.53726C9.08324 7.60295 9.52884 7.11804 10.2044 7.11804C10.7363 7.11804 11.0668 7.44877 11.0668 7.99477C11.0668 8.15302 11.0524 8.32534 10.995 8.51222L10.5206 10.2083C10.4487 10.4526 10.4201 10.6972 10.4201 10.9269C10.4201 11.7321 10.8943 12.3211 11.8861 12.3211C12.7341 12.3211 13.4096 11.7752 13.7834 10.4671L13.1511 10.2229C12.8348 11.0993 12.5616 11.2577 12.3461 11.2577C12.1304 11.2577 12.0154 11.1141 12.0154 10.8268C12.0154 10.6974 12.0443 10.5539 12.0873 10.381L12.5473 8.72862C12.6623 8.34062 12.7055 7.99653 12.7055 7.68041C12.7055 6.44429 11.958 5.79919 11.0524 5.79919C10.2044 5.79919 9.34196 6.56411 8.91084 7.36914L9.227 5.92417H6.76918L6.42414 7.19689H7.57409L6.86602 10.0319C6.3099 11.2681 5.28845 11.2881 5.16026 11.2594C4.94978 11.2119 4.81518 11.132 4.81518 10.8585C4.81518 10.7006 4.8439 10.474 4.91578 10.2006L5.9939 5.92417H3.26299L2.91797 7.19689H4.05342L3.32039 10.1916Z" fill="white"/>
</g>
<defs>
<clipPath id="clip0_1406_3437">
<rect width="16" height="16" fill="white"/>
</clipPath>
</defs>
</svg>
