<svg width="16" height="16" viewBox="0 0 16 16" fill="none" xmlns="http://www.w3.org/2000/svg">
<g clip-path="url(#clip0_1_672)">
<path fill-rule="evenodd" clip-rule="evenodd" d="M14.5496 0H1.45042C0.649394 0 0 0.649394 0 1.45042V14.5496C0 15.3506 0.649394 16 1.45042 16H14.5496C15.3506 16 16 15.3506 16 14.5496V1.45042C16 0.649394 15.3506 0 14.5496 0ZM5.34722 5.03406C5.87909 5.03406 6.32461 4.61715 6.32461 4.07078C6.32461 3.52478 5.87909 3.108 5.34722 3.108C4.81534 3.108 4.36988 3.52478 4.36988 4.07078C4.36988 4.61715 4.81534 5.03406 5.34722 5.03406ZM3.2343 10.9151C3.2343 10.6998 3.26315 10.4359 3.32054 10.1916L4.05358 7.19691H2.91812L3.26315 5.92418H5.99406L4.91594 10.2006C4.84406 10.474 4.81534 10.7006 4.81534 10.8585C4.81534 11.132 4.94994 11.2119 5.16042 11.2594C5.28861 11.2882 6.31006 11.2681 6.86618 10.0319L7.57424 7.19691H6.4243L6.76934 5.92418H9.22712L8.91104 7.36915C9.34216 6.56412 10.2046 5.79922 11.0526 5.79922C11.9582 5.79922 12.7056 6.4443 12.7056 7.68042C12.7056 7.99654 12.6624 8.34064 12.5475 8.72864L12.0874 10.381C12.0444 10.5538 12.0156 10.6974 12.0156 10.8268C12.0156 11.1142 12.1306 11.2578 12.3462 11.2578C12.5618 11.2578 12.8349 11.0994 13.1512 10.223L13.7836 10.4671C13.4098 11.7752 12.7343 12.3211 11.8862 12.3211C10.8944 12.3211 10.4202 11.7322 10.4202 10.927C10.4202 10.6972 10.4489 10.4526 10.5207 10.2083L10.9951 8.51224C11.0526 8.32536 11.067 8.15304 11.067 7.99478C11.067 7.44878 10.7364 7.11806 10.2046 7.11806C9.52896 7.11806 9.08336 7.60297 8.85344 8.53728L7.93346 12.2272H6.32376L6.61266 11.0676C6.13951 11.8449 5.48236 12.3264 4.6717 12.3264C3.69424 12.3264 3.2343 11.7633 3.2343 10.9151Z" fill="#FF00FF"/>
</g>
<defs>
<clipPath id="clip0_1_672">
<rect width="16" height="16" fill="white"/>
</clipPath>
</defs>
</svg>
