<svg width="16" height="16" viewBox="0 0 16 16" fill="none" xmlns="http://www.w3.org/2000/svg">
<path d="M0.708697 5.3967C1.10184 5.3967 1.41222 5.08115 1.41222 4.69835C1.41222 4.31038 1.10184 4 0.708697 4C0.315551 4 0 4.31038 0 4.69835C0 5.08115 0.315551 5.3967 0.708697 5.3967ZM0.0672486 11.7078H1.35532V6.22438H0.0672486V11.7078Z" fill="black"/>
<path d="M5.8558 4.11896C3.67798 4.11896 2.31232 5.60361 2.31232 7.978C2.31232 10.3524 3.67798 11.8318 5.8558 11.8318C8.02848 11.8318 9.39408 10.3524 9.39408 7.978C9.39408 5.60361 8.02848 4.11896 5.8558 4.11896ZM5.8558 5.25701C7.18525 5.25701 8.0336 6.3123 8.0336 7.978C8.0336 9.63854 7.18525 10.6938 5.8558 10.6938C4.52117 10.6938 3.67798 9.63854 3.67798 7.978C3.67798 6.3123 4.52117 5.25701 5.8558 5.25701Z" fill="black"/>
<path d="M10.1494 9.62302C10.2114 10.9887 11.3546 11.8318 13.0825 11.8318C14.8774 11.8318 16 10.9317 16 9.50406C16 8.39702 15.343 7.7659 13.7705 7.44001L12.9634 7.27447C12.0323 7.0779 11.6598 6.75201 11.6598 6.24505C11.6598 5.61913 12.2496 5.22597 13.0773 5.22597C13.9308 5.22597 14.5206 5.65016 14.5826 6.35369H15.8603C15.8293 5.01905 14.7378 4.11896 13.0876 4.11896C11.4685 4.11896 10.3149 5.00871 10.3149 6.32265C10.3149 7.41414 11.0133 8.11766 12.5082 8.42286L13.3101 8.58838C14.2826 8.79014 14.655 9.12126 14.655 9.65918C14.655 10.28 14.0291 10.7249 13.129 10.7249C12.1978 10.7249 11.5254 10.311 11.4271 9.62302H10.1494Z" fill="black"/>
</svg>
