<svg width="16" height="16" viewBox="0 0 16 16" fill="none" xmlns="http://www.w3.org/2000/svg">
<path d="M0.708697 5.3967C1.10184 5.3967 1.41222 5.08115 1.41222 4.69835C1.41222 4.31038 1.10184 4 0.708697 4C0.315551 4 0 4.31038 0 4.69835C0 5.08115 0.315551 5.3967 0.708697 5.3967ZM0.0672486 11.7078H1.35532V6.22438H0.0672486V11.7078Z" fill="black"/>
<path d="M5.85598 4.11902C3.67816 4.11902 2.3125 5.60367 2.3125 7.97806C2.3125 10.3524 3.67816 11.8319 5.85598 11.8319C8.02866 11.8319 9.39426 10.3524 9.39426 7.97806C9.39426 5.60367 8.02866 4.11902 5.85598 4.11902ZM5.85598 5.25707C7.18544 5.25707 8.03378 6.31236 8.03378 7.97806C8.03378 9.6386 7.18544 10.6939 5.85598 10.6939C4.52136 10.6939 3.67816 9.6386 3.67816 7.97806C3.67816 6.31236 4.52136 5.25707 5.85598 5.25707Z" fill="black"/>
<path d="M10.1494 9.62308C10.2115 10.9888 11.3547 11.8319 13.0825 11.8319C14.8775 11.8319 16.0001 10.9318 16.0001 9.50412C16.0001 8.39708 15.3431 7.76596 13.7705 7.44007L12.9635 7.27453C12.0324 7.07796 11.6599 6.75207 11.6599 6.24512C11.6599 5.61919 12.2497 5.22603 13.0773 5.22603C13.9309 5.22603 14.5206 5.65022 14.5827 6.35375H15.8604C15.8293 5.01911 14.7378 4.11902 13.0877 4.11902C11.4685 4.11902 10.3149 5.00877 10.3149 6.32271C10.3149 7.4142 11.0133 8.11772 12.5083 8.42292L13.3101 8.58844C14.2826 8.7902 14.6551 9.12132 14.6551 9.65924C14.6551 10.28 14.0292 10.7249 13.1291 10.7249C12.1979 10.7249 11.5254 10.3111 11.4272 9.62308H10.1494Z" fill="black"/>
</svg>
