<svg width="16" height="16" viewBox="0 0 16 16" fill="none" xmlns="http://www.w3.org/2000/svg">
<g clip-path="url(#clip0_1_686)">
<path fill-rule="evenodd" clip-rule="evenodd" d="M16 0H0V16H16V0ZM12.2311 13.413C11.4895 13.413 11.0702 13.0263 10.7479 12.5001L9.52608 13.2099C9.96752 14.082 10.8696 14.7474 12.2659 14.7474C13.694 14.7474 14.7574 14.0058 14.7574 12.6522C14.7574 11.3966 14.0361 10.8381 12.7586 10.2903L12.3827 10.1293C11.7377 9.84992 11.4583 9.66728 11.4583 9.21624C11.4583 8.85128 11.7374 8.57192 12.1778 8.57192C12.6095 8.57192 12.8876 8.754 13.1454 9.21624L14.3162 8.46448C13.821 7.5934 13.1337 7.2607 12.1778 7.2607C10.835 7.2607 9.97584 8.11912 9.97584 9.24672C9.97584 10.4709 10.6966 11.0499 11.7816 11.5122L12.1574 11.6734C12.8432 11.9734 13.2521 12.1559 13.2521 12.6715C13.2521 13.1017 12.8541 13.413 12.2311 13.413ZM6.40432 13.4037C5.88774 13.4037 5.67289 13.0494 5.4367 12.6303L4.21282 13.3713C4.56737 14.1217 5.26451 14.7446 6.46832 14.7446C7.80063 14.7446 8.71336 14.0361 8.71336 12.4792V7.34654H7.2099V12.459C7.2099 13.2104 6.89829 13.4037 6.40432 13.4037Z" fill="#FF00FF"/>
</g>
<defs>
<clipPath id="clip0_1_686">
<rect width="16" height="16" fill="white"/>
</clipPath>
</defs>
</svg>
