<svg width="16" height="16" viewBox="0 0 16 16" fill="none" xmlns="http://www.w3.org/2000/svg">
<g clip-path="url(#clip0_1_688)">
<path d="M16 0H0V16H16V0Z" fill="#F7DF1E"/>
<path fill-rule="evenodd" clip-rule="evenodd" d="M10.748 12.5001C11.0703 13.0263 11.4896 13.4131 12.2312 13.4131C12.8542 13.4131 13.2522 13.1017 13.2522 12.6715C13.2522 12.1559 12.8432 11.9733 12.1575 11.6733L11.7817 11.5121C10.6967 11.0499 9.97592 10.4709 9.97592 9.24671C9.97592 8.11911 10.8351 7.26068 12.1778 7.26068C13.1338 7.26068 13.821 7.59339 14.3162 8.46447L13.1454 9.21623C12.8877 8.75399 12.6096 8.57191 12.1778 8.57191C11.7374 8.57191 11.4583 8.85127 11.4583 9.21623C11.4583 9.66727 11.7377 9.84991 12.3828 10.1293L12.7586 10.2903C14.0362 10.8381 14.7574 11.3965 14.7574 12.6521C14.7574 14.0058 13.694 14.7474 12.266 14.7474C10.8697 14.7474 9.96752 14.082 9.52616 13.2099L10.748 12.5001ZM5.43676 12.6303C5.67295 13.0493 5.88781 13.4037 6.40439 13.4037C6.89835 13.4037 7.20997 13.2104 7.20997 12.4589V7.34653H8.71344V12.4792C8.71344 14.0361 7.8007 14.7446 6.46839 14.7446C5.26458 14.7446 4.56743 14.1217 4.21289 13.3713L5.43676 12.6303Z" fill="black"/>
</g>
<defs>
<clipPath id="clip0_1_688">
<rect width="16" height="16" fill="white"/>
</clipPath>
</defs>
</svg>
