<svg width="16" height="16" viewBox="0 0 16 16" fill="none" xmlns="http://www.w3.org/2000/svg">
<g clip-path="url(#clip0_348_3816)">
<rect width="16" height="16" fill="#F7DF1E"/>
<path fill-rule="evenodd" clip-rule="evenodd" d="M10.7479 12.5001C11.0702 13.0263 11.4895 13.4131 12.2311 13.4131C12.8541 13.4131 13.2521 13.1018 13.2521 12.6715C13.2521 12.156 12.8432 11.9734 12.1575 11.6734L11.7816 11.5122C10.6966 11.0499 9.97587 10.4709 9.97587 9.24677C9.97587 8.11915 10.835 7.26074 12.1778 7.26074C13.1337 7.26074 13.821 7.59344 14.3162 8.46455L13.1454 9.2163C12.8876 8.75408 12.6095 8.57198 12.1778 8.57198C11.7374 8.57198 11.4583 8.85135 11.4583 9.2163C11.4583 9.66735 11.7377 9.84995 12.3827 10.1293L12.7586 10.2903C14.0361 10.8381 14.7573 11.3966 14.7573 12.6522C14.7573 14.0059 13.694 14.7475 12.2659 14.7475C10.8696 14.7475 9.96749 14.0821 9.52609 13.2099L10.7479 12.5001ZM5.4367 12.6304C5.67289 13.0494 5.88775 13.4037 6.40432 13.4037C6.89829 13.4037 7.2099 13.2105 7.2099 12.459V7.34658H8.7134V12.4793C8.7134 14.0361 7.80063 14.7447 6.46832 14.7447C5.26451 14.7447 4.56737 14.1217 4.21283 13.3713L5.4367 12.6304Z" fill="black"/>
</g>
<defs>
<clipPath id="clip0_348_3816">
<rect width="16" height="16" fill="white"/>
</clipPath>
</defs>
</svg>
