<svg width="16" height="16" viewBox="0 0 16 16" fill="none" xmlns="http://www.w3.org/2000/svg">
<g clip-path="url(#clip0_1406_3433)">
<path d="M16 0H0V16H16V0Z" fill="#F7DF1E"/>
<path fill-rule="evenodd" clip-rule="evenodd" d="M10.748 12.5001C11.0703 13.0264 11.4896 13.4132 12.2312 13.4132C12.8542 13.4132 13.2522 13.1017 13.2522 12.6716C13.2522 12.156 12.8432 11.9734 12.1575 11.6734L11.7817 11.5122C10.6967 11.05 9.97592 10.4709 9.97592 9.24677C9.97592 8.11917 10.8351 7.26074 12.1778 7.26074C13.1338 7.26074 13.821 7.59345 14.3162 8.46453L13.1454 9.21629C12.8877 8.75405 12.6096 8.57197 12.1778 8.57197C11.7374 8.57197 11.4583 8.85133 11.4583 9.21629C11.4583 9.66733 11.7377 9.84997 12.3828 10.1293L12.7586 10.2904C14.0362 10.8381 14.7574 11.3966 14.7574 12.6522C14.7574 14.0059 13.694 14.7475 12.266 14.7475C10.8697 14.7475 9.96752 14.082 9.52616 13.21L10.748 12.5001ZM5.43676 12.6304C5.67295 13.0494 5.88781 13.4037 6.40439 13.4037C6.89835 13.4037 7.20997 13.2104 7.20997 12.459V7.34659H8.71344V12.4792C8.71344 14.0361 7.8007 14.7447 6.46839 14.7447C5.26458 14.7447 4.56743 14.1217 4.21289 13.3713L5.43676 12.6304Z" fill="black"/>
</g>
<defs>
<clipPath id="clip0_1406_3433">
<rect width="16" height="16" fill="white"/>
</clipPath>
</defs>
</svg>
