<svg width="16" height="16" viewBox="0 0 16 16" fill="none" xmlns="http://www.w3.org/2000/svg">
<g clip-path="url(#clip0_348_3888)">
<path fill-rule="evenodd" clip-rule="evenodd" d="M8.66642 0.665263L15.5296 7.52842C15.7759 7.775 15.7759 8.17447 15.5296 8.42105L13.2475 10.7032L13.1675 10.7832L8.00115 15.9495L5.19273 13.1411L0.472732 8.42105C0.226456 8.17447 0.226456 7.775 0.472732 7.52842L2.83484 5.16632L8.00115 0L8.66642 0.665263ZM5.64326 7.97474L8.00115 10.3326L10.359 7.97474L8.00115 5.61684L5.64326 7.97474Z" fill="#2684FF"/>
<path d="M8.00112 5.61694C6.45735 4.07298 6.44982 1.57226 7.98428 0.019043L2.82428 5.17694L5.6327 7.98536L8.00112 5.61694Z" fill="url(#paint0_linear_348_3888)"/>
<path d="M10.3653 7.96826L8.0011 10.3325C8.74623 11.0772 9.16487 12.0874 9.16487 13.1409C9.16487 14.1944 8.74623 15.2046 8.0011 15.9493L13.1737 10.7767L10.3653 7.96826Z" fill="url(#paint1_linear_348_3888)"/>
</g>
<defs>
<linearGradient id="paint0_linear_348_3888" x1="6.51022" y1="0.698263" x2="2.53589" y2="2.3766" gradientUnits="userSpaceOnUse">
<stop offset="0.18" stop-color="#0052CC"/>
<stop offset="1" stop-color="#2684FF"/>
</linearGradient>
<linearGradient id="paint1_linear_348_3888" x1="9.51658" y1="15.2257" x2="13.4834" y2="13.5594" gradientUnits="userSpaceOnUse">
<stop offset="0.18" stop-color="#0052CC"/>
<stop offset="1" stop-color="#2684FF"/>
</linearGradient>
<clipPath id="clip0_348_3888">
<rect width="16" height="16" fill="white"/>
</clipPath>
</defs>
</svg>
