<svg width="16" height="16" viewBox="0 0 16 16" fill="none" xmlns="http://www.w3.org/2000/svg">
<g clip-path="url(#clip0_1406_3432)">
<path opacity="0.6" fill-rule="evenodd" clip-rule="evenodd" d="M8.66648 0.665263L15.5296 7.52842C15.7759 7.77501 15.7759 8.17448 15.5296 8.42104L13.2475 10.7031L13.1675 10.7831L8.0012 15.9494L5.19279 13.141L0.472794 8.42104C0.226517 8.17448 0.226517 7.77501 0.472794 7.52842L2.8349 5.16631L8.0012 0L8.66648 0.665263ZM5.64332 7.97474L8.0012 10.3326L10.3591 7.97474L8.0012 5.61684L5.64332 7.97474Z" fill="#FF00FF"/>
<path d="M8.00104 5.61682C6.45729 4.07286 6.44976 1.57214 7.98422 0.0189209L2.82422 5.17682L5.63264 7.98524L8.00104 5.61682Z" fill="url(#paint0_linear_1406_3432)"/>
<path d="M10.3651 7.96838L8.00098 10.3326C8.7461 11.0772 9.16474 12.0876 9.16474 13.141C9.16474 14.1944 8.7461 15.2048 8.00098 15.9494L13.1736 10.7768L10.3651 7.96838Z" fill="url(#paint1_linear_1406_3432)"/>
</g>
<defs>
<linearGradient id="paint0_linear_1406_3432" x1="6.11007" y1="1.74683" x2="2.85111" y2="3.12306" gradientUnits="userSpaceOnUse">
<stop stop-opacity="0.4"/>
<stop offset="1" stop-opacity="0.01"/>
</linearGradient>
<linearGradient id="paint1_linear_1406_3432" x1="9.91626" y1="14.1779" x2="13.1691" y2="12.8116" gradientUnits="userSpaceOnUse">
<stop stop-opacity="0.4"/>
<stop offset="1" stop-opacity="0.01"/>
</linearGradient>
<clipPath id="clip0_1406_3432">
<rect width="16" height="16" fill="white"/>
</clipPath>
</defs>
</svg>
