<svg width="16" height="16" viewBox="0 0 16 16" fill="none" xmlns="http://www.w3.org/2000/svg">
<path fill-rule="evenodd" clip-rule="evenodd" d="M4.45009 3.83221C1.96546 3.83221 0 5.83669 0 9.15893C0 12.4812 1.96546 14.5042 4.43155 14.5042C5.89637 14.5042 6.93473 13.8546 7.47245 12.9266V14.3743H11.1252V0.639893H7.47245V5.39125C6.89764 4.44469 5.82221 3.83221 4.45009 3.83221ZM5.5997 7.00597C6.61951 7.00597 7.49099 7.76693 7.49099 9.15893C7.49099 10.5695 6.61951 11.3304 5.5997 11.3304C4.56135 11.3304 3.70841 10.5509 3.70841 9.15893C3.70841 7.74837 4.56135 7.00597 5.5997 7.00597Z" fill="#FF00FF"/>
<path d="M14.08 14.5599C15.1404 14.5599 16 13.7003 16 12.6399C16 11.5795 15.1404 10.7199 14.08 10.7199C13.0196 10.7199 12.16 11.5795 12.16 12.6399C12.16 13.7003 13.0196 14.5599 14.08 14.5599Z" fill="#FF00FF"/>
</svg>
