<svg width="16" height="16" viewBox="0 0 16 16" fill="none" xmlns="http://www.w3.org/2000/svg">
<path fill-rule="evenodd" clip-rule="evenodd" d="M4.45009 3.83221C1.96546 3.83221 0 5.83669 0 9.15893C0 12.4812 1.96546 14.5042 4.43155 14.5042C5.89637 14.5042 6.93473 13.8546 7.47245 12.9266V14.3743H11.1252V0.639893H7.47245V5.39125C6.89764 4.44469 5.82221 3.83221 4.45009 3.83221ZM5.5997 7.00597C6.61951 7.00597 7.49099 7.76693 7.49099 9.15893C7.49099 10.5695 6.61951 11.3304 5.5997 11.3304C4.56135 11.3304 3.70841 10.5509 3.70841 9.15893C3.70841 7.74837 4.56135 7.00597 5.5997 7.00597Z" fill="#161513"/>
<path d="M14.0802 14.56C15.1405 14.56 16.0002 13.7004 16.0002 12.64C16.0002 11.5796 15.1405 10.72 14.0802 10.72C13.0198 10.72 12.1602 11.5796 12.1602 12.64C12.1602 13.7004 13.0198 14.56 14.0802 14.56Z" fill="#62D198"/>
</svg>
