<svg width="16" height="16" viewBox="0 0 16 16" fill="none" xmlns="http://www.w3.org/2000/svg">
<path fill-rule="evenodd" clip-rule="evenodd" d="M4.4501 3.83234C1.96546 3.83234 0 5.83682 0 9.15906C0 12.4813 1.96546 14.5043 4.43155 14.5043C5.89638 14.5043 6.93473 13.8547 7.47245 12.9267V14.3744H11.1252V0.640015H7.47245V5.39138C6.89765 4.44482 5.82221 3.83234 4.4501 3.83234ZM5.5997 7.0061C6.61951 7.0061 7.49099 7.76706 7.49099 9.15906C7.49099 10.5696 6.61951 11.3306 5.5997 11.3306C4.56134 11.3306 3.70841 10.5511 3.70841 9.15906C3.70841 7.7485 4.56134 7.0061 5.5997 7.0061Z" fill="#161513"/>
<path d="M14.0799 14.56C15.1402 14.56 15.9999 13.7004 15.9999 12.64C15.9999 11.5796 15.1402 10.72 14.0799 10.72C13.0195 10.72 12.1599 11.5796 12.1599 12.64C12.1599 13.7004 13.0195 14.56 14.0799 14.56Z" fill="#62D198"/>
</svg>
