<svg width="16" height="16" viewBox="0 0 16 16" fill="none" xmlns="http://www.w3.org/2000/svg">
<path fill-rule="evenodd" clip-rule="evenodd" d="M4.45009 3.83197C1.96546 3.83197 0 5.83645 0 9.15869C0 12.4809 1.96546 14.504 4.43155 14.504C5.89637 14.504 6.93473 13.8544 7.47245 12.9264V14.374H11.1252V0.639648H7.47245V5.39101C6.89764 4.44445 5.82221 3.83197 4.45009 3.83197ZM5.5997 7.00573C6.61951 7.00573 7.49099 7.76669 7.49099 9.15869C7.49099 10.5692 6.61951 11.3302 5.5997 11.3302C4.56135 11.3302 3.70841 10.5507 3.70841 9.15869C3.70841 7.74813 4.56135 7.00573 5.5997 7.00573Z" fill="#242320"/>
<path d="M12.3199 12.9345H15.9999V14.3745H12.3199V12.9345Z" fill="#FA563F"/>
<path d="M12.3199 10.3745H15.9999V11.8145H12.3199V10.3745Z" fill="#FA563F"/>
<path d="M12.3199 7.81445H15.9999V9.25445H12.3199V7.81445Z" fill="#FA563F"/>
</svg>
