<svg width="16" height="16" viewBox="0 0 16 16" fill="none" xmlns="http://www.w3.org/2000/svg">
<path d="M4.15903 9.22368H4.34039C4.39409 9.37168 4.42098 9.51902 4.42098 9.66675C4.42098 9.81409 4.41424 9.9101 4.40079 9.95496C4.13224 9.99941 3.8927 10.0216 3.68218 10.0216C3.37775 10.0216 3.16182 9.94744 3.03401 9.79893C2.90635 9.65015 2.83459 9.4164 2.83459 9.09694L2.83498 4.50635L2.88326 4.50728L3.29901 4.50728C3.50611 4.50727 3.65177 4.50726 3.73601 4.59921C3.82111 4.69232 3.88758 4.85391 3.88758 5.08407V8.91174C3.88758 9.12 3.96184 9.22368 4.15903 9.22368Z" fill="#FF00FF"/>
<path d="M13.6222 9.00382C13.6222 8.49862 13.3245 8.14156 12.7289 7.93316L12.3119 7.78635C12.1417 7.72423 12.0567 7.64008 12.0567 7.53363C12.0567 7.47149 12.0798 7.4206 12.1268 7.38062C12.1743 7.34052 12.2419 7.3206 12.3318 7.3206C12.5826 7.3206 12.8958 7.40489 13.2721 7.57346C13.3574 7.51132 13.4289 7.40606 13.4872 7.25742C13.5451 7.1089 13.57 6.97251 13.5611 6.84827C13.5208 6.82837 13.4775 6.80415 13.4312 6.77827C13.3027 6.70637 13.1512 6.62161 12.9769 6.58078C12.7394 6.52538 12.5225 6.49767 12.3254 6.49767C11.927 6.49767 11.6102 6.66757 11.3752 6.86489C11.1401 7.06249 11.0226 7.32959 11.0226 7.6666C11.0226 8.12814 11.3024 8.4604 11.8619 8.66432L12.2317 8.80401C12.4376 8.87048 12.5409 8.97021 12.5409 9.10356C12.5409 9.17451 12.5074 9.23098 12.44 9.27304C12.3727 9.31526 12.2761 9.33623 12.1511 9.33623C11.8868 9.33623 11.5754 9.24309 11.2175 9.05711C11.1417 9.13679 11.0755 9.24587 11.0195 9.38317C10.9636 9.52048 10.9331 9.64696 10.9289 9.76225C11.3183 9.97964 11.741 10.1121 12.1981 10.1121C12.6551 10.1121 13.0062 9.99084 13.2524 9.79549C13.4988 9.60028 13.6222 9.33635 13.6222 9.00382Z" fill="#FF00FF"/>
<path d="M9.75366 7.93316C10.3493 8.14156 10.6469 8.49862 10.6469 9.00382C10.6469 9.33635 10.5234 9.60028 10.2775 9.79549C10.0311 9.99084 9.67981 10.1121 9.22291 10.1121C8.76626 10.1121 8.34298 9.97964 7.95374 9.76225C7.95795 9.64696 7.98842 9.52048 8.04447 9.38317C8.10041 9.24587 8.16635 9.13679 8.24247 9.05711C8.60073 9.24309 8.91201 9.33623 9.17621 9.33623C9.30125 9.33623 9.39793 9.31526 9.46495 9.27304C9.53209 9.23098 9.56585 9.17451 9.56585 9.10356C9.56585 8.97021 9.46257 8.87048 9.25668 8.80401L8.88708 8.66432C8.32742 8.4604 8.04753 8.12814 8.04753 7.6666C8.04753 7.32959 8.16505 7.06249 8.40036 6.86489C8.63528 6.66757 8.95197 6.49767 9.35032 6.49767C9.54726 6.49767 9.76476 6.52538 10.0017 6.58078C10.1761 6.62159 10.3274 6.70625 10.4558 6.77811C10.5022 6.80406 10.5456 6.82833 10.586 6.84827C10.595 6.97251 10.57 7.1089 10.5121 7.25742C10.454 7.40606 10.3823 7.51132 10.2971 7.57346C9.92068 7.40489 9.60754 7.3206 9.35654 7.3206C9.26685 7.3206 9.19892 7.34052 9.15169 7.38062C9.10486 7.4206 9.08152 7.47149 9.08152 7.53363C9.08152 7.64008 9.16659 7.72423 9.33688 7.78635L9.75366 7.93316Z" fill="#FF00FF"/>
<path fill-rule="evenodd" clip-rule="evenodd" d="M7.48666 7.41462C7.55155 7.58769 7.584 7.77618 7.584 7.9801C7.584 8.25064 7.55485 8.5027 7.49718 8.6892H5.75101C5.76008 8.88614 5.81132 9.01579 5.90473 9.12541C5.99824 9.23541 6.1523 9.28988 6.36638 9.28988C6.47335 9.28988 6.59721 9.27485 6.73768 9.24503C6.87802 9.2148 7.03987 9.1656 7.22282 9.09689C7.36989 9.24766 7.46143 9.45198 7.49691 9.70894C7.13867 9.96153 6.69996 10.1119 6.18066 10.1119C5.89864 10.1119 5.66241 10.0438 5.47208 9.95519C5.28174 9.86669 5.12729 9.74256 5.00858 9.58296C4.88998 9.42309 4.80597 9.23473 4.75677 9.01775C4.70744 8.80051 4.6829 8.56283 4.6829 8.30588C4.6829 8.05764 4.71311 7.82814 4.77353 7.61748C4.83394 7.40685 4.92574 7.22401 5.04907 7.06864C5.17214 6.91339 5.32885 6.79152 5.51905 6.70287L5.56554 6.68103C5.74527 6.59628 5.95253 6.49855 6.18726 6.49855C6.36193 6.49855 6.52257 6.56916 6.66924 6.63363C6.703 6.64846 6.73602 6.66298 6.7683 6.67623C6.94057 6.74719 7.08711 6.84468 7.20807 6.96893C7.3289 7.09318 7.4219 7.24158 7.48666 7.41462ZM5.86769 7.45792C5.79896 7.55763 5.75766 7.7998 5.74436 8.02615H6.62413L6.624 7.95268C6.624 7.78861 6.58736 7.57414 6.514 7.46769C6.4408 7.36124 6.3308 7.30821 6.18424 7.30821C6.04193 7.30821 5.93655 7.35808 5.86769 7.45792Z" fill="#FF00FF"/>
<path d="M15.4645 8.46868C15.2747 8.63448 15.1646 8.87308 15.1646 9.18504V10.3468C15.1646 10.733 15.0459 11.0268 14.7777 11.2287C14.5098 11.4304 14.1975 11.5303 13.8409 11.5399L13.6296 11.5383V10.9594C13.8159 10.905 13.8924 10.8419 13.9665 10.7701C14.1008 10.6488 14.2037 10.4513 14.2037 10.1771V9.23912C14.2087 8.92031 14.2332 8.67049 14.3493 8.49004C14.4658 8.3096 14.6925 8.15184 15.0295 8.01559C14.6573 7.84517 14.4073 7.62264 14.2799 7.34816C14.205 7.18513 14.2035 6.96511 14.2035 6.68837V5.82824C14.2035 5.54411 14.1105 5.34508 13.9962 5.2315C13.9218 5.15737 13.8352 5.09815 13.6294 5.05345V4.51C13.7951 4.51173 13.9068 4.51108 14.0056 4.51049C14.057 4.51019 14.1048 4.50991 14.155 4.51C14.3808 4.50816 14.57 4.63162 14.7346 4.76021C14.9138 4.90122 15.0412 5.09183 15.1159 5.33175C15.1584 5.47038 15.1644 5.60282 15.1644 5.7289V6.72372C15.1644 7.07509 15.2682 7.33628 15.4457 7.50682C15.5457 7.60575 15.6868 7.69623 15.9291 7.77789V8.22728C15.7144 8.28665 15.5796 8.36711 15.4645 8.46868Z" fill="#FF00FF"/>
<path d="M2.10765 4.51108L2.64414 4.51025V5.07979L2.40196 5.0781C2.2488 5.11924 2.13854 5.17003 2.07655 5.23175C1.96231 5.34545 1.89637 5.54448 1.89637 5.8286V6.68874C1.89637 6.96546 1.86789 7.18547 1.79283 7.34864C1.66541 7.62299 1.41559 7.84539 1.04322 8.01593C1.38062 8.15206 1.60737 8.31008 1.72357 8.49026C1.83977 8.67084 1.89121 8.92041 1.89635 9.23947V10.1776C1.89635 10.4516 1.97233 10.649 2.10648 10.7705C2.18101 10.8419 2.2844 10.9051 2.47052 10.9596V11.5389L2.23192 11.5405C1.87538 11.5308 1.56318 11.4305 1.29528 11.229C1.02739 11.0273 0.93531 10.7333 0.93531 10.3473V9.18554C0.93531 8.87362 0.798406 8.63486 0.60847 8.46893C0.493729 8.36709 0.28689 8.2869 0.0720215 8.22767V7.77829C0.314459 7.69664 0.527619 7.6063 0.627481 7.50739C0.80476 7.33656 0.935476 7.07553 0.935476 6.72427V5.72945C0.935476 5.71074 0.935348 5.69203 0.93522 5.67326C0.934485 5.56537 0.933736 5.45544 0.957107 5.3323C1.00525 5.08578 1.1589 4.90176 1.33842 4.76076C1.50289 4.63204 1.69203 4.50857 1.91798 4.51054C1.9702 4.51041 2.03551 4.51068 2.10765 4.51108Z" fill="#FF00FF"/>
</svg>
