<svg width="16" height="16" viewBox="0 0 16 16" fill="none" xmlns="http://www.w3.org/2000/svg">
<path fill-rule="evenodd" clip-rule="evenodd" d="M15.113 10.1845C15.113 10.9303 14.5028 11.5405 13.757 11.5405H2.36001C1.61424 11.5405 1.00405 10.9303 1.00405 10.1845V5.86621C1.00405 5.12044 1.61424 4.51025 2.36001 4.51025H13.757C14.5028 4.51025 15.113 5.12044 15.113 5.86621V10.1845Z" fill="url(#paint0_linear_348_3945)"/>
<path fill-rule="evenodd" clip-rule="evenodd" d="M12.7288 7.93304C13.3245 8.14144 13.6222 8.49851 13.6222 9.0037C13.6222 9.33623 13.4987 9.60017 13.2524 9.79538C13.0062 9.99072 12.6551 10.1119 12.198 10.1119C11.741 10.1119 11.3183 9.97952 10.9289 9.76213C10.9331 9.64685 10.9636 9.52036 11.0195 9.38306C11.0754 9.24576 11.1416 9.13667 11.2175 9.057C11.5754 9.24297 11.8868 9.33611 12.1511 9.33611C12.276 9.33611 12.3727 9.31515 12.44 9.27293C12.5074 9.23086 12.5409 9.1744 12.5409 9.10345C12.5409 8.97009 12.4376 8.87036 12.2317 8.8039L11.8619 8.66421C11.3023 8.46029 11.0226 8.12802 11.0226 7.66649C11.0226 7.32948 11.1401 7.06237 11.3751 6.86477C11.6102 6.66746 11.927 6.49756 12.3254 6.49756C12.5224 6.49756 12.7394 6.52526 12.9768 6.58067C13.214 6.6362 13.4088 6.77299 13.561 6.84815C13.57 6.9724 13.5451 7.10879 13.4872 7.2573C13.4289 7.40595 13.3574 7.5112 13.272 7.57334C12.8957 7.40477 12.5826 7.32049 12.3317 7.32049C12.2419 7.32049 12.1742 7.34041 12.1267 7.3805C12.0798 7.42048 12.0567 7.47137 12.0567 7.53351C12.0567 7.63996 12.1416 7.72411 12.3119 7.78624L12.7288 7.93304Z" fill="#F6F6F6"/>
<path fill-rule="evenodd" clip-rule="evenodd" d="M9.75363 7.93304C10.3493 8.14144 10.6469 8.49851 10.6469 9.0037C10.6469 9.33623 10.5234 9.60017 10.2774 9.79538C10.031 9.99072 9.67978 10.1119 9.22287 10.1119C8.76623 10.1119 8.34294 9.97952 7.9537 9.76213C7.95791 9.64685 7.98838 9.52036 8.04444 9.38306C8.10037 9.24576 8.16631 9.13667 8.24243 9.057C8.60069 9.24297 8.91197 9.33611 9.17617 9.33611C9.30121 9.33611 9.39789 9.31515 9.46491 9.27293C9.53206 9.23086 9.56581 9.1744 9.56581 9.10345C9.56581 8.97009 9.46254 8.87036 9.25664 8.8039L8.88704 8.66421C8.32738 8.46029 8.04749 8.12802 8.04749 7.66649C8.04749 7.32948 8.16502 7.06237 8.40032 6.86477C8.63524 6.66746 8.95193 6.49756 9.35028 6.49756C9.54722 6.49756 9.76472 6.52526 10.0016 6.58067C10.2391 6.6362 10.4336 6.77299 10.5859 6.84815C10.5949 6.9724 10.57 7.10879 10.5121 7.2573C10.4539 7.40595 10.3823 7.5112 10.2971 7.57334C9.92064 7.40477 9.6075 7.32049 9.3565 7.32049C9.26681 7.32049 9.19888 7.34041 9.15165 7.3805C9.10483 7.42048 9.08149 7.47137 9.08149 7.53351C9.08149 7.63996 9.16655 7.72411 9.33685 7.78624L9.75363 7.93304Z" fill="#F6F6F6"/>
<path fill-rule="evenodd" clip-rule="evenodd" d="M7.58396 7.98009C7.58396 7.77617 7.55152 7.58767 7.48662 7.41461C7.42186 7.24156 7.32887 7.09316 7.20804 6.96891C7.08708 6.84467 6.94054 6.74718 6.76827 6.67621C6.59573 6.60538 6.4021 6.49854 6.18723 6.49854C5.93198 6.49854 5.70922 6.61409 5.51902 6.70285C5.32882 6.7915 5.17211 6.91338 5.04904 7.06863C4.92571 7.22399 4.83391 7.40683 4.77349 7.61747C4.71308 7.82812 4.68287 8.05762 4.68287 8.30586C4.68287 8.56282 4.7074 8.80049 4.75674 9.01773C4.80594 9.23471 4.88994 9.42307 5.00855 9.58295C5.12725 9.74254 5.28171 9.86667 5.47204 9.95517C5.66237 10.0438 5.89861 10.1119 6.18063 10.1119C6.69992 10.1119 7.13863 9.96151 7.49687 9.70892C7.46139 9.45197 7.36986 9.24765 7.22279 9.09688C7.03983 9.16558 6.87798 9.21479 6.73764 9.24501C6.59718 9.27484 6.47331 9.28986 6.36635 9.28986C6.15226 9.28986 5.9982 9.23539 5.9047 9.12539C5.81129 9.01578 5.76005 8.88612 5.75097 8.68919H7.49714C7.55482 8.50268 7.58396 8.25062 7.58396 7.98009ZM5.74432 8.02613C5.75762 7.79979 5.79893 7.55761 5.86765 7.4579C5.93651 7.35806 6.0419 7.30819 6.18421 7.30819C6.33077 7.30819 6.44076 7.36123 6.51397 7.46767C6.58732 7.57412 6.62396 7.78859 6.62396 7.95266L6.6241 8.02613H5.74432Z" fill="#F6F6F6"/>
<path fill-rule="evenodd" clip-rule="evenodd" d="M15.4645 8.46896C15.2747 8.63476 15.1645 8.87336 15.1645 9.18532V10.3471C15.1645 10.7333 15.0458 11.0271 14.7777 11.229C14.5098 11.4307 14.1974 11.5305 13.8409 11.5402L13.6296 11.5386V10.9597C13.8159 10.9053 13.8923 10.8421 13.9665 10.7704C14.1008 10.649 14.2036 10.4516 14.2036 10.1774V9.2394C14.2086 8.92059 14.2332 8.67077 14.3493 8.49032C14.4657 8.30987 14.6925 8.15212 15.0295 8.01586C14.6572 7.84545 14.4073 7.62292 14.2799 7.34843C14.2049 7.1854 14.2035 6.96539 14.2035 6.68865V5.82851C14.2035 5.54439 14.1105 5.34536 13.9961 5.23178C13.9218 5.15765 13.8352 5.09843 13.6293 5.05372V4.51027C13.8811 4.51291 14.0083 4.51003 14.155 4.51027C14.3808 4.50843 14.5699 4.6319 14.7345 4.76049C14.9138 4.90149 15.0412 5.09211 15.1159 5.33203C15.1583 5.47065 15.1644 5.60309 15.1644 5.72918V6.724C15.1644 7.07537 15.2682 7.33656 15.4456 7.5071C15.5456 7.60603 15.6867 7.6965 15.9291 7.77817V8.22756C15.7143 8.28693 15.5795 8.36739 15.4645 8.46896Z" fill="#F6F6F6" stroke="#404040" stroke-width="0.1"/>
<path fill-rule="evenodd" clip-rule="evenodd" d="M2.10762 4.5103V4.51108C2.03547 4.51069 1.97017 4.51042 1.91795 4.51055C1.692 4.50858 1.50286 4.63205 1.33838 4.76077C1.15887 4.90177 1.00521 5.08578 0.957069 5.3323C0.929632 5.47687 0.935437 5.60322 0.935437 5.72946V6.72428C0.935437 7.07553 0.804722 7.33657 0.627442 7.50739C0.527581 7.60631 0.314421 7.69665 0.0719833 7.7783V8.22767C0.286852 8.28691 0.493691 8.3671 0.608432 8.46894C0.798368 8.63487 0.935271 8.87362 0.935271 9.18555V10.3473C0.935271 10.7333 1.02735 11.0273 1.29524 11.229C1.56314 11.4305 1.87535 11.5308 2.23188 11.5405L2.47049 11.5389V10.9596C2.28436 10.9051 2.18097 10.842 2.10644 10.7705C1.97229 10.649 1.89631 10.4517 1.89631 10.1776V9.23948C1.89117 8.92042 1.83973 8.67085 1.72353 8.49027C1.60733 8.31009 1.38058 8.15207 1.04318 8.01594C1.41555 7.8454 1.66537 7.623 1.79279 7.34864C1.86785 7.18548 1.89633 6.96547 1.89633 6.68875V5.82861C1.89633 5.54448 1.96227 5.34546 2.07651 5.23176C2.1385 5.17004 2.24877 5.11924 2.40193 5.0781L2.6441 5.0798C2.6441 4.87135 2.6441 4.74086 2.6441 4.51025H2.10765V4.5103H2.10762Z" fill="#F6F6F6" stroke="#404040" stroke-width="0.1"/>
<path fill-rule="evenodd" clip-rule="evenodd" d="M4.34035 9.22368H4.15899C3.96181 9.22368 3.88754 9.12 3.88754 8.91174V5.08407C3.88754 4.85391 3.82107 4.69232 3.73597 4.59921C3.65089 4.50635 3.50317 4.50728 3.29278 4.50728H2.88322L2.83495 4.50635V4.5103L2.83455 5.07999V9.09694C2.83455 9.4164 2.90631 9.65015 3.03397 9.79893C3.16179 9.94744 3.37772 10.0216 3.68214 10.0216C3.89267 10.0216 4.1322 9.99941 4.40075 9.95496C4.4142 9.9101 4.42094 9.81409 4.42094 9.66675C4.42094 9.51902 4.39405 9.37168 4.34035 9.22368Z" fill="#F6F6F6"/>
<defs>
<linearGradient id="paint0_linear_348_3945" x1="1.00405" y1="4.51025" x2="1.00405" y2="11.5405" gradientUnits="userSpaceOnUse">
<stop offset="0.1497" stop-color="#2A4F84"/>
<stop offset="0.3884" stop-color="#294E82"/>
<stop offset="1" stop-color="#172E4E"/>
</linearGradient>
</defs>
</svg>
