<svg width="16" height="16" viewBox="0 0 16 16" fill="none" xmlns="http://www.w3.org/2000/svg">
<path fill-rule="evenodd" clip-rule="evenodd" d="M4.15903 9.22381H4.34039C4.39409 9.37181 4.42098 9.51917 4.42098 9.66685C4.42098 9.81421 4.41424 9.91021 4.40079 9.95509C4.13224 9.99957 3.8927 10.0217 3.68218 10.0217C3.37775 10.0217 3.16182 9.94757 3.03402 9.79909C2.90635 9.65029 2.83458 9.41653 2.83458 9.09709V5.08011L2.83498 4.51041V4.50647L2.88326 4.5074H3.29282H3.29902C3.50611 4.50739 3.65177 4.50738 3.73602 4.59933C3.82111 4.69244 3.88758 4.85402 3.88758 5.08419V8.91189C3.88758 9.12013 3.96185 9.22381 4.15903 9.22381ZM13.6223 9.00397C13.6223 8.49877 13.3245 8.14165 12.7288 7.93328L12.312 7.78647C12.1416 7.72435 12.0568 7.6402 12.0568 7.53375C12.0568 7.47161 12.0798 7.42072 12.1268 7.38073C12.1743 7.34065 12.242 7.32072 12.3318 7.32072C12.5827 7.32072 12.8958 7.40501 13.2721 7.57357C13.3574 7.51144 13.4289 7.40618 13.4872 7.25753C13.5451 7.10902 13.57 6.97263 13.5611 6.84839C13.5208 6.82849 13.4775 6.80427 13.4312 6.77839C13.3028 6.70649 13.1512 6.62173 12.9768 6.5809C12.7395 6.52549 12.5224 6.49779 12.3254 6.49779C11.9271 6.49779 11.6102 6.66769 11.3752 6.86501C11.1401 7.06261 11.0226 7.32971 11.0226 7.66672C11.0226 8.12829 11.3024 8.46053 11.8619 8.66445L12.2317 8.80413C12.4376 8.87061 12.5409 8.97037 12.5409 9.10365C12.5409 9.17461 12.5074 9.23109 12.44 9.27317C12.3728 9.31541 12.276 9.33637 12.1512 9.33637C11.8868 9.33637 11.5754 9.24317 11.2176 9.05725C11.1417 9.13693 11.0755 9.24597 11.0196 9.38333C10.9636 9.52061 10.9332 9.64709 10.9289 9.76237C11.3183 9.97973 11.7411 10.1122 12.1981 10.1122C12.6552 10.1122 13.0063 9.99093 13.2524 9.79565C13.4988 9.60037 13.6223 9.33645 13.6223 9.00397ZM9.75363 7.93328C10.3493 8.14165 10.6469 8.49877 10.6469 9.00397C10.6469 9.33645 10.5235 9.60037 10.2775 9.79565C10.0311 9.99093 9.67979 10.1122 9.22291 10.1122C8.76627 10.1122 8.34299 9.97973 7.95374 9.76237C7.95795 9.64709 7.98842 9.52061 8.04451 9.38333C8.10043 9.24597 8.16635 9.13693 8.24251 9.05725C8.60075 9.24317 8.91203 9.33637 9.17619 9.33637C9.30123 9.33637 9.39795 9.31541 9.46491 9.27317C9.53211 9.23109 9.56587 9.17461 9.56587 9.10365C9.56587 8.97037 9.46259 8.87061 9.25667 8.80413L8.88707 8.66445C8.32739 8.46053 8.04755 8.12829 8.04755 7.66672C8.04755 7.32971 8.16507 7.06261 8.40035 6.86501C8.63531 6.66769 8.95195 6.49779 9.35035 6.49779C9.54723 6.49779 9.76475 6.52549 10.0016 6.5809C10.1761 6.6217 10.3274 6.70637 10.4559 6.77823C10.5022 6.80417 10.5456 6.82845 10.586 6.84839C10.595 6.97263 10.57 7.10902 10.5121 7.25753C10.454 7.40618 10.3824 7.51144 10.2972 7.57357C9.92067 7.40501 9.60755 7.32072 9.35651 7.32072C9.26683 7.32072 9.19891 7.34065 9.15171 7.38073C9.10483 7.42072 9.08155 7.47161 9.08155 7.53375C9.08155 7.6402 9.16659 7.72435 9.33691 7.78647L9.75363 7.93328ZM7.48666 7.41474C7.55155 7.58781 7.584 7.7763 7.584 7.98022C7.584 8.25077 7.55485 8.50285 7.49717 8.68933H5.75101C5.76008 8.88629 5.81132 9.01589 5.90474 9.12557C5.99824 9.23549 6.1523 9.28997 6.36638 9.28997C6.47334 9.28997 6.59721 9.27501 6.73768 9.24517C6.87802 9.21493 7.03987 9.16573 7.22282 9.09701C7.3699 9.24781 7.46143 9.45213 7.49691 9.70909C7.13867 9.96165 6.69996 10.112 6.18066 10.112C5.89865 10.112 5.66241 10.044 5.47208 9.95533C5.28174 9.86685 5.12729 9.74269 5.00858 9.58309C4.88998 9.42317 4.80598 9.23485 4.75678 9.01789C4.70744 8.80061 4.6829 8.56293 4.6829 8.30597C4.6829 8.05773 4.71311 7.82825 4.77353 7.6176C4.83394 7.40697 4.92574 7.22413 5.04907 7.06876C5.17214 6.91351 5.32886 6.79164 5.51906 6.70299L5.56554 6.68114C5.74527 6.5964 5.95254 6.49867 6.18726 6.49867C6.36194 6.49867 6.52257 6.56928 6.66925 6.63374C6.703 6.64858 6.73602 6.6631 6.7683 6.67635C6.94058 6.74731 7.08711 6.84481 7.20807 6.96905C7.3289 7.09329 7.4219 7.24169 7.48666 7.41474ZM5.86769 7.45804C5.79897 7.55775 5.75766 7.79993 5.74436 8.02629H6.62413L6.624 7.9528C6.624 7.78873 6.58736 7.57425 6.51401 7.46781C6.4408 7.36137 6.3308 7.30833 6.18425 7.30833C6.04194 7.30833 5.93655 7.3582 5.86769 7.45804ZM15.4645 8.46877C15.2748 8.63461 15.1646 8.87317 15.1646 9.18517V10.3469C15.1646 10.7332 15.0459 11.0269 14.7777 11.2288C14.5098 11.4305 14.1975 11.5304 13.8409 11.54L13.6296 11.5384V10.9595C13.8159 10.9052 13.8924 10.842 13.9665 10.7702C14.1008 10.6488 14.2037 10.4514 14.2037 10.1772V9.23925C14.2087 8.92045 14.2332 8.67061 14.3493 8.49013C14.4658 8.30973 14.6925 8.15197 15.0295 8.01573C14.6573 7.84529 14.4073 7.62276 14.2799 7.34828C14.205 7.18525 14.2036 6.96524 14.2036 6.68849V5.82836C14.2036 5.54423 14.1105 5.34521 13.9962 5.23162C13.9218 5.15749 13.8352 5.09827 13.6294 5.05357V4.51012C13.7951 4.51185 13.9068 4.5112 14.0056 4.51061C14.057 4.51031 14.1048 4.51003 14.155 4.51012C14.3808 4.50828 14.57 4.63174 14.7346 4.76033C14.9139 4.90133 15.0412 5.09195 15.1159 5.33187C15.1584 5.47049 15.1644 5.60293 15.1644 5.72902V6.72384C15.1644 7.07521 15.2683 7.3364 15.4456 7.50694C15.5456 7.60588 15.6868 7.69635 15.9291 7.77801V8.22741C15.7144 8.28677 15.5796 8.36725 15.4645 8.46877ZM2.10766 4.5112L2.10769 4.51037H2.64414V5.07991L2.40197 5.07821C2.24881 5.11936 2.13854 5.17015 2.07655 5.23187C1.96231 5.34557 1.89637 5.5446 1.89637 5.82872V6.68885C1.89637 6.96558 1.86789 7.18559 1.79282 7.34876C1.66541 7.62311 1.41559 7.84551 1.04322 8.01605C1.38062 8.15221 1.60737 8.31021 1.72357 8.49037C1.83977 8.67093 1.89121 8.92053 1.89635 9.23957V10.1776C1.89635 10.4517 1.97233 10.6491 2.10648 10.7706C2.18101 10.842 2.2844 10.9052 2.47053 10.9597V11.539L2.23192 11.5406C1.87538 11.5308 1.56318 11.4306 1.29528 11.2291C1.02739 11.0274 0.935311 10.7334 0.935311 10.3475V9.18565C0.935311 8.87373 0.798406 8.63501 0.60847 8.46909C0.493729 8.36725 0.28689 8.28701 0.0720215 8.22781V7.77841C0.314459 7.69676 0.527619 7.60642 0.627481 7.5075C0.804759 7.33668 0.935479 7.07565 0.935479 6.72439V5.72957C0.935479 5.71086 0.935351 5.69216 0.935223 5.67338C0.934487 5.56549 0.933735 5.45556 0.957103 5.33241C1.00525 5.08589 1.1589 4.90189 1.33842 4.76088C1.5029 4.63216 1.69203 4.50869 1.91798 4.51066C1.97021 4.51053 2.03551 4.5108 2.10766 4.5112Z" fill="#FF00FF"/>
</svg>
