<svg width="16" height="16" viewBox="0 0 16 16" fill="none" xmlns="http://www.w3.org/2000/svg">
<path fill-rule="evenodd" clip-rule="evenodd" d="M15.1131 10.1847C15.1131 10.9304 14.5028 11.5407 13.7571 11.5407H2.36011C1.61433 11.5407 1.00415 10.9304 1.00415 10.1847V5.86634C1.00415 5.12056 1.61433 4.51038 2.36011 4.51038H13.7571C14.5028 4.51038 15.1131 5.12056 15.1131 5.86634V10.1847Z" fill="url(#paint0_linear_1406_3426)"/>
<path fill-rule="evenodd" clip-rule="evenodd" d="M12.729 7.93329C13.3246 8.14165 13.6223 8.49877 13.6223 9.00397C13.6223 9.33645 13.4989 9.60045 13.2525 9.79565C13.0063 9.99093 12.6552 10.1122 12.1982 10.1122C11.7411 10.1122 11.3184 9.97981 10.929 9.76237C10.9332 9.64709 10.9637 9.52061 11.0196 9.38333C11.0755 9.24597 11.1418 9.13693 11.2176 9.05725C11.5754 9.24325 11.8869 9.33637 12.1512 9.33637C12.2762 9.33637 12.3728 9.31541 12.4401 9.27317C12.5074 9.23109 12.541 9.17461 12.541 9.10373C12.541 8.97037 12.4377 8.87061 12.2318 8.80413L11.862 8.66445C11.3024 8.46053 11.0226 8.12829 11.0226 7.66673C11.0226 7.32972 11.1402 7.06262 11.3753 6.86502C11.6103 6.6677 11.9271 6.4978 12.3254 6.4978C12.5226 6.4978 12.7395 6.52551 12.977 6.58091C13.2141 6.63645 13.4089 6.77323 13.5611 6.84839C13.5701 6.97264 13.5452 7.10903 13.4873 7.25755C13.429 7.40619 13.3575 7.51145 13.2722 7.57359C12.8958 7.40502 12.5827 7.32073 12.3318 7.32073C12.242 7.32073 12.1743 7.34066 12.1269 7.38075C12.0799 7.42073 12.0568 7.47162 12.0568 7.53376C12.0568 7.64021 12.1418 7.72436 12.312 7.78648L12.729 7.93329Z" fill="#F6F6F6"/>
<path fill-rule="evenodd" clip-rule="evenodd" d="M9.75358 7.93329C10.3492 8.14165 10.6468 8.49877 10.6468 9.00397C10.6468 9.33645 10.5233 9.60045 10.2773 9.79565C10.0309 9.99093 9.67966 10.1122 9.22278 10.1122C8.76614 10.1122 8.34286 9.97981 7.95361 9.76237C7.95783 9.64709 7.9883 9.52061 8.04438 9.38333C8.1003 9.24597 8.16622 9.13693 8.24238 9.05725C8.60062 9.24325 8.9119 9.33637 9.17606 9.33637C9.3011 9.33637 9.39782 9.31541 9.46486 9.27317C9.53198 9.23109 9.56574 9.17461 9.56574 9.10373C9.56574 8.97037 9.46246 8.87061 9.25654 8.80413L8.88694 8.66445C8.32726 8.46053 8.04742 8.12829 8.04742 7.66673C8.04742 7.32972 8.16494 7.06262 8.40022 6.86502C8.63518 6.6677 8.95182 6.4978 9.35022 6.4978C9.5471 6.4978 9.76462 6.52551 10.0015 6.58091C10.2389 6.63645 10.4335 6.77323 10.5858 6.84839C10.5949 6.97264 10.5699 7.10903 10.512 7.25755C10.4538 7.40619 10.3822 7.51145 10.297 7.57359C9.92054 7.40502 9.60742 7.32073 9.35638 7.32073C9.2667 7.32073 9.19878 7.34066 9.15158 7.38075C9.1047 7.42073 9.08142 7.47162 9.08142 7.53376C9.08142 7.64021 9.16646 7.72436 9.33678 7.78648L9.75358 7.93329Z" fill="#F6F6F6"/>
<path fill-rule="evenodd" clip-rule="evenodd" d="M7.58395 7.98021C7.58395 7.77629 7.5515 7.58779 7.48661 7.41473C7.42185 7.24168 7.32885 7.09328 7.20803 6.96903C7.08707 6.84479 6.94053 6.7473 6.76825 6.67634C6.59572 6.60551 6.40209 6.49866 6.18721 6.49866C5.93197 6.49866 5.70921 6.61421 5.51901 6.70298C5.32881 6.79162 5.17209 6.9135 5.04903 7.06875C4.92569 7.22411 4.83389 7.40695 4.77348 7.61759C4.71306 7.82824 4.68286 8.0577 4.68286 8.30602C4.68286 8.56291 4.70739 8.80059 4.75673 9.01786C4.80593 9.23483 4.88993 9.42323 5.00853 9.58307C5.12725 9.74267 5.28169 9.86683 5.47203 9.95531C5.66237 10.0439 5.8986 10.112 6.18061 10.112C6.69991 10.112 7.13862 9.96163 7.49686 9.70907C7.46138 9.45211 7.36985 9.24778 7.22277 9.09698C7.03982 9.1657 6.87797 9.21491 6.73764 9.24515C6.59717 9.27499 6.4733 9.29003 6.36634 9.29003C6.15225 9.29003 5.9982 9.23555 5.90469 9.12555C5.81128 9.01587 5.76004 8.88627 5.75097 8.68931H7.49713C7.55481 8.50283 7.58395 8.25075 7.58395 7.98021ZM5.74431 8.02627C5.75761 7.79991 5.79892 7.55774 5.86765 7.45803C5.9365 7.35818 6.04189 7.30831 6.1842 7.30831C6.33076 7.30831 6.44075 7.36135 6.51396 7.46779C6.58731 7.57424 6.62396 7.78871 6.62396 7.95279L6.62409 8.02627H5.74431Z" fill="#F6F6F6"/>
<path fill-rule="evenodd" clip-rule="evenodd" d="M15.4646 8.46867C15.2748 8.63451 15.1647 8.87315 15.1647 9.18507V10.3469C15.1647 10.7331 15.046 11.0268 14.7778 11.2288C14.5099 11.4304 14.1976 11.5303 13.841 11.54L13.6297 11.5384V10.9594C13.816 10.9051 13.8924 10.8419 13.9666 10.7701C14.1008 10.6488 14.2037 10.4513 14.2037 10.1771V9.23915C14.2088 8.92035 14.2333 8.67051 14.3493 8.49011C14.4658 8.30963 14.6926 8.15187 15.0296 8.01563C14.6573 7.84521 14.4074 7.62267 14.28 7.34819C14.2051 7.18516 14.2036 6.96515 14.2036 6.68841V5.82827C14.2036 5.54414 14.1106 5.34512 13.9962 5.23153C13.9219 5.15741 13.8353 5.09818 13.6294 5.05348V4.51003C13.8812 4.51267 14.0084 4.50978 14.1551 4.51003C14.3808 4.50819 14.57 4.63165 14.7346 4.76025C14.9139 4.90125 15.0413 5.09186 15.116 5.33178C15.1584 5.47041 15.1645 5.60285 15.1645 5.72893V6.72375C15.1645 7.07513 15.2683 7.33631 15.4457 7.50685C15.5457 7.60579 15.6868 7.69626 15.9292 7.77793V8.22731C15.7144 8.28667 15.5796 8.36715 15.4646 8.46867Z" fill="#F6F6F6" stroke="#404040" stroke-width="0.1"/>
<path fill-rule="evenodd" clip-rule="evenodd" d="M2.10766 4.51042C2.03551 4.51002 1.97021 4.51054 1.91798 4.51067C1.69203 4.5087 1.5029 4.63217 1.33842 4.76089C1.1589 4.9019 1.00525 5.0859 0.957103 5.33242C0.929671 5.47699 0.935479 5.60334 0.935479 5.72958V6.7244C0.935479 7.07566 0.804759 7.33669 0.627481 7.50751C0.527619 7.60643 0.314459 7.69677 0.0720215 7.77842V8.22781C0.28689 8.28701 0.493729 8.36725 0.60847 8.46909C0.798406 8.63501 0.935311 8.87373 0.935311 9.18565V10.3475C0.935311 10.7334 1.02739 11.0274 1.29528 11.2291C1.56318 11.4306 1.87538 11.5309 2.23192 11.5406L2.47053 11.5391V10.9597C2.2844 10.9052 2.18101 10.842 2.10648 10.7706C1.97233 10.6491 1.89635 10.4518 1.89635 10.1776V9.23957C1.89121 8.92053 1.83977 8.67101 1.72357 8.49037C1.60737 8.31021 1.38062 8.15221 1.04322 8.01605C1.41559 7.84552 1.66541 7.62312 1.79282 7.34877C1.86789 7.1856 1.89637 6.96559 1.89637 6.68886V5.82873C1.89637 5.54461 1.96231 5.34558 2.07655 5.23188C2.13854 5.17016 2.24881 5.11937 2.40197 5.07822L2.64413 5.07992C2.64413 4.87147 2.64413 4.74098 2.64413 4.51038L2.10766 4.51042Z" fill="#F6F6F6" stroke="#404040" stroke-width="0.1"/>
<path fill-rule="evenodd" clip-rule="evenodd" d="M4.34028 9.22381H4.15892C3.96174 9.22381 3.88746 9.12013 3.88746 8.91189V5.08419C3.88746 4.85402 3.821 4.69244 3.7359 4.59933C3.65082 4.50647 3.5031 4.5074 3.29271 4.5074H2.88314L2.83487 4.50647V4.51041L2.83447 5.08011V9.09709C2.83447 9.41653 2.90623 9.65029 3.0339 9.79909C3.16171 9.94757 3.37764 10.0217 3.68207 10.0217C3.89259 10.0217 4.13213 9.99957 4.40067 9.95509C4.41413 9.91021 4.42086 9.81421 4.42086 9.66685C4.42086 9.51917 4.39398 9.37181 4.34028 9.22381Z" fill="#F6F6F6"/>
<defs>
<linearGradient id="paint0_linear_1406_3426" x1="1.00415" y1="4.51038" x2="1.00415" y2="11.5407" gradientUnits="userSpaceOnUse">
<stop offset="0.1497" stop-color="#2A4F84"/>
<stop offset="0.3884" stop-color="#294E82"/>
<stop offset="1" stop-color="#172E4E"/>
</linearGradient>
</defs>
</svg>
