<svg width="16" height="16" viewBox="0 0 16 16" fill="none" xmlns="http://www.w3.org/2000/svg">
<path fill-rule="evenodd" clip-rule="evenodd" d="M4.15908 9.22375H4.34044C4.39413 9.37175 4.42102 9.5191 4.42102 9.66678C4.42102 9.81414 4.41429 9.91014 4.40084 9.95502C4.13229 9.9995 3.89275 10.0217 3.68223 10.0217C3.3778 10.0217 3.16187 9.94751 3.03406 9.79903C2.9064 9.65023 2.83463 9.41646 2.83463 9.09702V5.08005L2.83503 4.51035V4.50641L2.8833 4.50734H3.29287H3.29906C3.50616 4.50733 3.65181 4.50732 3.73606 4.59926C3.82116 4.69238 3.88762 4.85396 3.88762 5.08413V8.91182C3.88762 9.12006 3.96189 9.22375 4.15908 9.22375ZM13.6223 9.0039C13.6223 8.4987 13.3246 8.14158 12.7289 7.93322L12.312 7.78641C12.1417 7.72429 12.0568 7.64014 12.0568 7.53369C12.0568 7.47155 12.0798 7.42066 12.1268 7.38067C12.1743 7.34058 12.242 7.32066 12.3318 7.32066C12.5827 7.32066 12.8958 7.40495 13.2722 7.57351C13.3574 7.51138 13.429 7.40612 13.4873 7.25747C13.5451 7.10896 13.5701 6.97257 13.5611 6.84833C13.5208 6.82842 13.4775 6.80421 13.4313 6.77833C13.3028 6.70643 13.1513 6.62167 12.9769 6.58084C12.7395 6.52543 12.5225 6.49773 12.3254 6.49773C11.9271 6.49773 11.6102 6.66762 11.3752 6.86494C11.1402 7.06254 11.0226 7.32965 11.0226 7.66666C11.0226 8.12822 11.3024 8.46046 11.8619 8.66438L12.2318 8.80407C12.4377 8.87055 12.541 8.97031 12.541 9.10359C12.541 9.17455 12.5074 9.23102 12.4401 9.2731C12.3728 9.31534 12.2761 9.3363 12.1512 9.3363C11.8869 9.3363 11.5754 9.2431 11.2176 9.05718C11.1418 9.13686 11.0755 9.2459 11.0196 9.38326C10.9637 9.52054 10.9332 9.64702 10.929 9.7623C11.3183 9.97966 11.7411 10.1121 12.1982 10.1121C12.6552 10.1121 13.0063 9.99086 13.2524 9.79558C13.4988 9.6003 13.6223 9.33638 13.6223 9.0039ZM9.75368 7.93322C10.3494 8.14158 10.647 8.4987 10.647 9.0039C10.647 9.33638 10.5235 9.6003 10.2775 9.79558C10.0311 9.99086 9.67984 10.1121 9.22296 10.1121C8.76632 10.1121 8.34304 9.97966 7.95378 9.7623C7.958 9.64702 7.98847 9.52054 8.04456 9.38326C8.10048 9.2459 8.1664 9.13686 8.24256 9.05718C8.6008 9.2431 8.91208 9.3363 9.17624 9.3363C9.30128 9.3363 9.398 9.31534 9.46496 9.2731C9.53216 9.23102 9.56592 9.17455 9.56592 9.10359C9.56592 8.97031 9.46264 8.87055 9.25672 8.80407L8.88712 8.66438C8.32744 8.46046 8.0476 8.12822 8.0476 7.66666C8.0476 7.32965 8.16512 7.06254 8.4004 6.86494C8.63536 6.66762 8.952 6.49773 9.3504 6.49773C9.54728 6.49773 9.7648 6.52543 10.0017 6.58084C10.1762 6.62164 10.3274 6.70631 10.4559 6.77817C10.5022 6.80411 10.5456 6.82838 10.586 6.84833C10.595 6.97257 10.5701 7.10896 10.5122 7.25747C10.454 7.40612 10.3824 7.51138 10.2972 7.57351C9.92072 7.40495 9.6076 7.32066 9.35656 7.32066C9.26688 7.32066 9.19896 7.34058 9.15176 7.38067C9.10488 7.42066 9.0816 7.47155 9.0816 7.53369C9.0816 7.64014 9.16664 7.72429 9.33696 7.78641L9.75368 7.93322ZM7.4867 7.41468C7.5516 7.58774 7.58404 7.77624 7.58404 7.98016C7.58404 8.2507 7.5549 8.50278 7.49722 8.68926H5.75105C5.76012 8.88622 5.81137 9.01583 5.90478 9.12551C5.99829 9.23543 6.15234 9.2899 6.36643 9.2899C6.47339 9.2899 6.59725 9.27495 6.73773 9.24511C6.87806 9.21487 7.03992 9.16566 7.22287 9.09694C7.36994 9.24774 7.46148 9.45206 7.49696 9.70902C7.13872 9.96158 6.70001 10.112 6.18071 10.112C5.89869 10.112 5.66245 10.0439 5.47212 9.95527C5.28179 9.86679 5.12733 9.74262 5.00863 9.58302C4.89002 9.4231 4.80602 9.23478 4.75682 9.01782C4.70749 8.80054 4.68295 8.56286 4.68295 8.3059C4.68295 8.05766 4.71316 7.82819 4.77357 7.61754C4.83399 7.4069 4.92579 7.22406 5.04912 7.0687C5.17219 6.91345 5.3289 6.79158 5.5191 6.70293L5.56559 6.68108C5.74532 6.59634 5.95258 6.49861 6.18731 6.49861C6.36198 6.49861 6.52261 6.56922 6.66929 6.63368C6.70305 6.64852 6.73607 6.66304 6.76835 6.67629C6.94062 6.74725 7.08716 6.84475 7.20812 6.96899C7.32895 7.09323 7.42194 7.24163 7.4867 7.41468ZM5.86773 7.45798C5.79901 7.55769 5.75771 7.79986 5.74441 8.02622H6.62418L6.62404 7.95274C6.62404 7.78866 6.5874 7.57419 6.51405 7.46774C6.44084 7.3613 6.33085 7.30826 6.18429 7.30826C6.04198 7.30826 5.9366 7.35814 5.86773 7.45798ZM15.4646 8.46871C15.2748 8.63455 15.1646 8.8731 15.1646 9.1851V10.3469C15.1646 10.7331 15.0459 11.0269 14.7778 11.2288C14.5098 11.4305 14.1975 11.5303 13.841 11.5399L13.6297 11.5384V10.9594C13.8159 10.9051 13.8924 10.8419 13.9666 10.7701C14.1009 10.6488 14.2038 10.4513 14.2038 10.1771V9.23918C14.2087 8.92038 14.2333 8.67055 14.3494 8.49007C14.4658 8.30967 14.6926 8.1519 15.0295 8.01566C14.6574 7.84523 14.4074 7.6227 14.2799 7.34822C14.205 7.18519 14.2036 6.96518 14.2036 6.68843V5.8283C14.2036 5.54417 14.1106 5.34514 13.9962 5.23156C13.9218 5.15743 13.8353 5.09821 13.6294 5.0535V4.51006C13.7951 4.51179 13.9069 4.51114 14.0057 4.51055C14.057 4.51025 14.1049 4.50997 14.155 4.51006C14.3809 4.50822 14.57 4.63168 14.7346 4.76027C14.9139 4.90127 15.0413 5.09189 15.1159 5.33181C15.1584 5.47043 15.1645 5.60287 15.1645 5.72896V6.72378C15.1645 7.07515 15.2683 7.33634 15.4457 7.50688C15.5457 7.60582 15.6868 7.69629 15.9291 7.77795V8.22734C15.7144 8.2867 15.5796 8.36719 15.4646 8.46871ZM2.1077 4.51114L2.10773 4.5103H2.64418V5.07985L2.40201 5.07815C2.24885 5.1193 2.13859 5.17009 2.0766 5.23181C1.96236 5.3455 1.89641 5.54454 1.89641 5.82866V6.68879C1.89641 6.96552 1.86793 7.18553 1.79287 7.3487C1.66545 7.62305 1.41564 7.84545 1.04326 8.01599C1.38067 8.15215 1.60741 8.31014 1.72361 8.4903C1.83981 8.67086 1.89125 8.92047 1.8964 9.23951V10.1776C1.8964 10.4517 1.97237 10.649 2.10653 10.7705C2.18105 10.842 2.28444 10.9052 2.47057 10.9597V11.5389L2.23196 11.5405C1.87543 11.5308 1.56322 11.4305 1.29533 11.229C1.02744 11.0273 0.935357 10.7333 0.935357 10.3474V9.18559C0.935357 8.87367 0.798452 8.63494 0.608516 8.46902C0.493775 8.36718 0.286935 8.28695 0.0720673 8.22775V7.77834C0.314505 7.6967 0.527665 7.60636 0.627527 7.50744C0.804805 7.33662 0.935525 7.07558 0.935525 6.72433V5.72951C0.935525 5.7108 0.935397 5.6921 0.935269 5.67332C0.934533 5.56542 0.933781 5.4555 0.957149 5.33235C1.00529 5.08583 1.15895 4.90182 1.33847 4.76082C1.50294 4.6321 1.69208 4.50862 1.91803 4.5106C1.97025 4.51047 2.03556 4.51074 2.1077 4.51114Z" fill="#FF00FF"/>
</svg>
