<svg width="16" height="16" viewBox="0 0 16 16" fill="none" xmlns="http://www.w3.org/2000/svg">
<path fill-rule="evenodd" clip-rule="evenodd" d="M15.113 10.1847C15.113 10.9304 14.5028 11.5407 13.757 11.5407H2.36005C1.61427 11.5407 1.00409 10.9304 1.00409 10.1847V5.86634C1.00409 5.12056 1.61427 4.51038 2.36005 4.51038H13.757C14.5028 4.51038 15.113 5.12056 15.113 5.86634V10.1847Z" fill="url(#paint0_linear_1_710)"/>
<path fill-rule="evenodd" clip-rule="evenodd" d="M12.7289 7.93323C13.3246 8.14159 13.6223 8.49871 13.6223 9.00391C13.6223 9.33639 13.4988 9.60039 13.2524 9.79559C13.0063 9.99087 12.6551 10.1121 12.1981 10.1121C11.7411 10.1121 11.3183 9.97975 10.9289 9.76231C10.9331 9.64703 10.9636 9.52055 11.0195 9.38327C11.0755 9.24591 11.1417 9.13687 11.2175 9.05719C11.5754 9.24319 11.8868 9.33631 12.1511 9.33631C12.2761 9.33631 12.3727 9.31535 12.44 9.27311C12.5074 9.23103 12.5409 9.17455 12.5409 9.10367C12.5409 8.97031 12.4376 8.87055 12.2318 8.80407L11.8619 8.66439C11.3023 8.46047 11.0226 8.12823 11.0226 7.66667C11.0226 7.32966 11.1401 7.06256 11.3752 6.86496C11.6103 6.66764 11.9271 6.49774 12.3254 6.49774C12.5225 6.49774 12.7395 6.52545 12.9769 6.58085C13.214 6.63639 13.4088 6.77317 13.5611 6.84833C13.57 6.97258 13.5451 7.10897 13.4872 7.25749C13.4289 7.40613 13.3575 7.51139 13.2721 7.57353C12.8958 7.40496 12.5827 7.32067 12.3318 7.32067C12.2419 7.32067 12.1743 7.3406 12.1268 7.38069C12.0799 7.42067 12.0567 7.47156 12.0567 7.5337C12.0567 7.64015 12.1417 7.7243 12.3119 7.78642L12.7289 7.93323Z" fill="#F6F6F6"/>
<path fill-rule="evenodd" clip-rule="evenodd" d="M9.75367 7.93323C10.3493 8.14159 10.6469 8.49871 10.6469 9.00391C10.6469 9.33639 10.5234 9.60039 10.2774 9.79559C10.031 9.99087 9.67975 10.1121 9.22287 10.1121C8.76623 10.1121 8.34295 9.97975 7.9537 9.76231C7.95792 9.64703 7.98839 9.52055 8.04447 9.38327C8.10039 9.24591 8.16631 9.13687 8.24247 9.05719C8.60071 9.24319 8.91199 9.33631 9.17615 9.33631C9.30119 9.33631 9.39791 9.31535 9.46495 9.27311C9.53207 9.23103 9.56583 9.17455 9.56583 9.10367C9.56583 8.97031 9.46255 8.87055 9.25663 8.80407L8.88703 8.66439C8.32735 8.46047 8.04751 8.12823 8.04751 7.66667C8.04751 7.32966 8.16503 7.06256 8.40031 6.86496C8.63527 6.66764 8.95191 6.49774 9.35031 6.49774C9.54719 6.49774 9.76471 6.52545 10.0016 6.58085C10.239 6.63639 10.4336 6.77317 10.5859 6.84833C10.595 6.97258 10.57 7.10897 10.5121 7.25749C10.4539 7.40613 10.3823 7.51139 10.2971 7.57353C9.92063 7.40496 9.60751 7.32067 9.35647 7.32067C9.26679 7.32067 9.19887 7.3406 9.15167 7.38069C9.10479 7.42067 9.08151 7.47156 9.08151 7.5337C9.08151 7.64015 9.16655 7.7243 9.33687 7.78642L9.75367 7.93323Z" fill="#F6F6F6"/>
<path fill-rule="evenodd" clip-rule="evenodd" d="M7.58392 7.98021C7.58392 7.77629 7.55147 7.58779 7.48658 7.41473C7.42182 7.24168 7.32882 7.09328 7.208 6.96903C7.08704 6.84479 6.9405 6.7473 6.76822 6.67634C6.59569 6.60551 6.40205 6.49866 6.18718 6.49866C5.93194 6.49866 5.70918 6.61421 5.51898 6.70298C5.32878 6.79162 5.17206 6.9135 5.049 7.06875C4.92566 7.22411 4.83386 7.40695 4.77345 7.61759C4.71303 7.82824 4.68283 8.0577 4.68283 8.30602C4.68283 8.5629 4.70736 8.80059 4.75669 9.01787C4.80589 9.23483 4.8899 9.42323 5.0085 9.58307C5.12721 9.74267 5.28166 9.86683 5.472 9.95531C5.66233 10.0439 5.89857 10.112 6.18058 10.112C6.69988 10.112 7.13859 9.96163 7.49683 9.70907C7.46135 9.45211 7.36981 9.24778 7.22274 9.09698C7.03979 9.1657 6.87794 9.21491 6.73761 9.24515C6.59714 9.27499 6.47327 9.29003 6.36631 9.29003C6.15221 9.29003 5.99817 9.23555 5.90465 9.12555C5.81125 9.01587 5.76001 8.88627 5.75093 8.68931H7.49709C7.55477 8.50283 7.58392 8.25075 7.58392 7.98021ZM5.74428 8.02626C5.75758 7.79991 5.79889 7.55774 5.86761 7.45803C5.93647 7.35818 6.04185 7.30831 6.18417 7.30831C6.33073 7.30831 6.44072 7.36135 6.51393 7.46779C6.58728 7.57424 6.62393 7.78871 6.62393 7.95279L6.62405 8.02626H5.74428Z" fill="#F6F6F6"/>
<path fill-rule="evenodd" clip-rule="evenodd" d="M15.4645 8.46873C15.2746 8.63457 15.1646 8.87321 15.1646 9.18513V10.347C15.1646 10.7331 15.0458 11.0269 14.7777 11.2288C14.5098 11.4305 14.1974 11.5303 13.8409 11.54L13.6296 11.5384V10.9595C13.8158 10.9051 13.8923 10.8419 13.9665 10.7702C14.1007 10.6489 14.2036 10.4514 14.2036 10.1771V9.23921C14.2086 8.92041 14.2332 8.67057 14.3492 8.49017C14.4657 8.30969 14.6925 8.15193 15.0294 8.01569C14.6572 7.84527 14.4073 7.62273 14.2798 7.34825C14.205 7.18522 14.2034 6.96521 14.2034 6.68847V5.82833C14.2034 5.5442 14.1105 5.34518 13.9961 5.2316C13.9218 5.15747 13.8352 5.09824 13.6293 5.05354V4.51009C13.8811 4.51273 14.0082 4.50984 14.155 4.51009C14.3807 4.50825 14.5699 4.63172 14.7345 4.76031C14.9138 4.90131 15.0412 5.09192 15.1158 5.33184C15.1583 5.47047 15.1644 5.60291 15.1644 5.729V6.72381C15.1644 7.07519 15.2682 7.33637 15.4456 7.50691C15.5456 7.60585 15.6867 7.69632 15.929 7.77799V8.22737C15.7143 8.28673 15.5795 8.36721 15.4645 8.46873Z" fill="#F6F6F6" stroke="#404040" stroke-width="0.1"/>
<path fill-rule="evenodd" clip-rule="evenodd" d="M2.10772 4.51036C2.03557 4.50996 1.97027 4.51048 1.91804 4.51061C1.69209 4.50863 1.50296 4.63211 1.33848 4.76083C1.15896 4.90183 1.00531 5.08584 0.957164 5.33236C0.929732 5.47693 0.93554 5.60328 0.93554 5.72952V6.72434C0.93554 7.0756 0.80482 7.33663 0.627542 7.50745C0.52768 7.60637 0.31452 7.69671 0.0720825 7.77836V8.22775C0.286951 8.28695 0.49379 8.36719 0.608531 8.46903C0.798467 8.63495 0.935372 8.87367 0.935372 9.18559V10.3474C0.935372 10.7333 1.02745 11.0273 1.29534 11.229C1.56324 11.4305 1.87544 11.5309 2.23198 11.5405L2.47059 11.539V10.9597C2.28446 10.9052 2.18107 10.842 2.10654 10.7705C1.97239 10.649 1.89641 10.4517 1.89641 10.1776V9.23951C1.89127 8.92047 1.83983 8.67095 1.72363 8.49031C1.60743 8.31015 1.38068 8.15215 1.04328 8.01599C1.41565 7.84546 1.66547 7.62306 1.79288 7.34871C1.86795 7.18554 1.89643 6.96553 1.89643 6.6888V5.82867C1.89643 5.54455 1.96237 5.34552 2.07661 5.23182C2.1386 5.1701 2.24887 5.11931 2.40203 5.07816L2.6442 5.07986C2.6442 4.87141 2.6442 4.74092 2.6442 4.51031L2.10772 4.51036Z" fill="#F6F6F6" stroke="#404040" stroke-width="0.1"/>
<path fill-rule="evenodd" clip-rule="evenodd" d="M4.34037 9.22375H4.15901C3.96183 9.22375 3.88756 9.12006 3.88756 8.91182V5.08413C3.88756 4.85396 3.82109 4.69238 3.73599 4.59926C3.65091 4.50641 3.50319 4.50734 3.2928 4.50734H2.88324L2.83496 4.50641V4.51035L2.83456 5.08005V9.09702C2.83456 9.41646 2.90632 9.65023 3.03399 9.79903C3.1618 9.94751 3.37773 10.0217 3.68216 10.0217C3.89268 10.0217 4.13222 9.9995 4.40076 9.95502C4.41422 9.91014 4.42096 9.81414 4.42096 9.66678C4.42096 9.5191 4.39407 9.37175 4.34037 9.22375Z" fill="#F6F6F6"/>
<defs>
<linearGradient id="paint0_linear_1_710" x1="1.00409" y1="4.51038" x2="1.00409" y2="11.5407" gradientUnits="userSpaceOnUse">
<stop offset="0.1497" stop-color="#2A4F84"/>
<stop offset="0.3884" stop-color="#294E82"/>
<stop offset="1" stop-color="#172E4E"/>
</linearGradient>
</defs>
</svg>
