<svg width="16" height="16" viewBox="0 0 16 16" fill="none" xmlns="http://www.w3.org/2000/svg">
<path fill-rule="evenodd" clip-rule="evenodd" d="M8 1.5C6.48122 1.5 5.25 2.73122 5.25 4.25V6C5.25 6.41421 4.91421 6.75 4.5 6.75C4.08579 6.75 3.75 6.41421 3.75 6V4.25C3.75 1.90279 5.65279 0 8 0C10.3472 0 12.25 1.90279 12.25 4.25V6C12.25 6.41421 11.9142 6.75 11.5 6.75C11.0858 6.75 10.75 6.41421 10.75 6V4.25C10.75 2.73122 9.51878 1.5 8 1.5ZM8 5.25C8.41421 5.25 8.75 5.58579 8.75 6V10C8.75 10.4142 8.41421 10.75 8 10.75C7.58579 10.75 7.25 10.4142 7.25 10V6C7.25 5.58579 7.58579 5.25 8 5.25ZM5.25 11.75C5.25 13.2688 6.48122 14.5 8 14.5C9.51878 14.5 10.75 13.2688 10.75 11.75V10C10.75 9.58579 11.0858 9.25 11.5 9.25C11.9142 9.25 12.25 9.58579 12.25 10V11.75C12.25 14.0972 10.3472 16 8 16C5.65279 16 3.75 14.0972 3.75 11.75V10C3.75 9.58579 4.08579 9.25 4.5 9.25C4.91421 9.25 5.25 9.58579 5.25 10V11.75Z" fill="#FF00FF"/>
</svg>
