<svg width="16" height="16" viewBox="0 0 16 16" fill="none" xmlns="http://www.w3.org/2000/svg">
<g clip-path="url(#clip0_348_3717)">
<path d="M16 1.17647V14.8235C16 15.1355 15.8761 15.4348 15.6554 15.6554C15.4348 15.8761 15.1355 16 14.8235 16H1.17647C0.864451 16 0.565211 15.8761 0.34458 15.6554C0.123949 15.4348 0 15.1355 0 14.8235L0 1.17647C0 0.864451 0.123949 0.565211 0.34458 0.34458C0.565211 0.123949 0.864451 0 1.17647 0L14.8235 0C15.1355 0 15.4348 0.123949 15.6554 0.34458C15.8761 0.565211 16 0.864451 16 1.17647Z" fill="#0A66C2"/>
<path d="M4.70588 6.11749H2.35294V13.6469H4.70588V6.11749ZM4.91764 3.52926C4.91888 3.35128 4.88506 3.17479 4.81809 3.00989C4.75112 2.84498 4.65233 2.69488 4.52735 2.56815C4.40238 2.44143 4.25366 2.34056 4.0897 2.27131C3.92574 2.20206 3.74974 2.16578 3.57176 2.16455H3.52941C3.16747 2.16455 2.82035 2.30833 2.56442 2.56426C2.30848 2.8202 2.1647 3.16731 2.1647 3.52926C2.1647 3.8912 2.30848 4.23832 2.56442 4.49425C2.82035 4.75018 3.16747 4.89396 3.52941 4.89396C3.7074 4.89834 3.88451 4.86761 4.05062 4.80351C4.21674 4.73942 4.36859 4.64322 4.49751 4.52042C4.62643 4.39762 4.72989 4.25062 4.80198 4.08782C4.87407 3.92501 4.91337 3.74961 4.91764 3.57161V3.52926ZM13.6471 9.07279C13.6471 6.80926 12.2071 5.92926 10.7765 5.92926C10.3081 5.9058 9.8417 6.00557 9.42388 6.2186C9.00607 6.43164 8.65142 6.7505 8.39529 7.14337H8.32941V6.11749H6.11764V13.6469H8.47059V9.6422C8.43657 9.23205 8.56577 8.82504 8.83011 8.5096C9.09445 8.19416 9.47258 7.99575 9.88235 7.95749H9.97176C10.72 7.95749 11.2753 8.42808 11.2753 9.61396V13.6469H13.6282L13.6471 9.07279Z" fill="white"/>
</g>
<defs>
<clipPath id="clip0_348_3717">
<rect width="16" height="16" fill="white"/>
</clipPath>
</defs>
</svg>
