<svg width="16" height="16" viewBox="0 0 16 16" fill="none" xmlns="http://www.w3.org/2000/svg">
<g clip-path="url(#clip0_1_722)">
<path d="M14.8157 0H1.18098C0.529437 0 0 0.516438 0 1.15321V14.8452C0 15.4826 0.529437 15.9998 1.18098 15.9998H14.8157C15.4683 15.9998 16 15.4826 16 14.8452V1.15321C16 0.516438 15.4683 0 14.8157 0Z" fill="#0077B5"/>
<path fill-rule="evenodd" clip-rule="evenodd" d="M3.55933 4.95462C2.79867 4.95462 2.18301 4.33785 2.18301 3.57829C2.18301 2.81931 2.79867 2.20276 3.55933 2.20276C4.31798 2.20276 4.93453 2.81931 4.93453 3.57829C4.93453 4.33785 4.31798 4.95462 3.55933 4.95462ZM13.6338 13.6339H11.2623V9.92074C11.2623 9.0349 11.2461 7.89601 10.0292 7.89601C8.79425 7.89601 8.60513 8.86065 8.60513 9.85665V13.6339H6.23373V5.99837H8.51025V7.04158H8.54185C8.85849 6.44137 9.63257 5.80837 10.7871 5.80837C13.1902 5.80837 13.6338 7.3898 13.6338 9.4457V13.6339ZM4.74542 13.6339H2.37223V5.99837H4.74542V13.6339Z" fill="white"/>
</g>
<defs>
<clipPath id="clip0_1_722">
<rect width="16" height="16" fill="white"/>
</clipPath>
</defs>
</svg>
