<svg width="16" height="16" viewBox="0 0 16 16" fill="none" xmlns="http://www.w3.org/2000/svg">
<g clip-path="url(#clip0_1406_3425)">
<path fill-rule="evenodd" clip-rule="evenodd" d="M1.18098 0H14.8157C15.4683 0 16 0.516438 16 1.15321V14.8452C16 15.4826 15.4683 15.9998 14.8157 15.9998H1.18098C0.529437 15.9998 0 15.4826 0 14.8452V1.15321C0 0.516438 0.529437 0 1.18098 0ZM2.18297 3.57828C2.18297 4.33783 2.79862 4.9546 3.55928 4.9546C4.31794 4.9546 4.93449 4.33783 4.93449 3.57828C4.93449 2.8193 4.31794 2.20274 3.55928 2.20274C2.79862 2.20274 2.18297 2.8193 2.18297 3.57828ZM11.2623 13.6339H13.6338V9.44568C13.6338 7.38978 13.1902 5.80837 10.787 5.80837C9.63256 5.80837 8.8584 6.44135 8.54176 7.04157H8.51024V5.99836H6.23369V13.6339H8.60512V9.85664C8.60512 8.86064 8.79424 7.896 10.0292 7.896C11.2461 7.896 11.2623 9.03488 11.2623 9.92072V13.6339ZM2.37219 13.6339H4.74538V5.99836H2.37219V13.6339Z" fill="#FF00FF"/>
</g>
<defs>
<clipPath id="clip0_1406_3425">
<rect width="16" height="16" fill="white"/>
</clipPath>
</defs>
</svg>
