<svg width="16" height="16" viewBox="0 0 16 16" fill="none" xmlns="http://www.w3.org/2000/svg">
<path fill-rule="evenodd" clip-rule="evenodd" d="M4.5 6V2.5C4.5 1.11929 5.61929 0 7 0H9C10.3807 0 11.5 1.11929 11.5 2.5V4H10.5V2.5C10.5 1.67157 9.8284 1 9 1H7C6.17157 1 5.5 1.67157 5.5 2.5V6H12C13.1046 6 14 6.89543 14 8V14C14 15.1046 13.1046 16 12 16H4C2.89543 16 2 15.1046 2 14V8C2 6.89543 2.89543 6 4 6H4.5ZM7 10C7 9.4477 7.44772 9 8 9C8.5523 9 9 9.4477 9 10V12C9 12.5523 8.5523 13 8 13C7.44772 13 7 12.5523 7 12V10Z" fill="#FF00FF"/>
</svg>
