<svg width="16" height="16" viewBox="0 0 16 16" fill="none" xmlns="http://www.w3.org/2000/svg">
<path fill-rule="evenodd" clip-rule="evenodd" d="M5.5 2.5V5H10.5V2.5C10.5 1.67157 9.8284 1 9 1H7C6.17157 1 5.5 1.67157 5.5 2.5ZM11.5 5H12C13.1046 5 14 5.89543 14 7V13C14 14.1046 13.1046 15 12 15H4C2.89543 15 2 14.1046 2 13V7C2 5.89543 2.89543 5 4 5H4.5V2.5C4.5 1.11929 5.61929 0 7 0H9C10.3807 0 11.5 1.11929 11.5 2.5V5ZM7 9C7 8.4477 7.44772 8 8 8C8.5523 8 9 8.4477 9 9V11C9 11.5523 8.5523 12 8 12C7.44772 12 7 11.5523 7 11V9Z" fill="#FF00FF"/>
</svg>
