<svg width="16" height="16" viewBox="0 0 16 16" fill="none" xmlns="http://www.w3.org/2000/svg">
<path fill-rule="evenodd" clip-rule="evenodd" d="M8.9464 5.79454C10.3028 4.70306 11.3754 4.1731 12.2461 4.1731C14.2966 4.1731 15.981 5.87026 16 7.93966C16 10.0091 14.3218 11.7062 12.265 11.7062C11.3943 11.7062 10.3218 11.1763 8.96528 10.0848C8.59304 9.78821 8.26496 9.50429 8 9.25829C7.7224 9.51061 7.39432 9.78821 7.0347 10.0848C5.67823 11.1763 4.60568 11.7062 3.73502 11.7062C1.67823 11.7062 0 10.028 0 7.93966C0 5.87026 1.67823 4.1731 3.73502 4.1731C4.58675 4.1731 5.67823 4.70306 7.01578 5.79454C7.38645 6.08983 7.71333 6.3726 7.97773 6.61794L7.19874 7.36552L7.29338 8.58949L8.52368 8.75357L9.38168 7.93334L8.14512 7.83871L7.98182 6.62036C8.25928 6.36818 8.58704 6.09081 8.9464 5.79454ZM7.98182 6.62036L7.98107 6.61474L7.97773 6.61794L7.98107 6.62104L7.98182 6.62036ZM3.7287 9.76933C3.82334 9.76933 4.4164 9.71253 5.82966 8.58949C6.08256 8.38157 6.30542 8.18861 6.51609 8.00629L6.59306 7.93966C6.37224 7.73776 6.10726 7.50433 5.82966 7.2835C4.4164 6.16678 3.83596 6.1037 3.7287 6.1037C2.73817 6.1037 1.92429 6.92388 1.92429 7.93334C1.92429 8.94285 2.73186 9.76933 3.7287 9.76933ZM10.1451 8.59581C11.5583 9.71253 12.1388 9.77565 12.2461 9.77565C13.2366 9.77565 14.0505 8.94909 14.0315 7.93966C14.0315 6.93019 13.224 6.1037 12.2271 6.1037C12.1325 6.1037 11.5394 6.16678 10.1262 7.30243C9.8612 7.51694 9.60256 7.73776 9.38168 7.93966C9.60256 8.14157 9.86752 8.37501 10.1451 8.59581Z" fill="#C0392B"/>
</svg>
