<svg width="16" height="16" viewBox="0 0 16 16" fill="none" xmlns="http://www.w3.org/2000/svg">
<g clip-path="url(#clip0_348_3834)">
<path d="M12.301 1.21699C9.5798 -0.611075 5.78257 -0.356105 3.27661 1.82314C2.55441 2.46439 1.96731 3.24476 1.55003 4.11814C1.13276 4.9915 0.893754 5.94019 0.847155 6.90802C0.703304 9.22123 1.4694 11.4986 2.98011 13.2485C5.02218 15.5673 7.45644 15.9618 7.55685 15.981H7.61423C7.71569 15.981 7.81302 15.9404 7.8848 15.8683C7.95652 15.7961 7.99685 15.6982 7.99685 15.5962C7.9963 15.5382 7.98322 15.481 7.95845 15.4287C7.93368 15.3763 7.89782 15.33 7.85335 15.2931C6.38996 14.1241 5.59608 12.9984 5.59608 12.1277C6.47095 12.7231 7.50014 13.0475 8.55635 13.061C10.8615 13.061 11.6793 12.094 11.6793 11.2617C11.6793 10.2948 10.4502 9.679 8.55635 9.679C7.11685 9.679 5.98345 10.2082 5.36177 10.9009C4.90836 10.4285 4.64877 9.80148 4.63481 9.14504C4.62579 8.62526 4.75807 8.11293 5.01738 7.66333C5.24 7.86234 5.48568 8.03354 5.74913 8.17323C7.37511 9.04402 9.97197 9.04402 11.2202 8.17323C11.4103 8.05566 11.5662 7.88959 11.6719 7.69191C11.7778 7.49423 11.8298 7.27194 11.8228 7.04755C11.7653 5.97958 10.0533 5.29643 8.48943 5.31089C7.02604 5.33014 5.87343 5.71017 5.06047 6.43657C4.97964 6.23497 4.94064 6.01892 4.94566 5.80159C4.94566 5.30129 5.2709 4.80099 5.84 4.39205C6.68165 3.7859 8.29335 3.29521 10.1585 3.80034L9.85241 3.9639C9.78731 4.00048 9.73892 4.0611 9.71751 4.13294C9.69611 4.20477 9.70333 4.28217 9.73765 4.34876C9.76314 4.3938 9.8 4.43128 9.84452 4.45748C9.88899 4.48364 9.93958 4.49759 9.99111 4.49787C10.0392 4.49644 10.0864 4.48496 10.1298 4.46421L11.1437 3.90617C11.2078 3.86866 11.2553 3.80802 11.2766 3.73655C11.2979 3.66508 11.2914 3.58814 11.2584 3.52131L10.7037 2.50145C10.6867 2.46733 10.6632 2.43691 10.6346 2.41192C10.606 2.38693 10.5727 2.36786 10.5367 2.3558C10.5007 2.34374 10.4628 2.33892 10.4249 2.34162C10.3871 2.34433 10.3502 2.3545 10.3163 2.37156C10.2824 2.38861 10.2521 2.41222 10.2273 2.44104C10.2025 2.46985 10.1835 2.50331 10.1715 2.53949C10.1595 2.57568 10.1548 2.61388 10.1574 2.65192C10.1601 2.68997 10.1702 2.72711 10.1872 2.76123C10.1919 2.76603 10.1919 2.77084 10.1967 2.77565L10.345 3.04987C8.5707 2.57842 6.66256 2.843 5.39046 3.76185C4.62047 4.31508 4.19005 5.03668 4.1757 5.78714C4.1686 6.23194 4.2845 6.66995 4.51047 7.05235C4.08446 7.66708 3.86037 8.40054 3.86963 9.14984C3.87676 9.60711 3.97528 10.0583 4.15932 10.4765C4.34335 10.8947 4.60915 11.2713 4.94091 11.584C4.8725 11.7588 4.83686 11.9447 4.8357 12.1325C4.8357 12.907 5.24695 13.7488 6.03128 14.6436C5.09484 14.1777 4.25559 13.536 3.55878 12.753C2.1786 11.1508 1.47956 9.06719 1.61234 6.95133C1.65344 6.08645 1.86632 5.23861 2.23839 4.45787C2.61047 3.67705 3.13423 2.97913 3.77877 2.40523C6.02648 0.452087 9.43155 0.221174 11.8706 1.86162C13.97 3.27116 14.8404 5.84005 14.1948 8.7265C13.664 11.103 12.2292 13.441 10.1633 15.3123C10.1235 15.3456 10.0907 15.3866 10.067 15.4328C10.0432 15.479 10.0289 15.5296 10.025 15.5815C10.021 15.6334 10.0274 15.6856 10.0439 15.7349C10.0604 15.7843 10.0865 15.8298 10.1208 15.8688C10.155 15.9078 10.1967 15.9395 10.2434 15.9619C10.2901 15.9844 10.3408 15.9972 10.3925 15.9996C10.4442 16.002 10.4958 15.9939 10.5443 15.9758C10.5929 15.9578 10.6373 15.9301 10.675 15.8944C12.8605 13.9124 14.3813 11.4301 14.9456 8.89003C15.663 5.68132 14.673 2.81414 12.301 1.21699ZM8.56115 10.4487C10.168 10.4487 10.9189 10.9298 10.9189 11.2569C10.9189 11.7524 10.1824 12.2816 8.56115 12.2816C7.61732 12.2682 6.70052 11.9625 5.93561 11.4061C6.39476 10.9009 7.31294 10.4487 8.56115 10.4487ZM8.50858 6.0758C9.8859 6.05174 11.0433 6.67232 11.0623 7.08606C11.0623 7.14857 11.0767 7.33621 10.7897 7.53825C9.79023 8.2358 7.47558 8.21174 6.11735 7.49014C5.89876 7.37649 5.69611 7.23409 5.51476 7.06681C6.26085 6.37406 7.4038 6.0902 8.50858 6.0758Z" fill="#F1AE0E"/>
</g>
<defs>
<clipPath id="clip0_348_3834">
<rect width="16" height="16" fill="white"/>
</clipPath>
</defs>
</svg>
