<svg width="16" height="16" viewBox="0 0 16 16" fill="none" xmlns="http://www.w3.org/2000/svg">
<path fill-rule="evenodd" clip-rule="evenodd" d="M8.9464 5.7946C10.3028 4.70312 11.3754 4.17316 12.2461 4.17316C14.2966 4.17316 15.981 5.87032 16 7.93972C16 10.0091 14.3218 11.7063 12.265 11.7063C11.3943 11.7063 10.3218 11.1763 8.96528 10.0848C8.59304 9.78827 8.26496 9.50435 8 9.25835C7.7224 9.51067 7.39432 9.78827 7.0347 10.0848C5.67823 11.1763 4.60568 11.7063 3.73502 11.7063C1.67823 11.7063 0 10.028 0 7.93972C0 5.87032 1.67823 4.17316 3.73502 4.17316C4.58675 4.17316 5.67823 4.70312 7.01578 5.7946C7.38645 6.08989 7.71333 6.37266 7.97773 6.61801L7.19874 7.36558L7.29338 8.58955L8.52368 8.75363L9.38168 7.9334L8.14512 7.83877L7.98182 6.62042C8.25928 6.36824 8.58704 6.09087 8.9464 5.7946ZM7.98182 6.62042L7.98107 6.6148L7.97773 6.61801L7.98107 6.6211L7.98182 6.62042ZM3.7287 9.76939C3.82334 9.76939 4.4164 9.71259 5.82966 8.58955C6.08256 8.38163 6.30542 8.18867 6.51609 8.00635L6.59306 7.93972C6.37224 7.73782 6.10726 7.50439 5.82966 7.28356C4.4164 6.16684 3.83596 6.10376 3.7287 6.10376C2.73817 6.10376 1.92429 6.92394 1.92429 7.9334C1.92429 8.94291 2.73186 9.76939 3.7287 9.76939ZM10.1451 8.59587C11.5583 9.71259 12.1388 9.77571 12.2461 9.77571C13.2366 9.77571 14.0505 8.94915 14.0315 7.93972C14.0315 6.93025 13.224 6.10376 12.2271 6.10376C12.1325 6.10376 11.5394 6.16684 10.1262 7.30249C9.8612 7.517 9.60256 7.73782 9.38168 7.93972C9.60256 8.14163 9.86752 8.37507 10.1451 8.59587Z" fill="#FF00FF"/>
</svg>
