<svg width="16" height="16" viewBox="0 0 16 16" fill="none" xmlns="http://www.w3.org/2000/svg">
<g clip-path="url(#clip0_348_3847)">
<path d="M12.301 1.21699C9.57974 -0.611075 5.7825 -0.356106 3.27655 1.82314C2.55435 2.46439 1.96725 3.24476 1.54997 4.11814C1.13269 4.9915 0.893693 5.94018 0.847094 6.90802C0.703243 9.22123 1.46934 11.4986 2.98005 13.2485C5.02212 15.5673 7.45638 15.9618 7.55679 15.981H7.61417C7.71563 15.981 7.81296 15.9404 7.88474 15.8683C7.95646 15.7961 7.99679 15.6982 7.99679 15.5962C7.99624 15.5382 7.98316 15.481 7.95839 15.4287C7.93362 15.3763 7.89776 15.33 7.85329 15.2931C6.3899 14.1241 5.59602 12.9984 5.59602 12.1277C6.47089 12.7231 7.50007 13.0475 8.55629 13.061C10.8615 13.061 11.6792 12.094 11.6792 11.2617C11.6792 10.2948 10.4501 9.679 8.55629 9.679C7.11679 9.679 5.98339 10.2082 5.3617 10.9009C4.9083 10.4285 4.64871 9.80148 4.63475 9.14504C4.62573 8.62526 4.75801 8.11293 5.01732 7.66333C5.23994 7.86233 5.48562 8.03354 5.74907 8.17323C7.37505 9.04402 9.97191 9.04402 11.2201 8.17323C11.4102 8.05566 11.5661 7.88959 11.6719 7.69191C11.7777 7.49423 11.8297 7.27194 11.8227 7.04755C11.7653 5.97958 10.0532 5.29643 8.48937 5.31089C7.02598 5.33015 5.87337 5.71017 5.06041 6.43657C4.97958 6.23497 4.94057 6.01892 4.9456 5.80159C4.9456 5.30129 5.27084 4.80099 5.83994 4.39205C6.68159 3.7859 8.29329 3.29521 10.1584 3.80034L9.85235 3.9639C9.78724 4.00048 9.73886 4.0611 9.71745 4.13294C9.69604 4.20477 9.70327 4.28217 9.73759 4.34875C9.76308 4.3938 9.79993 4.43128 9.84446 4.45748C9.88893 4.48363 9.93952 4.49759 9.99105 4.49787C10.0391 4.49644 10.0863 4.48496 10.1298 4.46421L11.1436 3.90617C11.2077 3.86866 11.2553 3.80802 11.2766 3.73655C11.2979 3.66508 11.2914 3.58814 11.2584 3.52131L10.7036 2.50145C10.6867 2.46733 10.6632 2.43691 10.6345 2.41192C10.6059 2.38693 10.5726 2.36786 10.5367 2.3558C10.5007 2.34374 10.4627 2.33892 10.4249 2.34162C10.3871 2.34433 10.3502 2.3545 10.3162 2.37156C10.2823 2.38861 10.2521 2.41222 10.2272 2.44104C10.2024 2.46985 10.1834 2.50331 10.1715 2.53949C10.1594 2.57568 10.1547 2.61388 10.1573 2.65192C10.16 2.68997 10.1701 2.72711 10.1871 2.76123C10.1919 2.76603 10.1919 2.77084 10.1967 2.77565L10.3449 3.04987C8.57064 2.57842 6.6625 2.843 5.39039 3.76185C4.62041 4.31508 4.18999 5.03668 4.17564 5.78714C4.16854 6.23194 4.28444 6.66995 4.51041 7.05235C4.0844 7.66708 3.86031 8.40054 3.86957 9.14984C3.8767 9.60711 3.97522 10.0582 4.15926 10.4765C4.34329 10.8947 4.60909 11.2713 4.94085 11.584C4.87244 11.7588 4.83679 11.9447 4.83564 12.1325C4.83564 12.907 5.24689 13.7488 6.03122 14.6436C5.09478 14.1777 4.25553 13.536 3.55872 12.753C2.17854 11.1508 1.4795 9.06719 1.61228 6.95133C1.65338 6.08645 1.86625 5.23861 2.23833 4.45787C2.61041 3.67705 3.13417 2.97913 3.77871 2.40523C6.02642 0.452086 9.43149 0.221173 11.8705 1.86162C13.97 3.27116 14.8404 5.84005 14.1947 8.7265C13.6639 11.103 12.2292 13.441 10.1632 15.3123C10.1234 15.3456 10.0906 15.3866 10.0669 15.4328C10.0431 15.479 10.0288 15.5296 10.0249 15.5815C10.021 15.6334 10.0274 15.6856 10.0439 15.7349C10.0603 15.7843 10.0864 15.8298 10.1207 15.8688C10.155 15.9078 10.1967 15.9395 10.2434 15.9619C10.29 15.9844 10.3407 15.9972 10.3924 15.9996C10.4441 16.002 10.4958 15.9939 10.5443 15.9758C10.5928 15.9578 10.6372 15.9301 10.6749 15.8944C12.8605 13.9124 14.3813 11.4301 14.9456 8.89003C15.6629 5.68132 14.673 2.81414 12.301 1.21699ZM8.56109 10.4487C10.168 10.4487 10.9188 10.9298 10.9188 11.2569C10.9188 11.7524 10.1823 12.2816 8.56109 12.2816C7.61726 12.2682 6.70046 11.9625 5.93555 11.4061C6.3947 10.9009 7.31287 10.4487 8.56109 10.4487ZM8.50852 6.0758C9.88584 6.05174 11.0432 6.67232 11.0623 7.08606C11.0623 7.14857 11.0766 7.33621 10.7897 7.53825C9.79017 8.2358 7.47552 8.21174 6.11729 7.49014C5.8987 7.37649 5.69605 7.23409 5.5147 7.0668C6.26079 6.37406 7.40374 6.0902 8.50852 6.0758Z" fill="#FF00FF"/>
</g>
<defs>
<clipPath id="clip0_348_3847">
<rect width="16" height="16" fill="white"/>
</clipPath>
</defs>
</svg>
