<svg width="16" height="16" viewBox="0 0 16 16" fill="none" xmlns="http://www.w3.org/2000/svg">
<path d="M0 10.2203H1.06325V7.44904C1.06325 6.90247 1.42194 6.50536 1.93435 6.50536C2.42968 6.50536 2.73712 6.81707 2.73712 7.32094V10.2203H3.77048V7.42342C3.77048 6.88112 4.12063 6.50536 4.63304 6.50536C5.15399 6.50536 5.44436 6.82134 5.44436 7.37645V10.2203H6.50761V7.11598C6.50761 6.21072 5.92261 5.60864 5.03016 5.60864C4.37683 5.60864 3.8388 5.95878 3.62103 6.51817H3.59541C3.42888 5.93743 2.97198 5.60864 2.33147 5.60864C1.71657 5.60864 1.23832 5.95451 1.0419 6.47973H1.02055V5.69404H0V10.2203Z" fill="black"/>
<path d="M8.69389 10.2929C9.27462 10.2929 9.84254 9.98974 10.103 9.49868H10.1244V10.2203H11.1492V7.10317C11.1492 6.19364 10.419 5.6001 9.29597 5.6001C8.14305 5.6001 7.4214 6.20645 7.37443 7.05193H8.36082C8.42914 6.67616 8.7494 6.43276 9.25327 6.43276C9.77849 6.43276 10.0987 6.70605 10.0987 7.18003V7.50455L8.90312 7.57288C7.80144 7.6412 7.18228 8.12372 7.18228 8.92649C7.18228 9.74208 7.81852 10.2929 8.69389 10.2929ZM9.01414 9.49014C8.55298 9.49014 8.24553 9.25529 8.24553 8.88379C8.24553 8.5251 8.54017 8.29452 9.05258 8.26036L10.0987 8.19631V8.54218C10.0987 9.08876 9.61623 9.49014 9.01414 9.49014Z" fill="black"/>
<path d="M15.9957 7.30813C15.9231 6.3559 15.1844 5.6001 13.9888 5.6001C12.6736 5.6001 11.8196 6.50963 11.8196 7.95718C11.8196 9.42609 12.6736 10.31 13.9973 10.31C15.1332 10.31 15.9146 9.64387 16 8.63186H14.9965C14.8983 9.14427 14.5482 9.45171 14.0101 9.45171C13.3355 9.45171 12.8999 8.90514 12.8999 7.95718C12.8999 7.02631 13.3312 6.46265 14.0016 6.46265C14.5695 6.46265 14.9069 6.82561 14.9923 7.30813H15.9957Z" fill="black"/>
</svg>
