<svg width="16" height="16" viewBox="0 0 16 16" fill="none" xmlns="http://www.w3.org/2000/svg">
<path d="M0 10.2202H1.06325V7.44892C1.06325 6.90235 1.42194 6.50523 1.93434 6.50523C2.42968 6.50523 2.73712 6.81695 2.73712 7.32082V10.2202H3.77048V7.4233C3.77048 6.881 4.12063 6.50523 4.63304 6.50523C5.15399 6.50523 5.44435 6.82122 5.44435 7.37633V10.2202H6.50761V7.11586C6.50761 6.2106 5.92261 5.60852 5.03016 5.60852C4.37683 5.60852 3.83881 5.95866 3.62103 6.51804H3.59541C3.42888 5.93731 2.97198 5.60852 2.33146 5.60852C1.71658 5.60852 1.23832 5.95439 1.0419 6.47962H1.02055V5.69392H0V10.2202Z" fill="black"/>
<path d="M8.69389 10.2928C9.27461 10.2928 9.84253 9.98966 10.103 9.49854H10.1244V10.2202H11.1492V7.10305C11.1492 6.19352 10.419 5.59998 9.29597 5.59998C8.14301 5.59998 7.42137 6.20633 7.3744 7.05181H8.36077C8.42909 6.67604 8.74933 6.43264 9.25325 6.43264C9.77845 6.43264 10.0987 6.70593 10.0987 7.1799V7.50443L8.90309 7.57275C7.80141 7.64107 7.18225 8.12358 7.18225 8.92638C7.18225 9.74198 7.81849 10.2928 8.69389 10.2928ZM9.01413 9.49006C8.55293 9.49006 8.24549 9.25518 8.24549 8.88366C8.24549 8.52502 8.54013 8.29438 9.05253 8.26022L10.0987 8.19622V8.54206C10.0987 9.08862 9.61621 9.49006 9.01413 9.49006Z" fill="black"/>
<path d="M15.9957 7.30801C15.9231 6.35578 15.1844 5.59998 13.9888 5.59998C12.6736 5.59998 11.8196 6.5095 11.8196 7.95706C11.8196 9.42598 12.6736 10.3099 13.9973 10.3099C15.1332 10.3099 15.9145 9.64374 16 8.63174H14.9965C14.8983 9.14414 14.5481 9.45158 14.0101 9.45158C13.3354 9.45158 12.8999 8.90502 12.8999 7.95706C12.8999 7.02618 13.3312 6.46254 14.0016 6.46254C14.5695 6.46254 14.9069 6.82549 14.9922 7.30801H15.9957Z" fill="black"/>
</svg>
