<svg width="16" height="16" viewBox="0 0 16 16" fill="none" xmlns="http://www.w3.org/2000/svg">
<path d="M0 10.2202H1.06325V7.44892C1.06325 6.90235 1.42194 6.50523 1.93434 6.50523C2.42968 6.50523 2.73712 6.81695 2.73712 7.32082V10.2202H3.77048V7.4233C3.77048 6.881 4.12063 6.50523 4.63304 6.50523C5.15399 6.50523 5.44435 6.82122 5.44435 7.37633V10.2202H6.50761V7.11586C6.50761 6.2106 5.92261 5.60852 5.03016 5.60852C4.37683 5.60852 3.83881 5.95866 3.62103 6.51804H3.59541C3.42888 5.93731 2.97198 5.60852 2.33146 5.60852C1.71658 5.60852 1.23832 5.95439 1.0419 6.47962H1.02055V5.69392H0V10.2202Z" fill="#FF00FF"/>
<path d="M8.69377 10.2928C9.27449 10.2928 9.84241 9.98966 10.1029 9.49854H10.1242V10.2202H11.149V7.10305C11.149 6.19352 10.4189 5.59998 9.29585 5.59998C8.14289 5.59998 7.42125 6.20633 7.37428 7.05181H8.36065C8.42897 6.67604 8.74921 6.43264 9.25313 6.43264C9.77833 6.43264 10.0986 6.70593 10.0986 7.1799V7.50443L8.90297 7.57275C7.80129 7.64107 7.18213 8.12358 7.18213 8.92638C7.18213 9.74198 7.81837 10.2928 8.69377 10.2928ZM9.01401 9.49006C8.55281 9.49006 8.24537 9.25518 8.24537 8.88366C8.24537 8.52502 8.54001 8.29438 9.05241 8.26022L10.0986 8.19622V8.54206C10.0986 9.08862 9.61609 9.49006 9.01401 9.49006Z" fill="#FF00FF"/>
<path d="M15.996 7.30801C15.9233 6.35578 15.1846 5.59998 13.989 5.59998C12.6738 5.59998 11.8198 6.5095 11.8198 7.95706C11.8198 9.42598 12.6738 10.3099 13.9976 10.3099C15.1334 10.3099 15.9148 9.64374 16.0002 8.63174H14.9968C14.8985 9.14414 14.5484 9.45158 14.0104 9.45158C13.3357 9.45158 12.9001 8.90502 12.9001 7.95706C12.9001 7.02618 13.3314 6.46254 14.0018 6.46254C14.5697 6.46254 14.9071 6.82549 14.9925 7.30801H15.996Z" fill="#FF00FF"/>
</svg>
