<svg width="16" height="16" viewBox="0 0 16 16" fill="none" xmlns="http://www.w3.org/2000/svg">
<g clip-path="url(#clip0_1_745)">
<path d="M4.50581 10.7528C4.51529 10.7643 4.52108 10.7784 4.5224 10.7932C4.52373 10.8081 4.52053 10.823 4.51323 10.8359C4.47775 10.8935 4.42689 10.94 4.36638 10.9702C4.30588 11.0005 4.23813 11.0132 4.17078 11.007C4.05076 10.9941 3.94011 10.936 3.86121 10.8446C3.78232 10.7533 3.74105 10.6354 3.74576 10.5147C3.74373 10.3503 3.77373 10.1871 3.83413 10.0342C3.87224 9.9384 3.87621 9.8324 3.84538 9.734C3.81455 9.6356 3.75079 9.5508 3.66481 9.49384C3.61393 9.46016 3.55682 9.43704 3.49685 9.42584C3.43688 9.41456 3.37526 9.41552 3.31565 9.42848C3.25723 9.4408 3.20187 9.46464 3.15281 9.49864C3.10375 9.53264 3.06198 9.57608 3.02997 9.62648C2.98469 9.704 2.94948 9.78696 2.92519 9.87344C2.92051 9.88864 2.91673 9.90056 2.91386 9.90832C2.87408 10.0156 2.81065 10.0469 2.76768 10.0411C2.74736 10.0383 2.71942 10.0247 2.70151 9.9756C2.67904 9.83368 2.68924 9.6884 2.73133 9.55096C2.77344 9.41344 2.84633 9.28744 2.94447 9.1824C3.02689 9.09384 3.1292 9.02624 3.24293 8.98512C3.35666 8.944 3.47855 8.93056 3.59852 8.94584C3.72561 8.96336 3.84638 9.012 3.95002 9.0876C4.05366 9.1632 4.13694 9.26336 4.1924 9.37904C4.24855 9.5212 4.27121 9.6744 4.25862 9.82672C4.24603 9.97912 4.19853 10.1265 4.11979 10.2575C4.10982 10.2798 4.10071 10.3002 4.09302 10.3187C4.06471 10.3699 4.04916 10.4272 4.0477 10.4856C4.04624 10.5441 4.0589 10.6021 4.08462 10.6546C4.10637 10.6859 4.13554 10.7114 4.16953 10.7286C4.20353 10.7459 4.24127 10.7545 4.27939 10.7536C4.31533 10.7531 4.35105 10.7481 4.38573 10.7386C4.43085 10.728 4.47749 10.7172 4.50581 10.7528ZM15.6298 11.0306C15.6046 11.5486 15.4952 12.059 15.3058 12.5418C14.3611 14.8124 12.1067 16.0764 9.42101 15.9964C6.91733 15.9218 4.78197 14.5966 3.8474 12.4364C3.25741 12.4199 2.69299 12.192 2.25702 11.7941C1.80665 11.4102 1.51729 10.8708 1.44649 10.2832C1.40079 9.87896 1.45078 9.46968 1.59243 9.08832L1.06757 8.64232C-1.33399 6.6084 6.17745 -1.76617 8.57989 0.335707C8.59205 0.346288 9.39717 1.13871 9.39917 1.14066C9.40237 1.13903 9.84341 0.95144 9.84565 0.950528C11.9528 0.0752929 13.6627 0.497888 13.6649 1.89435C13.666 2.6206 13.2045 3.4671 12.4656 4.23548C12.7609 4.53609 12.9701 4.91057 13.071 5.31972C13.1525 5.60517 13.1965 5.89999 13.2021 6.19678C13.2149 6.49274 13.2291 7.18222 13.2305 7.19449C13.2493 7.20018 13.4625 7.2589 13.5273 7.27711C13.9572 7.37142 14.3573 7.57017 14.6921 7.85582C14.8689 8.02864 14.9846 8.25424 15.0219 8.49864C15.0674 8.81576 14.9883 9.13816 14.8012 9.39816C14.8498 9.5092 14.8921 9.62304 14.9277 9.73896C14.9899 9.93896 15.0352 10.1049 15.0421 10.1295C15.2708 10.1295 15.6298 10.3935 15.6298 11.0306ZM5.01673 9.78456C4.85341 8.72432 4.13835 8.35064 3.65315 8.324C3.53137 8.31752 3.40924 8.32624 3.2896 8.34992C2.42359 8.5252 1.93449 9.26408 2.03073 10.2242C2.10082 10.6549 2.31409 11.0494 2.63607 11.3438C2.95805 11.6384 3.36993 11.8157 3.80514 11.8472C3.88843 11.8494 3.97173 11.8436 4.05389 11.8297C4.93161 11.6795 5.16142 10.7236 5.01673 9.78456ZM6.49693 3.05397C7.23051 2.45088 8.01301 1.90993 8.83645 1.43674C8.83645 1.43674 8.18261 0.67639 7.98521 0.620355C6.77088 0.291095 4.14766 2.1057 2.47282 4.50307C1.79513 5.47308 0.825006 7.19089 1.28885 8.07432C1.45362 8.27264 1.6395 8.4524 1.8432 8.61048C2.1533 8.17336 2.62121 7.87396 3.14803 7.77554C3.80713 5.92274 4.96622 4.28855 6.49693 3.05397ZM9.13613 11.4444C9.16837 11.5854 9.23797 11.715 9.33773 11.8195C9.43749 11.9242 9.56365 11.9998 9.70285 12.0386C9.84773 12.0926 9.99717 12.1334 10.1493 12.1602C12.0702 12.4917 13.866 11.3901 14.2703 11.1126C14.3007 11.0918 14.3207 11.1121 14.2964 11.1489C14.2842 11.1684 14.2709 11.1874 14.2568 11.2055C13.7619 11.8457 12.4317 12.5871 10.7009 12.5869C9.94597 12.5867 9.19157 12.32 8.91453 11.9101C8.48477 11.2742 8.89325 10.3458 9.60933 10.4426C9.61021 10.4427 9.85437 10.4705 9.92301 10.4781C11.0362 10.5852 12.1583 10.405 13.1821 9.95504C14.1591 9.50008 14.5281 8.99944 14.4728 8.59416C14.4543 8.46832 14.3951 8.35192 14.3044 8.2628C14.0372 8.04288 13.7199 7.89215 13.3806 7.82394C13.2255 7.78026 13.1201 7.75236 13.0067 7.71487C12.8051 7.64825 12.7053 7.59462 12.6828 7.21422C12.6729 7.04786 12.6441 6.46831 12.6336 6.22879C12.6151 5.80914 12.5649 5.23553 12.21 4.9987C12.1196 4.93923 12.0147 4.9056 11.9066 4.90144C11.8461 4.89775 11.7853 4.90373 11.7265 4.91914C11.5468 4.96074 11.3829 5.05363 11.2549 5.18654C11.0891 5.33645 10.8941 5.45046 10.6821 5.52144C10.4701 5.59242 10.2457 5.61883 10.023 5.59902C9.77469 5.58863 9.51157 5.54983 9.20997 5.53187C9.15125 5.52841 9.09237 5.52475 9.03357 5.52174C8.64517 5.53194 8.27341 5.68126 7.98585 5.94252C7.69831 6.20378 7.51417 6.55962 7.46693 6.94524C7.29423 8.13704 8.15469 8.75296 8.40309 9.11432C8.44149 9.16032 8.46533 9.2168 8.47149 9.2764C8.46493 9.34248 8.43333 9.4036 8.38309 9.44704C8.03949 9.82984 7.79796 10.2935 7.68091 10.7945C7.56387 11.2954 7.57506 11.8178 7.71346 12.3132C7.7463 12.4322 7.78839 12.5484 7.83933 12.6608C8.46717 14.1325 10.4149 14.8178 12.3178 14.1944C12.567 14.1128 12.8089 14.0104 13.0408 13.8882C13.4575 13.6817 13.8327 13.4003 14.1479 13.0583C14.6379 12.5658 14.9605 11.9314 15.0696 11.2452C15.1269 10.8658 15.0429 10.7191 14.9286 10.6486C14.8478 10.6035 14.7544 10.5863 14.6628 10.5998C14.6144 10.3019 14.5293 10.0111 14.4097 9.73408C13.8662 10.1442 13.2519 10.4506 12.5974 10.6382C11.81 10.8606 10.9908 10.9495 10.1739 10.901C9.64837 10.8584 9.30069 10.7045 9.16997 11.1308C9.96485 11.3966 10.8089 11.4827 11.6411 11.3829C11.6469 11.3823 11.6529 11.3829 11.6585 11.3846C11.6641 11.3862 11.6693 11.389 11.6739 11.3928C11.6785 11.3965 11.6822 11.4011 11.685 11.4062C11.6878 11.4114 11.6895 11.4171 11.6901 11.423C11.691 11.4329 11.6888 11.4427 11.6838 11.4513C11.6789 11.4598 11.6713 11.4666 11.6624 11.4707C11.6624 11.4707 10.6863 11.9253 9.13613 11.4444ZM6.27754 4.53312C6.92314 4.07987 7.65109 3.75715 8.42045 3.5831C9.28837 3.38196 10.1905 3.37953 11.0595 3.57598C11.0899 3.58296 11.1093 3.53012 11.0821 3.51485C10.6312 3.28005 10.1334 3.14918 9.62525 3.13183C9.62037 3.13174 9.61557 3.1303 9.61149 3.12768C9.60733 3.12505 9.60397 3.12134 9.60189 3.11694C9.59973 3.11254 9.59877 3.10763 9.59925 3.10276C9.59973 3.09789 9.60149 3.09323 9.60445 3.08931C9.68333 2.98571 9.77557 2.89293 9.87861 2.81335C9.88325 2.80974 9.88661 2.80476 9.88821 2.79912C9.88981 2.79348 9.88957 2.78748 9.88749 2.78199C9.88541 2.7765 9.88165 2.77182 9.87677 2.76862C9.87189 2.76541 9.86605 2.76385 9.86021 2.76417C9.23797 2.82568 8.64005 3.03744 8.11781 3.38122C8.11333 3.38425 8.10805 3.38586 8.10269 3.38584C8.09725 3.38582 8.09205 3.38419 8.08757 3.38114C8.08309 3.3781 8.07965 3.37379 8.07773 3.36878C8.07573 3.36375 8.07533 3.35826 8.07653 3.35301C8.11861 3.19535 8.18053 3.04369 8.26093 2.90167C8.26357 2.89682 8.26461 2.89123 8.26389 2.88574C8.26309 2.88026 8.26061 2.87514 8.25677 2.87118C8.25293 2.86721 8.24789 2.86458 8.24237 2.86369C8.23693 2.86279 8.23133 2.86367 8.22637 2.86621C7.47111 3.2831 6.79839 3.83455 6.2414 4.49336C6.23704 4.49836 6.23466 4.50478 6.23473 4.51142C6.2348 4.51805 6.2373 4.52443 6.24177 4.52934C6.24622 4.53425 6.25233 4.53734 6.25893 4.53804C6.26553 4.53874 6.27216 4.53698 6.27754 4.53312ZM11.3359 8.57872C11.3885 8.612 11.4514 8.6248 11.5129 8.61456C11.5742 8.6044 11.6297 8.57192 11.6687 8.52344C11.7171 8.4296 11.6468 8.30248 11.5115 8.23928C11.4589 8.206 11.3959 8.19328 11.3345 8.20344C11.2731 8.21368 11.2177 8.24616 11.1787 8.29472C11.1301 8.3884 11.2006 8.5156 11.3359 8.57872ZM11.7509 7.05804C11.7833 7.22687 11.8533 7.38625 11.9557 7.52434C12.0616 7.51134 12.1686 7.51134 12.2744 7.52434C12.3363 7.33902 12.3417 7.13949 12.29 6.95107C12.2135 6.60344 12.11 6.39304 11.8961 6.42574C11.6824 6.45852 11.6745 6.7104 11.7509 7.05804ZM12.2058 7.85662C12.1519 7.84114 12.0945 7.84296 12.0416 7.8618C11.9888 7.88064 11.9431 7.91557 11.9112 7.96167C11.8792 8.00776 11.8625 8.06272 11.8633 8.11888C11.8642 8.17496 11.8826 8.22936 11.916 8.27448C11.9494 8.31952 11.9961 8.35304 12.0495 8.37024C12.1029 8.38744 12.1604 8.38744 12.2137 8.37032C12.2672 8.3532 12.3139 8.31976 12.3473 8.27472C12.3808 8.2296 12.3993 8.1752 12.4002 8.11912C12.408 8.05872 12.3921 7.9977 12.3558 7.94877C12.3196 7.89984 12.2658 7.86682 12.2058 7.85662Z" fill="#FF00FF"/>
<path d="M8.65536 7.82558C8.62128 7.82078 8.60672 7.80619 8.60248 7.78686C8.5892 7.72689 8.68144 7.62818 8.77864 7.55693C8.92056 7.45319 9.0868 7.38769 9.26128 7.36674C9.43584 7.34579 9.6128 7.37009 9.7752 7.4373C9.92696 7.4999 10.0575 7.60493 10.1511 7.73981C10.1858 7.79653 10.1926 7.8405 10.1701 7.86354C10.1351 7.90048 10.0458 7.85817 9.9004 7.79441C9.72584 7.70873 9.53288 7.66717 9.3384 7.67337C9.10808 7.71127 8.88 7.76208 8.65536 7.82558ZM10.1042 8.12385C10.0414 8.05785 9.9632 8.00841 9.87664 7.98004C9.79 7.95165 9.69776 7.94519 9.608 7.96122C9.47576 7.97529 9.3504 8.02753 9.24728 8.11161C9.1992 8.14609 9.16616 8.19761 9.15496 8.25569C9.15472 8.26217 9.15584 8.26865 9.1584 8.27457C9.16088 8.28057 9.16464 8.28585 9.16944 8.29025C9.178 8.29793 9.18912 8.30217 9.20064 8.30209C9.24824 8.29505 9.29472 8.28217 9.33912 8.26369C9.53352 8.19041 9.74344 8.16865 9.94872 8.20033C10.0438 8.21105 10.0887 8.21697 10.1096 8.18433C10.115 8.17489 10.1174 8.16409 10.1164 8.15329C10.1154 8.14249 10.1112 8.13217 10.1042 8.12385Z" fill="#FF00FF"/>
</g>
<defs>
<clipPath id="clip0_1_745">
<rect width="16" height="16" fill="white"/>
</clipPath>
</defs>
</svg>
