<svg width="16" height="16" viewBox="0 0 16 16" fill="none" xmlns="http://www.w3.org/2000/svg">
<g clip-path="url(#clip0_1406_3419)">
<path d="M4.50594 10.7528C4.51542 10.7643 4.5212 10.7784 4.52252 10.7932C4.52385 10.8081 4.52065 10.823 4.51335 10.8359C4.47787 10.8935 4.42702 10.94 4.3665 10.9702C4.306 11.0005 4.23826 11.0132 4.1709 11.007C4.05088 10.9941 3.94023 10.936 3.86134 10.8446C3.78244 10.7533 3.74118 10.6354 3.74588 10.5147C3.74385 10.3503 3.77386 10.1871 3.83425 10.0342C3.87236 9.9384 3.87634 9.8324 3.8455 9.734C3.81467 9.6356 3.75091 9.5508 3.66494 9.49384C3.61406 9.46016 3.55694 9.43704 3.49697 9.42584C3.437 9.41456 3.37538 9.41552 3.31577 9.42848C3.25735 9.4408 3.20199 9.46464 3.15294 9.49864C3.10387 9.53264 3.0621 9.57608 3.0301 9.62648C2.98481 9.704 2.9496 9.78696 2.92531 9.87344C2.92063 9.88864 2.91685 9.90056 2.91398 9.90832C2.8742 10.0156 2.81078 10.0469 2.7678 10.0411C2.74748 10.0383 2.71954 10.0247 2.70163 9.9756C2.67916 9.83368 2.68936 9.6884 2.73146 9.55096C2.77356 9.41344 2.84645 9.28744 2.94459 9.1824C3.02702 9.09384 3.12932 9.02624 3.24305 8.98512C3.35678 8.944 3.47867 8.93056 3.59864 8.94584C3.72573 8.96336 3.8465 9.012 3.95014 9.0876C4.05378 9.1632 4.13706 9.26336 4.19252 9.37904C4.24867 9.5212 4.27134 9.6744 4.25874 9.82672C4.24615 9.97912 4.19865 10.1265 4.11991 10.2575C4.10994 10.2798 4.10083 10.3002 4.09314 10.3187C4.06483 10.3699 4.04928 10.4272 4.04782 10.4856C4.04636 10.5441 4.05902 10.6021 4.08474 10.6546C4.10649 10.6859 4.13566 10.7114 4.16966 10.7286C4.20365 10.7459 4.24139 10.7545 4.27951 10.7536C4.31545 10.7531 4.35118 10.7481 4.38585 10.7386C4.43098 10.728 4.47761 10.7172 4.50594 10.7528ZM15.6299 11.0306C15.6047 11.5486 15.4953 12.059 15.3059 12.5418C14.3612 14.8124 12.1068 16.0764 9.42114 15.9964C6.91746 15.9218 4.7821 14.5966 3.84752 12.4364C3.25754 12.4199 2.69311 12.192 2.25714 11.7941C1.80678 11.4102 1.51742 10.8708 1.44661 10.2832C1.40091 9.87896 1.4509 9.46968 1.59255 9.08832L1.0677 8.64232C-1.33386 6.6084 6.17757 -1.76617 8.58002 0.335707C8.59218 0.346288 9.3973 1.13871 9.3993 1.14066C9.4025 1.13903 9.84354 0.95144 9.84578 0.950528C11.9529 0.0752929 13.6628 0.497888 13.665 1.89435C13.6661 2.6206 13.2047 3.4671 12.4657 4.23548C12.7611 4.53609 12.9702 4.91057 13.0711 5.31972C13.1526 5.60517 13.1967 5.89999 13.2022 6.19678C13.215 6.49274 13.2292 7.18222 13.2306 7.19449C13.2494 7.20018 13.4627 7.2589 13.5274 7.27711C13.9573 7.37142 14.3574 7.57017 14.6922 7.85582C14.869 8.02864 14.9847 8.25424 15.022 8.49864C15.0675 8.81576 14.9884 9.13816 14.8013 9.39816C14.8499 9.5092 14.8923 9.62304 14.9279 9.73896C14.99 9.93896 15.0353 10.1049 15.0423 10.1295C15.2709 10.1295 15.6299 10.3935 15.6299 11.0306ZM5.01685 9.78456C4.85354 8.72432 4.13847 8.35064 3.65327 8.324C3.53149 8.31752 3.40936 8.32624 3.28972 8.34992C2.42371 8.5252 1.93462 9.26408 2.03086 10.2242C2.10094 10.6549 2.31422 11.0494 2.63619 11.3438C2.95818 11.6384 3.37005 11.8157 3.80526 11.8472C3.88855 11.8494 3.97186 11.8436 4.05402 11.8297C4.93174 11.6795 5.16154 10.7236 5.01685 9.78456ZM6.49705 3.05397C7.23063 2.45088 8.01314 1.90993 8.83658 1.43674C8.83658 1.43674 8.18274 0.67639 7.98533 0.620355C6.771 0.291095 4.14778 2.1057 2.47294 4.50307C1.79526 5.47308 0.825128 7.19089 1.28897 8.07432C1.45374 8.27264 1.63962 8.4524 1.84332 8.61048C2.15342 8.17336 2.62134 7.87396 3.14815 7.77554C3.80725 5.92274 4.96634 4.28855 6.49705 3.05397ZM9.13626 11.4444C9.1685 11.5854 9.2381 11.715 9.33786 11.8195C9.43762 11.9242 9.56378 11.9998 9.70298 12.0386C9.84786 12.0926 9.9973 12.1334 10.1495 12.1602C12.0703 12.4917 13.8661 11.3901 14.2704 11.1126C14.3008 11.0918 14.3208 11.1121 14.2965 11.1489C14.2843 11.1684 14.2711 11.1874 14.2569 11.2055C13.762 11.8457 12.4318 12.5871 10.701 12.5869C9.9461 12.5867 9.1917 12.32 8.91466 11.9101C8.4849 11.2742 8.89338 10.3458 9.60946 10.4426C9.61034 10.4427 9.8545 10.4705 9.92314 10.4781C11.0363 10.5852 12.1584 10.405 13.1822 9.95504C14.1592 9.50008 14.5283 8.99944 14.4729 8.59416C14.4544 8.46832 14.3952 8.35192 14.3045 8.2628C14.0373 8.04288 13.72 7.89215 13.3807 7.82394C13.2256 7.78026 13.1203 7.75236 13.0068 7.71487C12.8052 7.64825 12.7055 7.59462 12.6829 7.21422C12.6731 7.04786 12.6442 6.46831 12.6337 6.22879C12.6152 5.80914 12.565 5.23553 12.2101 4.9987C12.1197 4.93923 12.0148 4.9056 11.9067 4.90144C11.8462 4.89775 11.7854 4.90373 11.7267 4.91914C11.5469 4.96074 11.3831 5.05363 11.2551 5.18654C11.0892 5.33645 10.8942 5.45046 10.6822 5.52144C10.4702 5.59242 10.2458 5.61883 10.0231 5.59902C9.77482 5.58863 9.5117 5.54983 9.2101 5.53187C9.15138 5.52841 9.0925 5.52475 9.0337 5.52174C8.6453 5.53194 8.27354 5.68126 7.98597 5.94252C7.69843 6.20378 7.51429 6.55962 7.46705 6.94524C7.29435 8.13704 8.15482 8.75296 8.40322 9.11432C8.44162 9.16032 8.46546 9.2168 8.47162 9.2764C8.46506 9.34248 8.43346 9.4036 8.38322 9.44704C8.03962 9.82984 7.79808 10.2935 7.68103 10.7945C7.56399 11.2954 7.57518 11.8178 7.71358 12.3132C7.74642 12.4322 7.78851 12.5484 7.83946 12.6608C8.4673 14.1325 10.4151 14.8178 12.3179 14.1944C12.5671 14.1128 12.809 14.0104 13.0409 13.8882C13.4576 13.6817 13.8328 13.4003 14.148 13.0583C14.638 12.5658 14.9606 11.9314 15.0697 11.2452C15.127 10.8658 15.0431 10.7191 14.9287 10.6486C14.8479 10.6035 14.7545 10.5863 14.6629 10.5998C14.6145 10.3019 14.5295 10.0111 14.4099 9.73408C13.8663 10.1442 13.252 10.4506 12.5975 10.6382C11.8101 10.8606 10.9909 10.9495 10.174 10.901C9.6485 10.8584 9.30082 10.7045 9.1701 11.1308C9.96498 11.3966 10.809 11.4827 11.6412 11.3829C11.6471 11.3823 11.653 11.3829 11.6586 11.3846C11.6643 11.3862 11.6695 11.389 11.674 11.3928C11.6786 11.3965 11.6823 11.4011 11.6851 11.4062C11.6879 11.4114 11.6896 11.4171 11.6903 11.423C11.6911 11.4329 11.6889 11.4427 11.6839 11.4513C11.679 11.4598 11.6715 11.4666 11.6625 11.4707C11.6625 11.4707 10.6864 11.9253 9.13626 11.4444ZM6.27766 4.53312C6.92326 4.07987 7.65121 3.75715 8.42058 3.5831C9.2885 3.38196 10.1907 3.37953 11.0596 3.57598C11.09 3.58296 11.1095 3.53012 11.0823 3.51485C10.6313 3.28005 10.1335 3.14918 9.62538 3.13183C9.6205 3.13174 9.6157 3.1303 9.61162 3.12768C9.60746 3.12505 9.6041 3.12134 9.60202 3.11694C9.59986 3.11254 9.5989 3.10763 9.59938 3.10276C9.59986 3.09789 9.60162 3.09323 9.60458 3.08931C9.68346 2.98571 9.7757 2.89293 9.87874 2.81335C9.88338 2.80974 9.88674 2.80476 9.88834 2.79912C9.88994 2.79348 9.8897 2.78748 9.88762 2.78199C9.88554 2.7765 9.88178 2.77182 9.8769 2.76862C9.87202 2.76541 9.86618 2.76385 9.86034 2.76417C9.2381 2.82568 8.64018 3.03744 8.11794 3.38122C8.11346 3.38425 8.10818 3.38586 8.10282 3.38584C8.09738 3.38582 8.09218 3.38419 8.0877 3.38114C8.08322 3.3781 8.07978 3.37379 8.07786 3.36878C8.07586 3.36375 8.07546 3.35826 8.07666 3.35301C8.11874 3.19535 8.18066 3.04369 8.26106 2.90167C8.2637 2.89682 8.26474 2.89123 8.26402 2.88574C8.26322 2.88026 8.26074 2.87514 8.2569 2.87118C8.25306 2.86721 8.24802 2.86458 8.2425 2.86369C8.23706 2.86279 8.23146 2.86367 8.2265 2.86621C7.47123 3.2831 6.79851 3.83455 6.24152 4.49336C6.23716 4.49836 6.23478 4.50478 6.23485 4.51142C6.23492 4.51805 6.23742 4.52443 6.24189 4.52934C6.24634 4.53425 6.25246 4.53734 6.25906 4.53804C6.26566 4.53874 6.27228 4.53698 6.27766 4.53312ZM11.336 8.57872C11.3886 8.612 11.4515 8.6248 11.513 8.61456C11.5743 8.6044 11.6298 8.57192 11.6688 8.52344C11.7172 8.4296 11.6469 8.30248 11.5116 8.23928C11.459 8.206 11.396 8.19328 11.3347 8.20344C11.2732 8.21368 11.2178 8.24616 11.1788 8.29472C11.1303 8.3884 11.2007 8.5156 11.336 8.57872ZM11.751 7.05804C11.7835 7.22687 11.8535 7.38625 11.9559 7.52434C12.0617 7.51134 12.1687 7.51134 12.2745 7.52434C12.3364 7.33902 12.3418 7.13949 12.2901 6.95107C12.2136 6.60344 12.1101 6.39304 11.8963 6.42574C11.6825 6.45852 11.6746 6.7104 11.751 7.05804ZM12.2059 7.85662C12.152 7.84114 12.0946 7.84296 12.0417 7.8618C11.9889 7.88064 11.9432 7.91557 11.9113 7.96167C11.8793 8.00776 11.8626 8.06272 11.8635 8.11888C11.8643 8.17496 11.8827 8.22936 11.9161 8.27448C11.9495 8.31952 11.9962 8.35304 12.0496 8.37024C12.103 8.38744 12.1605 8.38744 12.2139 8.37032C12.2673 8.3532 12.314 8.31976 12.3475 8.27472C12.3809 8.2296 12.3994 8.1752 12.4003 8.11912C12.4081 8.05872 12.3922 7.9977 12.3559 7.94877C12.3197 7.89984 12.2659 7.86682 12.2059 7.85662Z" fill="#FF00FF"/>
<path d="M8.65523 7.82552C8.62115 7.82072 8.60659 7.80613 8.60235 7.7868C8.58907 7.72682 8.68131 7.62812 8.77851 7.55687C8.92043 7.45313 9.08667 7.38763 9.26115 7.36668C9.43571 7.34573 9.61267 7.37002 9.77507 7.43724C9.92683 7.49984 10.0574 7.60487 10.151 7.73975C10.1857 7.79646 10.1924 7.84044 10.17 7.86348C10.135 7.90042 10.0457 7.8581 9.90027 7.79435C9.72571 7.70867 9.53275 7.6671 9.33827 7.6733C9.10795 7.71121 8.87987 7.76202 8.65523 7.82552ZM10.1041 8.12379C10.0413 8.05779 9.96307 8.00835 9.87651 7.97998C9.78987 7.95159 9.69763 7.94513 9.60787 7.96116C9.47563 7.97522 9.35027 8.02747 9.24715 8.11155C9.19907 8.14603 9.16603 8.19755 9.15483 8.25563C9.15459 8.26211 9.15571 8.26859 9.15827 8.27451C9.16075 8.28051 9.16451 8.28579 9.16931 8.29019C9.17787 8.29787 9.18899 8.30211 9.20051 8.30203C9.24811 8.29499 9.29459 8.28211 9.33899 8.26363C9.53339 8.19035 9.74331 8.16859 9.94859 8.20027C10.0437 8.21099 10.0886 8.21691 10.1095 8.18427C10.1148 8.17483 10.1172 8.16403 10.1163 8.15323C10.1153 8.14243 10.1111 8.13211 10.1041 8.12379Z" fill="#FF00FF"/>
</g>
<defs>
<clipPath id="clip0_1406_3419">
<rect width="16" height="16" fill="white"/>
</clipPath>
</defs>
</svg>
