<svg width="16" height="16" viewBox="0 0 16 16" fill="none" xmlns="http://www.w3.org/2000/svg">
<g clip-path="url(#clip0_1406_3418)">
<path d="M15.1377 9.83222C15.3521 10.1089 15.4624 10.4522 15.4493 10.802C15.4268 11.3476 15.3127 11.8856 15.1118 12.3933L15.107 12.4053C14.6529 13.4973 13.86 14.4147 12.8452 15.0221C11.7889 15.6365 10.5853 15.9521 9.3635 15.935C9.28446 15.935 9.2039 15.9337 9.12446 15.9314C7.91858 15.9062 6.7414 15.5588 5.71511 14.925C4.81173 14.3589 4.08069 13.5562 3.60132 12.604C3.04904 12.5181 2.53343 12.2742 2.11685 11.9017C1.59889 11.4592 1.2671 10.8374 1.18783 10.1609C1.1525 9.83206 1.17157 9.49974 1.24424 9.17726L1.01718 8.98526C0.833398 8.82646 0.684037 8.63182 0.578303 8.41318C0.472569 8.19454 0.412696 7.95662 0.402369 7.714C0.38374 7.21036 0.470782 6.7084 0.657893 6.24044C1.12399 4.96792 2.19623 3.45266 3.52633 2.18704C4.1199 1.61106 4.77834 1.10595 5.48844 0.681871C6.08069 0.303064 6.76091 0.083974 7.46292 0.0459094C7.91569 0.0341006 8.3567 0.190985 8.7003 0.486096C8.7199 0.503204 9.01382 0.790688 9.23678 1.00909C9.2927 0.98548 9.33414 0.968048 9.33414 0.968048C9.99374 0.680748 10.7025 0.523443 11.4217 0.504763C12.7544 0.504763 13.6165 1.21937 13.6181 2.32532C13.6192 3.00772 13.2841 3.77273 12.6665 4.51329C12.8345 4.77312 12.9617 5.05724 13.0434 5.35569C13.1312 5.66122 13.1792 5.97676 13.1864 6.29455C13.1924 6.43127 13.1985 6.65065 13.2034 6.84428C13.6591 6.95962 14.0802 7.18326 14.431 7.49618C14.6689 7.73211 14.8248 8.03806 14.8761 8.3691C14.9275 8.6959 14.877 9.03054 14.7314 9.32758C14.7444 9.36478 14.7579 9.40518 14.7713 9.44798C14.7829 9.48534 14.794 9.52134 14.8042 9.55542C14.9325 9.62486 15.0458 9.71894 15.1377 9.83222Z" fill="white"/>
<path d="M4.60522 10.5496C4.61399 10.5603 4.61935 10.5733 4.62058 10.5871C4.6218 10.6007 4.61885 10.6146 4.61209 10.6266C4.57924 10.6799 4.53215 10.723 4.47614 10.7509C4.42012 10.7789 4.35741 10.7907 4.29506 10.785C4.18394 10.773 4.08151 10.7193 4.00847 10.6347C3.93543 10.5501 3.89722 10.4409 3.90157 10.3292C3.89969 10.1771 3.92747 10.0259 3.98338 9.88435C4.01867 9.7957 4.02235 9.69755 3.99381 9.60643C3.96527 9.5153 3.90623 9.43682 3.82664 9.3841C3.77953 9.35298 3.72666 9.33154 3.67114 9.32114C3.61562 9.31074 3.55858 9.31154 3.50338 9.32362C3.44931 9.33498 3.39805 9.35707 3.35263 9.3885C3.30722 9.42002 3.26855 9.46027 3.23891 9.5069C3.19699 9.57866 3.16439 9.65546 3.14191 9.73547C3.13757 9.74962 3.13407 9.76066 3.13142 9.76778C3.09459 9.86714 3.03587 9.8961 2.99608 9.89082C2.97727 9.88818 2.95141 9.87562 2.93483 9.8301C2.91402 9.69866 2.92347 9.56418 2.96244 9.43698C3.00142 9.3097 3.0689 9.19298 3.15975 9.09579C3.23606 9.01379 3.33077 8.95123 3.43607 8.91315C3.54135 8.87506 3.65419 8.86258 3.76526 8.87682C3.88291 8.89298 3.99473 8.93802 4.09068 9.00803C4.18663 9.07802 4.26373 9.17074 4.31507 9.27779C4.36706 9.40946 4.38803 9.5513 4.37638 9.69234C4.36472 9.83338 4.32074 9.96978 4.24785 10.0911C4.23863 10.1117 4.23018 10.1307 4.22307 10.1478C4.19686 10.1951 4.18246 10.2482 4.18111 10.3023C4.17975 10.3564 4.19148 10.4101 4.21529 10.4587C4.23543 10.4877 4.26243 10.5112 4.2939 10.5272C4.32537 10.5432 4.36031 10.5512 4.3956 10.5503C4.42887 10.5499 4.46195 10.5452 4.49405 10.5365C4.53583 10.5267 4.57899 10.5167 4.60522 10.5496ZM14.9036 10.8067C14.8803 11.2863 14.779 11.7588 14.6036 12.2058C13.7291 14.3079 11.642 15.4782 9.15563 15.4041C6.83777 15.3351 4.86089 14.1082 3.99567 12.1083C3.44947 12.093 2.92694 11.8819 2.52332 11.5136C2.10638 11.1582 1.8385 10.6588 1.77295 10.1149C1.73063 9.74066 1.77692 9.3617 1.90806 9.00867L1.42215 8.59579C-0.801174 6.7128 6.15279 -1.04024 8.37699 0.905641C8.38819 0.915433 9.13355 1.64905 9.13539 1.65086C9.13835 1.64934 9.54667 1.47568 9.54875 1.47483C11.4996 0.664553 13.0825 1.05578 13.0845 2.34861C13.0856 3.02096 12.6584 3.80463 11.9742 4.51598C12.2476 4.79429 12.4412 5.14098 12.5348 5.51977C12.6102 5.78402 12.651 6.05697 12.656 6.33174C12.668 6.60572 12.6811 7.24403 12.6824 7.2554C12.6998 7.26066 12.8972 7.31502 12.9572 7.33189C13.3552 7.41918 13.7255 7.60319 14.0355 7.86764C14.1992 8.02762 14.3064 8.2365 14.3408 8.46274C14.383 8.75634 14.3098 9.05482 14.1365 9.29546C14.1816 9.39834 14.2207 9.5037 14.2536 9.61098C14.3112 9.79618 14.3532 9.94978 14.3596 9.97258C14.5712 9.97258 14.9036 10.217 14.9036 10.8067ZM5.07822 9.6533C4.92703 8.6717 4.26503 8.32578 3.81584 8.30106C3.70309 8.29506 3.59003 8.30314 3.47927 8.32506C2.67754 8.4873 2.22473 9.17138 2.31383 10.0603C2.37872 10.459 2.57616 10.8242 2.87424 11.0968C3.17233 11.3695 3.55363 11.5336 3.95655 11.5628C4.03366 11.5648 4.11078 11.5595 4.18684 11.5466C4.99943 11.4076 5.21217 10.5226 5.07822 9.6533ZM6.44857 3.42217C7.12771 2.86383 7.85216 2.36303 8.61443 1.92496C8.61443 1.92496 8.00915 1.22104 7.82639 1.16916C6.70219 0.864337 4.27365 2.54427 2.72311 4.76372C2.09572 5.66174 1.19759 7.25206 1.627 8.06994C1.77955 8.25354 1.95163 8.41994 2.14021 8.56626C2.4273 8.16162 2.86049 7.88444 3.34821 7.79332C3.95839 6.07803 5.03147 4.56512 6.44857 3.42217ZM8.89195 11.1899C8.92171 11.3203 8.98619 11.4403 9.07851 11.5371C9.17091 11.634 9.28771 11.7041 9.41659 11.74C9.55067 11.79 9.68899 11.8277 9.82995 11.8527C11.6082 12.1595 13.2708 11.1396 13.6451 10.8827C13.6732 10.8635 13.6917 10.8823 13.6692 10.9163C13.6579 10.9344 13.6456 10.9519 13.6325 10.9687C13.1744 11.5614 11.9428 12.2478 10.3405 12.2475C9.64163 12.2475 8.94323 12.0005 8.68675 11.6211C8.28883 11.0323 8.66699 10.1729 9.33003 10.2624C9.33075 10.2626 9.55683 10.2883 9.62043 10.2953C10.651 10.3944 11.6897 10.2277 12.6376 9.81106C13.542 9.38986 13.8838 8.92634 13.8325 8.55122C13.8154 8.43466 13.7606 8.3269 13.6765 8.24442C13.4292 8.04082 13.1355 7.90128 12.8214 7.83814C12.6777 7.79769 12.5803 7.77186 12.4752 7.73716C12.2885 7.67548 12.1963 7.62583 12.1753 7.27366C12.1662 7.11966 12.1395 6.58311 12.1297 6.36137C12.1127 5.97286 12.0661 5.44182 11.7376 5.22256C11.654 5.16751 11.5568 5.13638 11.4568 5.13252C11.4007 5.12911 11.3444 5.13464 11.29 5.14891C11.1236 5.18742 10.972 5.27342 10.8535 5.39647C10.6999 5.53525 10.5193 5.6408 10.3231 5.70651C10.1268 5.77222 9.91907 5.79667 9.71299 5.77833C9.48307 5.76871 9.23947 5.7328 8.96027 5.71617C8.90595 5.71296 8.85139 5.70958 8.79691 5.70679C8.43739 5.71622 8.09315 5.85446 7.82698 6.09634C7.56079 6.33822 7.39031 6.66764 7.34658 7.02464C7.1867 8.12802 7.98331 8.69818 8.21331 9.03274C8.24883 9.07539 8.27083 9.12754 8.27659 9.18274C8.27051 9.24395 8.24123 9.3005 8.19475 9.34074C7.87662 9.69514 7.65303 10.1244 7.54468 10.5882C7.43632 11.0519 7.44669 11.5355 7.57482 11.9942C7.60522 12.1043 7.64418 12.2119 7.69135 12.316C8.27259 13.6785 10.0758 14.3129 11.8375 13.7358C12.0681 13.6603 12.292 13.5655 12.5068 13.4523C12.8925 13.2611 13.24 13.0007 13.5317 12.684C13.9854 12.228 14.284 11.6407 14.385 11.0055C14.438 10.6543 14.3604 10.5184 14.2545 10.4531C14.1796 10.4114 14.0932 10.3955 14.0084 10.408C13.9636 10.1322 13.8848 9.86298 13.7741 9.6065C13.2709 9.9861 12.7022 10.2699 12.0963 10.4435C11.3672 10.6495 10.6088 10.7317 9.85267 10.6868C9.36611 10.6474 9.04427 10.5049 8.92323 10.8995C9.65915 11.1456 10.4405 11.2254 11.2109 11.133C11.2164 11.1324 11.2218 11.1329 11.2271 11.1345C11.2323 11.136 11.2372 11.1387 11.2413 11.1421C11.2456 11.1455 11.2491 11.1498 11.2516 11.1546C11.2542 11.1594 11.2558 11.1647 11.2564 11.1701C11.2572 11.1792 11.2551 11.1883 11.2505 11.1963C11.2459 11.2042 11.239 11.2104 11.2307 11.2143C11.2307 11.2143 10.327 11.6351 8.89195 11.1899ZM6.24547 4.79154C6.84315 4.37194 7.51707 4.07316 8.22931 3.91202C9.03283 3.72582 9.86803 3.72356 10.6725 3.90543C10.7007 3.9119 10.7187 3.86298 10.6935 3.84884C10.276 3.63146 9.81515 3.51031 9.34475 3.49425C9.34019 3.49417 9.33579 3.49283 9.33195 3.4904C9.32811 3.48797 9.32507 3.48453 9.32307 3.48046C9.32107 3.47639 9.32027 3.47185 9.32067 3.46734C9.32107 3.46282 9.32275 3.45851 9.32547 3.45488C9.39851 3.35898 9.48387 3.27308 9.57931 3.1994C9.58355 3.19606 9.58667 3.19145 9.58819 3.18623C9.58963 3.18101 9.58939 3.17546 9.58747 3.17038C9.58555 3.1653 9.58211 3.16095 9.57755 3.15798C9.57299 3.15502 9.56763 3.15358 9.56227 3.15387C8.98619 3.21082 8.43259 3.40686 7.94913 3.72513C7.945 3.72793 7.94012 3.72942 7.93513 3.72941C7.93015 3.72939 7.92527 3.72788 7.92115 3.72506C7.91704 3.72225 7.91387 3.71825 7.91205 3.71361C7.91023 3.70896 7.90986 3.70387 7.91097 3.69901C7.94991 3.55306 8.00723 3.41265 8.08163 3.28118C8.08411 3.27667 8.08507 3.2715 8.08435 3.26642C8.08371 3.26134 8.08139 3.25662 8.07779 3.25294C8.07419 3.24926 8.06955 3.24683 8.06451 3.246C8.05947 3.24518 8.05427 3.24599 8.04971 3.24834C7.35045 3.63429 6.72765 4.14482 6.212 4.75473C6.20796 4.75936 6.20576 4.7653 6.20583 4.77145C6.20589 4.77759 6.2082 4.7835 6.21234 4.78804C6.21647 4.79258 6.22213 4.79546 6.22823 4.7961C6.23435 4.79674 6.24047 4.79512 6.24547 4.79154ZM10.9284 8.5369C10.9771 8.5677 11.0354 8.57954 11.0922 8.5701C11.149 8.56066 11.2004 8.53058 11.2365 8.4857C11.2813 8.3989 11.2162 8.28114 11.0909 8.22266C11.0423 8.19186 10.984 8.18002 10.9271 8.18946C10.8703 8.19898 10.8189 8.22906 10.7828 8.27394C10.738 8.36074 10.8032 8.47842 10.9284 8.5369ZM11.3126 7.12907C11.3426 7.28538 11.4075 7.43292 11.5023 7.56077C11.6002 7.54873 11.6993 7.54873 11.7972 7.56077C11.8545 7.3892 11.8596 7.20447 11.8116 7.03005C11.7408 6.70821 11.6451 6.51342 11.4471 6.5437C11.2492 6.57405 11.2419 6.80723 11.3126 7.12907ZM11.7338 7.86838C11.6838 7.85406 11.6307 7.85574 11.5817 7.87318C11.5328 7.89062 11.4906 7.92296 11.461 7.96564C11.4314 8.00834 11.4159 8.05922 11.4167 8.11114C11.4175 8.16306 11.4345 8.21346 11.4655 8.25522C11.4964 8.29698 11.5396 8.32794 11.589 8.34386C11.6385 8.35978 11.6916 8.35986 11.7412 8.34394C11.7906 8.3281 11.8339 8.29714 11.8648 8.25538C11.8957 8.2137 11.9128 8.16338 11.9137 8.11138C11.9209 8.05546 11.9062 7.99899 11.8726 7.9537C11.8391 7.90839 11.7893 7.87782 11.7338 7.86838Z" fill="black"/>
<path d="M8.44663 7.83963C8.41511 7.83519 8.40159 7.82168 8.39767 7.80378C8.38535 7.74826 8.47079 7.65688 8.56079 7.59092C8.69215 7.49487 8.84607 7.43424 9.00759 7.41484C9.16919 7.39545 9.33303 7.41794 9.48343 7.48017C9.62391 7.53812 9.74471 7.63536 9.83135 7.76022C9.86351 7.81273 9.86975 7.85344 9.84895 7.87478C9.81655 7.90897 9.73391 7.86979 9.59935 7.81078C9.43767 7.73145 9.25903 7.69298 9.07903 7.69871C8.86575 7.7338 8.65463 7.78085 8.44663 7.83963ZM9.78799 8.11579C9.72983 8.05467 9.65743 8.0089 9.57727 7.98262C9.49711 7.95634 9.41167 7.95036 9.32863 7.9652C9.20615 7.97822 9.09007 8.02658 8.99463 8.10442C8.95015 8.13634 8.91959 8.18411 8.90919 8.23787C8.90895 8.24387 8.90999 8.24979 8.91231 8.25531C8.91463 8.26083 8.91815 8.26579 8.92255 8.26979C8.93047 8.27699 8.94079 8.2809 8.95143 8.28074C8.99551 8.27426 9.03855 8.26235 9.07967 8.24523C9.25959 8.17739 9.45399 8.15723 9.64399 8.18659C9.73207 8.19651 9.77367 8.20202 9.79295 8.17178C9.79791 8.16306 9.80007 8.15299 9.79919 8.14299C9.79831 8.13299 9.79439 8.12355 9.78799 8.11579Z" fill="black"/>
</g>
<defs>
<clipPath id="clip0_1406_3418">
<rect width="16" height="16" fill="white"/>
</clipPath>
</defs>
</svg>
