<svg width="16" height="16" viewBox="0 0 16 16" fill="none" xmlns="http://www.w3.org/2000/svg">
<g clip-path="url(#clip0_348_3752)">
<path d="M4.50581 10.7528C4.51529 10.7643 4.52108 10.7784 4.5224 10.7932C4.52373 10.8081 4.52053 10.8229 4.51324 10.8359C4.47775 10.8935 4.42689 10.94 4.36639 10.9703C4.30588 11.0005 4.23813 11.0132 4.17078 11.007C4.05076 10.9941 3.94011 10.936 3.86122 10.8447C3.78232 10.7533 3.74106 10.6354 3.74576 10.5147C3.74372 10.3504 3.77374 10.1871 3.83412 10.0342C3.87224 9.93841 3.87622 9.83239 3.84539 9.73399C3.81455 9.63559 3.75079 9.5508 3.66482 9.49386C3.61393 9.46019 3.55682 9.43706 3.49685 9.42583C3.43688 9.4146 3.37526 9.4155 3.31564 9.42848C3.25723 9.44077 3.20187 9.46461 3.15281 9.49861C3.10375 9.53261 3.06199 9.57608 3.02997 9.62645C2.98469 9.70398 2.94948 9.78697 2.92519 9.87341C2.92051 9.88863 2.91673 9.90058 2.91386 9.9083C2.87408 10.0156 2.81065 10.0469 2.76768 10.0412C2.74736 10.0383 2.71942 10.0248 2.70152 9.97564C2.67904 9.83364 2.68924 9.68839 2.73134 9.55093C2.77344 9.41348 2.84633 9.28743 2.94447 9.18237C3.02689 9.09387 3.1292 9.02626 3.24293 8.98513C3.35666 8.944 3.47855 8.93054 3.59852 8.94586C3.72561 8.96332 3.84638 9.01204 3.95002 9.08764C4.05367 9.16323 4.13694 9.26335 4.1924 9.37903C4.24856 9.52121 4.27122 9.67441 4.25863 9.82676C4.24604 9.97911 4.19853 10.1265 4.11979 10.2575C4.10983 10.2798 4.10071 10.3003 4.09302 10.3187C4.06471 10.3699 4.04916 10.4272 4.0477 10.4856C4.04624 10.5441 4.05891 10.6021 4.08463 10.6546C4.10637 10.6859 4.13554 10.7114 4.16953 10.7286C4.20352 10.7459 4.24127 10.7545 4.27939 10.7536C4.31533 10.7531 4.35106 10.7481 4.38573 10.7386C4.43086 10.728 4.47749 10.7172 4.50581 10.7528ZM15.6298 11.0306C15.6046 11.5485 15.4952 12.059 15.3058 12.5418C14.3611 14.8124 12.1067 16.0764 9.421 15.9964C6.91733 15.9218 4.78198 14.5966 3.8474 12.4364C3.25741 12.4199 2.69299 12.192 2.25702 11.7941C1.80665 11.4102 1.51729 10.8708 1.44649 10.2832C1.40079 9.87899 1.45078 9.46968 1.59243 9.08833L1.06757 8.64235C-1.33398 6.6084 6.17745 -1.76617 8.57993 0.335707C8.59204 0.346288 9.39716 1.13871 9.39918 1.14066C9.40238 1.13903 9.84341 0.951442 9.84565 0.950527C11.9528 0.0752926 13.6627 0.497888 13.6648 1.89435C13.6659 2.6206 13.2046 3.4671 12.4655 4.23548C12.7609 4.53609 12.97 4.91057 13.071 5.31972C13.1525 5.60517 13.1965 5.89999 13.202 6.19679C13.2149 6.49274 13.2291 7.18222 13.2305 7.19449C13.2492 7.20017 13.4626 7.25889 13.5272 7.27712C13.9572 7.37141 14.3572 7.57017 14.6921 7.85582C14.8688 8.02865 14.9846 8.25427 15.0219 8.49866C15.0675 8.81575 14.9883 9.13816 14.8011 9.39813C14.8498 9.50921 14.8921 9.623 14.9277 9.73895C14.9899 9.93894 15.0352 10.1049 15.0421 10.1295C15.2708 10.1295 15.6298 10.3935 15.6298 11.0306ZM5.01673 9.7846C4.85341 8.72432 4.13835 8.35065 3.65316 8.324C3.53136 8.31753 3.40924 8.32624 3.2896 8.34992C2.42359 8.52516 1.93449 9.26408 2.03073 10.2242C2.10083 10.6549 2.3141 11.0494 2.63607 11.3439C2.95805 11.6384 3.36993 11.8157 3.80514 11.8472C3.88843 11.8494 3.97174 11.8436 4.05389 11.8297C4.93162 11.6795 5.16142 10.7236 5.01673 9.7846ZM6.49693 3.05397C7.23051 2.45088 8.01304 1.90993 8.83642 1.43674C8.83642 1.43674 8.18264 0.676389 7.98521 0.620355C6.77088 0.291095 4.14766 2.1057 2.47282 4.50307C1.79514 5.47308 0.825008 7.19089 1.28885 8.07436C1.45362 8.27265 1.6395 8.45242 1.8432 8.61047C2.1533 8.17337 2.62121 7.87396 3.14803 7.77554C3.80713 5.92274 4.96622 4.28855 6.49693 3.05397ZM9.13617 11.4444C9.16835 11.5853 9.238 11.7149 9.33775 11.8195C9.4375 11.9241 9.56366 11.9998 9.70289 12.0387C9.84772 12.0926 9.99716 12.1333 10.1494 12.1603C12.0702 12.4917 13.866 11.3901 14.2703 11.1126C14.3007 11.0918 14.3207 11.1121 14.2964 11.1489C14.2842 11.1684 14.271 11.1873 14.2568 11.2055C13.7619 11.8457 12.4316 12.5871 10.7009 12.5869C9.94601 12.5867 9.19155 12.32 8.91454 11.9101C8.48476 11.2741 8.89324 10.3459 9.60936 10.4426C9.61021 10.4427 9.8544 10.4705 9.92304 10.4781C11.0362 10.5852 12.1583 10.4051 13.182 9.955C14.1591 9.50008 14.5282 8.99943 14.4728 8.59416C14.4543 8.46829 14.3951 8.35193 14.3043 8.26281C14.0372 8.04288 13.7199 7.89216 13.3806 7.82395C13.2255 7.78025 13.1202 7.75236 13.0067 7.71487C12.8051 7.64825 12.7054 7.59462 12.6828 7.21422C12.6729 7.04787 12.644 6.46831 12.6335 6.22879C12.6151 5.80914 12.5648 5.23553 12.2099 4.99869C12.1196 4.93923 12.0147 4.9056 11.9066 4.90144C11.846 4.89775 11.7852 4.90373 11.7265 4.91914C11.5467 4.96074 11.3829 5.05363 11.2549 5.18654C11.0891 5.33645 10.894 5.45046 10.682 5.52144C10.4701 5.59242 10.2457 5.61883 10.023 5.59902C9.77472 5.58863 9.51158 5.54983 9.20995 5.53187C9.15128 5.52841 9.09234 5.52475 9.03354 5.52175C8.64517 5.53193 8.27338 5.68125 7.98585 5.94252C7.69831 6.20378 7.51416 6.55962 7.46693 6.94524C7.29423 8.13706 8.15471 8.75293 8.40313 9.11432C8.44151 9.16035 8.46532 9.21676 8.47151 9.27637C8.46495 9.34248 8.4333 9.40356 8.38307 9.44704C8.03946 9.82986 7.79796 10.2936 7.68091 10.7945C7.56387 11.2954 7.57506 11.8177 7.71346 12.3132C7.74631 12.4322 7.78839 12.5484 7.83934 12.6608C8.46721 14.1325 10.415 14.8178 12.3178 14.1944C12.567 14.1128 12.8088 14.0104 13.0408 13.8882C13.4575 13.6816 13.8327 13.4003 14.1479 13.0583C14.6379 12.5658 14.9604 11.9314 15.0695 11.2452C15.1268 10.8658 15.043 10.7191 14.9286 10.6485C14.8478 10.6035 14.7544 10.5864 14.6628 10.5998C14.6144 10.3019 14.5293 10.0111 14.4097 9.73404C13.8662 10.1441 13.2519 10.4506 12.5974 10.6381C11.8099 10.8606 10.9907 10.9495 10.1739 10.901C9.6484 10.8584 9.30073 10.7045 9.16998 11.1308C9.96488 11.3966 10.8089 11.4827 11.6411 11.3829C11.6469 11.3823 11.6528 11.3829 11.6585 11.3846C11.6641 11.3863 11.6694 11.389 11.6739 11.3928C11.6785 11.3965 11.6823 11.4011 11.685 11.4063C11.6878 11.4115 11.6895 11.4172 11.6901 11.423C11.691 11.4329 11.6888 11.4427 11.6838 11.4513C11.6789 11.4598 11.6714 11.4666 11.6624 11.4707C11.6624 11.4707 10.6863 11.9253 9.13617 11.4444ZM6.27755 4.53312C6.92314 4.07987 7.65109 3.75715 8.42046 3.58309C9.28837 3.38196 10.1905 3.37953 11.0595 3.57597C11.0899 3.58296 11.1093 3.53012 11.0821 3.51485C10.6312 3.28005 10.1334 3.14918 9.62527 3.13183C9.62038 3.13174 9.6156 3.13031 9.61147 3.12768C9.60734 3.12505 9.60401 3.12133 9.60186 3.11694C9.59971 3.11254 9.59881 3.10764 9.59926 3.10276C9.59971 3.09789 9.60151 3.09323 9.60443 3.08931C9.68336 2.98571 9.77555 2.89293 9.87865 2.81335C9.88327 2.80974 9.88661 2.80476 9.8882 2.79912C9.88979 2.79348 9.88954 2.78748 9.88749 2.78199C9.88543 2.77651 9.88168 2.77182 9.87677 2.76861C9.87187 2.76541 9.86607 2.76385 9.86022 2.76417C9.238 2.82568 8.64004 3.03744 8.11779 3.38122C8.11332 3.38424 8.10806 3.38585 8.10267 3.38584C8.09728 3.38583 8.09202 3.38419 8.08757 3.38115C8.08312 3.3781 8.07969 3.37379 8.07773 3.36877C8.07577 3.36375 8.07536 3.35826 8.07657 3.35301C8.11863 3.19535 8.18057 3.04369 8.26091 2.90167C8.26358 2.89682 8.26462 2.89123 8.26387 2.88574C8.26312 2.88025 8.26064 2.87515 8.25677 2.87118C8.25291 2.86721 8.24787 2.86458 8.24241 2.86369C8.23694 2.86279 8.23133 2.86367 8.2264 2.86621C7.47111 3.2831 6.79839 3.83455 6.2414 4.49336C6.23704 4.49836 6.23466 4.50478 6.23473 4.51142C6.2348 4.51805 6.2373 4.52443 6.24176 4.52934C6.24623 4.53425 6.25234 4.53735 6.25894 4.53804C6.26553 4.53874 6.27216 4.53699 6.27755 4.53312ZM11.3359 8.57872C11.3885 8.612 11.4514 8.62477 11.5128 8.61456C11.5742 8.60436 11.6297 8.57191 11.6687 8.52341C11.7171 8.42964 11.6468 8.30245 11.5115 8.23927C11.4589 8.206 11.3959 8.19325 11.3345 8.20348C11.2731 8.2137 11.2176 8.24618 11.1787 8.29471C11.1302 8.38842 11.2006 8.5156 11.3359 8.57872ZM11.7509 7.05804C11.7833 7.22688 11.8533 7.38625 11.9558 7.52435C12.0616 7.51134 12.1686 7.51134 12.2744 7.52435C12.3363 7.33902 12.3417 7.13949 12.29 6.95108C12.2135 6.60344 12.11 6.39304 11.8961 6.42575C11.6823 6.45852 11.6745 6.7104 11.7509 7.05804ZM12.2058 7.85662C12.1519 7.84115 12.0945 7.84296 12.0416 7.8618C11.9888 7.88064 11.9431 7.91557 11.9112 7.96167C11.8792 8.00778 11.8625 8.06274 11.8633 8.11884C11.8642 8.17494 11.8826 8.22936 11.916 8.27445C11.9494 8.31954 11.9961 8.35304 12.0495 8.37024C12.1029 8.38743 12.1603 8.38746 12.2138 8.37032C12.2672 8.35318 12.3139 8.31974 12.3473 8.27468C12.3808 8.22963 12.3993 8.17523 12.4002 8.11913C12.408 8.05874 12.392 7.99769 12.3558 7.94877C12.3196 7.89984 12.2658 7.86682 12.2058 7.85662Z" fill="#FF00FF"/>
<path d="M8.65541 7.82557C8.62129 7.82077 8.60676 7.80618 8.60247 7.78685C8.58922 7.72687 8.68146 7.62816 8.77869 7.55692C8.92059 7.45318 9.08679 7.38768 9.26132 7.36673C9.43585 7.34578 9.61283 7.37008 9.77526 7.43729C9.92702 7.49989 10.0575 7.60492 10.1511 7.7398C10.1859 7.79651 10.1926 7.84049 10.1701 7.86353C10.1351 7.90046 10.0458 7.85815 9.90046 7.7944C9.72584 7.70872 9.53287 7.66716 9.33846 7.67336C9.1081 7.71125 8.88006 7.76207 8.65541 7.82557ZM10.1043 8.12386C10.0415 8.05783 9.96325 8.00841 9.87666 7.98002C9.79006 7.95164 9.69777 7.94517 9.60806 7.96121C9.47577 7.97527 9.35043 8.02752 9.2473 8.11157C9.19925 8.14606 9.16622 8.19764 9.155 8.25572C9.15474 8.26218 9.1559 8.26861 9.1584 8.27458C9.1609 8.28054 9.16468 8.28588 9.16947 8.29022C9.17799 8.29796 9.18913 8.30219 9.20064 8.30206C9.24823 8.29508 9.29477 8.28218 9.33916 8.26365C9.53351 8.19041 9.74347 8.16861 9.94872 8.20035C10.0438 8.21104 10.0888 8.21699 10.1096 8.18435C10.115 8.17491 10.1174 8.16407 10.1164 8.15326C10.1154 8.14246 10.1112 8.1322 10.1043 8.12386Z" fill="#FF00FF"/>
</g>
<defs>
<clipPath id="clip0_348_3752">
<rect width="16" height="16" fill="white"/>
</clipPath>
</defs>
</svg>
