<svg width="16" height="16" viewBox="0 0 16 16" fill="none" xmlns="http://www.w3.org/2000/svg">
<g clip-path="url(#clip0_1_748)">
<path d="M15.1378 9.83222C15.3522 10.1089 15.4625 10.4522 15.4495 10.802C15.4269 11.3476 15.3128 11.8856 15.1119 12.3933L15.1071 12.4053C14.6531 13.4973 13.8601 14.4147 12.8453 15.0221C11.789 15.6365 10.5855 15.9521 9.36362 15.935C9.28458 15.935 9.20402 15.9337 9.12458 15.9314C7.9187 15.9062 6.74152 15.5588 5.71523 14.925C4.81186 14.3589 4.08081 13.5562 3.60144 12.604C3.04916 12.5181 2.53355 12.2742 2.11697 11.9017C1.59902 11.4592 1.26722 10.8374 1.18795 10.1609C1.15262 9.83206 1.17169 9.49974 1.24436 9.17726L1.0173 8.98526C0.83352 8.82646 0.68416 8.63182 0.578425 8.41318C0.472692 8.19454 0.412818 7.95662 0.402492 7.714C0.383862 7.21036 0.470904 6.7084 0.658015 6.24044C1.12411 4.96792 2.19635 3.45266 3.52646 2.18704C4.12002 1.61106 4.77846 1.10595 5.48856 0.681871C6.08082 0.303064 6.76103 0.083974 7.46304 0.0459094C7.91581 0.0341006 8.35682 0.190985 8.70042 0.486096C8.72002 0.503204 9.01394 0.790688 9.2369 1.00909C9.29282 0.98548 9.33426 0.968048 9.33426 0.968048C9.99386 0.680748 10.7027 0.523443 11.4219 0.504763C12.7545 0.504763 13.6166 1.21937 13.6183 2.32532C13.6193 3.00772 13.2843 3.77273 12.6666 4.51329C12.8347 4.77312 12.9618 5.05724 13.0435 5.35569C13.1313 5.66122 13.1793 5.97676 13.1865 6.29455C13.1925 6.43127 13.1986 6.65065 13.2035 6.84428C13.6592 6.95962 14.0803 7.18326 14.4311 7.49618C14.669 7.73211 14.8249 8.03806 14.8762 8.3691C14.9276 8.6959 14.8771 9.03054 14.7315 9.32758C14.7445 9.36478 14.758 9.40518 14.7714 9.44798C14.7831 9.48534 14.7941 9.52134 14.8043 9.55542C14.9327 9.62486 15.0459 9.71894 15.1378 9.83222Z" fill="white"/>
<path d="M4.60503 10.5496C4.61381 10.5603 4.61917 10.5733 4.62039 10.5871C4.62162 10.6007 4.61867 10.6146 4.61191 10.6266C4.57906 10.6799 4.53197 10.723 4.47595 10.7509C4.41994 10.7789 4.35723 10.7907 4.29487 10.785C4.18375 10.773 4.08132 10.7193 4.00828 10.6347C3.93524 10.5501 3.89703 10.4409 3.90139 10.3292C3.89951 10.1771 3.92729 10.0259 3.98319 9.88434C4.01848 9.7957 4.02217 9.69754 3.99363 9.60642C3.96508 9.5153 3.90605 9.43682 3.82646 9.3841C3.77935 9.35298 3.72647 9.33154 3.67095 9.32114C3.61543 9.31074 3.55839 9.31154 3.50319 9.32362C3.44912 9.33498 3.39787 9.35706 3.35245 9.3885C3.30703 9.42002 3.26836 9.46026 3.23872 9.5069C3.1968 9.57866 3.1642 9.65546 3.14172 9.73546C3.13739 9.74962 3.13389 9.76066 3.13123 9.76778C3.0944 9.86714 3.03568 9.8961 2.9959 9.89082C2.97709 9.88818 2.95123 9.87562 2.93464 9.8301C2.91383 9.69866 2.92328 9.56418 2.96226 9.43698C3.00123 9.3097 3.06871 9.19298 3.15957 9.09578C3.23587 9.01378 3.33059 8.95122 3.43588 8.91314C3.54117 8.87506 3.65401 8.86258 3.76507 8.87682C3.88273 8.89298 3.99455 8.93802 4.0905 9.00802C4.18645 9.07802 4.26355 9.17074 4.31488 9.27778C4.36687 9.40946 4.38785 9.5513 4.37619 9.69234C4.36454 9.83338 4.32055 9.96978 4.24767 10.0911C4.23844 10.1117 4.22999 10.1307 4.22288 10.1478C4.19667 10.1951 4.18227 10.2482 4.18092 10.3023C4.17957 10.3564 4.1913 10.4101 4.21511 10.4587C4.23524 10.4877 4.26225 10.5112 4.29371 10.5272C4.32519 10.5432 4.36013 10.5512 4.39542 10.5503C4.42869 10.5499 4.46177 10.5452 4.49387 10.5365C4.53564 10.5267 4.57881 10.5167 4.60503 10.5496ZM14.9035 10.8067C14.8801 11.2863 14.7788 11.7588 14.6035 12.2058C13.7289 14.3079 11.6418 15.4782 9.15545 15.4041C6.83759 15.3351 4.86071 14.1082 3.99549 12.1083C3.44929 12.093 2.92675 11.8819 2.52314 11.5136C2.10619 11.1582 1.83831 10.6588 1.77276 10.1149C1.73045 9.74066 1.77674 9.3617 1.90787 9.00866L1.42197 8.59578C-0.801357 6.7128 6.15261 -1.04024 8.37681 0.905641C8.38801 0.915433 9.13337 1.64905 9.13521 1.65086C9.13817 1.64934 9.54649 1.47568 9.54857 1.47483C11.4994 0.664553 13.0823 1.05578 13.0843 2.34861C13.0854 3.02096 12.6583 3.80463 11.974 4.51598C12.2475 4.79429 12.4411 5.14098 12.5346 5.51977C12.61 5.78402 12.6508 6.05697 12.6559 6.33174C12.6678 6.60572 12.6809 7.24403 12.6822 7.2554C12.6996 7.26066 12.8971 7.31502 12.957 7.33189C13.355 7.41918 13.7253 7.60319 14.0353 7.86764C14.199 8.02762 14.3062 8.2365 14.3407 8.46274C14.3828 8.75634 14.3096 9.05482 14.1363 9.29546C14.1814 9.39834 14.2205 9.5037 14.2535 9.61098C14.3111 9.79618 14.353 9.94978 14.3594 9.97258C14.5711 9.97258 14.9035 10.217 14.9035 10.8067ZM5.07803 9.6533C4.92684 8.6717 4.26484 8.32578 3.81566 8.30106C3.70291 8.29506 3.58985 8.30314 3.47908 8.32506C2.67735 8.4873 2.22455 9.17138 2.31365 10.0603C2.37854 10.459 2.57598 10.8242 2.87406 11.0968C3.17215 11.3695 3.55345 11.5336 3.95636 11.5628C4.03347 11.5648 4.11059 11.5595 4.18666 11.5466C4.99924 11.4076 5.21199 10.5226 5.07803 9.6533ZM6.44839 3.42217C7.12752 2.86383 7.85198 2.36303 8.61425 1.92496C8.61425 1.92496 8.00897 1.22104 7.8262 1.16916C6.702 0.864337 4.27347 2.54427 2.72293 4.76372C2.09554 5.66174 1.1974 7.25206 1.62682 8.06994C1.77937 8.25354 1.95145 8.41994 2.14003 8.56626C2.42711 8.16162 2.86031 7.88444 3.34803 7.79332C3.95821 6.07803 5.03128 4.56512 6.44839 3.42217ZM8.89177 11.1899C8.92153 11.3203 8.98601 11.4403 9.07833 11.5371C9.17073 11.634 9.28753 11.7041 9.41641 11.74C9.55049 11.79 9.68881 11.8277 9.82977 11.8527C11.608 12.1595 13.2706 11.1396 13.6449 10.8827C13.673 10.8635 13.6915 10.8823 13.669 10.9163C13.6577 10.9344 13.6455 10.9519 13.6323 10.9687C13.1743 11.5614 11.9427 12.2478 10.3403 12.2475C9.64145 12.2475 8.94305 12.0005 8.68657 11.6211C8.28865 11.0323 8.66681 10.1729 9.32985 10.2624C9.33057 10.2626 9.55665 10.2883 9.62025 10.2953C10.6508 10.3944 11.6895 10.2277 12.6374 9.81106C13.5419 9.38986 13.8836 8.92634 13.8323 8.55122C13.8152 8.43466 13.7604 8.3269 13.6763 8.24442C13.429 8.04082 13.1353 7.90128 12.8212 7.83814C12.6775 7.79769 12.5801 7.77186 12.4751 7.73716C12.2883 7.67548 12.1961 7.62583 12.1751 7.27366C12.166 7.11966 12.1393 6.58311 12.1295 6.36137C12.1125 5.97286 12.0659 5.44182 11.7374 5.22256C11.6538 5.16751 11.5567 5.13638 11.4566 5.13252C11.4005 5.12911 11.3442 5.13464 11.2899 5.14891C11.1235 5.18742 10.9718 5.27342 10.8533 5.39647C10.6997 5.53525 10.5191 5.6408 10.3229 5.70651C10.1267 5.77222 9.91889 5.79667 9.71281 5.77833C9.48289 5.76871 9.23929 5.7328 8.96009 5.71617C8.90577 5.71296 8.85121 5.70958 8.79673 5.70679C8.43721 5.71622 8.09297 5.85446 7.82679 6.09634C7.5606 6.33822 7.39012 6.66764 7.34639 7.02464C7.18651 8.12802 7.98313 8.69818 8.21313 9.03274C8.24865 9.07538 8.27065 9.12754 8.27641 9.18274C8.27033 9.24394 8.24105 9.3005 8.19457 9.34074C7.87644 9.69514 7.65285 10.1244 7.5445 10.5882C7.43614 11.0519 7.44651 11.5355 7.57463 11.9942C7.60503 12.1043 7.64399 12.2119 7.69116 12.316C8.27241 13.6785 10.0756 14.3129 11.8373 13.7358C12.0679 13.6603 12.2919 13.5655 12.5066 13.4523C12.8923 13.2611 13.2398 13.0007 13.5315 12.684C13.9852 12.228 14.2838 11.6407 14.3848 11.0055C14.4378 10.6543 14.3602 10.5184 14.2543 10.4531C14.1795 10.4114 14.093 10.3955 14.0083 10.408C13.9634 10.1322 13.8847 9.86298 13.7739 9.6065C13.2707 9.9861 12.702 10.2699 12.0961 10.4435C11.3671 10.6495 10.6087 10.7317 9.85249 10.6868C9.36593 10.6474 9.04409 10.5049 8.92305 10.8995C9.65897 11.1456 10.4403 11.2254 11.2107 11.133C11.2162 11.1324 11.2216 11.1329 11.2269 11.1345C11.2321 11.136 11.237 11.1387 11.2411 11.1421C11.2454 11.1455 11.2489 11.1498 11.2515 11.1546C11.254 11.1594 11.2556 11.1647 11.2562 11.1701C11.257 11.1792 11.2549 11.1883 11.2503 11.1963C11.2457 11.2042 11.2388 11.2104 11.2305 11.2143C11.2305 11.2143 10.3268 11.6351 8.89177 11.1899ZM6.24528 4.79154C6.84296 4.37194 7.51688 4.07316 8.22913 3.91202C9.03265 3.72582 9.86785 3.72356 10.6723 3.90543C10.7005 3.9119 10.7185 3.86298 10.6933 3.84884C10.2758 3.63146 9.81497 3.51031 9.34457 3.49425C9.34001 3.49417 9.33561 3.49283 9.33177 3.4904C9.32793 3.48797 9.32489 3.48453 9.32289 3.48046C9.32089 3.47639 9.32009 3.47185 9.32049 3.46734C9.32089 3.46282 9.32257 3.45851 9.32529 3.45488C9.39833 3.35898 9.48369 3.27308 9.57913 3.1994C9.58337 3.19606 9.58649 3.19145 9.58801 3.18623C9.58945 3.18101 9.58921 3.17546 9.58729 3.17038C9.58537 3.1653 9.58193 3.16095 9.57737 3.15798C9.57281 3.15502 9.56745 3.15358 9.56209 3.15387C8.98601 3.21082 8.43241 3.40686 7.94895 3.72513C7.94482 3.72793 7.93994 3.72942 7.93495 3.72941C7.92996 3.72939 7.92509 3.72788 7.92097 3.72506C7.91686 3.72225 7.91368 3.71825 7.91187 3.71361C7.91005 3.70896 7.90967 3.70387 7.91079 3.69901C7.94972 3.55306 8.00705 3.41265 8.08145 3.28118C8.08393 3.27667 8.08489 3.2715 8.08417 3.26642C8.08353 3.26134 8.08121 3.25662 8.07761 3.25294C8.07401 3.24926 8.06937 3.24683 8.06433 3.246C8.05929 3.24518 8.05409 3.24599 8.04953 3.24834C7.35027 3.63429 6.72747 4.14482 6.21182 4.75473C6.20778 4.75936 6.20558 4.7653 6.20564 4.77145C6.20571 4.77759 6.20802 4.7835 6.21215 4.78804C6.21628 4.79258 6.22195 4.79546 6.22805 4.7961C6.23416 4.79674 6.24029 4.79512 6.24528 4.79154ZM10.9282 8.5369C10.9769 8.5677 11.0352 8.57954 11.092 8.5701C11.1488 8.56066 11.2002 8.53058 11.2363 8.4857C11.2811 8.3989 11.216 8.28114 11.0907 8.22266C11.0421 8.19186 10.9838 8.18002 10.9269 8.18946C10.8701 8.19898 10.8187 8.22906 10.7827 8.27394C10.7378 8.36074 10.803 8.47842 10.9282 8.5369ZM11.3124 7.12907C11.3424 7.28538 11.4073 7.43292 11.5021 7.56077C11.6 7.54873 11.6991 7.54873 11.7971 7.56077C11.8543 7.3892 11.8594 7.20447 11.8115 7.03005C11.7407 6.70821 11.6449 6.51342 11.4469 6.5437C11.249 6.57405 11.2417 6.80723 11.3124 7.12907ZM11.7336 7.86838C11.6836 7.85406 11.6305 7.85574 11.5815 7.87318C11.5327 7.89062 11.4904 7.92296 11.4608 7.96564C11.4312 8.00834 11.4157 8.05922 11.4165 8.11114C11.4173 8.16306 11.4343 8.21346 11.4653 8.25522C11.4962 8.29698 11.5394 8.32794 11.5888 8.34386C11.6383 8.35978 11.6915 8.35986 11.741 8.34394C11.7904 8.3281 11.8337 8.29714 11.8646 8.25538C11.8955 8.2137 11.9127 8.16338 11.9135 8.11138C11.9207 8.05546 11.906 7.99899 11.8724 7.9537C11.8389 7.90839 11.7891 7.87782 11.7336 7.86838Z" fill="black"/>
<path d="M8.44663 7.83963C8.41511 7.83519 8.40159 7.82168 8.39767 7.80378C8.38535 7.74826 8.47079 7.65688 8.56079 7.59092C8.69215 7.49487 8.84607 7.43424 9.00759 7.41484C9.16919 7.39545 9.33303 7.41794 9.48343 7.48017C9.62391 7.53812 9.74471 7.63536 9.83135 7.76022C9.86351 7.81273 9.86975 7.85344 9.84895 7.87478C9.81655 7.90897 9.73391 7.86979 9.59935 7.81078C9.43767 7.73145 9.25903 7.69298 9.07903 7.69871C8.86575 7.7338 8.65463 7.78085 8.44663 7.83963ZM9.78799 8.11579C9.72983 8.05467 9.65743 8.0089 9.57727 7.98262C9.49711 7.95634 9.41167 7.95036 9.32863 7.9652C9.20615 7.97822 9.09007 8.02658 8.99463 8.10442C8.95015 8.13634 8.91959 8.18411 8.90919 8.23787C8.90895 8.24387 8.90999 8.24979 8.91231 8.25531C8.91463 8.26083 8.91815 8.26579 8.92255 8.26979C8.93047 8.27699 8.94079 8.2809 8.95143 8.28074C8.99551 8.27426 9.03855 8.26235 9.07967 8.24523C9.25959 8.17739 9.45399 8.15723 9.64399 8.18659C9.73207 8.19651 9.77367 8.20202 9.79295 8.17178C9.79791 8.16306 9.80007 8.15299 9.79919 8.14299C9.79831 8.13299 9.79439 8.12355 9.78799 8.11579Z" fill="black"/>
</g>
<defs>
<clipPath id="clip0_1_748">
<rect width="16" height="16" fill="white"/>
</clipPath>
</defs>
</svg>
