<svg width="16" height="16" viewBox="0 0 16 16" fill="none" xmlns="http://www.w3.org/2000/svg">
<g clip-path="url(#clip0_348_3741)">
<path d="M15.1378 9.83237C15.3522 10.1091 15.4625 10.4523 15.4494 10.8021C15.4269 11.3477 15.3128 11.8857 15.1119 12.3935L15.1072 12.4054C14.653 13.4975 13.8601 14.4148 12.8452 15.0222C11.789 15.6366 10.5855 15.9522 9.36363 15.9351C9.28456 15.9351 9.20399 15.9339 9.12459 15.9316C7.91868 15.9064 6.7415 15.5589 5.71521 14.9252C4.81183 14.3591 4.08079 13.5563 3.60141 12.6041C3.04913 12.5183 2.53353 12.2744 2.11694 11.9018C1.599 11.4593 1.2672 10.8375 1.18793 10.1609C1.15261 9.83221 1.17166 9.49989 1.24434 9.17734L1.01728 8.98534C0.833495 8.82661 0.684137 8.63194 0.578403 8.41332C0.472668 8.1947 0.412795 7.95675 0.402469 7.71412C0.383839 7.21048 0.470881 6.70852 0.657992 6.24056C1.12409 4.96804 2.19633 3.45279 3.52644 2.18716C4.12 1.61118 4.77844 1.10607 5.48854 0.681993C6.0808 0.303185 6.76101 0.0840957 7.46302 0.0460314C7.91579 0.0342226 8.35679 0.191108 8.70037 0.486218C8.71998 0.503326 9.01393 0.790811 9.23688 1.00921C9.29283 0.985602 9.33308 0.968618 9.33426 0.968171C9.99384 0.68087 10.7027 0.523565 11.4219 0.504885C12.7544 0.504885 13.6166 1.21949 13.6183 2.32544C13.6193 3.00784 13.2843 3.77285 12.6666 4.51341C12.8346 4.77324 12.9618 5.05736 13.0435 5.35581C13.1312 5.66134 13.1793 5.97688 13.1865 6.29467C13.1925 6.43139 13.1986 6.65077 13.2035 6.8444C13.6592 6.95974 14.0804 7.18338 14.4311 7.4963C14.6689 7.73224 14.8249 8.03816 14.8761 8.36921C14.9276 8.69598 14.8771 9.03069 14.7315 9.32773C14.7445 9.36493 14.758 9.40532 14.7714 9.44812C14.7831 9.48545 14.7941 9.52142 14.8044 9.55556C14.9326 9.625 15.0459 9.71906 15.1378 9.83237Z" fill="white"/>
<path d="M4.60505 10.5495C4.61383 10.5602 4.61919 10.5732 4.62041 10.5869C4.62164 10.6007 4.61868 10.6144 4.61193 10.6265C4.57908 10.6798 4.53199 10.7228 4.47597 10.7508C4.41996 10.7788 4.35724 10.7906 4.29489 10.7848C4.18377 10.7729 4.08134 10.7191 4.0083 10.6346C3.93526 10.55 3.89705 10.4408 3.90141 10.3291C3.89952 10.1769 3.92731 10.0258 3.98321 9.88425C4.0185 9.79555 4.02218 9.6974 3.99364 9.6063C3.9651 9.5152 3.90607 9.43671 3.82647 9.384C3.77937 9.35283 3.72649 9.33141 3.67097 9.32101C3.61545 9.31062 3.55841 9.31145 3.50321 9.32347C3.44914 9.33484 3.39789 9.35692 3.35247 9.38839C3.30705 9.41987 3.26838 9.46011 3.23874 9.50675C3.19682 9.57852 3.16422 9.65535 3.14174 9.73538C3.1374 9.74947 3.1339 9.76053 3.13125 9.76768C3.09442 9.86702 3.0357 9.89599 2.99591 9.89067C2.9771 9.88807 2.95124 9.87549 2.93466 9.83002C2.91386 9.69856 2.9233 9.56409 2.96227 9.43683C3.00125 9.30958 3.06873 9.19288 3.15959 9.09562C3.23589 9.01369 3.33061 8.95109 3.4359 8.91302C3.54119 8.87494 3.65403 8.86248 3.76509 8.87666C3.88275 8.89283 3.99456 8.93793 4.09051 9.00792C4.18646 9.0779 4.26356 9.1706 4.3149 9.27769C4.36689 9.40932 4.38787 9.55115 4.37621 9.69219C4.36456 9.83323 4.32058 9.96969 4.24768 10.091C4.23846 10.1116 4.23001 10.1305 4.2229 10.1477C4.19669 10.195 4.18229 10.248 4.18094 10.3022C4.17959 10.3563 4.19131 10.41 4.21513 10.4586C4.23526 10.4876 4.26226 10.5111 4.29373 10.5271C4.3252 10.5431 4.36015 10.5511 4.39544 10.5503C4.42871 10.5498 4.46178 10.5451 4.49388 10.5363C4.53566 10.5266 4.57883 10.5165 4.60505 10.5495L4.60505 10.5495ZM14.9035 10.8066C14.8801 11.2862 14.7788 11.7587 14.6035 12.2057C13.7289 14.3078 11.6418 15.478 9.15545 15.404C6.8376 15.3349 4.86072 14.1081 3.99551 12.1082C3.4493 12.0929 2.92677 11.8819 2.52316 11.5135C2.10621 11.1581 1.83833 10.6587 1.77278 10.1148C1.73047 9.74054 1.77675 9.36161 1.90789 9.00856L1.42198 8.59568C-0.80134 6.71268 6.15263 -1.04036 8.37681 0.905519C8.38802 0.915314 9.13339 1.64893 9.13526 1.65073C9.13822 1.64922 9.54652 1.47556 9.54859 1.47471C11.4994 0.664431 13.0823 1.05566 13.0843 2.34849C13.0854 3.02084 12.6582 3.80451 11.9741 4.51587C12.2475 4.79417 12.4411 5.14086 12.5346 5.51964C12.61 5.7839 12.6508 6.05685 12.6559 6.33162C12.6678 6.6056 12.6809 7.24391 12.6822 7.25528C12.6996 7.26053 12.8971 7.3149 12.9569 7.33177C13.355 7.41907 13.7253 7.60307 14.0353 7.86752C14.199 8.02752 14.3061 8.23641 14.3407 8.46265C14.3829 8.75621 14.3096 9.05469 14.1363 9.29537C14.1814 9.3982 14.2205 9.50355 14.2535 9.61089C14.3111 9.79605 14.353 9.9497 14.3594 9.97249C14.5711 9.97249 14.9035 10.2169 14.9035 10.8067L14.9035 10.8066ZM5.07805 9.65315C4.92686 8.67157 4.26486 8.32563 3.81568 8.30095C3.70292 8.29497 3.58986 8.30303 3.4791 8.32495C2.67737 8.48719 2.22457 9.17127 2.31366 10.0602C2.37855 10.4589 2.576 10.8241 2.87408 11.0967C3.17216 11.3694 3.55347 11.5335 3.95638 11.5627C4.03349 11.5647 4.11061 11.5593 4.18667 11.5465C4.99926 11.4075 5.21201 10.5224 5.07805 9.65315ZM6.4484 3.42204C7.12754 2.86371 7.85199 2.36291 8.61426 1.92484C8.61426 1.92484 8.00901 1.22092 7.82622 1.16904C6.70202 0.864218 4.27348 2.54415 2.72294 4.7636C2.09555 5.66162 1.19742 7.25194 1.62683 8.06984C1.77938 8.25342 1.95147 8.41984 2.14004 8.56617C2.42713 8.1615 2.86032 7.88432 3.34804 7.7932C3.95822 6.07791 5.0313 4.565 6.4484 3.42204ZM8.89177 11.1898C8.92156 11.3202 8.98604 11.4402 9.07839 11.5371C9.17074 11.6339 9.28753 11.704 9.41643 11.7399C9.55051 11.7899 9.68886 11.8276 9.82976 11.8525C11.6081 12.1593 13.2706 11.1395 13.6449 10.8826C13.673 10.8633 13.6915 10.8821 13.669 10.9162C13.6577 10.9343 13.6455 10.9518 13.6323 10.9686C13.1742 11.5613 11.9427 12.2477 10.3403 12.2474C9.6415 12.2473 8.94304 12.0004 8.68658 11.6209C8.2887 11.0321 8.66687 10.1728 9.32984 10.2623C9.33062 10.2624 9.5567 10.2881 9.62024 10.2952C10.6508 10.3943 11.6896 10.2276 12.6374 9.81091C13.5419 9.38975 13.8836 8.92626 13.8323 8.55106C13.8152 8.43454 13.7604 8.32681 13.6764 8.24431C13.429 8.0407 13.1353 7.90116 12.8212 7.83802C12.6776 7.79756 12.5801 7.77174 12.4751 7.73704C12.2884 7.67536 12.1961 7.62571 12.1751 7.27354C12.166 7.11953 12.1393 6.58299 12.1296 6.36125C12.1125 5.97274 12.066 5.4417 11.7374 5.22244C11.6538 5.16739 11.5567 5.13626 11.4566 5.1324C11.4005 5.12899 11.3442 5.13452 11.2899 5.14879C11.1234 5.1873 10.9718 5.2733 10.8533 5.39635C10.6997 5.53513 10.5192 5.64068 10.3229 5.70639C10.1267 5.7721 9.91894 5.79655 9.71279 5.77821C9.48292 5.76859 9.23931 5.73267 8.96007 5.71605C8.90575 5.71284 8.85119 5.70946 8.79676 5.70667C8.43721 5.71611 8.09301 5.85434 7.82681 6.09622C7.56062 6.33809 7.39014 6.66752 7.34641 7.02452C7.18653 8.12789 7.98315 8.69805 8.21313 9.03262C8.24867 9.07523 8.2707 9.12746 8.27643 9.18265C8.27037 9.24385 8.24107 9.3004 8.19456 9.34065V9.34101C7.87645 9.69542 7.65287 10.1243 7.54451 10.5881C7.43615 11.0518 7.44652 11.5354 7.57465 11.9941C7.60505 12.1042 7.64401 12.2118 7.69118 12.3159C8.27245 13.6784 10.0756 14.3128 11.8373 13.7357C12.068 13.6602 12.2919 13.5653 12.5066 13.4522C12.8924 13.261 13.2398 13.0006 13.5315 12.6839C13.9852 12.2279 14.2838 11.6406 14.3848 11.0054C14.4378 10.6542 14.3602 10.5183 14.2543 10.453C14.1795 10.4113 14.093 10.3954 14.0082 10.4079C13.9634 10.1321 13.8847 9.86287 13.7739 9.60635C13.2708 9.986 12.702 10.2697 12.0961 10.4434C11.3671 10.6493 10.6087 10.7316 9.85248 10.6867C9.36598 10.6473 9.04412 10.5048 8.92306 10.8994C9.65897 11.1455 10.4403 11.2252 11.2108 11.1328C11.2162 11.1323 11.2217 11.1328 11.2269 11.1344C11.2321 11.1359 11.237 11.1385 11.2412 11.142C11.2454 11.1454 11.2489 11.1497 11.2515 11.1545C11.254 11.1593 11.2556 11.1645 11.2562 11.17C11.257 11.1791 11.2549 11.1882 11.2503 11.1961C11.2457 11.204 11.2388 11.2103 11.2305 11.2141C11.2305 11.2141 10.3269 11.635 8.89177 11.1898ZM6.2453 4.79142C6.84298 4.37181 7.5169 4.07304 8.22917 3.9119C9.03267 3.72569 9.86786 3.72344 10.6724 3.90531C10.7005 3.91178 10.7185 3.86286 10.6933 3.84872C10.2758 3.63135 9.81497 3.51019 9.34457 3.49413C9.34004 3.49404 9.33562 3.49271 9.33179 3.49028C9.32797 3.48785 9.32489 3.48441 9.3229 3.48034C9.3209 3.47627 9.32007 3.47173 9.32049 3.46721C9.32091 3.4627 9.32257 3.45839 9.32528 3.45476C9.39835 3.35885 9.4837 3.27296 9.57914 3.19928C9.58342 3.19594 9.58652 3.19133 9.58799 3.18611C9.58946 3.18089 9.58923 3.17533 9.58733 3.17025C9.58542 3.16517 9.58195 3.16083 9.57741 3.15787C9.57287 3.1549 9.5675 3.15346 9.56208 3.15375C8.98604 3.2107 8.43246 3.40674 7.94896 3.72501C7.94483 3.72781 7.93995 3.7293 7.93497 3.72928C7.92998 3.72927 7.92511 3.72776 7.92099 3.72494C7.91687 3.72212 7.9137 3.71813 7.91188 3.71348C7.91007 3.70884 7.90969 3.70375 7.9108 3.69889C7.94974 3.55293 8.00709 3.41253 8.08147 3.28105C8.08394 3.27655 8.0849 3.27138 8.08421 3.2663C8.08352 3.26122 8.08121 3.25649 8.07764 3.25282C8.07406 3.24914 8.0694 3.24671 8.06433 3.24588C8.05927 3.24505 8.05408 3.24587 8.04952 3.24821C7.35028 3.63417 6.72749 4.14469 6.21184 4.75461C6.2078 4.75924 6.2056 4.76519 6.20566 4.77133C6.20572 4.77747 6.20804 4.78337 6.21217 4.78792C6.2163 4.79246 6.22196 4.79533 6.22807 4.79598C6.23418 4.79662 6.24031 4.795 6.2453 4.79142ZM10.9282 8.53677C10.9769 8.56759 11.0352 8.5794 11.092 8.56996C11.1489 8.56051 11.2002 8.53047 11.2363 8.48557C11.2812 8.39875 11.216 8.28101 11.0908 8.22252C11.0421 8.19171 10.9838 8.17991 10.9269 8.18938C10.8701 8.19884 10.8188 8.22891 10.7827 8.27384C10.7378 8.36059 10.803 8.47834 10.9282 8.53677ZM11.3124 7.12895C11.3425 7.28526 11.4073 7.4328 11.5021 7.56065C11.6001 7.54861 11.6991 7.54861 11.7971 7.56065C11.8544 7.38908 11.8594 7.20435 11.8115 7.02992C11.7407 6.70809 11.6449 6.5133 11.4469 6.54358C11.249 6.57392 11.2417 6.80711 11.3124 7.12895ZM11.7336 7.86827C11.6837 7.85394 11.6305 7.85562 11.5816 7.87306C11.5326 7.8905 11.4904 7.92284 11.4608 7.96552C11.4312 8.0082 11.4157 8.05909 11.4165 8.11102C11.4173 8.16296 11.4344 8.21334 11.4653 8.25509C11.4962 8.29683 11.5394 8.32784 11.5889 8.34376C11.6383 8.35968 11.6915 8.35971 11.741 8.34384C11.7904 8.32797 11.8337 8.29701 11.8646 8.2553C11.8956 8.21359 11.9127 8.16322 11.9136 8.11129C11.9207 8.05538 11.906 7.99887 11.8725 7.95357C11.8389 7.90827 11.7892 7.87771 11.7336 7.86827Z" fill="black"/>
<path d="M8.44669 7.83927C8.4151 7.83482 8.40165 7.82131 8.39768 7.80342C8.38541 7.74789 8.47081 7.65651 8.56082 7.59056C8.69219 7.49451 8.84606 7.43387 9.00763 7.41448C9.16921 7.39508 9.33306 7.41758 9.48343 7.4798C9.62393 7.53776 9.74474 7.63499 9.8314 7.75986C9.86357 7.81236 9.8698 7.85307 9.849 7.87441C9.81658 7.9086 9.73392 7.86943 9.59934 7.81041C9.43767 7.73108 9.25903 7.69261 9.07904 7.69835C8.86578 7.73343 8.65466 7.78048 8.44669 7.83927ZM9.78802 8.11541C9.72987 8.05429 9.65747 8.00853 9.5773 7.98225C9.49713 7.95598 9.41169 7.94999 9.32864 7.96484C9.20617 7.97786 9.09013 8.02622 8.99466 8.10404C8.95017 8.13597 8.91959 8.18372 8.9092 8.23749C8.90896 8.24347 8.91004 8.24943 8.91235 8.25495C8.91467 8.26047 8.91816 8.26541 8.9226 8.26943C8.93049 8.2766 8.9408 8.28051 8.95146 8.28039C8.99552 8.27393 9.0386 8.26198 9.07969 8.24484C9.25962 8.17703 9.454 8.15685 9.64402 8.18623C9.73208 8.19613 9.77368 8.20164 9.793 8.17141C9.79795 8.16268 9.80013 8.15264 9.79924 8.14264C9.79835 8.13263 9.79444 8.12314 9.78802 8.11541Z" fill="black"/>
</g>
<defs>
<clipPath id="clip0_348_3741">
<rect width="16" height="16" fill="white"/>
</clipPath>
</defs>
</svg>
