<svg width="16" height="16" viewBox="0 0 16 16" fill="none" xmlns="http://www.w3.org/2000/svg">
<path d="M6.1413 12.1108C6.32537 14.201 8.65685 13.5866 8.47285 12.4184C8.22741 10.3896 9.57725 3.9963 10.9884 3.9963C11.9701 3.9963 9.88397 8.36072 10.3135 11.1888C10.6203 13.0328 13.0745 12.4184 12.7677 11.3115C11.9701 7.68419 14.547 4.18038 14.2403 1.65988C14.1176 0.614376 13.4426 0 12.7677 0C10.4362 0 8.65685 4.67204 8.65685 4.67204C8.65685 4.67204 8.84093 2.02883 7.00028 1.9053C4.30063 1.72123 1.53962 8.48344 1.60098 14.6305C1.66233 16.5979 4.11656 16.2904 3.93249 14.6918C3.74843 11.8024 5.34368 5.28559 6.6935 5.28559C7.61384 5.28723 5.95724 10.0206 6.1413 12.1108Z" fill="#1FB6FF"/>
</svg>
