<svg width="16" height="16" viewBox="0 0 16 16" fill="none" xmlns="http://www.w3.org/2000/svg">
<g clip-path="url(#clip0_348_3900)">
<path d="M6.14131 12.1108C6.32537 14.201 8.65689 13.5866 8.47282 12.4184C8.2274 10.3896 9.57723 3.9963 10.9884 3.9963C11.9701 3.9963 9.88401 8.36074 10.3135 11.1888C10.6203 13.0328 13.0745 12.4184 12.7677 11.3115C11.9701 7.6842 14.547 4.18037 14.2403 1.65988C14.1176 0.614376 13.4426 0 12.7677 0C10.4362 0 8.65689 4.67204 8.65689 4.67204C8.65689 4.67204 8.84096 2.02883 7.00029 1.9053C4.30063 1.72123 1.53962 8.48346 1.60098 14.6305C1.66234 16.598 4.11657 16.2904 3.9325 14.6918C3.74843 11.8024 5.34368 5.28559 6.69351 5.28559C7.61384 5.28723 5.95724 10.0206 6.14131 12.1108Z" fill="#FF00FF"/>
</g>
<defs>
<clipPath id="clip0_348_3900">
<rect width="16" height="16" fill="white"/>
</clipPath>
</defs>
</svg>
