<svg width="16" height="16" viewBox="0 0 16 16" fill="none" xmlns="http://www.w3.org/2000/svg">
<path d="M6.14142 12.1108C6.32549 14.201 8.65697 13.5866 8.47297 12.4184C8.22753 10.3896 9.57737 3.9963 10.9885 3.9963C11.9703 3.9963 9.88409 8.36072 10.3136 11.1888C10.6204 13.0328 13.0747 12.4184 12.7679 11.3115C11.9703 7.68419 14.5471 4.18038 14.2404 1.65988C14.1177 0.614376 13.4427 0 12.7679 0C10.4363 0 8.65697 4.67204 8.65697 4.67204C8.65697 4.67204 8.84105 2.02883 7.00041 1.9053C4.30075 1.72123 1.53974 8.48344 1.6011 14.6305C1.66245 16.5979 4.11669 16.2904 3.93261 14.6918C3.74855 11.8024 5.3438 5.28559 6.69362 5.28559C7.61396 5.28723 5.95736 10.0206 6.14142 12.1108Z" fill="#1FB6FF"/>
</svg>
