<svg width="16" height="16" viewBox="0 0 16 16" fill="none" xmlns="http://www.w3.org/2000/svg">
<g clip-path="url(#clip0_348_3844)">
<path d="M7.9993 4.66642C8.90148 5.49314 9.46716 6.68114 9.46716 8.00127C9.46716 9.3214 8.90148 10.5094 7.9993 11.3361C7.09712 10.5094 6.53144 9.3214 6.53144 8.00127C6.53144 6.68114 7.09712 5.49314 7.9993 4.66642Z" fill="#FF00FF"/>
<path fill-rule="evenodd" clip-rule="evenodd" d="M15.2467 5.37781C15.739 6.16438 16 7.07358 16 8.0015C16 8.92942 15.739 9.83862 15.2467 10.6252C14.7544 11.4118 14.0508 12.044 13.2162 12.4495C12.3816 12.8551 11.4497 13.0176 10.5271 12.9186C9.60502 12.8196 8.72938 12.4634 8.00012 11.8906C7.27084 12.4634 6.39518 12.8196 5.4731 12.9186C4.55047 13.0176 3.61859 12.8551 2.78397 12.4495C1.94936 12.044 1.24568 11.4118 0.753379 10.6252C0.261074 9.83864 0 8.92943 0 8.0015C0 7.07357 0.261074 6.16436 0.753379 5.37779C1.24568 4.59122 1.94936 3.95903 2.78397 3.55347C3.61859 3.14792 4.55047 2.98537 5.4731 3.0844C6.39518 3.18336 7.27084 3.53961 8.00012 4.11244C8.72938 3.53961 9.60503 3.18336 10.5271 3.0844C11.4497 2.98537 12.3816 3.14793 13.2162 3.55348C14.0508 3.95904 14.7544 4.59124 15.2467 5.37781ZM6.60886 10.1632C6.93587 10.8363 7.41161 11.4263 8.00012 11.8885C8.58812 11.4258 9.06349 10.8358 9.39044 10.1628C9.71762 9.48927 9.88763 8.75027 9.88763 8.0015C9.88763 7.25273 9.71762 6.51373 9.39044 5.84023C9.06349 5.16722 8.58811 4.57717 8.00012 4.1145C7.4116 4.57671 6.93586 5.16666 6.60886 5.83977C6.28161 6.51337 6.11191 7.25261 6.11259 8.0015C6.11192 8.75039 6.28162 9.48961 6.60886 10.1632Z" fill="#FF00FF"/>
</g>
<defs>
<clipPath id="clip0_348_3844">
<rect width="16" height="16" fill="white"/>
</clipPath>
</defs>
</svg>
