<svg width="16" height="16" viewBox="0 0 16 16" fill="none" xmlns="http://www.w3.org/2000/svg">
<g clip-path="url(#clip0_1_762)">
<mask id="mask0_1_762" style="mask-type:luminance" maskUnits="userSpaceOnUse" x="0" y="0" width="16" height="16">
<path d="M16 0H0V16H16V0Z" fill="white"/>
</mask>
<g mask="url(#mask0_1_762)">
<path d="M10.1614 4.11346H5.83423V11.8896H10.1614V4.11346Z" fill="#FF5F00"/>
<path d="M6.11259 8.00139C6.11191 7.25248 6.28162 6.51326 6.60886 5.83964C6.9361 5.16603 7.41231 4.57571 8.00144 4.11335C7.27189 3.53991 6.39573 3.1833 5.4731 3.08427C4.55046 2.98525 3.61859 3.1478 2.78398 3.55335C1.94936 3.9589 1.24569 4.5911 0.753379 5.37767C0.261074 6.16423 0 7.07344 0 8.00139C0 8.92931 0.261074 9.8385 0.753379 10.6251C1.24569 11.4116 1.94936 12.0439 2.78398 12.4494C3.61859 12.855 4.55046 13.0175 5.4731 12.9185C6.39573 12.8195 7.27189 12.4628 8.00144 11.8894C7.41231 11.4271 6.9361 10.8367 6.60886 10.1631C6.28162 9.48947 6.11191 8.75027 6.11259 8.00139Z" fill="#EB001B"/>
<path d="M15.9999 8.00139C16 8.92931 15.739 9.8385 15.2467 10.6251C14.7544 11.4116 14.0507 12.0439 13.2161 12.4494C12.3815 12.855 11.4497 13.0175 10.5271 12.9185C9.60443 12.8195 8.72827 12.4628 7.99878 11.8894C8.58739 11.4266 9.06323 10.8362 9.39043 10.1627C9.71763 9.48915 9.88763 8.75019 9.88763 8.00139C9.88763 7.25261 9.71763 6.51361 9.39043 5.8401C9.06323 5.1666 8.58739 4.57618 7.99878 4.11335C8.72827 3.53991 9.60443 3.1833 10.5271 3.08427C11.4497 2.98525 12.3815 3.1478 13.2161 3.55336C14.0507 3.95892 14.7544 4.59111 15.2467 5.37769C15.739 6.16426 16 7.07346 15.9999 8.00139Z" fill="#F79E1B"/>
</g>
</g>
<defs>
<clipPath id="clip0_1_762">
<rect width="16" height="16" fill="white"/>
</clipPath>
</defs>
</svg>
