<svg width="16" height="16" viewBox="0 0 16 16" fill="none" xmlns="http://www.w3.org/2000/svg">
<g clip-path="url(#clip0_1406_3415)">
<mask id="mask0_1406_3415" style="mask-type:luminance" maskUnits="userSpaceOnUse" x="0" y="0" width="16" height="16">
<path d="M16 0H0V16H16V0Z" fill="white"/>
</mask>
<g mask="url(#mask0_1406_3415)">
<path fill-rule="evenodd" clip-rule="evenodd" d="M6.11259 8.00139C6.11191 7.25248 6.28162 6.51326 6.60886 5.83964C6.93586 5.16654 7.4116 4.57659 8.00008 4.11438C8.58808 4.57705 9.06352 5.1671 9.3904 5.8401C9.7176 6.51361 9.8876 7.25261 9.8876 8.00139C9.8876 8.75019 9.7176 9.48915 9.3904 10.1627C9.06352 10.8356 8.58808 11.4257 8.00008 11.8883C7.41161 11.4262 6.93586 10.8362 6.60886 10.1631C6.28162 9.48947 6.11191 8.75027 6.11259 8.00139ZM5.4731 3.08427C6.39518 3.18324 7.27084 3.53949 8.00016 4.11232C8.72936 3.53949 9.60504 3.18324 10.5271 3.08427C11.4497 2.98525 12.3816 3.1478 13.2162 3.55336C14.0508 3.95892 14.7544 4.59111 15.2467 5.37769C15.739 6.16426 16 7.07346 16 8.00139C16 8.92931 15.739 9.8385 15.2467 10.6251C14.7544 11.4116 14.0508 12.0439 13.2162 12.4494C12.3816 12.855 11.4497 13.0175 10.5271 12.9185C9.60504 12.8195 8.72936 12.4633 8.00008 11.8904C7.27084 12.4632 6.39518 12.8195 5.4731 12.9185C4.55046 13.0175 3.61859 12.855 2.78398 12.4494C1.94936 12.0439 1.24569 11.4116 0.753379 10.6251C0.261074 9.8385 0 8.92931 0 8.00139C0 7.07344 0.261074 6.16423 0.753379 5.37767C1.24569 4.5911 1.94936 3.9589 2.78398 3.55335C3.61859 3.1478 4.55046 2.98525 5.4731 3.08427ZM7.9993 4.6663C8.90152 5.49302 9.4672 6.68102 9.4672 8.00114C9.4672 9.3213 8.90152 10.5093 7.9993 11.336C7.09712 10.5093 6.53144 9.3213 6.53144 8.00114C6.53144 6.68102 7.09712 5.49302 7.9993 4.6663Z" fill="#FF00FF"/>
</g>
</g>
<defs>
<clipPath id="clip0_1406_3415">
<rect width="16" height="16" fill="white"/>
</clipPath>
</defs>
</svg>
