<svg width="16" height="16" viewBox="0 0 16 16" fill="none" xmlns="http://www.w3.org/2000/svg">
<g clip-path="url(#clip0_348_3831)">
<path d="M10.1614 4.11328H5.83423V11.8893H10.1614V4.11328Z" fill="#FF5F00"/>
<path d="M6.11259 8.0015C6.11191 7.25261 6.28161 6.51337 6.60886 5.83977C6.9361 5.16616 7.41231 4.57583 8.00143 4.11347C7.27189 3.54003 6.39573 3.18342 5.4731 3.0844C4.55047 2.98537 3.61859 3.14792 2.78397 3.55347C1.94936 3.95903 1.24568 4.59122 0.753379 5.37779C0.261074 6.16436 0 7.07357 0 8.0015C0 8.92943 0.261074 9.83864 0.753379 10.6252C1.24568 11.4118 1.94936 12.044 2.78397 12.4495C3.61859 12.8551 4.55047 13.0176 5.4731 12.9186C6.39573 12.8196 7.27189 12.463 8.00143 11.8895C7.41231 11.4272 6.93611 10.8368 6.60886 10.1632C6.28162 9.48961 6.11192 8.75039 6.11259 8.0015Z" fill="#EB001B"/>
<path d="M16 8.0015C16 8.92942 15.739 9.83862 15.2467 10.6252C14.7544 11.4118 14.0507 12.044 13.2161 12.4495C12.3815 12.8551 11.4497 13.0176 10.5271 12.9186C9.60444 12.8196 8.7283 12.463 7.99878 11.8895C8.58738 11.4267 9.06321 10.8363 9.3904 10.1628C9.71759 9.48927 9.8876 8.75027 9.8876 8.0015C9.8876 7.25273 9.71759 6.51373 9.3904 5.84023C9.06321 5.16672 8.58738 4.5763 7.99878 4.11347C8.7283 3.54004 9.60444 3.18342 10.5271 3.0844C11.4497 2.98537 12.3815 3.14793 13.2161 3.55348C14.0507 3.95904 14.7544 4.59124 15.2467 5.37781C15.739 6.16438 16 7.07358 16 8.0015Z" fill="#F79E1B"/>
</g>
<defs>
<clipPath id="clip0_348_3831">
<rect width="16" height="16" fill="white"/>
</clipPath>
</defs>
</svg>
