<svg width="16" height="16" viewBox="0 0 16 16" fill="none" xmlns="http://www.w3.org/2000/svg">
<path fill-rule="evenodd" clip-rule="evenodd" d="M11.0928 1.42345C10.8498 1.30171 10.651 1.42483 10.651 1.697V12.5246L15.0862 14.7462C15.5742 14.9906 15.9699 14.8195 15.9699 14.3641V3.9374C15.9699 3.89387 15.9452 3.85385 15.9063 3.8343L11.0928 1.42345Z" fill="#32FC8D"/>
<path fill-rule="evenodd" clip-rule="evenodd" d="M7.17346 6.86335L10.6511 12.5246L15.9359 3.92166C15.9542 3.89187 15.9431 3.85277 15.9119 3.83703L11.0929 1.42343C10.8499 1.3017 10.5346 1.39166 10.3922 1.62352L7.17346 6.86335Z" fill="#0BE370"/>
<path fill-rule="evenodd" clip-rule="evenodd" d="M0.749902 1.57098C0.344795 1.36798 0.207573 1.51813 0.444966 1.90456L5.33233 9.86054L10.651 12.5246L5.34377 3.88484C5.3363 3.87262 5.32547 3.86285 5.31266 3.85643L0.749902 1.57098Z" fill="#14C767"/>
<path fill-rule="evenodd" clip-rule="evenodd" d="M5.33228 14.3641C5.33228 14.8177 5.00081 15.0229 4.59586 14.82L0.45528 12.7459C0.212246 12.6243 0.0134277 12.3019 0.0134277 12.0298V1.86198C0.0134277 1.49907 0.27857 1.33488 0.602565 1.49724L5.30362 3.85188C5.32114 3.86074 5.33228 3.87861 5.33228 3.89816V14.3641Z" fill="#00AB6C"/>
</svg>
