<svg width="16" height="16" viewBox="0 0 16 16" fill="none" xmlns="http://www.w3.org/2000/svg">
<path fill-rule="evenodd" clip-rule="evenodd" d="M11.0927 1.42345C10.8497 1.30171 10.6509 1.42483 10.6509 1.697V12.5246L15.0861 14.7462C15.5741 14.9906 15.9698 14.8195 15.9698 14.3641V3.9374C15.9698 3.89387 15.945 3.85385 15.9062 3.8343L11.0927 1.42345Z" fill="#32FC8D"/>
<path fill-rule="evenodd" clip-rule="evenodd" d="M7.17334 6.86335L10.6509 12.5246L15.9358 3.92166C15.9541 3.89187 15.9429 3.85277 15.9117 3.83703L11.0928 1.42343C10.8497 1.3017 10.5345 1.39166 10.3921 1.62352L7.17334 6.86335Z" fill="#0BE370"/>
<path fill-rule="evenodd" clip-rule="evenodd" d="M0.750024 1.57098C0.344917 1.36798 0.207695 1.51813 0.445088 1.90456L5.33245 9.86054L10.6511 12.5246L5.34389 3.88484C5.33642 3.87262 5.32559 3.86285 5.31279 3.85643L0.750024 1.57098Z" fill="#14C767"/>
<path fill-rule="evenodd" clip-rule="evenodd" d="M5.33252 14.3641C5.33252 14.8177 5.00105 15.0229 4.5961 14.82L0.455524 12.7459C0.212491 12.6243 0.0136719 12.3019 0.0136719 12.0298V1.86198C0.0136719 1.49907 0.278814 1.33488 0.602809 1.49724L5.30386 3.85188C5.32139 3.86074 5.33252 3.87861 5.33252 3.89816V14.3641Z" fill="#00AB6C"/>
</svg>
