<svg width="16" height="16" viewBox="0 0 16 16" fill="none" xmlns="http://www.w3.org/2000/svg">
<path opacity="0.4" fill-rule="evenodd" clip-rule="evenodd" d="M10.6512 12.7913L15.0864 15.0129C15.5744 15.2573 15.97 15.0861 15.97 14.6307V4.20404C15.97 4.168 15.9532 4.13438 15.9252 4.11278C15.946 4.13155 15.9515 4.16324 15.936 4.18831L10.6512 12.7913ZM11.0931 1.69008C11.0637 1.6754 11.0351 1.66428 11.0073 1.65656C11.0366 1.66504 11.0653 1.67619 11.0931 1.69008Z" fill="#FF00FF"/>
<path opacity="0.6" fill-rule="evenodd" clip-rule="evenodd" d="M7.17346 7.13001L10.6511 12.7913L15.9359 4.18831C15.9542 4.15853 15.9431 4.11943 15.9119 4.10369L11.0929 1.69009C10.8499 1.56836 10.5346 1.65833 10.3922 1.89018L7.17346 7.13001Z" fill="#FF00FF"/>
<path opacity="0.8" d="M0.749902 1.83764C0.344795 1.63465 0.207573 1.78479 0.444966 2.17122L5.33233 10.1272L10.651 12.7913L5.34377 4.1515C5.3363 4.13928 5.32547 4.1295 5.31266 4.12309L0.749902 1.83764Z" fill="#FF00FF"/>
<path d="M5.33228 14.6307C5.33228 15.0844 5.00081 15.2895 4.59586 15.0866L0.45528 13.0127C0.212246 12.8909 0.0134277 12.5686 0.0134277 12.2964V2.12864C0.0134277 1.76573 0.27857 1.60154 0.602565 1.7639L5.30362 4.11855C5.32114 4.1274 5.33228 4.14528 5.33228 4.16483V14.6307Z" fill="#FF00FF"/>
</svg>
