<svg width="16" height="16" viewBox="0 0 16 16" fill="none" xmlns="http://www.w3.org/2000/svg">
<path opacity="0.4" fill-rule="evenodd" clip-rule="evenodd" d="M10.6514 12.7913L15.0865 15.0129C15.5746 15.2573 15.9702 15.0862 15.9702 14.6308V4.2041C15.9702 4.16806 15.9533 4.13444 15.9254 4.11284C15.9462 4.13162 15.9516 4.1633 15.9362 4.18837L10.6514 12.7913ZM11.0932 1.69014C11.0638 1.67546 11.0352 1.66434 11.0074 1.65662C11.0367 1.6651 11.0654 1.67625 11.0932 1.69014Z" fill="#FF00FF"/>
<path opacity="0.6" fill-rule="evenodd" clip-rule="evenodd" d="M7.17334 7.13008L10.6509 12.7913L15.9358 4.18837C15.9541 4.15859 15.9429 4.11949 15.9117 4.10376L11.0928 1.69016C10.8497 1.56842 10.5345 1.65839 10.3921 1.89024L7.17334 7.13008Z" fill="#FF00FF"/>
<path opacity="0.8" d="M0.750024 1.8377C0.344917 1.63471 0.207695 1.78485 0.445088 2.17128L5.33245 10.1272L10.6511 12.7913L5.34389 4.15156C5.33642 4.13934 5.32559 4.12956 5.31279 4.12316L0.750024 1.8377Z" fill="#FF00FF"/>
<path d="M5.33252 14.6307C5.33252 15.0843 5.00105 15.2895 4.5961 15.0866L0.455524 13.0126C0.212491 12.8908 0.0136719 12.5685 0.0136719 12.2963V2.12858C0.0136719 1.76567 0.278814 1.60148 0.602809 1.76384L5.30386 4.11849C5.32139 4.12734 5.33252 4.14521 5.33252 4.16477V14.6307Z" fill="#FF00FF"/>
</svg>
