<svg width="16" height="16" viewBox="0 0 16 16" fill="none" xmlns="http://www.w3.org/2000/svg">
<path fill-rule="evenodd" clip-rule="evenodd" d="M11.093 1.42345C10.8499 1.30172 10.6511 1.42482 10.6511 1.69701V12.5246L15.0863 14.7462C15.5743 14.9906 15.97 14.8195 15.97 14.3641V3.9374C15.97 3.89387 15.9453 3.85385 15.9064 3.8343L11.093 1.42345Z" fill="#32FC8D"/>
<path fill-rule="evenodd" clip-rule="evenodd" d="M7.17349 6.86335L10.6511 12.5246L15.936 3.92165C15.9542 3.89187 15.9431 3.85277 15.9119 3.83703L11.093 1.42343C10.8499 1.3017 10.5346 1.39166 10.3922 1.62352L7.17349 6.86335Z" fill="#0BE370"/>
<path fill-rule="evenodd" clip-rule="evenodd" d="M0.749979 1.57098C0.344871 1.36798 0.20765 1.51813 0.445042 1.90456L5.33241 9.8605L10.6511 12.5246L5.34384 3.88484C5.33637 3.87262 5.32555 3.86284 5.31274 3.85643L0.749979 1.57098Z" fill="#14C767"/>
<path fill-rule="evenodd" clip-rule="evenodd" d="M5.33241 14.3641C5.33241 14.8177 5.00095 15.0229 4.59599 14.82L0.455418 12.746C0.212383 12.6242 0.0135651 12.3019 0.0135651 12.0298V1.86198C0.0135651 1.49907 0.278707 1.33487 0.602702 1.49724L5.30375 3.85188C5.32128 3.86074 5.33241 3.87861 5.33241 3.89816V14.3641Z" fill="#00AB6C"/>
</svg>
