<svg width="16" height="16" viewBox="0 0 16 16" fill="none" xmlns="http://www.w3.org/2000/svg">
<g opacity="0.4">
<path d="M10.6511 12.7914L15.0863 15.013C15.5743 15.2574 15.97 15.0863 15.97 14.6309V4.20421C15.97 4.16817 15.953 4.13454 15.9252 4.11294C15.9459 4.13171 15.9514 4.1634 15.936 4.18847L10.6511 12.7914Z" fill="#FF00FF"/>
<path d="M11.0908 1.68919C11.0623 1.67504 11.0344 1.66428 11.0073 1.65674C11.0358 1.665 11.0638 1.67579 11.0908 1.68919Z" fill="#FF00FF"/>
</g>
<path opacity="0.6" d="M10.3922 1.89012L7.17346 7.12995L10.6511 12.7912L15.9359 4.18825C15.9542 4.15847 15.9431 4.11937 15.9118 4.10364L11.0929 1.69003C10.8499 1.5683 10.5346 1.65826 10.3922 1.89012Z" fill="#FF00FF"/>
<path opacity="0.8" d="M0.750024 1.83758C0.344917 1.63459 0.207695 1.78473 0.445088 2.17116L5.33245 10.1271L10.6511 12.7912L5.34389 4.15144C5.33642 4.13922 5.32559 4.12945 5.31278 4.12303L0.750024 1.83758Z" fill="#FF00FF"/>
<path d="M5.3324 14.6307C5.3324 15.0843 5.00093 15.2895 4.59598 15.0866L0.455402 13.0126C0.212368 12.8908 0.0135498 12.5685 0.0135498 12.2964V2.12858C0.0135498 1.76567 0.278692 1.60148 0.602686 1.76384L5.30373 4.11848C5.32127 4.12734 5.3324 4.14521 5.3324 4.16477V14.6307Z" fill="#FF00FF"/>
</svg>
