<svg width="16" height="16" viewBox="0 0 16 16" fill="none" xmlns="http://www.w3.org/2000/svg">
<path fill-rule="evenodd" clip-rule="evenodd" d="M1.75 7.96875C1.75 4.48525 4.47918 1.90625 8 1.90625C11.5208 1.90625 14.25 4.48525 14.25 7.96875C14.25 11.4522 11.5208 14.0313 8 14.0313C7.3676 14.0313 6.76087 13.9478 6.19082 13.791C6.08 13.7605 5.96216 13.7691 5.857 13.8155L4.61646 14.3631C4.29196 14.5064 3.92566 14.2756 3.91478 13.921L3.88075 12.8093C3.87656 12.6722 3.81494 12.5442 3.71285 12.4529C2.49675 11.3654 1.75 9.79088 1.75 7.96875ZM6.08284 6.82895L4.2469 9.74168C4.07071 10.0212 4.41431 10.3362 4.67753 10.1365L6.64962 8.63984C6.78302 8.53856 6.96738 8.538 7.10134 8.63848L8.5616 9.73368C8.99976 10.0623 9.62512 9.94696 9.9172 9.4836L11.7531 6.5708C11.9293 6.29127 11.5857 5.97627 11.3225 6.17602L9.3504 7.67271C9.21696 7.77395 9.03264 7.77449 8.89864 7.67399L7.43844 6.57883C7.00025 6.2502 6.37488 6.36558 6.08284 6.82895Z" fill="#FF00FF"/>
</svg>
