<svg width="16" height="16" viewBox="0 0 16 16" fill="none" xmlns="http://www.w3.org/2000/svg">
<path fill-rule="evenodd" clip-rule="evenodd" d="M8 1.90625C4.47918 1.90625 1.75 4.48525 1.75 7.96875C1.75 9.79088 2.49675 11.3654 3.71285 12.4529C3.81494 12.5442 3.87656 12.6722 3.88075 12.8093L3.91478 13.921C3.92566 14.2756 4.29196 14.5064 4.61646 14.3631L5.857 13.8155C5.96216 13.7691 6.08 13.7605 6.19082 13.791C6.76087 13.9478 7.3676 14.0313 8 14.0313C11.5208 14.0313 14.25 11.4522 14.25 7.96875C14.25 4.48525 11.5208 1.90625 8 1.90625Z" fill="url(#paint0_radial_1406_3410)"/>
<path fill-rule="evenodd" clip-rule="evenodd" d="M4.24698 9.74165L6.08292 6.82893C6.37496 6.36555 7.00033 6.25017 7.43852 6.5788L8.89874 7.67397C9.03274 7.77446 9.21706 7.77393 9.35042 7.67268L11.3226 6.17599C11.5858 5.97624 11.9294 6.29124 11.7532 6.57077L9.9173 9.48357C9.62522 9.94693 8.99986 10.0623 8.5617 9.73365L7.10142 8.63845C6.96746 8.53797 6.78311 8.53853 6.64971 8.63981L4.67761 10.1365C4.4144 10.3362 4.0708 10.0212 4.24698 9.74165Z" fill="white"/>
<defs>
<radialGradient id="paint0_radial_1406_3410" cx="0" cy="0" r="1" gradientUnits="userSpaceOnUse" gradientTransform="translate(4.15593 14.3394) scale(13.6199 13.6199)">
<stop stop-color="#0099FF"/>
<stop offset="0.609754" stop-color="#A033FF"/>
<stop offset="0.934823" stop-color="#FF5280"/>
<stop offset="1" stop-color="#FF7061"/>
</radialGradient>
</defs>
</svg>
