<svg width="16" height="16" viewBox="0 0 16 16" fill="none" xmlns="http://www.w3.org/2000/svg">
<g clip-path="url(#clip0_348_3686)">
<circle cx="8" cy="8" r="8" fill="#FFEDA3"/>
<path fill-rule="evenodd" clip-rule="evenodd" d="M8.00024 5.29567C8.68044 5.29567 9.14833 4.78552 9.14833 4.14784C9.14833 3.51015 8.68044 3 8.00024 3C7.32004 3 6.85265 3.5104 6.85265 4.14784C6.85265 4.78527 7.32029 5.29567 8.00024 5.29567ZM8.7727 6.24456V7.44832C8.7727 9.68225 9.61359 10.6213 11.4108 11.7398L10.5732 13C9.47846 12.3314 8.32733 11.2021 8.00039 10.0363C7.67345 11.2021 6.52232 12.3314 5.42762 13L4.59003 11.7398C6.38719 10.6213 7.22808 9.68225 7.22808 7.44832V6.24456H8.7727Z" fill="#2A2A40"/>
</g>
<defs>
<clipPath id="clip0_348_3686">
<rect width="16" height="16" fill="white"/>
</clipPath>
</defs>
</svg>
