<svg width="16" height="16" viewBox="0 0 16 16" fill="none" xmlns="http://www.w3.org/2000/svg">
<g clip-path="url(#clip0_1_812)">
<path fill-rule="evenodd" clip-rule="evenodd" d="M6.83705 4.17827C6.74872 4.1379 4.68309 3.26322 4.68309 3.26322C4.68161 3.26174 4.68012 3.2606 4.67877 3.25955C4.67397 3.25585 4.67099 3.25354 4.6763 3.24304C4.6763 3.23631 4.6763 3.22958 4.68309 3.22286L7.91743 0.0067283C7.91743 0 7.92423 0 7.93102 0C7.93392 0 7.93558 0 7.93705 0.000519825C7.93905 0.00122003 7.94071 0.0028634 7.94461 0.0067204L9.33753 1.38603C9.34433 1.39276 9.34433 1.40622 9.33753 1.41294L7.65923 4.01679C7.65244 4.02352 7.64564 4.03025 7.63885 4.03025H7.63205C7.54372 4.00334 7.45538 3.98988 7.36705 3.98988C7.18359 3.98988 7.00013 4.05716 6.85744 4.17154C6.85354 4.17541 6.85188 4.17705 6.84989 4.17775C6.84841 4.17827 6.84674 4.17827 6.84385 4.17827H6.83705ZM8.17561 4.72999C8.16209 4.59542 8.11449 4.46086 8.03977 4.34648C8.03297 4.33975 8.03297 4.3263 8.03977 4.31284L9.67729 1.76954C9.67729 1.76282 9.68409 1.75609 9.69089 1.75609C9.69377 1.75609 9.69545 1.75609 9.69689 1.75661C9.69889 1.7573 9.70057 1.75895 9.70449 1.76282L11.1586 3.2094C11.1654 3.21613 11.1654 3.22286 11.1654 3.22958L10.7849 5.59122C10.7849 5.60467 10.7781 5.6114 10.7713 5.6114C10.683 5.63831 10.6014 5.67868 10.5334 5.7325C10.5334 5.73923 10.5266 5.73923 10.5198 5.73923H10.513L8.18921 4.75018C8.18241 4.74345 8.17561 4.73672 8.17561 4.72999ZM11.4847 5.81325C11.4303 5.75269 11.3624 5.69886 11.2809 5.6585C11.2763 5.6585 11.2718 5.65251 11.2673 5.64654C11.265 5.64354 11.2627 5.64055 11.2605 5.63831L11.5798 3.68038C11.5798 3.66692 11.5866 3.66019 11.5934 3.66019H11.6002C11.6002 3.66019 11.607 3.66019 11.6138 3.66692L13.0747 5.1135C13.0815 5.12023 13.0815 5.12696 13.0815 5.13369C13.0815 5.14042 13.0747 5.14714 13.0679 5.15387L11.5051 5.81998H11.4983C11.4954 5.81998 11.4938 5.81998 11.4922 5.81946C11.4902 5.81875 11.4886 5.81711 11.4847 5.81325ZM15.9761 7.98649L13.4824 5.51047C13.4756 5.50374 13.4688 5.50374 13.4688 5.50374H13.462L11.7701 6.22367C11.7633 6.2304 11.7565 6.23713 11.7565 6.24386C11.7565 6.25058 11.7633 6.26404 11.7701 6.26404L15.9422 8.0336H15.9489C15.9557 8.0336 15.9625 8.0336 15.9625 8.02688L15.9761 8.01336C15.9897 8.01336 15.9897 7.99322 15.9761 7.98649ZM11.5594 6.69466L15.5616 8.39016C15.5684 8.39688 15.5684 8.4036 15.5684 8.4104C15.5684 8.41712 15.5684 8.42384 15.5616 8.43056L13.3465 10.6307C13.3465 10.6374 13.3397 10.6374 13.3329 10.6374H13.3261L10.9071 10.1328C10.8936 10.1328 10.8868 10.1261 10.8868 10.1126C10.8664 9.92424 10.7781 9.756 10.6286 9.64168C10.6218 9.63488 10.6218 9.62816 10.6218 9.62144L11.0498 6.9907C11.0498 6.97724 11.0634 6.97051 11.0702 6.97051C11.2605 6.9436 11.4235 6.84941 11.5322 6.70138C11.539 6.69466 11.5458 6.69466 11.5526 6.69466H11.5594ZM10.2617 6.14294L8.07369 5.21443H8.06689C8.06009 5.21443 8.05337 5.22116 8.04657 5.22789C7.89705 5.45665 7.64564 5.59122 7.37385 5.59122C7.33825 5.59122 7.30266 5.58609 7.26256 5.5803L7.24474 5.57776H7.23795C7.23116 5.57776 7.22436 5.58449 7.21757 5.59122L5.41693 8.38344C5.41014 8.39016 5.41014 8.4036 5.41693 8.4104C5.42373 8.41712 5.43053 8.41712 5.43732 8.41712H5.44412L10.2481 6.36497C10.2549 6.35824 10.2617 6.35151 10.2617 6.34478V6.31787V6.28422C10.2617 6.24386 10.2684 6.20349 10.2752 6.16985C10.2752 6.15639 10.2684 6.14966 10.2617 6.14294ZM10.7713 10.5903L12.898 11.0277C12.9048 11.0277 12.9116 11.0344 12.9116 11.0546C12.9116 11.0613 12.9116 11.0681 12.9048 11.0748L9.95585 14.0016C9.95585 14.0083 9.94913 14.0083 9.94233 14.0083H9.92873C9.92193 14.0016 9.91513 13.9949 9.91513 13.9814L10.4247 10.846C10.4247 10.8393 10.4315 10.8258 10.4383 10.8258C10.5606 10.7787 10.6626 10.698 10.7441 10.597C10.7474 10.597 10.7509 10.5954 10.7542 10.5937C10.7577 10.592 10.761 10.5903 10.7645 10.5903H10.7713ZM9.92873 10.8124C9.72489 10.7316 9.57537 10.55 9.52105 10.3414C9.52105 10.3346 9.51425 10.3279 9.50065 10.3212L5.55963 9.50712H5.55283C5.54604 9.50712 5.53925 9.51384 5.53245 9.52056C5.52637 9.53056 5.5209 9.54 5.51567 9.54904C5.50337 9.57024 5.49239 9.58912 5.47809 9.608C5.47129 9.61472 5.47129 9.62816 5.47809 9.63488L9.06577 14.8292C9.06969 14.833 9.07129 14.8346 9.07329 14.8354C9.07481 14.8359 9.07649 14.8359 9.07937 14.8359C9.08617 14.8359 9.09297 14.8359 9.09297 14.8292L9.31041 14.6138C9.31041 14.6105 9.31209 14.6088 9.31377 14.6071C9.31545 14.6054 9.31721 14.6038 9.31721 14.6004L9.92873 10.8326C9.94233 10.8326 9.94233 10.8191 9.92873 10.8124ZM5.66155 9.04952C5.64796 9.04952 5.64117 9.0428 5.64117 9.02936C5.64117 8.9944 5.63544 8.96232 5.62957 8.92936C5.62639 8.91152 5.62317 8.89352 5.62078 8.87464C5.62078 8.8612 5.62078 8.8544 5.63437 8.84768L10.4655 6.78212H10.4723C10.4723 6.78212 10.479 6.78212 10.4858 6.78885C10.5198 6.82249 10.547 6.84267 10.5742 6.86286C10.5878 6.86286 10.5878 6.87632 10.5878 6.88305L10.1665 9.47344C10.1665 9.48688 10.1598 9.4936 10.1462 9.4936C9.91513 9.50712 9.71129 9.64168 9.59577 9.84352C9.58897 9.85024 9.58217 9.85696 9.57537 9.85696H9.56857L5.66155 9.04952ZM4.00361 9.682C3.98323 9.65512 3.96284 9.62816 3.94245 9.59456C3.93566 9.58784 3.92887 9.58112 3.92207 9.58112H3.91528L2.23016 10.301C2.22337 10.301 2.21657 10.3078 2.21657 10.3145C2.21657 10.3212 2.21657 10.3279 2.22337 10.3346L3.04554 11.1488C3.05233 11.1555 3.05913 11.1555 3.05913 11.1555C3.06593 11.1555 3.07272 11.1488 3.07951 11.1421L4.01041 9.69544C4.01041 9.69544 4.01041 9.68872 4.00361 9.682ZM5.09758 9.93096C5.10437 9.93096 5.11117 9.93768 5.11797 9.9444L8.71921 15.179C8.72601 15.1858 8.72601 15.1992 8.71921 15.2059L7.93102 15.9931C7.93102 15.9999 7.92423 15.9999 7.91743 15.9999C7.91743 15.9999 7.91064 15.9999 7.90385 15.9931L3.40566 11.5323C3.39887 11.5256 3.39887 11.5121 3.40566 11.5054L3.41246 11.4986L4.39092 9.97808C4.39771 9.97136 4.4045 9.96464 4.4113 9.96464H4.41809C4.52001 9.99824 4.61514 10.0117 4.71707 10.0117C4.84617 10.0117 4.96848 9.9848 5.09078 9.93096H5.09758ZM4.48605 8.18832C4.49284 8.19504 4.49963 8.20176 4.50643 8.20176H4.51322C4.58117 8.18832 4.65592 8.17488 4.72386 8.17488C4.79861 8.17488 4.88014 8.18832 4.95489 8.20848H4.96169C4.96848 8.20848 4.97527 8.20176 4.98207 8.19504L6.80308 5.36918C6.80988 5.36245 6.80988 5.34899 6.80308 5.34226C6.66039 5.19424 6.57885 4.99912 6.57885 4.79054C6.57885 4.72999 6.58565 4.66944 6.59924 4.60888C6.59924 4.59542 6.59244 4.5887 6.58565 4.58197C6.49213 4.54112 6.10137 4.3757 5.66933 4.1928L5.66783 4.19216C5.03297 3.9234 4.30937 3.6171 4.30937 3.6131H4.30258C4.29579 3.6131 4.28899 3.6131 4.28899 3.61982L2.55631 5.34226C2.54952 5.34899 2.54952 5.36245 2.55631 5.36918L4.48605 8.18832ZM3.8813 8.67952C3.8881 8.67952 3.89489 8.6728 3.90169 8.66608C3.94245 8.58528 4.00361 8.51128 4.06477 8.444C4.07156 8.43728 4.07156 8.42384 4.06477 8.41712C4.04438 8.39016 2.20298 5.72578 2.20298 5.71905C2.20034 5.71643 2.19872 5.71483 2.19693 5.71346C2.19413 5.7113 2.19089 5.7097 2.1826 5.70559C2.1758 5.70559 2.16901 5.70559 2.16901 5.71232L0.02184 7.83846C0.0150452 7.84519 0.0150452 7.85192 0.0150452 7.85865C0.0150452 7.86538 0.02184 7.8721 0.0354296 7.8721L3.8813 8.67952ZM3.68425 9.1236C3.69785 9.1236 3.70464 9.13032 3.70464 9.14376C3.70464 9.15048 3.69785 9.1572 3.68425 9.17064L1.83606 9.95784H1.82926C1.82926 9.95784 1.82247 9.95784 1.81568 9.95112L0.327608 8.47096C0.320813 8.46416 0.314017 8.45072 0.320813 8.444C0.327608 8.43728 0.334402 8.43056 0.341197 8.43056H0.347992L3.68425 9.1236Z" fill="#FF00FF"/>
</g>
<defs>
<clipPath id="clip0_1_812">
<rect width="16" height="16" fill="white"/>
</clipPath>
</defs>
</svg>
