<svg width="16" height="16" viewBox="0 0 16 16" fill="none" xmlns="http://www.w3.org/2000/svg">
<g clip-path="url(#clip0_1406_3405)">
<path fill-rule="evenodd" clip-rule="evenodd" d="M6.83715 4.17827C6.74881 4.1379 4.68319 3.26322 4.68319 3.26322C4.6817 3.26174 4.68021 3.2606 4.67886 3.25955C4.67407 3.25585 4.67108 3.25354 4.67639 3.24304C4.67639 3.23631 4.67639 3.22958 4.68319 3.22286L7.91752 0.0067283C7.91752 0 7.92432 0 7.93111 0C7.93401 0 7.93567 0 7.93715 0.000519825C7.93914 0.00122003 7.9408 0.0028634 7.9447 0.0067204L9.33762 1.38603C9.34442 1.39276 9.34442 1.40622 9.33762 1.41294L7.65932 4.01679C7.65253 4.02352 7.64573 4.03025 7.63894 4.03025H7.63215C7.54381 4.00334 7.45547 3.98988 7.36715 3.98988C7.18368 3.98988 7.00023 4.05716 6.85753 4.17154C6.85363 4.17541 6.85197 4.17705 6.84998 4.17775C6.8485 4.17827 6.84683 4.17827 6.84394 4.17827H6.83715ZM8.1757 4.72999C8.16218 4.59542 8.11458 4.46086 8.03986 4.34648C8.03306 4.33975 8.03306 4.3263 8.03986 4.31284L9.67738 1.76954C9.67738 1.76282 9.68418 1.75609 9.69098 1.75609C9.69386 1.75609 9.69554 1.75609 9.69698 1.75661C9.69898 1.7573 9.70066 1.75895 9.70458 1.76282L11.1587 3.2094C11.1655 3.21613 11.1655 3.22286 11.1655 3.22958L10.785 5.59122C10.785 5.60467 10.7782 5.6114 10.7714 5.6114C10.6831 5.63831 10.6015 5.67868 10.5335 5.7325C10.5335 5.73923 10.5267 5.73923 10.5199 5.73923H10.5131L8.1893 4.75018C8.1825 4.74345 8.1757 4.73672 8.1757 4.72999ZM11.4848 5.81325C11.4304 5.75269 11.3625 5.69886 11.281 5.6585C11.2764 5.6585 11.2719 5.65251 11.2674 5.64654C11.2651 5.64354 11.2628 5.64055 11.2606 5.63831L11.5799 3.68038C11.5799 3.66692 11.5867 3.66019 11.5935 3.66019H11.6003C11.6003 3.66019 11.6071 3.66019 11.6139 3.66692L13.0748 5.1135C13.0816 5.12023 13.0816 5.12696 13.0816 5.13369C13.0816 5.14042 13.0748 5.14714 13.068 5.15387L11.5052 5.81998H11.4984C11.4955 5.81998 11.4939 5.81998 11.4923 5.81946C11.4903 5.81875 11.4887 5.81711 11.4848 5.81325ZM15.9762 7.98649L13.4825 5.51047C13.4757 5.50374 13.4689 5.50374 13.4689 5.50374H13.4621L11.7702 6.22367C11.7634 6.2304 11.7566 6.23713 11.7566 6.24386C11.7566 6.25058 11.7634 6.26404 11.7702 6.26404L15.9423 8.0336H15.949C15.9558 8.0336 15.9626 8.0336 15.9626 8.02688L15.9762 8.01336C15.9898 8.01336 15.9898 7.99322 15.9762 7.98649ZM11.5595 6.69466L15.5617 8.39016C15.5685 8.39688 15.5685 8.4036 15.5685 8.4104C15.5685 8.41712 15.5685 8.42384 15.5617 8.43056L13.3466 10.6307C13.3466 10.6374 13.3398 10.6374 13.333 10.6374H13.3262L10.9072 10.1328C10.8937 10.1328 10.8869 10.1261 10.8869 10.1126C10.8665 9.92424 10.7782 9.756 10.6287 9.64168C10.6219 9.63488 10.6219 9.62816 10.6219 9.62144L11.0499 6.9907C11.0499 6.97724 11.0635 6.97051 11.0703 6.97051C11.2606 6.9436 11.4236 6.84941 11.5323 6.70138C11.5391 6.69466 11.5459 6.69466 11.5527 6.69466H11.5595ZM10.2618 6.14294L8.07378 5.21443H8.06698C8.06018 5.21443 8.05346 5.22116 8.04666 5.22789C7.89714 5.45665 7.64573 5.59122 7.37394 5.59122C7.33835 5.59122 7.30275 5.58609 7.26265 5.5803L7.24483 5.57776H7.23804C7.23125 5.57776 7.22445 5.58449 7.21766 5.59122L5.41703 8.38344C5.41023 8.39016 5.41023 8.4036 5.41703 8.4104C5.42382 8.41712 5.43062 8.41712 5.43741 8.41712H5.44421L10.2482 6.36497C10.255 6.35824 10.2618 6.35151 10.2618 6.34478V6.31787V6.28422C10.2618 6.24386 10.2685 6.20349 10.2753 6.16985C10.2753 6.15639 10.2685 6.14966 10.2618 6.14294ZM10.7714 10.5903L12.8981 11.0277C12.9049 11.0277 12.9117 11.0344 12.9117 11.0546C12.9117 11.0613 12.9117 11.0681 12.9049 11.0748L9.95594 14.0016C9.95594 14.0083 9.94922 14.0083 9.94242 14.0083H9.92882C9.92202 14.0016 9.91522 13.9949 9.91522 13.9814L10.4248 10.846C10.4248 10.8393 10.4316 10.8258 10.4384 10.8258C10.5607 10.7787 10.6627 10.698 10.7442 10.597C10.7475 10.597 10.751 10.5954 10.7543 10.5937C10.7578 10.592 10.7611 10.5903 10.7646 10.5903H10.7714ZM9.92882 10.8124C9.72498 10.7316 9.57546 10.55 9.52114 10.3414C9.52114 10.3346 9.51434 10.3279 9.50074 10.3212L5.55972 9.50712H5.55292C5.54613 9.50712 5.53934 9.51384 5.53254 9.52056C5.52647 9.53056 5.52099 9.54 5.51576 9.54904C5.50346 9.57024 5.49248 9.58912 5.47818 9.608C5.47139 9.61472 5.47139 9.62816 5.47818 9.63488L9.06586 14.8292C9.06978 14.833 9.07138 14.8346 9.07338 14.8354C9.0749 14.8359 9.07658 14.8359 9.07946 14.8359C9.08626 14.8359 9.09306 14.8359 9.09306 14.8292L9.3105 14.6138C9.3105 14.6105 9.31218 14.6088 9.31386 14.6071C9.31554 14.6054 9.3173 14.6038 9.3173 14.6004L9.92882 10.8326C9.94242 10.8326 9.94242 10.8191 9.92882 10.8124ZM5.66164 9.04952C5.64805 9.04952 5.64126 9.0428 5.64126 9.02936C5.64126 8.9944 5.63553 8.96232 5.62966 8.92936C5.62648 8.91152 5.62326 8.89352 5.62087 8.87464C5.62087 8.8612 5.62087 8.8544 5.63446 8.84768L10.4656 6.78212H10.4724C10.4724 6.78212 10.4791 6.78212 10.4859 6.78885C10.5199 6.82249 10.5471 6.84267 10.5743 6.86286C10.5879 6.86286 10.5879 6.87632 10.5879 6.88305L10.1666 9.47344C10.1666 9.48688 10.1599 9.4936 10.1463 9.4936C9.91522 9.50712 9.71138 9.64168 9.59586 9.84352C9.58906 9.85024 9.58226 9.85696 9.57546 9.85696H9.56866L5.66164 9.04952ZM4.00371 9.682C3.98332 9.65512 3.96293 9.62816 3.94255 9.59456C3.93575 9.58784 3.92896 9.58112 3.92216 9.58112H3.91537L2.23025 10.301C2.22346 10.301 2.21667 10.3078 2.21667 10.3145C2.21667 10.3212 2.21667 10.3279 2.22346 10.3346L3.04563 11.1488C3.05243 11.1555 3.05922 11.1555 3.05922 11.1555C3.06602 11.1555 3.07281 11.1488 3.0796 11.1421L4.0105 9.69544C4.0105 9.69544 4.0105 9.68872 4.00371 9.682ZM5.09767 9.93096C5.10447 9.93096 5.11126 9.93768 5.11806 9.9444L8.7193 15.179C8.7261 15.1858 8.7261 15.1992 8.7193 15.2059L7.93111 15.9931C7.93111 15.9999 7.92432 15.9999 7.91752 15.9999C7.91752 15.9999 7.91073 15.9999 7.90394 15.9931L3.40575 11.5323C3.39896 11.5256 3.39896 11.5121 3.40575 11.5054L3.41255 11.4986L4.39101 9.97808C4.3978 9.97136 4.40459 9.96464 4.41139 9.96464H4.41819C4.52011 9.99824 4.61523 10.0117 4.71716 10.0117C4.84626 10.0117 4.96857 9.9848 5.09087 9.93096H5.09767ZM4.48614 8.18832C4.49293 8.19504 4.49972 8.20176 4.50652 8.20176H4.51331C4.58127 8.18832 4.65601 8.17488 4.72395 8.17488C4.7987 8.17488 4.88023 8.18832 4.95498 8.20848H4.96178C4.96857 8.20848 4.97536 8.20176 4.98216 8.19504L6.80317 5.36918C6.80997 5.36245 6.80997 5.34899 6.80317 5.34226C6.66048 5.19424 6.57895 4.99912 6.57895 4.79054C6.57895 4.72999 6.58574 4.66944 6.59933 4.60888C6.59933 4.59542 6.59253 4.5887 6.58574 4.58197C6.49223 4.54112 6.10147 4.3757 5.66943 4.1928L5.66792 4.19216C5.03306 3.9234 4.30947 3.6171 4.30947 3.6131H4.30267C4.29588 3.6131 4.28908 3.6131 4.28908 3.61982L2.5564 5.34226C2.54961 5.34899 2.54961 5.36245 2.5564 5.36918L4.48614 8.18832ZM3.88139 8.67952C3.88819 8.67952 3.89499 8.6728 3.90178 8.66608C3.94255 8.58528 4.00371 8.51128 4.06486 8.444C4.07165 8.43728 4.07165 8.42384 4.06486 8.41712C4.04447 8.39016 2.20307 5.72578 2.20307 5.71905C2.20043 5.71643 2.19881 5.71483 2.19703 5.71346C2.19422 5.7113 2.19099 5.7097 2.18269 5.70559C2.17589 5.70559 2.1691 5.70559 2.1691 5.71232L0.0219316 7.83846C0.0151367 7.84519 0.0151367 7.85192 0.0151367 7.85865C0.0151367 7.86538 0.0219316 7.8721 0.0355212 7.8721L3.88139 8.67952ZM3.68435 9.1236C3.69794 9.1236 3.70473 9.13032 3.70473 9.14376C3.70473 9.15048 3.69794 9.1572 3.68435 9.17064L1.83615 9.95784H1.82935C1.82935 9.95784 1.82256 9.95784 1.81577 9.95112L0.327699 8.47096C0.320904 8.46416 0.314109 8.45072 0.320904 8.444C0.327699 8.43728 0.334494 8.43056 0.341289 8.43056H0.348083L3.68435 9.1236Z" fill="url(#paint0_radial_1406_3405)"/>
</g>
<defs>
<radialGradient id="paint0_radial_1406_3405" cx="0" cy="0" r="1" gradientUnits="userSpaceOnUse" gradientTransform="translate(8.00074) scale(15.9713 15.9999)">
<stop stop-color="#20C6B7"/>
<stop offset="1" stop-color="#4D9ABF"/>
</radialGradient>
<clipPath id="clip0_1406_3405">
<rect width="16" height="16" fill="white"/>
</clipPath>
</defs>
</svg>
