<svg width="16" height="16" viewBox="0 0 16 16" fill="none" xmlns="http://www.w3.org/2000/svg">
<g clip-path="url(#clip0_1_816)">
<path d="M7.47605 0.00430566C7.44164 0.00743326 7.33216 0.0183798 7.23362 0.0261988C4.9611 0.231056 2.83246 1.45707 1.48426 3.34145C0.733529 4.38919 0.253373 5.57768 0.0719453 6.83654C0.00782014 7.27597 0 7.40576 0 8.0016C0 8.59736 0.00782014 8.7272 0.0719453 9.16656C0.506745 12.1706 2.64477 14.6946 5.54448 15.6298C6.06374 15.7971 6.61114 15.9113 7.23362 15.9801C7.47605 16.0066 8.52392 16.0066 8.7664 15.9801C9.84088 15.8612 10.7511 15.5954 11.6489 15.1372C11.7865 15.0668 11.8131 15.048 11.7943 15.0324C11.7818 15.023 11.1953 14.2364 10.4915 13.2856L9.21216 11.5577L7.60899 9.18536C6.72688 7.88115 6.00118 6.81464 5.99492 6.81464C5.98866 6.81308 5.98241 7.86708 5.97928 9.15408C5.97458 11.4075 5.97302 11.4982 5.94487 11.5514C5.9042 11.628 5.87292 11.6593 5.80723 11.6937C5.75718 11.7187 5.71339 11.7234 5.47722 11.7234H5.20665L5.1347 11.6781C5.08778 11.6483 5.05338 11.6093 5.02991 11.5639L4.99706 11.4935L5.00019 8.35808L5.00489 5.22114L5.05338 5.16014C5.0784 5.1273 5.13158 5.08508 5.16911 5.06475C5.23323 5.03348 5.25826 5.03035 5.52884 5.03035C5.8479 5.03035 5.90107 5.04286 5.98397 5.13356C6.00743 5.15858 6.87546 6.46592 7.91398 8.04064C8.95248 9.61544 10.3726 11.7656 11.0702 12.8212L12.337 14.74L12.4012 14.6978C12.9689 14.3287 13.5695 13.8033 14.045 13.2559C15.0569 12.094 15.7091 10.6772 15.9281 9.16656C15.9922 8.7272 16 8.59736 16 8.0016C16 7.40576 15.9922 7.27597 15.9281 6.83654C15.4933 3.83248 13.3552 1.30851 10.4555 0.373362C9.94408 0.207599 9.39984 0.0934424 8.78984 0.024635C8.63968 0.00899704 7.60586 -0.00820472 7.47605 0.00430566ZM10.7511 4.8427C10.8262 4.88022 10.8872 4.95216 10.9091 5.02722C10.9216 5.06788 10.9247 5.93735 10.9216 7.89679L10.9169 10.7085L10.4211 9.94848L9.92376 9.18848V7.14461C9.92376 5.8232 9.93 5.08039 9.93936 5.04442C9.9644 4.95686 10.0191 4.88805 10.0942 4.84738C10.1583 4.81454 10.1818 4.81142 10.4274 4.81142C10.6589 4.81142 10.6995 4.81454 10.7511 4.8427Z" fill="#FF00FF"/>
</g>
<defs>
<clipPath id="clip0_1_816">
<rect width="16" height="16" fill="white"/>
</clipPath>
</defs>
</svg>
