<svg width="16" height="16" viewBox="0 0 16 16" fill="none" xmlns="http://www.w3.org/2000/svg">
<g clip-path="url(#clip0_348_3787)">
<path d="M3.97091 1.00633C2.57164 1.25651 1.44582 2.29215 1.09091 3.6536C0.962914 4.14524 0.954187 4.43324 0.968732 8.24706C0.977459 11.7496 0.980368 11.8311 1.03855 12.1016C1.36146 13.5591 2.3971 14.5976 3.8691 14.9409C4.0611 14.9845 4.30546 14.9932 5.87928 15.002C7.50837 15.0136 7.6771 15.0107 7.72073 14.9671C7.76437 14.9234 7.76728 14.362 7.76728 7.99687C7.76728 3.27833 7.75855 1.05578 7.73819 1.01505C7.7091 0.96269 7.65964 0.959782 5.95491 0.96269C4.57019 0.9656 4.15419 0.974327 3.97091 1.00633ZM6.60364 7.98815V13.882L5.41964 13.8674C4.32873 13.8558 4.21237 13.85 3.99419 13.7947C3.05746 13.5532 2.36219 12.8318 2.16728 11.8921C2.10328 11.5983 2.10328 4.36051 2.16437 4.07251C2.33891 3.25506 2.90619 2.57724 3.67128 2.27178C4.05528 2.1176 4.23273 2.10015 5.47782 2.09724L6.60364 2.09433V7.98815Z" fill="#E60012"/>
<path d="M4.22114 3.87197C4.03786 3.90688 3.75859 4.04652 3.61023 4.17743C3.30477 4.44215 3.1535 4.81743 3.17677 5.25961C3.18841 5.48943 3.20295 5.55052 3.29604 5.7367C3.43277 6.01888 3.63932 6.22543 3.9215 6.36506C4.11641 6.46106 4.16587 6.4727 4.41896 6.48143C4.64878 6.49015 4.73023 6.48143 4.88441 6.42906C5.51569 6.2167 5.89678 5.60288 5.78914 4.97452C5.66405 4.22688 4.95423 3.72652 4.22114 3.87197Z" fill="#E60012"/>
<path d="M9.184 0.980313C9.17236 0.989041 9.16364 4.1425 9.16364 7.98831C9.16364 14.333 9.16654 14.9759 9.21018 14.9934C9.28873 15.0225 11.5462 15.0109 11.8255 14.9818C13.0066 14.8479 14.048 14.1294 14.6153 13.0618C14.688 12.925 14.784 12.6952 14.8335 12.5527C15.0168 12.0058 15.0109 12.1512 15.0109 7.97086C15.0109 4.63413 15.0051 4.13668 14.9644 3.92431C14.6764 2.40868 13.5215 1.2654 12.0029 1.00359C11.7993 0.968678 11.4851 0.95995 10.4727 0.95995C9.77455 0.95995 9.19273 0.968678 9.184 0.980313ZM12.2909 7.31631C12.7447 7.43559 13.1171 7.78177 13.2684 8.22395C13.3644 8.4974 13.3615 8.89886 13.2655 9.14904C13.088 9.60868 12.7389 9.93159 12.2909 10.0509C11.5636 10.2399 10.7898 9.80068 10.5775 9.07922C10.5135 8.85813 10.5164 8.48577 10.5891 8.25886C10.8073 7.54613 11.5636 7.12722 12.2909 7.31631Z" fill="#E60012"/>
</g>
<defs>
<clipPath id="clip0_348_3787">
<rect width="16" height="16" fill="white"/>
</clipPath>
</defs>
</svg>
