<svg width="16" height="16" viewBox="0 0 16 16" fill="none" xmlns="http://www.w3.org/2000/svg">
<g clip-path="url(#clip0_1_832)">
<mask id="mask0_1_832" style="mask-type:luminance" maskUnits="userSpaceOnUse" x="0" y="0" width="16" height="16">
<path d="M16 0H0V16H16V0Z" fill="white"/>
</mask>
<g mask="url(#mask0_1_832)">
<path d="M11.6379 9.34612C12.0384 9.50412 12.8835 9.63227 13.5428 9.63227C14.2648 9.63227 14.5643 9.38443 14.5643 9.07347C14.5643 8.79451 14.2863 8.63052 13.489 8.3382C12.4231 7.94423 11.6415 7.63425 11.6415 6.93419C11.6415 6.20914 12.5819 5.78271 14.0164 5.78271C14.7866 5.78271 15.051 5.83137 15.5403 5.92107L15.5438 6.60897C15.0635 6.51765 14.6377 6.36064 13.9763 6.36064C13.2675 6.36064 12.9657 6.58561 12.9657 6.81756C12.9657 7.15414 13.4306 7.31504 14.2468 7.60587C15.3825 8.01252 16.0145 8.32619 16.0145 9.01171C16.0145 9.71691 15.2232 10.2261 13.4383 10.2261C12.7052 10.2261 12.1999 10.1777 11.6379 10.0874V9.34612Z" fill="#332D2B"/>
<path d="M7.83833 6.3906H6.98904V9.60598H7.83833C9.14232 9.60598 9.9648 9.04846 9.9648 8.00486C9.9648 6.96156 9.14232 6.3906 7.83833 6.3906ZM10.1189 9.9055C9.69832 10.0958 8.90384 10.2165 8.20864 10.2165H5.55371V5.79224H8.20864C8.90384 5.79224 9.69832 5.91453 10.1192 6.10431C11.1418 6.56594 11.4756 7.30477 11.4756 8.00486C11.4756 8.70542 11.1448 9.4431 10.1189 9.9055Z" fill="#332D2B"/>
<path d="M3.69273 7.79556C3.69273 7.79556 4.93131 7.59719 4.93131 6.82608C4.93131 6.07232 3.61244 5.76398 2.20923 5.76398C0.942748 5.76398 0.110165 5.91872 0.110165 5.91872V6.60354C0.685011 6.46453 1.23472 6.34612 1.98409 6.34612C2.78829 6.34612 3.40207 6.58602 3.40207 6.92502C3.40207 7.33377 2.79511 7.56718 1.48888 7.56718H0.888572V8.18342H1.44623C2.82219 8.18342 3.60466 8.39039 3.60466 8.89543C3.60466 9.34639 2.90556 9.62031 2.03388 9.62031C1.2738 9.62031 0.578443 9.45847 0.0144653 9.30191V10.0406C0.285343 10.0872 1.00406 10.2315 2.34272 10.2315C3.82558 10.2315 5.1159 9.75463 5.1159 8.91415C5.1159 8.20919 4.222 7.79556 3.69273 7.79556Z" fill="#D12228"/>
</g>
</g>
<defs>
<clipPath id="clip0_1_832">
<rect width="16" height="16" fill="white"/>
</clipPath>
</defs>
</svg>
