<svg width="16" height="16" viewBox="0 0 16 16" fill="none" xmlns="http://www.w3.org/2000/svg">
<g clip-path="url(#clip0_1406_3399)">
<mask id="mask0_1406_3399" style="mask-type:luminance" maskUnits="userSpaceOnUse" x="0" y="0" width="16" height="16">
<path d="M16 0H0V16H16V0Z" fill="white"/>
</mask>
<g mask="url(#mask0_1406_3399)">
<path d="M11.6382 9.34612C12.0387 9.50412 12.8837 9.63227 13.5431 9.63227C14.2651 9.63227 14.5646 9.38443 14.5646 9.07347C14.5646 8.79451 14.2866 8.63052 13.4892 8.3382C12.4234 7.94423 11.6417 7.63425 11.6417 6.93419C11.6417 6.20914 12.5822 5.78271 14.0167 5.78271C14.7868 5.78271 15.0512 5.83137 15.5406 5.92107L15.544 6.60897C15.0637 6.51765 14.6379 6.36064 13.9765 6.36064C13.2678 6.36064 12.9659 6.58561 12.9659 6.81756C12.9659 7.15414 13.4308 7.31504 14.2471 7.60587C15.3827 8.01252 16.0147 8.3262 16.0147 9.01171C16.0147 9.71691 15.2235 10.2261 13.4386 10.2261C12.7055 10.2261 12.2002 10.1777 11.6382 10.0874V9.34612Z" fill="#332D2B"/>
<path d="M7.83833 6.3906H6.98904V9.60598H7.83833C9.14232 9.60598 9.9648 9.04846 9.9648 8.00486C9.9648 6.96156 9.14232 6.3906 7.83833 6.3906ZM10.1189 9.9055C9.69832 10.0958 8.90384 10.2165 8.20864 10.2165H5.55371V5.79224H8.20864C8.90384 5.79224 9.69832 5.91453 10.1192 6.10431C11.1418 6.56594 11.4756 7.30477 11.4756 8.00486C11.4756 8.70542 11.1448 9.4431 10.1189 9.9055Z" fill="#332D2B"/>
<path d="M3.69292 7.79556C3.69292 7.79556 4.93149 7.59719 4.93149 6.82608C4.93149 6.07232 3.61263 5.76398 2.20941 5.76398C0.942931 5.76398 0.110348 5.91872 0.110348 5.91872V6.60354C0.685194 6.46453 1.2349 6.34612 1.98428 6.34612C2.78848 6.34612 3.40225 6.58602 3.40225 6.92502C3.40225 7.33377 2.79529 7.56718 1.48907 7.56718H0.888755V8.18342H1.44641C2.82237 8.18342 3.60484 8.39039 3.60484 8.89543C3.60484 9.34639 2.90575 9.62031 2.03407 9.62031C1.27399 9.62031 0.578627 9.45847 0.0146484 9.30191V10.0406C0.285527 10.0872 1.00424 10.2315 2.34291 10.2315C3.82576 10.2315 5.11608 9.75463 5.11608 8.91415C5.11608 8.20919 4.22219 7.79556 3.69292 7.79556Z" fill="#D12228"/>
</g>
</g>
<defs>
<clipPath id="clip0_1406_3399">
<rect width="16" height="16" fill="white"/>
</clipPath>
</defs>
</svg>
