<svg width="16" height="16" viewBox="0 0 16 16" fill="none" xmlns="http://www.w3.org/2000/svg">
<g clip-path="url(#clip0_348_3851)">
<path d="M11.6378 9.34636C12.0383 9.50434 12.8834 9.63248 13.5428 9.63248C14.2647 9.63248 14.5643 9.38464 14.5643 9.07369C14.5643 8.79471 14.2863 8.63072 13.4889 8.33843C12.4231 7.94444 11.6414 7.63447 11.6414 6.9344C11.6414 6.20936 12.5819 5.78293 14.0164 5.78293C14.7865 5.78293 15.0509 5.83159 15.5403 5.92129L15.5437 6.60919C15.0634 6.51787 14.6376 6.36085 13.9762 6.36085C13.2675 6.36085 12.9656 6.58583 12.9656 6.81778C12.9656 7.15435 13.4305 7.31526 14.2467 7.60608C15.3825 8.01273 16.0144 8.32643 16.0144 9.01189C16.0144 9.71715 15.2232 10.2263 13.4383 10.2263C12.7051 10.2263 12.1999 10.178 11.6378 10.0876V9.34636Z" fill="#FF00FF"/>
<path d="M7.83841 6.39079H6.98912V9.60613H7.83841C9.14236 9.60613 9.96489 9.04864 9.96489 8.00503C9.96489 6.96174 9.14236 6.39079 7.83841 6.39079ZM10.119 9.90572C9.69839 10.096 8.90392 10.2167 8.20872 10.2167H5.55379V5.79242H8.20872C8.90392 5.79242 9.69839 5.91472 10.1193 6.1045C11.1418 6.56613 11.4756 7.30496 11.4756 8.00503C11.4756 8.70558 11.1449 9.44328 10.119 9.90572Z" fill="#FF00FF"/>
<path d="M3.69267 7.79575C3.69267 7.79575 4.93125 7.59737 4.93125 6.82626C4.93125 6.07251 3.61238 5.76416 2.20917 5.76416C0.94269 5.76416 0.110104 5.9189 0.110104 5.9189V6.60372C0.68495 6.46471 1.23465 6.34631 1.98403 6.34631C2.78823 6.34631 3.40201 6.5862 3.40201 6.92521C3.40201 7.33396 2.79504 7.56737 1.48883 7.56737H0.888514V8.18357H1.44617C2.82213 8.18357 3.6046 8.39054 3.6046 8.89564C3.6046 9.34657 2.9055 9.62053 2.03383 9.62053C1.27375 9.62053 0.578383 9.45865 0.0144043 9.30212V10.0408C0.285283 10.0873 1.004 10.2317 2.34266 10.2317C3.82552 10.2317 5.11584 9.75483 5.11584 8.9143C5.11584 8.20936 4.22194 7.79575 3.69267 7.79575Z" fill="#FF00FF"/>
</g>
<defs>
<clipPath id="clip0_348_3851">
<rect width="16" height="16" fill="white"/>
</clipPath>
</defs>
</svg>
