<svg width="16" height="16" viewBox="0 0 16 16" fill="none" xmlns="http://www.w3.org/2000/svg">
<g clip-path="url(#clip0_1406_3397)">
<path d="M3.97076 1.00656C2.57149 1.25675 1.44567 2.29239 1.09076 3.65384C0.962759 4.14547 0.954031 4.43347 0.968583 8.24731C0.977311 11.7499 0.980215 11.8313 1.0384 12.1019C1.36131 13.5593 2.39694 14.5979 3.86894 14.9411C4.06094 14.9847 4.30531 14.9935 5.87913 15.0022C7.50821 15.0139 7.67694 15.0109 7.72058 14.9673C7.76421 14.9236 7.76713 14.3622 7.76713 7.99711C7.76713 3.27857 7.7584 1.05602 7.73803 1.01529C7.70894 0.96293 7.65949 0.960018 5.95476 0.96293C4.57004 0.965842 4.15403 0.97457 3.97076 1.00656ZM6.60349 7.98839V13.8822L5.41949 13.8676C4.32858 13.856 4.21221 13.8502 3.99404 13.7949C3.05731 13.5535 2.36203 12.832 2.16713 11.8923C2.10313 11.5986 2.10313 4.36075 2.16421 4.07275C2.33876 3.2553 2.90603 2.57747 3.67113 2.27202C4.05513 2.11784 4.23258 2.10039 5.47767 2.09747L6.60349 2.09457V7.98839Z" fill="#E60012"/>
<path d="M4.22102 3.87197C4.03775 3.90689 3.75847 4.04652 3.61011 4.17743C3.30465 4.44216 3.15338 4.81743 3.17665 5.25961C3.18829 5.48943 3.20283 5.55052 3.29593 5.7367C3.43266 6.01889 3.6392 6.22543 3.92139 6.36506C4.11629 6.46106 4.16575 6.4727 4.41884 6.48143C4.64866 6.49016 4.73011 6.48143 4.88429 6.42906C5.51557 6.2167 5.89666 5.60289 5.78903 4.97452C5.66393 4.22689 4.95411 3.72652 4.22102 3.87197Z" fill="#E60012"/>
<path d="M9.18389 0.980382C9.17229 0.98911 9.16357 4.14257 9.16357 7.98838C9.16357 14.3331 9.16645 14.976 9.21013 14.9935C9.28869 15.0226 11.5461 15.0109 11.8254 14.9819C13.0065 14.848 14.048 14.1295 14.6153 13.0619C14.688 12.9251 14.784 12.6953 14.8334 12.5527C15.0167 12.0059 15.0109 12.1513 15.0109 7.97093C15.0109 4.63421 15.005 4.13675 14.9643 3.92438C14.6763 2.40875 13.5214 1.26548 12.0029 1.00366C11.7992 0.96875 11.485 0.960022 10.4727 0.960022C9.77445 0.960022 9.19269 0.96875 9.18389 0.980382ZM12.2909 7.31639C12.7447 7.43566 13.117 7.78184 13.2683 8.22402C13.3643 8.49746 13.3614 8.8989 13.2654 9.14914C13.088 9.60874 12.7389 9.93162 12.2909 10.0509C11.5636 10.24 10.7897 9.80074 10.5774 9.0793C10.5134 8.85818 10.5163 8.48586 10.589 8.2589C10.8072 7.54621 11.5636 7.12729 12.2909 7.31639Z" fill="#E60012"/>
</g>
<defs>
<clipPath id="clip0_1406_3397">
<rect width="16" height="16" fill="white"/>
</clipPath>
</defs>
</svg>
