<svg width="16" height="16" viewBox="0 0 16 16" fill="none" xmlns="http://www.w3.org/2000/svg">
<g clip-path="url(#clip0_1_844)">
<path d="M3.97088 1.00656C2.57161 1.25675 1.44579 2.29239 1.09088 3.65384C0.962881 4.14547 0.954153 4.43347 0.968705 8.24731C0.977433 11.7499 0.980337 11.8313 1.03852 12.1019C1.36143 13.5593 2.39706 14.5979 3.86906 14.9411C4.06106 14.9847 4.30543 14.9935 5.87925 15.0022C7.50834 15.0139 7.67707 15.0109 7.72071 14.9673C7.76434 14.9236 7.76725 14.3622 7.76725 7.99711C7.76725 3.27857 7.75852 1.05602 7.73815 1.01529C7.70906 0.96293 7.65961 0.960018 5.95488 0.96293C4.57016 0.965842 4.15415 0.97457 3.97088 1.00656ZM6.60361 7.98839V13.8822L5.41961 13.8676C4.3287 13.856 4.21234 13.8502 3.99416 13.7949C3.05743 13.5535 2.36215 12.832 2.16725 11.8923C2.10325 11.5986 2.10325 4.36075 2.16434 4.07275C2.33888 3.2553 2.90615 2.57747 3.67125 2.27202C4.05525 2.11784 4.2327 2.10039 5.47779 2.09747L6.60361 2.09457V7.98839Z" fill="#E60012"/>
<path d="M4.22114 3.87197C4.03787 3.90689 3.7586 4.04652 3.61023 4.17743C3.30477 4.44216 3.1535 4.81743 3.17677 5.25961C3.18841 5.48943 3.20296 5.55052 3.29605 5.7367C3.43278 6.01889 3.63932 6.22543 3.92151 6.36506C4.11641 6.46106 4.16587 6.4727 4.41896 6.48143C4.64878 6.49016 4.73024 6.48143 4.88441 6.42906C5.51569 6.2167 5.89678 5.60289 5.78915 4.97452C5.66405 4.22689 4.95424 3.72652 4.22114 3.87197Z" fill="#E60012"/>
<path d="M9.18402 0.980382C9.17242 0.98911 9.1637 4.14257 9.1637 7.98838C9.1637 14.3331 9.16658 14.976 9.21026 14.9935C9.28882 15.0226 11.5463 15.0109 11.8255 14.9819C13.0066 14.848 14.0481 14.1295 14.6154 13.0619C14.6881 12.9251 14.7841 12.6953 14.8335 12.5527C15.0168 12.0059 15.011 12.1513 15.011 7.97093C15.011 4.63421 15.0051 4.13675 14.9644 3.92438C14.6764 2.40875 13.5215 1.26548 12.003 1.00366C11.7993 0.96875 11.4851 0.960022 10.4728 0.960022C9.77458 0.960022 9.19282 0.96875 9.18402 0.980382ZM12.291 7.31639C12.7448 7.43566 13.1171 7.78184 13.2684 8.22402C13.3644 8.49746 13.3615 8.8989 13.2655 9.14914C13.0881 9.60874 12.739 9.93162 12.291 10.0509C11.5637 10.24 10.7899 9.80074 10.5775 9.0793C10.5135 8.85818 10.5164 8.48586 10.5891 8.2589C10.8073 7.54621 11.5637 7.12729 12.291 7.31639Z" fill="#E60012"/>
</g>
<defs>
<clipPath id="clip0_1_844">
<rect width="16" height="16" fill="white"/>
</clipPath>
</defs>
</svg>
