<svg width="16" height="16" viewBox="0 0 16 16" fill="none" xmlns="http://www.w3.org/2000/svg">
<g clip-path="url(#clip0_348_3838)">
<path d="M11.6379 9.34614C12.0383 9.50413 12.8834 9.63227 13.5428 9.63227C14.2647 9.63227 14.5643 9.38442 14.5643 9.07348C14.5643 8.79449 14.2863 8.63051 13.4889 8.33822C12.4231 7.94423 11.6414 7.63426 11.6414 6.93419C11.6414 6.20915 12.5819 5.78271 14.0164 5.78271C14.7865 5.78271 15.0509 5.83138 15.5403 5.92107L15.5437 6.60898C15.0634 6.51766 14.6376 6.36064 13.9762 6.36064C13.2675 6.36064 12.9656 6.58562 12.9656 6.81757C12.9656 7.15414 13.4305 7.31504 14.2467 7.60587C15.3825 8.01251 16.0144 8.32621 16.0144 9.01168C16.0144 9.71694 15.2232 10.2261 13.4383 10.2261C12.7051 10.2261 12.1999 10.1778 11.6379 10.0874V9.34614Z" fill="#332D2B"/>
<path d="M7.83843 6.39057H6.98913V9.60592H7.83843C9.14237 9.60592 9.9649 9.04843 9.9649 8.00481C9.9649 6.96153 9.14237 6.39057 7.83843 6.39057ZM10.119 9.9055C9.6984 10.0958 8.90394 10.2164 8.20873 10.2164H5.5538V5.79221H8.20873C8.90394 5.79221 9.6984 5.91451 10.1193 6.10429C11.1418 6.56592 11.4757 7.30475 11.4757 8.00481C11.4757 8.70537 11.1449 9.44307 10.119 9.9055Z" fill="#332D2B"/>
<path d="M3.69267 7.79549C3.69267 7.79549 4.93125 7.59711 4.93125 6.826C4.93125 6.07225 3.61238 5.7639 2.20917 5.7639C0.94269 5.7639 0.110104 5.91864 0.110104 5.91864V6.60346C0.68495 6.46445 1.23465 6.34605 1.98403 6.34605C2.78823 6.34605 3.40201 6.58594 3.40201 6.92495C3.40201 7.3337 2.79504 7.56711 1.48883 7.56711H0.888514V8.18331H1.44617C2.82213 8.18331 3.6046 8.39028 3.6046 8.89538C3.6046 9.34631 2.9055 9.62027 2.03383 9.62027C1.27375 9.62027 0.578383 9.45839 0.0144043 9.30186V10.0405C0.285283 10.0871 1.004 10.2314 2.34266 10.2314C3.82552 10.2314 5.11584 9.75457 5.11584 8.91404C5.11584 8.2091 4.22194 7.79549 3.69267 7.79549Z" fill="#D12228"/>
</g>
<defs>
<clipPath id="clip0_348_3838">
<rect width="16" height="16" fill="white"/>
</clipPath>
</defs>
</svg>
