<svg width="16" height="16" viewBox="0 0 16 16" fill="none" xmlns="http://www.w3.org/2000/svg">
<g clip-path="url(#clip0_348_3800)">
<path d="M3.97088 1.0065C2.57161 1.25668 1.44579 2.29232 1.09088 3.65377C0.962883 4.14541 0.954156 4.43341 0.968702 8.24723C0.977429 11.7498 0.980338 11.8312 1.03852 12.1018C1.36143 13.5592 2.39707 14.5978 3.86907 14.941C4.06107 14.9847 4.30543 14.9934 5.87925 15.0021C7.50834 15.0138 7.67706 15.0109 7.7207 14.9672C7.76434 14.9236 7.76725 14.3621 7.76725 7.99704C7.76725 3.2785 7.75852 1.05595 7.73816 1.01523C7.70906 0.962862 7.65961 0.959953 5.95488 0.962862C4.57016 0.965771 4.15416 0.974498 3.97088 1.0065ZM6.60361 13.8821L5.41961 13.8676C4.3287 13.856 4.21234 13.8501 3.99416 13.7949C3.05743 13.5534 2.36216 12.832 2.16725 11.8923C2.10325 11.5985 2.10325 4.36068 2.16434 4.07268C2.33888 3.25523 2.90616 2.57741 3.67125 2.27195C4.05525 2.11777 4.2327 2.10032 5.47779 2.09741L6.60361 2.0945V13.8821Z" fill="#FF00FF"/>
<path d="M4.22109 3.87194C4.03781 3.90684 3.75854 4.04648 3.61017 4.17739C3.30472 4.44212 3.15345 4.81739 3.17672 5.25957C3.18836 5.48939 3.2029 5.55048 3.29599 5.73666C3.43272 6.01885 3.63927 6.22539 3.92145 6.36503C4.11636 6.46103 4.16581 6.47266 4.4189 6.48139C4.64872 6.49012 4.73018 6.48139 4.88436 6.42903C5.51563 6.21666 5.89673 5.60285 5.78909 4.97448C5.664 4.22685 4.95418 3.72648 4.22109 3.87194Z" fill="#FF00FF"/>
<path d="M9.18398 0.980325C9.17234 0.989052 9.16361 4.14251 9.16361 7.98832C9.16361 14.333 9.16652 14.976 9.21016 14.9934C9.2887 15.0225 11.5462 15.0109 11.8254 14.9818C13.0065 14.848 14.048 14.1294 14.6153 13.0618C14.688 12.9251 14.784 12.6952 14.8335 12.5527C15.0167 12.0058 15.0109 12.1512 15.0109 7.97087C15.0109 4.63414 15.0051 4.13669 14.9644 3.92432C14.6764 2.40869 13.5214 1.26542 12.0029 1.0036C11.7993 0.968688 11.4851 0.959961 10.4727 0.959961C9.77452 0.959961 9.1927 0.968688 9.18398 0.980325ZM12.2909 7.31632C12.7447 7.4356 13.1171 7.78178 13.2684 8.22396C13.3644 8.49742 13.3614 8.89887 13.2654 9.14905C13.088 9.60869 12.7389 9.9316 12.2909 10.0509C11.5636 10.24 10.7898 9.80069 10.5774 9.07923C10.5134 8.85814 10.5163 8.48578 10.5891 8.25887C10.8073 7.54614 11.5636 7.12723 12.2909 7.31632Z" fill="#FF00FF"/>
</g>
<defs>
<clipPath id="clip0_348_3800">
<rect width="16" height="16" fill="white"/>
</clipPath>
</defs>
</svg>
