<svg width="16" height="16" viewBox="0 0 16 16" fill="none" xmlns="http://www.w3.org/2000/svg">
<path d="M7.40706 15.7277C7.59487 15.8289 7.79712 15.8866 8.01383 15.8866C8.21608 15.8866 8.43279 15.8433 8.6206 15.7566L14.3849 12.4194C14.7606 12.2027 14.9917 11.7982 14.9917 11.3647V4.7047C14.9917 4.27129 14.7606 3.86678 14.3849 3.65007L8.6206 0.312826C8.25943 0.110568 7.76823 0.110568 7.40706 0.312826L1.64272 3.65007C1.2671 3.86678 1.03595 4.27129 1.03595 4.7047V11.3647C1.03595 11.7982 1.2671 12.2027 1.64272 12.4194L3.15965 13.2862C3.89645 13.6474 4.15649 13.6474 4.48877 13.6474C5.57229 13.6474 6.19351 12.9828 6.19351 11.8415V5.26813C6.19351 5.167 6.10683 5.09477 6.02015 5.09477H5.28335C5.18223 5.09477 5.10999 5.18145 5.10999 5.26813V11.8415C5.10999 12.3471 4.57545 12.8528 3.72308 12.4194L2.14837 11.5092C2.09058 11.4803 2.06168 11.4081 2.06168 11.3503V4.69025C2.06168 4.63246 2.09058 4.56023 2.14837 4.53134L7.9127 1.20854C7.95604 1.17964 8.02828 1.17964 8.08606 1.20854L13.8504 4.53134C13.9082 4.56023 13.9371 4.61802 13.9371 4.69025V11.3503C13.9371 11.4225 13.9082 11.4803 13.8504 11.5092L8.08606 14.8465C8.04272 14.8754 7.97049 14.8754 7.9127 14.8465L6.43911 13.9652C6.39577 13.9363 6.33798 13.9219 6.29464 13.9507C5.89013 14.1819 5.81789 14.2108 5.42782 14.3408C5.34114 14.3697 5.19667 14.4275 5.48561 14.5864L7.40706 15.7277Z" fill="#699F63"/>
<path d="M6.7425 9.16881C6.7425 10.1512 7.26259 11.307 9.7908 11.307C11.6256 11.307 12.6657 10.5846 12.6802 9.31328C12.6802 8.07084 11.8423 7.73856 10.0653 7.50741C8.27387 7.27626 8.08606 7.14623 8.08606 6.72727C8.08606 6.38055 8.24498 5.91824 9.5741 5.91824C10.7587 5.91824 11.2066 6.17829 11.38 6.97287C11.3944 7.04511 11.4666 7.10289 11.5389 7.10289H12.2901C12.3335 7.10289 12.3768 7.074 12.4057 7.04511C12.4346 7.00176 12.449 6.95842 12.449 6.91508C12.3335 5.52818 11.4233 4.89251 9.5741 4.89251C7.92715 4.89251 6.94475 5.58596 6.94475 6.75617C6.94475 8.01305 7.92715 8.35978 9.50186 8.51869C11.3944 8.7065 11.5389 8.981 11.5389 9.35662C11.5389 10.0067 11.0188 10.2812 9.80525 10.2812C8.27387 10.2812 7.94159 9.9056 7.82602 9.13991C7.82602 9.05323 7.75378 8.99544 7.6671 8.99544H6.91586C6.81473 8.99544 6.7425 9.08213 6.7425 9.16881Z" fill="#699F63"/>
</svg>
