<svg width="16" height="16" viewBox="0 0 16 16" fill="none" xmlns="http://www.w3.org/2000/svg">
<path d="M7.40699 15.7277C7.59481 15.8289 7.79706 15.8866 8.01377 15.8866C8.21602 15.8866 8.43273 15.8433 8.62054 15.7566L14.3849 12.4194C14.7605 12.2027 14.9916 11.7982 14.9916 11.3647V4.7047C14.9916 4.27129 14.7605 3.86678 14.3849 3.65007L8.62054 0.312826C8.25937 0.110568 7.76817 0.110568 7.40699 0.312826L1.64266 3.65007C1.26704 3.86678 1.03589 4.27129 1.03589 4.7047V11.3647C1.03589 11.7982 1.26704 12.2027 1.64266 12.4194L3.15959 13.2862C3.89639 13.6474 4.15643 13.6474 4.48871 13.6474C5.57223 13.6474 6.19345 12.9828 6.19345 11.8415V5.26813C6.19345 5.167 6.10677 5.09477 6.02009 5.09477H5.28329C5.18216 5.09477 5.10993 5.18145 5.10993 5.26813V11.8415C5.10993 12.3471 4.57539 12.8528 3.72302 12.4194L2.1483 11.5092C2.09052 11.4803 2.06162 11.4081 2.06162 11.3503V4.69025C2.06162 4.63246 2.09052 4.56023 2.1483 4.53134L7.91264 1.20854C7.95598 1.17964 8.02821 1.17964 8.086 1.20854L13.8503 4.53134C13.9081 4.56023 13.937 4.61802 13.937 4.69025V11.3503C13.937 11.4225 13.9081 11.4803 13.8503 11.5092L8.086 14.8465C8.04266 14.8754 7.97043 14.8754 7.91264 14.8465L6.43905 13.9652C6.39571 13.9363 6.33792 13.9219 6.29458 13.9507C5.89006 14.1819 5.81783 14.2108 5.42776 14.3408C5.34108 14.3697 5.19661 14.4275 5.48555 14.5864L7.40699 15.7277Z" fill="#FF00FF"/>
<path d="M6.74244 9.16881C6.74244 10.1512 7.26253 11.307 9.79074 11.307C11.6255 11.307 12.6657 10.5846 12.6801 9.31328C12.6801 8.07084 11.8422 7.73856 10.0652 7.50741C8.27381 7.27626 8.086 7.14623 8.086 6.72727C8.086 6.38055 8.24492 5.91824 9.57404 5.91824C10.7587 5.91824 11.2065 6.17829 11.3799 6.97287C11.3944 7.04511 11.4666 7.10289 11.5388 7.10289H12.2901C12.3334 7.10289 12.3767 7.074 12.4056 7.04511C12.4345 7.00176 12.449 6.95842 12.449 6.91508C12.3334 5.52818 11.4232 4.89251 9.57404 4.89251C7.92709 4.89251 6.94469 5.58596 6.94469 6.75617C6.94469 8.01305 7.92709 8.35978 9.5018 8.51869C11.3944 8.7065 11.5388 8.981 11.5388 9.35662C11.5388 10.0067 11.0187 10.2812 9.80519 10.2812C8.27381 10.2812 7.94153 9.9056 7.82596 9.13991C7.82596 9.05323 7.75372 8.99544 7.66704 8.99544H6.9158C6.81467 8.99544 6.74244 9.08213 6.74244 9.16881Z" fill="#FF00FF"/>
</svg>
