<svg width="16" height="16" viewBox="0 0 16 16" fill="none" xmlns="http://www.w3.org/2000/svg">
<path fill-rule="evenodd" clip-rule="evenodd" d="M7.40705 15.7279C7.59487 15.8291 7.79713 15.8868 8.01385 15.8868C8.21609 15.8868 8.43281 15.8435 8.62057 15.7568L14.385 12.4195C14.7606 12.2028 14.9917 11.7983 14.9917 11.3649V4.70488C14.9917 4.27147 14.7606 3.86696 14.385 3.65026L8.62057 0.313009C8.25945 0.110752 7.76823 0.110752 7.40705 0.313009L1.64273 3.65026C1.2671 3.86696 1.03595 4.27147 1.03595 4.70488V11.3649C1.03595 11.7983 1.2671 12.2028 1.64273 12.4195L3.15965 13.2863C3.89645 13.6475 4.15649 13.6475 4.48877 13.6475C5.57229 13.6475 6.19351 12.983 6.19351 11.8417V5.26831C6.19351 5.16718 6.10683 5.09495 6.02015 5.09495H5.28336C5.18223 5.09495 5.10999 5.18163 5.10999 5.26831V11.8417C5.10999 12.3473 4.57545 12.853 3.72309 12.4195L2.14837 11.5094C2.09058 11.4805 2.06169 11.4083 2.06169 11.3505V4.69043C2.06169 4.63265 2.09058 4.56042 2.14837 4.53152L7.9127 1.20872C7.95604 1.17982 8.02825 1.17982 8.08609 1.20872L13.8504 4.53152C13.9082 4.56042 13.9371 4.6182 13.9371 4.69043V11.3505C13.9371 11.4227 13.9082 11.4805 13.8504 11.5094L8.08609 14.8467C8.04273 14.8755 7.97049 14.8755 7.9127 14.8467L6.43911 13.9654C6.39577 13.9365 6.33798 13.922 6.29465 13.9509C5.89013 14.1821 5.81789 14.211 5.42782 14.341C5.34114 14.3699 5.19667 14.4277 5.48561 14.5866L7.40705 15.7279ZM6.74249 9.16898C6.74249 10.1514 7.26259 11.3071 9.79081 11.3071C11.6255 11.3071 12.6658 10.5848 12.6802 9.31346C12.6802 8.07098 11.8423 7.73874 10.0653 7.50759C8.27385 7.27644 8.08609 7.14642 8.08609 6.72746C8.08609 6.38073 8.24497 5.91842 9.57409 5.91842C10.7587 5.91842 11.2066 6.17847 11.3799 6.97306C11.3944 7.04529 11.4667 7.10308 11.5389 7.10308H12.2901C12.3335 7.10308 12.3768 7.07418 12.4057 7.04529C12.4346 7.00194 12.4491 6.95861 12.4491 6.91526C12.3335 5.52836 11.4233 4.8927 9.57409 4.8927C7.92715 4.8927 6.94476 5.58614 6.94476 6.75635C6.94476 8.01322 7.92715 8.35994 9.50185 8.5189C11.3944 8.70666 11.5389 8.98114 11.5389 9.35682C11.5389 10.0069 11.0188 10.2814 9.80521 10.2814C8.27385 10.2814 7.9416 9.90578 7.82602 9.1401C7.82602 9.05338 7.75378 8.99562 7.6671 8.99562H6.91586C6.81473 8.99562 6.74249 9.08234 6.74249 9.16898Z" fill="#FF00FF"/>
</svg>
