<svg width="16" height="16" viewBox="0 0 16 16" fill="none" xmlns="http://www.w3.org/2000/svg">
<path fill-rule="evenodd" clip-rule="evenodd" d="M7.40724 15.7279C7.59505 15.8291 7.79731 15.8868 8.01404 15.8868C8.21628 15.8868 8.433 15.8435 8.62076 15.7568L14.3852 12.4195C14.7608 12.2028 14.9919 11.7983 14.9919 11.3649V4.70488C14.9919 4.27147 14.7608 3.86696 14.3852 3.65026L8.62076 0.313009C8.25964 0.110752 7.76841 0.110752 7.40724 0.313009L1.64291 3.65026C1.26728 3.86696 1.03613 4.27147 1.03613 4.70488V11.3649C1.03613 11.7983 1.26728 12.2028 1.64291 12.4195L3.15984 13.2863C3.89663 13.6475 4.15668 13.6475 4.48896 13.6475C5.57248 13.6475 6.19369 12.983 6.19369 11.8417V5.26831C6.19369 5.16718 6.10701 5.09495 6.02033 5.09495H5.28354C5.18241 5.09495 5.11017 5.18163 5.11017 5.26831V11.8417C5.11017 12.3473 4.57564 12.853 3.72327 12.4195L2.14855 11.5094C2.09076 11.4805 2.06187 11.4083 2.06187 11.3505V4.69043C2.06187 4.63265 2.09076 4.56042 2.14855 4.53152L7.91288 1.20872C7.95622 1.17982 8.02844 1.17982 8.08628 1.20872L13.8506 4.53152C13.9084 4.56042 13.9372 4.6182 13.9372 4.69043V11.3505C13.9372 11.4227 13.9084 11.4805 13.8506 11.5094L8.08628 14.8467C8.04292 14.8755 7.97067 14.8755 7.91288 14.8467L6.43929 13.9654C6.39596 13.9365 6.33816 13.922 6.29483 13.9509C5.89031 14.1821 5.81808 14.211 5.428 14.341C5.34132 14.3699 5.19685 14.4277 5.4858 14.5866L7.40724 15.7279ZM6.74268 9.16898C6.74268 10.1514 7.26277 11.3071 9.791 11.3071C11.6257 11.3071 12.666 10.5848 12.6804 9.31346C12.6804 8.07098 11.8424 7.73874 10.0655 7.50759C8.27404 7.27644 8.08628 7.14642 8.08628 6.72746C8.08628 6.38073 8.24516 5.91842 9.57428 5.91842C10.7589 5.91842 11.2068 6.17847 11.3801 6.97306C11.3946 7.04529 11.4668 7.10308 11.5391 7.10308H12.2903C12.3336 7.10308 12.377 7.07418 12.4059 7.04529C12.4348 7.00194 12.4492 6.95861 12.4492 6.91526C12.3336 5.52836 11.4235 4.8927 9.57428 4.8927C7.92733 4.8927 6.94494 5.58614 6.94494 6.75635C6.94494 8.01322 7.92733 8.35994 9.50204 8.5189C11.3946 8.70666 11.5391 8.98114 11.5391 9.35682C11.5391 10.0069 11.019 10.2814 9.8054 10.2814C8.27404 10.2814 7.94178 9.90578 7.8262 9.1401C7.8262 9.05338 7.75397 8.99562 7.66729 8.99562H6.91604C6.81492 8.99562 6.74268 9.08234 6.74268 9.16898Z" fill="#FF00FF"/>
</svg>
