<svg width="16" height="16" viewBox="0 0 16 16" fill="none" xmlns="http://www.w3.org/2000/svg">
<g clip-path="url(#clip0_348_3938)">
<path d="M15.2 14.7999L3.59999 15.5999L0.799988 11.5999V1.1999L11.2 0.399902L15.2 3.1999V14.7999Z" fill="white"/>
<path d="M3.00765 2.78495C3.50173 3.18634 3.68708 3.15571 4.61482 3.09382L13.3613 2.56862C13.5469 2.56862 13.3926 2.38356 13.3307 2.3528L11.8781 1.30268C11.5998 1.0866 11.229 0.839134 10.5183 0.901032L2.049 1.51876C1.74013 1.54938 1.67843 1.70381 1.80145 1.82761L3.00765 2.78495ZM3.53278 4.8233V14.0262C3.53278 14.5208 3.77994 14.7058 4.33623 14.6752L13.9486 14.119C14.5052 14.0884 14.5672 13.7482 14.5672 13.3464V4.20532C14.5672 3.80419 14.4129 3.58786 14.0722 3.61874L4.02712 4.20532C3.65642 4.23647 3.53278 4.42191 3.53278 4.8233ZM13.0221 5.31697C13.0838 5.5952 13.0221 5.87317 12.7434 5.90443L12.2802 5.99671V12.7909C11.8781 13.007 11.5073 13.1305 11.1983 13.1305C10.7036 13.1305 10.5797 12.976 10.2091 12.513L7.17964 7.75708V12.3586L8.13828 12.5749C8.13828 12.5749 8.13828 13.1305 7.36486 13.1305L5.23268 13.2542C5.17074 13.1305 5.23268 12.822 5.44895 12.7601L6.00535 12.6059V6.52191L5.23281 6.46C5.17086 6.18178 5.32516 5.78064 5.75819 5.7495L8.04554 5.59531L11.1983 10.4132V6.15114L10.3945 6.05887C10.3328 5.71874 10.5797 5.47177 10.8888 5.44114L13.0221 5.31697ZM1.3379 0.684958L10.1473 0.0362255C11.2291 -0.056559 11.5074 0.00559274 12.1874 0.499515L14.9994 2.47596C15.4634 2.81583 15.6181 2.90837 15.6181 3.27887V14.119C15.6181 14.7983 15.3706 15.2001 14.5053 15.2616L4.27504 15.8794C3.62552 15.9104 3.31639 15.8178 2.97623 15.3851L0.905383 12.6983C0.534311 12.2038 0.380005 11.8338 0.380005 11.4009V1.76546C0.380005 1.20989 0.627554 0.746476 1.3379 0.684958Z" fill="#373539"/>
</g>
<defs>
<clipPath id="clip0_348_3938">
<rect width="16" height="16" fill="white"/>
</clipPath>
</defs>
</svg>
