<svg width="16" height="16" viewBox="0 0 16 16" fill="none" xmlns="http://www.w3.org/2000/svg">
<g clip-path="url(#clip0_1_858)">
<mask id="mask0_1_858" style="mask-type:luminance" maskUnits="userSpaceOnUse" x="0" y="0" width="16" height="16">
<path d="M16 0H0V16H16V0Z" fill="white"/>
</mask>
<g mask="url(#mask0_1_858)">
<path d="M15.2 14.8L3.60005 15.6L0.800049 11.6V1.20002L11.2 0.400024L15.2 3.20002V14.8Z" fill="white"/>
<path d="M3.00777 2.78495C3.50186 3.18634 3.6872 3.15571 4.61494 3.09382L13.3615 2.56862C13.547 2.56862 13.3927 2.38355 13.3308 2.3528L11.8782 1.30268C11.5999 1.0866 11.2291 0.839136 10.5184 0.901032L2.04912 1.51875C1.74026 1.54938 1.67855 1.70381 1.80158 1.82761L3.00777 2.78495ZM3.5329 4.8233V14.0262C3.5329 14.5208 3.78006 14.7058 4.33635 14.6752L13.9488 14.119C14.5053 14.0884 14.5673 13.7482 14.5673 13.3464V4.20532C14.5673 3.80419 14.413 3.58786 14.0723 3.61874L4.02724 4.20532C3.65654 4.23647 3.5329 4.4219 3.5329 4.8233ZM13.0222 5.31697C13.0839 5.5952 13.0222 5.87317 12.7436 5.90443L12.2804 5.99671V12.7909C11.8782 13.007 11.5074 13.1306 11.1984 13.1306C10.7037 13.1306 10.5798 12.976 10.2092 12.513L7.17976 7.75708V12.3586L8.13837 12.575C8.13837 12.575 8.13837 13.1306 7.36498 13.1306L5.2328 13.2542C5.17086 13.1306 5.2328 12.822 5.44906 12.7602L6.00547 12.6059V6.5219L5.23293 6.46C5.17098 6.18178 5.32528 5.78063 5.75831 5.7495L8.04565 5.59531L11.1984 10.4131V6.15114L10.3946 6.05887C10.3329 5.71874 10.5798 5.47177 10.8889 5.44114L13.0222 5.31697ZM1.33802 0.684958L10.1474 0.0362255C11.2292 -0.056559 11.5076 0.00559273 12.1875 0.499515L14.9996 2.47596C15.4636 2.81583 15.6182 2.90837 15.6182 3.27887V14.119C15.6182 14.7983 15.3708 15.2002 14.5055 15.2616L4.27516 15.8794C3.62564 15.9103 3.3165 15.8178 2.97635 15.3851L0.905504 12.6983C0.534432 12.2038 0.380127 11.8338 0.380127 11.4009V1.76546C0.380127 1.2099 0.627676 0.746476 1.33802 0.684958Z" fill="#373539"/>
</g>
</g>
<defs>
<clipPath id="clip0_1_858">
<rect width="16" height="16" fill="white"/>
</clipPath>
</defs>
</svg>
