<svg width="16" height="16" viewBox="0 0 16 16" fill="none" xmlns="http://www.w3.org/2000/svg">
<g clip-path="url(#clip0_1_852)">
<mask id="mask0_1_852" style="mask-type:luminance" maskUnits="userSpaceOnUse" x="0" y="0" width="16" height="16">
<path d="M16 0H0V16H16V0Z" fill="white"/>
</mask>
<g mask="url(#mask0_1_852)">
<path d="M3.00771 2.78495C3.5018 3.18634 3.68714 3.15571 4.61488 3.09382L13.3614 2.56862C13.5469 2.56862 13.3926 2.38355 13.3308 2.3528L11.8781 1.30268C11.5998 1.0866 11.229 0.839136 10.5183 0.901032L2.04906 1.51875C1.7402 1.54938 1.67849 1.70381 1.80152 1.82761L3.00771 2.78495ZM3.53284 4.8233V14.0262C3.53284 14.5208 3.78 14.7058 4.33629 14.6752L13.9487 14.119C14.5053 14.0884 14.5673 13.7482 14.5673 13.3464V4.20532C14.5673 3.80419 14.4129 3.58786 14.0722 3.61874L4.02718 4.20532C3.65648 4.23647 3.53284 4.4219 3.53284 4.8233ZM13.0221 5.31697C13.0838 5.5952 13.0221 5.87317 12.7435 5.90443L12.2803 5.99671V12.7909C11.8781 13.007 11.5073 13.1306 11.1984 13.1306C10.7037 13.1306 10.5797 12.976 10.2092 12.513L7.1797 7.75708V12.3586L8.13831 12.575C8.13831 12.575 8.13831 13.1306 7.36492 13.1306L5.23274 13.2542C5.17079 13.1306 5.23274 12.822 5.449 12.7602L6.00541 12.6059V6.5219L5.23287 6.46C5.17092 6.18178 5.32522 5.78063 5.75825 5.7495L8.04559 5.59531L11.1984 10.4131V6.15114L10.3945 6.05887C10.3329 5.71874 10.5797 5.47177 10.8889 5.44114L13.0221 5.31697ZM1.33796 0.684958L10.1473 0.0362255C11.2292 -0.056559 11.5075 0.00559273 12.1874 0.499515L14.9995 2.47596C15.4635 2.81583 15.6181 2.90837 15.6181 3.27887V14.119C15.6181 14.7983 15.3707 15.2002 14.5054 15.2616L4.2751 15.8794C3.62558 15.9103 3.31644 15.8178 2.97629 15.3851L0.905443 12.6983C0.534371 12.2038 0.380066 11.8338 0.380066 11.4009V1.76546C0.380066 1.2099 0.627615 0.746476 1.33796 0.684958Z" fill="#FF00FF"/>
</g>
</g>
<defs>
<clipPath id="clip0_1_852">
<rect width="16" height="16" fill="white"/>
</clipPath>
</defs>
</svg>
