<svg width="16" height="16" viewBox="0 0 16 16" fill="none" xmlns="http://www.w3.org/2000/svg">
<g clip-path="url(#clip0_1406_3393)">
<mask id="mask0_1406_3393" style="mask-type:luminance" maskUnits="userSpaceOnUse" x="0" y="0" width="16" height="16">
<path d="M16 0H0V16H16V0Z" fill="white"/>
</mask>
<g mask="url(#mask0_1406_3393)">
<path d="M15.1998 14.8L3.5998 15.6L0.799805 11.6V1.20002L11.1998 0.400024L15.1998 3.20002V14.8Z" fill="white"/>
<path d="M3.00752 2.78495C3.50161 3.18634 3.68696 3.15571 4.6147 3.09382L13.3612 2.56862C13.5468 2.56862 13.3924 2.38355 13.3306 2.3528L11.878 1.30268C11.5996 1.0866 11.2288 0.839136 10.5181 0.901032L2.04888 1.51875C1.74001 1.54938 1.67831 1.70381 1.80133 1.82761L3.00752 2.78495ZM3.53266 4.8233V14.0262C3.53266 14.5208 3.77982 14.7058 4.33611 14.6752L13.9485 14.119C14.5051 14.0884 14.5671 13.7482 14.5671 13.3464V4.20532C14.5671 3.80419 14.4128 3.58786 14.072 3.61874L4.027 4.20532C3.6563 4.23647 3.53266 4.4219 3.53266 4.8233ZM13.022 5.31697C13.0836 5.5952 13.022 5.87317 12.7433 5.90443L12.2801 5.99671V12.7909C11.878 13.007 11.5072 13.1306 11.1982 13.1306C10.7035 13.1306 10.5796 12.976 10.209 12.513L7.17952 7.75708V12.3586L8.13812 12.575C8.13812 12.575 8.13812 13.1306 7.36473 13.1306L5.23256 13.2542C5.17061 13.1306 5.23256 12.822 5.44882 12.7602L6.00523 12.6059V6.5219L5.23268 6.46C5.17074 6.18178 5.32504 5.78063 5.75807 5.7495L8.0454 5.59531L11.1982 10.4131V6.15114L10.3944 6.05887C10.3327 5.71874 10.5796 5.47177 10.8887 5.44114L13.022 5.31697ZM1.33777 0.684958L10.1472 0.0362255C11.229 -0.056559 11.5073 0.00559273 12.1872 0.499515L14.9993 2.47596C15.4633 2.81583 15.618 2.90837 15.618 3.27887V14.119C15.618 14.7983 15.3705 15.2002 14.5052 15.2616L4.27492 15.8794C3.6254 15.9103 3.31626 15.8178 2.97611 15.3851L0.90526 12.6983C0.534188 12.2038 0.379883 11.8338 0.379883 11.4009V1.76546C0.379883 1.2099 0.627432 0.746476 1.33777 0.684958Z" fill="#373539"/>
</g>
</g>
<defs>
<clipPath id="clip0_1406_3393">
<rect width="16" height="16" fill="white"/>
</clipPath>
</defs>
</svg>
