<svg width="16" height="16" viewBox="0 0 16 16" fill="none" xmlns="http://www.w3.org/2000/svg">
<g clip-path="url(#clip0_1406_3389)">
<mask id="mask0_1406_3389" style="mask-type:luminance" maskUnits="userSpaceOnUse" x="0" y="0" width="16" height="16">
<path d="M16 0H0V16H16V0Z" fill="white"/>
</mask>
<g mask="url(#mask0_1406_3389)">
<path fill-rule="evenodd" clip-rule="evenodd" d="M4.86122 13.0779C4.84935 13.0569 4.83878 13.0352 4.82957 13.0129C4.76565 12.865 4.74597 12.7018 4.77291 12.543H0.991928L6.6109 2.65478L8.4556 5.89753L8.99048 4.95103L7.38243 2.11822C7.33744 2.03656 7.06582 1.59998 6.59758 1.59998C6.38594 1.59998 6.08267 1.69162 5.83605 2.12488L0.143752 12.133C0.0954279 12.2197 -0.13953 12.6746 0.0937615 13.0779C0.200409 13.2612 0.427033 13.4795 0.926944 13.4795H5.69441C5.19783 13.4795 4.96787 13.2645 4.86122 13.0779Z" fill="#00C58E"/>
<path fill-rule="evenodd" clip-rule="evenodd" d="M15.8228 12.133L11.1453 3.89282C11.097 3.80618 10.827 3.36792 10.3571 3.36792C10.1455 3.36792 9.84224 3.4579 9.5956 3.89116L8.99072 4.95097L9.52896 5.89746L10.3622 4.42273L14.9896 12.5429H13.2299C13.2525 12.6772 13.2398 12.8149 13.1933 12.9428C13.1834 12.9711 13.1712 12.9984 13.1566 13.0245L13.1416 13.0545C12.905 13.4577 12.3934 13.4794 12.2934 13.4794H15.0462C15.1479 13.4794 15.6578 13.4577 15.8945 13.0545C15.9994 12.8712 16.0744 12.5629 15.8228 12.133Z" fill="#108775"/>
<path d="M13.1419 13.0545L13.1569 13.0246C13.1715 12.9985 13.1838 12.9712 13.1935 12.9429C13.2401 12.815 13.2527 12.6773 13.2303 12.543C13.2043 12.3982 13.1523 12.2593 13.0769 12.1331L9.53258 5.89755L8.99098 4.95105L8.45274 5.89755L4.91008 12.1331C4.8413 12.2609 4.79507 12.3995 4.77344 12.543C4.74493 12.7013 4.76287 12.8645 4.8251 13.0129C4.83431 13.0352 4.84489 13.0569 4.85676 13.0779C4.96341 13.2612 5.19003 13.4795 5.68995 13.4795H12.2887C12.3937 13.4795 12.9053 13.4578 13.1419 13.0545ZM8.99098 6.84404L12.2304 12.543H5.75327L8.99098 6.84404Z" fill="#2F495E"/>
</g>
</g>
<defs>
<clipPath id="clip0_1406_3389">
<rect width="16" height="16" fill="white"/>
</clipPath>
</defs>
</svg>
