<svg width="16" height="16" viewBox="0 0 16 16" fill="none" xmlns="http://www.w3.org/2000/svg">
<g clip-path="url(#clip0_1406_3390)">
<mask id="mask0_1406_3390" style="mask-type:luminance" maskUnits="userSpaceOnUse" x="0" y="0" width="16" height="16">
<path d="M16 0H0V16H16V0Z" fill="white"/>
</mask>
<g mask="url(#mask0_1406_3390)">
<path fill-rule="evenodd" clip-rule="evenodd" d="M5.68177 13.4795H0.926944C0.427033 13.4795 0.200409 13.2612 0.0937615 13.0779C-0.13953 12.6746 0.0954279 12.2197 0.143752 12.133L5.83605 2.12488C6.08267 1.69162 6.38594 1.59998 6.59758 1.59998C7.06582 1.59998 7.33744 2.03656 7.38243 2.11822L8.99048 4.95103L9.59552 3.89118C9.84216 3.45793 10.1454 3.36794 10.357 3.36794C10.827 3.36794 11.0969 3.8062 11.1452 3.89285L15.8227 12.133C16.0743 12.5629 15.9994 12.8712 15.8944 13.0545C15.6578 13.4577 15.1478 13.4794 15.0462 13.4794H12.2986C12.2949 13.4795 12.2916 13.4795 12.2886 13.4795H5.68985C5.68714 13.4795 5.68445 13.4795 5.68177 13.4795ZM12.3026 13.4794C12.3672 13.4786 12.5417 13.4689 12.7244 13.3973C12.5449 13.4676 12.3727 13.4782 12.3026 13.4794ZM13.2302 12.5429H14.9895L10.3621 4.42275L9.53064 5.89434L9.53248 5.89754L13.0768 12.1331C13.1522 12.2593 13.2042 12.3982 13.2302 12.5429ZM8.45416 5.89499L6.6109 2.65478L0.991928 12.543H4.77291C4.79454 12.3995 4.8412 12.2609 4.90998 12.1331L8.45264 5.89754L8.45416 5.89499ZM12.2303 12.543L8.99088 6.84404L5.75317 12.543H12.2303Z" fill="#FF00FF"/>
</g>
</g>
<defs>
<clipPath id="clip0_1406_3390">
<rect width="16" height="16" fill="white"/>
</clipPath>
</defs>
</svg>
