<svg width="16" height="16" viewBox="0 0 16 16" fill="none" xmlns="http://www.w3.org/2000/svg">
<g clip-path="url(#clip0_1_876)">
<mask id="mask0_1_876" style="mask-type:luminance" maskUnits="userSpaceOnUse" x="0" y="0" width="16" height="16">
<path d="M16 0H0V16H16V0Z" fill="white"/>
</mask>
<g mask="url(#mask0_1_876)">
<path fill-rule="evenodd" clip-rule="evenodd" d="M4.86122 13.0779C4.84935 13.0569 4.83878 13.0352 4.82957 13.0129C4.76565 12.865 4.74597 12.7018 4.77291 12.543H0.991928L6.6109 2.65481L8.4556 5.89756L8.99048 4.95106L7.38243 2.11825C7.33744 2.03659 7.06582 1.60001 6.59758 1.60001C6.38594 1.60001 6.08267 1.69165 5.83605 2.12491L0.143752 12.133C0.0954279 12.2198 -0.13953 12.6746 0.0937615 13.0779C0.200409 13.2612 0.427033 13.4795 0.926944 13.4795H5.69441C5.19783 13.4795 4.96787 13.2646 4.86122 13.0779Z" fill="#00C58E"/>
<path fill-rule="evenodd" clip-rule="evenodd" d="M15.8227 12.1331L11.1452 3.89288C11.0969 3.80624 10.827 3.36798 10.357 3.36798C10.1454 3.36798 9.84217 3.45796 9.59553 3.89122L8.99065 4.95103L9.52889 5.89752L10.3621 4.42279L14.9895 12.543H13.2298C13.2524 12.6772 13.2398 12.815 13.1932 12.9429C13.1834 12.9711 13.1711 12.9985 13.1566 13.0246L13.1415 13.0546C12.9049 13.4578 12.3934 13.4795 12.2934 13.4795H15.0462C15.1478 13.4795 15.6578 13.4578 15.8944 13.0546C15.9994 12.8712 16.0743 12.563 15.8227 12.1331Z" fill="#108775"/>
<path d="M13.1418 13.0546L13.1568 13.0246C13.1714 12.9985 13.1837 12.9712 13.1934 12.943C13.24 12.815 13.2526 12.6773 13.2302 12.543C13.2042 12.3982 13.1522 12.2594 13.0768 12.1331L9.53249 5.89758L8.99089 4.95108L8.45265 5.89758L4.90999 12.1331C4.84121 12.2609 4.79498 12.3995 4.77335 12.543C4.74484 12.7014 4.76278 12.8646 4.82501 13.013C4.83422 13.0352 4.8448 13.057 4.85667 13.0779C4.96332 13.2612 5.18994 13.4795 5.68985 13.4795H12.2886C12.3936 13.4795 12.9052 13.4578 13.1418 13.0546ZM8.99089 6.84407L12.2303 12.543H5.75317L8.99089 6.84407Z" fill="#2F495E"/>
</g>
</g>
<defs>
<clipPath id="clip0_1_876">
<rect width="16" height="16" fill="white"/>
</clipPath>
</defs>
</svg>
