<svg width="16" height="16" viewBox="0 0 16 16" fill="none" xmlns="http://www.w3.org/2000/svg">
<g clip-path="url(#clip0_348_3744)">
<path d="M8.0013 13.3333C7.28728 13.3333 6.66862 13.1787 6.14533 12.8693C5.62393 12.5612 5.20706 12.1247 4.94216 11.6095C4.66051 11.0734 4.45435 10.5064 4.32864 9.92239C4.19527 9.28903 4.1303 8.6451 4.13467 7.99996C4.13467 7.48919 4.16818 7.00088 4.23585 6.53392C4.30287 6.06755 4.42724 5.59347 4.60834 5.11229C4.78942 4.6311 5.02271 4.21392 5.30691 3.86014C5.60279 3.49771 5.98535 3.20269 6.42502 2.99793C6.88644 2.77689 7.41104 2.66666 8.0013 2.66666C8.71534 2.66666 9.33403 2.82133 9.85736 3.13066C10.3787 3.43877 10.7956 3.87528 11.0605 4.39051C11.3402 4.92088 11.5445 5.48326 11.674 6.07762C11.8029 6.6714 11.868 7.31258 11.868 7.99996C11.868 8.51081 11.8345 8.99909 11.7668 9.46606C11.6947 9.95088 11.5673 10.4274 11.3866 10.8877C11.1997 11.3689 10.9677 11.7861 10.688 12.1398C10.4083 12.4936 10.0384 12.781 9.57764 13.0021C9.11687 13.2231 8.59163 13.3333 8.0013 13.3333ZM9.36626 9.41197C9.73605 9.04268 9.94178 8.53169 9.93466 7.99996C9.93466 7.45068 9.74973 6.97999 9.38044 6.58799C9.01051 6.19599 8.55108 5.99999 8.0013 5.99999C7.45159 5.99999 6.99213 6.19599 6.62222 6.58799C6.25999 6.9614 6.05995 7.47106 6.068 7.99996C6.068 8.54932 6.25295 9.01996 6.62222 9.41197C6.99213 9.80397 7.45159 9.99997 8.0013 9.99997C8.55108 9.99997 9.00599 9.80397 9.36626 9.41197ZM8.0013 16C12.2721 16 15.7347 12.418 15.7347 7.99996C15.7347 3.582 12.2721 0 8.0013 0C3.7306 0 0.268005 3.582 0.268005 7.99996C0.268005 12.418 3.7306 16 8.0013 16Z" fill="#FF00FF"/>
</g>
<defs>
<clipPath id="clip0_348_3744">
<rect width="16" height="16" fill="white"/>
</clipPath>
</defs>
</svg>
