<svg width="16" height="16" viewBox="0 0 16 16" fill="none" xmlns="http://www.w3.org/2000/svg">
<g clip-path="url(#clip0_348_3733)">
<path d="M8.00124 13.3333C7.28722 13.3333 6.66856 13.1787 6.14527 12.8693C5.62387 12.5612 5.20699 12.1247 4.9421 11.6095C4.66045 11.0734 4.45429 10.5064 4.32858 9.92239C4.19521 9.28903 4.13024 8.6451 4.13461 7.99996C4.13461 7.48919 4.16812 7.00088 4.23579 6.53392C4.3028 6.06755 4.42718 5.59347 4.60828 5.11229C4.78936 4.6311 5.02265 4.21392 5.30685 3.86014C5.60273 3.49771 5.98529 3.20269 6.42496 2.99793C6.88638 2.77689 7.41097 2.66666 8.00124 2.66666C8.71528 2.66666 9.33397 2.82133 9.8573 3.13066C10.3787 3.43877 10.7956 3.87528 11.0605 4.39051C11.3401 4.92088 11.5444 5.48326 11.6739 6.07762C11.8029 6.6714 11.868 7.31258 11.868 7.99996C11.868 8.51081 11.8345 8.99909 11.7667 9.46606C11.6947 9.95088 11.5672 10.4274 11.3865 10.8877C11.1996 11.3689 10.9676 11.7861 10.6879 12.1398C10.4083 12.4936 10.0383 12.781 9.57758 13.0021C9.11681 13.2231 8.59157 13.3333 8.00124 13.3333ZM9.3662 9.41197C9.73599 9.04268 9.94172 8.53169 9.9346 7.99996C9.9346 7.45068 9.74967 6.97999 9.38037 6.58799C9.01045 6.19599 8.55102 5.99999 8.00124 5.99999C7.45153 5.99999 6.99207 6.19599 6.62216 6.58799C6.25992 6.9614 6.05989 7.47106 6.06794 7.99996C6.06794 8.54932 6.25289 9.01996 6.62216 9.41197C6.99207 9.80397 7.45153 9.99997 8.00124 9.99997C8.55102 9.99997 9.00593 9.80397 9.3662 9.41197ZM8.00124 16C12.272 16 15.7346 12.418 15.7346 7.99996C15.7346 3.582 12.272 0 8.00124 0C3.73054 0 0.267944 3.582 0.267944 7.99996C0.267944 12.418 3.73054 16 8.00124 16Z" fill="black"/>
</g>
<defs>
<clipPath id="clip0_348_3733">
<rect width="16" height="16" fill="white"/>
</clipPath>
</defs>
</svg>
