<svg width="16" height="16" viewBox="0 0 16 16" fill="none" xmlns="http://www.w3.org/2000/svg">
<g clip-path="url(#clip0_1406_3388)">
<path d="M8.00138 13.3334C7.28735 13.3334 6.66868 13.1786 6.14539 12.8694C5.62399 12.5612 5.20711 12.1246 4.94222 11.6094C4.66058 11.0734 4.45441 10.5065 4.32871 9.9224C4.19533 9.28904 4.13036 8.64512 4.13473 7.99997C4.13473 7.48919 4.16824 7.00089 4.23591 6.53392C4.30293 6.06755 4.42731 5.59347 4.60839 5.11229C4.78948 4.6311 5.02277 4.21392 5.30697 3.86014C5.60285 3.4977 5.98541 3.2027 6.42508 2.99793C6.88651 2.77689 7.4111 2.66666 8.00138 2.66666C8.71538 2.66666 9.3341 2.82134 9.85738 3.13066C10.3787 3.43877 10.7957 3.87528 11.0606 4.39051C11.3403 4.92088 11.5446 5.48326 11.674 6.07762C11.803 6.6714 11.8681 7.31258 11.8681 7.99997C11.8681 8.5108 11.8346 8.99912 11.7669 9.46608C11.6948 9.95088 11.5673 10.4274 11.3867 10.8877C11.1997 11.3689 10.9678 11.7861 10.688 12.1398C10.4084 12.4936 10.0385 12.781 9.5777 13.0021C9.1169 13.2231 8.5917 13.3334 8.00138 13.3334ZM9.36634 9.412C9.7361 9.04264 9.94186 8.53168 9.93474 7.99997C9.93474 7.45068 9.74978 6.97999 9.3805 6.58799C9.01058 6.19599 8.55114 5.99999 8.00138 5.99999C7.45165 5.99999 6.99219 6.19599 6.62228 6.58799C6.26005 6.9614 6.06001 7.47106 6.06806 7.99997C6.06806 8.54936 6.25302 9.02 6.62228 9.412C6.99219 9.804 7.45165 10 8.00138 10C8.55114 10 9.00602 9.804 9.36634 9.412ZM8.00138 16C12.2722 16 15.7347 12.418 15.7347 7.99997C15.7347 3.58199 12.2722 0 8.00138 0C3.73067 0 0.268066 3.58199 0.268066 7.99997C0.268066 12.418 3.73067 16 8.00138 16Z" fill="#FF00FF"/>
</g>
<defs>
<clipPath id="clip0_1406_3388">
<rect width="16" height="16" fill="white"/>
</clipPath>
</defs>
</svg>
