<svg width="16" height="16" viewBox="0 0 16 16" fill="none" xmlns="http://www.w3.org/2000/svg">
<g clip-path="url(#clip0_1_886)">
<path d="M8.00129 13.3334C7.28725 13.3334 6.66859 13.1786 6.1453 12.8694C5.62389 12.5612 5.20702 12.1246 4.94213 11.6094C4.66049 11.0734 4.45432 10.5065 4.32861 9.9224C4.19524 9.28904 4.13027 8.64512 4.13464 7.99997C4.13464 7.48919 4.16815 7.00089 4.23581 6.53392C4.30284 6.06755 4.42721 5.59347 4.6083 5.11229C4.78939 4.6311 5.02268 4.21392 5.30688 3.86014C5.60276 3.4977 5.98532 3.2027 6.42499 2.99793C6.88641 2.77689 7.41101 2.66666 8.00129 2.66666C8.71529 2.66666 9.33401 2.82134 9.85729 3.13066C10.3786 3.43877 10.7956 3.87528 11.0605 4.39051C11.3402 4.92088 11.5445 5.48326 11.6739 6.07762C11.8029 6.6714 11.868 7.31258 11.868 7.99997C11.868 8.5108 11.8345 8.99912 11.7668 9.46608C11.6947 9.95088 11.5672 10.4274 11.3866 10.8877C11.1996 11.3689 10.9677 11.7861 10.6879 12.1398C10.4083 12.4936 10.0384 12.781 9.57761 13.0021C9.11681 13.2231 8.59161 13.3334 8.00129 13.3334ZM9.36625 9.412C9.73601 9.04264 9.94177 8.53168 9.93465 7.99997C9.93465 7.45068 9.74969 6.97999 9.38041 6.58799C9.01049 6.19599 8.55105 5.99999 8.00129 5.99999C7.45156 5.99999 6.9921 6.19599 6.62219 6.58799C6.25996 6.9614 6.05992 7.47106 6.06797 7.99997C6.06797 8.54936 6.25293 9.02 6.62219 9.412C6.9921 9.804 7.45156 10 8.00129 10C8.55105 10 9.00593 9.804 9.36625 9.412ZM8.00129 16C12.2721 16 15.7346 12.418 15.7346 7.99997C15.7346 3.58199 12.2721 0 8.00129 0C3.73057 0 0.267975 3.58199 0.267975 7.99997C0.267975 12.418 3.73057 16 8.00129 16Z" fill="black"/>
</g>
<defs>
<clipPath id="clip0_1_886">
<rect width="16" height="16" fill="white"/>
</clipPath>
</defs>
</svg>
