<svg width="16" height="16" viewBox="0 0 16 16" fill="none" xmlns="http://www.w3.org/2000/svg">
<path d="M6.17993 5.865L9.39993 7.795L11.315 7C11.7054 6.83315 12.1254 6.74643 12.5499 6.745H12.7599C12.5295 5.84633 12.043 5.03393 11.3596 4.40649C10.6762 3.77905 9.82529 3.36358 8.91025 3.21055C7.99518 3.05751 7.05539 3.1735 6.20501 3.54442C5.35464 3.91534 4.63028 4.52523 4.11993 5.3H4.16993C4.87933 5.29855 5.57519 5.49415 6.17993 5.865Z" fill="#0364B8"/>
<path d="M6.18005 5.86498C5.57872 5.49416 4.88653 5.29689 4.18005 5.29498H4.13005C3.43804 5.30762 2.76236 5.50729 2.17464 5.87283C1.58692 6.23837 1.10908 6.75614 0.791781 7.37125C0.474488 7.98635 0.329573 8.67583 0.372402 9.36663C0.415231 10.0574 0.644208 10.7238 1.03505 11.295L3.87505 10.1L5.13505 9.56999L7.94005 8.38999L9.41001 7.77498L6.18005 5.86498Z" fill="#0F78D4"/>
<path d="M12.76 6.73999H12.55C12.1254 6.74142 11.7054 6.82813 11.315 6.99499L9.39999 7.79499L9.95503 8.12496L11.775 9.21496L12.57 9.71496L15.29 11.34C15.5359 10.8814 15.6631 10.3686 15.6599 9.84832C15.6567 9.328 15.5232 8.8168 15.2716 8.36136C15.02 7.90591 14.6583 7.52073 14.2196 7.24101C13.7809 6.96128 13.279 6.79591 12.76 6.75999V6.73999Z" fill="#1490DF"/>
<path d="M12.57 9.69503L11.775 9.19503L9.95503 8.10495L9.39999 7.77499L7.92999 8.38999L5.12499 9.56999L3.86499 10.1L1.02499 11.295C1.37784 11.802 1.84822 12.216 2.39591 12.5016C2.9436 12.7872 3.55231 12.9359 4.16999 12.935H12.55C13.1119 12.9359 13.6635 12.7843 14.1461 12.4964C14.6286 12.2084 15.024 11.795 15.29 11.3L12.57 9.69503Z" fill="#28A8EA"/>
<path style="mix-blend-mode:soft-light" opacity="0.5" d="M12.7599 6.74C12.5294 5.84132 12.043 5.02893 11.3596 4.40149C10.6762 3.77405 9.82529 3.35858 8.91025 3.20554C7.99517 3.05251 7.05538 3.16849 6.20501 3.53941C5.35464 3.91033 4.63028 4.52022 4.11993 5.295C3.61697 5.29828 3.11957 5.4006 2.65616 5.5961C2.19273 5.79161 1.77237 6.07649 1.41904 6.43445C0.70546 7.15741 0.308301 8.13424 0.314932 9.15001C0.321562 10.1658 0.731437 11.1373 1.45439 11.8509C2.17734 12.5645 3.15415 12.9616 4.16993 12.955H12.5499C13.363 12.9649 14.1477 12.6559 14.7358 12.0942C15.3238 11.5326 15.6685 10.763 15.696 9.95025C15.7234 9.13753 15.4315 8.3464 14.8826 7.74632C14.3338 7.14626 13.5718 6.78501 12.7599 6.74Z" fill="url(#paint0_linear_1_888)"/>
<defs>
<linearGradient id="paint0_linear_1_888" x1="4.94993" y1="4.295" x2="10.1799" y2="13.36" gradientUnits="userSpaceOnUse">
<stop stop-color="white" stop-opacity="0.5"/>
<stop offset="1" stop-opacity="0.7"/>
</linearGradient>
</defs>
</svg>
