<svg width="16" height="16" viewBox="0 0 16 16" fill="none" xmlns="http://www.w3.org/2000/svg">
<path d="M6.17987 5.86497L9.39987 7.79497L11.3149 6.99997C11.7053 6.83312 12.1253 6.7464 12.5499 6.74497H12.7599C12.5294 5.8463 12.0429 5.0339 11.3596 4.40646C10.6761 3.77902 9.82523 3.36355 8.91019 3.21052C7.99512 3.05748 7.05533 3.17347 6.20495 3.54439C5.35458 3.91531 4.63022 4.5252 4.11987 5.29997H4.16987C4.87927 5.29852 5.57513 5.49412 6.17987 5.86497Z" fill="#0364B8"/>
<path d="M6.17999 5.86498C5.57866 5.49416 4.88647 5.29689 4.17999 5.29498H4.12999C3.43798 5.30762 2.7623 5.50729 2.17458 5.87283C1.58686 6.23837 1.10902 6.75614 0.79172 7.37125C0.474427 7.98635 0.329512 8.67583 0.372341 9.36663C0.41517 10.0574 0.644146 10.7238 1.03499 11.295L3.87499 10.1L5.13499 9.56999L7.93999 8.38999L9.40995 7.77498L6.17999 5.86498Z" fill="#0F78D4"/>
<path d="M12.7599 6.73999H12.5499C12.1253 6.74142 11.7053 6.82813 11.3149 6.99499L9.3999 7.79499L9.95494 8.12496L11.7749 9.21496L12.5699 9.71496L15.2899 11.34C15.5358 10.8814 15.663 10.3686 15.6598 9.84832C15.6566 9.328 15.5231 8.8168 15.2715 8.36136C15.0199 7.90591 14.6582 7.52073 14.2195 7.24101C13.7808 6.96128 13.2789 6.79591 12.7599 6.75999V6.73999Z" fill="#1490DF"/>
<path d="M12.5699 9.69506L11.7749 9.19506L9.95494 8.10498L9.3999 7.77502L7.9299 8.39002L5.1249 9.57002L3.8649 10.1L1.0249 11.2951C1.37775 11.802 1.84813 12.216 2.39581 12.5016C2.94351 12.7872 3.55222 12.9359 4.1699 12.935H12.5499C13.1118 12.9359 13.6634 12.7843 14.146 12.4964C14.6285 12.2084 15.0239 11.795 15.2899 11.3L12.5699 9.69506Z" fill="#28A8EA"/>
<path style="mix-blend-mode:soft-light" opacity="0.5" d="M12.76 6.73997C12.5295 5.84129 12.0431 5.02889 11.3597 4.40146C10.6763 3.77402 9.82538 3.35855 8.91034 3.20551C7.99527 3.05248 7.05547 3.16846 6.20511 3.53938C5.35473 3.9103 4.63037 4.52019 4.12003 5.29497C3.61706 5.29825 3.11967 5.40057 2.65625 5.59607C2.19283 5.79158 1.77246 6.07645 1.41913 6.43442C0.705551 7.15737 0.308393 8.13421 0.315023 9.14997C0.321654 10.1657 0.731529 11.1373 1.45448 11.8509C2.17743 12.5645 3.15424 12.9616 4.17003 12.9549H12.55C13.3631 12.9649 14.1478 12.6559 14.7359 12.0942C15.3239 11.5325 15.6686 10.7629 15.6961 9.95022C15.7235 9.1375 15.4316 8.34637 14.8827 7.74629C14.3339 7.14623 13.5719 6.78498 12.76 6.73997Z" fill="url(#paint0_linear_1406_3386)"/>
<defs>
<linearGradient id="paint0_linear_1406_3386" x1="4.95003" y1="4.29497" x2="10.18" y2="13.36" gradientUnits="userSpaceOnUse">
<stop stop-color="white" stop-opacity="0.5"/>
<stop offset="1" stop-opacity="0.7"/>
</linearGradient>
</defs>
</svg>
