<svg width="16" height="16" viewBox="0 0 16 16" fill="none" xmlns="http://www.w3.org/2000/svg">
<g clip-path="url(#clip0_348_3683)">
<path d="M0 0.888889C0 0.39797 0.397969 0 0.888889 0H15.1111C15.602 0 16 0.397969 16 0.888889V15.1111C16 15.602 15.602 16 15.1111 16H0.888889C0.39797 16 0 15.602 0 15.1111V0.888889Z" fill="#7451EB"/>
<path fill-rule="evenodd" clip-rule="evenodd" d="M8.36546 2.1689C10.824 2.80924 12.6375 4.99868 12.8354 7.56557C12.9709 9.32279 12.374 10.9327 11.1112 12.2159C9.89124 13.4559 8.58569 13.9951 6.79846 13.9975C5.62013 13.999 4.6638 13.7487 3.83213 13.2209C3.35424 12.9178 3.3108 12.8583 3.44324 12.6896C3.52524 12.5851 3.98358 12.0378 4.46169 11.4733L5.33102 10.4471L5.73946 10.6222C6.29269 10.8595 7.36702 10.855 7.95435 10.6132C8.54024 10.372 9.33957 9.50202 9.5158 8.9139C9.84924 7.80102 9.51224 6.59779 8.66391 5.87157C7.90324 5.22046 6.69669 5.02546 5.75669 5.40157C5.50846 5.5009 5.29035 5.56346 5.27213 5.54046C5.25391 5.51757 4.80591 4.98424 4.2768 4.35524C3.74758 3.72624 3.31458 3.18946 3.31458 3.16235C3.31458 3.01757 4.29146 2.5019 5.0008 2.27224C5.97991 1.95524 7.37991 1.91224 8.36546 2.1689Z" fill="white"/>
</g>
<defs>
<clipPath id="clip0_348_3683">
<rect width="16" height="16" fill="white"/>
</clipPath>
</defs>
</svg>
