<svg width="16" height="16" viewBox="0 0 16 16" fill="none" xmlns="http://www.w3.org/2000/svg">
<g clip-path="url(#clip0_1406_3384)">
<mask id="mask0_1406_3384" style="mask-type:luminance" maskUnits="userSpaceOnUse" x="0" y="0" width="16" height="16">
<path d="M16 0H0V16H16V0Z" fill="white"/>
</mask>
<g mask="url(#mask0_1406_3384)">
<path d="M5.91377 1.7252C5.17833 2.4579 4.64991 3.37218 4.38216 4.37518C4.8638 4.24699 5.35963 4.17978 5.85801 4.17512L4.1821 5.84612C4.17743 6.21554 4.20817 6.58454 4.27393 6.94809L6.95507 4.26695C7.29922 4.32815 7.63727 4.41979 7.96521 4.54081C8.06376 4.38821 8.17808 4.2464 8.30632 4.11773C8.55752 3.86751 8.85856 3.67292 9.18984 3.54659C9.52112 3.42026 9.87528 3.36502 10.2293 3.38445C10.5834 3.40388 10.9294 3.49754 11.2448 3.65936C11.5603 3.82118 11.8382 4.04754 12.0606 4.32374C12.2829 4.59994 12.4446 4.9198 12.5353 5.26258C12.626 5.60534 12.6435 5.96335 12.5869 6.31336C12.5302 6.66336 12.4006 6.99754 12.2064 7.29419C12.0122 7.59085 11.7578 7.84335 11.4597 8.03528C11.5807 8.36328 11.6724 8.70128 11.7336 9.04544L9.0524 11.7266C9.416 11.7923 9.78496 11.8231 10.1544 11.8184L11.8254 10.1474C11.8207 10.6458 11.7535 11.1416 11.6254 11.6233C12.5005 11.3877 13.3098 10.9541 13.9908 10.3559C14.6717 9.75784 15.206 9.0112 15.5525 8.17368C15.899 7.33618 16.0482 6.43024 15.9889 5.52586C15.9295 4.62147 15.663 3.74284 15.21 2.95783C14.757 2.17282 14.1297 1.50244 13.3764 0.998472C12.6231 0.494503 11.7641 0.170438 10.8656 0.0513062C9.96712 -0.0678251 9.05328 0.0211662 8.19464 0.311406C7.33607 0.601646 6.55568 1.08537 5.91377 1.7252Z" fill="#FF00FF"/>
<path d="M7.81076 6.99565C7.66842 6.69696 7.58597 6.37329 7.56806 6.04291L6.04793 7.56304L4.89185 8.71913C5.02842 8.97329 5.18411 9.21665 5.35756 9.44721L6.9974 7.80737L7.81076 6.99565ZM9.95733 8.43873C9.62693 8.42081 9.30325 8.33833 9.00453 8.19601L8.19941 8.99953L6.55956 10.6394C6.79012 10.8128 7.03351 10.9685 7.28765 11.1051L8.44541 9.94737L9.95733 8.43873Z" fill="#FF00FF"/>
<path d="M7.56791 6.04289C7.53917 5.51293 7.67802 4.98739 7.96475 4.54079C7.63681 4.41978 7.29877 4.32813 6.95461 4.26694L4.27347 6.94808C4.33467 7.29223 4.42631 7.63028 4.54733 7.95821C4.64285 8.22013 4.75796 8.47445 4.89169 8.71909L7.56791 6.04289ZM9.95712 8.43869L7.28094 11.1084C7.52344 11.2418 7.77559 11.3569 8.03528 11.4527C8.36296 11.5745 8.70104 11.6661 9.04544 11.7265L11.7331 9.04541C11.6719 8.70125 11.5802 8.36325 11.4593 8.03525C11.0134 8.32429 10.4878 8.46549 9.95712 8.43869ZM11.6249 11.6184C11.753 11.1367 11.8202 10.6409 11.825 10.1425L10.1539 11.8184C10.6507 11.8141 11.145 11.7469 11.6249 11.6184ZM4.3817 4.37517C4.2528 4.85667 4.18558 5.35259 4.18164 5.85102L5.85264 4.17511C5.3559 4.18017 4.86174 4.24738 4.3817 4.37517ZM9.0044 8.18941C8.48248 7.9386 8.06144 7.51757 7.81061 6.99563L5.35085 9.44717C5.69447 9.90141 6.10146 10.304 6.55941 10.6426L9.0044 8.18941Z" fill="#FF00FF"/>
<path d="M4.38165 4.37518C3.13452 4.71011 2.03121 5.44386 1.24007 6.46446C0.448942 7.48506 0.0134314 8.73648 0 10.0277L4.18159 5.84612C4.18594 5.34933 4.25316 4.85509 4.38165 4.37518ZM5.9723 16C7.26354 15.9866 8.51496 15.551 9.53552 14.7599C10.5562 13.9688 11.2899 12.8655 11.6248 11.6183C11.1434 11.7473 10.6474 11.8145 10.149 11.8184L5.9723 16ZM4.12419 8.29928C4.25252 8.17072 4.39437 8.05632 4.54727 7.95823C4.42626 7.63029 4.33462 7.29225 4.27342 6.94809L0.0918312 11.1297C0.201175 11.7494 0.409938 12.3475 0.71005 12.9007L3.3879 10.2229C3.36828 9.86848 3.42372 9.51392 3.5506 9.18248C3.67749 8.85096 3.87295 8.55 4.12419 8.29928ZM8.0352 11.4527C7.79374 11.8287 7.45699 12.1341 7.05922 12.3378C6.66144 12.5414 6.21682 12.636 5.77059 12.6121L3.0993 15.2899C3.65249 15.5901 4.25054 15.7988 4.87032 15.9082L9.05192 11.7266C8.70536 11.6666 8.36504 11.5749 8.0352 11.4527ZM4.12419 11.8824C3.92154 11.6786 3.75517 11.4418 3.63224 11.1822L1.17249 13.6419C1.34198 13.8683 1.52778 14.0821 1.72839 14.2814C1.92814 14.4817 2.14185 14.6674 2.36793 14.8374L4.82769 12.3776C4.56658 12.254 4.32862 12.0865 4.12419 11.8824Z" fill="#FF00FF"/>
</g>
</g>
<defs>
<clipPath id="clip0_1406_3384">
<rect width="16" height="16" fill="white"/>
</clipPath>
</defs>
</svg>
