<svg width="16" height="16" viewBox="0 0 16 16" fill="none" xmlns="http://www.w3.org/2000/svg">
<g clip-path="url(#clip0_348_3740)">
<path d="M5.32848 8.49181V10.3536C6.74907 10.352 8.111 9.80422 9.11551 8.83051C10.12 7.8568 10.6851 6.53667 10.6868 5.15967H8.76606C8.76494 6.04305 8.40237 6.88998 7.75798 7.51462C7.11354 8.13929 6.23984 8.49069 5.32848 8.49181Z" fill="#3BE081"/>
<path d="M5.32793 13.6201C4.42313 13.6201 3.5554 13.2717 2.91562 12.6515C2.27583 12.0314 1.91641 11.1903 1.91641 10.3132C1.91641 9.43617 2.27583 8.59509 2.91562 7.9749C3.5554 7.35475 4.42313 7.00633 5.32793 7.00633V5.15821C4.62924 5.15725 3.93722 5.28968 3.29135 5.54797C2.64548 5.80621 2.05841 6.1853 1.56367 6.66348C1.06892 7.14166 0.676193 7.70967 0.4079 8.33497C0.139606 8.96031 0.00100354 9.63074 5.42939e-06 10.308C-0.000992678 10.9852 0.135633 11.656 0.402083 12.2821C0.668534 12.9081 1.05959 13.4772 1.55292 13.9568C2.04625 14.4363 2.6322 14.817 3.27731 15.0771C3.92242 15.3371 4.61404 15.4715 5.31274 15.4725H5.32793V13.6201Z" fill="#0037FF"/>
<path d="M5.32848 13.62V15.4681C6.73952 15.4681 8.09278 14.9248 9.09052 13.9577C10.0883 12.9905 10.6488 11.6788 10.6488 10.311H8.74003C8.73945 11.1881 8.37992 12.0291 7.7403 12.6495C7.10072 13.2698 6.23332 13.6189 5.32848 13.62Z" fill="#00CCFF"/>
<path d="M5.32848 3.30898V5.15711C6.73952 5.15711 8.09278 4.61379 9.09052 3.64664C10.0883 2.67949 10.6488 1.36775 10.6488 0H8.74003C8.73945 0.877062 8.37992 1.71807 7.7403 2.33844C7.10072 2.95882 6.23332 3.30787 5.32848 3.30898Z" fill="#861DFF"/>
<path d="M10.6797 3.30898V5.15711C12.0907 5.15711 13.4439 4.61379 14.4417 3.64664C15.4395 2.67949 16 1.36775 16 0H14.0923C14.0917 0.877241 13.732 1.71841 13.0922 2.33882C12.4523 2.95922 11.5847 3.30814 10.6797 3.30898Z" fill="#FF8110"/>
</g>
<defs>
<clipPath id="clip0_348_3740">
<rect width="16" height="16" fill="white"/>
</clipPath>
</defs>
</svg>
