<svg width="16" height="16" viewBox="0 0 16 16" fill="none" xmlns="http://www.w3.org/2000/svg">
<g clip-path="url(#clip0_1406_3380)">
<path d="M8 16C12.4183 16 16 12.4183 16 8C16 3.58172 12.4183 0 8 0C3.58172 0 0 3.58172 0 8C0 12.4183 3.58172 16 8 16Z" fill="#FF5C48"/>
<path fill-rule="evenodd" clip-rule="evenodd" d="M9.23917 3.80005C7.50643 3.80005 6.09668 5.21107 6.09668 6.94555C6.09668 8.67479 7.50643 10.0817 9.23917 10.0817C10.9666 10.0817 12.372 8.67479 12.372 6.94555C12.372 5.21107 10.9666 3.80005 9.23917 3.80005Z" fill="white"/>
<path fill-rule="evenodd" clip-rule="evenodd" d="M3.64453 12.1777H5.17889V3.79999H3.64453V12.1777Z" fill="#002949"/>
</g>
<defs>
<clipPath id="clip0_1406_3380">
<rect width="16" height="16" fill="white"/>
</clipPath>
</defs>
</svg>
