<svg width="16" height="16" viewBox="0 0 16 16" fill="none" xmlns="http://www.w3.org/2000/svg">
<path d="M13.2957 4.33316C13.2813 4.42555 13.2647 4.52 13.2461 4.61703C12.6077 7.89497 10.4234 9.02737 7.63375 9.02737H6.21336C5.8722 9.02737 5.58471 9.27513 5.53155 9.61161L4.80433 14.2238L4.59839 15.5311C4.59019 15.583 4.59332 15.636 4.60758 15.6865C4.62183 15.737 4.64686 15.7838 4.68095 15.8238C4.71504 15.8638 4.75739 15.8958 4.80506 15.9178C4.85273 15.9398 4.9046 15.9512 4.95711 15.9512H7.47633C7.77465 15.9512 8.02807 15.7345 8.07503 15.4402L8.09983 15.3122L8.57415 12.3022L8.60463 12.137C8.65103 11.8418 8.90495 11.625 9.20327 11.625H9.58007C12.0209 11.625 13.9316 10.6341 14.49 7.76646C14.7233 6.56852 14.6025 5.56826 13.9853 4.86478C13.7896 4.64716 13.5559 4.46701 13.2957 4.33316Z" fill="#179BD7"/>
<path d="M12.6279 4.06681C12.4241 4.00784 12.2166 3.96181 12.0069 3.92901C11.5927 3.86533 11.174 3.83479 10.7549 3.83765H6.96026C6.81585 3.83753 6.67617 3.88909 6.56646 3.983C6.45674 4.0769 6.38425 4.20695 6.36207 4.34965L5.55484 9.46241L5.53162 9.61161C5.55677 9.44881 5.63934 9.30041 5.76439 9.19329C5.88945 9.08609 6.04873 9.02721 6.21342 9.02729H7.63381C10.4235 9.02729 12.6077 7.89442 13.2462 4.61701C13.2653 4.51997 13.2813 4.42552 13.2957 4.33313C13.1273 4.24479 12.9517 4.17072 12.7709 4.11171C12.7234 4.09598 12.6757 4.08101 12.6279 4.06681Z" fill="#222D65"/>
<path d="M6.36204 4.34966C6.38403 4.20692 6.45649 4.0768 6.56626 3.98294C6.67603 3.88909 6.81582 3.83772 6.96023 3.83817H10.7548C11.2043 3.83817 11.6239 3.86759 12.007 3.92953C12.2661 3.97026 12.5217 4.03117 12.7713 4.11172C12.9597 4.17417 13.1347 4.24798 13.2963 4.33314C13.4862 3.12178 13.2947 2.29701 12.6397 1.55017C11.9176 0.727977 10.6144 0.375977 8.94683 0.375977H4.10553C3.76488 0.375977 3.4743 0.623718 3.42166 0.960752L1.40514 13.7427C1.39575 13.802 1.39932 13.8627 1.41562 13.9206C1.43191 13.9784 1.46054 14.032 1.49953 14.0777C1.53852 14.1234 1.58695 14.1602 1.64149 14.1854C1.69603 14.2106 1.75538 14.2236 1.81547 14.2237H4.80437L5.55482 9.4624L6.36204 4.34966Z" fill="#253B80"/>
</svg>
