<svg width="16" height="16" viewBox="0 0 16 16" fill="none" xmlns="http://www.w3.org/2000/svg">
<path opacity="0.5" d="M13.2955 4.33313C13.2811 4.42552 13.2645 4.51997 13.246 4.617C12.6075 7.89494 10.4232 9.02734 7.63356 9.02734H6.21318C5.87202 9.02734 5.58453 9.2751 5.53137 9.61158L4.80415 14.2237L4.59821 15.5311C4.59001 15.5829 4.59314 15.636 4.6074 15.6865C4.62164 15.737 4.64668 15.7838 4.68077 15.8238C4.71486 15.8637 4.7572 15.8957 4.80488 15.9177C4.85255 15.9397 4.90442 15.9512 4.95692 15.9512H7.47615C7.77447 15.9512 8.02788 15.7345 8.07484 15.4402L8.09964 15.3122L8.57396 12.3021L8.60444 12.137C8.65084 11.8418 8.90476 11.625 9.20308 11.625H9.57988C12.0207 11.625 13.9314 10.6341 14.4898 7.76643C14.7231 6.56849 14.6024 5.56823 13.9851 4.86475C13.7894 4.64713 13.5557 4.46698 13.2955 4.33313Z" fill="#FF00FF"/>
<path opacity="0.75" d="M12.628 4.06681C12.4242 4.00784 12.2167 3.96181 12.0071 3.92901C11.5928 3.86533 11.1741 3.83479 10.755 3.83765H6.96039C6.81597 3.83753 6.67629 3.88909 6.56658 3.983C6.45687 4.0769 6.38437 4.20695 6.36219 4.34965L5.55496 9.46241L5.53174 9.61161C5.55689 9.44881 5.63946 9.30041 5.76451 9.19329C5.88957 9.08609 6.04885 9.02721 6.21355 9.02729H7.63393C10.4236 9.02729 12.6079 7.89442 13.2463 4.61701C13.2654 4.51997 13.2814 4.42552 13.2959 4.33313C13.1274 4.24479 12.9518 4.17072 12.771 4.11171C12.7235 4.09598 12.6759 4.08101 12.628 4.06681Z" fill="#FF00FF"/>
<path d="M6.36192 4.34966C6.38391 4.20692 6.45637 4.0768 6.56614 3.98294C6.6759 3.88909 6.8157 3.83772 6.96011 3.83817H10.7547C11.2042 3.83817 11.6238 3.86759 12.0069 3.92953C12.266 3.97026 12.5216 4.03117 12.7712 4.11172C12.9596 4.17417 13.1345 4.24798 13.2961 4.33314C13.4861 3.12178 13.2945 2.29701 12.6396 1.55017C11.9175 0.727977 10.6143 0.375977 8.9467 0.375977H4.10541C3.76476 0.375977 3.47418 0.623718 3.42154 0.960752L1.40502 13.7427C1.39562 13.802 1.3992 13.8627 1.4155 13.9206C1.43178 13.9784 1.46042 14.032 1.49941 14.0777C1.5384 14.1234 1.58683 14.1602 1.64137 14.1854C1.6959 14.2106 1.75526 14.2236 1.81534 14.2237H4.80425L5.5547 9.4624L6.36192 4.34966Z" fill="#FF00FF"/>
</svg>
