<svg width="16" height="16" viewBox="0 0 16 16" fill="none" xmlns="http://www.w3.org/2000/svg">
<path d="M13.2957 4.33301C13.2812 4.42539 13.2647 4.51985 13.2461 4.61688C12.6077 7.89481 10.4234 9.0272 7.63375 9.0272H6.21336C5.8722 9.0272 5.58472 9.27494 5.53156 9.61146L4.80433 14.2236L4.5984 15.5309C4.59019 15.5828 4.59332 15.6358 4.60758 15.6864C4.62183 15.7369 4.64686 15.7837 4.68095 15.8237C4.71505 15.8636 4.75738 15.8956 4.80506 15.9176C4.85273 15.9396 4.9046 15.951 4.95711 15.9511H7.47633C7.77465 15.9511 8.02807 15.7343 8.07504 15.4401L8.09981 15.3121L8.57414 12.302L8.60459 12.1369C8.65104 11.8417 8.90498 11.6249 9.2033 11.6249H9.58007C12.0208 11.6249 13.9316 10.6339 14.49 7.7663C14.7233 6.56836 14.6025 5.5681 13.9852 4.86462C13.7896 4.647 13.5559 4.46686 13.2957 4.33301Z" fill="#179BD7"/>
<path d="M12.6278 4.06675C12.424 4.00778 12.2166 3.96175 12.0069 3.92894C11.5926 3.86527 11.1739 3.83472 10.7548 3.83759H6.9602C6.81579 3.83747 6.67611 3.88903 6.56639 3.98293C6.45668 4.07684 6.38419 4.20689 6.36201 4.34959L5.55478 9.46236L5.53156 9.61152C5.5567 9.44876 5.63927 9.30038 5.76433 9.19321C5.88939 9.08605 6.04867 9.02718 6.21336 9.02726H7.63375C10.4234 9.02726 12.6077 7.89436 13.2461 4.61694C13.2652 4.51991 13.2812 4.42546 13.2957 4.33307C13.1272 4.24472 12.9516 4.17066 12.7708 4.11165C12.7234 4.09592 12.6757 4.08095 12.6278 4.06675Z" fill="#222D65"/>
<path d="M6.36204 4.34965C6.38403 4.20692 6.45649 4.0768 6.56626 3.98295C6.67602 3.88909 6.81581 3.83772 6.96024 3.83817H10.7548C11.2044 3.83817 11.624 3.86759 12.0069 3.92952C12.2661 3.97025 12.5217 4.03117 12.7713 4.11172C12.9597 4.17417 13.1347 4.24798 13.2962 4.33314C13.4862 3.12178 13.2947 2.29701 12.6397 1.55017C11.9177 0.727977 10.6144 0.375977 8.94682 0.375977H4.10553C3.76488 0.375977 3.4743 0.623719 3.42166 0.960751L1.40514 13.7427C1.39575 13.802 1.39932 13.8627 1.41561 13.9205C1.43191 13.9784 1.46054 14.032 1.49953 14.0777C1.53852 14.1234 1.58695 14.1601 1.64149 14.1853C1.69603 14.2105 1.75538 14.2236 1.81546 14.2237H4.80436L5.55482 9.46243L6.36204 4.34965Z" fill="#253B80"/>
</svg>
