<svg width="16" height="16" viewBox="0 0 16 16" fill="none" xmlns="http://www.w3.org/2000/svg">
<path d="M1.93083 7.74932V5.11748H3.43122C3.65259 5.11748 3.86576 5.13388 4.07073 5.16668C4.27571 5.19947 4.45608 5.26506 4.61186 5.36345C4.76764 5.45364 4.89062 5.58482 4.98081 5.75699C5.07919 5.92917 5.12839 6.15464 5.12839 6.4334C5.12839 6.71216 5.07919 6.93763 4.98081 7.10981C4.89062 7.28198 4.76764 7.41726 4.61186 7.51565C4.45608 7.60584 4.27571 7.66733 4.07073 7.70012C3.86576 7.73292 3.65259 7.74932 3.43122 7.74932H1.93083ZM0 3.61709V12.3981H1.93083V9.24971H3.96005C4.50937 9.24971 4.97671 9.17182 5.36205 9.01604C5.7474 8.85206 6.05896 8.63889 6.29672 8.37653C6.54269 8.11417 6.71897 7.81491 6.82555 7.47875C6.94033 7.1344 6.99773 6.78595 6.99773 6.4334C6.99773 6.07265 6.94033 5.7242 6.82555 5.38804C6.71897 5.05189 6.54269 4.75263 6.29672 4.49027C6.05896 4.22791 5.7474 4.01883 5.36205 3.86306C4.97671 3.69908 4.50937 3.61709 3.96005 3.61709H0Z" fill="black"/>
<path d="M14.0569 6.56868H15.9262C15.8688 6.06035 15.7294 5.60941 15.5081 5.21587C15.2867 4.82232 15.0038 4.49437 14.6595 4.23201C14.3233 3.96144 13.938 3.75647 13.5034 3.61709C13.0771 3.47771 12.6221 3.40802 12.1383 3.40802C11.466 3.40802 10.8593 3.5269 10.3182 3.76467C9.78526 4.00244 9.33433 4.33039 8.96538 4.74853C8.59643 5.16668 8.31357 5.65861 8.1168 6.22433C7.92002 6.78185 7.82164 7.38857 7.82164 8.04448C7.82164 8.68399 7.92002 9.2825 8.1168 9.84003C8.31357 10.3893 8.59643 10.869 8.96538 11.2789C9.33433 11.6889 9.78526 12.0127 10.3182 12.2505C10.8593 12.4801 11.466 12.5948 12.1383 12.5948C12.6795 12.5948 13.1755 12.5129 13.6264 12.3489C14.0774 12.1849 14.4709 11.9471 14.8071 11.6356C15.1432 11.324 15.4138 10.9469 15.6188 10.5041C15.8237 10.0614 15.9508 9.56536 16 9.01604H14.1307C14.0569 9.60636 13.8519 10.0819 13.5157 10.4426C13.1878 10.8034 12.7287 10.9838 12.1383 10.9838C11.7038 10.9838 11.3348 10.9018 11.0315 10.7378C10.7281 10.5656 10.4822 10.3402 10.2936 10.0614C10.105 9.78263 9.96564 9.47108 9.87545 9.12672C9.79346 8.77417 9.75247 8.41342 9.75247 8.04448C9.75247 7.65913 9.79346 7.28608 9.87545 6.92533C9.96564 6.56458 10.105 6.24483 10.2936 5.96606C10.4822 5.6791 10.7281 5.45364 11.0315 5.28966C11.3348 5.11748 11.7038 5.03139 12.1383 5.03139C12.3761 5.03139 12.6016 5.07239 12.8147 5.15438C13.0361 5.22817 13.2329 5.33475 13.4051 5.47413C13.5772 5.61351 13.7207 5.77749 13.8355 5.96606C13.9503 6.14644 14.0241 6.34731 14.0569 6.56868Z" fill="black"/>
</svg>
