<svg width="16" height="16" viewBox="0 0 16 16" fill="none" xmlns="http://www.w3.org/2000/svg">
<path d="M1.93083 7.74929V5.11745H3.43122C3.65259 5.11745 3.86576 5.13385 4.07073 5.16664C4.27571 5.19944 4.45608 5.26503 4.61186 5.36342C4.76764 5.4536 4.89062 5.58479 4.98081 5.75696C5.07919 5.92914 5.12839 6.15461 5.12839 6.43337C5.12839 6.71213 5.07919 6.9376 4.98081 7.10977C4.89062 7.28195 4.76764 7.41723 4.61186 7.51562C4.45608 7.60581 4.27571 7.6673 4.07073 7.70009C3.86576 7.73289 3.65259 7.74929 3.43122 7.74929H1.93083ZM0 3.61706V12.398H1.93083V9.24968H3.96005C4.50937 9.24968 4.97671 9.17179 5.36205 9.01601C5.7474 8.85203 6.05896 8.63886 6.29672 8.3765C6.54269 8.11413 6.71896 7.81488 6.82555 7.47872C6.94033 7.13437 6.99773 6.78592 6.99773 6.43337C6.99773 6.07262 6.94033 5.72417 6.82555 5.38801C6.71896 5.05186 6.54269 4.7526 6.29672 4.49024C6.05896 4.22788 5.7474 4.0188 5.36205 3.86303C4.97671 3.69905 4.50937 3.61706 3.96005 3.61706H0Z" fill="black"/>
<path d="M14.0569 6.56865H15.9262C15.8688 6.06032 15.7294 5.60938 15.5081 5.21584C15.2867 4.82229 15.0038 4.49434 14.6595 4.23197C14.3233 3.96141 13.938 3.75644 13.5034 3.61706C13.0771 3.47768 12.6221 3.40799 12.1383 3.40799C11.466 3.40799 10.8593 3.52687 10.3182 3.76464C9.78526 4.00241 9.33433 4.33036 8.96538 4.7485C8.59643 5.16664 8.31357 5.65858 8.1168 6.2243C7.92002 6.78182 7.82164 7.38854 7.82164 8.04444C7.82164 8.68396 7.92002 9.28247 8.1168 9.83999C8.31357 10.3893 8.59643 10.869 8.96538 11.2789C9.33433 11.6888 9.78526 12.0127 10.3182 12.2505C10.8593 12.48 11.466 12.5948 12.1383 12.5948C12.6795 12.5948 13.1755 12.5128 13.6264 12.3488C14.0774 12.1849 14.4709 11.9471 14.8071 11.6355C15.1432 11.324 15.4138 10.9468 15.6188 10.5041C15.8237 10.0614 15.9508 9.56533 16 9.01601H14.1307C14.0569 9.60633 13.8519 10.0819 13.5157 10.4426C13.1878 10.8034 12.7287 10.9837 12.1383 10.9837C11.7038 10.9837 11.3348 10.9017 11.0315 10.7378C10.7281 10.5656 10.4822 10.3401 10.2936 10.0614C10.105 9.7826 9.96564 9.47105 9.87545 9.12669C9.79346 8.77414 9.75247 8.41339 9.75247 8.04444C9.75247 7.6591 9.79346 7.28605 9.87545 6.9253C9.96564 6.56455 10.105 6.24479 10.2936 5.96603C10.4822 5.67907 10.7281 5.45361 11.0315 5.28963C11.3348 5.11745 11.7038 5.03136 12.1383 5.03136C12.3761 5.03136 12.6016 5.07236 12.8147 5.15435C13.0361 5.22814 13.2329 5.33472 13.4051 5.4741C13.5772 5.61348 13.7207 5.77746 13.8355 5.96603C13.9503 6.14641 14.0241 6.34728 14.0569 6.56865Z" fill="black"/>
</svg>
