<svg width="20" height="20" viewBox="0 0 20 20" fill="none" xmlns="http://www.w3.org/2000/svg">
<path d="M6.17871 9.33447H4.3125V14H5.23535V12.4346H6.17187C7.18017 12.4346 7.75439 11.7681 7.75439 10.8896C7.75439 10.0181 7.18701 9.33447 6.17871 9.33447ZM6.81445 10.8896C6.81445 11.4092 6.51025 11.71 6.00097 11.71H5.23193V10.0693H6.00097C6.51025 10.0693 6.81445 10.3667 6.81445 10.8896Z" fill="#FF00FF"/>
<path d="M8.44482 9.33447V14H10.147C11.5552 14 12.2354 13.1387 12.2354 11.6553C12.2354 10.1821 11.5654 9.33447 10.147 9.33447H8.44482ZM9.36767 10.0864H10.0239C10.8887 10.0864 11.2852 10.6196 11.2852 11.6724C11.2852 12.7251 10.8921 13.2446 10.0239 13.2446H9.36767V10.0864Z" fill="#FF00FF"/>
<path d="M13.9444 14V12.144H15.8174V11.3989H13.9444V10.0967H15.9952V9.33447H13.0215V14H13.9444Z" fill="#FF00FF"/>
<path fill-rule="evenodd" clip-rule="evenodd" d="M17 6H14C12.8954 6 12 5.10457 12 4V1H4C3.44772 1 3 1.44772 3 2V18C3 18.5523 3.44772 19 4 19H16C16.5523 19 17 18.5523 17 18V6ZM12 0H12.1716C12.702 0 13.2107 0.210714 13.5858 0.585786L17.4142 4.41421C17.7893 4.78929 18 5.29799 18 5.82843V6V18C18 19.1046 17.1046 20 16 20H4C2.89543 20 2 19.1046 2 18V2C2 0.89543 2.89543 0 4 0H12Z" fill="#FF00FF"/>
</svg>
