<svg width="16" height="16" viewBox="0 0 16 16" fill="none" xmlns="http://www.w3.org/2000/svg">
<path d="M3.19998 0H9.59998L14.4 4.8V14.4C14.4 15.2837 13.6836 16 12.8 16H3.19998C2.31632 16 1.59998 15.2837 1.59998 14.4V1.6C1.59998 0.716344 2.31632 0 3.19998 0Z" fill="#D00303"/>
<path opacity="0.5" fill-rule="evenodd" clip-rule="evenodd" d="M9.59998 0L14.4 4.8H11.2C10.3163 4.8 9.59998 4.08366 9.59998 3.2V0Z" fill="white"/>
<path d="M4.73247 7.46777H3.2395V11.2002H3.97778V9.94785H4.727C5.53364 9.94785 5.99302 9.41465 5.99302 8.71191C5.99302 8.01465 5.53911 7.46777 4.73247 7.46777ZM5.24106 8.71191C5.24106 9.12754 4.99771 9.36816 4.59028 9.36816H3.97505V8.05566H4.59028C4.99771 8.05566 5.24106 8.29355 5.24106 8.71191Z" fill="white"/>
<path d="M6.65747 7.46777V11.2002H8.01919C9.14575 11.2002 9.68989 10.5111 9.68989 9.32441C9.68989 8.1459 9.15395 7.46777 8.01919 7.46777H6.65747ZM7.39575 8.06934H7.92075C8.61255 8.06934 8.92974 8.4959 8.92974 9.33809C8.92974 10.1803 8.61528 10.5959 7.92075 10.5959H7.39575V8.06934Z" fill="white"/>
<path d="M11.1692 11.2002V9.71543H12.6676V9.11934H11.1692V8.07754H12.8098V7.46777H10.4309V11.2002H11.1692Z" fill="white"/>
</svg>
