<svg width="16" height="16" viewBox="0 0 16 16" fill="none" xmlns="http://www.w3.org/2000/svg">
<path fill-rule="evenodd" clip-rule="evenodd" d="M1.6001 1.6C1.6001 0.716345 2.31644 0 3.2001 0H9.6001L14.4001 4.8V14.4C14.4001 15.2837 13.6838 16 12.8001 16H3.2001C2.31644 16 1.6001 15.2837 1.6001 14.4V1.6ZM4.10361 12V10.8406H4.7708C5.63213 10.8406 6.08603 10.2746 6.08603 9.56096C6.08603 8.85824 5.64033 8.2676 4.78174 8.2676H3.20674V12H4.10361ZM4.57393 10.1652H4.10088V8.95664H4.57393C4.9458 8.95664 5.17549 9.16992 5.17549 9.56096C5.17549 9.94648 4.9458 10.1652 4.57393 10.1652ZM9.8513 10.1187C9.8513 11.2836 9.3153 12 8.16418 12H6.70127V8.2676H8.16418C9.32898 8.2676 9.8513 8.9676 9.8513 10.1187ZM8.02194 11.2863H7.60088V8.97848H8.02194C8.65634 8.97848 8.92978 9.37224 8.92978 10.1406C8.92978 10.9062 8.65906 11.2863 8.02194 11.2863ZM11.4345 10.5918V12H10.5349V8.2676H13.0204V8.98944H11.4345V9.89176H12.8755V10.5918H11.4345ZM13.2001 4.8L9.6001 1.2V3.2C9.6001 4.08366 10.3164 4.8 11.2001 4.8H13.2001Z" fill="#FF00FF"/>
</svg>
