<svg width="16" height="16" viewBox="0 0 16 16" fill="none" xmlns="http://www.w3.org/2000/svg">
<path fill-rule="evenodd" clip-rule="evenodd" d="M1.60001 1.6C1.60001 0.716345 2.31635 0 3.20001 0H9.60001L14.4 4.8V14.4C14.4 15.2837 13.6837 16 12.8 16H3.20001C2.31635 16 1.60001 15.2837 1.60001 14.4V1.6ZM4.10352 12V10.8406H4.77071C5.63204 10.8406 6.08594 10.2746 6.08594 9.56096C6.08594 8.85824 5.64024 8.2676 4.78165 8.2676H3.20665V12H4.10352ZM4.57384 10.1652H4.10079V8.95664H4.57384C4.94571 8.95664 5.1754 9.16992 5.1754 9.56096C5.1754 9.94648 4.94571 10.1652 4.57384 10.1652ZM9.85121 10.1187C9.85121 11.2836 9.31521 12 8.16409 12H6.70117V8.2676H8.16409C9.32889 8.2676 9.85121 8.9676 9.85121 10.1187ZM8.02185 11.2863H7.60079V8.97848H8.02185C8.65625 8.97848 8.92969 9.37224 8.92969 10.1406C8.92969 10.9062 8.65897 11.2863 8.02185 11.2863ZM11.4344 10.5918V12H10.5348V8.2676H13.0203V8.98944H11.4344V9.89176H12.8754V10.5918H11.4344ZM13.2 4.8L9.60001 1.2V3.2C9.60001 4.08366 10.3163 4.8 11.2 4.8H13.2Z" fill="#FF00FF"/>
</svg>
