<svg width="16" height="16" viewBox="0 0 16 16" fill="none" xmlns="http://www.w3.org/2000/svg">
<g clip-path="url(#clip0_1406_3375)">
<path fill-rule="evenodd" clip-rule="evenodd" d="M0 0H16V16H0V0ZM1.125 1.125H14.875V14.875H1.125V1.125ZM10.0809 7.46763C10.0809 7.2479 10.2606 6.98156 10.7866 6.98156C11.2194 6.98156 11.6522 7.09477 11.9452 7.28116C12.0118 7.30116 12.0451 7.26785 12.0451 7.21458V6.30237C12.0451 6.25577 12.0318 6.2025 11.9786 6.16922C11.7588 6.06935 11.3593 5.98277 10.7866 5.98277C9.62144 5.98277 8.94888 6.69522 8.94888 7.55421C8.94888 8.31992 9.34168 8.77936 10.2873 9.23216C10.9598 9.5784 11.113 9.79152 11.113 10.0312C11.113 10.3309 10.8932 10.5506 10.3672 10.5506C9.92768 10.5506 9.44832 10.4307 9.0288 10.1578C8.98216 10.1244 8.94888 10.1444 8.94888 10.211V11.1898C8.94888 11.2431 8.95552 11.2764 9.00216 11.2963C9.28848 11.4628 9.78784 11.5826 10.3672 11.5826C11.4658 11.5826 12.2782 11.01 12.2782 9.94464C12.2782 9.23216 11.9519 8.74608 10.9065 8.24C10.2007 7.87381 10.0809 7.70734 10.0809 7.46763ZM5.06023 7.77394C5.21339 7.78726 5.33326 7.78726 5.59959 7.78726C6.37868 7.78726 7.1111 7.51426 7.1111 6.45555C7.1111 5.60991 6.58506 5.18374 5.69948 5.18374C5.43314 5.18374 5.1801 5.19706 5.06023 5.20371V7.77394ZM4.0215 4.15829C3.96826 4.15829 3.87502 4.1916 3.87502 4.23821L3.875 11.3896C3.875 11.4495 3.90166 11.4694 3.95492 11.4694H4.97369C5.03361 11.4694 5.05358 11.4428 5.05358 11.3896V8.83264C5.13582 8.83264 5.19856 8.83544 5.26664 8.83848C5.3474 8.84208 5.43567 8.846 5.57296 8.846C7.07779 8.846 8.30296 8.12016 8.30296 6.4289C8.30296 5.1371 7.58386 4.125 5.73943 4.125C5.08023 4.125 4.44767 4.13831 4.0215 4.15829Z" fill="#FF00FF"/>
</g>
<defs>
<clipPath id="clip0_1406_3375">
<rect width="16" height="16" fill="white"/>
</clipPath>
</defs>
</svg>
