<svg width="16" height="16" viewBox="0 0 16 16" fill="none" xmlns="http://www.w3.org/2000/svg">
<g clip-path="url(#clip0_1_1007)">
<path d="M16 0H0V16H16V0Z" fill="#01CAFA"/>
<path fill-rule="evenodd" clip-rule="evenodd" d="M1.125 1.125H14.875V14.875H1.125V1.125Z" fill="#130F31"/>
<path fill-rule="evenodd" clip-rule="evenodd" d="M10.7866 6.98156C10.2606 6.98156 10.0809 7.2479 10.0809 7.46763C10.0809 7.70734 10.2007 7.87381 10.9065 8.24C11.9519 8.74608 12.2782 9.23216 12.2782 9.94464C12.2782 11.01 11.4658 11.5826 10.3672 11.5826C9.78784 11.5826 9.28848 11.4628 9.00216 11.2963C8.95552 11.2764 8.94888 11.2431 8.94888 11.1898V10.211C8.94888 10.1444 8.98216 10.1244 9.0288 10.1578C9.44832 10.4307 9.92768 10.5506 10.3672 10.5506C10.8932 10.5506 11.113 10.3309 11.113 10.0312C11.113 9.79152 10.9598 9.5784 10.2873 9.23216C9.34168 8.77936 8.94888 8.31992 8.94888 7.55421C8.94888 6.69523 9.62144 5.98277 10.7866 5.98277C11.3593 5.98277 11.7588 6.06935 11.9786 6.16922C12.0318 6.2025 12.0451 6.25577 12.0451 6.30237V7.21458C12.0451 7.26785 12.0118 7.30116 11.9452 7.28116C11.6522 7.09477 11.2194 6.98156 10.7866 6.98156ZM5.06023 7.77394C5.21339 7.78726 5.33326 7.78726 5.59959 7.78726C6.37868 7.78726 7.1111 7.51426 7.1111 6.45555C7.1111 5.60991 6.58506 5.18374 5.69948 5.18374C5.43314 5.18374 5.1801 5.19706 5.06023 5.20371V7.77394ZM3.87502 4.23821C3.87502 4.19161 3.96826 4.15829 4.0215 4.15829C4.44767 4.13831 5.08023 4.125 5.73943 4.125C7.58386 4.125 8.30296 5.1371 8.30296 6.4289C8.30296 8.12016 7.07779 8.846 5.57296 8.846C5.31994 8.846 5.23339 8.83264 5.05358 8.83264V11.3896C5.05358 11.4428 5.03361 11.4694 4.97369 11.4694H3.95492C3.90166 11.4694 3.875 11.4495 3.875 11.3896L3.87502 4.23821Z" fill="#31C5F0"/>
</g>
<defs>
<clipPath id="clip0_1_1007">
<rect width="16" height="16" fill="white"/>
</clipPath>
</defs>
</svg>
