<svg width="16" height="16" viewBox="0 0 16 16" fill="none" xmlns="http://www.w3.org/2000/svg">
<g clip-path="url(#clip0_1406_3370)">
<mask id="mask0_1406_3370" style="mask-type:luminance" maskUnits="userSpaceOnUse" x="0" y="0" width="16" height="16">
<path d="M16 0H0V16H16V0Z" fill="white"/>
</mask>
<g mask="url(#mask0_1406_3370)">
<path fill-rule="evenodd" clip-rule="evenodd" d="M8.6327 4.12786L8.62222 13.7564L6.04248 12.9173V1.59998L9.33534 2.47057C11.4432 3.03707 12.7331 4.13826 12.7121 6.06818C12.6912 8.31286 11.6529 9.21478 9.62894 8.62742V4.20114C9.62894 3.66619 8.6327 3.63486 8.6327 4.12786Z" fill="#DE0029"/>
<path fill-rule="evenodd" clip-rule="evenodd" d="M4.85753 11.0501L3.64101 11.4593C2.85438 11.7321 2.18331 11.0923 2.9069 10.8299L3.49413 10.6203L1.28136 9.91742C0.59966 10.1482 -0.0400854 10.6412 0.00196423 11.3335C0.0439163 12.0361 1.64837 12.2041 2.88594 12.4033C4.03944 12.5921 5.08815 12.4872 6.04258 12.1516V11.4277L4.85753 11.0501ZM8.64336 13.7564L10.8981 12.9697L8.6224 12.246V13.7038L8.64336 13.7564Z" fill="#F3C202"/>
<path fill-rule="evenodd" clip-rule="evenodd" d="M14.6418 11.6482L14.6837 11.6377C15.6695 11.2917 16.089 10.809 15.9842 10.3581C15.8164 9.60303 14.6104 9.19383 12.7541 9.05751C11.4223 8.96311 10.1115 9.25671 8.83203 9.69719L8.62227 9.77071L10.9189 10.484L12.2612 10.0329C13.6665 9.77071 14.2329 10.2321 12.88 10.6622L12.2088 10.8929L14.6418 11.6482ZM6.0425 8.31287L5.02515 8.65895L6.0425 8.97359V8.31287Z" fill="#326DB3"/>
<path fill-rule="evenodd" clip-rule="evenodd" d="M10.8981 12.9697L14.642 11.6482L12.209 10.8929L8.62245 12.1201V12.2461L10.8981 12.9697ZM6.04272 10.6517L4.85765 11.0502L6.04272 11.4278V10.6517ZM8.62245 11.2706V9.77071L10.9192 10.4839L8.62245 11.2706ZM3.49426 10.6203L6.04269 9.70783V8.97359L5.02537 8.65887L1.33391 9.90711C1.32341 9.90711 1.30245 9.91743 1.28149 9.91743L3.49426 10.6203Z" fill="#00AA9E"/>
</g>
</g>
<defs>
<clipPath id="clip0_1406_3370">
<rect width="16" height="16" fill="white"/>
</clipPath>
</defs>
</svg>
