<svg width="16" height="16" viewBox="0 0 16 16" fill="none" xmlns="http://www.w3.org/2000/svg">
<g clip-path="url(#clip0_1_1021)">
<mask id="mask0_1_1021" style="mask-type:luminance" maskUnits="userSpaceOnUse" x="0" y="0" width="16" height="16">
<path d="M16 0H0V16H16V0Z" fill="white"/>
</mask>
<g mask="url(#mask0_1_1021)">
<path fill-rule="evenodd" clip-rule="evenodd" d="M8.63283 4.12789L8.62235 13.7564L6.0426 12.9174V1.60001L9.33547 2.4706C11.4433 3.0371 12.7332 4.13829 12.7123 6.06821C12.6913 8.31289 11.6531 9.21481 9.62907 8.62745V4.20117C9.62907 3.66622 8.63283 3.63489 8.63283 4.12789Z" fill="#DE0029"/>
<path fill-rule="evenodd" clip-rule="evenodd" d="M4.85753 11.0502L3.64101 11.4593C2.85438 11.7321 2.18331 11.0923 2.9069 10.8299L3.49413 10.6203L1.28136 9.91745C0.59966 10.1482 -0.0400854 10.6412 0.00196423 11.3335C0.0439163 12.0362 1.64837 12.2041 2.88594 12.4034C4.03944 12.5921 5.08815 12.4872 6.04258 12.1516V11.4278L4.85753 11.0502ZM8.64336 13.7564L10.8981 12.9697L8.6224 12.246V13.7039L8.64336 13.7564Z" fill="#F3C202"/>
<path fill-rule="evenodd" clip-rule="evenodd" d="M14.6418 11.6483L14.6837 11.6377C15.6695 11.2917 16.089 10.8091 15.9842 10.3582C15.8164 9.60306 14.6104 9.19386 12.7541 9.05754C11.4223 8.96314 10.1115 9.25674 8.83203 9.69722L8.62227 9.77074L10.9189 10.484L12.2612 10.0329C13.6665 9.77074 14.2329 10.2322 12.88 10.6623L12.2088 10.8929L14.6418 11.6483ZM6.0425 8.3129L5.02515 8.65898L6.0425 8.97362V8.3129Z" fill="#326DB3"/>
<path fill-rule="evenodd" clip-rule="evenodd" d="M10.8981 12.9697L14.642 11.6482L12.209 10.8929L8.62245 12.1201V12.2461L10.8981 12.9697ZM6.04272 10.6517L4.85765 11.0502L6.04272 11.4278V10.6517ZM8.62245 11.2706V9.77071L10.9192 10.4839L8.62245 11.2706ZM3.49426 10.6203L6.04269 9.70783V8.97359L5.02537 8.65887L1.33391 9.90711C1.32341 9.90711 1.30245 9.91743 1.28149 9.91743L3.49426 10.6203Z" fill="#00AA9E"/>
</g>
</g>
<defs>
<clipPath id="clip0_1_1021">
<rect width="16" height="16" fill="white"/>
</clipPath>
</defs>
</svg>
