<svg width="16" height="16" viewBox="0 0 16 16" fill="none" xmlns="http://www.w3.org/2000/svg">
<path fill-rule="evenodd" clip-rule="evenodd" d="M8.63287 4.12798L8.62237 13.7565L6.04263 12.9174V1.6001L9.33553 2.47069C11.4433 3.03719 12.7333 4.13838 12.7123 6.06831C12.6913 8.31295 11.6531 9.21488 9.62913 8.62751V4.20126C9.62913 3.66631 8.63287 3.63499 8.63287 4.12798Z" fill="#DE0029"/>
<path fill-rule="evenodd" clip-rule="evenodd" d="M4.85752 11.0502L3.64101 11.4594C2.85438 11.7321 2.18331 11.0924 2.9069 10.83L3.49413 10.6204L1.28136 9.91748C0.59966 10.1483 -0.0400854 10.6413 0.00196424 11.3336C0.0439164 12.0362 1.64837 12.2041 2.88594 12.4034C4.03944 12.5921 5.08815 12.4873 6.04258 12.1516V11.4279L4.85752 11.0502ZM8.64332 13.7564L10.898 12.9697L8.62236 12.2461V13.7039L8.64332 13.7564Z" fill="#F3C202"/>
<path fill-rule="evenodd" clip-rule="evenodd" d="M14.6419 11.6483L14.6838 11.6378C15.6696 11.2917 16.0891 10.8091 15.9843 10.3582C15.8165 9.6031 14.6105 9.19395 12.7542 9.05756C11.4224 8.96323 10.1116 9.25683 8.83216 9.69731L8.6224 9.77082L10.9191 10.484L12.2614 10.033C13.6667 9.77082 14.2331 10.2323 12.8802 10.6623L12.209 10.893L14.6419 11.6483ZM6.04262 8.31299L5.02528 8.659L6.04262 8.97369V8.31299Z" fill="#326DB3"/>
<path fill-rule="evenodd" clip-rule="evenodd" d="M10.898 12.9695L14.6419 11.648L12.2089 10.8926L8.62234 12.1198V12.2458L10.898 12.9695ZM6.0426 10.6514L4.85754 11.05L6.0426 11.4276V10.6514ZM8.62234 11.2704V9.7705L10.919 10.4837L8.62234 11.2704ZM3.49414 10.6201L6.04256 9.70759V8.97338L5.02525 8.65869L1.33379 9.90686C1.32329 9.90686 1.30233 9.91722 1.28137 9.91722L3.49414 10.6201Z" fill="#00AA9E"/>
</svg>
