<svg width="16" height="16" viewBox="0 0 16 16" fill="none" xmlns="http://www.w3.org/2000/svg">
<g clip-path="url(#clip0_1_1019)">
<path fill-rule="evenodd" clip-rule="evenodd" d="M15.8577 11.0514C15.5452 11.4458 14.7794 11.727 14.7794 11.727L9.0832 13.7731V12.2642L13.2753 10.7706C13.751 10.6001 13.824 10.3591 13.4374 10.2327C13.0514 10.1058 12.3526 10.1422 11.8764 10.3134L9.0832 11.2971V9.73121L9.24416 9.67665C9.24416 9.67665 10.0514 9.39105 11.1863 9.26529C12.3213 9.14025 13.711 9.28233 14.802 9.69593C16.0314 10.0844 16.1699 10.6571 15.8577 11.0514ZM9.62544 8.48209V4.6233C9.62544 4.17012 9.54184 3.75291 9.11664 3.6348C8.79104 3.53049 8.58896 3.83286 8.58896 4.28568V13.949L5.98286 13.1218V1.60001C7.09092 1.8057 8.7052 2.29196 9.57312 2.58451C11.7802 3.34225 12.5284 4.28532 12.5284 6.41024C12.5284 8.48137 11.2499 9.26633 9.62544 8.48209ZM1.20097 12.1065C-0.0611883 11.751 -0.271245 11.0104 0.304049 10.5838C0.835736 10.1898 1.73992 9.89329 1.73992 9.89329L5.47661 8.56457V10.0794L2.78766 11.0417C2.31267 11.2121 2.23962 11.4534 2.62558 11.5799C3.0119 11.7063 3.71111 11.6704 4.18683 11.4996L5.47661 11.0315V12.3866C5.39484 12.4012 5.30362 12.4158 5.2193 12.4299C3.92917 12.6407 2.55507 12.5528 1.20097 12.1065Z" fill="#FF00FF"/>
</g>
<defs>
<clipPath id="clip0_1_1019">
<rect width="16" height="16" fill="white"/>
</clipPath>
</defs>
</svg>
