<svg width="20" height="20" viewBox="0 0 20 20" fill="none" xmlns="http://www.w3.org/2000/svg">
<g clip-path="url(#clip0_341_2835)">
<mask id="mask0_341_2835" style="mask-type:luminance" maskUnits="userSpaceOnUse" x="0" y="0" width="20" height="20">
<path d="M20 0H0V20H20V0Z" fill="white"/>
</mask>
<g mask="url(#mask0_341_2835)">
<path d="M0.5 4C0.5 3.72386 0.723858 3.5 1 3.5H15C15.2761 3.5 15.5 3.72386 15.5 4V16C15.5 16.2761 15.2761 16.5 15 16.5H1C0.723858 16.5 0.5 16.2761 0.5 16V4Z" stroke="#FF00FF"/>
<path opacity="0.3" d="M15 3H19C19.5523 3 20 3.44772 20 4V16C20 16.5523 19.5523 17 19 17H15V3Z" fill="#FF00FF"/>
<path d="M5 15L10 10L5 5" stroke="#FF00FF"/>
</g>
</g>
<defs>
<clipPath id="clip0_341_2835">
<rect width="20" height="20" fill="white"/>
</clipPath>
</defs>
</svg>
