<svg width="16" height="16" viewBox="0 0 16 16" fill="none" xmlns="http://www.w3.org/2000/svg">
<g clip-path="url(#clip0_348_3731)">
<path d="M11.4186 0C10.7969 0.0046243 10.1789 0.095033 9.58195 0.268667L9.53995 0.282C9.16343 0.215458 8.78225 0.178678 8.39995 0.172C7.61461 0.158667 6.93995 0.349333 6.39595 0.666667C5.85995 0.480667 4.74795 0.16 3.57595 0.224C2.75995 0.268667 1.86928 0.516667 1.20928 1.21333C0.551282 1.91 0.203282 2.988 0.276615 4.45467C0.296615 4.85933 0.411949 5.51933 0.603282 6.374C0.794615 7.22867 1.06328 8.22933 1.39862 9.142C1.73395 10.0553 2.10128 10.8753 2.67528 11.4327C2.96195 11.712 3.35661 11.9467 3.82195 11.9273C4.14861 11.914 4.44395 11.7707 4.69861 11.5593C4.82261 11.7227 4.95528 11.794 5.07595 11.86C5.22795 11.9433 5.37595 12 5.52928 12.0373C5.80461 12.106 6.27595 12.198 6.82795 12.104C7.01595 12.0727 7.21395 12.0113 7.41128 11.924C7.41861 12.144 7.42728 12.3593 7.43595 12.5773C7.46328 13.268 7.48061 13.906 7.68795 14.4653C7.72128 14.5567 7.81261 15.0273 8.17261 15.4427C8.53261 15.8587 9.23795 16.118 10.0413 15.946C10.6079 15.8247 11.3286 15.606 11.8073 14.9247C12.2806 14.2513 12.4939 13.2853 12.5359 11.7187C12.5466 11.634 12.5593 11.562 12.5726 11.4947L12.6853 11.5047H12.6986C13.3033 11.532 13.9593 11.446 14.5073 11.1913C14.9926 10.9667 15.3599 10.7393 15.6273 10.336C15.6939 10.236 15.7673 10.1153 15.7873 9.90733C15.8073 9.69933 15.6879 9.374 15.4899 9.224C15.0933 8.92267 14.8439 9.03733 14.5766 9.09267C14.3133 9.15089 14.0449 9.18348 13.7753 9.19C14.5459 7.892 15.0986 6.51333 15.4139 5.29333C15.6006 4.57333 15.7053 3.90933 15.7139 3.32867C15.7226 2.748 15.6753 2.234 15.3273 1.78933C14.2399 0.4 12.7113 0.016 11.5286 0.00266667C11.4919 0.002 11.4553 0.00133333 11.4186 0.002V0ZM11.3873 0.426667C12.5059 0.416 13.9353 0.73 14.9613 2.04133C15.1919 2.336 15.2606 2.76667 15.2526 3.29733C15.2439 3.82733 15.1459 4.462 14.9666 5.15733C14.6186 6.504 13.9613 8.074 13.0353 9.48267C13.068 9.5059 13.1033 9.52515 13.1406 9.54C13.3339 9.62 13.7746 9.68867 14.6539 9.508C14.8753 9.46133 15.0373 9.43 15.2053 9.558C15.2461 9.59261 15.2784 9.63619 15.2995 9.68535C15.3207 9.73451 15.3302 9.78789 15.3273 9.84133C15.3183 9.92225 15.2884 9.99945 15.2406 10.0653C15.0706 10.3207 14.7353 10.5627 14.3053 10.762C13.9246 10.9393 13.3786 11.032 12.8946 11.0373C12.6519 11.04 12.4279 11.0213 12.2379 10.962L12.2259 10.9573C12.1526 11.664 11.9839 13.0593 11.8739 13.696C11.7859 14.2093 11.6319 14.6173 11.3379 14.9227C11.0446 15.228 10.6293 15.412 10.0706 15.532C9.37861 15.6807 8.87395 15.5207 8.54861 15.2467C8.22395 14.9733 8.07528 14.6107 7.98595 14.3887C7.92461 14.2353 7.89261 14.0367 7.86195 13.7713C7.83128 13.506 7.80861 13.1813 7.79328 12.8153C7.77286 12.2549 7.76619 11.6941 7.77328 11.1333C7.48421 11.3981 7.12501 11.574 6.73861 11.64C6.27928 11.718 5.86928 11.6413 5.62461 11.58C5.504 11.5497 5.38758 11.5047 5.27795 11.446C5.16461 11.3853 5.05661 11.3167 4.98461 11.1813C4.94231 11.1038 4.92884 11.0138 4.94661 10.9273C4.96915 10.8397 5.02029 10.762 5.09195 10.7067C5.22395 10.5993 5.39861 10.5393 5.66195 10.4847C6.14128 10.386 6.30861 10.3187 6.41061 10.238C6.49728 10.1687 6.59528 10.0287 6.76861 9.82333C6.76779 9.81424 6.76712 9.80512 6.76661 9.796C6.4564 9.78727 6.15262 9.7055 5.87995 9.55733C5.77995 9.66267 5.26928 10.2027 4.64661 10.952C4.38461 11.2653 4.09528 11.4453 3.78995 11.458C3.48462 11.4713 3.20862 11.3173 2.97395 11.09C2.50528 10.6347 2.13128 9.85133 1.80528 8.966C1.47995 8.08067 1.21528 7.09467 1.02728 6.25467C0.838615 5.41467 0.727282 4.73733 0.711282 4.41067C0.641282 3.02267 0.965948 2.08733 1.52262 1.49733C2.07995 0.907333 2.84395 0.684 3.58861 0.641333C4.92528 0.564667 6.19461 1.03067 6.45128 1.13067C6.94595 0.794667 7.58328 0.585333 8.37928 0.598667C8.75717 0.603967 9.1332 0.652732 9.49995 0.744L9.51328 0.738C9.6747 0.681258 9.83918 0.633627 10.0059 0.595333C10.4587 0.489703 10.9217 0.433596 11.3866 0.428L11.3873 0.426667ZM11.4886 0.873333H11.3913C11.0093 0.87866 10.6288 0.921533 10.2553 1.00133C11.0859 1.36933 11.7133 1.936 12.1553 2.50133C12.4623 2.89276 12.7161 3.32318 12.9099 3.78133C12.9833 3.95733 13.0326 4.106 13.0606 4.22133C13.0746 4.27933 13.0839 4.328 13.0873 4.37867C13.0886 4.404 13.0899 4.43 13.0793 4.47467C13.0793 4.47667 13.0759 4.48133 13.0753 4.48333C13.0953 5.06733 12.9506 5.46333 12.9333 6.02067C12.9199 6.42467 13.0233 6.89933 13.0486 7.41733C13.0726 7.904 13.0139 8.43867 12.6979 8.96333C12.7246 8.99533 12.7486 9.02733 12.7739 9.05933C13.6099 7.74267 14.2126 6.286 14.5339 5.044C14.7059 4.37533 14.7973 3.76933 14.8053 3.28933C14.8119 2.80933 14.7226 2.46133 14.6086 2.316C13.7139 1.172 12.5033 0.881333 11.4886 0.873333ZM8.29528 1.044C7.50728 1.046 6.94195 1.284 6.51328 1.64067C6.07128 2.00933 5.77461 2.514 5.57995 3.03067C5.34861 3.644 5.26928 4.23733 5.23795 4.64L5.24661 4.63467C5.48461 4.50133 5.79728 4.368 6.13195 4.29067C6.46661 4.214 6.82728 4.19 7.15395 4.31667C7.48061 4.44333 7.75061 4.74133 7.84861 5.19333C8.31795 7.36467 7.70261 8.172 7.47595 8.78133C7.38996 9.00219 7.31629 9.22765 7.25528 9.45667C7.28395 9.45 7.31261 9.442 7.34128 9.43933C7.50128 9.426 7.62661 9.47933 7.70128 9.51133C7.92928 9.606 8.08595 9.80467 8.17061 10.0313C8.19261 10.0907 8.20861 10.1547 8.21795 10.2207C8.2278 10.2478 8.23233 10.2765 8.23128 10.3053C8.20601 11.1359 8.2089 11.967 8.23995 12.7973C8.25528 13.156 8.27795 13.472 8.30661 13.7213C8.33528 13.97 8.37595 14.1593 8.40195 14.2233C8.48728 14.4367 8.61195 14.716 8.83728 14.906C9.06261 15.0953 9.38595 15.222 9.97661 15.0953C10.4886 14.9853 10.8046 14.8327 11.0159 14.6133C11.2266 14.394 11.3526 14.0887 11.4333 13.6213C11.5539 12.9213 11.7966 10.8913 11.8259 10.5093C11.8126 10.2213 11.8553 10 11.9473 9.83133C12.0419 9.658 12.1886 9.552 12.3153 9.49467C12.3786 9.466 12.4379 9.44667 12.4866 9.43267C12.4351 9.35863 12.3811 9.28636 12.3246 9.216C12.142 8.99451 11.9924 8.74773 11.8806 8.48333C11.8271 8.37415 11.7699 8.26675 11.7093 8.16133C11.6206 8.00133 11.5086 7.80133 11.3913 7.57667C11.1566 7.12667 10.9013 6.58133 10.7686 6.05C10.6366 5.51933 10.6173 4.97 10.9559 4.58267C11.2559 4.23867 11.7826 4.096 12.5733 4.176C12.5499 4.106 12.5359 4.048 12.4966 3.95467C12.3179 3.53392 12.0845 3.13853 11.8026 2.77867C11.1326 1.922 10.0479 1.07267 8.37195 1.04533H8.29528V1.044ZM3.86728 1.07867C3.78262 1.07867 3.69795 1.08133 3.61395 1.086C2.94061 1.12467 2.30395 1.32 1.84862 1.80267C1.39262 2.28533 1.09262 3.07667 1.15795 4.38667C1.17062 4.63467 1.27862 5.32933 1.46395 6.15467C1.64862 6.98 1.91062 7.95133 2.22528 8.80933C2.54062 9.66733 2.92262 10.414 3.28528 10.7673C3.46795 10.944 3.62662 11.0153 3.77062 11.0093C3.91528 11.0027 4.08928 10.9193 4.30195 10.664C4.68968 10.1963 5.09211 9.74095 5.50861 9.29867C5.21309 9.04207 4.98691 8.71521 4.85095 8.3482C4.71498 7.9812 4.6736 7.58587 4.73062 7.19867C4.79928 6.706 4.80862 6.24533 4.80061 5.88133C4.79261 5.52667 4.76728 5.29067 4.76728 5.14333C4.76716 5.13911 4.76716 5.13489 4.76728 5.13067V5.12733L4.76661 5.12333C4.76622 4.35586 4.89978 3.59355 5.16128 2.872C5.34795 2.376 5.62595 1.872 6.04261 1.464C5.63328 1.32933 4.90661 1.124 4.11995 1.08533C4.03557 1.081 3.95177 1.07878 3.86728 1.07867ZM12.1326 4.6C11.6799 4.606 11.4259 4.72267 11.2926 4.87533C11.1039 5.092 11.0859 5.472 11.2033 5.94C11.3199 6.40867 11.5613 6.93267 11.7879 7.368C11.9013 7.586 12.0113 7.782 12.0999 7.94133C12.1893 8.10133 12.2546 8.21467 12.2946 8.31133C12.3313 8.40067 12.3719 8.47933 12.4133 8.55267C12.5886 8.18267 12.6199 7.81933 12.6019 7.44067C12.5786 6.972 12.4699 6.49267 12.4859 6.00733C12.5039 5.44 12.6159 5.07067 12.6259 4.632C12.4624 4.61081 12.2976 4.60012 12.1326 4.6ZM6.64328 4.67667C6.50499 4.67796 6.36727 4.6945 6.23261 4.726C5.96424 4.7912 5.70574 4.89187 5.46395 5.02533C5.38216 5.06921 5.30431 5.12006 5.23128 5.17733L5.21661 5.19067C5.22061 5.288 5.23995 5.524 5.24795 5.87133C5.25595 6.25133 5.24661 6.736 5.17328 7.26067C5.01395 8.40067 5.84128 9.34467 6.81328 9.346C6.86995 9.112 6.96328 8.87467 7.05661 8.62467C7.32728 7.89533 7.85995 7.36333 7.41128 5.28733C7.33795 4.94733 7.19262 4.81 6.99261 4.73267C6.88052 4.69302 6.76215 4.67405 6.64328 4.67667ZM11.9213 4.81267H11.9546C11.9986 4.814 12.0393 4.81867 12.0746 4.82733C12.1106 4.83533 12.1413 4.84733 12.1666 4.864C12.1796 4.87205 12.1908 4.88273 12.1994 4.89537C12.208 4.908 12.2139 4.92229 12.2166 4.93733L12.2159 4.94267C12.2172 4.97432 12.2091 5.00564 12.1926 5.03267C12.173 5.06926 12.1483 5.10292 12.1193 5.13267C12.0517 5.20714 11.9611 5.25688 11.8619 5.274C11.7655 5.28566 11.6681 5.2612 11.5886 5.20533C11.5561 5.18344 11.5269 5.15694 11.5019 5.12667C11.4804 5.10288 11.4658 5.07357 11.4599 5.042C11.4586 5.02662 11.4603 5.01112 11.4651 4.99644C11.47 4.98177 11.4777 4.96823 11.4879 4.95667C11.5098 4.93181 11.5363 4.91143 11.5659 4.89667C11.6299 4.86067 11.7166 4.834 11.8146 4.81933C11.8513 4.814 11.8873 4.81133 11.9213 4.81067V4.81267ZM6.70795 4.92467C6.74328 4.92467 6.78061 4.928 6.81861 4.93333C6.92061 4.94733 7.01128 4.97467 7.08061 5.01467C7.11443 5.03232 7.14453 5.05631 7.16928 5.08533C7.18276 5.10073 7.19291 5.11874 7.19911 5.13824C7.2053 5.15775 7.2074 5.17832 7.20528 5.19867C7.19887 5.237 7.18151 5.27265 7.15528 5.30133C7.12801 5.33482 7.09587 5.36403 7.05995 5.388C6.97325 5.44942 6.86674 5.47629 6.76128 5.46333C6.6535 5.44562 6.55485 5.39206 6.48128 5.31133C6.44998 5.27883 6.42349 5.24201 6.40261 5.202C6.38064 5.1668 6.37102 5.12528 6.37528 5.084C6.38528 5.012 6.44461 4.97467 6.50261 4.954C6.56868 4.93289 6.63801 4.92386 6.70728 4.92733L6.70795 4.92467ZM12.7479 9.82L12.7459 9.82067C12.6479 9.856 12.5673 9.87067 12.4993 9.90067C12.4305 9.92714 12.3738 9.9779 12.3399 10.0433C12.2979 10.12 12.2619 10.256 12.2726 10.4873C12.3028 10.5081 12.3361 10.5239 12.3713 10.534C12.4853 10.5687 12.6766 10.5913 12.8899 10.588C13.3153 10.5833 13.8386 10.484 14.1166 10.3547C14.3447 10.2487 14.5564 10.1107 14.7453 9.94467C13.8166 10.1367 13.2913 10.0853 12.9693 9.95267C12.8893 9.9194 12.8147 9.87513 12.7479 9.82ZM7.39395 9.88267H7.37995C7.34461 9.886 7.29328 9.898 7.19395 10.008C6.96195 10.268 6.88061 10.4313 6.68928 10.584C6.49795 10.736 6.24928 10.8173 5.75261 10.9193C5.59528 10.9513 5.50528 10.9867 5.44528 11.0153C5.46461 11.0313 5.46261 11.0353 5.49195 11.0507C5.56461 11.0907 5.65795 11.126 5.73328 11.1453C5.94662 11.1987 6.29728 11.2607 6.66328 11.1987C7.02928 11.136 7.40995 10.9607 7.73461 10.5053C7.79061 10.4267 7.79662 10.3107 7.75062 10.186C7.70395 10.0613 7.60195 9.954 7.52995 9.924C7.4871 9.90333 7.44116 9.88981 7.39395 9.884V9.88267Z" fill="#FF00FF"/>
</g>
<defs>
<clipPath id="clip0_348_3731">
<rect width="16" height="16" fill="white"/>
</clipPath>
</defs>
</svg>
