<svg width="16" height="16" viewBox="0 0 16 16" fill="none" xmlns="http://www.w3.org/2000/svg">
<g clip-path="url(#clip0_1406_3368)">
<path d="M11.4187 0C10.7971 0.0046243 10.179 0.0950328 9.5821 0.268666L9.5401 0.282C9.16354 0.215458 8.78234 0.178678 8.4001 0.172C7.61474 0.158666 6.94007 0.349334 6.39607 0.666666C5.86007 0.480666 4.74807 0.16 3.57607 0.224C2.76007 0.268666 1.8694 0.516666 1.2094 1.21334C0.551404 1.91 0.203404 2.988 0.276737 4.45466C0.296737 4.85934 0.41207 5.51934 0.603404 6.374C0.794737 7.22866 1.0634 8.22936 1.39874 9.142C1.73407 10.0554 2.1014 10.8754 2.6754 11.4326C2.96207 11.712 3.35674 11.9466 3.82207 11.9274C4.14874 11.914 4.44407 11.7706 4.69874 11.5594C4.82274 11.7226 4.9554 11.794 5.07607 11.86C5.22807 11.9434 5.37607 12 5.5294 12.0374C5.80474 12.106 6.27607 12.198 6.82807 12.104C7.01607 12.0726 7.21407 12.0114 7.4114 11.924C7.41874 12.144 7.4274 12.3594 7.43607 12.5774C7.4634 13.268 7.48074 13.906 7.68807 14.4654C7.7214 14.5566 7.81274 15.0274 8.17274 15.4426C8.53274 15.8586 9.2381 16.118 10.0414 15.946C10.6081 15.8246 11.3287 15.606 11.8074 14.9246C12.2807 14.2514 12.4941 13.2854 12.5361 11.7186C12.5467 11.634 12.5594 11.562 12.5727 11.4946L12.6854 11.5046H12.6987C13.3034 11.532 13.9594 11.446 14.5074 11.1914C14.9927 10.9666 15.3601 10.7394 15.6274 10.336C15.6941 10.236 15.7674 10.1154 15.7874 9.90736C15.8074 9.69936 15.6881 9.374 15.4901 9.224C15.0934 8.92264 14.8441 9.03736 14.5767 9.09264C14.3134 9.15088 14.0451 9.18352 13.7754 9.19C14.5461 7.892 15.0987 6.51334 15.4141 5.29334C15.6007 4.57334 15.7054 3.90934 15.7141 3.32866C15.7227 2.748 15.6754 2.234 15.3274 1.78934C14.2401 0.4 12.7114 0.016 11.5287 0.00266666C11.4921 0.002 11.4554 0.00133334 11.4187 0.002V0ZM11.3874 0.426666C12.5061 0.416 13.9354 0.73 14.9614 2.04134C15.1921 2.336 15.2607 2.76666 15.2527 3.29734C15.2441 3.82734 15.1461 4.462 14.9667 5.15734C14.6187 6.504 13.9614 8.074 13.0354 9.48264C13.0681 9.50592 13.1035 9.52512 13.1407 9.54C13.3341 9.62 13.7747 9.68864 14.6541 9.508C14.8754 9.46136 15.0374 9.43 15.2054 9.558C15.2463 9.59264 15.2785 9.63616 15.2996 9.68536C15.3208 9.73448 15.3303 9.78792 15.3274 9.84136C15.3184 9.92224 15.2886 9.99944 15.2407 10.0654C15.0707 10.3206 14.7354 10.5626 14.3054 10.762C13.9247 10.9394 13.3787 11.032 12.8947 11.0374C12.6521 11.04 12.4281 11.0214 12.2381 10.962L12.2261 10.9574C12.1527 11.664 11.9841 13.0594 11.8741 13.696C11.7861 14.2094 11.6321 14.6174 11.3381 14.9226C11.0447 15.228 10.6294 15.412 10.0707 15.532C9.37874 15.6806 8.8741 15.5206 8.54874 15.2466C8.2241 14.9734 8.07538 14.6106 7.98607 14.3886C7.92474 14.2354 7.89274 14.0366 7.86207 13.7714C7.8314 13.506 7.80874 13.1814 7.7934 12.8154C7.77298 12.2549 7.76631 11.6941 7.7734 11.1334C7.48434 11.3981 7.12513 11.574 6.73874 11.64C6.2794 11.718 5.8694 11.6414 5.62474 11.58C5.50413 11.5497 5.3877 11.5047 5.27807 11.446C5.16474 11.3854 5.05674 11.3166 4.98474 11.1814C4.94243 11.1038 4.92897 11.0138 4.94674 10.9274C4.96927 10.8397 5.02042 10.762 5.09207 10.7066C5.22407 10.5994 5.39874 10.5394 5.66207 10.4846C6.1414 10.386 6.30874 10.3186 6.41074 10.238C6.4974 10.1686 6.5954 10.0286 6.76874 9.82336C6.76791 9.81424 6.76724 9.80512 6.76674 9.796C6.45653 9.78728 6.15275 9.70552 5.88007 9.55736C5.78007 9.66264 5.2694 10.2026 4.64674 10.952C4.38474 11.2654 4.0954 11.4454 3.79007 11.458C3.48474 11.4714 3.20874 11.3174 2.97407 11.09C2.5054 10.6346 2.1314 9.85136 1.8054 8.966C1.48007 8.08064 1.2154 7.09466 1.0274 6.25466C0.838737 5.41466 0.727404 4.73734 0.711404 4.41066C0.641404 3.02266 0.966073 2.08734 1.52274 1.49734C2.08007 0.907336 2.84407 0.684 3.58874 0.641334C4.9254 0.564666 6.19474 1.03066 6.4514 1.13066C6.94607 0.794666 7.5834 0.585334 8.37938 0.598666C8.7573 0.603967 9.1333 0.652732 9.5001 0.744L9.51338 0.738C9.67482 0.681258 9.8393 0.633627 10.0061 0.595334C10.4589 0.489703 10.9218 0.433596 11.3867 0.428L11.3874 0.426666ZM11.4887 0.873336H11.3914C11.0095 0.878664 10.629 0.921536 10.2554 1.00134C11.0861 1.36934 11.7134 1.936 12.1554 2.50134C12.4624 2.89276 12.7162 3.32318 12.9101 3.78134C12.9834 3.95734 13.0327 4.106 13.0607 4.22134C13.0747 4.27934 13.0841 4.328 13.0874 4.37866C13.0887 4.404 13.0901 4.43 13.0794 4.47466C13.0794 4.47666 13.0761 4.48134 13.0754 4.48334C13.0954 5.06734 12.9507 5.46334 12.9334 6.02066C12.9201 6.42466 13.0234 6.89934 13.0487 7.41734C13.0727 7.904 13.0141 8.43864 12.6981 8.96336C12.7247 8.99536 12.7487 9.02736 12.7741 9.05936C13.6101 7.74266 14.2127 6.286 14.5341 5.044C14.7061 4.37534 14.7974 3.76934 14.8054 3.28934C14.8121 2.80934 14.7227 2.46134 14.6087 2.316C13.7141 1.172 12.5034 0.881336 11.4887 0.873336ZM8.29538 1.044C7.5074 1.046 6.94207 1.284 6.5134 1.64066C6.0714 2.00934 5.77474 2.514 5.58007 3.03066C5.34874 3.644 5.2694 4.23734 5.23807 4.64L5.24674 4.63466C5.48474 4.50134 5.7974 4.368 6.13207 4.29066C6.46674 4.214 6.8274 4.19 7.15407 4.31666C7.48074 4.44334 7.75074 4.74134 7.84874 5.19334C8.3181 7.36466 7.70274 8.172 7.47607 8.78136C7.39008 9.00216 7.31641 9.22768 7.2554 9.45664C7.28407 9.45 7.31274 9.442 7.3414 9.43936C7.5014 9.426 7.62674 9.47936 7.7014 9.51136C7.9294 9.606 8.0861 9.80464 8.17074 10.0314C8.19274 10.0906 8.20874 10.1546 8.2181 10.2206C8.22794 10.2478 8.23242 10.2765 8.23138 10.3054C8.2061 11.1358 8.20898 11.967 8.2401 12.7974C8.25538 13.156 8.2781 13.472 8.30674 13.7214C8.33538 13.97 8.3761 14.1594 8.4021 14.2234C8.48738 14.4366 8.6121 14.716 8.83738 14.906C9.06274 15.0954 9.3861 15.222 9.97674 15.0954C10.4887 14.9854 10.8047 14.8326 11.0161 14.6134C11.2267 14.394 11.3527 14.0886 11.4334 13.6214C11.5541 12.9214 11.7967 10.8914 11.8261 10.5094C11.8127 10.2214 11.8554 10 11.9474 9.83136C12.0421 9.658 12.1887 9.552 12.3154 9.49464C12.3787 9.466 12.4381 9.44664 12.4867 9.43264C12.4352 9.35864 12.3812 9.2864 12.3247 9.216C12.1421 8.99448 11.9926 8.74776 11.8807 8.48336C11.8272 8.37416 11.77 8.26672 11.7094 8.16136C11.6207 8.00136 11.5087 7.80134 11.3914 7.57666C11.1567 7.12666 10.9014 6.58134 10.7687 6.05C10.6367 5.51934 10.6174 4.97 10.9561 4.58266C11.2561 4.23866 11.7827 4.096 12.5734 4.176C12.5501 4.106 12.5361 4.048 12.4967 3.95466C12.318 3.53393 12.0847 3.13853 11.8027 2.77866C11.1327 1.922 10.0481 1.07266 8.3721 1.04534H8.29538V1.044ZM3.8674 1.07866C3.78274 1.07866 3.69807 1.08134 3.61407 1.086C2.94074 1.12466 2.30407 1.32 1.84874 1.80266C1.39274 2.28534 1.09274 3.07666 1.15807 4.38666C1.17074 4.63466 1.27874 5.32934 1.46407 6.15466C1.64874 6.98 1.91074 7.95134 2.2254 8.80936C2.54074 9.66736 2.92274 10.414 3.2854 10.7674C3.46807 10.944 3.62674 11.0154 3.77074 11.0094C3.9154 11.0026 4.0894 10.9194 4.30207 10.664C4.68981 10.1963 5.09223 9.74096 5.50874 9.29864C5.21321 9.04208 4.98703 8.7152 4.85107 8.34824C4.71511 7.9812 4.67372 7.58587 4.73074 7.19866C4.7994 6.706 4.80874 6.24534 4.80074 5.88134C4.79274 5.52666 4.7674 5.29066 4.7674 5.14334C4.76728 5.13911 4.76728 5.13489 4.7674 5.13066V5.12734L4.76674 5.12334C4.76634 4.35586 4.8999 3.59354 5.1614 2.872C5.34807 2.376 5.62607 1.872 6.04274 1.464C5.6334 1.32934 4.90674 1.124 4.12007 1.08534C4.0357 1.081 3.95189 1.07878 3.8674 1.07866ZM12.1327 4.6C11.6801 4.606 11.4261 4.72266 11.2927 4.87534C11.1041 5.092 11.0861 5.472 11.2034 5.94C11.3201 6.40866 11.5614 6.93266 11.7881 7.368C11.9014 7.586 12.0114 7.782 12.1001 7.94134C12.1894 8.10136 12.2547 8.21464 12.2947 8.31136C12.3314 8.40064 12.3721 8.47936 12.4134 8.55264C12.5887 8.18264 12.6201 7.81934 12.6021 7.44066C12.5787 6.972 12.4701 6.49266 12.4861 6.00734C12.5041 5.44 12.6161 5.07066 12.6261 4.632C12.4625 4.61081 12.2977 4.60012 12.1327 4.6ZM6.6434 4.67666C6.50511 4.67796 6.36739 4.6945 6.23274 4.726C5.96436 4.79121 5.70587 4.89186 5.46407 5.02534C5.38228 5.06921 5.30443 5.12006 5.2314 5.17734L5.21674 5.19066C5.22074 5.288 5.24007 5.524 5.24807 5.87134C5.25607 6.25134 5.24674 6.736 5.1734 7.26066C5.01407 8.40064 5.8414 9.34464 6.8134 9.346C6.87007 9.112 6.9634 8.87464 7.05674 8.62464C7.3274 7.89534 7.86007 7.36334 7.4114 5.28734C7.33807 4.94734 7.19274 4.81 6.99274 4.73266C6.88064 4.69302 6.76227 4.67405 6.6434 4.67666ZM11.9214 4.81266H11.9547C11.9987 4.814 12.0394 4.81866 12.0747 4.82734C12.1107 4.83534 12.1414 4.84734 12.1667 4.864C12.1797 4.87205 12.1909 4.88274 12.1995 4.89537C12.2081 4.908 12.214 4.9223 12.2167 4.93734L12.2161 4.94266C12.2174 4.97431 12.2092 5.00564 12.1927 5.03266C12.1731 5.06926 12.1484 5.10292 12.1194 5.13266C12.0518 5.20714 11.9612 5.25689 11.8621 5.274C11.7656 5.28566 11.6683 5.2612 11.5887 5.20534C11.5562 5.18344 11.527 5.15694 11.5021 5.12666C11.4805 5.10288 11.4659 5.07357 11.4601 5.042C11.4587 5.02662 11.4604 5.01111 11.4652 4.99644C11.4701 4.98177 11.4779 4.96823 11.4881 4.95666C11.5099 4.93181 11.5364 4.91143 11.5661 4.89666C11.6301 4.86066 11.7167 4.834 11.8147 4.81934C11.8514 4.814 11.8874 4.81134 11.9214 4.81066V4.81266ZM6.70807 4.92466C6.7434 4.92466 6.78074 4.928 6.81874 4.93334C6.92074 4.94734 7.0114 4.97466 7.08074 5.01466C7.11455 5.03232 7.14466 5.05631 7.1694 5.08534C7.18288 5.10073 7.19303 5.11874 7.19923 5.13825C7.20543 5.15774 7.20752 5.17831 7.2054 5.19866C7.19899 5.237 7.18163 5.27266 7.1554 5.30134C7.12813 5.33482 7.09599 5.36403 7.06007 5.388C6.97337 5.44942 6.86687 5.47629 6.7614 5.46334C6.65363 5.44562 6.55498 5.39206 6.4814 5.31134C6.45011 5.27882 6.42361 5.24201 6.40274 5.202C6.38076 5.1668 6.37115 5.12528 6.3754 5.084C6.3854 5.012 6.44474 4.97466 6.50274 4.954C6.5688 4.93289 6.63813 4.92386 6.7074 4.92734L6.70807 4.92466ZM12.7481 9.82L12.7461 9.82064C12.6481 9.856 12.5674 9.87064 12.4994 9.90064C12.4307 9.92712 12.3739 9.97792 12.3401 10.0434C12.2981 10.12 12.2621 10.256 12.2727 10.4874C12.3029 10.5081 12.3362 10.5238 12.3714 10.534C12.4854 10.5686 12.6767 10.5914 12.8901 10.588C13.3154 10.5834 13.8387 10.484 14.1167 10.3546C14.3448 10.2487 14.5565 10.1106 14.7454 9.94464C13.8167 10.1366 13.2914 10.0854 12.9694 9.95264C12.8895 9.91936 12.8148 9.87512 12.7481 9.82ZM7.39407 9.88264H7.38007C7.34474 9.886 7.2934 9.898 7.19407 10.008C6.96207 10.268 6.88074 10.4314 6.6894 10.584C6.49807 10.736 6.2494 10.8174 5.75274 10.9194C5.5954 10.9514 5.5054 10.9866 5.4454 11.0154C5.46474 11.0314 5.46274 11.0354 5.49207 11.0506C5.56474 11.0906 5.65807 11.126 5.7334 11.1454C5.94674 11.1986 6.2974 11.2606 6.6634 11.1986C7.0294 11.136 7.41007 10.9606 7.73474 10.5054C7.79074 10.4266 7.79674 10.3106 7.75074 10.186C7.70407 10.0614 7.60207 9.954 7.53007 9.924C7.48723 9.90336 7.44128 9.88984 7.39407 9.884V9.88264Z" fill="black"/>
<path fill-rule="evenodd" clip-rule="evenodd" d="M11.3873 0.426652C12.506 0.415985 13.9353 0.729985 14.9613 2.04132C15.192 2.33599 15.2607 2.76665 15.2527 3.29732C15.244 3.82732 15.146 4.46199 14.9667 5.15732C14.6187 6.50398 13.9613 8.07398 13.0353 9.48262C13.068 9.5059 13.1034 9.5251 13.1407 9.53998C13.334 9.61998 13.7747 9.68862 14.654 9.50798C14.8753 9.46134 15.0373 9.42998 15.2053 9.55798C15.2462 9.59262 15.2784 9.63614 15.2995 9.68534C15.3207 9.73446 15.3303 9.7879 15.3273 9.84134C15.3183 9.92222 15.2885 9.99942 15.2407 10.0653C15.0707 10.3206 14.7353 10.5626 14.3053 10.762C13.9247 10.9393 13.3787 11.032 12.8947 11.0373C12.652 11.04 12.428 11.0213 12.238 10.962L12.226 10.9573C12.1527 11.664 11.984 13.0593 11.874 13.696C11.786 14.2093 11.632 14.6173 11.338 14.9226C11.0447 15.228 10.6293 15.412 10.0707 15.532C9.37866 15.6806 8.87403 15.5206 8.54867 15.2466C8.22403 14.9733 8.0753 14.6106 7.986 14.3886C7.92466 14.2353 7.89267 14.0366 7.862 13.7713C7.83133 13.506 7.80867 13.1813 7.79333 12.8153C7.77291 12.2549 7.76624 11.6941 7.77333 11.1333C7.48427 11.3981 7.12506 11.574 6.73867 11.64C6.27933 11.718 5.86933 11.6413 5.62467 11.58C5.50406 11.5497 5.38763 11.5047 5.278 11.446C5.16467 11.3853 5.05667 11.3166 4.98467 11.1813C4.94236 11.1038 4.9289 11.0138 4.94667 10.9273C4.96919 10.8397 5.02035 10.762 5.092 10.7066C5.224 10.5993 5.39867 10.5393 5.662 10.4846C6.14133 10.386 6.30867 10.3186 6.41067 10.238C6.49733 10.1686 6.59533 10.0286 6.76867 9.82334C6.76783 9.81422 6.76717 9.8051 6.76667 9.79598C6.45646 9.78726 6.15267 9.7055 5.88 9.55734C5.78 9.66262 5.26933 10.2026 4.64667 10.952C4.38467 11.2653 4.09533 11.4453 3.79 11.458C3.48467 11.4713 3.20867 11.3173 2.974 11.09C2.50533 10.6346 2.13133 9.85134 1.80533 8.96598C1.48 8.08062 1.21533 7.09465 1.02733 6.25465C0.838666 5.41465 0.727333 4.73732 0.711333 4.41065C0.641333 3.02265 0.966002 2.08732 1.52267 1.49732C2.08 0.907321 2.844 0.683985 3.58867 0.641319C4.92533 0.564651 6.19467 1.03065 6.45133 1.13065C6.946 0.794651 7.58333 0.585319 8.37931 0.598651C8.75723 0.603952 9.13323 0.652717 9.50003 0.743985L9.5133 0.737985C9.67475 0.681243 9.83922 0.633612 10.006 0.595319C10.4588 0.489688 10.9217 0.433581 11.3867 0.427985L11.3873 0.426652ZM11.3913 0.873321H11.4887C12.5033 0.881321 13.714 1.17199 14.6087 2.31598C14.7227 2.46132 14.812 2.80932 14.8053 3.28932C14.7973 3.76932 14.706 4.37532 14.534 5.04398C14.2127 6.28598 13.61 7.74265 12.774 9.05934C12.7487 9.02734 12.7247 8.99534 12.698 8.96334C13.014 8.43862 13.0727 7.90398 13.0487 7.41732C13.0233 6.89932 12.92 6.42465 12.9333 6.02065C12.9507 5.46332 13.0953 5.06732 13.0753 4.48332C13.076 4.48132 13.0793 4.47665 13.0793 4.47465C13.09 4.42998 13.0887 4.40398 13.0873 4.37865C13.084 4.32798 13.0747 4.27932 13.0607 4.22132C13.0327 4.10598 12.9833 3.95732 12.91 3.78132C12.7161 3.32317 12.4623 2.89274 12.1553 2.50132C11.7133 1.93598 11.086 1.36932 10.2553 1.00132C10.6289 0.921521 11.0094 0.878649 11.3913 0.873321ZM6.51333 1.64065C6.942 1.28399 7.50733 1.04599 8.29531 1.04399V1.04532H8.37203C10.048 1.07265 11.1327 1.92199 11.8027 2.77865C12.0846 3.13851 12.3179 3.53391 12.4967 3.95465C12.536 4.04798 12.55 4.10598 12.5733 4.17598C11.7827 4.09598 11.256 4.23865 10.956 4.58265C10.6173 4.96999 10.6367 5.51932 10.7687 6.04998C10.9013 6.58132 11.1567 7.12665 11.3913 7.57665C11.5087 7.80132 11.6207 8.00134 11.7093 8.16134C11.7699 8.2667 11.8271 8.37414 11.8807 8.48334C11.9925 8.74774 12.142 8.99446 12.3247 9.21598C12.3811 9.28638 12.4351 9.35862 12.4867 9.43262C12.438 9.44662 12.3787 9.46598 12.3153 9.49462C12.1887 9.55198 12.042 9.65798 11.9473 9.83134C11.8553 9.99998 11.8127 10.2213 11.826 10.5093C11.7967 10.8913 11.554 12.9213 11.4333 13.6213C11.3527 14.0886 11.2267 14.394 11.016 14.6133C10.8047 14.8326 10.4887 14.9853 9.97667 15.0953C9.38603 15.222 9.06267 15.0953 8.83731 14.906C8.61203 14.716 8.48731 14.4366 8.40203 14.2233C8.37603 14.1593 8.33531 13.97 8.30667 13.7213C8.27803 13.472 8.25531 13.156 8.24003 12.7973C8.20891 11.967 8.20603 11.1358 8.23131 10.3053C8.23235 10.2765 8.22787 10.2477 8.21803 10.2206C8.20867 10.1546 8.19267 10.0906 8.17067 10.0313C8.08603 9.80462 7.92933 9.60598 7.70133 9.51134C7.62667 9.47934 7.50133 9.42598 7.34133 9.43934C7.31267 9.44198 7.284 9.44998 7.25533 9.45662C7.31634 9.22766 7.39001 9.00214 7.47599 8.78134C7.70267 8.17198 8.31803 7.36465 7.84867 5.19332C7.75067 4.74132 7.48067 4.44332 7.15399 4.31665C6.82733 4.18999 6.46667 4.21398 6.132 4.29065C5.79733 4.36798 5.48467 4.50132 5.24667 4.63465L5.238 4.63999C5.26933 4.23732 5.34867 3.64399 5.58 3.03065C5.77467 2.51399 6.07133 2.00932 6.51333 1.64065ZM3.614 1.08599C3.698 1.08132 3.78267 1.07865 3.86733 1.07865C3.95182 1.07876 4.03563 1.08099 4.12 1.08532C4.90667 1.12399 5.63333 1.32932 6.04267 1.46399C5.626 1.87199 5.348 2.37598 5.16133 2.87198C4.89983 3.59353 4.76627 4.35585 4.76667 5.12332L4.76733 5.12732V5.13065C4.76721 5.13487 4.76721 5.1391 4.76733 5.14332C4.76733 5.29065 4.79267 5.52665 4.80067 5.88132C4.80867 6.24532 4.79933 6.70598 4.73067 7.19865C4.67365 7.58586 4.71503 7.98118 4.85099 8.34822C4.98696 8.71518 5.21314 9.04206 5.50867 9.29862C5.09215 9.74094 4.68974 10.1963 4.302 10.664C4.08933 10.9193 3.91533 11.0026 3.77067 11.0093C3.62667 11.0153 3.468 10.944 3.28533 10.7673C2.92267 10.414 2.54067 9.66734 2.22533 8.80934C1.91067 7.95132 1.64867 6.97998 1.464 6.15465C1.27867 5.32932 1.17067 4.63465 1.158 4.38665C1.09267 3.07665 1.39267 2.28532 1.84867 1.80265C2.304 1.31999 2.94067 1.12465 3.614 1.08599ZM11.2927 4.87532C11.426 4.72265 11.68 4.60598 12.1327 4.59998C12.2976 4.6001 12.4624 4.61079 12.626 4.63198C12.616 5.07065 12.504 5.43998 12.486 6.00732C12.47 6.49265 12.5787 6.97198 12.602 7.44065C12.62 7.81932 12.5887 8.18262 12.4133 8.55262C12.372 8.47934 12.3313 8.40062 12.2947 8.31134C12.2547 8.21462 12.1893 8.10134 12.1 7.94132C12.0113 7.78198 11.9013 7.58598 11.788 7.36798C11.5613 6.93265 11.32 6.40865 11.2033 5.93998C11.086 5.47198 11.104 5.09198 11.2927 4.87532ZM6.23267 4.72598C6.36732 4.69449 6.50504 4.67794 6.64333 4.67665C6.7622 4.67403 6.88057 4.693 6.99267 4.73265C7.19267 4.80999 7.338 4.94732 7.41133 5.28732C7.85999 7.36332 7.32733 7.89532 7.05667 8.62462C6.96333 8.87462 6.87 9.11198 6.81333 9.34598C5.84133 9.34462 5.014 8.40062 5.17333 7.26065C5.24667 6.73598 5.256 6.25132 5.248 5.87132C5.24 5.52398 5.22067 5.28798 5.21667 5.19065L5.23133 5.17732C5.30436 5.12005 5.38221 5.06919 5.464 5.02532C5.70579 4.89185 5.96429 4.79119 6.23267 4.72598ZM12.746 9.82062L12.748 9.81998C12.8147 9.8751 12.8894 9.91934 12.9693 9.95262C13.2913 10.0853 13.8167 10.1366 14.7453 9.94462C14.5564 10.1106 14.3447 10.2487 14.1167 10.3546C13.8387 10.484 13.3153 10.5833 12.89 10.588C12.6767 10.5913 12.4853 10.5686 12.3713 10.534C12.3361 10.5238 12.3028 10.5081 12.2727 10.4873C12.262 10.256 12.298 10.12 12.34 10.0433C12.3739 9.9779 12.4306 9.9271 12.4993 9.90062C12.5673 9.87062 12.648 9.85598 12.746 9.82062ZM7.38 9.88262H7.394V9.88398C7.44121 9.88982 7.48715 9.90334 7.53 9.92398C7.602 9.95398 7.704 10.0613 7.75067 10.186C7.79667 10.3106 7.79067 10.4266 7.73467 10.5053C7.41 10.9606 7.02933 11.136 6.66333 11.1986C6.29733 11.2606 5.94667 11.1986 5.73333 11.1453C5.658 11.126 5.56467 11.0906 5.492 11.0506C5.46267 11.0353 5.46467 11.0313 5.44533 11.0153C5.50533 10.9866 5.59533 10.9513 5.75267 10.9193C6.24933 10.8173 6.498 10.736 6.68933 10.584C6.88067 10.4313 6.962 10.268 7.194 10.008C7.29333 9.89798 7.34467 9.88598 7.38 9.88262Z" fill="black"/>
<path d="M6.70792 4.92468C6.74325 4.92468 6.78059 4.92802 6.81859 4.93335C6.92059 4.94735 7.01125 4.97468 7.08059 5.01468C7.1144 5.03234 7.14451 5.05633 7.16925 5.08535C7.18273 5.10075 7.19288 5.11876 7.19908 5.13827C7.20528 5.15776 7.20737 5.17833 7.20525 5.19868C7.19884 5.23702 7.18148 5.27267 7.15525 5.30135C7.12798 5.33483 7.09584 5.36405 7.05992 5.38802C6.97322 5.44944 6.86672 5.47631 6.76125 5.46335C6.65348 5.44563 6.55483 5.39208 6.48125 5.31135C6.44996 5.27884 6.42346 5.24203 6.40259 5.20202C6.38061 5.16682 6.371 5.1253 6.37525 5.08402C6.38525 5.01202 6.44459 4.97468 6.50259 4.95402C6.56865 4.93291 6.63798 4.92387 6.70725 4.92735L6.70792 4.92468Z" fill="black"/>
<path d="M11.9212 4.81267H11.9546C11.9986 4.814 12.0392 4.81867 12.0746 4.82734C12.1106 4.83534 12.1412 4.84734 12.1666 4.864C12.1796 4.87205 12.1908 4.88274 12.1994 4.89537C12.208 4.908 12.2139 4.9223 12.2166 4.93734L12.216 4.94267C12.2172 4.97432 12.2091 5.00565 12.1926 5.03267C12.1729 5.06926 12.1483 5.10293 12.1192 5.13267C12.0516 5.20714 11.9611 5.25689 11.862 5.27401C11.7655 5.28566 11.6681 5.2612 11.5886 5.20534C11.556 5.18344 11.5268 5.15695 11.502 5.12667C11.4804 5.10288 11.4658 5.07357 11.46 5.042C11.4585 5.02662 11.4603 5.01112 11.4651 4.99645C11.47 4.98177 11.4777 4.96824 11.488 4.95667C11.5098 4.93181 11.5363 4.91144 11.566 4.89667C11.63 4.86067 11.7166 4.834 11.8146 4.81934C11.8512 4.814 11.8872 4.81134 11.9212 4.81067V4.81267Z" fill="black"/>
<path fill-rule="evenodd" clip-rule="evenodd" d="M11.3914 0.873352H11.4888C12.5034 0.881352 13.7141 1.17202 14.6088 2.31602C14.7228 2.46135 14.8121 2.80935 14.8054 3.28935C14.7974 3.76935 14.7061 4.37535 14.5341 5.04402C14.2128 6.28602 13.6101 7.74268 12.7741 9.05938C12.7656 9.04866 12.7573 9.03802 12.7491 9.02738C12.7324 9.00602 12.7159 8.98466 12.6981 8.96338C13.0141 8.43866 13.0728 7.90402 13.0488 7.41735C13.0377 7.19237 13.012 6.97557 12.9876 6.76918C12.9556 6.50036 12.9259 6.24922 12.9334 6.02068C12.9411 5.77545 12.9733 5.56146 13.0054 5.34893C13.0462 5.07846 13.0866 4.81038 13.0754 4.48335L13.0771 4.48012C13.0782 4.47812 13.0794 4.47468 13.0794 4.47468C13.0901 4.43002 13.0888 4.40402 13.0874 4.37868C13.0841 4.32802 13.0748 4.27935 13.0608 4.22135C13.0328 4.10602 12.9834 3.95735 12.9101 3.78135C12.7162 3.3232 12.4624 2.89278 12.1554 2.50135C11.7134 1.93602 11.0861 1.36935 10.2554 1.00135C10.629 0.921552 11.0095 0.87868 11.3914 0.873352ZM6.51342 1.64068C6.94209 1.28402 7.50742 1.04602 8.29539 1.04402V1.04535H8.37211C10.0481 1.07268 11.1328 1.92202 11.8028 2.77868C12.0847 3.13854 12.318 3.53394 12.4968 3.95468C12.5251 4.02181 12.5402 4.07066 12.5552 4.11884C12.5611 4.13766 12.5668 4.15636 12.5734 4.17602C11.7828 4.09602 11.2561 4.23868 10.9561 4.58268C10.6174 4.97002 10.6368 5.51935 10.7688 6.05002C10.9014 6.58135 11.1568 7.12668 11.3914 7.57668C11.4948 7.77452 11.594 7.95324 11.6767 8.10234C11.6879 8.12258 11.6988 8.14226 11.7094 8.16138C11.77 8.26674 11.8272 8.37418 11.8808 8.48338C11.9926 8.74778 12.1421 8.9945 12.3248 9.21602C12.3812 9.28642 12.4352 9.35866 12.4868 9.43266C12.4381 9.44666 12.3788 9.46602 12.3154 9.49466C12.1888 9.55202 12.0421 9.65802 11.9474 9.83138C11.8554 10 11.8128 10.2214 11.8261 10.5094C11.7968 10.8914 11.5541 12.9214 11.4334 13.6214C11.3528 14.0887 11.2268 14.394 11.0161 14.6134C10.8048 14.8327 10.4888 14.9854 9.97675 15.0954C9.38611 15.222 9.06275 15.0954 8.83739 14.906C8.61211 14.716 8.48739 14.4367 8.40211 14.2234C8.37611 14.1594 8.33539 13.97 8.30675 13.7214C8.27811 13.472 8.25539 13.156 8.24011 12.7974C8.20899 11.9671 8.20611 11.1359 8.23139 10.3054C8.23243 10.2765 8.22795 10.2478 8.21811 10.2207C8.20875 10.1547 8.19275 10.0907 8.17075 10.0314C8.08611 9.80466 7.92942 9.60602 7.70142 9.51138C7.62675 9.47938 7.50142 9.42602 7.34142 9.43938C7.31849 9.44146 7.29555 9.44706 7.27263 9.45258C7.26689 9.45394 7.26115 9.45538 7.25542 9.45666C7.31643 9.2277 7.3901 9.00218 7.47608 8.78138C7.51023 8.68954 7.55319 8.5933 7.59994 8.4885C7.86352 7.89784 8.24739 7.0376 7.84875 5.19335C7.75075 4.74135 7.48075 4.44335 7.15408 4.31668C6.82742 4.19002 6.46675 4.21402 6.13209 4.29068C5.79742 4.36802 5.48475 4.50135 5.24675 4.63468L5.23809 4.64002C5.26942 4.23735 5.34875 3.64402 5.58009 3.03068C5.77475 2.51402 6.07142 2.00935 6.51342 1.64068ZM3.61409 1.08602C3.69809 1.08135 3.78275 1.07868 3.86742 1.07868C3.95191 1.07879 4.03571 1.08102 4.12009 1.08535C4.90675 1.12402 5.63342 1.32935 6.04275 1.46402C5.62609 1.87202 5.34809 2.37602 5.16142 2.87202C4.89991 3.59356 4.76635 4.35588 4.76675 5.12335L4.76742 5.12735V5.13068C4.7673 5.1349 4.7673 5.13913 4.76742 5.14335C4.76742 5.20942 4.77251 5.29331 4.77886 5.39774C4.78666 5.5262 4.79634 5.68573 4.80075 5.88135C4.80875 6.24535 4.79942 6.70602 4.73075 7.19868C4.67374 7.58589 4.71512 7.98122 4.85108 8.34826C4.98705 8.71522 5.21323 9.0421 5.50875 9.29866C5.09224 9.74098 4.68983 10.1963 4.30209 10.664C4.08942 10.9194 3.91542 11.0027 3.77075 11.0094C3.62675 11.0154 3.46809 10.944 3.28542 10.7674C2.92275 10.414 2.54075 9.66738 2.22542 8.80938C1.91075 7.95135 1.64875 6.98002 1.46409 6.15468C1.27875 5.32935 1.17075 4.63468 1.15809 4.38668C1.09275 3.07668 1.39275 2.28535 1.84875 1.80268C2.30409 1.32002 2.94075 1.12468 3.61409 1.08602ZM11.2928 4.87535C11.4261 4.72268 11.6801 4.60602 12.1328 4.60002C12.2977 4.60014 12.4625 4.61082 12.6261 4.63202C12.6213 4.84142 12.5933 5.03503 12.5634 5.24192C12.5306 5.46842 12.4955 5.71085 12.4861 6.00735C12.4765 6.29794 12.5116 6.58638 12.5464 6.87167C12.5696 7.06286 12.5928 7.25263 12.6021 7.44068C12.6201 7.81935 12.5888 8.18266 12.4134 8.55266C12.3721 8.47938 12.3314 8.40066 12.2948 8.31138C12.2595 8.22602 12.2044 8.1277 12.1305 7.99581C12.1208 7.97826 12.1106 7.96013 12.1001 7.94135C12.0919 7.92661 12.0835 7.91155 12.0749 7.89619C11.9911 7.74555 11.8909 7.56584 11.7881 7.36802C11.5614 6.93268 11.3201 6.40868 11.2034 5.94002C11.0861 5.47202 11.1041 5.09202 11.2928 4.87535ZM6.23275 4.72602C6.36741 4.69452 6.50513 4.67798 6.64342 4.67668C6.76229 4.67406 6.88066 4.69303 6.99275 4.73268C7.19275 4.81002 7.33809 4.94735 7.41142 5.28735C7.78254 7.00453 7.48223 7.66532 7.21416 8.25522C7.15815 8.3785 7.10354 8.49866 7.05675 8.62466C7.0457 8.65426 7.03465 8.6837 7.02366 8.71298C6.94183 8.93082 6.86338 9.1397 6.81342 9.34602C5.84142 9.34466 5.01409 8.40066 5.17342 7.26068C5.24675 6.73602 5.25609 6.25135 5.24809 5.87135C5.2423 5.62002 5.23058 5.42699 5.22302 5.30261C5.22014 5.25509 5.21786 5.21758 5.21675 5.19068L5.23142 5.17735C5.30445 5.12008 5.3823 5.06922 5.46409 5.02535C5.70588 4.89188 5.96438 4.79122 6.23275 4.72602ZM11.9548 4.81268H11.9214V4.81068C11.8874 4.81135 11.8514 4.81402 11.8148 4.81935C11.7168 4.83402 11.6301 4.86068 11.5661 4.89668C11.5364 4.91145 11.51 4.93182 11.4881 4.95668C11.4779 4.96825 11.4701 4.98178 11.4652 4.99646C11.4604 5.01113 11.4587 5.02663 11.4601 5.04202C11.466 5.07358 11.4805 5.1029 11.5021 5.12668C11.527 5.15696 11.5562 5.18346 11.5888 5.20535C11.6683 5.26122 11.7656 5.28567 11.8621 5.27402C11.9612 5.2569 12.0518 5.20715 12.1194 5.13268C12.1484 5.10294 12.1731 5.06927 12.1928 5.03268C12.2092 5.00566 12.2174 4.97433 12.2161 4.94268L12.2168 4.93735C12.214 4.92231 12.2081 4.90802 12.1996 4.89538C12.1909 4.88275 12.1797 4.87206 12.1668 4.86402C12.1414 4.84735 12.1108 4.83535 12.0748 4.82735C12.0394 4.81868 11.9988 4.81402 11.9548 4.81268ZM6.81875 4.93335C6.78075 4.92802 6.74342 4.92468 6.70809 4.92468L6.70742 4.92735C6.63814 4.92387 6.56882 4.9329 6.50275 4.95402C6.44475 4.97468 6.38542 5.01202 6.37542 5.08402C6.37116 5.1253 6.38078 5.16682 6.40275 5.20202C6.42362 5.24202 6.45012 5.27884 6.48142 5.31135C6.55499 5.39208 6.65364 5.44563 6.76142 5.46335C6.86688 5.4763 6.97339 5.44944 7.06009 5.38802C7.09601 5.36405 7.12815 5.33483 7.15542 5.30135C7.18164 5.27267 7.19901 5.23702 7.20542 5.19868C7.20754 5.17833 7.20544 5.15776 7.19924 5.13826C7.19305 5.11876 7.1829 5.10074 7.16942 5.08535C7.14467 5.05633 7.11457 5.03234 7.08075 5.01468C7.01142 4.97468 6.92075 4.94735 6.81875 4.93335ZM12.7461 9.82066L12.7481 9.82002C12.8148 9.87514 12.8895 9.91938 12.9694 9.95266C13.2914 10.0854 13.8168 10.1367 14.7454 9.94466C14.5565 10.1107 14.3448 10.2487 14.1168 10.3547C13.8388 10.484 13.3154 10.5834 12.8901 10.588C12.6768 10.5914 12.4854 10.5687 12.3714 10.534C12.3362 10.5239 12.3029 10.5081 12.2728 10.4874C12.2621 10.256 12.2981 10.12 12.3401 10.0434C12.374 9.97794 12.4307 9.92714 12.4994 9.90066C12.5367 9.88426 12.5777 9.87242 12.6233 9.8593C12.661 9.84842 12.7018 9.83666 12.7461 9.82066ZM7.38009 9.88266H7.39409V9.88402C7.4413 9.88986 7.48724 9.90338 7.53009 9.92402C7.60209 9.95402 7.70409 10.0614 7.75075 10.186C7.79675 10.3107 7.79075 10.4267 7.73475 10.5054C7.41009 10.9607 7.02942 11.136 6.66342 11.1987C6.29742 11.2607 5.94675 11.1987 5.73342 11.1454C5.65809 11.126 5.56475 11.0907 5.49209 11.0507C5.47193 11.0402 5.46657 11.035 5.45891 11.0275C5.45543 11.0242 5.45147 11.0203 5.44542 11.0154C5.50542 10.9867 5.59542 10.9514 5.75275 10.9194C6.24942 10.8174 6.49809 10.736 6.68942 10.584C6.80634 10.4907 6.88219 10.3935 6.97644 10.2726C7.03643 10.1956 7.10386 10.1091 7.19409 10.008C7.29342 9.89802 7.34475 9.88602 7.38009 9.88266Z" fill="#336791"/>
<path fill-rule="evenodd" clip-rule="evenodd" d="M11.3873 0.426652C12.506 0.415985 13.9353 0.729985 14.9613 2.04132C15.192 2.33599 15.2607 2.76665 15.2527 3.29732C15.244 3.82732 15.146 4.46199 14.9667 5.15732C14.6187 6.50398 13.9613 8.07398 13.0353 9.48262C13.068 9.5059 13.1034 9.5251 13.1407 9.53998C13.334 9.61998 13.7747 9.68862 14.654 9.50798C14.8753 9.46134 15.0373 9.42998 15.2053 9.55798C15.2462 9.59262 15.2784 9.63614 15.2995 9.68534C15.3207 9.73446 15.3303 9.7879 15.3273 9.84134C15.3183 9.92222 15.2885 9.99942 15.2407 10.0653C15.0707 10.3206 14.7353 10.5626 14.3053 10.762C13.9247 10.9393 13.3787 11.032 12.8947 11.0373C12.652 11.04 12.428 11.0213 12.238 10.962L12.226 10.9573C12.1527 11.664 11.984 13.0593 11.874 13.696C11.786 14.2093 11.632 14.6173 11.338 14.9226C11.0447 15.228 10.6293 15.412 10.0707 15.532C9.37866 15.6806 8.87403 15.5206 8.54867 15.2466C8.22403 14.9733 8.0753 14.6106 7.986 14.3886C7.92466 14.2353 7.89267 14.0366 7.862 13.7713C7.83133 13.506 7.80867 13.1813 7.79333 12.8153C7.77291 12.2549 7.76624 11.6941 7.77333 11.1333C7.48427 11.3981 7.12506 11.574 6.73867 11.64C6.27933 11.718 5.86933 11.6413 5.62467 11.58C5.50406 11.5497 5.38763 11.5047 5.278 11.446C5.16467 11.3853 5.05667 11.3166 4.98467 11.1813C4.94236 11.1038 4.9289 11.0138 4.94667 10.9273C4.96919 10.8397 5.02035 10.762 5.092 10.7066C5.224 10.5993 5.39867 10.5393 5.662 10.4846C6.14133 10.386 6.30867 10.3186 6.41067 10.238C6.49733 10.1686 6.59533 10.0286 6.76867 9.82334C6.76783 9.81422 6.76717 9.8051 6.76667 9.79598C6.45646 9.78726 6.15267 9.7055 5.88 9.55734C5.78 9.66262 5.26933 10.2026 4.64667 10.952C4.38467 11.2653 4.09533 11.4453 3.79 11.458C3.48467 11.4713 3.20867 11.3173 2.974 11.09C2.50533 10.6346 2.13133 9.85134 1.80533 8.96598C1.48 8.08062 1.21533 7.09465 1.02733 6.25465C0.838666 5.41465 0.727333 4.73732 0.711333 4.41065C0.641333 3.02265 0.966002 2.08732 1.52267 1.49732C2.08 0.907321 2.844 0.683985 3.58867 0.641319C4.92533 0.564651 6.19467 1.03065 6.45133 1.13065C6.946 0.794651 7.58333 0.585319 8.37931 0.598651C8.75723 0.603952 9.13323 0.652717 9.50003 0.743985L9.5133 0.737985C9.67475 0.681243 9.83922 0.633612 10.006 0.595319C10.4588 0.489688 10.9217 0.433581 11.3867 0.427985L11.3873 0.426652ZM11.3913 0.873321H11.4887C12.5033 0.881321 13.714 1.17199 14.6087 2.31598C14.7227 2.46132 14.812 2.80932 14.8053 3.28932C14.7973 3.76932 14.706 4.37532 14.534 5.04398C14.2127 6.28598 13.61 7.74265 12.774 9.05934L12.749 9.02734C12.7323 9.00598 12.7158 8.98462 12.698 8.96334C13.014 8.43862 13.0727 7.90398 13.0487 7.41732C13.0376 7.19234 13.0119 6.97554 12.9875 6.76914C12.9555 6.50033 12.9258 6.24918 12.9333 6.02065C12.941 5.77542 12.9732 5.56142 13.0053 5.3489C13.0461 5.07843 13.0865 4.81035 13.0753 4.48332L13.077 4.48009C13.0781 4.47809 13.0793 4.47465 13.0793 4.47465C13.09 4.42998 13.0887 4.40398 13.0873 4.37865C13.084 4.32798 13.0747 4.27932 13.0607 4.22132C13.0327 4.10598 12.9833 3.95732 12.91 3.78132C12.7161 3.32317 12.4623 2.89274 12.1553 2.50132C11.7133 1.93598 11.086 1.36932 10.2553 1.00132C10.6289 0.921521 11.0094 0.878649 11.3913 0.873321ZM6.51333 1.64065C6.942 1.28399 7.50733 1.04599 8.29531 1.04399V1.04532H8.37203C10.048 1.07265 11.1327 1.92199 11.8027 2.77865C12.0846 3.13851 12.3179 3.53391 12.4967 3.95465C12.525 4.02178 12.5401 4.07062 12.5551 4.11881C12.561 4.13762 12.5667 4.15633 12.5733 4.17598C11.7827 4.09598 11.256 4.23865 10.956 4.58265C10.6173 4.96999 10.6367 5.51932 10.7687 6.04998C10.9013 6.58132 11.1567 7.12665 11.3913 7.57665C11.4947 7.77449 11.5939 7.95321 11.6766 8.1023L11.7093 8.16134C11.7699 8.2667 11.8271 8.37414 11.8807 8.48334C11.9925 8.74774 12.142 8.99446 12.3247 9.21598C12.3811 9.28638 12.4351 9.35862 12.4867 9.43262C12.438 9.44662 12.3787 9.46598 12.3153 9.49462C12.1887 9.55198 12.042 9.65798 11.9473 9.83134C11.8553 9.99998 11.8127 10.2213 11.826 10.5093C11.7967 10.8913 11.554 12.9213 11.4333 13.6213C11.3527 14.0886 11.2267 14.394 11.016 14.6133C10.8047 14.8326 10.4887 14.9853 9.97667 15.0953C9.38603 15.222 9.06267 15.0953 8.83731 14.906C8.61203 14.716 8.48731 14.4366 8.40203 14.2233C8.37603 14.1593 8.33531 13.97 8.30667 13.7213C8.27803 13.472 8.25531 13.156 8.24003 12.7973C8.20891 11.967 8.20603 11.1358 8.23131 10.3053C8.23235 10.2765 8.22787 10.2477 8.21803 10.2206C8.20867 10.1546 8.19267 10.0906 8.17067 10.0313C8.08603 9.80462 7.92933 9.60598 7.70133 9.51134C7.62667 9.47934 7.50133 9.42598 7.34133 9.43934C7.3184 9.44142 7.29547 9.44702 7.27254 9.45254L7.25533 9.45662C7.31634 9.22766 7.39001 9.00214 7.47599 8.78134C7.51014 8.6895 7.55311 8.59326 7.59985 8.48846C7.86343 7.89781 8.24731 7.03757 7.84867 5.19332C7.75067 4.74132 7.48067 4.44332 7.15399 4.31665C6.82733 4.18999 6.46667 4.21398 6.132 4.29065C5.79733 4.36798 5.48467 4.50132 5.24667 4.63465L5.238 4.63999C5.26933 4.23732 5.34867 3.64399 5.58 3.03065C5.77467 2.51399 6.07133 2.00932 6.51333 1.64065ZM3.614 1.08599C3.698 1.08132 3.78267 1.07865 3.86733 1.07865C3.95182 1.07876 4.03563 1.08099 4.12 1.08532C4.90667 1.12399 5.63333 1.32932 6.04267 1.46399C5.626 1.87199 5.348 2.37598 5.16133 2.87198C4.89983 3.59353 4.76627 4.35585 4.76667 5.12332L4.76733 5.12732V5.13065C4.76721 5.13487 4.76721 5.1391 4.76733 5.14332C4.76733 5.20938 4.77243 5.29328 4.77877 5.39771C4.78657 5.52617 4.79625 5.6857 4.80067 5.88132C4.80867 6.24532 4.79933 6.70598 4.73067 7.19865C4.67365 7.58586 4.71503 7.98118 4.85099 8.34822C4.98696 8.71518 5.21314 9.04206 5.50867 9.29862C5.09215 9.74094 4.68974 10.1963 4.302 10.664C4.08933 10.9193 3.91533 11.0026 3.77067 11.0093C3.62667 11.0153 3.468 10.944 3.28533 10.7673C2.92267 10.414 2.54067 9.66734 2.22533 8.80934C1.91067 7.95132 1.64867 6.97998 1.464 6.15465C1.27867 5.32932 1.17067 4.63465 1.158 4.38665C1.09267 3.07665 1.39267 2.28532 1.84867 1.80265C2.304 1.31999 2.94067 1.12465 3.614 1.08599ZM11.2927 4.87532C11.426 4.72265 11.68 4.60598 12.1327 4.59998C12.2976 4.6001 12.4624 4.61079 12.626 4.63198C12.6212 4.84139 12.5932 5.035 12.5633 5.24189C12.5305 5.46839 12.4954 5.71082 12.486 6.00732C12.4764 6.29791 12.5115 6.58635 12.5463 6.87164C12.5695 7.06282 12.5927 7.2526 12.602 7.44065C12.62 7.81932 12.5887 8.18262 12.4133 8.55262C12.372 8.47934 12.3313 8.40062 12.2947 8.31134C12.2594 8.22598 12.2043 8.12766 12.1304 7.99578L12.1 7.94132L12.0748 7.89616C11.991 7.74552 11.8908 7.56581 11.788 7.36798C11.5613 6.93265 11.32 6.40865 11.2033 5.93998C11.086 5.47198 11.104 5.09198 11.2927 4.87532ZM6.23267 4.72598C6.36732 4.69449 6.50504 4.67794 6.64333 4.67665C6.7622 4.67403 6.88057 4.693 6.99267 4.73265C7.19267 4.80999 7.338 4.94732 7.41133 5.28732C7.78245 7.0045 7.48215 7.66529 7.21407 8.25518C7.15806 8.37846 7.10345 8.49862 7.05667 8.62462L7.02357 8.71294C6.94174 8.93078 6.86329 9.13966 6.81333 9.34598C5.84133 9.34462 5.014 8.40062 5.17333 7.26065C5.24667 6.73598 5.256 6.25132 5.248 5.87132C5.24221 5.61999 5.23049 5.42696 5.22293 5.30258C5.22005 5.25506 5.21777 5.21755 5.21667 5.19065L5.23133 5.17732C5.30436 5.12005 5.38221 5.06919 5.464 5.02532C5.70579 4.89185 5.96429 4.79119 6.23267 4.72598ZM12.746 9.82062L12.748 9.81998C12.8147 9.8751 12.8894 9.91934 12.9693 9.95262C13.2913 10.0853 13.8167 10.1366 14.7453 9.94462C14.5564 10.1106 14.3447 10.2487 14.1167 10.3546C13.8387 10.484 13.3153 10.5833 12.89 10.588C12.6767 10.5913 12.4853 10.5686 12.3713 10.534C12.3361 10.5238 12.3028 10.5081 12.2727 10.4873C12.262 10.256 12.298 10.12 12.34 10.0433C12.3739 9.9779 12.4306 9.9271 12.4993 9.90062C12.5366 9.88422 12.5776 9.87238 12.6232 9.85926C12.6609 9.84838 12.7017 9.83662 12.746 9.82062ZM7.38 9.88262H7.394V9.88398C7.44121 9.88982 7.48715 9.90334 7.53 9.92398C7.602 9.95398 7.704 10.0613 7.75067 10.186C7.79667 10.3106 7.79067 10.4266 7.73467 10.5053C7.41 10.9606 7.02933 11.136 6.66333 11.1986C6.29733 11.2606 5.94667 11.1986 5.73333 11.1453C5.658 11.126 5.56467 11.0906 5.492 11.0506C5.47184 11.0401 5.46648 11.0349 5.45883 11.0275C5.45534 11.0241 5.45138 11.0203 5.44533 11.0153C5.50533 10.9866 5.59533 10.9513 5.75267 10.9193C6.24933 10.8173 6.498 10.736 6.68933 10.584C6.80625 10.4907 6.8821 10.3934 6.97635 10.2725C7.03634 10.1956 7.10377 10.1091 7.194 10.008C7.29333 9.89798 7.34467 9.88598 7.38 9.88262Z" fill="#336791"/>
<path d="M6.70792 4.92468C6.74325 4.92468 6.78059 4.92802 6.81859 4.93335C6.92059 4.94735 7.01125 4.97468 7.08059 5.01468C7.1144 5.03234 7.14451 5.05633 7.16925 5.08535C7.18273 5.10075 7.19288 5.11876 7.19908 5.13827C7.20528 5.15776 7.20737 5.17833 7.20525 5.19868C7.19884 5.23702 7.18148 5.27267 7.15525 5.30135C7.12798 5.33483 7.09584 5.36405 7.05992 5.38802C6.97322 5.44944 6.86672 5.47631 6.76125 5.46335C6.65348 5.44563 6.55483 5.39208 6.48125 5.31135C6.44996 5.27884 6.42346 5.24203 6.40259 5.20202C6.38061 5.16682 6.371 5.1253 6.37525 5.08402C6.38525 5.01202 6.44459 4.97468 6.50259 4.95402C6.56865 4.93291 6.63798 4.92387 6.70725 4.92735L6.70792 4.92468Z" fill="#336791"/>
<path d="M11.9212 4.81267H11.9546C11.9986 4.814 12.0392 4.81867 12.0746 4.82734C12.1106 4.83534 12.1412 4.84734 12.1666 4.864C12.1796 4.87205 12.1908 4.88274 12.1994 4.89537C12.208 4.908 12.2139 4.9223 12.2166 4.93734L12.216 4.94267C12.2172 4.97432 12.2091 5.00565 12.1926 5.03267C12.1729 5.06926 12.1483 5.10293 12.1192 5.13267C12.0516 5.20714 11.9611 5.25689 11.862 5.27401C11.7655 5.28566 11.6681 5.2612 11.5886 5.20534C11.556 5.18344 11.5268 5.15695 11.502 5.12667C11.4804 5.10288 11.4658 5.07357 11.46 5.042C11.4585 5.02662 11.4603 5.01112 11.4651 4.99645C11.47 4.98177 11.4777 4.96824 11.488 4.95667C11.5098 4.93181 11.5363 4.91144 11.566 4.89667C11.63 4.86067 11.7166 4.834 11.8146 4.81934C11.8512 4.814 11.8872 4.81134 11.9212 4.81067V4.81267Z" fill="#336791"/>
<path fill-rule="evenodd" clip-rule="evenodd" d="M11.3873 0.426652C12.506 0.415985 13.9353 0.729985 14.9613 2.04132C15.192 2.33599 15.2607 2.76665 15.2527 3.29732C15.244 3.82732 15.146 4.46199 14.9667 5.15732C14.6187 6.50398 13.9613 8.07398 13.0353 9.48262C13.068 9.5059 13.1034 9.5251 13.1407 9.53998C13.334 9.61998 13.7747 9.68862 14.654 9.50798C14.8753 9.46134 15.0373 9.42998 15.2053 9.55798C15.2462 9.59262 15.2784 9.63614 15.2995 9.68534C15.3207 9.73446 15.3303 9.7879 15.3273 9.84134C15.3183 9.92222 15.2885 9.99942 15.2407 10.0653C15.0707 10.3206 14.7353 10.5626 14.3053 10.762C13.9247 10.9393 13.3787 11.032 12.8947 11.0373C12.652 11.04 12.428 11.0213 12.238 10.962L12.226 10.9573C12.1527 11.664 11.984 13.0593 11.874 13.696C11.786 14.2093 11.632 14.6173 11.338 14.9226C11.0447 15.228 10.6293 15.412 10.0707 15.532C9.37866 15.6806 8.87403 15.5206 8.54867 15.2466C8.22403 14.9733 8.0753 14.6106 7.986 14.3886C7.92466 14.2353 7.89267 14.0366 7.862 13.7713C7.83133 13.506 7.80867 13.1813 7.79333 12.8153C7.77291 12.2549 7.76624 11.6941 7.77333 11.1333C7.48427 11.3981 7.12506 11.574 6.73867 11.64C6.27933 11.718 5.86933 11.6413 5.62467 11.58C5.50406 11.5497 5.38763 11.5047 5.278 11.446C5.16467 11.3853 5.05667 11.3166 4.98467 11.1813C4.94236 11.1038 4.9289 11.0138 4.94667 10.9273C4.96919 10.8397 5.02035 10.762 5.092 10.7066C5.224 10.5993 5.39867 10.5393 5.662 10.4846C6.14133 10.386 6.30867 10.3186 6.41067 10.238C6.49733 10.1686 6.59533 10.0286 6.76867 9.82334C6.76783 9.81422 6.76717 9.8051 6.76667 9.79598C6.45646 9.78726 6.15267 9.7055 5.88 9.55734C5.78 9.66262 5.26933 10.2026 4.64667 10.952C4.38467 11.2653 4.09533 11.4453 3.79 11.458C3.48467 11.4713 3.20867 11.3173 2.974 11.09C2.50533 10.6346 2.13133 9.85134 1.80533 8.96598C1.48 8.08062 1.21533 7.09465 1.02733 6.25465C0.838666 5.41465 0.727333 4.73732 0.711333 4.41065C0.641333 3.02265 0.966002 2.08732 1.52267 1.49732C2.08 0.907321 2.844 0.683985 3.58867 0.641319C4.92533 0.564651 6.19467 1.03065 6.45133 1.13065C6.946 0.794651 7.58333 0.585319 8.37931 0.598651C8.75723 0.603952 9.13323 0.652717 9.50003 0.743985L9.5133 0.737985C9.67475 0.681243 9.83922 0.633612 10.006 0.595319C10.4588 0.489688 10.9217 0.433581 11.3867 0.427985L11.3873 0.426652ZM11.3913 0.873321H11.4887C12.5033 0.881321 13.714 1.17199 14.6087 2.31598C14.7227 2.46132 14.812 2.80932 14.8053 3.28932C14.7973 3.76932 14.706 4.37532 14.534 5.04398C14.2127 6.28598 13.61 7.74265 12.774 9.05934C12.7655 9.04862 12.7572 9.03798 12.749 9.02734C12.7323 9.00598 12.7158 8.98462 12.698 8.96334C13.014 8.43862 13.0727 7.90398 13.0487 7.41732C13.0376 7.19234 13.0119 6.97554 12.9875 6.76914C12.9555 6.50033 12.9258 6.24918 12.9333 6.02065C12.941 5.77542 12.9732 5.56142 13.0053 5.3489C13.0461 5.07843 13.0865 4.81035 13.0753 4.48332L13.077 4.48009L13.0783 4.47748L13.0793 4.47465C13.09 4.42998 13.0887 4.40398 13.0873 4.37865C13.084 4.32798 13.0747 4.27932 13.0607 4.22132C13.0327 4.10598 12.9833 3.95732 12.91 3.78132C12.7161 3.32317 12.4623 2.89274 12.1553 2.50132C11.7133 1.93598 11.086 1.36932 10.2553 1.00132C10.6289 0.921521 11.0094 0.878649 11.3913 0.873321ZM6.51333 1.64065C6.942 1.28399 7.50733 1.04599 8.29531 1.04399V1.04532H8.37203C10.048 1.07265 11.1327 1.92199 11.8027 2.77865C12.0846 3.13851 12.3179 3.53391 12.4967 3.95465C12.525 4.02178 12.5401 4.07062 12.5551 4.11881C12.561 4.13762 12.5667 4.15633 12.5733 4.17598C11.7827 4.09598 11.256 4.23865 10.956 4.58265C10.6173 4.96999 10.6367 5.51932 10.7687 6.04998C10.9013 6.58132 11.1567 7.12665 11.3913 7.57665C11.4947 7.77449 11.5939 7.95321 11.6766 8.1023C11.6878 8.12254 11.6987 8.14222 11.7093 8.16134C11.7699 8.2667 11.8271 8.37414 11.8807 8.48334C11.9925 8.74774 12.142 8.99446 12.3247 9.21598C12.3811 9.28638 12.4351 9.35862 12.4867 9.43262C12.438 9.44662 12.3787 9.46598 12.3153 9.49462C12.1887 9.55198 12.042 9.65798 11.9473 9.83134C11.8553 9.99998 11.8127 10.2213 11.826 10.5093C11.7967 10.8913 11.554 12.9213 11.4333 13.6213C11.3527 14.0886 11.2267 14.394 11.016 14.6133C10.8047 14.8326 10.4887 14.9853 9.97667 15.0953C9.38603 15.222 9.06267 15.0953 8.83731 14.906C8.61203 14.716 8.48731 14.4366 8.40203 14.2233C8.37603 14.1593 8.33531 13.97 8.30667 13.7213C8.27803 13.472 8.25531 13.156 8.24003 12.7973C8.20891 11.967 8.20603 11.1358 8.23131 10.3053C8.23235 10.2765 8.22787 10.2477 8.21803 10.2206C8.20867 10.1546 8.19267 10.0906 8.17067 10.0313C8.08603 9.80462 7.92933 9.60598 7.70133 9.51134C7.62667 9.47934 7.50133 9.42598 7.34133 9.43934C7.3184 9.44142 7.29547 9.44702 7.27254 9.45254C7.2668 9.4539 7.26107 9.45534 7.25533 9.45662C7.31634 9.22766 7.39001 9.00214 7.47599 8.78134C7.51014 8.6895 7.55311 8.59326 7.59985 8.48846C7.86343 7.89781 8.24731 7.03757 7.84867 5.19332C7.75067 4.74132 7.48067 4.44332 7.15399 4.31665C6.82733 4.18999 6.46667 4.21398 6.132 4.29065C5.79733 4.36798 5.48467 4.50132 5.24667 4.63465L5.238 4.63999C5.26933 4.23732 5.34867 3.64399 5.58 3.03065C5.77467 2.51399 6.07133 2.00932 6.51333 1.64065ZM3.614 1.08599C3.698 1.08132 3.78267 1.07865 3.86733 1.07865C3.95182 1.07876 4.03563 1.08099 4.12 1.08532C4.90667 1.12399 5.63333 1.32932 6.04267 1.46399C5.626 1.87199 5.348 2.37598 5.16133 2.87198C4.89983 3.59353 4.76627 4.35585 4.76667 5.12332L4.76733 5.12732V5.13065C4.76721 5.13487 4.76721 5.1391 4.76733 5.14332C4.76733 5.20938 4.77243 5.29328 4.77877 5.39771C4.78657 5.52617 4.79625 5.6857 4.80067 5.88132C4.80867 6.24532 4.79933 6.70598 4.73067 7.19865C4.67365 7.58586 4.71503 7.98118 4.85099 8.34822C4.98696 8.71518 5.21314 9.04206 5.50867 9.29862C5.09215 9.74094 4.68974 10.1963 4.302 10.664C4.08933 10.9193 3.91533 11.0026 3.77067 11.0093C3.62667 11.0153 3.468 10.944 3.28533 10.7673C2.92267 10.414 2.54067 9.66734 2.22533 8.80934C1.91067 7.95132 1.64867 6.97998 1.464 6.15465C1.27867 5.32932 1.17067 4.63465 1.158 4.38665C1.09267 3.07665 1.39267 2.28532 1.84867 1.80265C2.304 1.31999 2.94067 1.12465 3.614 1.08599ZM11.2927 4.87532C11.426 4.72265 11.68 4.60598 12.1327 4.59998C12.2976 4.6001 12.4624 4.61079 12.626 4.63198C12.6212 4.84139 12.5932 5.035 12.5633 5.24189C12.5305 5.46839 12.4954 5.71082 12.486 6.00732C12.4764 6.29791 12.5115 6.58635 12.5463 6.87164C12.5695 7.06282 12.5927 7.2526 12.602 7.44065C12.62 7.81932 12.5887 8.18262 12.4133 8.55262C12.372 8.47934 12.3313 8.40062 12.2947 8.31134C12.2594 8.22598 12.2043 8.12766 12.1304 7.99578C12.1207 7.97823 12.1105 7.9601 12.1 7.94132C12.0918 7.92658 12.0834 7.91152 12.0748 7.89616C11.991 7.74552 11.8908 7.56581 11.788 7.36798C11.5613 6.93265 11.32 6.40865 11.2033 5.93998C11.086 5.47198 11.104 5.09198 11.2927 4.87532ZM6.23267 4.72598C6.36732 4.69449 6.50504 4.67794 6.64333 4.67665C6.7622 4.67403 6.88057 4.693 6.99267 4.73265C7.19267 4.80999 7.338 4.94732 7.41133 5.28732C7.78245 7.0045 7.48215 7.66529 7.21407 8.25518C7.15806 8.37846 7.10345 8.49862 7.05667 8.62462C7.04561 8.65422 7.03456 8.68366 7.02357 8.71294C6.94174 8.93078 6.86329 9.13966 6.81333 9.34598C5.84133 9.34462 5.014 8.40062 5.17333 7.26065C5.24667 6.73598 5.256 6.25132 5.248 5.87132C5.24221 5.61999 5.23049 5.42696 5.22293 5.30258C5.22005 5.25506 5.21777 5.21755 5.21667 5.19065L5.23133 5.17732C5.30436 5.12005 5.38221 5.06919 5.464 5.02532C5.70579 4.89185 5.96429 4.79119 6.23267 4.72598ZM12.746 9.82062L12.748 9.81998C12.8147 9.8751 12.8894 9.91934 12.9693 9.95262C13.2913 10.0853 13.8167 10.1366 14.7453 9.94462C14.5564 10.1106 14.3447 10.2487 14.1167 10.3546C13.8387 10.484 13.3153 10.5833 12.89 10.588C12.6767 10.5913 12.4853 10.5686 12.3713 10.534C12.3361 10.5238 12.3028 10.5081 12.2727 10.4873C12.262 10.256 12.298 10.12 12.34 10.0433C12.3739 9.9779 12.4306 9.9271 12.4993 9.90062C12.5366 9.88422 12.5776 9.87238 12.6232 9.85926C12.6609 9.84838 12.7017 9.83662 12.746 9.82062ZM7.38 9.88262H7.394V9.88398C7.44121 9.88982 7.48715 9.90334 7.53 9.92398C7.602 9.95398 7.704 10.0613 7.75067 10.186C7.79667 10.3106 7.79067 10.4266 7.73467 10.5053C7.41 10.9606 7.02933 11.136 6.66333 11.1986C6.29733 11.2606 5.94667 11.1986 5.73333 11.1453C5.658 11.126 5.56467 11.0906 5.492 11.0506C5.47184 11.0401 5.46648 11.0349 5.45883 11.0275C5.45534 11.0241 5.45138 11.0203 5.44533 11.0153C5.50533 10.9866 5.59533 10.9513 5.75267 10.9193C6.24933 10.8173 6.498 10.736 6.68933 10.584C6.80625 10.4907 6.8821 10.3934 6.97635 10.2725C7.03634 10.1956 7.10377 10.1091 7.194 10.008C7.29333 9.89798 7.34467 9.88598 7.38 9.88262Z" fill="white"/>
<path d="M6.70792 4.92468C6.74325 4.92468 6.78059 4.92802 6.81859 4.93335C6.92059 4.94735 7.01125 4.97468 7.08059 5.01468C7.1144 5.03234 7.14451 5.05633 7.16925 5.08535C7.18273 5.10075 7.19288 5.11876 7.19908 5.13827C7.20528 5.15776 7.20737 5.17833 7.20525 5.19868C7.19884 5.23702 7.18148 5.27267 7.15525 5.30135C7.12798 5.33483 7.09584 5.36405 7.05992 5.38802C6.97322 5.44944 6.86672 5.47631 6.76125 5.46335C6.65348 5.44563 6.55483 5.39208 6.48125 5.31135C6.44996 5.27884 6.42346 5.24203 6.40259 5.20202C6.38061 5.16682 6.371 5.1253 6.37525 5.08402C6.38525 5.01202 6.44459 4.97468 6.50259 4.95402C6.56865 4.93291 6.63798 4.92387 6.70725 4.92735L6.70792 4.92468Z" fill="white"/>
<path d="M11.9212 4.81267H11.9546C11.9986 4.814 12.0392 4.81867 12.0746 4.82734C12.1106 4.83534 12.1412 4.84734 12.1666 4.864C12.1796 4.87205 12.1908 4.88274 12.1994 4.89537C12.208 4.908 12.2139 4.9223 12.2166 4.93734L12.216 4.94267C12.2172 4.97432 12.2091 5.00565 12.1926 5.03267C12.1729 5.06926 12.1483 5.10293 12.1192 5.13267C12.0516 5.20714 11.9611 5.25689 11.862 5.27401C11.7655 5.28566 11.6681 5.2612 11.5886 5.20534C11.556 5.18344 11.5268 5.15695 11.502 5.12667C11.4804 5.10288 11.4658 5.07357 11.46 5.042C11.4585 5.02662 11.4603 5.01112 11.4651 4.99645C11.47 4.98177 11.4777 4.96824 11.488 4.95667C11.5098 4.93181 11.5363 4.91144 11.566 4.89667C11.63 4.86067 11.7166 4.834 11.8146 4.81934C11.8512 4.814 11.8872 4.81134 11.9212 4.81067V4.81267Z" fill="white"/>
</g>
<defs>
<clipPath id="clip0_1406_3368">
<rect width="16" height="16" fill="white"/>
</clipPath>
</defs>
</svg>
