<svg width="16" height="16" viewBox="0 0 16 16" fill="none" xmlns="http://www.w3.org/2000/svg">
<g clip-path="url(#clip0_1_1040)">
<path d="M11.4186 0C10.797 0.0046243 10.1789 0.0950328 9.582 0.268666L9.54 0.282C9.16344 0.215458 8.78224 0.178678 8.4 0.172C7.61464 0.158666 6.93997 0.349334 6.39597 0.666666C5.85997 0.480666 4.74797 0.16 3.57597 0.224C2.75997 0.268666 1.8693 0.516666 1.2093 1.21334C0.551305 1.91 0.203305 2.988 0.276638 4.45466C0.296638 4.85934 0.411971 5.51934 0.603305 6.374C0.794637 7.22866 1.0633 8.22936 1.39864 9.142C1.73397 10.0554 2.1013 10.8754 2.6753 11.4326C2.96197 11.712 3.35664 11.9466 3.82197 11.9274C4.14864 11.914 4.44397 11.7706 4.69864 11.5594C4.82264 11.7226 4.9553 11.794 5.07597 11.86C5.22797 11.9434 5.37597 12 5.5293 12.0374C5.80464 12.106 6.27597 12.198 6.82797 12.104C7.01597 12.0726 7.21397 12.0114 7.4113 11.924C7.41864 12.144 7.4273 12.3594 7.43597 12.5774C7.4633 13.268 7.48064 13.906 7.68797 14.4654C7.7213 14.5566 7.81264 15.0274 8.17264 15.4426C8.53264 15.8586 9.238 16.118 10.0413 15.946C10.608 15.8246 11.3286 15.606 11.8073 14.9246C12.2806 14.2514 12.494 13.2854 12.536 11.7186C12.5466 11.634 12.5593 11.562 12.5726 11.4946L12.6853 11.5046H12.6986C13.3033 11.532 13.9593 11.446 14.5073 11.1914C14.9926 10.9666 15.36 10.7394 15.6273 10.336C15.694 10.236 15.7673 10.1154 15.7873 9.90736C15.8073 9.69936 15.688 9.374 15.49 9.224C15.0933 8.92264 14.844 9.03736 14.5766 9.09264C14.3133 9.15088 14.045 9.18352 13.7753 9.19C14.546 7.892 15.0986 6.51334 15.414 5.29334C15.6006 4.57334 15.7053 3.90934 15.714 3.32866C15.7226 2.748 15.6753 2.234 15.3273 1.78934C14.24 0.4 12.7113 0.016 11.5286 0.00266666C11.492 0.002 11.4553 0.00133334 11.4186 0.002V0ZM11.3873 0.426666C12.506 0.416 13.9353 0.73 14.9613 2.04134C15.192 2.336 15.2606 2.76666 15.2526 3.29734C15.244 3.82734 15.146 4.462 14.9666 5.15734C14.6186 6.504 13.9613 8.074 13.0353 9.48264C13.068 9.50592 13.1034 9.52512 13.1406 9.54C13.334 9.62 13.7746 9.68864 14.654 9.508C14.8753 9.46136 15.0373 9.43 15.2053 9.558C15.2462 9.59264 15.2784 9.63616 15.2995 9.68536C15.3207 9.73448 15.3302 9.78792 15.3273 9.84136C15.3183 9.92224 15.2885 9.99944 15.2406 10.0654C15.0706 10.3206 14.7353 10.5626 14.3053 10.762C13.9246 10.9394 13.3786 11.032 12.8946 11.0374C12.652 11.04 12.428 11.0214 12.238 10.962L12.226 10.9574C12.1526 11.664 11.984 13.0594 11.874 13.696C11.786 14.2094 11.632 14.6174 11.338 14.9226C11.0446 15.228 10.6293 15.412 10.0706 15.532C9.37864 15.6806 8.874 15.5206 8.54864 15.2466C8.224 14.9734 8.07528 14.6106 7.98597 14.3886C7.92464 14.2354 7.89264 14.0366 7.86197 13.7714C7.8313 13.506 7.80864 13.1814 7.7933 12.8154C7.77288 12.2549 7.76621 11.6941 7.7733 11.1334C7.48424 11.3981 7.12503 11.574 6.73864 11.64C6.2793 11.718 5.8693 11.6414 5.62464 11.58C5.50403 11.5497 5.3876 11.5047 5.27797 11.446C5.16464 11.3854 5.05664 11.3166 4.98464 11.1814C4.94233 11.1038 4.92887 11.0138 4.94664 10.9274C4.96917 10.8397 5.02032 10.762 5.09197 10.7066C5.22397 10.5994 5.39864 10.5394 5.66197 10.4846C6.1413 10.386 6.30864 10.3186 6.41064 10.238C6.4973 10.1686 6.5953 10.0286 6.76864 9.82336C6.76781 9.81424 6.76714 9.80512 6.76664 9.796C6.45643 9.78728 6.15265 9.70552 5.87997 9.55736C5.77997 9.66264 5.2693 10.2026 4.64664 10.952C4.38464 11.2654 4.0953 11.4454 3.78997 11.458C3.48464 11.4714 3.20864 11.3174 2.97397 11.09C2.5053 10.6346 2.1313 9.85136 1.8053 8.966C1.47997 8.08064 1.2153 7.09466 1.0273 6.25466C0.838638 5.41466 0.727305 4.73734 0.711305 4.41066C0.641305 3.02266 0.965974 2.08734 1.52264 1.49734C2.07997 0.907336 2.84397 0.684 3.58864 0.641334C4.9253 0.564666 6.19464 1.03066 6.4513 1.13066C6.94597 0.794666 7.5833 0.585334 8.37928 0.598666C8.7572 0.603967 9.1332 0.652732 9.5 0.744L9.51328 0.738C9.67472 0.681258 9.8392 0.633627 10.006 0.595334C10.4588 0.489703 10.9217 0.433596 11.3866 0.428L11.3873 0.426666ZM11.4886 0.873336H11.3913C11.0094 0.878664 10.6289 0.921536 10.2553 1.00134C11.086 1.36934 11.7133 1.936 12.1553 2.50134C12.4623 2.89276 12.7161 3.32318 12.91 3.78134C12.9833 3.95734 13.0326 4.106 13.0606 4.22134C13.0746 4.27934 13.084 4.328 13.0873 4.37866C13.0886 4.404 13.09 4.43 13.0793 4.47466C13.0793 4.47666 13.076 4.48134 13.0753 4.48334C13.0953 5.06734 12.9506 5.46334 12.9333 6.02066C12.92 6.42466 13.0233 6.89934 13.0486 7.41734C13.0726 7.904 13.014 8.43864 12.698 8.96336C12.7246 8.99536 12.7486 9.02736 12.774 9.05936C13.61 7.74266 14.2126 6.286 14.534 5.044C14.706 4.37534 14.7973 3.76934 14.8053 3.28934C14.812 2.80934 14.7226 2.46134 14.6086 2.316C13.714 1.172 12.5033 0.881336 11.4886 0.873336ZM8.29528 1.044C7.5073 1.046 6.94197 1.284 6.5133 1.64066C6.0713 2.00934 5.77464 2.514 5.57997 3.03066C5.34864 3.644 5.2693 4.23734 5.23797 4.64L5.24664 4.63466C5.48464 4.50134 5.7973 4.368 6.13197 4.29066C6.46664 4.214 6.8273 4.19 7.15397 4.31666C7.48064 4.44334 7.75064 4.74134 7.84864 5.19334C8.318 7.36466 7.70264 8.172 7.47597 8.78136C7.38998 9.00216 7.31631 9.22768 7.2553 9.45664C7.28397 9.45 7.31264 9.442 7.3413 9.43936C7.5013 9.426 7.62664 9.47936 7.7013 9.51136C7.9293 9.606 8.086 9.80464 8.17064 10.0314C8.19264 10.0906 8.20864 10.1546 8.218 10.2206C8.22784 10.2478 8.23232 10.2765 8.23128 10.3054C8.206 11.1358 8.20888 11.967 8.24 12.7974C8.25528 13.156 8.278 13.472 8.30664 13.7214C8.33528 13.97 8.376 14.1594 8.402 14.2234C8.48728 14.4366 8.612 14.716 8.83728 14.906C9.06264 15.0954 9.386 15.222 9.97664 15.0954C10.4886 14.9854 10.8046 14.8326 11.016 14.6134C11.2266 14.394 11.3526 14.0886 11.4333 13.6214C11.554 12.9214 11.7966 10.8914 11.826 10.5094C11.8126 10.2214 11.8553 10 11.9473 9.83136C12.042 9.658 12.1886 9.552 12.3153 9.49464C12.3786 9.466 12.438 9.44664 12.4866 9.43264C12.4351 9.35864 12.3811 9.2864 12.3246 9.216C12.142 8.99448 11.9925 8.74776 11.8806 8.48336C11.8271 8.37416 11.7699 8.26672 11.7093 8.16136C11.6206 8.00136 11.5086 7.80134 11.3913 7.57666C11.1566 7.12666 10.9013 6.58134 10.7686 6.05C10.6366 5.51934 10.6173 4.97 10.956 4.58266C11.256 4.23866 11.7826 4.096 12.5733 4.176C12.55 4.106 12.536 4.048 12.4966 3.95466C12.3179 3.53393 12.0846 3.13853 11.8026 2.77866C11.1326 1.922 10.048 1.07266 8.372 1.04534H8.29528V1.044ZM3.8673 1.07866C3.78264 1.07866 3.69797 1.08134 3.61397 1.086C2.94064 1.12466 2.30397 1.32 1.84864 1.80266C1.39264 2.28534 1.09264 3.07666 1.15797 4.38666C1.17064 4.63466 1.27864 5.32934 1.46397 6.15466C1.64864 6.98 1.91064 7.95134 2.2253 8.80936C2.54064 9.66736 2.92264 10.414 3.2853 10.7674C3.46797 10.944 3.62664 11.0154 3.77064 11.0094C3.9153 11.0026 4.0893 10.9194 4.30197 10.664C4.68971 10.1963 5.09213 9.74096 5.50864 9.29864C5.21311 9.04208 4.98693 8.7152 4.85097 8.34824C4.71501 7.9812 4.67362 7.58587 4.73064 7.19866C4.7993 6.706 4.80864 6.24534 4.80064 5.88134C4.79264 5.52666 4.7673 5.29066 4.7673 5.14334C4.76718 5.13911 4.76718 5.13489 4.7673 5.13066V5.12734L4.76664 5.12334C4.76624 4.35586 4.8998 3.59354 5.1613 2.872C5.34797 2.376 5.62597 1.872 6.04264 1.464C5.6333 1.32934 4.90664 1.124 4.11997 1.08534C4.0356 1.081 3.95179 1.07878 3.8673 1.07866ZM12.1326 4.6C11.68 4.606 11.426 4.72266 11.2926 4.87534C11.104 5.092 11.086 5.472 11.2033 5.94C11.32 6.40866 11.5613 6.93266 11.788 7.368C11.9013 7.586 12.0113 7.782 12.1 7.94134C12.1893 8.10136 12.2546 8.21464 12.2946 8.31136C12.3313 8.40064 12.372 8.47936 12.4133 8.55264C12.5886 8.18264 12.62 7.81934 12.602 7.44066C12.5786 6.972 12.47 6.49266 12.486 6.00734C12.504 5.44 12.616 5.07066 12.626 4.632C12.4624 4.61081 12.2976 4.60012 12.1326 4.6ZM6.6433 4.67666C6.50501 4.67796 6.36729 4.6945 6.23264 4.726C5.96426 4.79121 5.70577 4.89186 5.46397 5.02534C5.38218 5.06921 5.30433 5.12006 5.2313 5.17734L5.21664 5.19066C5.22064 5.288 5.23997 5.524 5.24797 5.87134C5.25597 6.25134 5.24664 6.736 5.1733 7.26066C5.01397 8.40064 5.8413 9.34464 6.8133 9.346C6.86997 9.112 6.9633 8.87464 7.05664 8.62464C7.3273 7.89534 7.85997 7.36334 7.4113 5.28734C7.33797 4.94734 7.19264 4.81 6.99264 4.73266C6.88054 4.69302 6.76217 4.67405 6.6433 4.67666ZM11.9213 4.81266H11.9546C11.9986 4.814 12.0393 4.81866 12.0746 4.82734C12.1106 4.83534 12.1413 4.84734 12.1666 4.864C12.1796 4.87205 12.1908 4.88274 12.1994 4.89537C12.208 4.908 12.2139 4.9223 12.2166 4.93734L12.216 4.94266C12.2173 4.97431 12.2091 5.00564 12.1926 5.03266C12.173 5.06926 12.1483 5.10292 12.1193 5.13266C12.0517 5.20714 11.9611 5.25689 11.862 5.274C11.7655 5.28566 11.6682 5.2612 11.5886 5.20534C11.5561 5.18344 11.5269 5.15694 11.502 5.12666C11.4804 5.10288 11.4658 5.07357 11.46 5.042C11.4586 5.02662 11.4603 5.01111 11.4651 4.99644C11.47 4.98177 11.4778 4.96823 11.488 4.95666C11.5098 4.93181 11.5363 4.91143 11.566 4.89666C11.63 4.86066 11.7166 4.834 11.8146 4.81934C11.8513 4.814 11.8873 4.81134 11.9213 4.81066V4.81266ZM6.70797 4.92466C6.7433 4.92466 6.78064 4.928 6.81864 4.93334C6.92064 4.94734 7.0113 4.97466 7.08064 5.01466C7.11445 5.03232 7.14456 5.05631 7.1693 5.08534C7.18278 5.10073 7.19293 5.11874 7.19913 5.13825C7.20533 5.15774 7.20742 5.17831 7.2053 5.19866C7.19889 5.237 7.18153 5.27266 7.1553 5.30134C7.12803 5.33482 7.09589 5.36403 7.05997 5.388C6.97327 5.44942 6.86677 5.47629 6.7613 5.46334C6.65353 5.44562 6.55488 5.39206 6.4813 5.31134C6.45001 5.27882 6.42351 5.24201 6.40264 5.202C6.38066 5.1668 6.37105 5.12528 6.3753 5.084C6.3853 5.012 6.44464 4.97466 6.50264 4.954C6.5687 4.93289 6.63803 4.92386 6.7073 4.92734L6.70797 4.92466ZM12.748 9.82L12.746 9.82064C12.648 9.856 12.5673 9.87064 12.4993 9.90064C12.4306 9.92712 12.3738 9.97792 12.34 10.0434C12.298 10.12 12.262 10.256 12.2726 10.4874C12.3028 10.5081 12.3361 10.5238 12.3713 10.534C12.4853 10.5686 12.6766 10.5914 12.89 10.588C13.3153 10.5834 13.8386 10.484 14.1166 10.3546C14.3447 10.2487 14.5564 10.1106 14.7453 9.94464C13.8166 10.1366 13.2913 10.0854 12.9693 9.95264C12.8894 9.91936 12.8147 9.87512 12.748 9.82ZM7.39397 9.88264H7.37997C7.34464 9.886 7.2933 9.898 7.19397 10.008C6.96197 10.268 6.88064 10.4314 6.6893 10.584C6.49797 10.736 6.2493 10.8174 5.75264 10.9194C5.5953 10.9514 5.5053 10.9866 5.4453 11.0154C5.46464 11.0314 5.46264 11.0354 5.49197 11.0506C5.56464 11.0906 5.65797 11.126 5.7333 11.1454C5.94664 11.1986 6.2973 11.2606 6.6633 11.1986C7.0293 11.136 7.40997 10.9606 7.73464 10.5054C7.79064 10.4266 7.79664 10.3106 7.75064 10.186C7.70397 10.0614 7.60197 9.954 7.52997 9.924C7.48713 9.90336 7.44118 9.88984 7.39397 9.884V9.88264Z" fill="#FF00FF"/>
</g>
<defs>
<clipPath id="clip0_1_1040">
<rect width="16" height="16" fill="white"/>
</clipPath>
</defs>
</svg>
