<svg width="16" height="16" viewBox="0 0 16 16" fill="none" xmlns="http://www.w3.org/2000/svg">
<g clip-path="url(#clip0_1_1042)">
<path d="M11.4186 0C10.797 0.0046243 10.1789 0.0950328 9.58201 0.268666L9.54001 0.282C9.16345 0.215458 8.78225 0.178678 8.40001 0.172C7.61465 0.158666 6.93997 0.349334 6.39598 0.666666C5.85998 0.480666 4.74798 0.16 3.57598 0.224C2.75998 0.268666 1.86931 0.516666 1.20931 1.21334C0.551312 1.91 0.203312 2.988 0.276646 4.45466C0.296646 4.85934 0.411979 5.51934 0.603312 6.374C0.794645 7.22866 1.06331 8.22936 1.39865 9.142C1.73398 10.0554 2.10131 10.8754 2.67531 11.4326C2.96198 11.712 3.35665 11.9466 3.82198 11.9274C4.14865 11.914 4.44398 11.7706 4.69865 11.5594C4.82265 11.7226 4.95531 11.794 5.07598 11.86C5.22798 11.9434 5.37598 12 5.52931 12.0374C5.80465 12.106 6.27598 12.198 6.82798 12.104C7.01598 12.0726 7.21397 12.0114 7.41131 11.924C7.41865 12.144 7.42731 12.3594 7.43598 12.5774C7.46331 13.268 7.48065 13.906 7.68798 14.4654C7.72131 14.5566 7.81265 15.0274 8.17265 15.4426C8.53265 15.8586 9.23801 16.118 10.0413 15.946C10.608 15.8246 11.3286 15.606 11.8073 14.9246C12.2806 14.2514 12.494 13.2854 12.536 11.7186C12.5466 11.634 12.5593 11.562 12.5726 11.4946L12.6853 11.5046H12.6986C13.3033 11.532 13.9593 11.446 14.5073 11.1914C14.9926 10.9666 15.36 10.7394 15.6273 10.336C15.694 10.236 15.7673 10.1154 15.7873 9.90736C15.8073 9.69936 15.688 9.374 15.49 9.224C15.0933 8.92264 14.844 9.03736 14.5766 9.09264C14.3133 9.15088 14.045 9.18352 13.7753 9.19C14.546 7.892 15.0986 6.51334 15.414 5.29334C15.6006 4.57334 15.7053 3.90934 15.714 3.32866C15.7226 2.748 15.6753 2.234 15.3273 1.78934C14.24 0.4 12.7113 0.016 11.5286 0.00266666C11.492 0.002 11.4553 0.00133334 11.4186 0.002V0ZM11.3873 0.426666C12.506 0.416 13.9353 0.73 14.9613 2.04134C15.192 2.336 15.2606 2.76666 15.2526 3.29734C15.244 3.82734 15.146 4.462 14.9666 5.15734C14.6186 6.504 13.9613 8.074 13.0353 9.48264C13.068 9.50592 13.1034 9.52512 13.1406 9.54C13.334 9.62 13.7746 9.68864 14.654 9.508C14.8753 9.46136 15.0373 9.43 15.2053 9.558C15.2462 9.59264 15.2784 9.63616 15.2995 9.68536C15.3207 9.73448 15.3302 9.78792 15.3273 9.84136C15.3183 9.92224 15.2885 9.99944 15.2406 10.0654C15.0706 10.3206 14.7353 10.5626 14.3053 10.762C13.9246 10.9394 13.3786 11.032 12.8946 11.0374C12.652 11.04 12.428 11.0214 12.238 10.962L12.226 10.9574C12.1526 11.664 11.984 13.0594 11.874 13.696C11.786 14.2094 11.632 14.6174 11.338 14.9226C11.0446 15.228 10.6293 15.412 10.0706 15.532C9.37865 15.6806 8.87401 15.5206 8.54865 15.2466C8.22401 14.9734 8.07529 14.6106 7.98598 14.3886C7.92465 14.2354 7.89265 14.0366 7.86198 13.7714C7.83131 13.506 7.80865 13.1814 7.79331 12.8154C7.77289 12.2549 7.76622 11.6941 7.77331 11.1334C7.48425 11.3981 7.12504 11.574 6.73865 11.64C6.27931 11.718 5.86931 11.6414 5.62465 11.58C5.50404 11.5497 5.38761 11.5047 5.27798 11.446C5.16465 11.3854 5.05665 11.3166 4.98465 11.1814C4.94234 11.1038 4.92888 11.0138 4.94665 10.9274C4.96917 10.8397 5.02033 10.762 5.09198 10.7066C5.22398 10.5994 5.39865 10.5394 5.66198 10.4846C6.14131 10.386 6.30865 10.3186 6.41065 10.238C6.49731 10.1686 6.59531 10.0286 6.76865 9.82336C6.76781 9.81424 6.76715 9.80512 6.76665 9.796C6.45644 9.78728 6.15265 9.70552 5.87998 9.55736C5.77998 9.66264 5.26931 10.2026 4.64665 10.952C4.38465 11.2654 4.09531 11.4454 3.78998 11.458C3.48465 11.4714 3.20865 11.3174 2.97398 11.09C2.50531 10.6346 2.13131 9.85136 1.80531 8.966C1.47998 8.08064 1.21531 7.09466 1.02731 6.25466C0.838646 5.41466 0.727312 4.73734 0.711312 4.41066C0.641312 3.02266 0.965982 2.08734 1.52265 1.49734C2.07998 0.907336 2.84398 0.684 3.58865 0.641334C4.92531 0.564666 6.19465 1.03066 6.45131 1.13066C6.94598 0.794666 7.58331 0.585334 8.37929 0.598666C8.75721 0.603967 9.13321 0.652732 9.50001 0.744L9.51329 0.738C9.67473 0.681258 9.83921 0.633627 10.006 0.595334C10.4588 0.489703 10.9217 0.433596 11.3866 0.428L11.3873 0.426666ZM11.4886 0.873336H11.3913C11.0094 0.878664 10.6289 0.921536 10.2553 1.00134C11.086 1.36934 11.7133 1.936 12.1553 2.50134C12.4623 2.89276 12.7161 3.32318 12.91 3.78134C12.9833 3.95734 13.0326 4.106 13.0606 4.22134C13.0746 4.27934 13.084 4.328 13.0873 4.37866C13.0886 4.404 13.09 4.43 13.0793 4.47466C13.0793 4.47666 13.076 4.48134 13.0753 4.48334C13.0953 5.06734 12.9506 5.46334 12.9333 6.02066C12.92 6.42466 13.0233 6.89934 13.0486 7.41734C13.0726 7.904 13.014 8.43864 12.698 8.96336C12.7246 8.99536 12.7486 9.02736 12.774 9.05936C13.61 7.74266 14.2126 6.286 14.534 5.044C14.706 4.37534 14.7973 3.76934 14.8053 3.28934C14.812 2.80934 14.7226 2.46134 14.6086 2.316C13.714 1.172 12.5033 0.881336 11.4886 0.873336ZM8.29529 1.044C7.50731 1.046 6.94198 1.284 6.51331 1.64066C6.07131 2.00934 5.77465 2.514 5.57998 3.03066C5.34865 3.644 5.26931 4.23734 5.23798 4.64L5.24665 4.63466C5.48465 4.50134 5.79731 4.368 6.13198 4.29066C6.46665 4.214 6.82731 4.19 7.15397 4.31666C7.48065 4.44334 7.75065 4.74134 7.84865 5.19334C8.31801 7.36466 7.70265 8.172 7.47597 8.78136C7.38999 9.00216 7.31632 9.22768 7.25531 9.45664C7.28398 9.45 7.31265 9.442 7.34131 9.43936C7.50131 9.426 7.62665 9.47936 7.70131 9.51136C7.92931 9.606 8.08601 9.80464 8.17065 10.0314C8.19265 10.0906 8.20865 10.1546 8.21801 10.2206C8.22785 10.2478 8.23233 10.2765 8.23129 10.3054C8.20601 11.1358 8.20889 11.967 8.24001 12.7974C8.25529 13.156 8.27801 13.472 8.30665 13.7214C8.33529 13.97 8.37601 14.1594 8.40201 14.2234C8.48729 14.4366 8.61201 14.716 8.83729 14.906C9.06265 15.0954 9.38601 15.222 9.97665 15.0954C10.4886 14.9854 10.8046 14.8326 11.016 14.6134C11.2266 14.394 11.3526 14.0886 11.4333 13.6214C11.554 12.9214 11.7966 10.8914 11.826 10.5094C11.8126 10.2214 11.8553 10 11.9473 9.83136C12.042 9.658 12.1886 9.552 12.3153 9.49464C12.3786 9.466 12.438 9.44664 12.4866 9.43264C12.4351 9.35864 12.3811 9.2864 12.3246 9.216C12.142 8.99448 11.9925 8.74776 11.8806 8.48336C11.8271 8.37416 11.7699 8.26672 11.7093 8.16136C11.6206 8.00136 11.5086 7.80134 11.3913 7.57666C11.1566 7.12666 10.9013 6.58134 10.7686 6.05C10.6366 5.51934 10.6173 4.97 10.956 4.58266C11.256 4.23866 11.7826 4.096 12.5733 4.176C12.55 4.106 12.536 4.048 12.4966 3.95466C12.3179 3.53393 12.0846 3.13853 11.8026 2.77866C11.1326 1.922 10.048 1.07266 8.37201 1.04534H8.29529V1.044ZM3.86731 1.07866C3.78265 1.07866 3.69798 1.08134 3.61398 1.086C2.94065 1.12466 2.30398 1.32 1.84865 1.80266C1.39265 2.28534 1.09265 3.07666 1.15798 4.38666C1.17065 4.63466 1.27865 5.32934 1.46398 6.15466C1.64865 6.98 1.91065 7.95134 2.22531 8.80936C2.54065 9.66736 2.92265 10.414 3.28531 10.7674C3.46798 10.944 3.62665 11.0154 3.77065 11.0094C3.91531 11.0026 4.08931 10.9194 4.30198 10.664C4.68972 10.1963 5.09213 9.74096 5.50865 9.29864C5.21312 9.04208 4.98694 8.7152 4.85097 8.34824C4.71501 7.9812 4.67363 7.58587 4.73065 7.19866C4.79931 6.706 4.80865 6.24534 4.80065 5.88134C4.79265 5.52666 4.76731 5.29066 4.76731 5.14334C4.76719 5.13911 4.76719 5.13489 4.76731 5.13066V5.12734L4.76665 5.12334C4.76625 4.35586 4.89981 3.59354 5.16131 2.872C5.34798 2.376 5.62598 1.872 6.04265 1.464C5.63331 1.32934 4.90665 1.124 4.11998 1.08534C4.03561 1.081 3.9518 1.07878 3.86731 1.07866ZM12.1326 4.6C11.68 4.606 11.426 4.72266 11.2926 4.87534C11.104 5.092 11.086 5.472 11.2033 5.94C11.32 6.40866 11.5613 6.93266 11.788 7.368C11.9013 7.586 12.0113 7.782 12.1 7.94134C12.1893 8.10136 12.2546 8.21464 12.2946 8.31136C12.3313 8.40064 12.372 8.47936 12.4133 8.55264C12.5886 8.18264 12.62 7.81934 12.602 7.44066C12.5786 6.972 12.47 6.49266 12.486 6.00734C12.504 5.44 12.616 5.07066 12.626 4.632C12.4624 4.61081 12.2976 4.60012 12.1326 4.6ZM6.64331 4.67666C6.50502 4.67796 6.3673 4.6945 6.23265 4.726C5.96427 4.79121 5.70577 4.89186 5.46398 5.02534C5.38219 5.06921 5.30434 5.12006 5.23131 5.17734L5.21665 5.19066C5.22065 5.288 5.23998 5.524 5.24798 5.87134C5.25598 6.25134 5.24665 6.736 5.17331 7.26066C5.01398 8.40064 5.84131 9.34464 6.81331 9.346C6.86998 9.112 6.96331 8.87464 7.05665 8.62464C7.32731 7.89534 7.85997 7.36334 7.41131 5.28734C7.33798 4.94734 7.19265 4.81 6.99265 4.73266C6.88055 4.69302 6.76218 4.67405 6.64331 4.67666ZM11.9213 4.81266H11.9546C11.9986 4.814 12.0393 4.81866 12.0746 4.82734C12.1106 4.83534 12.1413 4.84734 12.1666 4.864C12.1796 4.87205 12.1908 4.88274 12.1994 4.89537C12.208 4.908 12.2139 4.9223 12.2166 4.93734L12.216 4.94266C12.2173 4.97431 12.2091 5.00564 12.1926 5.03266C12.173 5.06926 12.1483 5.10292 12.1193 5.13266C12.0517 5.20714 11.9611 5.25689 11.862 5.274C11.7655 5.28566 11.6682 5.2612 11.5886 5.20534C11.5561 5.18344 11.5269 5.15694 11.502 5.12666C11.4804 5.10288 11.4658 5.07357 11.46 5.042C11.4586 5.02662 11.4603 5.01111 11.4651 4.99644C11.47 4.98177 11.4778 4.96823 11.488 4.95666C11.5098 4.93181 11.5363 4.91143 11.566 4.89666C11.63 4.86066 11.7166 4.834 11.8146 4.81934C11.8513 4.814 11.8873 4.81134 11.9213 4.81066V4.81266ZM6.70798 4.92466C6.74331 4.92466 6.78065 4.928 6.81865 4.93334C6.92065 4.94734 7.01131 4.97466 7.08065 5.01466C7.11446 5.03232 7.14457 5.05631 7.16931 5.08534C7.18279 5.10073 7.19294 5.11874 7.19913 5.13825C7.20533 5.15774 7.20743 5.17831 7.20531 5.19866C7.1989 5.237 7.18153 5.27266 7.15531 5.30134C7.12804 5.33482 7.0959 5.36403 7.05998 5.388C6.97328 5.44942 6.86677 5.47629 6.76131 5.46334C6.65353 5.44562 6.55489 5.39206 6.48131 5.31134C6.45001 5.27882 6.42352 5.24201 6.40265 5.202C6.38067 5.1668 6.37105 5.12528 6.37531 5.084C6.38531 5.012 6.44465 4.97466 6.50265 4.954C6.56871 4.93289 6.63804 4.92386 6.70731 4.92734L6.70798 4.92466ZM12.748 9.82L12.746 9.82064C12.648 9.856 12.5673 9.87064 12.4993 9.90064C12.4306 9.92712 12.3738 9.97792 12.34 10.0434C12.298 10.12 12.262 10.256 12.2726 10.4874C12.3028 10.5081 12.3361 10.5238 12.3713 10.534C12.4853 10.5686 12.6766 10.5914 12.89 10.588C13.3153 10.5834 13.8386 10.484 14.1166 10.3546C14.3447 10.2487 14.5564 10.1106 14.7453 9.94464C13.8166 10.1366 13.2913 10.0854 12.9693 9.95264C12.8894 9.91936 12.8147 9.87512 12.748 9.82ZM7.39398 9.88264H7.37998C7.34465 9.886 7.29331 9.898 7.19398 10.008C6.96198 10.268 6.88065 10.4314 6.68931 10.584C6.49798 10.736 6.24931 10.8174 5.75265 10.9194C5.59531 10.9514 5.50531 10.9866 5.44531 11.0154C5.46465 11.0314 5.46265 11.0354 5.49198 11.0506C5.56465 11.0906 5.65798 11.126 5.73331 11.1454C5.94665 11.1986 6.29731 11.2606 6.66331 11.1986C7.02931 11.136 7.40998 10.9606 7.73465 10.5054C7.79065 10.4266 7.79665 10.3106 7.75065 10.186C7.70398 10.0614 7.60198 9.954 7.52998 9.924C7.48713 9.90336 7.44119 9.88984 7.39398 9.884V9.88264Z" fill="black"/>
<path fill-rule="evenodd" clip-rule="evenodd" d="M11.3873 0.426652C12.506 0.415985 13.9353 0.729985 14.9613 2.04132C15.192 2.33599 15.2606 2.76665 15.2526 3.29732C15.244 3.82732 15.146 4.46198 14.9666 5.15732C14.6186 6.50398 13.9613 8.07398 13.0353 9.48262C13.068 9.5059 13.1034 9.5251 13.1406 9.53998C13.334 9.61998 13.7746 9.68862 14.654 9.50798C14.8753 9.46134 15.0373 9.42998 15.2053 9.55798C15.2462 9.59262 15.2784 9.63614 15.2995 9.68534C15.3207 9.73446 15.3302 9.7879 15.3273 9.84134C15.3183 9.92222 15.2885 9.99942 15.2406 10.0653C15.0706 10.3206 14.7353 10.5626 14.3053 10.762C13.9246 10.9393 13.3786 11.032 12.8946 11.0373C12.652 11.04 12.428 11.0213 12.238 10.962L12.226 10.9573C12.1526 11.664 11.984 13.0593 11.874 13.696C11.786 14.2093 11.632 14.6173 11.338 14.9226C11.0446 15.228 10.6293 15.412 10.0706 15.532C9.37863 15.6806 8.87399 15.5206 8.54863 15.2466C8.22399 14.9733 8.07527 14.6106 7.98597 14.3886C7.92463 14.2353 7.89263 14.0366 7.86197 13.7713C7.8313 13.506 7.80863 13.1813 7.7933 12.8153C7.77287 12.2549 7.76621 11.6941 7.7733 11.1333C7.48424 11.3981 7.12503 11.574 6.73864 11.64C6.2793 11.718 5.8693 11.6413 5.62464 11.58C5.50403 11.5497 5.3876 11.5047 5.27797 11.446C5.16464 11.3853 5.05664 11.3166 4.98464 11.1813C4.94233 11.1038 4.92887 11.0138 4.94664 10.9273C4.96916 10.8397 5.02032 10.762 5.09197 10.7066C5.22397 10.5993 5.39864 10.5393 5.66197 10.4846C6.1413 10.386 6.30864 10.3186 6.41064 10.238C6.4973 10.1686 6.5953 10.0286 6.76864 9.82334C6.7678 9.81422 6.76714 9.8051 6.76664 9.79598C6.45643 9.78726 6.15264 9.7055 5.87997 9.55734C5.77997 9.66262 5.2693 10.2026 4.64664 10.952C4.38464 11.2653 4.0953 11.4453 3.78997 11.458C3.48464 11.4713 3.20864 11.3173 2.97397 11.09C2.5053 10.6346 2.1313 9.85134 1.8053 8.96598C1.47997 8.08062 1.2153 7.09465 1.0273 6.25465C0.838636 5.41465 0.727302 4.73732 0.711302 4.41065C0.641302 3.02265 0.965972 2.08732 1.52264 1.49732C2.07997 0.907321 2.84397 0.683985 3.58864 0.641319C4.9253 0.564651 6.19464 1.03065 6.4513 1.13065C6.94597 0.794651 7.5833 0.585319 8.37928 0.598651C8.7572 0.603952 9.13319 0.652717 9.49999 0.743985L9.51327 0.737985C9.67471 0.681243 9.83919 0.633612 10.006 0.595319C10.4588 0.489688 10.9217 0.433581 11.3866 0.427985L11.3873 0.426652ZM11.3913 0.873321H11.4886C12.5033 0.881321 13.714 1.17199 14.6086 2.31598C14.7226 2.46132 14.812 2.80932 14.8053 3.28932C14.7973 3.76932 14.706 4.37532 14.534 5.04398C14.2126 6.28598 13.61 7.74265 12.774 9.05934C12.7486 9.02734 12.7246 8.99534 12.698 8.96334C13.014 8.43862 13.0726 7.90398 13.0486 7.41732C13.0233 6.89932 12.92 6.42465 12.9333 6.02065C12.9506 5.46332 13.0953 5.06732 13.0753 4.48332C13.076 4.48132 13.0793 4.47665 13.0793 4.47465C13.09 4.42998 13.0886 4.40398 13.0873 4.37865C13.084 4.32798 13.0746 4.27932 13.0606 4.22132C13.0326 4.10598 12.9833 3.95732 12.91 3.78132C12.7161 3.32317 12.4623 2.89274 12.1553 2.50132C11.7133 1.93598 11.086 1.36932 10.2553 1.00132C10.6289 0.921521 11.0094 0.878649 11.3913 0.873321ZM6.5133 1.64065C6.94197 1.28398 7.5073 1.04599 8.29527 1.04399V1.04532H8.372C10.048 1.07265 11.1326 1.92199 11.8026 2.77865C12.0846 3.13851 12.3179 3.53391 12.4966 3.95465C12.536 4.04798 12.55 4.10598 12.5733 4.17598C11.7826 4.09598 11.256 4.23865 10.956 4.58265C10.6173 4.96998 10.6366 5.51932 10.7686 6.04998C10.9013 6.58132 11.1566 7.12665 11.3913 7.57665C11.5086 7.80132 11.6206 8.00134 11.7093 8.16134C11.7699 8.2667 11.8271 8.37414 11.8806 8.48334C11.9925 8.74774 12.142 8.99446 12.3246 9.21598C12.3811 9.28638 12.4351 9.35862 12.4866 9.43262C12.438 9.44662 12.3786 9.46598 12.3153 9.49462C12.1886 9.55198 12.042 9.65798 11.9473 9.83134C11.8553 9.99998 11.8126 10.2213 11.826 10.5093C11.7966 10.8913 11.554 12.9213 11.4333 13.6213C11.3526 14.0886 11.2266 14.394 11.016 14.6133C10.8046 14.8326 10.4886 14.9853 9.97664 15.0953C9.386 15.222 9.06264 15.0953 8.83728 14.906C8.612 14.716 8.48727 14.4366 8.40199 14.2233C8.37599 14.1593 8.33527 13.97 8.30663 13.7213C8.27799 13.472 8.25528 13.156 8.24 12.7973C8.20888 11.967 8.20599 11.1358 8.23127 10.3053C8.23231 10.2765 8.22784 10.2477 8.218 10.2206C8.20864 10.1546 8.19263 10.0906 8.17063 10.0313C8.08599 9.80462 7.9293 9.60598 7.7013 9.51134C7.62663 9.47934 7.5013 9.42598 7.3413 9.43934C7.31264 9.44198 7.28397 9.44998 7.2553 9.45662C7.31631 9.22766 7.38998 9.00214 7.47596 8.78134C7.70264 8.17198 8.31799 7.36465 7.84863 5.19332C7.75063 4.74132 7.48064 4.44332 7.15396 4.31665C6.8273 4.18999 6.46664 4.21398 6.13197 4.29065C5.7973 4.36798 5.48464 4.50132 5.24664 4.63465L5.23797 4.63999C5.2693 4.23732 5.34864 3.64398 5.57997 3.03065C5.77464 2.51399 6.0713 2.00932 6.5133 1.64065ZM3.61397 1.08599C3.69797 1.08132 3.78264 1.07865 3.8673 1.07865C3.95179 1.07876 4.0356 1.08099 4.11997 1.08532C4.90664 1.12399 5.6333 1.32932 6.04264 1.46399C5.62597 1.87199 5.34797 2.37598 5.1613 2.87198C4.8998 3.59353 4.76624 4.35585 4.76664 5.12332L4.7673 5.12732V5.13065C4.76718 5.13487 4.76718 5.1391 4.7673 5.14332C4.7673 5.29065 4.79264 5.52665 4.80064 5.88132C4.80864 6.24532 4.7993 6.70598 4.73064 7.19865C4.67362 7.58586 4.715 7.98118 4.85096 8.34822C4.98693 8.71518 5.21311 9.04206 5.50864 9.29862C5.09212 9.74094 4.68971 10.1963 4.30197 10.664C4.0893 10.9193 3.9153 11.0026 3.77064 11.0093C3.62664 11.0153 3.46797 10.944 3.2853 10.7673C2.92264 10.414 2.54064 9.66734 2.2253 8.80934C1.91064 7.95132 1.64864 6.97998 1.46397 6.15465C1.27864 5.32932 1.17064 4.63465 1.15797 4.38665C1.09264 3.07665 1.39264 2.28532 1.84864 1.80265C2.30397 1.31999 2.94064 1.12465 3.61397 1.08599ZM11.2926 4.87532C11.426 4.72265 11.68 4.60598 12.1326 4.59998C12.2976 4.6001 12.4624 4.61079 12.626 4.63198C12.616 5.07065 12.504 5.43998 12.486 6.00732C12.47 6.49265 12.5786 6.97198 12.602 7.44065C12.62 7.81932 12.5886 8.18262 12.4133 8.55262C12.372 8.47934 12.3313 8.40062 12.2946 8.31134C12.2546 8.21462 12.1893 8.10134 12.1 7.94132C12.0113 7.78198 11.9013 7.58598 11.788 7.36798C11.5613 6.93265 11.32 6.40865 11.2033 5.93998C11.086 5.47198 11.104 5.09198 11.2926 4.87532ZM6.23264 4.72598C6.36729 4.69449 6.50501 4.67794 6.6433 4.67665C6.76217 4.67403 6.88054 4.693 6.99264 4.73265C7.19264 4.80998 7.33797 4.94732 7.4113 5.28732C7.85996 7.36332 7.3273 7.89532 7.05664 8.62462C6.9633 8.87462 6.86997 9.11198 6.8133 9.34598C5.8413 9.34462 5.01397 8.40062 5.1733 7.26065C5.24664 6.73598 5.25597 6.25132 5.24797 5.87132C5.23997 5.52398 5.22064 5.28798 5.21664 5.19065L5.2313 5.17732C5.30433 5.12005 5.38218 5.06919 5.46397 5.02532C5.70576 4.89185 5.96426 4.79119 6.23264 4.72598ZM12.746 9.82062L12.748 9.81998C12.8147 9.8751 12.8894 9.91934 12.9693 9.95262C13.2913 10.0853 13.8166 10.1366 14.7453 9.94462C14.5564 10.1106 14.3447 10.2487 14.1166 10.3546C13.8386 10.484 13.3153 10.5833 12.89 10.588C12.6766 10.5913 12.4853 10.5686 12.3713 10.534C12.3361 10.5238 12.3028 10.5081 12.2726 10.4873C12.262 10.256 12.298 10.12 12.34 10.0433C12.3738 9.9779 12.4306 9.9271 12.4993 9.90062C12.5673 9.87062 12.648 9.85598 12.746 9.82062ZM7.37997 9.88262H7.39397V9.88398C7.44118 9.88982 7.48712 9.90334 7.52997 9.92398C7.60197 9.95398 7.70397 10.0613 7.75064 10.186C7.79664 10.3106 7.79063 10.4266 7.73463 10.5053C7.40997 10.9606 7.0293 11.136 6.6633 11.1986C6.2973 11.2606 5.94664 11.1986 5.7333 11.1453C5.65797 11.126 5.56464 11.0906 5.49197 11.0506C5.46264 11.0353 5.46464 11.0313 5.4453 11.0153C5.5053 10.9866 5.5953 10.9513 5.75264 10.9193C6.2493 10.8173 6.49797 10.736 6.6893 10.584C6.88064 10.4313 6.96197 10.268 7.19397 10.008C7.2933 9.89798 7.34463 9.88598 7.37997 9.88262Z" fill="black"/>
<path d="M6.70797 4.92465C6.7433 4.92465 6.78063 4.92799 6.81863 4.93332C6.92063 4.94732 7.0113 4.97465 7.08063 5.01465C7.11445 5.03231 7.14455 5.0563 7.1693 5.08532C7.18278 5.10072 7.19293 5.11873 7.19912 5.13824C7.20532 5.15773 7.20742 5.1783 7.2053 5.19865C7.19889 5.23699 7.18152 5.27264 7.1553 5.30132C7.12803 5.3348 7.09589 5.36402 7.05997 5.38799C6.97327 5.44941 6.86676 5.47628 6.7613 5.46332C6.65352 5.4456 6.55487 5.39205 6.4813 5.31132C6.45 5.27881 6.42351 5.242 6.40263 5.20199C6.38066 5.16679 6.37104 5.12527 6.3753 5.08399C6.3853 5.01199 6.44463 4.97465 6.50263 4.95399C6.5687 4.93288 6.63803 4.92384 6.7073 4.92732L6.70797 4.92465Z" fill="black"/>
<path d="M11.9213 4.81267H11.9546C11.9986 4.814 12.0393 4.81867 12.0746 4.82734C12.1106 4.83534 12.1413 4.84734 12.1666 4.864C12.1796 4.87205 12.1908 4.88274 12.1994 4.89537C12.208 4.908 12.2139 4.9223 12.2166 4.93734L12.216 4.94267C12.2173 4.97432 12.2091 5.00565 12.1926 5.03267C12.173 5.06926 12.1483 5.10293 12.1193 5.13267C12.0517 5.20714 11.9611 5.25689 11.862 5.27401C11.7655 5.28566 11.6682 5.2612 11.5886 5.20534C11.5561 5.18344 11.5269 5.15695 11.502 5.12667C11.4804 5.10288 11.4658 5.07357 11.46 5.042C11.4586 5.02662 11.4603 5.01112 11.4651 4.99645C11.47 4.98177 11.4778 4.96824 11.488 4.95667C11.5098 4.93181 11.5363 4.91144 11.566 4.89667C11.63 4.86067 11.7166 4.834 11.8146 4.81934C11.8513 4.814 11.8873 4.81134 11.9213 4.81067V4.81267Z" fill="black"/>
<path fill-rule="evenodd" clip-rule="evenodd" d="M11.3913 0.873322H11.4886C12.5033 0.881322 13.714 1.17199 14.6086 2.31599C14.7226 2.46132 14.812 2.80932 14.8053 3.28932C14.7973 3.76932 14.706 4.37532 14.534 5.04399C14.2126 6.28599 13.61 7.74265 12.774 9.05935C12.7655 9.04863 12.7572 9.03799 12.749 9.02735C12.7323 9.00599 12.7158 8.98463 12.698 8.96335C13.014 8.43863 13.0726 7.90399 13.0486 7.41732C13.0376 7.19234 13.0119 6.97554 12.9874 6.76915C12.9555 6.50033 12.9258 6.24919 12.9333 6.02065C12.941 5.77542 12.9732 5.56143 13.0053 5.3489C13.0461 5.07843 13.0865 4.81035 13.0753 4.48332L13.077 4.48009C13.0781 4.47809 13.0793 4.47465 13.0793 4.47465C13.09 4.42999 13.0886 4.40399 13.0873 4.37865C13.084 4.32799 13.0746 4.27932 13.0606 4.22132C13.0326 4.10599 12.9833 3.95732 12.91 3.78132C12.7161 3.32317 12.4623 2.89275 12.1553 2.50132C11.7133 1.93599 11.086 1.36932 10.2553 1.00132C10.6289 0.921522 11.0094 0.87865 11.3913 0.873322ZM6.51331 1.64065C6.94198 1.28399 7.50731 1.04599 8.29529 1.04399V1.04532H8.37201C10.048 1.07265 11.1326 1.92199 11.8026 2.77865C12.0846 3.13851 12.3179 3.53391 12.4966 3.95465C12.525 4.02178 12.5401 4.07063 12.5551 4.11881C12.561 4.13763 12.5667 4.15633 12.5733 4.17599C11.7826 4.09599 11.256 4.23865 10.956 4.58265C10.6173 4.96999 10.6366 5.51932 10.7686 6.04999C10.9013 6.58132 11.1566 7.12665 11.3913 7.57665C11.4946 7.77449 11.5938 7.95321 11.6766 8.10231C11.6878 8.12255 11.6987 8.14223 11.7093 8.16135C11.7699 8.26671 11.8271 8.37415 11.8806 8.48335C11.9925 8.74775 12.142 8.99447 12.3246 9.21599C12.3811 9.28639 12.4351 9.35863 12.4866 9.43263C12.438 9.44663 12.3786 9.46599 12.3153 9.49463C12.1886 9.55199 12.042 9.65799 11.9473 9.83135C11.8553 9.99999 11.8126 10.2213 11.826 10.5093C11.7966 10.8913 11.554 12.9213 11.4333 13.6213C11.3526 14.0886 11.2266 14.394 11.016 14.6133C10.8046 14.8326 10.4886 14.9853 9.97665 15.0953C9.38601 15.222 9.06265 15.0953 8.83729 14.906C8.61201 14.716 8.48729 14.4366 8.40201 14.2233C8.37601 14.1593 8.33529 13.97 8.30665 13.7213C8.27801 13.472 8.25529 13.156 8.24001 12.7973C8.20889 11.967 8.20601 11.1358 8.23129 10.3053C8.23233 10.2765 8.22785 10.2477 8.21801 10.2206C8.20865 10.1546 8.19265 10.0906 8.17065 10.0313C8.08601 9.80463 7.92931 9.60599 7.70131 9.51135C7.62665 9.47935 7.50131 9.42599 7.34131 9.43935C7.31838 9.44143 7.29545 9.44703 7.27252 9.45255C7.26678 9.45391 7.26105 9.45535 7.25531 9.45663C7.31632 9.22767 7.38999 9.00215 7.47597 8.78135C7.51012 8.68951 7.55309 8.59327 7.59983 8.48847C7.86341 7.89781 8.24729 7.03757 7.84865 5.19332C7.75065 4.74132 7.48065 4.44332 7.15397 4.31665C6.82731 4.18999 6.46665 4.21399 6.13198 4.29065C5.79731 4.36799 5.48465 4.50132 5.24665 4.63465L5.23798 4.63999C5.26931 4.23732 5.34865 3.64399 5.57998 3.03065C5.77465 2.51399 6.07131 2.00932 6.51331 1.64065ZM3.61398 1.08599C3.69798 1.08132 3.78265 1.07865 3.86731 1.07865C3.9518 1.07876 4.03561 1.08099 4.11998 1.08532C4.90665 1.12399 5.63331 1.32932 6.04265 1.46399C5.62598 1.87199 5.34798 2.37599 5.16131 2.87199C4.89981 3.59353 4.76625 4.35585 4.76665 5.12332L4.76731 5.12732V5.13065C4.76719 5.13487 4.76719 5.1391 4.76731 5.14332C4.76731 5.20939 4.77241 5.29328 4.77875 5.39771C4.78655 5.52617 4.79623 5.6857 4.80065 5.88132C4.80865 6.24532 4.79931 6.70599 4.73065 7.19865C4.67363 7.58586 4.71501 7.98119 4.85097 8.34823C4.98694 8.71519 5.21312 9.04207 5.50865 9.29863C5.09213 9.74095 4.68972 10.1963 4.30198 10.664C4.08931 10.9193 3.91531 11.0026 3.77065 11.0093C3.62665 11.0153 3.46798 10.944 3.28531 10.7673C2.92265 10.414 2.54065 9.66735 2.22531 8.80935C1.91065 7.95132 1.64865 6.97999 1.46398 6.15465C1.27865 5.32932 1.17065 4.63465 1.15798 4.38665C1.09265 3.07665 1.39265 2.28532 1.84865 1.80265C2.30398 1.31999 2.94065 1.12465 3.61398 1.08599ZM11.2926 4.87532C11.426 4.72265 11.68 4.60599 12.1326 4.59999C12.2976 4.60011 12.4624 4.61079 12.626 4.63199C12.6212 4.84139 12.5932 5.035 12.5633 5.24189C12.5305 5.46839 12.4954 5.71082 12.486 6.00732C12.4764 6.29791 12.5115 6.58635 12.5462 6.87164C12.5695 7.06283 12.5926 7.2526 12.602 7.44065C12.62 7.81932 12.5886 8.18263 12.4133 8.55263C12.372 8.47935 12.3313 8.40063 12.2946 8.31135C12.2594 8.22599 12.2043 8.12767 12.1304 7.99578C12.1206 7.97823 12.1105 7.9601 12.1 7.94132C12.0918 7.92658 12.0834 7.91152 12.0748 7.89616C11.991 7.74552 11.8908 7.56581 11.788 7.36799C11.5613 6.93265 11.32 6.40865 11.2033 5.93999C11.086 5.47199 11.104 5.09199 11.2926 4.87532ZM6.23265 4.72599C6.3673 4.69449 6.50502 4.67795 6.64331 4.67665C6.76218 4.67403 6.88055 4.693 6.99265 4.73265C7.19265 4.80999 7.33798 4.94732 7.41131 5.28732C7.78243 7.0045 7.48213 7.66529 7.21405 8.25519C7.15804 8.37847 7.10343 8.49863 7.05665 8.62463C7.04559 8.65423 7.03454 8.68367 7.02355 8.71295C6.94172 8.93079 6.86327 9.13967 6.81331 9.34599C5.84131 9.34463 5.01398 8.40063 5.17331 7.26065C5.24665 6.73599 5.25598 6.25132 5.24798 5.87132C5.24219 5.61999 5.23047 5.42696 5.22291 5.30258C5.22003 5.25506 5.21775 5.21755 5.21665 5.19065L5.23131 5.17732C5.30434 5.12005 5.38219 5.06919 5.46398 5.02532C5.70577 4.89185 5.96427 4.79119 6.23265 4.72599ZM11.9546 4.81265H11.9213V4.81065C11.8873 4.81132 11.8513 4.81399 11.8146 4.81932C11.7166 4.83399 11.63 4.86065 11.566 4.89665C11.5363 4.91142 11.5098 4.93179 11.488 4.95665C11.4778 4.96822 11.47 4.98175 11.4651 4.99643C11.4603 5.0111 11.4586 5.0266 11.46 5.04199C11.4658 5.07355 11.4804 5.10287 11.502 5.12665C11.5269 5.15693 11.5561 5.18343 11.5886 5.20532C11.6682 5.26119 11.7655 5.28564 11.862 5.27399C11.9611 5.25687 12.0517 5.20712 12.1193 5.13265C12.1483 5.10291 12.173 5.06924 12.1926 5.03265C12.2091 5.00563 12.2173 4.9743 12.216 4.94265L12.2166 4.93732C12.2139 4.92228 12.208 4.90799 12.1994 4.89535C12.1908 4.88272 12.1796 4.87203 12.1666 4.86399C12.1413 4.84732 12.1106 4.83532 12.0746 4.82732C12.0393 4.81865 11.9986 4.81399 11.9546 4.81265ZM6.81865 4.93332C6.78065 4.92799 6.74331 4.92465 6.70798 4.92465L6.70731 4.92732C6.63804 4.92384 6.56871 4.93287 6.50265 4.95399C6.44465 4.97465 6.38531 5.01199 6.37531 5.08399C6.37105 5.12527 6.38067 5.16679 6.40265 5.20199C6.42352 5.24199 6.45001 5.27881 6.48131 5.31132C6.55489 5.39205 6.65353 5.4456 6.76131 5.46332C6.86677 5.47627 6.97328 5.44941 7.05998 5.38799C7.0959 5.36402 7.12804 5.3348 7.15531 5.30132C7.18153 5.27264 7.1989 5.23699 7.20531 5.19865C7.20743 5.1783 7.20533 5.15773 7.19913 5.13823C7.19294 5.11873 7.18279 5.10071 7.16931 5.08532C7.14457 5.0563 7.11446 5.03231 7.08065 5.01465C7.01131 4.97465 6.92065 4.94732 6.81865 4.93332ZM12.746 9.82063L12.748 9.81999C12.8147 9.87511 12.8894 9.91935 12.9693 9.95263C13.2913 10.0853 13.8166 10.1366 14.7453 9.94463C14.5564 10.1106 14.3447 10.2487 14.1166 10.3546C13.8386 10.484 13.3153 10.5833 12.89 10.588C12.6766 10.5913 12.4853 10.5686 12.3713 10.534C12.3361 10.5238 12.3028 10.5081 12.2726 10.4873C12.262 10.256 12.298 10.12 12.34 10.0433C12.3738 9.97791 12.4306 9.92711 12.4993 9.90063C12.5366 9.88423 12.5776 9.87239 12.6232 9.85927C12.6609 9.84839 12.7017 9.83663 12.746 9.82063ZM7.37998 9.88263H7.39398V9.88399C7.44119 9.88983 7.48713 9.90335 7.52998 9.92399C7.60198 9.95399 7.70398 10.0613 7.75065 10.186C7.79665 10.3106 7.79065 10.4266 7.73465 10.5053C7.40998 10.9606 7.02931 11.136 6.66331 11.1986C6.29731 11.2606 5.94665 11.1986 5.73331 11.1453C5.65798 11.126 5.56465 11.0906 5.49198 11.0506C5.47182 11.0401 5.46646 11.0349 5.45881 11.0275C5.45532 11.0241 5.45136 11.0203 5.44531 11.0153C5.50531 10.9866 5.59531 10.9513 5.75265 10.9193C6.24931 10.8173 6.49798 10.736 6.68931 10.584C6.80623 10.4907 6.88208 10.3934 6.97633 10.2725C7.03632 10.1956 7.10375 10.1091 7.19398 10.008C7.29331 9.89799 7.34465 9.88599 7.37998 9.88263Z" fill="#336791"/>
<path fill-rule="evenodd" clip-rule="evenodd" d="M11.3873 0.426652C12.506 0.415985 13.9353 0.729985 14.9613 2.04132C15.192 2.33599 15.2606 2.76665 15.2526 3.29732C15.244 3.82732 15.146 4.46198 14.9666 5.15732C14.6186 6.50398 13.9613 8.07398 13.0353 9.48262C13.068 9.5059 13.1034 9.5251 13.1406 9.53998C13.334 9.61998 13.7746 9.68862 14.654 9.50798C14.8753 9.46134 15.0373 9.42998 15.2053 9.55798C15.2462 9.59262 15.2784 9.63614 15.2995 9.68534C15.3207 9.73446 15.3302 9.7879 15.3273 9.84134C15.3183 9.92222 15.2885 9.99942 15.2406 10.0653C15.0706 10.3206 14.7353 10.5626 14.3053 10.762C13.9246 10.9393 13.3786 11.032 12.8946 11.0373C12.652 11.04 12.428 11.0213 12.238 10.962L12.226 10.9573C12.1526 11.664 11.984 13.0593 11.874 13.696C11.786 14.2093 11.632 14.6173 11.338 14.9226C11.0446 15.228 10.6293 15.412 10.0706 15.532C9.37863 15.6806 8.87399 15.5206 8.54863 15.2466C8.22399 14.9733 8.07527 14.6106 7.98597 14.3886C7.92463 14.2353 7.89263 14.0366 7.86197 13.7713C7.8313 13.506 7.80863 13.1813 7.7933 12.8153C7.77287 12.2549 7.76621 11.6941 7.7733 11.1333C7.48424 11.3981 7.12503 11.574 6.73864 11.64C6.2793 11.718 5.8693 11.6413 5.62464 11.58C5.50403 11.5497 5.3876 11.5047 5.27797 11.446C5.16464 11.3853 5.05664 11.3166 4.98464 11.1813C4.94233 11.1038 4.92887 11.0138 4.94664 10.9273C4.96916 10.8397 5.02032 10.762 5.09197 10.7066C5.22397 10.5993 5.39864 10.5393 5.66197 10.4846C6.1413 10.386 6.30864 10.3186 6.41064 10.238C6.4973 10.1686 6.5953 10.0286 6.76864 9.82334C6.7678 9.81422 6.76714 9.8051 6.76664 9.79598C6.45643 9.78726 6.15264 9.7055 5.87997 9.55734C5.77997 9.66262 5.2693 10.2026 4.64664 10.952C4.38464 11.2653 4.0953 11.4453 3.78997 11.458C3.48464 11.4713 3.20864 11.3173 2.97397 11.09C2.5053 10.6346 2.1313 9.85134 1.8053 8.96598C1.47997 8.08062 1.2153 7.09465 1.0273 6.25465C0.838636 5.41465 0.727302 4.73732 0.711302 4.41065C0.641302 3.02265 0.965972 2.08732 1.52264 1.49732C2.07997 0.907321 2.84397 0.683985 3.58864 0.641319C4.9253 0.564651 6.19464 1.03065 6.4513 1.13065C6.94597 0.794651 7.5833 0.585319 8.37928 0.598651C8.7572 0.603952 9.13319 0.652717 9.49999 0.743985L9.51327 0.737985C9.67471 0.681243 9.83919 0.633612 10.006 0.595319C10.4588 0.489688 10.9217 0.433581 11.3866 0.427985L11.3873 0.426652ZM11.3913 0.873321H11.4886C12.5033 0.881321 13.714 1.17199 14.6086 2.31598C14.7226 2.46132 14.812 2.80932 14.8053 3.28932C14.7973 3.76932 14.706 4.37532 14.534 5.04398C14.2126 6.28598 13.61 7.74265 12.774 9.05934L12.749 9.02734C12.7323 9.00598 12.7158 8.98462 12.698 8.96334C13.014 8.43862 13.0726 7.90398 13.0486 7.41732C13.0376 7.19234 13.0119 6.97554 12.9874 6.76914C12.9555 6.50033 12.9258 6.24918 12.9333 6.02065C12.941 5.77542 12.9732 5.56142 13.0053 5.3489C13.0461 5.07843 13.0865 4.81035 13.0753 4.48332L13.077 4.48009C13.0781 4.47809 13.0793 4.47465 13.0793 4.47465C13.09 4.42998 13.0886 4.40398 13.0873 4.37865C13.084 4.32798 13.0746 4.27932 13.0606 4.22132C13.0326 4.10598 12.9833 3.95732 12.91 3.78132C12.7161 3.32317 12.4623 2.89274 12.1553 2.50132C11.7133 1.93598 11.086 1.36932 10.2553 1.00132C10.6289 0.921521 11.0094 0.878649 11.3913 0.873321ZM6.5133 1.64065C6.94197 1.28398 7.5073 1.04599 8.29527 1.04399V1.04532H8.372C10.048 1.07265 11.1326 1.92199 11.8026 2.77865C12.0846 3.13851 12.3179 3.53391 12.4966 3.95465C12.525 4.02178 12.5401 4.07062 12.5551 4.11881C12.561 4.13762 12.5667 4.15633 12.5733 4.17598C11.7826 4.09598 11.256 4.23865 10.956 4.58265C10.6173 4.96998 10.6366 5.51932 10.7686 6.04998C10.9013 6.58132 11.1566 7.12665 11.3913 7.57665C11.4946 7.77449 11.5938 7.95321 11.6766 8.1023L11.7093 8.16134C11.7699 8.2667 11.8271 8.37414 11.8806 8.48334C11.9925 8.74774 12.142 8.99446 12.3246 9.21598C12.3811 9.28638 12.4351 9.35862 12.4866 9.43262C12.438 9.44662 12.3786 9.46598 12.3153 9.49462C12.1886 9.55198 12.042 9.65798 11.9473 9.83134C11.8553 9.99998 11.8126 10.2213 11.826 10.5093C11.7966 10.8913 11.554 12.9213 11.4333 13.6213C11.3526 14.0886 11.2266 14.394 11.016 14.6133C10.8046 14.8326 10.4886 14.9853 9.97664 15.0953C9.386 15.222 9.06264 15.0953 8.83728 14.906C8.612 14.716 8.48727 14.4366 8.40199 14.2233C8.37599 14.1593 8.33527 13.97 8.30663 13.7213C8.27799 13.472 8.25528 13.156 8.24 12.7973C8.20888 11.967 8.20599 11.1358 8.23127 10.3053C8.23231 10.2765 8.22784 10.2477 8.218 10.2206C8.20864 10.1546 8.19263 10.0906 8.17063 10.0313C8.08599 9.80462 7.9293 9.60598 7.7013 9.51134C7.62663 9.47934 7.5013 9.42598 7.3413 9.43934C7.31837 9.44142 7.29544 9.44702 7.27251 9.45254L7.2553 9.45662C7.31631 9.22766 7.38998 9.00214 7.47596 8.78134C7.51011 8.6895 7.55307 8.59326 7.59982 8.48846C7.8634 7.89781 8.24727 7.03757 7.84863 5.19332C7.75063 4.74132 7.48064 4.44332 7.15396 4.31665C6.8273 4.18999 6.46664 4.21398 6.13197 4.29065C5.7973 4.36798 5.48464 4.50132 5.24664 4.63465L5.23797 4.63999C5.2693 4.23732 5.34864 3.64398 5.57997 3.03065C5.77464 2.51399 6.0713 2.00932 6.5133 1.64065ZM3.61397 1.08599C3.69797 1.08132 3.78264 1.07865 3.8673 1.07865C3.95179 1.07876 4.0356 1.08099 4.11997 1.08532C4.90664 1.12399 5.6333 1.32932 6.04264 1.46399C5.62597 1.87199 5.34797 2.37598 5.1613 2.87198C4.8998 3.59353 4.76624 4.35585 4.76664 5.12332L4.7673 5.12732V5.13065C4.76718 5.13487 4.76718 5.1391 4.7673 5.14332C4.7673 5.20938 4.7724 5.29328 4.77874 5.39771C4.78654 5.52617 4.79622 5.6857 4.80064 5.88132C4.80864 6.24532 4.7993 6.70598 4.73064 7.19865C4.67362 7.58586 4.715 7.98118 4.85096 8.34822C4.98693 8.71518 5.21311 9.04206 5.50864 9.29862C5.09212 9.74094 4.68971 10.1963 4.30197 10.664C4.0893 10.9193 3.9153 11.0026 3.77064 11.0093C3.62664 11.0153 3.46797 10.944 3.2853 10.7673C2.92264 10.414 2.54064 9.66734 2.2253 8.80934C1.91064 7.95132 1.64864 6.97998 1.46397 6.15465C1.27864 5.32932 1.17064 4.63465 1.15797 4.38665C1.09264 3.07665 1.39264 2.28532 1.84864 1.80265C2.30397 1.31999 2.94064 1.12465 3.61397 1.08599ZM11.2926 4.87532C11.426 4.72265 11.68 4.60598 12.1326 4.59998C12.2976 4.6001 12.4624 4.61079 12.626 4.63198C12.6212 4.84139 12.5932 5.035 12.5633 5.24189C12.5305 5.46839 12.4954 5.71082 12.486 6.00732C12.4764 6.29791 12.5115 6.58635 12.5462 6.87164C12.5695 7.06282 12.5926 7.2526 12.602 7.44065C12.62 7.81932 12.5886 8.18262 12.4133 8.55262C12.372 8.47934 12.3313 8.40062 12.2946 8.31134C12.2594 8.22598 12.2043 8.12766 12.1304 7.99578L12.1 7.94132L12.0748 7.89616C11.991 7.74552 11.8908 7.56581 11.788 7.36798C11.5613 6.93265 11.32 6.40865 11.2033 5.93998C11.086 5.47198 11.104 5.09198 11.2926 4.87532ZM6.23264 4.72598C6.36729 4.69449 6.50501 4.67794 6.6433 4.67665C6.76217 4.67403 6.88054 4.693 6.99264 4.73265C7.19264 4.80998 7.33797 4.94732 7.4113 5.28732C7.78242 7.0045 7.48212 7.66529 7.21404 8.25518C7.15803 8.37846 7.10342 8.49862 7.05664 8.62462L7.02354 8.71294C6.94171 8.93078 6.86326 9.13966 6.8133 9.34598C5.8413 9.34462 5.01397 8.40062 5.1733 7.26065C5.24664 6.73598 5.25597 6.25132 5.24797 5.87132C5.24218 5.61999 5.23046 5.42696 5.2229 5.30258C5.22002 5.25506 5.21774 5.21755 5.21664 5.19065L5.2313 5.17732C5.30433 5.12005 5.38218 5.06919 5.46397 5.02532C5.70576 4.89185 5.96426 4.79119 6.23264 4.72598ZM12.746 9.82062L12.748 9.81998C12.8147 9.8751 12.8894 9.91934 12.9693 9.95262C13.2913 10.0853 13.8166 10.1366 14.7453 9.94462C14.5564 10.1106 14.3447 10.2487 14.1166 10.3546C13.8386 10.484 13.3153 10.5833 12.89 10.588C12.6766 10.5913 12.4853 10.5686 12.3713 10.534C12.3361 10.5238 12.3028 10.5081 12.2726 10.4873C12.262 10.256 12.298 10.12 12.34 10.0433C12.3738 9.9779 12.4306 9.9271 12.4993 9.90062C12.5366 9.88422 12.5776 9.87238 12.6232 9.85926C12.6609 9.84838 12.7017 9.83662 12.746 9.82062ZM7.37997 9.88262H7.39397V9.88398C7.44118 9.88982 7.48712 9.90334 7.52997 9.92398C7.60197 9.95398 7.70397 10.0613 7.75064 10.186C7.79664 10.3106 7.79063 10.4266 7.73463 10.5053C7.40997 10.9606 7.0293 11.136 6.6633 11.1986C6.2973 11.2606 5.94664 11.1986 5.7333 11.1453C5.65797 11.126 5.56464 11.0906 5.49197 11.0506C5.47181 11.0401 5.46645 11.0349 5.4588 11.0275C5.45531 11.0241 5.45135 11.0203 5.4453 11.0153C5.5053 10.9866 5.5953 10.9513 5.75264 10.9193C6.2493 10.8173 6.49797 10.736 6.6893 10.584C6.80622 10.4907 6.88207 10.3934 6.97632 10.2725C7.03631 10.1956 7.10374 10.1091 7.19397 10.008C7.2933 9.89798 7.34463 9.88598 7.37997 9.88262Z" fill="#336791"/>
<path d="M6.70797 4.92465C6.7433 4.92465 6.78063 4.92799 6.81863 4.93332C6.92063 4.94732 7.0113 4.97465 7.08063 5.01465C7.11445 5.03231 7.14455 5.0563 7.1693 5.08532C7.18278 5.10072 7.19293 5.11873 7.19912 5.13824C7.20532 5.15773 7.20742 5.1783 7.2053 5.19865C7.19889 5.23699 7.18152 5.27264 7.1553 5.30132C7.12803 5.3348 7.09589 5.36402 7.05997 5.38799C6.97327 5.44941 6.86676 5.47628 6.7613 5.46332C6.65352 5.4456 6.55487 5.39205 6.4813 5.31132C6.45 5.27881 6.42351 5.242 6.40263 5.20199C6.38066 5.16679 6.37104 5.12527 6.3753 5.08399C6.3853 5.01199 6.44463 4.97465 6.50263 4.95399C6.5687 4.93288 6.63803 4.92384 6.7073 4.92732L6.70797 4.92465Z" fill="#336791"/>
<path d="M11.9213 4.81267H11.9546C11.9986 4.814 12.0393 4.81867 12.0746 4.82734C12.1106 4.83534 12.1413 4.84734 12.1666 4.864C12.1796 4.87205 12.1908 4.88274 12.1994 4.89537C12.208 4.908 12.2139 4.9223 12.2166 4.93734L12.216 4.94267C12.2173 4.97432 12.2091 5.00565 12.1926 5.03267C12.173 5.06926 12.1483 5.10293 12.1193 5.13267C12.0517 5.20714 11.9611 5.25689 11.862 5.27401C11.7655 5.28566 11.6682 5.2612 11.5886 5.20534C11.5561 5.18344 11.5269 5.15695 11.502 5.12667C11.4804 5.10288 11.4658 5.07357 11.46 5.042C11.4586 5.02662 11.4603 5.01112 11.4651 4.99645C11.47 4.98177 11.4778 4.96824 11.488 4.95667C11.5098 4.93181 11.5363 4.91144 11.566 4.89667C11.63 4.86067 11.7166 4.834 11.8146 4.81934C11.8513 4.814 11.8873 4.81134 11.9213 4.81067V4.81267Z" fill="#336791"/>
<path fill-rule="evenodd" clip-rule="evenodd" d="M11.3873 0.426652C12.506 0.415985 13.9353 0.729985 14.9613 2.04132C15.192 2.33599 15.2606 2.76665 15.2526 3.29732C15.244 3.82732 15.146 4.46198 14.9666 5.15732C14.6186 6.50398 13.9613 8.07398 13.0353 9.48262C13.068 9.5059 13.1034 9.5251 13.1406 9.53998C13.334 9.61998 13.7746 9.68862 14.654 9.50798C14.8753 9.46134 15.0373 9.42998 15.2053 9.55798C15.2462 9.59262 15.2784 9.63614 15.2995 9.68534C15.3207 9.73446 15.3302 9.7879 15.3273 9.84134C15.3183 9.92222 15.2885 9.99942 15.2406 10.0653C15.0706 10.3206 14.7353 10.5626 14.3053 10.762C13.9246 10.9393 13.3786 11.032 12.8946 11.0373C12.652 11.04 12.428 11.0213 12.238 10.962L12.226 10.9573C12.1526 11.664 11.984 13.0593 11.874 13.696C11.786 14.2093 11.632 14.6173 11.338 14.9226C11.0446 15.228 10.6293 15.412 10.0706 15.532C9.37863 15.6806 8.87399 15.5206 8.54863 15.2466C8.22399 14.9733 8.07527 14.6106 7.98597 14.3886C7.92463 14.2353 7.89263 14.0366 7.86197 13.7713C7.8313 13.506 7.80863 13.1813 7.7933 12.8153C7.77287 12.2549 7.76621 11.6941 7.7733 11.1333C7.48424 11.3981 7.12503 11.574 6.73864 11.64C6.2793 11.718 5.8693 11.6413 5.62464 11.58C5.50403 11.5497 5.3876 11.5047 5.27797 11.446C5.16464 11.3853 5.05664 11.3166 4.98464 11.1813C4.94233 11.1038 4.92887 11.0138 4.94664 10.9273C4.96916 10.8397 5.02032 10.762 5.09197 10.7066C5.22397 10.5993 5.39864 10.5393 5.66197 10.4846C6.1413 10.386 6.30864 10.3186 6.41064 10.238C6.4973 10.1686 6.5953 10.0286 6.76864 9.82334C6.7678 9.81422 6.76714 9.8051 6.76664 9.79598C6.45643 9.78726 6.15264 9.7055 5.87997 9.55734C5.77997 9.66262 5.2693 10.2026 4.64664 10.952C4.38464 11.2653 4.0953 11.4453 3.78997 11.458C3.48464 11.4713 3.20864 11.3173 2.97397 11.09C2.5053 10.6346 2.1313 9.85134 1.8053 8.96598C1.47997 8.08062 1.2153 7.09465 1.0273 6.25465C0.838636 5.41465 0.727302 4.73732 0.711302 4.41065C0.641302 3.02265 0.965972 2.08732 1.52264 1.49732C2.07997 0.907321 2.84397 0.683985 3.58864 0.641319C4.9253 0.564651 6.19464 1.03065 6.4513 1.13065C6.94597 0.794651 7.5833 0.585319 8.37928 0.598651C8.7572 0.603952 9.13319 0.652717 9.49999 0.743985L9.51327 0.737985C9.67471 0.681243 9.83919 0.633612 10.006 0.595319C10.4588 0.489688 10.9217 0.433581 11.3866 0.427985L11.3873 0.426652ZM11.3913 0.873321H11.4886C12.5033 0.881321 13.714 1.17199 14.6086 2.31598C14.7226 2.46132 14.812 2.80932 14.8053 3.28932C14.7973 3.76932 14.706 4.37532 14.534 5.04398C14.2126 6.28598 13.61 7.74265 12.774 9.05934C12.7655 9.04862 12.7572 9.03798 12.749 9.02734C12.7323 9.00598 12.7158 8.98462 12.698 8.96334C13.014 8.43862 13.0726 7.90398 13.0486 7.41732C13.0376 7.19234 13.0119 6.97554 12.9874 6.76914C12.9555 6.50033 12.9258 6.24918 12.9333 6.02065C12.941 5.77542 12.9732 5.56142 13.0053 5.3489C13.0461 5.07843 13.0865 4.81035 13.0753 4.48332L13.077 4.48009L13.0783 4.47748L13.0793 4.47465C13.09 4.42998 13.0886 4.40398 13.0873 4.37865C13.084 4.32798 13.0746 4.27932 13.0606 4.22132C13.0326 4.10598 12.9833 3.95732 12.91 3.78132C12.7161 3.32317 12.4623 2.89274 12.1553 2.50132C11.7133 1.93598 11.086 1.36932 10.2553 1.00132C10.6289 0.921521 11.0094 0.878649 11.3913 0.873321ZM6.5133 1.64065C6.94197 1.28398 7.5073 1.04599 8.29527 1.04399V1.04532H8.372C10.048 1.07265 11.1326 1.92199 11.8026 2.77865C12.0846 3.13851 12.3179 3.53391 12.4966 3.95465C12.525 4.02178 12.5401 4.07062 12.5551 4.11881C12.561 4.13762 12.5667 4.15633 12.5733 4.17598C11.7826 4.09598 11.256 4.23865 10.956 4.58265C10.6173 4.96998 10.6366 5.51932 10.7686 6.04998C10.9013 6.58132 11.1566 7.12665 11.3913 7.57665C11.4946 7.77449 11.5938 7.95321 11.6766 8.1023C11.6878 8.12254 11.6987 8.14222 11.7093 8.16134C11.7699 8.2667 11.8271 8.37414 11.8806 8.48334C11.9925 8.74774 12.142 8.99446 12.3246 9.21598C12.3811 9.28638 12.4351 9.35862 12.4866 9.43262C12.438 9.44662 12.3786 9.46598 12.3153 9.49462C12.1886 9.55198 12.042 9.65798 11.9473 9.83134C11.8553 9.99998 11.8126 10.2213 11.826 10.5093C11.7966 10.8913 11.554 12.9213 11.4333 13.6213C11.3526 14.0886 11.2266 14.394 11.016 14.6133C10.8046 14.8326 10.4886 14.9853 9.97664 15.0953C9.386 15.222 9.06264 15.0953 8.83728 14.906C8.612 14.716 8.48727 14.4366 8.40199 14.2233C8.37599 14.1593 8.33527 13.97 8.30663 13.7213C8.27799 13.472 8.25528 13.156 8.24 12.7973C8.20888 11.967 8.20599 11.1358 8.23127 10.3053C8.23231 10.2765 8.22784 10.2477 8.218 10.2206C8.20864 10.1546 8.19263 10.0906 8.17063 10.0313C8.08599 9.80462 7.9293 9.60598 7.7013 9.51134C7.62663 9.47934 7.5013 9.42598 7.3413 9.43934C7.31837 9.44142 7.29544 9.44702 7.27251 9.45254C7.26677 9.4539 7.26103 9.45534 7.2553 9.45662C7.31631 9.22766 7.38998 9.00214 7.47596 8.78134C7.51011 8.6895 7.55307 8.59326 7.59982 8.48846C7.8634 7.89781 8.24727 7.03757 7.84863 5.19332C7.75063 4.74132 7.48064 4.44332 7.15396 4.31665C6.8273 4.18999 6.46664 4.21398 6.13197 4.29065C5.7973 4.36798 5.48464 4.50132 5.24664 4.63465L5.23797 4.63999C5.2693 4.23732 5.34864 3.64398 5.57997 3.03065C5.77464 2.51399 6.0713 2.00932 6.5133 1.64065ZM3.61397 1.08599C3.69797 1.08132 3.78264 1.07865 3.8673 1.07865C3.95179 1.07876 4.0356 1.08099 4.11997 1.08532C4.90664 1.12399 5.6333 1.32932 6.04264 1.46399C5.62597 1.87199 5.34797 2.37598 5.1613 2.87198C4.8998 3.59353 4.76624 4.35585 4.76664 5.12332L4.7673 5.12732V5.13065C4.76718 5.13487 4.76718 5.1391 4.7673 5.14332C4.7673 5.20938 4.7724 5.29328 4.77874 5.39771C4.78654 5.52617 4.79622 5.6857 4.80064 5.88132C4.80864 6.24532 4.7993 6.70598 4.73064 7.19865C4.67362 7.58586 4.715 7.98118 4.85096 8.34822C4.98693 8.71518 5.21311 9.04206 5.50864 9.29862C5.09212 9.74094 4.68971 10.1963 4.30197 10.664C4.0893 10.9193 3.9153 11.0026 3.77064 11.0093C3.62664 11.0153 3.46797 10.944 3.2853 10.7673C2.92264 10.414 2.54064 9.66734 2.2253 8.80934C1.91064 7.95132 1.64864 6.97998 1.46397 6.15465C1.27864 5.32932 1.17064 4.63465 1.15797 4.38665C1.09264 3.07665 1.39264 2.28532 1.84864 1.80265C2.30397 1.31999 2.94064 1.12465 3.61397 1.08599ZM11.2926 4.87532C11.426 4.72265 11.68 4.60598 12.1326 4.59998C12.2976 4.6001 12.4624 4.61079 12.626 4.63198C12.6212 4.84139 12.5932 5.035 12.5633 5.24189C12.5305 5.46839 12.4954 5.71082 12.486 6.00732C12.4764 6.29791 12.5115 6.58635 12.5462 6.87164C12.5695 7.06282 12.5926 7.2526 12.602 7.44065C12.62 7.81932 12.5886 8.18262 12.4133 8.55262C12.372 8.47934 12.3313 8.40062 12.2946 8.31134C12.2594 8.22598 12.2043 8.12766 12.1304 7.99578C12.1206 7.97823 12.1105 7.9601 12.1 7.94132C12.0918 7.92658 12.0834 7.91152 12.0748 7.89616C11.991 7.74552 11.8908 7.56581 11.788 7.36798C11.5613 6.93265 11.32 6.40865 11.2033 5.93998C11.086 5.47198 11.104 5.09198 11.2926 4.87532ZM6.23264 4.72598C6.36729 4.69449 6.50501 4.67794 6.6433 4.67665C6.76217 4.67403 6.88054 4.693 6.99264 4.73265C7.19264 4.80998 7.33797 4.94732 7.4113 5.28732C7.78242 7.0045 7.48212 7.66529 7.21404 8.25518C7.15803 8.37846 7.10342 8.49862 7.05664 8.62462C7.04558 8.65422 7.03453 8.68366 7.02354 8.71294C6.94171 8.93078 6.86326 9.13966 6.8133 9.34598C5.8413 9.34462 5.01397 8.40062 5.1733 7.26065C5.24664 6.73598 5.25597 6.25132 5.24797 5.87132C5.24218 5.61999 5.23046 5.42696 5.2229 5.30258C5.22002 5.25506 5.21774 5.21755 5.21664 5.19065L5.2313 5.17732C5.30433 5.12005 5.38218 5.06919 5.46397 5.02532C5.70576 4.89185 5.96426 4.79119 6.23264 4.72598ZM12.746 9.82062L12.748 9.81998C12.8147 9.8751 12.8894 9.91934 12.9693 9.95262C13.2913 10.0853 13.8166 10.1366 14.7453 9.94462C14.5564 10.1106 14.3447 10.2487 14.1166 10.3546C13.8386 10.484 13.3153 10.5833 12.89 10.588C12.6766 10.5913 12.4853 10.5686 12.3713 10.534C12.3361 10.5238 12.3028 10.5081 12.2726 10.4873C12.262 10.256 12.298 10.12 12.34 10.0433C12.3738 9.9779 12.4306 9.9271 12.4993 9.90062C12.5366 9.88422 12.5776 9.87238 12.6232 9.85926C12.6609 9.84838 12.7017 9.83662 12.746 9.82062ZM7.37997 9.88262H7.39397V9.88398C7.44118 9.88982 7.48712 9.90334 7.52997 9.92398C7.60197 9.95398 7.70397 10.0613 7.75064 10.186C7.79664 10.3106 7.79063 10.4266 7.73463 10.5053C7.40997 10.9606 7.0293 11.136 6.6633 11.1986C6.2973 11.2606 5.94664 11.1986 5.7333 11.1453C5.65797 11.126 5.56464 11.0906 5.49197 11.0506C5.47181 11.0401 5.46645 11.0349 5.4588 11.0275C5.45531 11.0241 5.45135 11.0203 5.4453 11.0153C5.5053 10.9866 5.5953 10.9513 5.75264 10.9193C6.2493 10.8173 6.49797 10.736 6.6893 10.584C6.80622 10.4907 6.88207 10.3934 6.97632 10.2725C7.03631 10.1956 7.10374 10.1091 7.19397 10.008C7.2933 9.89798 7.34463 9.88598 7.37997 9.88262Z" fill="white"/>
<path d="M6.70797 4.92465C6.7433 4.92465 6.78063 4.92799 6.81863 4.93332C6.92063 4.94732 7.0113 4.97465 7.08063 5.01465C7.11445 5.03231 7.14455 5.0563 7.1693 5.08532C7.18278 5.10072 7.19293 5.11873 7.19912 5.13824C7.20532 5.15773 7.20742 5.1783 7.2053 5.19865C7.19889 5.23699 7.18152 5.27264 7.1553 5.30132C7.12803 5.3348 7.09589 5.36402 7.05997 5.38799C6.97327 5.44941 6.86676 5.47628 6.7613 5.46332C6.65352 5.4456 6.55487 5.39205 6.4813 5.31132C6.45 5.27881 6.42351 5.242 6.40263 5.20199C6.38066 5.16679 6.37104 5.12527 6.3753 5.08399C6.3853 5.01199 6.44463 4.97465 6.50263 4.95399C6.5687 4.93288 6.63803 4.92384 6.7073 4.92732L6.70797 4.92465Z" fill="white"/>
<path d="M11.9213 4.81267H11.9546C11.9986 4.814 12.0393 4.81867 12.0746 4.82734C12.1106 4.83534 12.1413 4.84734 12.1666 4.864C12.1796 4.87205 12.1908 4.88274 12.1994 4.89537C12.208 4.908 12.2139 4.9223 12.2166 4.93734L12.216 4.94267C12.2173 4.97432 12.2091 5.00565 12.1926 5.03267C12.173 5.06926 12.1483 5.10293 12.1193 5.13267C12.0517 5.20714 11.9611 5.25689 11.862 5.27401C11.7655 5.28566 11.6682 5.2612 11.5886 5.20534C11.5561 5.18344 11.5269 5.15695 11.502 5.12667C11.4804 5.10288 11.4658 5.07357 11.46 5.042C11.4586 5.02662 11.4603 5.01112 11.4651 4.99645C11.47 4.98177 11.4778 4.96824 11.488 4.95667C11.5098 4.93181 11.5363 4.91144 11.566 4.89667C11.63 4.86067 11.7166 4.834 11.8146 4.81934C11.8513 4.814 11.8873 4.81134 11.9213 4.81067V4.81267Z" fill="white"/>
</g>
<defs>
<clipPath id="clip0_1_1042">
<rect width="16" height="16" fill="white"/>
</clipPath>
</defs>
</svg>
