<svg width="16" height="16" viewBox="0 0 16 16" fill="none" xmlns="http://www.w3.org/2000/svg">
<g clip-path="url(#clip0_1406_3369)">
<path d="M11.4187 0C10.7971 0.0046243 10.179 0.0950328 9.5821 0.268666L9.5401 0.282C9.16354 0.215458 8.78234 0.178678 8.4001 0.172C7.61474 0.158666 6.94007 0.349334 6.39607 0.666666C5.86007 0.480666 4.74807 0.16 3.57607 0.224C2.76007 0.268666 1.8694 0.516666 1.2094 1.21334C0.551404 1.91 0.203404 2.988 0.276737 4.45466C0.296737 4.85934 0.41207 5.51934 0.603404 6.374C0.794737 7.22866 1.0634 8.22936 1.39874 9.142C1.73407 10.0554 2.1014 10.8754 2.6754 11.4326C2.96207 11.712 3.35674 11.9466 3.82207 11.9274C4.14874 11.914 4.44407 11.7706 4.69874 11.5594C4.82274 11.7226 4.9554 11.794 5.07607 11.86C5.22807 11.9434 5.37607 12 5.5294 12.0374C5.80474 12.106 6.27607 12.198 6.82807 12.104C7.01607 12.0726 7.21407 12.0114 7.4114 11.924C7.41874 12.144 7.4274 12.3594 7.43607 12.5774C7.4634 13.268 7.48074 13.906 7.68807 14.4654C7.7214 14.5566 7.81274 15.0274 8.17274 15.4426C8.53274 15.8586 9.2381 16.118 10.0414 15.946C10.6081 15.8246 11.3287 15.606 11.8074 14.9246C12.2807 14.2514 12.4941 13.2854 12.5361 11.7186C12.5467 11.634 12.5594 11.562 12.5727 11.4946L12.6854 11.5046H12.6987C13.3034 11.532 13.9594 11.446 14.5074 11.1914C14.9927 10.9666 15.3601 10.7394 15.6274 10.336C15.6941 10.236 15.7674 10.1154 15.7874 9.90736C15.8074 9.69936 15.6881 9.374 15.4901 9.224C15.0934 8.92264 14.8441 9.03736 14.5767 9.09264C14.3134 9.15088 14.0451 9.18352 13.7754 9.19C14.5461 7.892 15.0987 6.51334 15.4141 5.29334C15.6007 4.57334 15.7054 3.90934 15.7141 3.32866C15.7227 2.748 15.6754 2.234 15.3274 1.78934C14.2401 0.4 12.7114 0.016 11.5287 0.00266666C11.4921 0.002 11.4554 0.00133334 11.4187 0.002V0ZM11.3874 0.426666C12.5061 0.416 13.9354 0.73 14.9614 2.04134C15.1921 2.336 15.2607 2.76666 15.2527 3.29734C15.2441 3.82734 15.1461 4.462 14.9667 5.15734C14.6187 6.504 13.9614 8.074 13.0354 9.48264C13.0681 9.50592 13.1035 9.52512 13.1407 9.54C13.3341 9.62 13.7747 9.68864 14.6541 9.508C14.8754 9.46136 15.0374 9.43 15.2054 9.558C15.2463 9.59264 15.2785 9.63616 15.2996 9.68536C15.3208 9.73448 15.3303 9.78792 15.3274 9.84136C15.3184 9.92224 15.2886 9.99944 15.2407 10.0654C15.0707 10.3206 14.7354 10.5626 14.3054 10.762C13.9247 10.9394 13.3787 11.032 12.8947 11.0374C12.6521 11.04 12.4281 11.0214 12.2381 10.962L12.2261 10.9574C12.1527 11.664 11.9841 13.0594 11.8741 13.696C11.7861 14.2094 11.6321 14.6174 11.3381 14.9226C11.0447 15.228 10.6294 15.412 10.0707 15.532C9.37874 15.6806 8.8741 15.5206 8.54874 15.2466C8.2241 14.9734 8.07538 14.6106 7.98607 14.3886C7.92474 14.2354 7.89274 14.0366 7.86207 13.7714C7.8314 13.506 7.80874 13.1814 7.7934 12.8154C7.77298 12.2549 7.76631 11.6941 7.7734 11.1334C7.48434 11.3981 7.12513 11.574 6.73874 11.64C6.2794 11.718 5.8694 11.6414 5.62474 11.58C5.50413 11.5497 5.3877 11.5047 5.27807 11.446C5.16474 11.3854 5.05674 11.3166 4.98474 11.1814C4.94243 11.1038 4.92897 11.0138 4.94674 10.9274C4.96927 10.8397 5.02042 10.762 5.09207 10.7066C5.22407 10.5994 5.39874 10.5394 5.66207 10.4846C6.1414 10.386 6.30874 10.3186 6.41074 10.238C6.4974 10.1686 6.5954 10.0286 6.76874 9.82336C6.76791 9.81424 6.76724 9.80512 6.76674 9.796C6.45653 9.78728 6.15275 9.70552 5.88007 9.55736C5.78007 9.66264 5.2694 10.2026 4.64674 10.952C4.38474 11.2654 4.0954 11.4454 3.79007 11.458C3.48474 11.4714 3.20874 11.3174 2.97407 11.09C2.5054 10.6346 2.1314 9.85136 1.8054 8.966C1.48007 8.08064 1.2154 7.09466 1.0274 6.25466C0.838737 5.41466 0.727404 4.73734 0.711404 4.41066C0.641404 3.02266 0.966073 2.08734 1.52274 1.49734C2.08007 0.907336 2.84407 0.684 3.58874 0.641334C4.9254 0.564666 6.19474 1.03066 6.4514 1.13066C6.94607 0.794666 7.5834 0.585334 8.37938 0.598666C8.7573 0.603967 9.1333 0.652732 9.5001 0.744L9.51338 0.738C9.67482 0.681258 9.8393 0.633627 10.0061 0.595334C10.4589 0.489703 10.9218 0.433596 11.3867 0.428L11.3874 0.426666ZM11.4887 0.873336H11.3914C11.0095 0.878664 10.629 0.921536 10.2554 1.00134C11.0861 1.36934 11.7134 1.936 12.1554 2.50134C12.4624 2.89276 12.7162 3.32318 12.9101 3.78134C12.9834 3.95734 13.0327 4.106 13.0607 4.22134C13.0747 4.27934 13.0841 4.328 13.0874 4.37866C13.0887 4.404 13.0901 4.43 13.0794 4.47466C13.0794 4.47666 13.0761 4.48134 13.0754 4.48334C13.0954 5.06734 12.9507 5.46334 12.9334 6.02066C12.9201 6.42466 13.0234 6.89934 13.0487 7.41734C13.0727 7.904 13.0141 8.43864 12.6981 8.96336C12.7247 8.99536 12.7487 9.02736 12.7741 9.05936C13.6101 7.74266 14.2127 6.286 14.5341 5.044C14.7061 4.37534 14.7974 3.76934 14.8054 3.28934C14.8121 2.80934 14.7227 2.46134 14.6087 2.316C13.7141 1.172 12.5034 0.881336 11.4887 0.873336ZM8.29538 1.044C7.5074 1.046 6.94207 1.284 6.5134 1.64066C6.0714 2.00934 5.77474 2.514 5.58007 3.03066C5.34874 3.644 5.2694 4.23734 5.23807 4.64L5.24674 4.63466C5.48474 4.50134 5.7974 4.368 6.13207 4.29066C6.46674 4.214 6.8274 4.19 7.15407 4.31666C7.48074 4.44334 7.75074 4.74134 7.84874 5.19334C8.3181 7.36466 7.70274 8.172 7.47607 8.78136C7.39008 9.00216 7.31641 9.22768 7.2554 9.45664C7.28407 9.45 7.31274 9.442 7.3414 9.43936C7.5014 9.426 7.62674 9.47936 7.7014 9.51136C7.9294 9.606 8.0861 9.80464 8.17074 10.0314C8.19274 10.0906 8.20874 10.1546 8.2181 10.2206C8.22794 10.2478 8.23242 10.2765 8.23138 10.3054C8.2061 11.1358 8.20898 11.967 8.2401 12.7974C8.25538 13.156 8.2781 13.472 8.30674 13.7214C8.33538 13.97 8.3761 14.1594 8.4021 14.2234C8.48738 14.4366 8.6121 14.716 8.83738 14.906C9.06274 15.0954 9.3861 15.222 9.97674 15.0954C10.4887 14.9854 10.8047 14.8326 11.0161 14.6134C11.2267 14.394 11.3527 14.0886 11.4334 13.6214C11.5541 12.9214 11.7967 10.8914 11.8261 10.5094C11.8127 10.2214 11.8554 10 11.9474 9.83136C12.0421 9.658 12.1887 9.552 12.3154 9.49464C12.3787 9.466 12.4381 9.44664 12.4867 9.43264C12.4352 9.35864 12.3812 9.2864 12.3247 9.216C12.1421 8.99448 11.9926 8.74776 11.8807 8.48336C11.8272 8.37416 11.77 8.26672 11.7094 8.16136C11.6207 8.00136 11.5087 7.80134 11.3914 7.57666C11.1567 7.12666 10.9014 6.58134 10.7687 6.05C10.6367 5.51934 10.6174 4.97 10.9561 4.58266C11.2561 4.23866 11.7827 4.096 12.5734 4.176C12.5501 4.106 12.5361 4.048 12.4967 3.95466C12.318 3.53393 12.0847 3.13853 11.8027 2.77866C11.1327 1.922 10.0481 1.07266 8.3721 1.04534H8.29538V1.044ZM3.8674 1.07866C3.78274 1.07866 3.69807 1.08134 3.61407 1.086C2.94074 1.12466 2.30407 1.32 1.84874 1.80266C1.39274 2.28534 1.09274 3.07666 1.15807 4.38666C1.17074 4.63466 1.27874 5.32934 1.46407 6.15466C1.64874 6.98 1.91074 7.95134 2.2254 8.80936C2.54074 9.66736 2.92274 10.414 3.2854 10.7674C3.46807 10.944 3.62674 11.0154 3.77074 11.0094C3.9154 11.0026 4.0894 10.9194 4.30207 10.664C4.68981 10.1963 5.09223 9.74096 5.50874 9.29864C5.21321 9.04208 4.98703 8.7152 4.85107 8.34824C4.71511 7.9812 4.67372 7.58587 4.73074 7.19866C4.7994 6.706 4.80874 6.24534 4.80074 5.88134C4.79274 5.52666 4.7674 5.29066 4.7674 5.14334C4.76728 5.13911 4.76728 5.13489 4.7674 5.13066V5.12734L4.76674 5.12334C4.76634 4.35586 4.8999 3.59354 5.1614 2.872C5.34807 2.376 5.62607 1.872 6.04274 1.464C5.6334 1.32934 4.90674 1.124 4.12007 1.08534C4.0357 1.081 3.95189 1.07878 3.8674 1.07866ZM12.1327 4.6C11.6801 4.606 11.4261 4.72266 11.2927 4.87534C11.1041 5.092 11.0861 5.472 11.2034 5.94C11.3201 6.40866 11.5614 6.93266 11.7881 7.368C11.9014 7.586 12.0114 7.782 12.1001 7.94134C12.1894 8.10136 12.2547 8.21464 12.2947 8.31136C12.3314 8.40064 12.3721 8.47936 12.4134 8.55264C12.5887 8.18264 12.6201 7.81934 12.6021 7.44066C12.5787 6.972 12.4701 6.49266 12.4861 6.00734C12.5041 5.44 12.6161 5.07066 12.6261 4.632C12.4625 4.61081 12.2977 4.60012 12.1327 4.6ZM6.6434 4.67666C6.50511 4.67796 6.36739 4.6945 6.23274 4.726C5.96436 4.79121 5.70587 4.89186 5.46407 5.02534C5.38228 5.06921 5.30443 5.12006 5.2314 5.17734L5.21674 5.19066C5.22074 5.288 5.24007 5.524 5.24807 5.87134C5.25607 6.25134 5.24674 6.736 5.1734 7.26066C5.01407 8.40064 5.8414 9.34464 6.8134 9.346C6.87007 9.112 6.9634 8.87464 7.05674 8.62464C7.3274 7.89534 7.86007 7.36334 7.4114 5.28734C7.33807 4.94734 7.19274 4.81 6.99274 4.73266C6.88064 4.69302 6.76227 4.67405 6.6434 4.67666ZM11.9214 4.81266H11.9547C11.9987 4.814 12.0394 4.81866 12.0747 4.82734C12.1107 4.83534 12.1414 4.84734 12.1667 4.864C12.1797 4.87205 12.1909 4.88274 12.1995 4.89537C12.2081 4.908 12.214 4.9223 12.2167 4.93734L12.2161 4.94266C12.2174 4.97431 12.2092 5.00564 12.1927 5.03266C12.1731 5.06926 12.1484 5.10292 12.1194 5.13266C12.0518 5.20714 11.9612 5.25689 11.8621 5.274C11.7656 5.28566 11.6683 5.2612 11.5887 5.20534C11.5562 5.18344 11.527 5.15694 11.5021 5.12666C11.4805 5.10288 11.4659 5.07357 11.4601 5.042C11.4587 5.02662 11.4604 5.01111 11.4652 4.99644C11.4701 4.98177 11.4779 4.96823 11.4881 4.95666C11.5099 4.93181 11.5364 4.91143 11.5661 4.89666C11.6301 4.86066 11.7167 4.834 11.8147 4.81934C11.8514 4.814 11.8874 4.81134 11.9214 4.81066V4.81266ZM6.70807 4.92466C6.7434 4.92466 6.78074 4.928 6.81874 4.93334C6.92074 4.94734 7.0114 4.97466 7.08074 5.01466C7.11455 5.03232 7.14466 5.05631 7.1694 5.08534C7.18288 5.10073 7.19303 5.11874 7.19923 5.13825C7.20543 5.15774 7.20752 5.17831 7.2054 5.19866C7.19899 5.237 7.18163 5.27266 7.1554 5.30134C7.12813 5.33482 7.09599 5.36403 7.06007 5.388C6.97337 5.44942 6.86687 5.47629 6.7614 5.46334C6.65363 5.44562 6.55498 5.39206 6.4814 5.31134C6.45011 5.27882 6.42361 5.24201 6.40274 5.202C6.38076 5.1668 6.37115 5.12528 6.3754 5.084C6.3854 5.012 6.44474 4.97466 6.50274 4.954C6.5688 4.93289 6.63813 4.92386 6.7074 4.92734L6.70807 4.92466ZM12.7481 9.82L12.7461 9.82064C12.6481 9.856 12.5674 9.87064 12.4994 9.90064C12.4307 9.92712 12.3739 9.97792 12.3401 10.0434C12.2981 10.12 12.2621 10.256 12.2727 10.4874C12.3029 10.5081 12.3362 10.5238 12.3714 10.534C12.4854 10.5686 12.6767 10.5914 12.8901 10.588C13.3154 10.5834 13.8387 10.484 14.1167 10.3546C14.3448 10.2487 14.5565 10.1106 14.7454 9.94464C13.8167 10.1366 13.2914 10.0854 12.9694 9.95264C12.8895 9.91936 12.8148 9.87512 12.7481 9.82ZM7.39407 9.88264H7.38007C7.34474 9.886 7.2934 9.898 7.19407 10.008C6.96207 10.268 6.88074 10.4314 6.6894 10.584C6.49807 10.736 6.2494 10.8174 5.75274 10.9194C5.5954 10.9514 5.5054 10.9866 5.4454 11.0154C5.46474 11.0314 5.46274 11.0354 5.49207 11.0506C5.56474 11.0906 5.65807 11.126 5.7334 11.1454C5.94674 11.1986 6.2974 11.2606 6.6634 11.1986C7.0294 11.136 7.41007 10.9606 7.73474 10.5054C7.79074 10.4266 7.79674 10.3106 7.75074 10.186C7.70407 10.0614 7.60207 9.954 7.53007 9.924C7.48723 9.90336 7.44128 9.88984 7.39407 9.884V9.88264Z" fill="#FF00FF"/>
</g>
<defs>
<clipPath id="clip0_1406_3369">
<rect width="16" height="16" fill="white"/>
</clipPath>
</defs>
</svg>
