<svg width="16" height="16" viewBox="0 0 16 16" fill="none" xmlns="http://www.w3.org/2000/svg">
<g clip-path="url(#clip0_348_3718)">
<path d="M11.4187 0C10.797 0.0046243 10.1789 0.095033 9.582 0.268667L9.54 0.282C9.16348 0.215458 8.7823 0.178678 8.4 0.172C7.61467 0.158667 6.94 0.349333 6.396 0.666667C5.86 0.480667 4.748 0.16 3.576 0.224C2.76 0.268667 1.86934 0.516667 1.20934 1.21333C0.551335 1.91 0.203335 2.988 0.276669 4.45467C0.296669 4.85933 0.412002 5.51933 0.603335 6.374C0.794669 7.22867 1.06334 8.22933 1.39867 9.142C1.734 10.0553 2.10134 10.8753 2.67533 11.4327C2.962 11.712 3.35667 11.9467 3.822 11.9273C4.14867 11.914 4.444 11.7707 4.69867 11.5593C4.82267 11.7227 4.95533 11.794 5.076 11.86C5.228 11.9433 5.376 12 5.52933 12.0373C5.80467 12.106 6.276 12.198 6.828 12.104C7.016 12.0727 7.214 12.0113 7.41133 11.924C7.41867 12.144 7.42734 12.3593 7.436 12.5773C7.46334 13.268 7.48067 13.906 7.688 14.4653C7.72133 14.5567 7.81267 15.0273 8.17267 15.4427C8.53267 15.8587 9.238 16.118 10.0413 15.946C10.608 15.8247 11.3287 15.606 11.8073 14.9247C12.2807 14.2513 12.494 13.2853 12.536 11.7187C12.5467 11.634 12.5593 11.562 12.5727 11.4947L12.6853 11.5047H12.6987C13.3033 11.532 13.9593 11.446 14.5073 11.1913C14.9927 10.9667 15.36 10.7393 15.6273 10.336C15.694 10.236 15.7673 10.1153 15.7873 9.90733C15.8073 9.69933 15.688 9.374 15.49 9.224C15.0933 8.92267 14.844 9.03733 14.5767 9.09267C14.3133 9.15089 14.045 9.18348 13.7753 9.19C14.546 7.892 15.0987 6.51333 15.414 5.29333C15.6007 4.57333 15.7053 3.90933 15.714 3.32867C15.7227 2.748 15.6753 2.234 15.3273 1.78933C14.24 0.4 12.7113 0.016 11.5287 0.00266667C11.492 0.002 11.4553 0.00133333 11.4187 0.002V0ZM11.3873 0.426667C12.506 0.416 13.9353 0.73 14.9613 2.04133C15.192 2.336 15.2607 2.76667 15.2527 3.29733C15.244 3.82733 15.146 4.462 14.9667 5.15733C14.6187 6.504 13.9613 8.074 13.0353 9.48267C13.068 9.5059 13.1034 9.52515 13.1407 9.54C13.334 9.62 13.7747 9.68867 14.654 9.508C14.8753 9.46133 15.0373 9.43 15.2053 9.558C15.2462 9.59261 15.2784 9.63619 15.2996 9.68535C15.3208 9.73451 15.3302 9.78789 15.3273 9.84133C15.3184 9.92225 15.2885 9.99945 15.2407 10.0653C15.0707 10.3207 14.7353 10.5627 14.3053 10.762C13.9247 10.9393 13.3787 11.032 12.8947 11.0373C12.652 11.04 12.428 11.0213 12.238 10.962L12.226 10.9573C12.1527 11.664 11.984 13.0593 11.874 13.696C11.786 14.2093 11.632 14.6173 11.338 14.9227C11.0447 15.228 10.6293 15.412 10.0707 15.532C9.37867 15.6807 8.874 15.5207 8.54867 15.2467C8.224 14.9733 8.07534 14.6107 7.986 14.3887C7.92467 14.2353 7.89267 14.0367 7.862 13.7713C7.83133 13.506 7.80867 13.1813 7.79333 12.8153C7.77291 12.2549 7.76624 11.6941 7.77333 11.1333C7.48427 11.3981 7.12506 11.574 6.73867 11.64C6.27934 11.718 5.86933 11.6413 5.62467 11.58C5.50406 11.5497 5.38763 11.5047 5.278 11.446C5.16467 11.3853 5.05667 11.3167 4.98467 11.1813C4.94236 11.1038 4.9289 11.0138 4.94667 10.9273C4.9692 10.8397 5.02035 10.762 5.092 10.7067C5.224 10.5993 5.39867 10.5393 5.662 10.4847C6.14133 10.386 6.30867 10.3187 6.41067 10.238C6.49733 10.1687 6.59533 10.0287 6.76867 9.82333C6.76784 9.81424 6.76717 9.80512 6.76667 9.796C6.45646 9.78727 6.15268 9.7055 5.88 9.55733C5.78 9.66267 5.26933 10.2027 4.64667 10.952C4.38467 11.2653 4.09534 11.4453 3.79 11.458C3.48467 11.4713 3.20867 11.3173 2.974 11.09C2.50534 10.6347 2.13134 9.85133 1.80534 8.966C1.48 8.08067 1.21534 7.09467 1.02734 6.25467C0.838669 5.41467 0.727335 4.73733 0.711335 4.41067C0.641335 3.02267 0.966002 2.08733 1.52267 1.49733C2.08 0.907333 2.844 0.684 3.58867 0.641333C4.92533 0.564667 6.19467 1.03067 6.45133 1.13067C6.946 0.794667 7.58333 0.585333 8.37933 0.598667C8.75723 0.603967 9.13326 0.652732 9.5 0.744L9.51334 0.738C9.67476 0.681258 9.83924 0.633627 10.006 0.595333C10.4588 0.489703 10.9217 0.433596 11.3867 0.428L11.3873 0.426667ZM11.4887 0.873333H11.3913C11.0094 0.87866 10.6289 0.921533 10.2553 1.00133C11.086 1.36933 11.7133 1.936 12.1553 2.50133C12.4624 2.89276 12.7161 3.32318 12.91 3.78133C12.9833 3.95733 13.0327 4.106 13.0607 4.22133C13.0747 4.27933 13.084 4.328 13.0873 4.37867C13.0887 4.404 13.09 4.43 13.0793 4.47467C13.0793 4.47667 13.076 4.48133 13.0753 4.48333C13.0953 5.06733 12.9507 5.46333 12.9333 6.02067C12.92 6.42467 13.0233 6.89933 13.0487 7.41733C13.0727 7.904 13.014 8.43867 12.698 8.96333C12.7247 8.99533 12.7487 9.02733 12.774 9.05933C13.61 7.74267 14.2127 6.286 14.534 5.044C14.706 4.37533 14.7973 3.76933 14.8053 3.28933C14.812 2.80933 14.7227 2.46133 14.6087 2.316C13.714 1.172 12.5033 0.881333 11.4887 0.873333ZM8.29533 1.044C7.50733 1.046 6.942 1.284 6.51334 1.64067C6.07134 2.00933 5.77467 2.514 5.58 3.03067C5.34867 3.644 5.26933 4.23733 5.238 4.64L5.24667 4.63467C5.48467 4.50133 5.79734 4.368 6.132 4.29067C6.46667 4.214 6.82733 4.19 7.154 4.31667C7.48067 4.44333 7.75067 4.74133 7.84867 5.19333C8.318 7.36467 7.70267 8.172 7.476 8.78133C7.39001 9.00219 7.31634 9.22765 7.25533 9.45667C7.284 9.45 7.31267 9.442 7.34133 9.43933C7.50133 9.426 7.62667 9.47933 7.70133 9.51133C7.92933 9.606 8.086 9.80467 8.17067 10.0313C8.19267 10.0907 8.20867 10.1547 8.218 10.2207C8.22785 10.2478 8.23238 10.2765 8.23133 10.3053C8.20606 11.1359 8.20895 11.967 8.24 12.7973C8.25533 13.156 8.278 13.472 8.30667 13.7213C8.33533 13.97 8.376 14.1593 8.402 14.2233C8.48733 14.4367 8.612 14.716 8.83733 14.906C9.06267 15.0953 9.386 15.222 9.97667 15.0953C10.4887 14.9853 10.8047 14.8327 11.016 14.6133C11.2267 14.394 11.3527 14.0887 11.4333 13.6213C11.554 12.9213 11.7967 10.8913 11.826 10.5093C11.8127 10.2213 11.8553 10 11.9473 9.83133C12.042 9.658 12.1887 9.552 12.3153 9.49467C12.3787 9.466 12.438 9.44667 12.4867 9.43267C12.4351 9.35863 12.3811 9.28636 12.3247 9.216C12.142 8.99451 11.9925 8.74773 11.8807 8.48333C11.8271 8.37415 11.77 8.26675 11.7093 8.16133C11.6207 8.00133 11.5087 7.80133 11.3913 7.57667C11.1567 7.12667 10.9013 6.58133 10.7687 6.05C10.6367 5.51933 10.6173 4.97 10.956 4.58267C11.256 4.23867 11.7827 4.096 12.5733 4.176C12.55 4.106 12.536 4.048 12.4967 3.95467C12.3179 3.53392 12.0846 3.13853 11.8027 2.77867C11.1327 1.922 10.048 1.07267 8.372 1.04533H8.29533V1.044ZM3.86734 1.07867C3.78267 1.07867 3.698 1.08133 3.614 1.086C2.94067 1.12467 2.304 1.32 1.84867 1.80267C1.39267 2.28533 1.09267 3.07667 1.158 4.38667C1.17067 4.63467 1.27867 5.32933 1.464 6.15467C1.64867 6.98 1.91067 7.95133 2.22534 8.80933C2.54067 9.66733 2.92267 10.414 3.28534 10.7673C3.468 10.944 3.62667 11.0153 3.77067 11.0093C3.91534 11.0027 4.08933 10.9193 4.302 10.664C4.68974 10.1963 5.09216 9.74095 5.50867 9.29867C5.21314 9.04207 4.98697 8.71521 4.851 8.3482C4.71503 7.9812 4.67365 7.58587 4.73067 7.19867C4.79934 6.706 4.80867 6.24533 4.80067 5.88133C4.79267 5.52667 4.76733 5.29067 4.76733 5.14333C4.76722 5.13911 4.76722 5.13489 4.76733 5.13067V5.12733L4.76667 5.12333C4.76627 4.35586 4.89983 3.59355 5.16133 2.872C5.348 2.376 5.626 1.872 6.04267 1.464C5.63334 1.32933 4.90667 1.124 4.12 1.08533C4.03563 1.081 3.95182 1.07878 3.86734 1.07867ZM12.1327 4.6C11.68 4.606 11.426 4.72267 11.2927 4.87533C11.104 5.092 11.086 5.472 11.2033 5.94C11.32 6.40867 11.5613 6.93267 11.788 7.368C11.9013 7.586 12.0113 7.782 12.1 7.94133C12.1893 8.10133 12.2547 8.21467 12.2947 8.31133C12.3313 8.40067 12.372 8.47933 12.4133 8.55267C12.5887 8.18267 12.62 7.81933 12.602 7.44067C12.5787 6.972 12.47 6.49267 12.486 6.00733C12.504 5.44 12.616 5.07067 12.626 4.632C12.4624 4.61081 12.2976 4.60012 12.1327 4.6ZM6.64333 4.67667C6.50505 4.67796 6.36733 4.6945 6.23267 4.726C5.96429 4.7912 5.7058 4.89187 5.464 5.02533C5.38221 5.06921 5.30437 5.12006 5.23133 5.17733L5.21667 5.19067C5.22067 5.288 5.24 5.524 5.248 5.87133C5.256 6.25133 5.24667 6.736 5.17334 7.26067C5.014 8.40067 5.84133 9.34467 6.81333 9.346C6.87 9.112 6.96334 8.87467 7.05667 8.62467C7.32733 7.89533 7.86 7.36333 7.41133 5.28733C7.338 4.94733 7.19267 4.81 6.99267 4.73267C6.88057 4.69302 6.76221 4.67405 6.64333 4.67667ZM11.9213 4.81267H11.9547C11.9987 4.814 12.0393 4.81867 12.0747 4.82733C12.1107 4.83533 12.1413 4.84733 12.1667 4.864C12.1797 4.87205 12.1908 4.88273 12.1994 4.89537C12.2081 4.908 12.2139 4.92229 12.2167 4.93733L12.216 4.94267C12.2173 4.97432 12.2092 5.00564 12.1927 5.03267C12.173 5.06926 12.1483 5.10292 12.1193 5.13267C12.0517 5.20714 11.9611 5.25688 11.862 5.274C11.7655 5.28566 11.6682 5.2612 11.5887 5.20533C11.5561 5.18344 11.5269 5.15694 11.502 5.12667C11.4804 5.10288 11.4659 5.07357 11.46 5.042C11.4586 5.02662 11.4604 5.01112 11.4652 4.99644C11.47 4.98177 11.4778 4.96823 11.488 4.95667C11.5099 4.93181 11.5364 4.91143 11.566 4.89667C11.63 4.86067 11.7167 4.834 11.8147 4.81933C11.8513 4.814 11.8873 4.81133 11.9213 4.81067V4.81267ZM6.708 4.92467C6.74334 4.92467 6.78067 4.928 6.81867 4.93333C6.92067 4.94733 7.01133 4.97467 7.08067 5.01467C7.11448 5.03232 7.14459 5.05631 7.16933 5.08533C7.18281 5.10073 7.19296 5.11874 7.19916 5.13824C7.20535 5.15775 7.20746 5.17832 7.20533 5.19867C7.19893 5.237 7.18156 5.27265 7.15533 5.30133C7.12806 5.33482 7.09593 5.36403 7.06 5.388C6.9733 5.44942 6.8668 5.47629 6.76133 5.46333C6.65356 5.44562 6.55491 5.39206 6.48133 5.31133C6.45003 5.27883 6.42354 5.24201 6.40267 5.202C6.38069 5.1668 6.37108 5.12528 6.37533 5.084C6.38533 5.012 6.44467 4.97467 6.50267 4.954C6.56873 4.93289 6.63806 4.92386 6.70733 4.92733L6.708 4.92467ZM12.748 9.82L12.746 9.82067C12.648 9.856 12.5673 9.87067 12.4993 9.90067C12.4306 9.92714 12.3739 9.9779 12.34 10.0433C12.298 10.12 12.262 10.256 12.2727 10.4873C12.3028 10.5081 12.3361 10.5239 12.3713 10.534C12.4853 10.5687 12.6767 10.5913 12.89 10.588C13.3153 10.5833 13.8387 10.484 14.1167 10.3547C14.3447 10.2487 14.5564 10.1107 14.7453 9.94467C13.8167 10.1367 13.2913 10.0853 12.9693 9.95267C12.8894 9.9194 12.8148 9.87513 12.748 9.82ZM7.394 9.88267H7.38C7.34467 9.886 7.29334 9.898 7.194 10.008C6.962 10.268 6.88067 10.4313 6.68933 10.584C6.498 10.736 6.24933 10.8173 5.75267 10.9193C5.59533 10.9513 5.50533 10.9867 5.44533 11.0153C5.46467 11.0313 5.46267 11.0353 5.492 11.0507C5.56467 11.0907 5.658 11.126 5.73334 11.1453C5.94667 11.1987 6.29733 11.2607 6.66333 11.1987C7.02933 11.136 7.41 10.9607 7.73467 10.5053C7.79067 10.4267 7.79667 10.3107 7.75067 10.186C7.704 10.0613 7.602 9.954 7.53 9.924C7.48716 9.90333 7.44122 9.88981 7.394 9.884V9.88267Z" fill="black"/>
<path fill-rule="evenodd" clip-rule="evenodd" d="M11.3873 0.426667C12.506 0.416 13.9353 0.73 14.9613 2.04133C15.192 2.336 15.2607 2.76667 15.2527 3.29733C15.244 3.82733 15.146 4.462 14.9667 5.15733C14.6187 6.504 13.9613 8.074 13.0353 9.48267C13.068 9.5059 13.1034 9.52515 13.1407 9.54C13.334 9.62 13.7747 9.68867 14.654 9.508C14.8753 9.46133 15.0373 9.43 15.2053 9.558C15.2462 9.59261 15.2784 9.63619 15.2996 9.68535C15.3208 9.73451 15.3302 9.78789 15.3273 9.84133C15.3184 9.92225 15.2885 9.99945 15.2407 10.0653C15.0707 10.3207 14.7353 10.5627 14.3053 10.762C13.9247 10.9393 13.3787 11.032 12.8947 11.0373C12.652 11.04 12.428 11.0213 12.238 10.962L12.226 10.9573C12.1527 11.664 11.984 13.0593 11.874 13.696C11.786 14.2093 11.632 14.6173 11.338 14.9227C11.0447 15.228 10.6293 15.412 10.0707 15.532C9.37867 15.6807 8.874 15.5207 8.54867 15.2467C8.224 14.9733 8.07534 14.6107 7.986 14.3887C7.92467 14.2353 7.89267 14.0367 7.862 13.7713C7.83133 13.506 7.80867 13.1813 7.79333 12.8153C7.77291 12.2549 7.76624 11.6941 7.77333 11.1333C7.48427 11.3981 7.12506 11.574 6.73867 11.64C6.27934 11.718 5.86933 11.6413 5.62467 11.58C5.50406 11.5497 5.38763 11.5047 5.278 11.446C5.16467 11.3853 5.05667 11.3167 4.98467 11.1813C4.94236 11.1038 4.9289 11.0138 4.94667 10.9273C4.9692 10.8397 5.02035 10.762 5.092 10.7067C5.224 10.5993 5.39867 10.5393 5.662 10.4847C6.14133 10.386 6.30867 10.3187 6.41067 10.238C6.49733 10.1687 6.59533 10.0287 6.76867 9.82333C6.76784 9.81424 6.76717 9.80512 6.76667 9.796C6.45646 9.78727 6.15268 9.7055 5.88 9.55733C5.78 9.66267 5.26933 10.2027 4.64667 10.952C4.38467 11.2653 4.09534 11.4453 3.79 11.458C3.48467 11.4713 3.20867 11.3173 2.974 11.09C2.50534 10.6347 2.13134 9.85133 1.80534 8.966C1.48 8.08067 1.21534 7.09467 1.02734 6.25467C0.838669 5.41467 0.727335 4.73733 0.711335 4.41067C0.641335 3.02267 0.966002 2.08733 1.52267 1.49733C2.08 0.907333 2.844 0.684 3.58867 0.641333C4.92533 0.564667 6.19467 1.03067 6.45133 1.13067C6.946 0.794667 7.58333 0.585333 8.37933 0.598667C8.75723 0.603967 9.13326 0.652732 9.5 0.744L9.51334 0.738C9.67476 0.681258 9.83924 0.633627 10.006 0.595333C10.4588 0.489703 10.9217 0.433596 11.3867 0.428L11.3873 0.426667ZM11.3913 0.873333H11.4887C12.5033 0.881333 13.714 1.172 14.6087 2.316C14.7227 2.46133 14.812 2.80933 14.8053 3.28933C14.7973 3.76933 14.706 4.37533 14.534 5.044C14.2127 6.286 13.61 7.74267 12.774 9.05933C12.7487 9.02733 12.7247 8.99533 12.698 8.96333C13.014 8.43867 13.0727 7.904 13.0487 7.41733C13.0233 6.89933 12.92 6.42467 12.9333 6.02067C12.9507 5.46333 13.0953 5.06733 13.0753 4.48333C13.076 4.48133 13.0793 4.47667 13.0793 4.47467C13.09 4.43 13.0887 4.404 13.0873 4.37867C13.084 4.328 13.0747 4.27933 13.0607 4.22133C13.0327 4.106 12.9833 3.95733 12.91 3.78133C12.7161 3.32318 12.4624 2.89276 12.1553 2.50133C11.7133 1.936 11.086 1.36933 10.2553 1.00133C10.6289 0.921533 11.0094 0.87866 11.3913 0.873333ZM6.51334 1.64067C6.942 1.284 7.50733 1.046 8.29533 1.044V1.04533H8.372C10.048 1.07267 11.1327 1.922 11.8027 2.77867C12.0846 3.13853 12.3179 3.53392 12.4967 3.95467C12.536 4.048 12.55 4.106 12.5733 4.176C11.7827 4.096 11.256 4.23867 10.956 4.58267C10.6173 4.97 10.6367 5.51933 10.7687 6.05C10.9013 6.58133 11.1567 7.12667 11.3913 7.57667C11.5087 7.80133 11.6207 8.00133 11.7093 8.16133C11.77 8.26675 11.8271 8.37415 11.8807 8.48333C11.9925 8.74773 12.142 8.99451 12.3247 9.216C12.3811 9.28636 12.4351 9.35863 12.4867 9.43267C12.438 9.44667 12.3787 9.466 12.3153 9.49467C12.1887 9.552 12.042 9.658 11.9473 9.83133C11.8553 10 11.8127 10.2213 11.826 10.5093C11.7967 10.8913 11.554 12.9213 11.4333 13.6213C11.3527 14.0887 11.2267 14.394 11.016 14.6133C10.8047 14.8327 10.4887 14.9853 9.97667 15.0953C9.386 15.222 9.06267 15.0953 8.83733 14.906C8.612 14.716 8.48733 14.4367 8.402 14.2233C8.376 14.1593 8.33533 13.97 8.30667 13.7213C8.278 13.472 8.25533 13.156 8.24 12.7973C8.20895 11.967 8.20606 11.1359 8.23133 10.3053C8.23238 10.2765 8.22785 10.2478 8.218 10.2207C8.20867 10.1547 8.19267 10.0907 8.17067 10.0313C8.086 9.80467 7.92933 9.606 7.70133 9.51133C7.62667 9.47933 7.50133 9.426 7.34133 9.43933C7.31267 9.442 7.284 9.45 7.25533 9.45667C7.31634 9.22765 7.39001 9.00219 7.476 8.78133C7.70267 8.172 8.318 7.36467 7.84867 5.19333C7.75067 4.74133 7.48067 4.44333 7.154 4.31667C6.82733 4.19 6.46667 4.214 6.132 4.29067C5.79734 4.368 5.48467 4.50133 5.24667 4.63467L5.238 4.64C5.26933 4.23733 5.34867 3.644 5.58 3.03067C5.77467 2.514 6.07134 2.00933 6.51334 1.64067ZM3.614 1.086C3.698 1.08133 3.78267 1.07867 3.86734 1.07867C3.95182 1.07878 4.03563 1.081 4.12 1.08533C4.90667 1.124 5.63334 1.32933 6.04267 1.464C5.626 1.872 5.348 2.376 5.16133 2.872C4.89983 3.59355 4.76627 4.35586 4.76667 5.12333L4.76733 5.12733V5.13067C4.76722 5.13489 4.76722 5.13911 4.76733 5.14333C4.76733 5.29067 4.79267 5.52667 4.80067 5.88133C4.80867 6.24533 4.79934 6.706 4.73067 7.19867C4.67365 7.58587 4.71503 7.9812 4.851 8.3482C4.98697 8.71521 5.21314 9.04207 5.50867 9.29867C5.09216 9.74095 4.68974 10.1963 4.302 10.664C4.08933 10.9193 3.91534 11.0027 3.77067 11.0093C3.62667 11.0153 3.468 10.944 3.28534 10.7673C2.92267 10.414 2.54067 9.66733 2.22534 8.80933C1.91067 7.95133 1.64867 6.98 1.464 6.15467C1.27867 5.32933 1.17067 4.63467 1.158 4.38667C1.09267 3.07667 1.39267 2.28533 1.84867 1.80267C2.304 1.32 2.94067 1.12467 3.614 1.086ZM11.2927 4.87533C11.426 4.72267 11.68 4.606 12.1327 4.6C12.2976 4.60012 12.4624 4.61081 12.626 4.632C12.616 5.07067 12.504 5.44 12.486 6.00733C12.47 6.49267 12.5787 6.972 12.602 7.44067C12.62 7.81933 12.5887 8.18267 12.4133 8.55267C12.372 8.47933 12.3313 8.40067 12.2947 8.31133C12.2547 8.21467 12.1893 8.10133 12.1 7.94133C12.0113 7.782 11.9013 7.586 11.788 7.368C11.5613 6.93267 11.32 6.40867 11.2033 5.94C11.086 5.472 11.104 5.092 11.2927 4.87533ZM6.23267 4.726C6.36733 4.6945 6.50505 4.67796 6.64333 4.67667C6.76221 4.67405 6.88057 4.69302 6.99267 4.73267C7.19267 4.81 7.338 4.94733 7.41133 5.28733C7.86 7.36333 7.32733 7.89533 7.05667 8.62467C6.96334 8.87467 6.87 9.112 6.81333 9.346C5.84133 9.34467 5.014 8.40067 5.17334 7.26067C5.24667 6.736 5.256 6.25133 5.248 5.87133C5.24 5.524 5.22067 5.288 5.21667 5.19067L5.23133 5.17733C5.30437 5.12006 5.38221 5.06921 5.464 5.02533C5.7058 4.89187 5.96429 4.7912 6.23267 4.726ZM12.746 9.82067L12.748 9.82C12.8148 9.87513 12.8894 9.9194 12.9693 9.95267C13.2913 10.0853 13.8167 10.1367 14.7453 9.94467C14.5564 10.1107 14.3447 10.2487 14.1167 10.3547C13.8387 10.484 13.3153 10.5833 12.89 10.588C12.6767 10.5913 12.4853 10.5687 12.3713 10.534C12.3361 10.5239 12.3028 10.5081 12.2727 10.4873C12.262 10.256 12.298 10.12 12.34 10.0433C12.3739 9.9779 12.4306 9.92714 12.4993 9.90067C12.5673 9.87067 12.648 9.856 12.746 9.82067ZM7.38 9.88267H7.394V9.884C7.44122 9.88981 7.48716 9.90333 7.53 9.924C7.602 9.954 7.704 10.0613 7.75067 10.186C7.79667 10.3107 7.79067 10.4267 7.73467 10.5053C7.41 10.9607 7.02933 11.136 6.66333 11.1987C6.29733 11.2607 5.94667 11.1987 5.73334 11.1453C5.658 11.126 5.56467 11.0907 5.492 11.0507C5.46267 11.0353 5.46467 11.0313 5.44533 11.0153C5.50533 10.9867 5.59533 10.9513 5.75267 10.9193C6.24933 10.8173 6.498 10.736 6.68933 10.584C6.88067 10.4313 6.962 10.268 7.194 10.008C7.29334 9.898 7.34467 9.886 7.38 9.88267Z" fill="black"/>
<path d="M6.708 4.92467C6.74334 4.92467 6.78067 4.928 6.81867 4.93333C6.92067 4.94733 7.01133 4.97467 7.08067 5.01467C7.11448 5.03232 7.14459 5.05631 7.16933 5.08533C7.18281 5.10073 7.19296 5.11874 7.19916 5.13824C7.20535 5.15775 7.20746 5.17832 7.20533 5.19867C7.19893 5.237 7.18156 5.27265 7.15533 5.30133C7.12806 5.33482 7.09593 5.36403 7.06 5.388C6.9733 5.44942 6.8668 5.47629 6.76133 5.46333C6.65356 5.44562 6.55491 5.39206 6.48133 5.31133C6.45003 5.27883 6.42354 5.24201 6.40267 5.202C6.38069 5.1668 6.37108 5.12528 6.37533 5.084C6.38533 5.012 6.44467 4.97467 6.50267 4.954C6.56873 4.93289 6.63806 4.92386 6.70733 4.92733L6.708 4.92467Z" fill="black"/>
<path d="M11.9213 4.81267H11.9547C11.9987 4.814 12.0393 4.81867 12.0747 4.82733C12.1107 4.83533 12.1413 4.84733 12.1667 4.864C12.1797 4.87205 12.1908 4.88273 12.1994 4.89537C12.2081 4.908 12.2139 4.92229 12.2167 4.93733L12.216 4.94267C12.2173 4.97432 12.2092 5.00564 12.1927 5.03267C12.173 5.06926 12.1483 5.10292 12.1193 5.13267C12.0517 5.20714 11.9611 5.25688 11.862 5.274C11.7655 5.28566 11.6682 5.2612 11.5887 5.20533C11.5561 5.18344 11.5269 5.15694 11.502 5.12667C11.4804 5.10288 11.4659 5.07357 11.46 5.042C11.4586 5.02662 11.4604 5.01112 11.4652 4.99644C11.47 4.98177 11.4778 4.96823 11.488 4.95667C11.5099 4.93181 11.5364 4.91143 11.566 4.89667C11.63 4.86067 11.7167 4.834 11.8147 4.81933C11.8513 4.814 11.8873 4.81133 11.9213 4.81067V4.81267Z" fill="black"/>
<path fill-rule="evenodd" clip-rule="evenodd" d="M11.3913 0.873333H11.4887C12.5033 0.881333 13.714 1.172 14.6087 2.316C14.7227 2.46133 14.812 2.80933 14.8053 3.28933C14.7973 3.76933 14.706 4.37533 14.534 5.044C14.2127 6.286 13.61 7.74267 12.774 9.05933C12.7656 9.04866 12.7573 9.03799 12.749 9.02732C12.7324 9.00599 12.7158 8.98466 12.698 8.96333C13.014 8.43867 13.0727 7.904 13.0487 7.41733C13.0377 7.19235 13.0119 6.97555 12.9875 6.76916C12.9556 6.50035 12.9258 6.2492 12.9333 6.02067C12.941 5.77543 12.9732 5.56144 13.0053 5.34891C13.0461 5.07845 13.0865 4.81037 13.0753 4.48333L13.077 4.4801C13.0781 4.47811 13.0793 4.47467 13.0793 4.47467C13.09 4.43 13.0887 4.404 13.0873 4.37867C13.084 4.328 13.0747 4.27933 13.0607 4.22133C13.0327 4.106 12.9833 3.95733 12.91 3.78133C12.7161 3.32318 12.4624 2.89276 12.1553 2.50133C11.7133 1.936 11.086 1.36933 10.2553 1.00133C10.6289 0.921533 11.0094 0.87866 11.3913 0.873333ZM6.51334 1.64067C6.942 1.284 7.50733 1.046 8.29533 1.044V1.04533H8.372C10.048 1.07267 11.1327 1.922 11.8027 2.77867C12.0846 3.13853 12.3179 3.53392 12.4967 3.95467C12.525 4.02179 12.5401 4.07064 12.5551 4.11883C12.561 4.13764 12.5668 4.15635 12.5733 4.176C11.7827 4.096 11.256 4.23867 10.956 4.58267C10.6173 4.97 10.6367 5.51933 10.7687 6.05C10.9013 6.58133 11.1567 7.12667 11.3913 7.57667C11.4947 7.77451 11.5938 7.95322 11.6766 8.10234C11.6878 8.12255 11.6987 8.14223 11.7093 8.16133C11.77 8.26675 11.8271 8.37415 11.8807 8.48333C11.9925 8.74773 12.142 8.99451 12.3247 9.216C12.3811 9.28636 12.4351 9.35863 12.4867 9.43267C12.438 9.44667 12.3787 9.466 12.3153 9.49467C12.1887 9.552 12.042 9.658 11.9473 9.83133C11.8553 10 11.8127 10.2213 11.826 10.5093C11.7967 10.8913 11.554 12.9213 11.4333 13.6213C11.3527 14.0887 11.2267 14.394 11.016 14.6133C10.8047 14.8327 10.4887 14.9853 9.97667 15.0953C9.386 15.222 9.06267 15.0953 8.83733 14.906C8.612 14.716 8.48733 14.4367 8.402 14.2233C8.376 14.1593 8.33533 13.97 8.30667 13.7213C8.278 13.472 8.25533 13.156 8.24 12.7973C8.20895 11.967 8.20606 11.1359 8.23133 10.3053C8.23238 10.2765 8.22785 10.2478 8.218 10.2207C8.20867 10.1547 8.19267 10.0907 8.17067 10.0313C8.086 9.80467 7.92933 9.606 7.70133 9.51133C7.62667 9.47933 7.50133 9.426 7.34133 9.43933C7.3184 9.44147 7.29547 9.44701 7.27254 9.45256C7.2668 9.45395 7.26107 9.45533 7.25533 9.45667C7.31634 9.22765 7.39001 9.00219 7.476 8.78133C7.51014 8.68955 7.55311 8.59327 7.59985 8.48851C7.86344 7.89782 8.2473 7.03759 7.84867 5.19333C7.75067 4.74133 7.48067 4.44333 7.154 4.31667C6.82733 4.19 6.46667 4.214 6.132 4.29067C5.79734 4.368 5.48467 4.50133 5.24667 4.63467L5.238 4.64C5.26933 4.23733 5.34867 3.644 5.58 3.03067C5.77467 2.514 6.07134 2.00933 6.51334 1.64067ZM3.614 1.086C3.698 1.08133 3.78267 1.07867 3.86734 1.07867C3.95182 1.07878 4.03563 1.081 4.12 1.08533C4.90667 1.124 5.63334 1.32933 6.04267 1.464C5.626 1.872 5.348 2.376 5.16133 2.872C4.89983 3.59355 4.76627 4.35586 4.76667 5.12333L4.76733 5.12733V5.13067C4.76722 5.13489 4.76722 5.13911 4.76733 5.14333C4.76733 5.2094 4.77243 5.2933 4.77877 5.39773C4.78657 5.52619 4.79626 5.68571 4.80067 5.88133C4.80867 6.24533 4.79934 6.706 4.73067 7.19867C4.67365 7.58587 4.71503 7.9812 4.851 8.3482C4.98697 8.71521 5.21314 9.04207 5.50867 9.29867C5.09216 9.74095 4.68974 10.1963 4.302 10.664C4.08933 10.9193 3.91534 11.0027 3.77067 11.0093C3.62667 11.0153 3.468 10.944 3.28534 10.7673C2.92267 10.414 2.54067 9.66733 2.22534 8.80933C1.91067 7.95133 1.64867 6.98 1.464 6.15467C1.27867 5.32933 1.17067 4.63467 1.158 4.38667C1.09267 3.07667 1.39267 2.28533 1.84867 1.80267C2.304 1.32 2.94067 1.12467 3.614 1.086ZM11.2927 4.87533C11.426 4.72267 11.68 4.606 12.1327 4.6C12.2976 4.60012 12.4624 4.61081 12.626 4.632C12.6212 4.84141 12.5932 5.03502 12.5633 5.24191C12.5305 5.46841 12.4954 5.71083 12.486 6.00733C12.4764 6.29793 12.5115 6.58637 12.5463 6.87166C12.5695 7.06284 12.5926 7.25261 12.602 7.44067C12.62 7.81933 12.5887 8.18267 12.4133 8.55267C12.372 8.47933 12.3313 8.40067 12.2947 8.31133C12.2594 8.22601 12.2043 8.12771 12.1305 7.99579C12.1206 7.97825 12.1105 7.96011 12.1 7.94133C12.0918 7.92659 12.0834 7.91153 12.0749 7.89617C11.9909 7.74554 11.8908 7.56583 11.788 7.368C11.5613 6.93267 11.32 6.40867 11.2033 5.94C11.086 5.472 11.104 5.092 11.2927 4.87533ZM6.23267 4.726C6.36733 4.6945 6.50505 4.67796 6.64333 4.67667C6.76221 4.67405 6.88057 4.69302 6.99267 4.73267C7.19267 4.81 7.338 4.94733 7.41133 5.28733C7.78245 7.00452 7.48215 7.6653 7.21408 8.25519C7.15806 8.37844 7.10345 8.49861 7.05667 8.62467C7.04562 8.65427 7.03456 8.6837 7.02357 8.71297C6.94174 8.93083 6.86329 9.13971 6.81333 9.346C5.84133 9.34467 5.014 8.40067 5.17334 7.26067C5.24667 6.736 5.256 6.25133 5.248 5.87133C5.24221 5.62001 5.23049 5.42698 5.22294 5.30259C5.22005 5.25507 5.21777 5.21757 5.21667 5.19067L5.23133 5.17733C5.30437 5.12006 5.38221 5.06921 5.464 5.02533C5.7058 4.89187 5.96429 4.7912 6.23267 4.726ZM11.9547 4.81267H11.9213V4.81067C11.8873 4.81133 11.8513 4.814 11.8147 4.81933C11.7167 4.834 11.63 4.86067 11.566 4.89667C11.5364 4.91143 11.5099 4.93181 11.488 4.95667C11.4778 4.96823 11.47 4.98177 11.4652 4.99644C11.4604 5.01112 11.4586 5.02662 11.46 5.042C11.4659 5.07357 11.4804 5.10288 11.502 5.12667C11.5269 5.15694 11.5561 5.18344 11.5887 5.20533C11.6682 5.2612 11.7655 5.28566 11.862 5.274C11.9611 5.25688 12.0517 5.20714 12.1193 5.13267C12.1483 5.10292 12.173 5.06926 12.1927 5.03267C12.2092 5.00564 12.2173 4.97432 12.216 4.94267L12.2167 4.93733C12.2139 4.92229 12.2081 4.908 12.1994 4.89537C12.1908 4.88273 12.1797 4.87205 12.1667 4.864C12.1413 4.84733 12.1107 4.83533 12.0747 4.82733C12.0393 4.81867 11.9987 4.814 11.9547 4.81267ZM6.81867 4.93333C6.78067 4.928 6.74334 4.92467 6.708 4.92467L6.70733 4.92733C6.63806 4.92386 6.56873 4.93289 6.50267 4.954C6.44467 4.97467 6.38533 5.012 6.37533 5.084C6.37108 5.12528 6.38069 5.1668 6.40267 5.202C6.42354 5.24201 6.45003 5.27883 6.48133 5.31133C6.55491 5.39206 6.65356 5.44562 6.76133 5.46333C6.8668 5.47629 6.9733 5.44942 7.06 5.388C7.09593 5.36403 7.12806 5.33482 7.15533 5.30133C7.18156 5.27265 7.19893 5.237 7.20533 5.19867C7.20746 5.17832 7.20535 5.15775 7.19916 5.13824C7.19296 5.11874 7.18281 5.10073 7.16933 5.08533C7.14459 5.05631 7.11448 5.03232 7.08067 5.01467C7.01133 4.97467 6.92067 4.94733 6.81867 4.93333ZM12.746 9.82067L12.748 9.82C12.8148 9.87513 12.8894 9.9194 12.9693 9.95267C13.2913 10.0853 13.8167 10.1367 14.7453 9.94467C14.5564 10.1107 14.3447 10.2487 14.1167 10.3547C13.8387 10.484 13.3153 10.5833 12.89 10.588C12.6767 10.5913 12.4853 10.5687 12.3713 10.534C12.3361 10.5239 12.3028 10.5081 12.2727 10.4873C12.262 10.256 12.298 10.12 12.34 10.0433C12.3739 9.9779 12.4306 9.92714 12.4993 9.90067C12.5366 9.88423 12.5776 9.8724 12.6233 9.85925C12.6609 9.8484 12.7017 9.83665 12.746 9.82067ZM7.38 9.88267H7.394V9.884C7.44122 9.88981 7.48716 9.90333 7.53 9.924C7.602 9.954 7.704 10.0613 7.75067 10.186C7.79667 10.3107 7.79067 10.4267 7.73467 10.5053C7.41 10.9607 7.02933 11.136 6.66333 11.1987C6.29733 11.2607 5.94667 11.1987 5.73334 11.1453C5.658 11.126 5.56467 11.0907 5.492 11.0507C5.47184 11.0401 5.46648 11.0349 5.45883 11.0275C5.45534 11.0242 5.45138 11.0203 5.44533 11.0153C5.50533 10.9867 5.59533 10.9513 5.75267 10.9193C6.24933 10.8173 6.498 10.736 6.68933 10.584C6.80626 10.4907 6.8821 10.3934 6.97635 10.2725C7.03634 10.1956 7.10378 10.1091 7.194 10.008C7.29334 9.898 7.34467 9.886 7.38 9.88267Z" fill="#336791"/>
<path fill-rule="evenodd" clip-rule="evenodd" d="M11.3873 0.426667C12.506 0.416 13.9353 0.73 14.9613 2.04133C15.192 2.336 15.2607 2.76667 15.2527 3.29733C15.244 3.82733 15.146 4.462 14.9667 5.15733C14.6187 6.504 13.9613 8.074 13.0353 9.48267C13.068 9.5059 13.1034 9.52515 13.1407 9.54C13.334 9.62 13.7747 9.68867 14.654 9.508C14.8753 9.46133 15.0373 9.43 15.2053 9.558C15.2462 9.59261 15.2784 9.63619 15.2996 9.68535C15.3208 9.73451 15.3302 9.78789 15.3273 9.84133C15.3184 9.92225 15.2885 9.99945 15.2407 10.0653C15.0707 10.3207 14.7353 10.5627 14.3053 10.762C13.9247 10.9393 13.3787 11.032 12.8947 11.0373C12.652 11.04 12.428 11.0213 12.238 10.962L12.226 10.9573C12.1527 11.664 11.984 13.0593 11.874 13.696C11.786 14.2093 11.632 14.6173 11.338 14.9227C11.0447 15.228 10.6293 15.412 10.0707 15.532C9.37867 15.6807 8.874 15.5207 8.54867 15.2467C8.224 14.9733 8.07534 14.6107 7.986 14.3887C7.92467 14.2353 7.89267 14.0367 7.862 13.7713C7.83133 13.506 7.80867 13.1813 7.79333 12.8153C7.77291 12.2549 7.76624 11.6941 7.77333 11.1333C7.48427 11.3981 7.12506 11.574 6.73867 11.64C6.27934 11.718 5.86933 11.6413 5.62467 11.58C5.50406 11.5497 5.38763 11.5047 5.278 11.446C5.16467 11.3853 5.05667 11.3167 4.98467 11.1813C4.94236 11.1038 4.9289 11.0138 4.94667 10.9273C4.9692 10.8397 5.02035 10.762 5.092 10.7067C5.224 10.5993 5.39867 10.5393 5.662 10.4847C6.14133 10.386 6.30867 10.3187 6.41067 10.238C6.49733 10.1687 6.59533 10.0287 6.76867 9.82333C6.76784 9.81424 6.76717 9.80512 6.76667 9.796C6.45646 9.78727 6.15268 9.7055 5.88 9.55733C5.78 9.66267 5.26933 10.2027 4.64667 10.952C4.38467 11.2653 4.09534 11.4453 3.79 11.458C3.48467 11.4713 3.20867 11.3173 2.974 11.09C2.50534 10.6347 2.13134 9.85133 1.80534 8.966C1.48 8.08067 1.21534 7.09467 1.02734 6.25467C0.838669 5.41467 0.727335 4.73733 0.711335 4.41067C0.641335 3.02267 0.966002 2.08733 1.52267 1.49733C2.08 0.907333 2.844 0.684 3.58867 0.641333C4.92533 0.564667 6.19467 1.03067 6.45133 1.13067C6.946 0.794667 7.58333 0.585333 8.37933 0.598667C8.75723 0.603967 9.13326 0.652732 9.5 0.744L9.51334 0.738C9.67476 0.681258 9.83924 0.633627 10.006 0.595333C10.4588 0.489703 10.9217 0.433596 11.3867 0.428L11.3873 0.426667ZM11.3913 0.873333H11.4887C12.5033 0.881333 13.714 1.172 14.6087 2.316C14.7227 2.46133 14.812 2.80933 14.8053 3.28933C14.7973 3.76933 14.706 4.37533 14.534 5.044C14.2127 6.286 13.61 7.74267 12.774 9.05933L12.749 9.02732C12.7324 9.00599 12.7158 8.98466 12.698 8.96333C13.014 8.43867 13.0727 7.904 13.0487 7.41733C13.0377 7.19235 13.0119 6.97555 12.9875 6.76916C12.9556 6.50035 12.9258 6.2492 12.9333 6.02067C12.941 5.77543 12.9732 5.56144 13.0053 5.34891C13.0461 5.07845 13.0865 4.81037 13.0753 4.48333L13.077 4.4801C13.0781 4.47811 13.0793 4.47467 13.0793 4.47467C13.09 4.43 13.0887 4.404 13.0873 4.37867C13.084 4.328 13.0747 4.27933 13.0607 4.22133C13.0327 4.106 12.9833 3.95733 12.91 3.78133C12.7161 3.32318 12.4624 2.89276 12.1553 2.50133C11.7133 1.936 11.086 1.36933 10.2553 1.00133C10.6289 0.921533 11.0094 0.87866 11.3913 0.873333ZM6.51334 1.64067C6.942 1.284 7.50733 1.046 8.29533 1.044V1.04533H8.372C10.048 1.07267 11.1327 1.922 11.8027 2.77867C12.0846 3.13853 12.3179 3.53392 12.4967 3.95467C12.525 4.02179 12.5401 4.07064 12.5551 4.11883C12.561 4.13764 12.5668 4.15635 12.5733 4.176C11.7827 4.096 11.256 4.23867 10.956 4.58267C10.6173 4.97 10.6367 5.51933 10.7687 6.05C10.9013 6.58133 11.1567 7.12667 11.3913 7.57667C11.4947 7.77451 11.5938 7.95322 11.6766 8.10234L11.7093 8.16133C11.77 8.26675 11.8271 8.37415 11.8807 8.48333C11.9925 8.74773 12.142 8.99451 12.3247 9.216C12.3811 9.28636 12.4351 9.35863 12.4867 9.43267C12.438 9.44667 12.3787 9.466 12.3153 9.49467C12.1887 9.552 12.042 9.658 11.9473 9.83133C11.8553 10 11.8127 10.2213 11.826 10.5093C11.7967 10.8913 11.554 12.9213 11.4333 13.6213C11.3527 14.0887 11.2267 14.394 11.016 14.6133C10.8047 14.8327 10.4887 14.9853 9.97667 15.0953C9.386 15.222 9.06267 15.0953 8.83733 14.906C8.612 14.716 8.48733 14.4367 8.402 14.2233C8.376 14.1593 8.33533 13.97 8.30667 13.7213C8.278 13.472 8.25533 13.156 8.24 12.7973C8.20895 11.967 8.20606 11.1359 8.23133 10.3053C8.23238 10.2765 8.22785 10.2478 8.218 10.2207C8.20867 10.1547 8.19267 10.0907 8.17067 10.0313C8.086 9.80467 7.92933 9.606 7.70133 9.51133C7.62667 9.47933 7.50133 9.426 7.34133 9.43933C7.3184 9.44147 7.29547 9.44701 7.27254 9.45256L7.25533 9.45667C7.31634 9.22765 7.39001 9.00219 7.476 8.78133C7.51014 8.68955 7.55311 8.59327 7.59985 8.48851C7.86344 7.89782 8.2473 7.03759 7.84867 5.19333C7.75067 4.74133 7.48067 4.44333 7.154 4.31667C6.82733 4.19 6.46667 4.214 6.132 4.29067C5.79734 4.368 5.48467 4.50133 5.24667 4.63467L5.238 4.64C5.26933 4.23733 5.34867 3.644 5.58 3.03067C5.77467 2.514 6.07134 2.00933 6.51334 1.64067ZM3.614 1.086C3.698 1.08133 3.78267 1.07867 3.86734 1.07867C3.95182 1.07878 4.03563 1.081 4.12 1.08533C4.90667 1.124 5.63334 1.32933 6.04267 1.464C5.626 1.872 5.348 2.376 5.16133 2.872C4.89983 3.59355 4.76627 4.35586 4.76667 5.12333L4.76733 5.12733V5.13067C4.76722 5.13489 4.76722 5.13911 4.76733 5.14333C4.76733 5.2094 4.77243 5.2933 4.77877 5.39773C4.78657 5.52619 4.79626 5.68571 4.80067 5.88133C4.80867 6.24533 4.79934 6.706 4.73067 7.19867C4.67365 7.58587 4.71503 7.9812 4.851 8.3482C4.98697 8.71521 5.21314 9.04207 5.50867 9.29867C5.09216 9.74095 4.68974 10.1963 4.302 10.664C4.08933 10.9193 3.91534 11.0027 3.77067 11.0093C3.62667 11.0153 3.468 10.944 3.28534 10.7673C2.92267 10.414 2.54067 9.66733 2.22534 8.80933C1.91067 7.95133 1.64867 6.98 1.464 6.15467C1.27867 5.32933 1.17067 4.63467 1.158 4.38667C1.09267 3.07667 1.39267 2.28533 1.84867 1.80267C2.304 1.32 2.94067 1.12467 3.614 1.086ZM11.2927 4.87533C11.426 4.72267 11.68 4.606 12.1327 4.6C12.2976 4.60012 12.4624 4.61081 12.626 4.632C12.6212 4.84141 12.5932 5.03502 12.5633 5.24191C12.5305 5.46841 12.4954 5.71083 12.486 6.00733C12.4764 6.29793 12.5115 6.58637 12.5463 6.87166C12.5695 7.06284 12.5926 7.25261 12.602 7.44067C12.62 7.81933 12.5887 8.18267 12.4133 8.55267C12.372 8.47933 12.3313 8.40067 12.2947 8.31133C12.2594 8.22601 12.2043 8.12771 12.1305 7.99579L12.1 7.94133L12.0749 7.89617C11.9909 7.74554 11.8908 7.56583 11.788 7.368C11.5613 6.93267 11.32 6.40867 11.2033 5.94C11.086 5.472 11.104 5.092 11.2927 4.87533ZM6.23267 4.726C6.36733 4.6945 6.50505 4.67796 6.64333 4.67667C6.76221 4.67405 6.88057 4.69302 6.99267 4.73267C7.19267 4.81 7.338 4.94733 7.41133 5.28733C7.78245 7.00452 7.48215 7.6653 7.21408 8.25519C7.15806 8.37844 7.10345 8.49861 7.05667 8.62467L7.02357 8.71297C6.94174 8.93083 6.86329 9.13971 6.81333 9.346C5.84133 9.34467 5.014 8.40067 5.17334 7.26067C5.24667 6.736 5.256 6.25133 5.248 5.87133C5.24221 5.62001 5.23049 5.42698 5.22294 5.30259C5.22005 5.25507 5.21777 5.21757 5.21667 5.19067L5.23133 5.17733C5.30437 5.12006 5.38221 5.06921 5.464 5.02533C5.7058 4.89187 5.96429 4.7912 6.23267 4.726ZM12.746 9.82067L12.748 9.82C12.8148 9.87513 12.8894 9.9194 12.9693 9.95267C13.2913 10.0853 13.8167 10.1367 14.7453 9.94467C14.5564 10.1107 14.3447 10.2487 14.1167 10.3547C13.8387 10.484 13.3153 10.5833 12.89 10.588C12.6767 10.5913 12.4853 10.5687 12.3713 10.534C12.3361 10.5239 12.3028 10.5081 12.2727 10.4873C12.262 10.256 12.298 10.12 12.34 10.0433C12.3739 9.9779 12.4306 9.92714 12.4993 9.90067C12.5366 9.88423 12.5776 9.8724 12.6233 9.85925C12.6609 9.8484 12.7017 9.83665 12.746 9.82067ZM7.38 9.88267H7.394V9.884C7.44122 9.88981 7.48716 9.90333 7.53 9.924C7.602 9.954 7.704 10.0613 7.75067 10.186C7.79667 10.3107 7.79067 10.4267 7.73467 10.5053C7.41 10.9607 7.02933 11.136 6.66333 11.1987C6.29733 11.2607 5.94667 11.1987 5.73334 11.1453C5.658 11.126 5.56467 11.0907 5.492 11.0507C5.47184 11.0401 5.46648 11.0349 5.45883 11.0275C5.45534 11.0242 5.45138 11.0203 5.44533 11.0153C5.50533 10.9867 5.59533 10.9513 5.75267 10.9193C6.24933 10.8173 6.498 10.736 6.68933 10.584C6.80626 10.4907 6.8821 10.3934 6.97635 10.2725C7.03634 10.1956 7.10378 10.1091 7.194 10.008C7.29334 9.898 7.34467 9.886 7.38 9.88267Z" fill="#336791"/>
<path d="M6.708 4.92467C6.74334 4.92467 6.78067 4.928 6.81867 4.93333C6.92067 4.94733 7.01133 4.97467 7.08067 5.01467C7.11448 5.03232 7.14459 5.05631 7.16933 5.08533C7.18281 5.10073 7.19296 5.11874 7.19916 5.13824C7.20535 5.15775 7.20746 5.17832 7.20533 5.19867C7.19893 5.237 7.18156 5.27265 7.15533 5.30133C7.12806 5.33482 7.09593 5.36403 7.06 5.388C6.9733 5.44942 6.8668 5.47629 6.76133 5.46333C6.65356 5.44562 6.55491 5.39206 6.48133 5.31133C6.45003 5.27883 6.42354 5.24201 6.40267 5.202C6.38069 5.1668 6.37108 5.12528 6.37533 5.084C6.38533 5.012 6.44467 4.97467 6.50267 4.954C6.56873 4.93289 6.63806 4.92386 6.70733 4.92733L6.708 4.92467Z" fill="#336791"/>
<path d="M11.9213 4.81267H11.9547C11.9987 4.814 12.0393 4.81867 12.0747 4.82733C12.1107 4.83533 12.1413 4.84733 12.1667 4.864C12.1797 4.87205 12.1908 4.88273 12.1994 4.89537C12.2081 4.908 12.2139 4.92229 12.2167 4.93733L12.216 4.94267C12.2173 4.97432 12.2092 5.00564 12.1927 5.03267C12.173 5.06926 12.1483 5.10292 12.1193 5.13267C12.0517 5.20714 11.9611 5.25688 11.862 5.274C11.7655 5.28566 11.6682 5.2612 11.5887 5.20533C11.5561 5.18344 11.5269 5.15694 11.502 5.12667C11.4804 5.10288 11.4659 5.07357 11.46 5.042C11.4586 5.02662 11.4604 5.01112 11.4652 4.99644C11.47 4.98177 11.4778 4.96823 11.488 4.95667C11.5099 4.93181 11.5364 4.91143 11.566 4.89667C11.63 4.86067 11.7167 4.834 11.8147 4.81933C11.8513 4.814 11.8873 4.81133 11.9213 4.81067V4.81267Z" fill="#336791"/>
<path fill-rule="evenodd" clip-rule="evenodd" d="M11.3873 0.426667C12.506 0.416 13.9353 0.73 14.9613 2.04133C15.192 2.336 15.2607 2.76667 15.2527 3.29733C15.244 3.82733 15.146 4.462 14.9667 5.15733C14.6187 6.504 13.9613 8.074 13.0353 9.48267C13.068 9.5059 13.1034 9.52515 13.1407 9.54C13.334 9.62 13.7747 9.68867 14.654 9.508C14.8753 9.46133 15.0373 9.43 15.2053 9.558C15.2462 9.59261 15.2784 9.63619 15.2996 9.68535C15.3208 9.73451 15.3302 9.78789 15.3273 9.84133C15.3184 9.92225 15.2885 9.99945 15.2407 10.0653C15.0707 10.3207 14.7353 10.5627 14.3053 10.762C13.9247 10.9393 13.3787 11.032 12.8947 11.0373C12.652 11.04 12.428 11.0213 12.238 10.962L12.226 10.9573C12.1527 11.664 11.984 13.0593 11.874 13.696C11.786 14.2093 11.632 14.6173 11.338 14.9227C11.0447 15.228 10.6293 15.412 10.0707 15.532C9.37867 15.6807 8.874 15.5207 8.54867 15.2467C8.224 14.9733 8.07534 14.6107 7.986 14.3887C7.92467 14.2353 7.89267 14.0367 7.862 13.7713C7.83133 13.506 7.80867 13.1813 7.79333 12.8153C7.77291 12.2549 7.76624 11.6941 7.77333 11.1333C7.48427 11.3981 7.12506 11.574 6.73867 11.64C6.27934 11.718 5.86933 11.6413 5.62467 11.58C5.50406 11.5497 5.38763 11.5047 5.278 11.446C5.16467 11.3853 5.05667 11.3167 4.98467 11.1813C4.94236 11.1038 4.9289 11.0138 4.94667 10.9273C4.9692 10.8397 5.02035 10.762 5.092 10.7067C5.224 10.5993 5.39867 10.5393 5.662 10.4847C6.14133 10.386 6.30867 10.3187 6.41067 10.238C6.49733 10.1687 6.59533 10.0287 6.76867 9.82333C6.76784 9.81424 6.76717 9.80512 6.76667 9.796C6.45646 9.78727 6.15268 9.7055 5.88 9.55733C5.78 9.66267 5.26933 10.2027 4.64667 10.952C4.38467 11.2653 4.09534 11.4453 3.79 11.458C3.48467 11.4713 3.20867 11.3173 2.974 11.09C2.50534 10.6347 2.13134 9.85133 1.80534 8.966C1.48 8.08067 1.21534 7.09467 1.02734 6.25467C0.838669 5.41467 0.727335 4.73733 0.711335 4.41067C0.641335 3.02267 0.966002 2.08733 1.52267 1.49733C2.08 0.907333 2.844 0.684 3.58867 0.641333C4.92533 0.564667 6.19467 1.03067 6.45133 1.13067C6.946 0.794667 7.58333 0.585333 8.37933 0.598667C8.75723 0.603967 9.13326 0.652732 9.5 0.744L9.51334 0.738C9.67476 0.681258 9.83924 0.633627 10.006 0.595333C10.4588 0.489703 10.9217 0.433596 11.3867 0.428L11.3873 0.426667ZM11.3913 0.873333H11.4887C12.5033 0.881333 13.714 1.172 14.6087 2.316C14.7227 2.46133 14.812 2.80933 14.8053 3.28933C14.7973 3.76933 14.706 4.37533 14.534 5.044C14.2127 6.286 13.61 7.74267 12.774 9.05933C12.7656 9.04866 12.7573 9.03799 12.749 9.02732C12.7324 9.00599 12.7158 8.98466 12.698 8.96333C13.014 8.43867 13.0727 7.904 13.0487 7.41733C13.0377 7.19235 13.0119 6.97555 12.9875 6.76916C12.9556 6.50035 12.9258 6.2492 12.9333 6.02067C12.941 5.77543 12.9732 5.56144 13.0053 5.34891C13.0461 5.07845 13.0865 4.81037 13.0753 4.48333L13.077 4.4801L13.0784 4.4775L13.0793 4.47467C13.09 4.43 13.0887 4.404 13.0873 4.37867C13.084 4.328 13.0747 4.27933 13.0607 4.22133C13.0327 4.106 12.9833 3.95733 12.91 3.78133C12.7161 3.32318 12.4624 2.89276 12.1553 2.50133C11.7133 1.936 11.086 1.36933 10.2553 1.00133C10.6289 0.921533 11.0094 0.87866 11.3913 0.873333ZM6.51334 1.64067C6.942 1.284 7.50733 1.046 8.29533 1.044V1.04533H8.372C10.048 1.07267 11.1327 1.922 11.8027 2.77867C12.0846 3.13853 12.3179 3.53392 12.4967 3.95467C12.525 4.02179 12.5401 4.07064 12.5551 4.11883C12.561 4.13764 12.5668 4.15635 12.5733 4.176C11.7827 4.096 11.256 4.23867 10.956 4.58267C10.6173 4.97 10.6367 5.51933 10.7687 6.05C10.9013 6.58133 11.1567 7.12667 11.3913 7.57667C11.4947 7.77451 11.5938 7.95322 11.6766 8.10234C11.6878 8.12255 11.6987 8.14223 11.7093 8.16133C11.77 8.26675 11.8271 8.37415 11.8807 8.48333C11.9925 8.74773 12.142 8.99451 12.3247 9.216C12.3811 9.28636 12.4351 9.35863 12.4867 9.43267C12.438 9.44667 12.3787 9.466 12.3153 9.49467C12.1887 9.552 12.042 9.658 11.9473 9.83133C11.8553 10 11.8127 10.2213 11.826 10.5093C11.7967 10.8913 11.554 12.9213 11.4333 13.6213C11.3527 14.0887 11.2267 14.394 11.016 14.6133C10.8047 14.8327 10.4887 14.9853 9.97667 15.0953C9.386 15.222 9.06267 15.0953 8.83733 14.906C8.612 14.716 8.48733 14.4367 8.402 14.2233C8.376 14.1593 8.33533 13.97 8.30667 13.7213C8.278 13.472 8.25533 13.156 8.24 12.7973C8.20895 11.967 8.20606 11.1359 8.23133 10.3053C8.23238 10.2765 8.22785 10.2478 8.218 10.2207C8.20867 10.1547 8.19267 10.0907 8.17067 10.0313C8.086 9.80467 7.92933 9.606 7.70133 9.51133C7.62667 9.47933 7.50133 9.426 7.34133 9.43933C7.3184 9.44147 7.29547 9.44701 7.27254 9.45256C7.2668 9.45395 7.26107 9.45533 7.25533 9.45667C7.31634 9.22765 7.39001 9.00219 7.476 8.78133C7.51014 8.68955 7.55311 8.59327 7.59985 8.48851C7.86344 7.89782 8.2473 7.03759 7.84867 5.19333C7.75067 4.74133 7.48067 4.44333 7.154 4.31667C6.82733 4.19 6.46667 4.214 6.132 4.29067C5.79734 4.368 5.48467 4.50133 5.24667 4.63467L5.238 4.64C5.26933 4.23733 5.34867 3.644 5.58 3.03067C5.77467 2.514 6.07134 2.00933 6.51334 1.64067ZM3.614 1.086C3.698 1.08133 3.78267 1.07867 3.86734 1.07867C3.95182 1.07878 4.03563 1.081 4.12 1.08533C4.90667 1.124 5.63334 1.32933 6.04267 1.464C5.626 1.872 5.348 2.376 5.16133 2.872C4.89983 3.59355 4.76627 4.35586 4.76667 5.12333L4.76733 5.12733V5.13067C4.76722 5.13489 4.76722 5.13911 4.76733 5.14333C4.76733 5.2094 4.77243 5.2933 4.77877 5.39773C4.78657 5.52619 4.79626 5.68571 4.80067 5.88133C4.80867 6.24533 4.79934 6.706 4.73067 7.19867C4.67365 7.58587 4.71503 7.9812 4.851 8.3482C4.98697 8.71521 5.21314 9.04207 5.50867 9.29867C5.09216 9.74095 4.68974 10.1963 4.302 10.664C4.08933 10.9193 3.91534 11.0027 3.77067 11.0093C3.62667 11.0153 3.468 10.944 3.28534 10.7673C2.92267 10.414 2.54067 9.66733 2.22534 8.80933C1.91067 7.95133 1.64867 6.98 1.464 6.15467C1.27867 5.32933 1.17067 4.63467 1.158 4.38667C1.09267 3.07667 1.39267 2.28533 1.84867 1.80267C2.304 1.32 2.94067 1.12467 3.614 1.086ZM11.2927 4.87533C11.426 4.72267 11.68 4.606 12.1327 4.6C12.2976 4.60012 12.4624 4.61081 12.626 4.632C12.6212 4.84141 12.5932 5.03502 12.5633 5.24191C12.5305 5.46841 12.4954 5.71083 12.486 6.00733C12.4764 6.29793 12.5115 6.58637 12.5463 6.87166C12.5695 7.06284 12.5926 7.25261 12.602 7.44067C12.62 7.81933 12.5887 8.18267 12.4133 8.55267C12.372 8.47933 12.3313 8.40067 12.2947 8.31133C12.2594 8.22601 12.2043 8.12771 12.1305 7.99579C12.1206 7.97825 12.1105 7.96011 12.1 7.94133C12.0918 7.92659 12.0834 7.91153 12.0749 7.89617C11.9909 7.74554 11.8908 7.56583 11.788 7.368C11.5613 6.93267 11.32 6.40867 11.2033 5.94C11.086 5.472 11.104 5.092 11.2927 4.87533ZM6.23267 4.726C6.36733 4.6945 6.50505 4.67796 6.64333 4.67667C6.76221 4.67405 6.88057 4.69302 6.99267 4.73267C7.19267 4.81 7.338 4.94733 7.41133 5.28733C7.78245 7.00452 7.48215 7.6653 7.21408 8.25519C7.15806 8.37844 7.10345 8.49861 7.05667 8.62467C7.04562 8.65427 7.03456 8.6837 7.02357 8.71297C6.94174 8.93083 6.86329 9.13971 6.81333 9.346C5.84133 9.34467 5.014 8.40067 5.17334 7.26067C5.24667 6.736 5.256 6.25133 5.248 5.87133C5.24221 5.62001 5.23049 5.42698 5.22294 5.30259C5.22005 5.25507 5.21777 5.21757 5.21667 5.19067L5.23133 5.17733C5.30437 5.12006 5.38221 5.06921 5.464 5.02533C5.7058 4.89187 5.96429 4.7912 6.23267 4.726ZM12.746 9.82067L12.748 9.82C12.8148 9.87513 12.8894 9.9194 12.9693 9.95267C13.2913 10.0853 13.8167 10.1367 14.7453 9.94467C14.5564 10.1107 14.3447 10.2487 14.1167 10.3547C13.8387 10.484 13.3153 10.5833 12.89 10.588C12.6767 10.5913 12.4853 10.5687 12.3713 10.534C12.3361 10.5239 12.3028 10.5081 12.2727 10.4873C12.262 10.256 12.298 10.12 12.34 10.0433C12.3739 9.9779 12.4306 9.92714 12.4993 9.90067C12.5366 9.88423 12.5776 9.8724 12.6233 9.85925C12.6609 9.8484 12.7017 9.83665 12.746 9.82067ZM7.38 9.88267H7.394V9.884C7.44122 9.88981 7.48716 9.90333 7.53 9.924C7.602 9.954 7.704 10.0613 7.75067 10.186C7.79667 10.3107 7.79067 10.4267 7.73467 10.5053C7.41 10.9607 7.02933 11.136 6.66333 11.1987C6.29733 11.2607 5.94667 11.1987 5.73334 11.1453C5.658 11.126 5.56467 11.0907 5.492 11.0507C5.47184 11.0401 5.46648 11.0349 5.45883 11.0275C5.45534 11.0242 5.45138 11.0203 5.44533 11.0153C5.50533 10.9867 5.59533 10.9513 5.75267 10.9193C6.24933 10.8173 6.498 10.736 6.68933 10.584C6.80626 10.4907 6.8821 10.3934 6.97635 10.2725C7.03634 10.1956 7.10378 10.1091 7.194 10.008C7.29334 9.898 7.34467 9.886 7.38 9.88267Z" fill="white"/>
<path d="M6.708 4.92467C6.74334 4.92467 6.78067 4.928 6.81867 4.93333C6.92067 4.94733 7.01133 4.97467 7.08067 5.01467C7.11448 5.03232 7.14459 5.05631 7.16933 5.08533C7.18281 5.10073 7.19296 5.11874 7.19916 5.13824C7.20535 5.15775 7.20746 5.17832 7.20533 5.19867C7.19893 5.237 7.18156 5.27265 7.15533 5.30133C7.12806 5.33482 7.09593 5.36403 7.06 5.388C6.9733 5.44942 6.8668 5.47629 6.76133 5.46333C6.65356 5.44562 6.55491 5.39206 6.48133 5.31133C6.45003 5.27883 6.42354 5.24201 6.40267 5.202C6.38069 5.1668 6.37108 5.12528 6.37533 5.084C6.38533 5.012 6.44467 4.97467 6.50267 4.954C6.56873 4.93289 6.63806 4.92386 6.70733 4.92733L6.708 4.92467Z" fill="white"/>
<path d="M11.9213 4.81267H11.9547C11.9987 4.814 12.0393 4.81867 12.0747 4.82733C12.1107 4.83533 12.1413 4.84733 12.1667 4.864C12.1797 4.87205 12.1908 4.88273 12.1994 4.89537C12.2081 4.908 12.2139 4.92229 12.2167 4.93733L12.216 4.94267C12.2173 4.97432 12.2092 5.00564 12.1927 5.03267C12.173 5.06926 12.1483 5.10292 12.1193 5.13267C12.0517 5.20714 11.9611 5.25688 11.862 5.274C11.7655 5.28566 11.6682 5.2612 11.5887 5.20533C11.5561 5.18344 11.5269 5.15694 11.502 5.12667C11.4804 5.10288 11.4659 5.07357 11.46 5.042C11.4586 5.02662 11.4604 5.01112 11.4652 4.99644C11.47 4.98177 11.4778 4.96823 11.488 4.95667C11.5099 4.93181 11.5364 4.91143 11.566 4.89667C11.63 4.86067 11.7167 4.834 11.8147 4.81933C11.8513 4.814 11.8873 4.81133 11.9213 4.81067V4.81267Z" fill="white"/>
</g>
<defs>
<clipPath id="clip0_348_3718">
<rect width="16" height="16" fill="white"/>
</clipPath>
</defs>
</svg>
