<svg width="16" height="16" viewBox="0 0 16 16" fill="none" xmlns="http://www.w3.org/2000/svg">
<g clip-path="url(#clip0_1_1076)">
<path fill-rule="evenodd" clip-rule="evenodd" d="M8 16C3.58172 16 0 12.4182 0 8C0 3.58172 3.58172 0 8 0C12.4182 0 16 3.58172 16 8C16 12.4182 12.4182 16 8 16ZM8 15.2C11.9765 15.2 15.2 11.9765 15.2 8C15.2 4.02355 11.9765 0.8 8 0.8C4.02355 0.8 0.8 4.02355 0.8 8C0.8 11.9765 4.02355 15.2 8 15.2ZM4.6875 11.3875V7.04667C4.6875 5.12244 6.24386 3.5625 8.1636 3.5625H8.19528C10.1031 3.5625 11.6294 5.10239 11.6245 7.00667L11.6238 7.06802C11.5542 8.93801 10.0105 10.4687 8.17944 10.4687C7.57677 10.4687 7.08821 9.97904 7.08821 9.37504C7.08821 8.77096 7.57677 8.28128 8.17944 8.28128C8.82176 8.28128 9.41168 7.69774 9.442 6.99386C9.43968 6.30066 8.89104 5.75 8.19528 5.75H8.1636C7.4492 5.75 6.86996 6.33057 6.86996 7.04667V11.7187C6.86996 12.3228 6.3814 12.8125 5.77873 12.8125C5.51509 12.8125 5.27329 12.7188 5.08466 12.5628C5.2935 12.4616 5.4375 12.2476 5.4375 12C5.4375 11.6548 5.15768 11.375 4.8125 11.375C4.76969 11.375 4.72789 11.3793 4.6875 11.3875ZM8.18752 10.0625C8.5672 10.0625 8.87504 9.75472 8.87504 9.37504C8.87504 8.99528 8.5672 8.68752 8.18752 8.68752C7.80781 8.68752 7.5 8.99528 7.5 9.37504C7.5 9.75472 7.80781 10.0625 8.18752 10.0625Z" fill="#FF00FF"/>
</g>
<defs>
<clipPath id="clip0_1_1076">
<rect width="16" height="16" fill="white"/>
</clipPath>
</defs>
</svg>
