<svg width="16" height="16" viewBox="0 0 16 16" fill="none" xmlns="http://www.w3.org/2000/svg">
<g clip-path="url(#clip0_1406_3361)">
<path fill-rule="evenodd" clip-rule="evenodd" d="M3.84582 0H12.1542C13.4914 0 13.9764 0.139238 14.4653 0.400699C14.9542 0.66216 15.3378 1.04584 15.5993 1.53473C15.8608 2.02362 16 2.50855 16 3.84582V12.1542C16 13.4914 15.8608 13.9764 15.5993 14.4653C15.3378 14.9542 14.9542 15.3378 14.4653 15.5993C13.9764 15.8608 13.4914 16 12.1542 16H3.84582C2.50855 16 2.02362 15.8608 1.53473 15.5993C1.04584 15.3378 0.66216 14.9542 0.400699 14.4653C0.139238 13.9764 0 13.4914 0 12.1542V3.84582C0 2.50855 0.139238 2.02362 0.400699 1.53473C0.66216 1.04584 1.04584 0.66216 1.53473 0.400699C2.02362 0.139238 2.50855 0 3.84582 0Z" fill="black"/>
<path fill-rule="evenodd" clip-rule="evenodd" d="M2.6665 4H6.17032C7.88896 4 9.05318 5.11989 9.05318 6.83853C9.05318 8.54056 7.82798 9.65488 6.04835 9.65488H4.70115V12H2.6665V4ZM4.70115 5.56341V8.1192H5.62146C6.48633 8.1192 6.99638 7.67567 6.99638 6.84407C6.99638 6.00138 6.49187 5.56341 5.63255 5.56341H4.70115ZM11.1596 12H7.31758V4H11.0487C12.6453 4 13.5878 4.75398 13.5878 5.99584C13.5878 6.85516 12.9447 7.58142 12.0965 7.69785V7.80318C13.1443 7.85863 13.9537 8.6736 13.9537 9.69368C13.9537 11.0963 12.8727 12 11.1596 12ZM9.35222 5.4359V7.25987H10.4277C11.1706 7.25987 11.6031 6.91614 11.6031 6.35066C11.6031 5.77962 11.1984 5.4359 10.5053 5.4359H9.35222ZM9.35222 10.5641H10.583C11.4257 10.5641 11.8858 10.1926 11.8858 9.51632C11.8858 8.86208 11.4146 8.49616 10.5719 8.49616H9.35222V10.5641Z" fill="white"/>
</g>
<defs>
<clipPath id="clip0_1406_3361">
<rect width="16" height="16" fill="white"/>
</clipPath>
</defs>
</svg>
