<svg width="16" height="16" viewBox="0 0 16 16" fill="none" xmlns="http://www.w3.org/2000/svg">
<g clip-path="url(#clip0_348_3815)">
<path fill-rule="evenodd" clip-rule="evenodd" d="M3.84583 0L12.1542 0C13.4915 0 13.9764 0.139238 14.4653 0.400699C14.9542 0.66216 15.3378 1.04584 15.5993 1.53473C15.8608 2.02362 16 2.50855 16 3.84583V12.1542C16 13.4915 15.8608 13.9764 15.5993 14.4653C15.3378 14.9542 14.9542 15.3378 14.4653 15.5993C13.9764 15.8608 13.4915 16 12.1542 16H3.84583C2.50855 16 2.02362 15.8608 1.53473 15.5993C1.04584 15.3378 0.66216 14.9542 0.400699 14.4653C0.139238 13.9764 0 13.4915 0 12.1542L0 3.84583C0 2.50855 0.139238 2.02362 0.400699 1.53473C0.66216 1.04584 1.04584 0.66216 1.53473 0.400699C2.02362 0.139238 2.50855 0 3.84583 0Z" fill="black"/>
<path fill-rule="evenodd" clip-rule="evenodd" d="M2.66666 4H6.17048C7.88912 4 9.05336 5.11989 9.05336 6.83853C9.05336 8.54054 7.82813 9.65489 6.04851 9.65489H4.70131V12H2.66666V4ZM4.70131 5.56341V8.1192H5.62162C6.48648 8.1192 6.99653 7.67568 6.99653 6.84408C6.99653 6.00139 6.49203 5.56341 5.63271 5.56341H4.70131ZM11.1597 12H7.31773V4H11.0489C12.6455 4 13.588 4.75398 13.588 5.99584C13.588 6.85516 12.9449 7.58143 12.0967 7.69785V7.80319C13.1445 7.85863 13.9539 8.6736 13.9539 9.69369C13.9539 11.0963 12.8728 12 11.1597 12ZM9.35239 5.4359V7.25988H10.4279C11.1708 7.25988 11.6033 6.91615 11.6033 6.35066C11.6033 5.77963 11.1985 5.4359 10.5055 5.4359H9.35239ZM9.35238 10.5641H10.5832C11.4258 10.5641 11.886 10.1927 11.886 9.51629C11.886 8.86209 11.4148 8.49619 10.5721 8.49619H9.35238V10.5641Z" fill="white"/>
</g>
<defs>
<clipPath id="clip0_348_3815">
<rect width="16" height="16" fill="white"/>
</clipPath>
</defs>
</svg>
