<svg width="16" height="16" viewBox="0 0 16 16" fill="none" xmlns="http://www.w3.org/2000/svg">
<g clip-path="url(#clip0_1406_3359)">
<path d="M7.90628 0.00013087C7.25373 0.00316295 6.63057 0.0588153 6.08225 0.15584C4.46697 0.441206 4.1737 1.0385 4.1737 2.14002V3.59478H7.9908V4.07971H4.1737H2.74118C1.63182 4.07971 0.660442 4.7465 0.356605 6.01495C0.00613406 7.4689 -0.00941128 8.37616 0.356605 9.89432C0.627938 11.0244 1.27592 11.8296 2.38527 11.8296H3.69768V10.0856C3.69768 8.82576 4.78777 7.71441 6.08225 7.71441H9.89492C10.9562 7.71441 11.8035 6.84056 11.8035 5.77471V2.14002C11.8035 1.10556 10.9308 0.328486 9.89492 0.15584C9.23916 0.046687 8.55884 -0.00290121 7.90628 0.00013087ZM5.84201 1.17018C6.23629 1.17018 6.55828 1.49742 6.55828 1.89978C6.55828 2.30072 6.23629 2.62494 5.84201 2.62494C5.44632 2.62494 5.12575 2.30072 5.12575 1.89978C5.12575 1.49742 5.44632 1.17018 5.84201 1.17018Z" fill="url(#paint0_linear_1406_3359)"/>
<path d="M12.2791 4.07971V5.77472C12.2791 7.08883 11.165 8.19488 9.8945 8.19488H6.08189C5.03754 8.19488 4.17334 9.08872 4.17334 10.1346V13.7693C4.17334 14.8038 5.07288 15.4122 6.08189 15.709C7.29017 16.0642 8.44882 16.1285 9.8945 15.709C10.8555 15.4307 11.8031 14.8708 11.8031 13.7693V12.3145H7.99044V11.8296H11.8031H13.7116C14.821 11.8296 15.2344 11.0558 15.6202 9.89432C16.0187 8.69864 16.0018 7.5488 15.6202 6.01495C15.346 4.91058 14.8224 4.07971 13.7116 4.07971H12.2791ZM10.1347 13.2843C10.5305 13.2843 10.8511 13.6086 10.8511 14.0095C10.8511 14.4118 10.5305 14.7391 10.1347 14.7391C9.7405 14.7391 9.4185 14.4118 9.4185 14.0095C9.4185 13.6086 9.7405 13.2843 10.1347 13.2843Z" fill="url(#paint1_linear_1406_3359)"/>
</g>
<defs>
<linearGradient id="paint0_linear_1406_3359" x1="0.0878905" y1="-1.11278e-07" x2="8.88972" y2="7.50036" gradientUnits="userSpaceOnUse">
<stop stop-color="#5A9FD4"/>
<stop offset="1" stop-color="#306998"/>
</linearGradient>
<linearGradient id="paint1_linear_1406_3359" x1="10.0431" y1="13.8872" x2="6.88529" y2="9.46224" gradientUnits="userSpaceOnUse">
<stop stop-color="#FFD43B"/>
<stop offset="1" stop-color="#FFE873"/>
</linearGradient>
<clipPath id="clip0_1406_3359">
<rect width="16" height="16" fill="white"/>
</clipPath>
</defs>
</svg>
