<svg width="16" height="16" viewBox="0 0 16 16" fill="none" xmlns="http://www.w3.org/2000/svg">
<g clip-path="url(#clip0_348_3763)">
<path d="M7.90638 0.00013087C7.25384 0.00316295 6.63068 0.0588152 6.08236 0.15584C4.46708 0.441206 4.17381 1.0385 4.17381 2.14002V3.59479H7.99091V4.07971H4.17381H2.74129C1.63193 4.07971 0.660548 4.7465 0.356712 6.01495C0.00624077 7.46889 -0.00930455 8.37618 0.356712 9.89433C0.628045 11.0244 1.27602 11.8296 2.38538 11.8296H3.69778V10.0856C3.69778 8.82574 4.78788 7.7144 6.08236 7.7144H9.89501C10.9563 7.7144 11.8036 6.84056 11.8036 5.77471V2.14002C11.8036 1.10556 10.9309 0.328486 9.89501 0.15584C9.23929 0.0466869 8.55892 -0.00290121 7.90638 0.00013087ZM5.84212 1.17017C6.2364 1.17017 6.55838 1.49741 6.55838 1.89978C6.55838 2.30072 6.2364 2.62494 5.84212 2.62494C5.44643 2.62494 5.12586 2.30072 5.12586 1.89978C5.12586 1.49741 5.44643 1.17017 5.84212 1.17017Z" fill="url(#paint0_linear_348_3763)"/>
<path d="M12.2789 4.07959V5.77459C12.2789 7.08871 11.1648 8.19476 9.89435 8.19476H6.08171C5.03736 8.19476 4.17316 9.08858 4.17316 10.1344V13.7691C4.17316 14.8036 5.07269 15.4121 6.08171 15.7088C7.28998 16.0641 8.44866 16.1283 9.89435 15.7088C10.8553 15.4306 11.8029 14.8707 11.8029 13.7691V12.3144H7.99025V11.8295H11.8029H13.7115C14.8208 11.8295 15.2342 11.0557 15.62 9.89421C16.0185 8.69853 16.0016 7.54868 15.62 6.01483C15.3458 4.91046 14.8222 4.07959 13.7115 4.07959H12.2789ZM10.1346 13.2842C10.5303 13.2842 10.8509 13.6084 10.8509 14.0094C10.8509 14.4117 10.5303 14.739 10.1346 14.739C9.74031 14.739 9.41833 14.4117 9.41833 14.0094C9.41833 13.6084 9.74031 13.2842 10.1346 13.2842Z" fill="url(#paint1_linear_348_3763)"/>
</g>
<defs>
<linearGradient id="paint0_linear_348_3763" x1="0.0879974" y1="1.08223e-08" x2="8.88981" y2="7.50036" gradientUnits="userSpaceOnUse">
<stop stop-color="#5A9FD4"/>
<stop offset="1" stop-color="#306998"/>
</linearGradient>
<linearGradient id="paint1_linear_348_3763" x1="10.0429" y1="13.8871" x2="6.88511" y2="9.46212" gradientUnits="userSpaceOnUse">
<stop stop-color="#FFD43B"/>
<stop offset="1" stop-color="#FFE873"/>
</linearGradient>
<clipPath id="clip0_348_3763">
<rect width="16" height="16" fill="white"/>
</clipPath>
</defs>
</svg>
