<svg width="16" height="16" viewBox="0 0 16 16" fill="none" xmlns="http://www.w3.org/2000/svg">
<g clip-path="url(#clip0_348_3775)">
<path d="M7.90639 0.00013087C7.25385 0.00316295 6.63069 0.0588152 6.08237 0.15584C4.4671 0.441206 4.17382 1.0385 4.17382 2.14002V3.59479H7.99092V4.07971H2.7413C1.63195 4.07971 0.660563 4.74649 0.356727 6.01495C0.00625601 7.46889 -0.00928929 8.37618 0.356727 9.89433C0.62806 11.0244 1.27604 11.8296 2.38539 11.8296H3.6978V10.0856C3.6978 8.82574 4.78789 7.7144 6.08237 7.7144H9.89502C10.9563 7.7144 11.8036 6.84056 11.8036 5.77471V2.14002C11.8036 1.10556 10.9309 0.328486 9.89502 0.15584C9.2393 0.0466869 8.55894 -0.00290121 7.90639 0.00013087ZM5.84214 1.17017C6.23642 1.17017 6.5584 1.49741 6.5584 1.89978C6.5584 2.30072 6.23642 2.62494 5.84214 2.62494C5.44644 2.62494 5.12587 2.30072 5.12587 1.89978C5.12587 1.49741 5.44644 1.17017 5.84214 1.17017Z" fill="#FF00FF"/>
<path d="M12.2789 4.07971V5.77472C12.2789 7.08883 11.1648 8.19488 9.89437 8.19488H6.08172C5.03737 8.19488 4.17317 9.0887 4.17317 10.1346V13.7693C4.17317 14.8037 5.0727 15.4122 6.08172 15.709C7.29 16.0642 8.44867 16.1284 9.89437 15.709C10.8553 15.4307 11.8029 14.8708 11.8029 13.7693V12.3145H7.99027V11.8296H13.7115C14.8208 11.8296 15.2342 11.0558 15.62 9.89433C16.0185 8.69865 16.0016 7.5488 15.62 6.01495C15.3459 4.91058 14.8222 4.07971 13.7115 4.07971H12.2789ZM10.1346 13.2843C10.5303 13.2843 10.8509 13.6086 10.8509 14.0095C10.8509 14.4119 10.5303 14.7391 10.1346 14.7391C9.74032 14.7391 9.41834 14.4119 9.41834 14.0095C9.41834 13.6086 9.74032 13.2843 10.1346 13.2843Z" fill="#FF00FF"/>
</g>
<defs>
<clipPath id="clip0_348_3775">
<rect width="16" height="16" fill="white"/>
</clipPath>
</defs>
</svg>
