<svg width="16" height="16" viewBox="0 0 16 16" fill="none" xmlns="http://www.w3.org/2000/svg">
<g clip-path="url(#clip0_1_1095)">
<path d="M7.90646 0.00013087C7.25392 0.00316295 6.63076 0.0588153 6.08244 0.15584C4.46716 0.441206 4.17388 1.0385 4.17388 2.14002V3.59478H7.99098V4.07971H4.17388H2.74136C1.632 4.07971 0.660625 4.7465 0.356788 6.01495C0.00631717 7.4689 -0.00922818 8.37616 0.356788 9.89432C0.628121 11.0244 1.2761 11.8296 2.38545 11.8296H3.69786V10.0856C3.69786 8.82576 4.78796 7.71441 6.08244 7.71441H9.89511C10.9564 7.71441 11.8037 6.84056 11.8037 5.77471V2.14002C11.8037 1.10556 10.9309 0.328486 9.89511 0.15584C9.23935 0.046687 8.55903 -0.00290121 7.90646 0.00013087ZM5.8422 1.17018C6.23648 1.17018 6.55846 1.49742 6.55846 1.89978C6.55846 2.30072 6.23648 2.62494 5.8422 2.62494C5.44651 2.62494 5.12593 2.30072 5.12593 1.89978C5.12593 1.49742 5.44651 1.17018 5.8422 1.17018Z" fill="url(#paint0_linear_1_1095)"/>
<path d="M12.279 4.07971V5.77472C12.279 7.08883 11.1649 8.19488 9.89438 8.19488H6.08177C5.03742 8.19488 4.17322 9.08872 4.17322 10.1346V13.7693C4.17322 14.8038 5.07275 15.4122 6.08177 15.709C7.29005 16.0642 8.4487 16.1285 9.89438 15.709C10.8554 15.4307 11.8029 14.8708 11.8029 13.7693V12.3145H7.99031V11.8296H11.8029H13.7115C14.8209 11.8296 15.2343 11.0558 15.6201 9.89432C16.0186 8.69864 16.0017 7.5488 15.6201 6.01495C15.3459 4.91058 14.8223 4.07971 13.7115 4.07971H12.279ZM10.1346 13.2843C10.5304 13.2843 10.8509 13.6086 10.8509 14.0095C10.8509 14.4118 10.5304 14.7391 10.1346 14.7391C9.74038 14.7391 9.41838 14.4118 9.41838 14.0095C9.41838 13.6086 9.74038 13.2843 10.1346 13.2843Z" fill="url(#paint1_linear_1_1095)"/>
</g>
<defs>
<linearGradient id="paint0_linear_1_1095" x1="0.0880736" y1="-1.11278e-07" x2="8.88991" y2="7.50036" gradientUnits="userSpaceOnUse">
<stop stop-color="#5A9FD4"/>
<stop offset="1" stop-color="#306998"/>
</linearGradient>
<linearGradient id="paint1_linear_1_1095" x1="10.0429" y1="13.8872" x2="6.88517" y2="9.46224" gradientUnits="userSpaceOnUse">
<stop stop-color="#FFD43B"/>
<stop offset="1" stop-color="#FFE873"/>
</linearGradient>
<clipPath id="clip0_1_1095">
<rect width="16" height="16" fill="white"/>
</clipPath>
</defs>
</svg>
