<svg width="16" height="16" viewBox="0 0 16 16" fill="none" xmlns="http://www.w3.org/2000/svg">
<g clip-path="url(#clip0_348_3825)">
<path d="M9.48287 8.00022C9.48287 8.82102 8.81748 9.4864 7.99669 9.4864C7.1759 9.4864 6.51051 8.82102 6.51051 8.00022C6.51051 7.17943 7.1759 6.51404 7.99669 6.51404C8.81748 6.51404 9.48287 7.17943 9.48287 8.00022Z" fill="#FF00FF"/>
<path fill-rule="evenodd" clip-rule="evenodd" d="M15.9772 8.00022C15.9772 6.94331 14.6536 5.94169 12.6243 5.32055C13.0926 3.25225 12.8845 1.60673 11.9674 1.0799C11.7569 0.956816 11.5109 0.898255 11.2422 0.897786V0.894531C10.3479 0.894531 9.17718 1.53193 7.99344 2.63762C6.8097 1.53843 5.63897 0.907539 4.74466 0.907539V0.910791C4.47149 0.910791 4.22433 0.969328 4.0097 1.09291C3.09588 1.61973 2.891 3.26201 3.36254 5.3238C1.33978 5.94819 0.0227051 6.94656 0.0227051 8.00022C0.0227051 9.05713 1.34628 10.0588 3.37555 10.6799C2.90726 12.7482 3.11539 14.3937 4.03246 14.9205C4.24384 15.0441 4.491 15.1027 4.76417 15.1027C5.65848 15.1027 6.82921 14.4653 8.01295 13.3596C9.19669 14.4588 10.3674 15.0897 11.2617 15.0897C11.5349 15.0897 11.7821 15.0311 11.9967 14.9075C12.9105 14.3807 13.1154 12.7384 12.6438 10.6766C14.6601 10.0555 15.9772 9.05388 15.9772 8.00022ZM8.51051 3.14494C9.56898 2.16115 10.5626 1.62146 11.239 1.61974V1.62299C11.3886 1.62299 11.5089 1.65225 11.6097 1.70754C12.052 1.9612 12.2438 2.92705 12.0942 4.16933C12.0585 4.47502 11.9999 4.79697 11.9284 5.12543C11.291 4.96933 10.5951 4.849 9.86336 4.77095C9.42433 4.16933 8.96905 3.62299 8.51051 3.14494ZM4.74466 1.63274C5.41783 1.63274 6.4162 2.16933 7.47636 3.14819C7.02108 3.62624 6.56579 4.16933 6.13327 4.77095C5.39831 4.849 4.70238 4.96933 4.06498 5.12868C3.99018 4.80347 3.9349 4.48803 3.89588 4.18559C3.74303 2.94331 3.93165 1.97746 4.37067 1.72055C4.46823 1.66201 4.59506 1.63599 4.74466 1.63599V1.63274ZM11.743 5.83112C11.6227 6.25063 11.4731 6.68315 11.304 7.11567C11.1707 6.85551 11.0308 6.59534 10.878 6.33518C10.7284 6.07502 10.569 5.82136 10.4097 5.57421C10.8715 5.6425 11.317 5.72705 11.743 5.83112ZM9.46986 10.5368C9.73978 10.1498 9.99994 9.73356 10.2536 9.29453C10.4975 8.86852 10.7219 8.43274 10.9268 7.99697C10.7219 7.5612 10.4975 7.12868 10.2503 6.70266C9.99669 6.26689 9.73327 5.85388 9.46336 5.46689C8.98205 5.42787 8.491 5.4051 7.99994 5.4051C7.50563 5.4051 7.01458 5.42787 6.53002 5.47014C6.2601 5.85713 5.99994 6.27339 5.74628 6.71242C5.50238 7.13843 5.27474 7.57421 5.07311 8.00998C5.27799 8.44575 5.50238 8.87827 5.74953 9.30429C6.00319 9.74006 6.26661 10.1531 6.53653 10.5401C7.01783 10.5791 7.50888 10.6018 7.99994 10.6018C8.49425 10.6018 8.98531 10.5791 9.46986 10.5368ZM11.304 8.87177C11.4796 9.30754 11.6292 9.74331 11.7528 10.1661C11.3268 10.2701 10.878 10.3579 10.4129 10.4262C10.5723 10.1758 10.7316 9.91892 10.8812 9.65551C11.0308 9.39534 11.1707 9.13193 11.304 8.87177ZM7.10238 11.301C7.40157 11.6815 7.70401 12.0295 8.00644 12.3417C8.30563 12.0295 8.60807 11.6815 8.90075 11.301C8.60482 11.3173 8.30238 11.3238 7.99669 11.3238C7.69425 11.3238 7.39506 11.314 7.10238 11.301ZM5.58693 10.4262C5.12514 10.3579 4.67962 10.2734 4.2536 10.1693C4.37392 9.74981 4.52352 9.31729 4.69262 8.88477C4.82596 9.14494 4.96579 9.4051 5.11864 9.66526C5.27149 9.92542 5.42758 10.1791 5.58693 10.4262ZM8.89425 4.69941C8.59506 4.31892 8.29262 3.97095 7.99018 3.65876C7.691 3.97095 7.38856 4.31892 7.09588 4.69941C7.39181 4.68315 7.69425 4.67665 7.99994 4.67665C8.30238 4.67665 8.60157 4.6864 8.89425 4.69941ZM5.58368 5.57421C5.42433 5.82461 5.26498 6.08152 5.11539 6.34494C4.96579 6.6051 4.82596 6.86526 4.69262 7.12543C4.51701 6.68965 4.36742 6.25388 4.24384 5.83112C4.66986 5.7303 5.11864 5.6425 5.58368 5.57421ZM0.744656 8.00022C0.744656 8.51079 1.48937 9.15469 2.64059 9.64575C2.92352 9.76608 3.22921 9.87665 3.55116 9.97746C3.73327 9.34331 3.97392 8.68315 4.27311 8.00673C3.97067 7.32705 3.72677 6.66364 3.5414 6.02624C3.22596 6.12705 2.92027 6.23437 2.64059 6.35469C1.48937 6.8425 0.744656 7.48965 0.744656 8.00022ZM4.39018 14.2929C3.94791 14.0392 3.75604 13.0734 3.90563 11.8311C3.9414 11.5254 3.99994 11.2035 4.07149 10.875C4.70888 11.0311 5.40482 11.1514 6.13653 11.2295C6.57555 11.8311 7.03084 12.3775 7.48937 12.8555C6.42921 13.8409 5.43409 14.3807 4.75766 14.3807C4.61132 14.3775 4.48775 14.3482 4.39018 14.2929ZM11.6292 14.2799C12.0682 14.023 12.2569 13.0571 12.104 11.8149C12.0682 11.5124 12.0097 11.197 11.9349 10.8685C11.2975 11.0279 10.6016 11.1482 9.86661 11.2262C9.43409 11.8279 8.9788 12.371 8.52352 12.849C9.58368 13.8279 10.5821 14.3644 11.2552 14.3644C11.4048 14.3644 11.5316 14.3384 11.6292 14.2799ZM13.356 9.64575C13.0764 9.76608 12.7707 9.87339 12.4552 9.97421C12.2699 9.33681 12.026 8.67339 11.7235 7.99372C12.0227 7.3173 12.2634 6.65713 12.4455 6.02299C12.7674 6.1238 13.0731 6.23437 13.3593 6.35469C14.5105 6.84575 15.2552 7.48965 15.2552 8.00022C15.252 8.51079 14.5073 9.15795 13.356 9.64575Z" fill="#FF00FF"/>
</g>
<defs>
<clipPath id="clip0_348_3825">
<rect width="16" height="16" fill="white"/>
</clipPath>
</defs>
</svg>
