<svg width="16" height="16" viewBox="0 0 16 16" fill="none" xmlns="http://www.w3.org/2000/svg">
<g clip-path="url(#clip0_348_3812)">
<path d="M9.48293 8.00022C9.48293 8.82102 8.81754 9.4864 7.99675 9.4864C7.17596 9.4864 6.51057 8.82102 6.51057 8.00022C6.51057 7.17943 7.17596 6.51404 7.99675 6.51404C8.81754 6.51404 9.48293 7.17943 9.48293 8.00022Z" fill="#61DAFB"/>
<path fill-rule="evenodd" clip-rule="evenodd" d="M15.9772 8.00022C15.9772 6.94331 14.6537 5.94169 12.6244 5.32055C13.0927 3.25225 12.8846 1.60673 11.9675 1.0799C11.7569 0.956816 11.5109 0.898255 11.2423 0.897786V0.894531C10.348 0.894531 9.17724 1.53193 7.9935 2.63762C6.80976 1.53843 5.63903 0.907539 4.74472 0.907539V0.910791C4.47155 0.910791 4.22439 0.969328 4.00976 1.09291C3.09594 1.61973 2.89106 3.26201 3.3626 5.3238C1.33984 5.94819 0.0227661 6.94656 0.0227661 8.00022C0.0227661 9.05713 1.34634 10.0588 3.37561 10.6799C2.90732 12.7482 3.11545 14.3937 4.03252 14.9205C4.2439 15.0441 4.49106 15.1027 4.76423 15.1027C5.65854 15.1027 6.82927 14.4653 8.01301 13.3596C9.19675 14.4588 10.3675 15.0897 11.2618 15.0897C11.535 15.0897 11.7821 15.0311 11.9968 14.9075C12.9106 14.3807 13.1154 12.7384 12.6439 10.6766C14.6602 10.0555 15.9772 9.05388 15.9772 8.00022ZM8.51057 3.14494C9.56904 2.16115 10.5627 1.62146 11.239 1.61974V1.62299C11.3886 1.62299 11.5089 1.65225 11.6098 1.70754C12.052 1.9612 12.2439 2.92705 12.0943 4.16933C12.0585 4.47502 12 4.79697 11.9285 5.12543C11.2911 4.96933 10.5951 4.849 9.86342 4.77095C9.42439 4.16933 8.96911 3.62299 8.51057 3.14494ZM4.74472 1.63274C5.41789 1.63274 6.41626 2.16933 7.47642 3.14819C7.02114 3.62624 6.56586 4.16933 6.13334 4.77095C5.39838 4.849 4.70244 4.96933 4.06504 5.12868C3.99025 4.80347 3.93496 4.48803 3.89594 4.18559C3.74309 2.94331 3.93171 1.97746 4.37073 1.72055C4.46829 1.66201 4.59512 1.63599 4.74472 1.63599V1.63274ZM11.7431 5.83112C11.6228 6.25063 11.4732 6.68315 11.3041 7.11567C11.1707 6.85551 11.0309 6.59534 10.8781 6.33518C10.7285 6.07502 10.5691 5.82136 10.4098 5.57421C10.8715 5.6425 11.3171 5.72705 11.7431 5.83112ZM9.46992 10.5368C9.73984 10.1498 10 9.73356 10.2537 9.29453C10.4976 8.86852 10.722 8.43274 10.9268 7.99697C10.722 7.5612 10.4976 7.12868 10.2504 6.70266C9.99675 6.26689 9.73334 5.85388 9.46342 5.46689C8.98212 5.42787 8.49106 5.4051 8 5.4051C7.50569 5.4051 7.01464 5.42787 6.53008 5.47014C6.26016 5.85713 6 6.27339 5.74634 6.71242C5.50244 7.13843 5.2748 7.57421 5.07317 8.00998C5.27805 8.44575 5.50244 8.87827 5.7496 9.30429C6.00325 9.74006 6.26667 10.1531 6.53659 10.5401C7.01789 10.5791 7.50895 10.6018 8 10.6018C8.49431 10.6018 8.98537 10.5791 9.46992 10.5368ZM11.3041 8.87177C11.4797 9.30754 11.6293 9.74331 11.7528 10.1661C11.3268 10.2701 10.878 10.3579 10.413 10.4262C10.5724 10.1758 10.7317 9.91892 10.8813 9.65551C11.0309 9.39534 11.1707 9.13193 11.3041 8.87177ZM7.10244 11.301C7.40163 11.6815 7.70407 12.0295 8.00651 12.3417C8.30569 12.0295 8.60813 11.6815 8.90082 11.301C8.60488 11.3173 8.30244 11.3238 7.99675 11.3238C7.69431 11.3238 7.39512 11.314 7.10244 11.301ZM5.58699 10.4262C5.12521 10.3579 4.67968 10.2734 4.25366 10.1693C4.37399 9.74981 4.52358 9.31729 4.69269 8.88477C4.82602 9.14494 4.96586 9.4051 5.1187 9.66526C5.27155 9.92542 5.42764 10.1791 5.58699 10.4262ZM8.89431 4.69941C8.59512 4.31892 8.29268 3.97095 7.99025 3.65876C7.69106 3.97095 7.38862 4.31892 7.09594 4.69941C7.39187 4.68315 7.69431 4.67665 8 4.67665C8.30244 4.67665 8.60163 4.6864 8.89431 4.69941ZM5.58374 5.57421C5.42439 5.82461 5.26504 6.08152 5.11545 6.34494C4.96586 6.6051 4.82602 6.86526 4.69269 7.12543C4.51708 6.68965 4.36748 6.25388 4.2439 5.83112C4.66992 5.7303 5.1187 5.6425 5.58374 5.57421ZM0.744717 8.00022C0.744717 8.51079 1.48943 9.15469 2.64065 9.64575C2.92358 9.76608 3.22927 9.87665 3.55122 9.97746C3.73334 9.34331 3.97399 8.68315 4.27317 8.00673C3.97073 7.32705 3.72683 6.66364 3.54147 6.02624C3.22602 6.12705 2.92033 6.23437 2.64065 6.35469C1.48943 6.8425 0.744717 7.48965 0.744717 8.00022ZM4.39025 14.2929C3.94797 14.0392 3.7561 13.0734 3.90569 11.8311C3.94147 11.5254 4 11.2035 4.07155 10.875C4.70895 11.0311 5.40488 11.1514 6.13659 11.2295C6.57561 11.8311 7.0309 12.3775 7.48943 12.8555C6.42927 13.8409 5.43415 14.3807 4.75773 14.3807C4.61138 14.3775 4.48781 14.3482 4.39025 14.2929ZM11.6293 14.2799C12.0683 14.023 12.2569 13.0571 12.1041 11.8149C12.0683 11.5124 12.0098 11.197 11.935 10.8685C11.2976 11.0279 10.6016 11.1482 9.86667 11.2262C9.43415 11.8279 8.97886 12.371 8.52358 12.849C9.58374 13.8279 10.5821 14.3644 11.2553 14.3644C11.4049 14.3644 11.5317 14.3384 11.6293 14.2799ZM13.3561 9.64575C13.0764 9.76608 12.7707 9.87339 12.4553 9.97421C12.2699 9.33681 12.026 8.67339 11.7236 7.99372C12.0228 7.3173 12.2634 6.65713 12.4455 6.02299C12.7675 6.1238 13.0732 6.23437 13.3594 6.35469C14.5106 6.84575 15.2553 7.48965 15.2553 8.00022C15.252 8.51079 14.5073 9.15795 13.3561 9.64575Z" fill="#61DAFB"/>
</g>
<defs>
<clipPath id="clip0_348_3812">
<rect width="16" height="16" fill="white"/>
</clipPath>
</defs>
</svg>
