<svg width="16" height="16" viewBox="0 0 16 16" fill="none" xmlns="http://www.w3.org/2000/svg">
<g clip-path="url(#clip0_1_1100)">
<path fill-rule="evenodd" clip-rule="evenodd" d="M15.9773 8.00008C15.9773 6.94315 14.6537 5.94153 12.6245 5.32039C13.0928 3.2521 12.8846 1.60657 11.9676 1.07975C11.757 0.956667 11.511 0.898099 11.2424 0.897635V0.894379C10.3481 0.894379 9.17734 1.53178 7.99356 2.63747C6.80982 1.53828 5.63909 0.907387 4.74478 0.907387V0.910635C4.47161 0.910635 4.22446 0.969179 4.00982 1.09275C3.096 1.61958 2.89112 3.26186 3.36266 5.32364C1.3399 5.94803 0.0228271 6.94641 0.0228271 8.00008C0.0228271 9.05696 1.34641 10.0586 3.37567 10.6798C2.90738 12.748 3.11551 14.3936 4.03258 14.9204C4.24397 15.044 4.49112 15.1025 4.76429 15.1025C5.6586 15.1025 6.82933 14.4651 8.0131 13.3594C9.19678 14.4586 10.3676 15.0895 11.2618 15.0895C11.535 15.0895 11.7822 15.031 11.9968 14.9074C12.9106 14.3806 13.1155 12.7382 12.644 10.6765C14.6602 10.0554 15.9773 9.05376 15.9773 8.00008ZM8.51062 3.14479C9.5691 2.16099 10.5627 1.62131 11.2391 1.61959V1.62283C11.3887 1.62283 11.509 1.6521 11.6098 1.70739C12.0521 1.96104 12.244 2.9269 12.0944 4.16918C12.0586 4.47487 12.0001 4.79682 11.9285 5.12527C11.2911 4.96918 10.5952 4.84885 9.8635 4.7708C9.42446 4.16918 8.96918 3.62283 8.51062 3.14479ZM4.74478 1.63259C5.41795 1.63259 6.41632 2.16918 7.47649 3.14803C7.0212 3.62608 6.56592 4.16918 6.1334 4.7708C5.39844 4.84885 4.7025 4.96918 4.0651 5.12852C3.9903 4.80332 3.93502 4.48787 3.896 4.18543C3.74315 2.94316 3.93177 1.97731 4.37079 1.72039C4.46835 1.66186 4.59518 1.63584 4.74478 1.63584V1.63259ZM11.7432 5.83096C11.6229 6.25047 11.4733 6.68299 11.3041 7.11551C11.1708 6.85535 11.0309 6.59519 10.8781 6.33503C10.7285 6.07487 10.5692 5.82121 10.4098 5.57405C10.8716 5.64235 11.3172 5.7269 11.7432 5.83096ZM9.46998 10.5366C9.7399 10.1497 10.0001 9.73336 10.2537 9.2944C10.4977 8.86832 10.722 8.43256 10.9269 7.99682C10.722 7.56104 10.4977 7.12852 10.2505 6.70251C9.99678 6.26674 9.73342 5.85373 9.4635 5.46674C8.98222 5.42771 8.4911 5.40495 8.00006 5.40495C7.50575 5.40495 7.0147 5.42771 6.53014 5.46999C6.26022 5.85698 6.00006 6.27324 5.74641 6.71227C5.5025 7.13828 5.27486 7.57405 5.07323 8.00984C5.27811 8.4456 5.5025 8.87808 5.74966 9.30416C6.00331 9.73992 6.26673 10.1529 6.53665 10.5399C7.01795 10.579 7.50901 10.6017 8.00006 10.6017C8.49438 10.6017 8.98542 10.579 9.46998 10.5366ZM11.3041 8.8716C11.4797 9.30736 11.6293 9.74312 11.7529 10.1659C11.3269 10.27 10.8781 10.3578 10.4131 10.4261C10.5725 10.1757 10.7317 9.9188 10.8813 9.65536C11.0309 9.3952 11.1708 9.13176 11.3041 8.8716ZM7.1025 11.3009C7.40169 11.6814 7.70413 12.0294 8.00654 12.3415C8.30574 12.0294 8.60822 11.6814 8.90086 11.3009C8.60494 11.3171 8.30254 11.3237 7.99681 11.3237C7.69438 11.3237 7.39518 11.3139 7.1025 11.3009ZM5.58706 10.4261C5.12526 10.3578 4.67974 10.2732 4.25372 10.1692C4.37405 9.74968 4.52364 9.31712 4.69274 8.88464C4.82608 9.1448 4.96592 9.40496 5.11876 9.66512C5.27161 9.92528 5.4277 10.179 5.58706 10.4261ZM8.89438 4.69926C8.59518 4.31877 8.29278 3.9708 7.9903 3.6586C7.69112 3.9708 7.38868 4.31877 7.096 4.69926C7.39194 4.68299 7.69438 4.67649 8.00006 4.67649C8.30254 4.67649 8.60166 4.68625 8.89438 4.69926ZM5.5838 5.57405C5.42446 5.82446 5.2651 6.08137 5.11551 6.34479C4.96592 6.60495 4.82608 6.86511 4.69274 7.12528C4.51714 6.6895 4.36754 6.25373 4.24397 5.83096C4.66998 5.73015 5.11876 5.64235 5.5838 5.57405ZM0.744778 8.00008C0.744778 8.51064 1.4895 9.15456 2.64071 9.6456C2.92364 9.76592 3.22933 9.87648 3.55128 9.97728C3.7334 9.34312 3.97405 8.68296 4.27323 8.00656C3.97079 7.3269 3.7269 6.66348 3.54153 6.02608C3.22608 6.1269 2.92039 6.23422 2.64071 6.35454C1.4895 6.84235 0.744778 7.4895 0.744778 8.00008ZM4.3903 14.2927C3.94803 14.0391 3.75616 13.0732 3.90575 11.831C3.94153 11.5253 4.00006 11.2033 4.07161 10.8749C4.70901 11.031 5.40494 11.1513 6.13665 11.2294C6.57567 11.831 7.03096 12.3773 7.4895 12.8554C6.42933 13.8407 5.43421 14.3806 4.75778 14.3806C4.61145 14.3773 4.48787 14.348 4.3903 14.2927ZM11.6293 14.2798C12.0684 14.0228 12.2569 13.057 12.1041 11.8147C12.0684 11.5122 12.0098 11.1968 11.935 10.8683C11.2977 11.0277 10.6017 11.148 9.8667 11.2261C9.43422 11.8277 8.97894 12.3708 8.52366 12.8489C9.58382 13.8277 10.5822 14.3643 11.2553 14.3643C11.4049 14.3643 11.5317 14.3382 11.6293 14.2798ZM13.3561 9.6456C13.0765 9.76592 12.7708 9.8732 12.4553 9.97408C12.27 9.33664 12.0261 8.6732 11.7237 7.99356C12.0229 7.31715 12.2635 6.65698 12.4456 6.02283C12.7676 6.12364 13.0733 6.23422 13.3594 6.35454C14.5106 6.84559 15.2553 7.4895 15.2553 8.00008C15.2521 8.51064 14.5074 9.15776 13.3561 9.6456ZM9.48302 8.00008C9.48302 8.82088 8.81758 9.48624 7.99681 9.48624C7.17602 9.48624 6.51063 8.82088 6.51063 8.00008C6.51063 7.17927 7.17602 6.51389 7.99681 6.51389C8.81758 6.51389 9.48302 7.17927 9.48302 8.00008Z" fill="#61DAFB"/>
</g>
<defs>
<clipPath id="clip0_1_1100">
<rect width="16" height="16" fill="white"/>
</clipPath>
</defs>
</svg>
