<svg width="16" height="16" viewBox="0 0 16 16" fill="none" xmlns="http://www.w3.org/2000/svg">
<g clip-path="url(#clip0_1406_3358)">
<path fill-rule="evenodd" clip-rule="evenodd" d="M15.9775 8.00005C15.9775 6.94312 14.6539 5.9415 12.6246 5.32036C13.0929 3.25207 12.8847 1.60654 11.9677 1.07972C11.7571 0.956636 11.5111 0.898068 11.2425 0.897604V0.894348C10.3482 0.894348 9.17746 1.53175 7.99368 2.63744C6.80994 1.53825 5.63921 0.907356 4.7449 0.907356V0.910604C4.47173 0.910604 4.22458 0.969148 4.00994 1.09272C3.09612 1.61955 2.89124 3.26183 3.36279 5.32361C1.34003 5.948 0.0229492 6.94638 0.0229492 8.00005C0.0229492 9.05693 1.34653 10.0586 3.37579 10.6797C2.90751 12.748 3.11563 14.3936 4.03271 14.9204C4.24409 15.044 4.49124 15.1025 4.76441 15.1025C5.65872 15.1025 6.82945 14.4651 8.01322 13.3594C9.1969 14.4586 10.3677 15.0895 11.2619 15.0895C11.5351 15.0895 11.7823 15.0309 11.9969 14.9073C12.9107 14.3805 13.1156 12.7382 12.6441 10.6765C14.6603 10.0553 15.9775 9.05373 15.9775 8.00005ZM8.51074 3.14476C9.56922 2.16096 10.5628 1.62128 11.2392 1.61956V1.6228C11.3888 1.6228 11.5091 1.65207 11.6099 1.70736C12.0523 1.96101 12.2441 2.92687 12.0945 4.16915C12.0587 4.47484 12.0002 4.79679 11.9287 5.12524C11.2912 4.96915 10.5953 4.84882 9.86362 4.77077C9.42458 4.16915 8.9693 3.6228 8.51074 3.14476ZM4.7449 1.63256C5.41807 1.63256 6.41644 2.16915 7.47661 3.148C7.02132 3.62605 6.56604 4.16915 6.13352 4.77077C5.39856 4.84882 4.70263 4.96915 4.06523 5.12849C3.99043 4.80329 3.93515 4.48784 3.89612 4.1854C3.74327 2.94313 3.93189 1.97728 4.37091 1.72036C4.46847 1.66183 4.59531 1.63581 4.7449 1.63581V1.63256ZM11.7433 5.83093C11.623 6.25044 11.4734 6.68296 11.3043 7.11548C11.1709 6.85532 11.0311 6.59516 10.8783 6.335C10.7287 6.07484 10.5693 5.82118 10.4099 5.57402C10.8717 5.64232 11.3173 5.72687 11.7433 5.83093ZM9.4701 10.5366C9.74002 10.1497 10.0002 9.73333 10.2539 9.29437C10.4978 8.86829 10.7221 8.43253 10.927 7.99679C10.7221 7.56101 10.4978 7.12849 10.2506 6.70248C9.9969 6.26671 9.73354 5.8537 9.46362 5.46671C8.98234 5.42768 8.49122 5.40492 8.00018 5.40492C7.50587 5.40492 7.01482 5.42768 6.53027 5.46996C6.26035 5.85695 6.00019 6.27321 5.74653 6.71224C5.50263 7.13825 5.27499 7.57402 5.07335 8.00981C5.27823 8.44557 5.50263 8.87805 5.74978 9.30413C6.00343 9.73989 6.26685 10.1529 6.53677 10.5399C7.01807 10.5789 7.50913 10.6017 8.00018 10.6017C8.4945 10.6017 8.98554 10.5789 9.4701 10.5366ZM11.3043 8.87157C11.4799 9.30733 11.6295 9.74309 11.7531 10.1659C11.327 10.27 10.8783 10.3577 10.4132 10.4261C10.5726 10.1757 10.7319 9.91877 10.8815 9.65533C11.0311 9.39517 11.1709 9.13173 11.3043 8.87157ZM7.10263 11.3009C7.40181 11.6813 7.70425 12.0293 8.00666 12.3415C8.30586 12.0293 8.60834 11.6813 8.90098 11.3009C8.60506 11.3171 8.30266 11.3237 7.99693 11.3237C7.6945 11.3237 7.39531 11.3139 7.10263 11.3009ZM5.58718 10.4261C5.12539 10.3577 4.67986 10.2732 4.25384 10.1692C4.37417 9.74965 4.52376 9.31709 4.69287 8.88461C4.8262 9.14477 4.96604 9.40493 5.11888 9.66509C5.27173 9.92525 5.42783 10.1789 5.58718 10.4261ZM8.8945 4.69923C8.5953 4.31874 8.2929 3.97077 7.99043 3.65857C7.69124 3.97077 7.3888 4.31874 7.09612 4.69923C7.39206 4.68296 7.6945 4.67646 8.00018 4.67646C8.30266 4.67646 8.60178 4.68622 8.8945 4.69923ZM5.58392 5.57402C5.42458 5.82443 5.26523 6.08134 5.11563 6.34476C4.96604 6.60492 4.8262 6.86508 4.69287 7.12524C4.51726 6.68947 4.36767 6.2537 4.24409 5.83093C4.67011 5.73012 5.11888 5.64232 5.58392 5.57402ZM0.7449 8.00005C0.7449 8.51061 1.48962 9.15453 2.64083 9.64557C2.92376 9.76589 3.22945 9.87645 3.5514 9.97725C3.73352 9.34309 3.97417 8.68293 4.27335 8.00653C3.97091 7.32687 3.72702 6.66345 3.54165 6.02605C3.2262 6.12687 2.92051 6.23419 2.64083 6.35451C1.48962 6.84232 0.7449 7.48947 0.7449 8.00005ZM4.39043 14.2927C3.94815 14.0391 3.75628 13.0732 3.90587 11.8309C3.94165 11.5253 4.00019 11.2033 4.07173 10.8749C4.70913 11.0309 5.40507 11.1513 6.13677 11.2293C6.57579 11.8309 7.03108 12.3773 7.48962 12.8553C6.42945 13.8407 5.43433 14.3805 4.75791 14.3805C4.61157 14.3773 4.48799 14.348 4.39043 14.2927ZM11.6295 14.2797C12.0685 14.0228 12.2571 13.0569 12.1043 11.8147C12.0685 11.5122 12.0099 11.1968 11.9351 10.8683C11.2978 11.0277 10.6018 11.148 9.86682 11.2261C9.43434 11.8277 8.97906 12.3708 8.52378 12.8489C9.58394 13.8277 10.5823 14.3643 11.2555 14.3643C11.4051 14.3643 11.5319 14.3382 11.6295 14.2797ZM13.3563 9.64557C13.0766 9.76589 12.7709 9.87317 12.4555 9.97405C12.2701 9.33661 12.0262 8.67317 11.7238 7.99353C12.023 7.31712 12.2636 6.65695 12.4457 6.0228C12.7677 6.12361 13.0734 6.23419 13.3595 6.35451C14.5107 6.84556 15.2555 7.48947 15.2555 8.00005C15.2522 8.51061 14.5075 9.15773 13.3563 9.64557ZM9.48314 8.00005C9.48314 8.82085 8.8177 9.48621 7.99693 9.48621C7.17614 9.48621 6.51075 8.82085 6.51075 8.00005C6.51075 7.17924 7.17614 6.51386 7.99693 6.51386C8.8177 6.51386 9.48314 7.17924 9.48314 8.00005Z" fill="#FF00FF"/>
</g>
<defs>
<clipPath id="clip0_1406_3358">
<rect width="16" height="16" fill="white"/>
</clipPath>
</defs>
</svg>
