<svg width="16" height="16" viewBox="0 0 16 16" fill="none" xmlns="http://www.w3.org/2000/svg">
<path fill-rule="evenodd" clip-rule="evenodd" d="M10.3017 11.0443C10.3892 11.1307 10.3892 11.2717 10.3017 11.3591C9.82348 11.8343 9.07364 12.0657 8.007 12.0657L7.99877 12.0637L7.99055 12.0657C6.92495 12.0657 6.17409 11.8343 5.6958 11.3581C5.60837 11.2717 5.60837 11.1307 5.6958 11.0443C5.7822 10.9579 5.92415 10.9579 6.01157 11.0443C6.4014 11.4321 7.04838 11.6213 7.99055 11.6213L7.99877 11.6234L8.007 11.6213C8.94812 11.6213 9.59508 11.4321 9.98596 11.0443C10.0734 10.9579 10.2153 10.9579 10.3017 11.0443ZM6.76346 8.55726C6.76346 8.03574 6.33764 7.61198 5.81512 7.61198C5.29158 7.61198 4.86575 8.03574 4.86575 8.55726C4.86575 9.07766 5.29158 9.5015 5.81512 9.5015C6.33764 9.50246 6.76346 9.0787 6.76346 8.55726ZM15.1998 7.46798C15.1998 6.59266 14.4849 5.88089 13.6055 5.88089C13.1766 5.88089 12.7878 6.05266 12.5008 6.32832C11.4147 5.61346 9.94484 5.15883 8.31868 5.10021L9.20836 2.29838L11.6183 2.86306L11.6152 2.89803C11.6152 3.61392 12.2005 4.19609 12.9195 4.19609C13.6384 4.19609 14.2227 3.61392 14.2227 2.89803C14.2227 2.18214 13.6384 1.59998 12.9195 1.59998C12.3671 1.59998 11.8971 1.94454 11.7068 2.42694L9.10964 1.81803C8.99652 1.79026 8.88028 1.85609 8.84532 1.96718L7.85272 5.09198C6.1494 5.11254 4.60757 5.57129 3.47306 6.30672C3.18815 6.04443 2.81066 5.87986 2.39306 5.87986C1.51466 5.88089 0.799805 6.59266 0.799805 7.46798C0.799805 8.05014 1.11969 8.55414 1.58975 8.83086C1.55889 8.9995 1.53832 9.17126 1.53832 9.3451C1.53832 11.6913 4.42346 13.6003 7.96997 13.6003C11.5165 13.6003 14.4016 11.6913 14.4016 9.3451C14.4016 9.18054 14.3841 9.0191 14.3564 8.85966C14.8563 8.59118 15.1998 8.07174 15.1998 7.46798ZM9.24028 8.5583C9.24028 8.03678 9.66508 7.61301 10.1886 7.61301C10.7121 7.61301 11.1369 8.03678 11.1369 8.5583C11.1369 9.0787 10.7111 9.50246 10.1886 9.50246C9.66612 9.50246 9.24028 9.0787 9.24028 8.5583Z" fill="#FF00FF"/>
</svg>
