<svg width="16" height="16" viewBox="0 0 16 16" fill="none" xmlns="http://www.w3.org/2000/svg">
<g clip-path="url(#clip0_1406_3356)">
<path fill-rule="evenodd" clip-rule="evenodd" d="M8 16C12.4182 16 16 12.4182 16 8C16 3.58172 12.4182 0 8 0C3.58172 0 0 3.58172 0 8C0 12.4182 3.58172 16 8 16ZM9.74064 10.842C9.8068 10.7759 9.8068 10.6694 9.74064 10.604C9.67536 10.5386 9.568 10.5386 9.50184 10.604C9.20632 10.8972 8.71712 11.0403 8.00544 11.0403L7.99921 11.0419L7.99298 11.0403C7.28054 11.0403 6.79132 10.8972 6.49654 10.604C6.43043 10.5386 6.3231 10.5386 6.25777 10.604C6.19166 10.6694 6.19166 10.7759 6.25777 10.8412C6.61943 11.2014 7.18721 11.3763 7.99298 11.3763L7.99921 11.3748L8.00544 11.3763C8.812 11.3763 9.37896 11.2014 9.74064 10.842ZM6.34798 8.00856C6.7431 8.00856 7.0651 8.32896 7.0651 8.72336C7.0651 9.11768 6.7431 9.43808 6.34798 9.43736C5.9521 9.43736 5.6301 9.11688 5.6301 8.72336C5.6301 8.32896 5.9521 8.00856 6.34798 8.00856ZM12.2389 6.69955C12.9038 6.69955 13.4444 7.23778 13.4444 7.89966C13.4444 8.35624 13.1846 8.74896 12.8066 8.952C12.8277 9.07256 12.8409 9.19464 12.8409 9.31912C12.8409 11.0932 10.6592 12.5368 7.97743 12.5368C5.29566 12.5368 3.11398 11.0932 3.11398 9.31912C3.11398 9.18768 3.12954 9.05776 3.15287 8.93024C2.79743 8.72096 2.55554 8.33992 2.55554 7.89966C2.55554 7.23778 3.0961 6.69955 3.76032 6.69878C4.0761 6.69878 4.36154 6.82322 4.57698 7.02155C5.43487 6.46544 6.60077 6.11855 7.88877 6.103L8.63928 3.74011C8.66576 3.65611 8.75368 3.60634 8.8392 3.62733L10.8031 4.08778C10.947 3.723 11.3024 3.46244 11.7201 3.46244C12.2638 3.46244 12.7055 3.90266 12.7055 4.444C12.7055 4.98533 12.2638 5.42555 11.7201 5.42555C11.1764 5.42555 10.7338 4.98533 10.7338 4.444L10.7362 4.41755L8.91384 3.99055L8.24112 6.10922C9.4708 6.15355 10.5822 6.49733 11.4035 7.03789C11.6206 6.82944 11.9146 6.69955 12.2389 6.69955ZM9.65512 8.00936C9.2592 8.00936 8.938 8.32976 8.938 8.72408C8.938 9.11768 9.26 9.43808 9.65512 9.43808C10.0502 9.43808 10.3722 9.11768 10.3722 8.72408C10.3722 8.32976 10.051 8.00936 9.65512 8.00936Z" fill="#FF00FF"/>
</g>
<defs>
<clipPath id="clip0_1406_3356">
<rect width="16" height="16" fill="white"/>
</clipPath>
</defs>
</svg>
