<svg width="16" height="16" viewBox="0 0 16 16" fill="none" xmlns="http://www.w3.org/2000/svg">
<path fill-rule="evenodd" clip-rule="evenodd" d="M10.3019 11.0443C10.3893 11.1307 10.3893 11.2717 10.3019 11.3591C9.82367 11.8343 9.07383 12.0657 8.00719 12.0657L7.99896 12.0637L7.99073 12.0657C6.92513 12.0657 6.17428 11.8343 5.69599 11.3581C5.60856 11.2717 5.60856 11.1307 5.69599 11.0443C5.78239 10.9579 5.92433 10.9579 6.01176 11.0443C6.40159 11.4321 7.04856 11.6214 7.99073 11.6214L7.99896 11.6234L8.00719 11.6214C8.94831 11.6214 9.59527 11.4321 9.98615 11.0443C10.0736 10.9579 10.2155 10.9579 10.3019 11.0443ZM6.76364 8.55729C6.76364 8.03577 6.33782 7.61201 5.8153 7.61201C5.29176 7.61201 4.86593 8.03577 4.86593 8.55729C4.86593 9.07769 5.29176 9.50153 5.8153 9.50153C6.33782 9.50249 6.76364 9.07873 6.76364 8.55729ZM15.2 7.46801C15.2 6.59269 14.4851 5.88092 13.6057 5.88092C13.1768 5.88092 12.788 6.05269 12.501 6.32835C11.4149 5.61349 9.94503 5.15886 8.31887 5.10024L9.20855 2.29841L11.6185 2.86309L11.6154 2.89806C11.6154 3.61395 12.2007 4.19612 12.9197 4.19612C13.6386 4.19612 14.2229 3.61395 14.2229 2.89806C14.2229 2.18217 13.6386 1.60001 12.9197 1.60001C12.3673 1.60001 11.8973 1.94457 11.7069 2.42697L9.10983 1.81806C8.99671 1.79029 8.88047 1.85612 8.84551 1.96721L7.8529 5.09201C6.14959 5.11257 4.60776 5.57132 3.47324 6.30675C3.18833 6.04446 2.81084 5.87989 2.39324 5.87989C1.51484 5.88092 0.799988 6.59269 0.799988 7.46801C0.799988 8.05017 1.11988 8.55417 1.58993 8.83089C1.55908 8.99953 1.5385 9.17129 1.5385 9.34513C1.5385 11.6913 4.42364 13.6003 7.97016 13.6003C11.5167 13.6003 14.4018 11.6913 14.4018 9.34513C14.4018 9.18057 14.3843 9.01913 14.3565 8.85969C14.8565 8.59121 15.2 8.07177 15.2 7.46801ZM9.24047 8.55833C9.24047 8.03681 9.66527 7.61304 10.1888 7.61304C10.7123 7.61304 11.1371 8.03681 11.1371 8.55833C11.1371 9.07873 10.7113 9.50249 10.1888 9.50249C9.66631 9.50249 9.24047 9.07873 9.24047 8.55833Z" fill="#FF00FF"/>
</svg>
