<svg width="16" height="16" viewBox="0 0 16 16" fill="none" xmlns="http://www.w3.org/2000/svg">
<g clip-path="url(#clip0_1406_3355)">
<path d="M8 16C12.4183 16 16 12.4183 16 8C16 3.58172 12.4183 0 8 0C3.58172 0 0 3.58172 0 8C0 12.4183 3.58172 16 8 16Z" fill="#FF4500"/>
<path fill-rule="evenodd" clip-rule="evenodd" d="M9.74075 10.604C9.80691 10.6694 9.80691 10.7759 9.74075 10.842C9.37907 11.2014 8.81211 11.3763 8.00555 11.3763L7.99933 11.3748L7.9931 11.3763C7.18733 11.3763 6.61955 11.2014 6.25788 10.8412C6.19177 10.7759 6.19177 10.6694 6.25788 10.604C6.32322 10.5387 6.43055 10.5387 6.49666 10.604C6.79144 10.8972 7.28066 11.0403 7.9931 11.0403L7.99933 11.0419L8.00555 11.0403C8.71723 11.0403 9.20643 10.8972 9.50203 10.604C9.56811 10.5387 9.67547 10.5387 9.74075 10.604ZM7.06522 8.72337C7.06522 8.32905 6.74322 8.00858 6.3481 8.00858C5.95222 8.00858 5.63022 8.32905 5.63022 8.72337C5.63022 9.1169 5.95222 9.43738 6.3481 9.43738C6.74322 9.4381 7.06522 9.11769 7.06522 8.72337ZM13.4445 7.89969C13.4445 7.2378 12.904 6.69958 12.239 6.69958C11.9147 6.69958 11.6207 6.82946 11.4036 7.03791C10.5824 6.49735 9.47091 6.15358 8.24123 6.10925L8.91403 3.99058L10.7364 4.41758L10.734 4.44402C10.734 4.98535 11.1765 5.42558 11.7202 5.42558C12.2639 5.42558 12.7056 4.98535 12.7056 4.44402C12.7056 3.90269 12.2639 3.46246 11.7202 3.46246C11.3025 3.46246 10.9471 3.72302 10.8032 4.0878L8.83931 3.62735C8.75379 3.60635 8.66587 3.65614 8.63947 3.74014L7.88888 6.10302C6.60088 6.11858 5.43499 6.46546 4.5771 7.02158C4.36166 6.82325 4.07622 6.6988 3.76044 6.6988C3.09622 6.69958 2.55566 7.2378 2.55566 7.89969C2.55566 8.33994 2.79755 8.72106 3.15299 8.93026C3.12966 9.05778 3.1141 9.1877 3.1141 9.31914C3.1141 11.0932 5.29577 12.5368 7.97755 12.5368C10.6593 12.5368 12.841 11.0932 12.841 9.31914C12.841 9.19466 12.8278 9.07258 12.8068 8.95201C13.1848 8.74905 13.4445 8.35626 13.4445 7.89969ZM8.93811 8.7241C8.93811 8.32978 9.25931 8.00938 9.65523 8.00938C10.0511 8.00938 10.3724 8.32978 10.3724 8.7241C10.3724 9.1177 10.0504 9.4381 9.65523 9.4381C9.26011 9.4381 8.93811 9.1177 8.93811 8.7241Z" fill="white"/>
</g>
<defs>
<clipPath id="clip0_1406_3355">
<rect width="16" height="16" fill="white"/>
</clipPath>
</defs>
</svg>
