<svg width="16" height="16" viewBox="0 0 16 16" fill="none" xmlns="http://www.w3.org/2000/svg">
<g clip-path="url(#clip0_1_1104)">
<path d="M8 16C12.4183 16 16 12.4183 16 8C16 3.58172 12.4183 0 8 0C3.58172 0 0 3.58172 0 8C0 12.4183 3.58172 16 8 16Z" fill="#FF4500"/>
<path fill-rule="evenodd" clip-rule="evenodd" d="M9.74057 10.604C9.80673 10.6694 9.80673 10.7759 9.74057 10.842C9.37889 11.2014 8.81193 11.3763 8.00537 11.3763L7.99915 11.3748L7.99292 11.3763C7.18715 11.3763 6.61937 11.2014 6.2577 10.8412C6.19159 10.7759 6.19159 10.6694 6.2577 10.604C6.32303 10.5387 6.43037 10.5387 6.49648 10.604C6.79126 10.8972 7.28048 11.0403 7.99292 11.0403L7.99915 11.0419L8.00537 11.0403C8.71705 11.0403 9.20625 10.8972 9.50185 10.604C9.56793 10.5387 9.67529 10.5387 9.74057 10.604ZM7.06503 8.72338C7.06503 8.32906 6.74303 8.00858 6.34792 8.00858C5.95203 8.00858 5.63003 8.32906 5.63003 8.72338C5.63003 9.1169 5.95203 9.43737 6.34792 9.43737C6.74303 9.43809 7.06503 9.1177 7.06503 8.72338ZM13.4443 7.89969C13.4443 7.2378 12.9038 6.69958 12.2388 6.69958C11.9145 6.69958 11.6205 6.82946 11.4034 7.03791C10.5822 6.49735 9.47073 6.15358 8.24105 6.10925L8.91385 3.99058L10.7362 4.41758L10.7338 4.44402C10.7338 4.98535 11.1763 5.42558 11.72 5.42558C12.2637 5.42558 12.7054 4.98535 12.7054 4.44402C12.7054 3.90269 12.2637 3.46246 11.72 3.46246C11.3023 3.46246 10.9469 3.72302 10.803 4.0878L8.83913 3.62735C8.75361 3.60635 8.66569 3.65614 8.63929 3.74014L7.8887 6.10302C6.6007 6.11858 5.43481 6.46546 4.57692 7.02158C4.36148 6.82325 4.07603 6.6988 3.76026 6.6988C3.09603 6.69958 2.55548 7.2378 2.55548 7.89969C2.55548 8.33994 2.79737 8.72106 3.15281 8.93026C3.12948 9.05778 3.11392 9.1877 3.11392 9.31914C3.11392 11.0932 5.29558 12.5368 7.97737 12.5368C10.6591 12.5368 12.8408 11.0932 12.8408 9.31914C12.8408 9.19466 12.8276 9.07258 12.8066 8.95202C13.1846 8.74906 13.4443 8.35626 13.4443 7.89969ZM8.93793 8.7241C8.93793 8.32978 9.25913 8.00938 9.65505 8.00938C10.0509 8.00938 10.3722 8.32978 10.3722 8.7241C10.3722 9.1177 10.0502 9.4381 9.65505 9.4381C9.25993 9.4381 8.93793 9.1177 8.93793 8.7241Z" fill="white"/>
</g>
<defs>
<clipPath id="clip0_1_1104">
<rect width="16" height="16" fill="white"/>
</clipPath>
</defs>
</svg>
