<svg width="16" height="16" viewBox="0 0 16 16" fill="none" xmlns="http://www.w3.org/2000/svg">
<g clip-path="url(#clip0_348_3832)">
<circle cx="8" cy="8" r="8" fill="#FF4500"/>
<path fill-rule="evenodd" clip-rule="evenodd" d="M9.74065 10.604C9.80676 10.6693 9.80676 10.7758 9.74065 10.842C9.37899 11.2013 8.81199 11.3763 8.00543 11.3763L7.99921 11.3747L7.99299 11.3763C7.18721 11.3763 6.61943 11.2013 6.25776 10.8412C6.19165 10.7758 6.19165 10.6693 6.25776 10.604C6.3231 10.5386 6.43043 10.5386 6.49654 10.604C6.79132 10.8972 7.28054 11.0403 7.99299 11.0403L7.99921 11.0418L8.00543 11.0403C8.7171 11.0403 9.20632 10.8972 9.50187 10.604C9.56799 10.5386 9.67532 10.5386 9.74065 10.604ZM7.0651 8.72329C7.0651 8.32896 6.7431 8.00851 6.34799 8.00851C5.9521 8.00851 5.6301 8.32896 5.6301 8.72329C5.6301 9.11685 5.9521 9.43729 6.34799 9.43729C6.7431 9.43807 7.0651 9.11762 7.0651 8.72329ZM13.4444 7.89962C13.4444 7.23774 12.9039 6.69951 12.2389 6.69951C11.9145 6.69951 11.6205 6.8294 11.4035 7.03785C10.5822 6.49729 9.47076 6.15351 8.2411 6.10918L8.91388 3.99051L10.7362 4.41751L10.7339 4.44396C10.7339 4.98529 11.1764 5.42551 11.7201 5.42551C12.2638 5.42551 12.7055 4.98529 12.7055 4.44396C12.7055 3.90262 12.2638 3.4624 11.7201 3.4624C11.3024 3.4624 10.947 3.72296 10.8031 4.08774L8.83921 3.62729C8.75365 3.60629 8.66576 3.65607 8.63932 3.74007L7.88876 6.10296C6.60076 6.11851 5.43488 6.4654 4.57699 7.02151C4.36154 6.82318 4.0761 6.69873 3.76032 6.69873C3.0961 6.69951 2.55554 7.23774 2.55554 7.89962C2.55554 8.33985 2.79743 8.72096 3.15288 8.93018C3.12954 9.05773 3.11399 9.18762 3.11399 9.31907C3.11399 11.0932 5.29565 12.5367 7.97743 12.5367C10.6592 12.5367 12.8409 11.0932 12.8409 9.31907C12.8409 9.19462 12.8277 9.07251 12.8067 8.95196C13.1847 8.74896 13.4444 8.35618 13.4444 7.89962ZM8.93799 8.72407C8.93799 8.32973 9.25921 8.00929 9.6551 8.00929C10.051 8.00929 10.3722 8.32973 10.3722 8.72407C10.3722 9.11762 10.0502 9.43807 9.6551 9.43807C9.25999 9.43807 8.93799 9.11762 8.93799 8.72407Z" fill="white"/>
</g>
<defs>
<clipPath id="clip0_348_3832">
<rect width="16" height="16" fill="white"/>
</clipPath>
</defs>
</svg>
