<svg width="16" height="16" viewBox="0 0 16 16" fill="none" xmlns="http://www.w3.org/2000/svg">
<path d="M3.75736 12.2427C3.18096 11.6662 2.74634 11.0017 2.45353 10.2925M2.45353 10.2925C2.15117 9.56013 2 8.78007 2 8M2.45353 10.2925C3.35405 12.4688 5.49821 14 8 14M2.45353 10.2925C2.16127 9.58618 2 8.81192 2 8M2 8C2 6.46447 2.58579 4.92894 3.75736 3.75737M12.2426 3.75737C12.2603 3.77501 12.2778 3.79274 12.2952 3.81055M12.2952 3.81055C12.8433 4.37219 13.2592 5.0147 13.543 5.69908M12.2952 3.81055C11.2055 2.69355 9.68375 2 8 2M12.2952 3.81055C12.8225 4.3511 13.2486 4.99081 13.543 5.69908M13.543 5.69908C13.8459 6.42954 13.9982 7.20771 14 7.98615M13.543 5.69908C13.8358 6.40364 13.9982 7.17604 14 7.98615M14 7.98615C14.0035 9.5263 13.4177 11.0676 12.2426 12.2427M14 7.98615C14 7.99077 14 7.99538 14 8M1 4.18945L3.89778 3.413L4.67423 6.31077M11.5 9.68945L12.2765 12.5872L15.1742 11.8108" stroke="#FF00FF" stroke-width="1.5" stroke-linecap="round" stroke-linejoin="round"/>
</svg>
