<svg width="16" height="16" viewBox="0 0 16 16" fill="none" xmlns="http://www.w3.org/2000/svg">
<g clip-path="url(#clip0_1_1109)">
<mask id="mask0_1_1109" style="mask-type:luminance" maskUnits="userSpaceOnUse" x="0" y="0" width="16" height="16">
<path d="M16 0H0V16H16V0Z" fill="white"/>
</mask>
<g mask="url(#mask0_1_1109)">
<path fill-rule="evenodd" clip-rule="evenodd" d="M7.26972 0.712164C9.39197 -0.63979 12.3274 -0.00954513 13.8137 2.117V2.12843C14.1664 2.62224 14.417 3.1815 14.5507 3.77342C14.6844 4.36534 14.6987 4.978 14.5926 5.57549C14.4888 6.14574 14.2711 6.68918 13.9523 7.17325C14.418 8.06072 14.5744 9.07808 14.3968 10.0644C14.2903 10.6486 14.0635 11.2044 13.7308 11.6964C13.3983 12.1885 12.9671 12.606 12.4646 12.9226L8.73741 15.2878C6.61518 16.6398 3.67975 16.0095 2.19346 13.883C1.84046 13.3894 1.58971 12.8301 1.45595 12.2382C1.3222 11.6462 1.30814 11.0334 1.41458 10.4359C1.51714 9.8656 1.73446 9.322 2.05341 8.83816C1.58805 7.95014 1.43214 6.93225 1.61038 5.94563C1.71607 5.36107 1.9425 4.80497 2.27518 4.31283C2.60786 3.82069 3.03951 3.40333 3.54256 3.08738L7.26972 0.712164ZM5.13078 13.9988C5.69914 14.2097 6.3185 14.241 6.90527 14.0888C7.17315 14.0168 7.42854 13.9045 7.66271 13.7558L11.3913 11.3806C11.6942 11.19 11.954 10.9382 12.154 10.6414C12.3541 10.3446 12.49 10.0094 12.5532 9.65712C12.6171 9.29784 12.6084 8.92952 12.528 8.57368C12.4475 8.21776 12.2967 7.88161 12.0844 7.58486C11.7392 7.08682 11.2494 6.7068 10.6812 6.49618C10.1131 6.28558 9.49389 6.25453 8.90749 6.40725C8.63917 6.47806 8.38357 6.59041 8.15005 6.74024L6.72092 7.6463C6.64998 7.69062 6.57295 7.72433 6.49226 7.74634C6.31659 7.79061 6.13162 7.78042 5.96188 7.71712C5.79214 7.65382 5.64567 7.5404 5.54189 7.39192C5.47792 7.30218 5.43236 7.20067 5.40783 7.09323C5.3833 6.9858 5.38029 6.87457 5.39898 6.76596C5.41829 6.65998 5.45938 6.55915 5.51964 6.46986C5.57991 6.38057 5.65805 6.30474 5.74911 6.24719L9.47773 3.87626C9.54837 3.83142 9.62549 3.79767 9.70637 3.77622C9.88125 3.7302 10.066 3.7385 10.236 3.80002C10.406 3.86155 10.5532 3.97338 10.6581 4.12065C10.7725 4.28182 10.8261 4.47823 10.8096 4.67515L10.7968 4.81806L10.9397 4.8595C11.4634 5.01809 11.9563 5.26455 12.3974 5.58836L12.5875 5.73127L12.6589 5.5169C12.6956 5.4031 12.7252 5.28711 12.7476 5.16962C12.8116 4.81042 12.8031 4.44202 12.7226 4.08614C12.642 3.73026 12.4912 3.39408 12.2788 3.09739C11.9336 2.59926 11.4439 2.21907 10.8757 2.00822C10.3076 1.79736 9.68837 1.766 9.10181 1.91836C8.83597 1.99022 8.58245 2.10201 8.35013 2.24992L4.61724 4.62513C4.31433 4.81578 4.05454 5.06754 3.85447 5.36431C3.65441 5.66109 3.51847 5.99635 3.45536 6.34866C3.39089 6.70759 3.39876 7.07578 3.47852 7.43164C3.55828 7.78749 3.70832 8.12384 3.91983 8.42088C4.26502 8.91776 4.75414 9.29704 5.32136 9.5076C5.88858 9.71808 6.50669 9.74984 7.09249 9.59848C7.35985 9.52696 7.61476 9.41512 7.8485 9.26696L9.27765 8.35944C9.34829 8.31456 9.42541 8.28088 9.50629 8.25944C9.68301 8.21352 9.86949 8.22296 10.0407 8.28632C10.2119 8.34968 10.3596 8.464 10.4638 8.61384C10.528 8.70312 10.5738 8.8044 10.5984 8.91168C10.6229 9.01888 10.6257 9.13 10.6067 9.23832C10.5878 9.34464 10.5469 9.44592 10.4866 9.53544C10.4264 9.62504 10.348 9.70104 10.2566 9.75856L6.53513 12.1338C6.46434 12.1784 6.38726 12.2121 6.30647 12.2338C6.12978 12.2797 5.94327 12.2702 5.77208 12.2069C5.60089 12.1435 5.45322 12.0292 5.34895 11.8794C5.23453 11.7197 5.17943 11.5251 5.19318 11.3292L5.20604 11.1862L5.06313 11.1448C4.54131 10.9875 4.04989 10.743 3.6097 10.4217L3.41821 10.2787L3.34818 10.4931C3.31026 10.6056 3.28066 10.7207 3.25957 10.8375C3.19534 11.1966 3.2036 11.565 3.28386 11.9209C3.36411 12.2768 3.51475 12.613 3.7269 12.9098C4.07242 13.4079 4.56242 13.788 5.13078 13.9988Z" fill="#FF00FF"/>
</g>
</g>
<defs>
<clipPath id="clip0_1_1109">
<rect width="16" height="16" fill="white"/>
</clipPath>
</defs>
</svg>
