<svg width="16" height="16" viewBox="0 0 16 16" fill="none" xmlns="http://www.w3.org/2000/svg">
<g clip-path="url(#clip0_1406_3351)">
<path fill-rule="evenodd" clip-rule="evenodd" d="M8 0C12.4183 0 16 3.58174 16 8C16 12.4183 12.4183 16 8 16C3.58174 16 0 12.4183 0 8C0 3.58174 3.58174 0 8 0ZM13.0182 3.4241C12.6559 2.00328 10.3 1.53621 8.07024 2.32832C6.74334 2.79979 5.30682 3.53968 4.27393 4.50578C3.04582 5.65449 2.84998 6.65427 2.93071 7.07204C3.14407 8.17664 4.33162 8.99448 5.26295 9.63592C5.57452 9.85048 5.85741 10.0454 6.06555 10.2246V10.2289C5.82073 10.3494 4.02875 11.2563 3.60938 12.1834C3.16689 13.1615 3.67983 13.8634 4.0194 13.9578C5.07157 14.2506 6.15126 13.7241 6.7315 12.8586C7.29144 12.0234 7.24482 10.9448 7.00148 10.4083C7.33715 10.3198 7.72848 10.2801 8.22584 10.3382C9.62912 10.5021 9.90448 11.3784 9.85184 11.745C9.79928 12.1118 9.50488 12.3134 9.40648 12.3742C9.308 12.4352 9.278 12.4562 9.28632 12.5015C9.29824 12.5673 9.34376 12.5648 9.42768 12.5506C9.5432 12.5311 10.1646 12.2523 10.1911 11.5754C10.225 10.716 9.40136 9.75456 7.94305 9.77968C7.34245 9.79008 6.96479 9.8472 6.69201 9.94872C6.67184 9.92576 6.65131 9.90288 6.63009 9.88024C6.35186 9.58336 6.00076 9.31336 5.65034 9.04384C4.86529 8.44 4.08366 7.83884 4.13253 6.94478C4.15823 6.47467 4.32163 5.23676 7.33505 3.73521C9.8036 2.50516 11.7797 2.84364 12.1212 3.59381C12.609 4.66552 11.065 6.65746 8.50152 6.94478C7.52482 7.05428 7.01055 6.67573 6.88262 6.53476C6.74793 6.38635 6.72787 6.37966 6.6776 6.4075C6.59689 6.45219 6.64606 6.58001 6.67624 6.65849L6.6776 6.66202C6.75412 6.86121 7.06822 7.21445 7.60371 7.39015C8.07472 7.54475 9.22152 7.62969 10.6083 7.09326C12.1615 6.49243 13.3744 4.82114 13.0182 3.4241ZM6.39356 11.8605C6.51377 11.4969 6.52654 11.0954 6.41015 10.6648C6.38542 10.6785 6.361 10.6918 6.33698 10.7047L6.33826 10.7072C6.33826 10.7072 5.5041 11.1013 4.92433 11.7142C4.38542 12.2838 4.23479 12.9988 4.5355 13.173C4.81397 13.3346 5.4634 13.1429 5.92821 12.6358C6.08058 12.4696 6.205 12.2895 6.29772 12.0971C6.31626 12.0586 6.33355 12.0197 6.34952 11.9803C6.36548 11.9408 6.3802 11.9009 6.39356 11.8605Z" fill="#FF00FF"/>
</g>
<defs>
<clipPath id="clip0_1406_3351">
<rect width="16" height="16" fill="white"/>
</clipPath>
</defs>
</svg>
