<svg width="16" height="16" viewBox="0 0 16 16" fill="none" xmlns="http://www.w3.org/2000/svg">
<g clip-path="url(#clip0_348_3947)">
<path fill-rule="evenodd" clip-rule="evenodd" d="M0.00799561 7.9999C0.00799561 3.58123 3.58696 0 8.00089 0C12.4146 0 15.993 3.58123 15.993 7.9999C15.993 12.4175 12.4146 16 8.00089 16C3.58696 16 0.00799561 12.4175 0.00799561 7.9999ZM10.022 13.2528C10.213 13.0689 11.4604 11.8676 12.1747 11.079C12.8488 10.3327 13.1879 9.3727 13.127 8.37714C13.0644 7.35186 12.5864 6.40233 11.7799 5.70495C10.4479 4.55226 8.29539 4.57576 6.98126 5.75621C6.50191 6.18613 5.96039 6.77586 5.9374 6.80115C5.59185 7.17724 5.61741 7.76282 5.99246 8.1085C6.36811 8.45359 6.95146 8.429 7.2979 8.05329C7.30254 8.04786 7.80192 7.50386 8.21398 7.13458C8.90588 6.51295 10.0122 6.6207 10.5724 7.10544C10.9991 7.47413 11.2512 7.96559 11.2832 8.48914C11.3133 8.98337 11.1435 9.46218 10.806 9.83512C10.1394 10.5725 8.91221 11.7546 8.74258 11.918C8.73062 11.9295 8.72304 11.9368 8.72304 11.9368C8.35449 12.2902 8.34107 12.8749 8.69393 13.2449C8.87529 13.4346 9.11753 13.5307 9.36174 13.5307C9.59076 13.5307 9.82057 13.4454 9.99907 13.2749C10.0024 13.2717 10.0102 13.2642 10.022 13.2528ZM4.22602 10.2943C4.88151 10.8617 5.73532 11.1448 6.59042 11.1448C7.47334 11.1448 8.35745 10.8432 9.02468 10.2432C9.46408 9.84818 9.95693 9.31919 10.0527 9.21642C10.0613 9.20722 10.0667 9.20143 10.0685 9.19947C10.4139 8.82337 10.3888 8.23739 10.0135 7.89211C9.63852 7.54593 9.05379 7.57003 8.70873 7.94653C8.70873 7.94653 8.70767 7.94766 8.70616 7.9493C8.66677 7.99192 8.18856 8.5092 7.79216 8.86594C7.10006 9.48628 5.99404 9.38021 5.43319 8.89438C5.00692 8.52539 4.75481 8.03384 4.72254 7.50979C4.69245 7.01606 4.86266 6.53833 5.20002 6.16391C5.91412 5.37517 7.26909 4.0764 7.283 4.06307C7.65184 3.71018 7.66437 3.1247 7.31221 2.75512C6.95936 2.38603 6.37531 2.37191 6.00667 2.72539C6.00667 2.72539 6.00325 2.72868 6.00048 2.73134C5.88563 2.84162 4.57188 4.10306 3.83192 4.92144C3.1567 5.66722 2.81905 6.62712 2.87874 7.62228C2.94179 8.64835 3.41986 9.59709 4.22602 10.2943Z" fill="#FF00FF"/>
</g>
<defs>
<clipPath id="clip0_348_3947">
<rect width="16" height="16" fill="white"/>
</clipPath>
</defs>
</svg>
