<svg width="16" height="16" viewBox="0 0 16 16" fill="none" xmlns="http://www.w3.org/2000/svg">
<g clip-path="url(#clip0_1406_3348)">
<path fill-rule="evenodd" clip-rule="evenodd" d="M0.00805664 7.9999C0.00805664 3.58123 3.58702 0 8.00093 0C12.4147 0 15.9931 3.58123 15.9931 7.9999C15.9931 12.4175 12.4147 16 8.00093 16C3.58702 16 0.00805664 12.4175 0.00805664 7.9999ZM10.022 13.2528C10.213 13.0689 11.4604 11.8676 12.1748 11.079C12.8489 10.3327 13.188 9.37272 13.1271 8.37712C13.0645 7.35186 12.5864 6.40233 11.78 5.70494C10.448 4.55226 8.29541 4.57576 6.98132 5.75621C6.50197 6.18614 5.96046 6.77586 5.93746 6.80114C5.59191 7.17724 5.61746 7.76282 5.99252 8.10848C6.36817 8.4536 6.95152 8.42896 7.29796 8.05328C7.3026 8.04784 7.80198 7.50386 8.21405 7.13458C8.90597 6.51294 10.0123 6.6207 10.5724 7.10544C10.9992 7.47414 11.2513 7.96559 11.2832 8.48912C11.3133 8.98336 11.1436 9.46216 10.806 9.83512C10.1394 10.5726 8.91213 11.7547 8.74261 11.918C8.73069 11.9295 8.72309 11.9369 8.72309 11.9369C8.35453 12.2902 8.34117 12.875 8.69397 13.2449C8.87533 13.4346 9.11757 13.5307 9.36181 13.5307C9.59085 13.5307 9.82061 13.4454 9.99917 13.275C10.0025 13.2717 10.0103 13.2642 10.022 13.2528ZM4.22608 10.2942C4.88157 10.8617 5.73538 11.1449 6.59048 11.1449C7.47341 11.1449 8.35749 10.8432 9.02477 10.2432C9.46413 9.84816 9.95701 9.3192 10.0528 9.2164C10.0613 9.2072 10.0667 9.20144 10.0686 9.19944C10.414 8.82336 10.3889 8.23736 10.0136 7.8921C9.63861 7.54594 9.05381 7.57003 8.70877 7.94653C8.70877 7.94653 8.70773 7.94766 8.70621 7.94928C8.66693 7.99176 8.18869 8.50912 7.79222 8.86592C7.10013 9.48632 5.9941 9.38024 5.43325 8.8944C5.00698 8.52536 4.75487 8.03384 4.7226 7.50978C4.69251 7.01606 4.86272 6.53833 5.20008 6.16391C5.91418 5.37517 7.26915 4.0764 7.28307 4.06307C7.65191 3.71018 7.66443 3.1247 7.31227 2.75512C6.95942 2.38603 6.37538 2.37191 6.00673 2.72539C6.00538 2.7267 6.0033 2.72869 6.00052 2.73136C5.88554 2.84176 4.5719 4.1031 3.83198 4.92144C3.15677 5.66722 2.8191 6.62712 2.8788 7.62228C2.94186 8.64832 3.41993 9.59712 4.22608 10.2942Z" fill="#FF00FF"/>
</g>
<defs>
<clipPath id="clip0_1406_3348">
<rect width="16" height="16" fill="white"/>
</clipPath>
</defs>
</svg>
