<svg width="16" height="16" viewBox="0 0 16 16" fill="none" xmlns="http://www.w3.org/2000/svg">
<g clip-path="url(#clip0_1_1152)">
<path fill-rule="evenodd" clip-rule="evenodd" d="M0.00799561 7.9999C0.00799561 3.58123 3.58696 0 8.00087 0C12.4146 0 15.993 3.58123 15.993 7.9999C15.993 12.4175 12.4146 16 8.00087 16C3.58696 16 0.00799561 12.4175 0.00799561 7.9999ZM10.022 13.2528C10.2129 13.0689 11.4604 11.8676 12.1747 11.079C12.8489 10.3327 13.1879 9.37272 13.127 8.37712C13.0645 7.35186 12.5864 6.40233 11.7799 5.70494C10.4479 4.55226 8.29535 4.57576 6.98126 5.75621C6.50191 6.18614 5.9604 6.77586 5.9374 6.80114C5.59185 7.17724 5.6174 7.76282 5.99246 8.10848C6.36811 8.4536 6.95146 8.42896 7.2979 8.05328C7.30254 8.04784 7.80192 7.50386 8.21399 7.13458C8.90591 6.51294 10.0122 6.6207 10.5724 7.10544C10.9991 7.47414 11.2513 7.96559 11.2832 8.48912C11.3133 8.98336 11.1435 9.46216 10.806 9.83512C10.1393 10.5726 8.91207 11.7547 8.74255 11.918C8.73063 11.9295 8.72303 11.9369 8.72303 11.9369C8.35447 12.2902 8.34111 12.875 8.69391 13.2449C8.87527 13.4346 9.11751 13.5307 9.36175 13.5307C9.59079 13.5307 9.82055 13.4454 9.99911 13.275C10.0025 13.2717 10.0102 13.2642 10.022 13.2528ZM4.22602 10.2942C4.88151 10.8617 5.73532 11.1449 6.59042 11.1449C7.47335 11.1449 8.35743 10.8432 9.02471 10.2432C9.46407 9.84816 9.95695 9.3192 10.0527 9.2164C10.0613 9.2072 10.0666 9.20144 10.0685 9.19944C10.4139 8.82336 10.3889 8.23736 10.0135 7.8921C9.63855 7.54594 9.05375 7.57003 8.70871 7.94653C8.70871 7.94653 8.70767 7.94766 8.70615 7.94928C8.66687 7.99176 8.18863 8.50912 7.79216 8.86592C7.10007 9.48632 5.99404 9.38024 5.43319 8.8944C5.00692 8.52536 4.75481 8.03384 4.72254 7.50978C4.69245 7.01606 4.86266 6.53833 5.20002 6.16391C5.91412 5.37517 7.26909 4.0764 7.283 4.06307C7.65184 3.71018 7.66437 3.1247 7.31221 2.75512C6.95936 2.38603 6.37532 2.37191 6.00667 2.72539C6.00532 2.7267 6.00324 2.72869 6.00046 2.73136C5.88548 2.84176 4.57184 4.1031 3.83192 4.92144C3.15671 5.66722 2.81904 6.62712 2.87874 7.62228C2.9418 8.64832 3.41987 9.59712 4.22602 10.2942Z" fill="#FF00FF"/>
</g>
<defs>
<clipPath id="clip0_1_1152">
<rect width="16" height="16" fill="white"/>
</clipPath>
</defs>
</svg>
