<svg width="16" height="16" viewBox="0 0 16 16" fill="none" xmlns="http://www.w3.org/2000/svg">
<g clip-path="url(#clip0_1406_3347)">
<path fill-rule="evenodd" clip-rule="evenodd" d="M8.00093 0C3.58702 0 0.00805664 3.58123 0.00805664 7.9999C0.00805664 12.4175 3.58702 16 8.00093 16C12.4147 16 15.9931 12.4175 15.9931 7.9999C15.9931 3.58123 12.4147 0 8.00093 0Z" fill="url(#paint0_linear_1406_3347)"/>
<path fill-rule="evenodd" clip-rule="evenodd" d="M12.1748 11.079C11.4163 11.9163 10.0569 13.219 9.99912 13.275C9.82064 13.4454 9.59088 13.5307 9.36184 13.5307C9.1176 13.5307 8.87536 13.4347 8.694 13.2449C8.34112 12.875 8.35456 12.2903 8.72312 11.9369C8.73656 11.9235 10.0925 10.6245 10.8061 9.83513C11.1435 9.46217 11.3134 8.98337 11.2833 8.48913C11.2513 7.9656 10.9992 7.47415 10.5725 7.10545C10.0122 6.62072 8.90592 6.51296 8.21408 7.13459C7.802 7.50388 7.30262 8.04785 7.29798 8.05329C6.95154 8.42897 6.36819 8.45361 5.99254 8.10849C5.61749 7.76284 5.59193 7.17725 5.93748 6.80116C5.96047 6.77588 6.50199 6.18615 6.98134 5.75622C8.29544 4.57577 10.448 4.55227 11.78 5.70496C12.5865 6.40234 13.0646 7.35188 13.127 8.37713C13.188 9.37273 12.849 10.3327 12.1748 11.079ZM6.59049 11.1449C5.7354 11.1449 4.88158 10.8617 4.2261 10.2943C3.41994 9.59713 2.94187 8.64833 2.87882 7.62229C2.81913 6.62713 3.15678 5.66723 3.832 4.92145C4.58981 4.08333 5.94942 2.78052 6.00675 2.7254C6.37539 2.37192 6.95944 2.38604 7.31229 2.75513C7.66445 3.12471 7.65192 3.7102 7.28308 4.06308C7.26917 4.07641 5.91419 5.37518 5.2001 6.16392C4.86273 6.53834 4.69253 7.01607 4.72262 7.5098C4.75489 8.03385 5.007 8.52537 5.43326 8.89441C5.99412 9.38025 7.10014 9.48633 7.79223 8.86593C8.20392 8.49545 8.70376 7.95188 8.7088 7.94654C9.05384 7.57004 9.63864 7.54595 10.0135 7.89212C10.3889 8.23737 10.414 8.82337 10.0686 9.19945C10.0458 9.22337 9.50352 9.81281 9.02472 10.2432C8.35752 10.8432 7.47342 11.1449 6.59049 11.1449Z" fill="white"/>
</g>
<defs>
<linearGradient id="paint0_linear_1406_3347" x1="7.99027" y1="0.207908" x2="8.00061" y2="16" gradientUnits="userSpaceOnUse">
<stop stop-color="#00AAFF"/>
<stop offset="1" stop-color="#2255FF"/>
</linearGradient>
<clipPath id="clip0_1406_3347">
<rect width="16" height="16" fill="white"/>
</clipPath>
</defs>
</svg>
