<svg width="16" height="16" viewBox="0 0 16 16" fill="none" xmlns="http://www.w3.org/2000/svg">
<g clip-path="url(#clip0_1_1154)">
<path fill-rule="evenodd" clip-rule="evenodd" d="M8.00087 0C3.58696 0 0.00799561 3.58123 0.00799561 7.9999C0.00799561 12.4175 3.58696 16 8.00087 16C12.4146 16 15.993 12.4175 15.993 7.9999C15.993 3.58123 12.4146 0 8.00087 0Z" fill="url(#paint0_linear_1_1154)"/>
<path fill-rule="evenodd" clip-rule="evenodd" d="M12.1748 11.079C11.4163 11.9163 10.0569 13.219 9.99912 13.275C9.82064 13.4454 9.59088 13.5307 9.36184 13.5307C9.1176 13.5307 8.87536 13.4346 8.694 13.2449C8.34112 12.875 8.35456 12.2902 8.72312 11.9369C8.73656 11.9234 10.0925 10.6245 10.8061 9.83512C11.1435 9.46216 11.3134 8.98336 11.2833 8.48912C11.2513 7.96559 10.9992 7.47413 10.5725 7.10544C10.0122 6.6207 8.90592 6.51294 8.21408 7.13457C7.802 7.50386 7.30262 8.04784 7.29798 8.05328C6.95154 8.42896 6.36819 8.4536 5.99254 8.10848C5.61749 7.76282 5.59193 7.17724 5.93748 6.80114C5.96047 6.77586 6.50199 6.18613 6.98134 5.7562C8.29544 4.57576 10.448 4.55225 11.78 5.70494C12.5865 6.40232 13.0646 7.35186 13.127 8.37712C13.188 9.37272 12.849 10.3327 12.1748 11.079ZM6.59049 11.1449C5.7354 11.1449 4.88158 10.8617 4.2261 10.2942C3.41994 9.59712 2.94187 8.64832 2.87882 7.62228C2.81913 6.62712 3.15678 5.66721 3.832 4.92144C4.58981 4.08332 5.94942 2.7805 6.00675 2.72539C6.37539 2.37191 6.95944 2.38603 7.31229 2.75512C7.66445 3.12469 7.65192 3.71018 7.28308 4.06307C7.26917 4.0764 5.91419 5.37516 5.2001 6.16391C4.86273 6.53832 4.69253 7.01605 4.72262 7.50978C4.75489 8.03384 5.007 8.52536 5.43326 8.8944C5.99412 9.38024 7.10014 9.48632 7.79223 8.86592C8.20392 8.49544 8.70376 7.95186 8.7088 7.94652C9.05384 7.57003 9.63864 7.54593 10.0135 7.8921C10.3889 8.23736 10.414 8.82336 10.0686 9.19944C10.0458 9.22336 9.50352 9.8128 9.02472 10.2432C8.35752 10.8432 7.47342 11.1449 6.59049 11.1449Z" fill="white"/>
</g>
<defs>
<linearGradient id="paint0_linear_1_1154" x1="7.99021" y1="0.207908" x2="8.00055" y2="16" gradientUnits="userSpaceOnUse">
<stop stop-color="#00AAFF"/>
<stop offset="1" stop-color="#2255FF"/>
</linearGradient>
<clipPath id="clip0_1_1154">
<rect width="16" height="16" fill="white"/>
</clipPath>
</defs>
</svg>
