<svg width="16" height="16" viewBox="0 0 16 16" fill="none" xmlns="http://www.w3.org/2000/svg">
<g clip-path="url(#clip0_348_3934)">
<path fill-rule="evenodd" clip-rule="evenodd" d="M8.00095 0C3.58702 0 0.00805664 3.58123 0.00805664 7.9999C0.00805664 12.4175 3.58702 16 8.00095 16C12.4147 16 15.9931 12.4175 15.9931 7.9999C15.9931 3.58123 12.4147 0 8.00095 0Z" fill="url(#paint0_linear_348_3934)"/>
<path fill-rule="evenodd" clip-rule="evenodd" d="M12.1747 11.0792C11.4162 11.9165 10.0568 13.2191 9.99903 13.2751C9.82053 13.4456 9.59072 13.5309 9.3617 13.5309C9.11749 13.5309 8.87524 13.4348 8.69388 13.2451C8.34103 12.8751 8.35445 12.2904 8.72299 11.937C8.73641 11.9236 10.0924 10.6246 10.806 9.83532C11.1434 9.46238 11.3133 8.98356 11.2832 8.48934C11.2512 7.96578 10.9991 7.47433 10.5723 7.10564C10.0122 6.6209 8.90583 6.51314 8.21394 7.13477C7.80188 7.50406 7.3025 8.04806 7.29786 8.05349C6.95142 8.42919 6.36807 8.45378 5.99242 8.1087C5.61736 7.76302 5.59181 7.17744 5.93736 6.80134C5.96035 6.77606 6.50187 6.18633 6.98122 5.7564C8.29534 4.57596 10.4479 4.55245 11.7799 5.70514C12.5863 6.40252 13.0644 7.35206 13.127 8.37734C13.1878 9.3729 12.8488 10.3329 12.1747 11.0792ZM6.59038 11.145C5.73528 11.145 4.88146 10.8619 4.22598 10.2945C3.41982 9.59729 2.94175 8.64855 2.8787 7.62248C2.819 6.62732 3.15666 5.66741 3.83188 4.92164C4.58969 4.08351 5.9493 2.7807 6.00663 2.72559C6.37527 2.37211 6.95931 2.38623 7.31217 2.75531C7.66433 3.1249 7.6518 3.71038 7.28296 4.06327C7.26905 4.0766 5.91407 5.37536 5.19998 6.16411C4.86262 6.53853 4.69241 7.01625 4.7225 7.50998C4.75477 8.03403 5.00688 8.52559 5.43314 8.89457C5.994 9.3804 7.10002 9.48648 7.79211 8.86613C8.20378 8.49566 8.70365 7.95206 8.70868 7.94672C9.05374 7.57023 9.63848 7.54613 10.0134 7.8923C10.3888 8.23759 10.4138 8.82356 10.0685 9.19966C10.0456 9.22356 9.5034 9.81299 9.02463 10.2434C8.35741 10.8434 7.4733 11.145 6.59038 11.145Z" fill="white"/>
</g>
<defs>
<linearGradient id="paint0_linear_348_3934" x1="7.99027" y1="0.207908" x2="8.00057" y2="16" gradientUnits="userSpaceOnUse">
<stop stop-color="#00AAFF"/>
<stop offset="1" stop-color="#2255FF"/>
</linearGradient>
<clipPath id="clip0_348_3934">
<rect width="16" height="16" fill="white"/>
</clipPath>
</defs>
</svg>
