<svg width="16" height="16" viewBox="0 0 16 16" fill="none" xmlns="http://www.w3.org/2000/svg">
<path fill-rule="evenodd" clip-rule="evenodd" d="M3.48387 1.47734L7.98387 1L12.4838 1.47734L15.9678 6.1698L7.98387 15.4981L0 6.1698L3.48387 1.47734Z" fill="#FDB300"/>
<path fill-rule="evenodd" clip-rule="evenodd" d="M3.23383 6.1698L7.98383 15.4982L0 6.1698H3.23383Z" fill="#EA6C00"/>
<path fill-rule="evenodd" clip-rule="evenodd" d="M12.7339 6.1698L7.98395 15.4982L15.9678 6.1698H12.7339Z" fill="#EA6C00"/>
<path fill-rule="evenodd" clip-rule="evenodd" d="M3.2338 6.1698H12.7338L7.98379 15.4982L3.2338 6.1698Z" fill="#FDAD00"/>
<path fill-rule="evenodd" clip-rule="evenodd" d="M7.9838 1L3.4838 1.47726L3.2338 6.16974L7.9838 1Z" fill="#FDD231"/>
<path fill-rule="evenodd" clip-rule="evenodd" d="M7.98398 1L12.484 1.47726L12.734 6.16974L7.98398 1Z" fill="#FDD231"/>
<path fill-rule="evenodd" clip-rule="evenodd" d="M15.9678 6.16975L12.4839 1.47726L12.7339 6.16975H15.9678Z" fill="#FDAD00"/>
<path fill-rule="evenodd" clip-rule="evenodd" d="M0 6.16975L3.48383 1.47726L3.23383 6.16975H0Z" fill="#FDAD00"/>
<path fill-rule="evenodd" clip-rule="evenodd" d="M7.98379 1L3.2338 6.16974H12.7338L7.98379 1Z" fill="#FEEEB7"/>
</svg>
