<svg width="16" height="16" viewBox="0 0 16 16" fill="none" xmlns="http://www.w3.org/2000/svg">
<path fill-rule="evenodd" clip-rule="evenodd" d="M8.03976 1.39197H7.96026L3.55834 1.8589L0 6.65166L8 15.9988L16 6.65166L12.4417 1.8589L8.03976 1.39197ZM7.04758 2.24635L3.96585 2.57265L1.23066 6.25662H3.36296L7.04758 2.24635ZM3.31885 7.05662H1.33742L6.22856 12.7709L3.31885 7.05662ZM4.16387 7.05662H11.8352L7.99937 14.5889L4.16387 7.05662ZM11.6142 6.25662H4.3858L7.99937 2.32329L11.6142 6.25662ZM12.681 7.05662L9.77312 12.7675L14.6613 7.05662H12.681ZM14.7682 6.25662H12.637L8.95232 2.24634L12.0336 2.57265L14.7682 6.25662Z" fill="#FF00FF"/>
</svg>
