<svg width="16" height="16" viewBox="0 0 16 16" fill="none" xmlns="http://www.w3.org/2000/svg">
<g clip-path="url(#clip0_1406_3344)">
<path fill-rule="evenodd" clip-rule="evenodd" d="M1.30955 7.09747C1.27016 7.3927 1.24983 7.69396 1.24983 7.99998C1.24983 11.7334 4.27639 14.76 8.0098 14.76C8.31588 14.76 8.61709 14.7397 8.91237 14.7002C9.51581 15.0254 10.2062 15.21 10.9398 15.21C13.3036 15.21 15.2198 13.2937 15.2198 10.93C15.2198 10.1965 15.0352 9.50607 14.7101 8.90263C14.7495 8.60735 14.7698 8.30599 14.7698 7.99998C14.7698 4.26653 11.7432 1.23998 8.0098 1.23998C7.7038 1.23998 7.40252 1.26032 7.10726 1.29971C6.5038 0.974516 5.81336 0.789978 5.0798 0.789978C2.71603 0.789978 0.799805 2.7062 0.799805 5.06998C0.799805 5.80354 0.984349 6.494 1.30955 7.09747ZM5.54481 7.16999C5.70855 7.4506 5.93431 7.69004 6.20481 7.86999L6.21481 7.82999C6.57653 8.06319 6.96 8.26079 7.35981 8.41999C7.80481 8.60999 8.15484 8.76503 8.3998 8.89503C8.60756 9.00023 8.79676 9.13871 8.9598 9.30503C9.08636 9.44023 9.1546 9.61983 9.1498 9.80503C9.15556 9.93071 9.13084 10.0559 9.07772 10.1699C9.0246 10.284 8.94468 10.3835 8.84484 10.46C8.58036 10.6389 8.26324 10.7234 7.94481 10.7C7.76491 10.7033 7.58527 10.6849 7.40981 10.645C7.26763 10.6151 7.12865 10.5715 6.99481 10.515C6.87343 10.4701 6.73184 10.4008 6.5555 10.3146C6.53572 10.3049 6.51549 10.2951 6.49481 10.285C6.32945 10.1989 6.14624 10.1526 5.95981 10.15C5.79308 10.1419 5.62981 10.1993 5.50481 10.31C5.4446 10.3666 5.39768 10.4359 5.36743 10.5129C5.33717 10.5898 5.32432 10.6725 5.32981 10.755C5.32678 10.9115 5.37219 11.0652 5.45981 11.195C5.57116 11.3327 5.71332 11.4423 5.87481 11.515C6.50518 11.788 7.18825 11.9177 7.87481 11.895C8.37692 11.905 8.87676 11.8237 9.3498 11.655C9.7498 11.5193 10.0988 11.2646 10.3498 10.925C10.5945 10.5719 10.719 10.1493 10.7048 9.71999C10.714 9.36951 10.6257 9.02335 10.4498 8.71999C10.2709 8.43079 10.0301 8.18495 9.74484 7.99999C9.38668 7.77212 9.00644 7.58115 8.6098 7.42999L8.47981 7.37999C8.05981 7.20999 7.76481 7.07499 7.55981 6.97499C7.37278 6.88833 7.20329 6.768 7.05981 6.61999C6.94253 6.49574 6.878 6.33084 6.87981 6.15999C6.8733 6.02865 6.90238 5.898 6.96399 5.78183C7.0256 5.66565 7.11744 5.56828 7.22981 5.49999C7.49683 5.34588 7.80168 5.26967 8.1098 5.27999C8.34756 5.2762 8.58476 5.3048 8.81484 5.36499C9.06212 5.43714 9.30428 5.52567 9.5398 5.62999C9.63716 5.67448 9.74276 5.69832 9.8498 5.69999C9.92628 5.70232 10.0024 5.68837 10.0731 5.65906C10.1438 5.62976 10.2074 5.58576 10.2598 5.52999C10.316 5.46877 10.3594 5.39705 10.3877 5.31896C10.416 5.24088 10.4287 5.15796 10.4248 5.07499C10.4269 4.91672 10.3699 4.76337 10.2648 4.64499C10.1272 4.49744 9.95548 4.38585 9.76484 4.31999C9.55484 4.24694 9.33908 4.19174 9.1198 4.15499C8.81228 4.10623 8.50124 4.08281 8.1898 4.08499C7.71475 4.08241 7.24281 4.16191 6.79481 4.31999C6.38241 4.45945 6.01358 4.7042 5.72481 5.02999C5.45036 5.35712 5.30459 5.7731 5.31481 6.19999C5.3066 6.53774 5.38583 6.87188 5.54481 7.16999Z" fill="#FF00FF"/>
</g>
<defs>
<clipPath id="clip0_1406_3344">
<rect width="16" height="16" fill="white"/>
</clipPath>
</defs>
</svg>
