<svg width="16" height="16" viewBox="0 0 16 16" fill="none" xmlns="http://www.w3.org/2000/svg">
<g clip-path="url(#clip0_1_1169)">
<path fill-rule="evenodd" clip-rule="evenodd" d="M1.30973 7.09748C1.27035 7.39272 1.25001 7.69398 1.25001 8C1.25001 11.7334 4.27657 14.76 8.00999 14.76C8.31607 14.76 8.61727 14.7397 8.91255 14.7002C9.51599 15.0254 10.2064 15.21 10.94 15.21C13.3037 15.21 15.22 13.2938 15.22 10.93C15.22 10.1965 15.0354 9.50608 14.7103 8.90264C14.7497 8.60736 14.77 8.306 14.77 8C14.77 4.26655 11.7434 1.23999 8.00999 1.23999C7.70398 1.23999 7.4027 1.26033 7.10744 1.29972C6.50399 0.974531 5.81354 0.789993 5.07999 0.789993C2.71621 0.789993 0.799988 2.70621 0.799988 5.07C0.799988 5.80356 0.984532 6.49402 1.30973 7.09748ZM5.545 7.17C5.70873 7.45062 5.93449 7.69006 6.205 7.87L6.215 7.83C6.57672 8.0632 6.96018 8.2608 7.36 8.42C7.805 8.61 8.15503 8.76504 8.39999 8.89504C8.60775 9.00024 8.79695 9.13872 8.95999 9.30504C9.08655 9.44024 9.15479 9.61984 9.14999 9.80504C9.15575 9.93072 9.13103 10.0559 9.07791 10.1699C9.02479 10.284 8.94487 10.3835 8.84503 10.46C8.58055 10.6389 8.26343 10.7234 7.945 10.7C7.76509 10.7034 7.58545 10.6849 7.41 10.645C7.26781 10.6151 7.12884 10.5715 6.995 10.515C6.87361 10.4701 6.73202 10.4008 6.55568 10.3146C6.5359 10.305 6.51568 10.2951 6.495 10.285C6.32964 10.1989 6.14642 10.1526 5.96 10.15C5.79327 10.1419 5.63 10.1994 5.505 10.31C5.44479 10.3666 5.39787 10.4359 5.36761 10.5129C5.33736 10.5898 5.32451 10.6725 5.33 10.755C5.32696 10.9115 5.37237 11.0652 5.46 11.195C5.57134 11.3327 5.7135 11.4423 5.875 11.515C6.50536 11.788 7.18844 11.9178 7.875 11.895C8.37711 11.905 8.87695 11.8237 9.34999 11.655C9.74999 11.5194 10.0989 11.2646 10.35 10.925C10.5947 10.5719 10.7192 10.1494 10.705 9.72C10.7141 9.36952 10.6259 9.02336 10.45 8.72C10.2711 8.4308 10.0303 8.18496 9.74503 8C9.38687 7.77214 9.00663 7.58116 8.60999 7.43L8.47999 7.38C8.05999 7.21 7.765 7.075 7.56 6.975C7.37296 6.88835 7.20348 6.76801 7.06 6.62C6.94272 6.49575 6.87819 6.33086 6.88 6.16C6.87348 6.02867 6.90256 5.89801 6.96417 5.78184C7.02578 5.66567 7.11762 5.56829 7.23 5.5C7.49701 5.3459 7.80187 5.26968 8.10999 5.28C8.34775 5.27621 8.58495 5.30481 8.81503 5.365C9.06231 5.43716 9.30447 5.52568 9.53999 5.63C9.63735 5.6745 9.74295 5.69834 9.84999 5.7C9.92647 5.70234 10.0025 5.68839 10.0733 5.65908C10.144 5.62977 10.2076 5.58577 10.26 5.53C10.3161 5.46879 10.3596 5.39707 10.3879 5.31898C10.4162 5.2409 10.4289 5.15798 10.425 5.075C10.4271 4.91674 10.3701 4.76339 10.265 4.645C10.1273 4.49746 9.95567 4.38587 9.76503 4.32C9.55503 4.24696 9.33927 4.19176 9.11999 4.155C8.81247 4.10624 8.50143 4.08283 8.18999 4.085C7.71493 4.08243 7.243 4.16192 6.795 4.32C6.3826 4.45947 6.01376 4.70421 5.725 5.03C5.45054 5.35714 5.30477 5.77312 5.315 6.2C5.30678 6.53776 5.38601 6.8719 5.545 7.17Z" fill="#FF00FF"/>
</g>
<defs>
<clipPath id="clip0_1_1169">
<rect width="16" height="16" fill="white"/>
</clipPath>
</defs>
</svg>
