<svg width="16" height="16" viewBox="0 0 16 16" fill="none" xmlns="http://www.w3.org/2000/svg">
<g clip-path="url(#clip0_348_3857)">
<path d="M1.69327 11.7962C2.62247 11.7962 3.37347 11.0446 3.37347 10.1146V8.43311H1.69327C0.764062 8.43311 0.0130615 9.1847 0.0130615 10.1146C0.0130615 11.0446 0.764062 11.7962 1.69327 11.7962Z" fill="#E01E5A"/>
<path d="M5.89376 8.43313C4.96456 8.43313 4.21356 9.18472 4.21356 10.1147V14.3185C4.21356 15.2484 4.96456 16 5.89376 16C6.82297 16 7.57397 15.2484 7.57397 14.3185V10.1147C7.57397 9.18472 6.82297 8.43313 5.89376 8.43313Z" fill="#E01E5A"/>
<path d="M4.21341 1.68153C4.21341 2.61147 4.96441 3.36306 5.89362 3.36306H7.57382V1.68153C7.57382 0.751594 6.82282 0 5.89362 0C4.96441 0 4.21341 0.751594 4.21341 1.68153Z" fill="#36C5F0"/>
<path d="M7.57365 5.89814C7.57365 4.96821 6.82265 4.21661 5.89344 4.21661H1.6802C0.751 4.21661 0 4.96821 0 5.89814C0 6.82808 0.751 7.57968 1.6802 7.57968H5.89344C6.82265 7.57968 7.57365 6.82808 7.57365 5.89814Z" fill="#36C5F0"/>
<path d="M10.1066 7.57963C11.0358 7.57963 11.7868 6.82804 11.7868 5.8981V1.68153C11.7868 0.751594 11.0358 0 10.1066 0C9.17739 0 8.42639 0.751594 8.42639 1.68153V5.8981C8.42639 6.82804 9.17739 7.57963 10.1066 7.57963Z" fill="#2EB67D"/>
<path d="M14.3071 4.21661C13.3779 4.21661 12.6269 4.96821 12.6269 5.89814V7.57968H14.3071C15.2363 7.57968 15.9873 6.82808 15.9873 5.89814C15.9873 4.96821 15.2363 4.21661 14.3071 4.21661Z" fill="#2EB67D"/>
<path d="M8.42639 10.1146C8.42639 11.0446 9.17739 11.7962 10.1066 11.7962H14.3198C15.249 11.7962 16 11.0446 16 10.1146C16 9.1847 15.249 8.43311 14.3198 8.43311H10.1066C9.17739 8.43311 8.42639 9.1847 8.42639 10.1146Z" fill="#ECB22E"/>
<path d="M11.7868 14.3185C11.7868 13.3885 11.0358 12.6369 10.1066 12.6369H8.42641V14.3185C8.42641 15.2484 9.17741 16 10.1066 16C11.0358 16 11.7868 15.2484 11.7868 14.3185Z" fill="#ECB22E"/>
</g>
<defs>
<clipPath id="clip0_348_3857">
<rect width="16" height="16" fill="white"/>
</clipPath>
</defs>
</svg>
