<svg width="16" height="16" viewBox="0 0 16 16" fill="none" xmlns="http://www.w3.org/2000/svg">
<g clip-path="url(#clip0_1406_3342)">
<mask id="mask0_1406_3342" style="mask-type:luminance" maskUnits="userSpaceOnUse" x="0" y="0" width="16" height="16">
<path d="M16 0H0V16H16V0Z" fill="white"/>
</mask>
<g mask="url(#mask0_1406_3342)">
<path fill-rule="evenodd" clip-rule="evenodd" d="M5.89362 3.36306C4.96442 3.36306 4.21342 2.61146 4.21342 1.68153C4.21342 0.751593 4.96442 0 5.89362 0C6.82282 0 7.57382 0.751593 7.57382 1.68153V3.36306H5.89362ZM5.89343 4.2166C6.82263 4.2166 7.57363 4.96819 7.57363 5.89813C7.57363 6.82806 6.82263 7.57966 5.89343 7.57966H1.6802C0.750998 7.57966 0 6.82806 0 5.89813C0 4.96819 0.750998 4.2166 1.6802 4.2166H5.89343ZM3.3734 10.1146C3.3734 11.0446 2.6224 11.7962 1.6932 11.7962C0.763997 11.7962 0.0129986 11.0446 0.0129986 10.1146C0.0129986 9.18472 0.763997 8.43312 1.6932 8.43312H3.3734V10.1146ZM4.21349 10.1146C4.21349 9.18472 4.96449 8.43312 5.89369 8.43312C6.82289 8.43312 7.57389 9.18472 7.57389 10.1146V14.3185C7.57389 15.2484 6.82289 16 5.89369 16C4.96449 16 4.21349 15.2484 4.21349 14.3185V10.1146ZM10.1066 7.57961C11.0358 7.57961 11.7868 6.82802 11.7868 5.89809V1.68153C11.7868 0.751592 11.0358 0 10.1066 0C9.17736 0 8.4264 0.751592 8.4264 1.68153V5.89809C8.4264 6.82802 9.17736 7.57961 10.1066 7.57961ZM14.307 4.2166C13.3778 4.2166 12.6269 4.96819 12.6269 5.89813V7.57966H14.307C15.2362 7.57966 15.9873 6.82806 15.9873 5.89813C15.9873 4.96819 15.2362 4.2166 14.307 4.2166ZM10.1066 11.7962C9.17736 11.7962 8.4264 11.0446 8.4264 10.1146C8.4264 9.18472 9.17736 8.43312 10.1066 8.43312H14.3198C15.249 8.43312 16 9.18472 16 10.1146C16 11.0446 15.249 11.7962 14.3198 11.7962H10.1066ZM10.1066 12.6369C11.0358 12.6369 11.7868 13.3885 11.7868 14.3184C11.7868 15.2484 11.0358 16 10.1066 16C9.17736 16 8.4264 15.2484 8.4264 14.3184V12.6369H10.1066Z" fill="#FF00FF"/>
</g>
</g>
<defs>
<clipPath id="clip0_1406_3342">
<rect width="16" height="16" fill="white"/>
</clipPath>
</defs>
</svg>
