<svg width="16" height="16" viewBox="0 0 16 16" fill="none" xmlns="http://www.w3.org/2000/svg">
<g clip-path="url(#clip0_1406_3341)">
<mask id="mask0_1406_3341" style="mask-type:luminance" maskUnits="userSpaceOnUse" x="0" y="0" width="16" height="16">
<path d="M16 0H0V16H16V0Z" fill="white"/>
</mask>
<g mask="url(#mask0_1406_3341)">
<path fill-rule="evenodd" clip-rule="evenodd" d="M1.69339 11.7961C2.62259 11.7961 3.37359 11.0445 3.37359 10.1146V8.43311H1.69339C0.764184 8.43311 0.0131836 9.18471 0.0131836 10.1146C0.0131836 11.0445 0.764184 11.7961 1.69339 11.7961ZM5.89388 8.43311C4.96468 8.43311 4.21368 9.18471 4.21368 10.1147V14.3185C4.21368 15.2485 4.96468 16.0001 5.89388 16.0001C6.82309 16.0001 7.57409 15.2485 7.57409 14.3185V10.1147C7.57409 9.18471 6.82309 8.43311 5.89388 8.43311Z" fill="#E01E5A"/>
<path fill-rule="evenodd" clip-rule="evenodd" d="M4.21342 1.68154C4.21342 2.61147 4.96441 3.36306 5.89362 3.36306H7.57382V1.68154C7.57382 0.751594 6.82282 0 5.89362 0C4.96441 0 4.21342 0.751594 4.21342 1.68154ZM7.57365 5.89814C7.57365 4.96821 6.82265 4.21662 5.89344 4.21662H1.68021C0.751 4.21662 0 4.96821 0 5.89814C0 6.82808 0.751 7.57967 1.68021 7.57967H5.89344C6.82265 7.57967 7.57365 6.82808 7.57365 5.89814Z" fill="#36C5F0"/>
<path fill-rule="evenodd" clip-rule="evenodd" d="M10.1064 7.57963C11.0356 7.57963 11.7867 6.82804 11.7867 5.8981V1.68153C11.7867 0.751594 11.0356 0 10.1064 0C9.17723 0 8.42627 0.751594 8.42627 1.68153V5.8981C8.42627 6.82804 9.17723 7.57963 10.1064 7.57963ZM14.3069 4.21662C13.3777 4.21662 12.6267 4.96821 12.6267 5.89814V7.57967H14.3069C15.2362 7.57967 15.9871 6.82808 15.9871 5.89814C15.9871 4.96821 15.2362 4.21662 14.3069 4.21662Z" fill="#2EB67D"/>
<path fill-rule="evenodd" clip-rule="evenodd" d="M8.42627 10.1146C8.42627 11.0445 9.17723 11.7961 10.1064 11.7961H14.3197C15.2489 11.7961 15.9999 11.0445 15.9999 10.1146C15.9999 9.18471 15.2489 8.43311 14.3197 8.43311H10.1064C9.17723 8.43311 8.42627 9.18471 8.42627 10.1146ZM11.7867 14.3185C11.7867 13.3885 11.0356 12.6369 10.1064 12.6369H8.42627V14.3185C8.42627 15.2484 9.17723 16 10.1064 16C11.0356 16 11.7867 15.2484 11.7867 14.3185Z" fill="#ECB22E"/>
</g>
</g>
<defs>
<clipPath id="clip0_1406_3341">
<rect width="16" height="16" fill="white"/>
</clipPath>
</defs>
</svg>
