<svg width="16" height="16" viewBox="0 0 16 16" fill="none" xmlns="http://www.w3.org/2000/svg">
<g clip-path="url(#clip0_1_1189)">
<mask id="mask0_1_1189" style="mask-type:luminance" maskUnits="userSpaceOnUse" x="0" y="0" width="16" height="16">
<path d="M16 0H0V16H16V0Z" fill="white"/>
</mask>
<g mask="url(#mask0_1_1189)">
<path fill-rule="evenodd" clip-rule="evenodd" d="M1.69326 11.7962C2.62247 11.7962 3.37347 11.0446 3.37347 10.1146V8.43312H1.69326C0.764062 8.43312 0.0130615 9.18472 0.0130615 10.1146C0.0130615 11.0446 0.764062 11.7962 1.69326 11.7962ZM5.89376 8.43312C4.96456 8.43312 4.21356 9.18472 4.21356 10.1147V14.3185C4.21356 15.2485 4.96456 16.0001 5.89376 16.0001C6.82297 16.0001 7.57397 15.2485 7.57397 14.3185V10.1147C7.57397 9.18472 6.82297 8.43312 5.89376 8.43312Z" fill="#E01E5A"/>
<path fill-rule="evenodd" clip-rule="evenodd" d="M4.21342 1.68154C4.21342 2.61147 4.96441 3.36306 5.89362 3.36306H7.57382V1.68154C7.57382 0.751594 6.82282 0 5.89362 0C4.96441 0 4.21342 0.751594 4.21342 1.68154ZM7.57365 5.89814C7.57365 4.96821 6.82265 4.21662 5.89344 4.21662H1.68021C0.751 4.21662 0 4.96821 0 5.89814C0 6.82808 0.751 7.57967 1.68021 7.57967H5.89344C6.82265 7.57967 7.57365 6.82808 7.57365 5.89814Z" fill="#36C5F0"/>
<path fill-rule="evenodd" clip-rule="evenodd" d="M10.1066 7.57963C11.0358 7.57963 11.7868 6.82804 11.7868 5.8981V1.68153C11.7868 0.751594 11.0358 0 10.1066 0C9.17735 0 8.42639 0.751594 8.42639 1.68153V5.8981C8.42639 6.82804 9.17735 7.57963 10.1066 7.57963ZM14.307 4.21662C13.3778 4.21662 12.6269 4.96821 12.6269 5.89814V7.57967H14.307C15.2363 7.57967 15.9873 6.82808 15.9873 5.89814C15.9873 4.96821 15.2363 4.21662 14.307 4.21662Z" fill="#2EB67D"/>
<path fill-rule="evenodd" clip-rule="evenodd" d="M8.42639 10.1146C8.42639 11.0446 9.17735 11.7962 10.1066 11.7962H14.3198C15.249 11.7962 16 11.0446 16 10.1146C16 9.18472 15.249 8.43312 14.3198 8.43312H10.1066C9.17735 8.43312 8.42639 9.18472 8.42639 10.1146ZM11.7868 14.3185C11.7868 13.3886 11.0358 12.637 10.1066 12.637H8.42639V14.3185C8.42639 15.2484 9.17735 16 10.1066 16C11.0358 16 11.7868 15.2484 11.7868 14.3185Z" fill="#ECB22E"/>
</g>
</g>
<defs>
<clipPath id="clip0_1_1189">
<rect width="16" height="16" fill="white"/>
</clipPath>
</defs>
</svg>
