<svg width="16" height="16" viewBox="0 0 16 16" fill="none" xmlns="http://www.w3.org/2000/svg">
<path fill-rule="evenodd" clip-rule="evenodd" d="M6.71264 11.2187L6.62069 9.43752L6.71264 5.03125C6.71264 4.876 6.83623 4.75 6.9885 4.75C7.14078 4.75 7.26437 4.876 7.26437 5.03125L7.35632 9.43752L7.26437 11.2187C7.26437 11.374 7.14078 11.5 6.9885 11.5C6.83623 11.5 6.71264 11.374 6.71264 11.2187ZM5.60919 11.2187L5.51724 9.43752L5.60919 6.15625C5.60919 6.001 5.73278 5.875 5.88506 5.875C6.03734 5.875 6.16092 6.001 6.16092 6.15625L6.25287 9.43752L6.16092 11.2187C6.16092 11.374 6.03734 11.5 5.88506 11.5C5.73278 11.5 5.60919 11.374 5.60919 11.2187ZM4.50574 11.2187L4.41379 9.43752L4.50574 5.78125C4.50574 5.626 4.62934 5.5 4.78161 5.5C4.93389 5.5 5.05747 5.626 5.05747 5.78125L5.14942 9.43752L5.05747 11.2187C5.05747 11.374 4.93389 11.5 4.78161 11.5C4.62934 11.5 4.50574 11.374 4.50574 11.2187ZM3.4023 11.2187L3.31034 9.43752L3.4023 6.53125C3.4023 6.376 3.52589 6.25 3.67816 6.25C3.83044 6.25 3.95402 6.376 3.95402 6.53125L4.04598 9.43752L3.95402 11.2187C3.95402 11.374 3.83044 11.5 3.67816 11.5C3.52589 11.5 3.4023 11.374 3.4023 11.2187ZM2.29885 11.2187L2.2069 9.43752L2.29885 8.03128C2.29885 7.876 2.42244 7.75 2.57471 7.75C2.72699 7.75 2.85058 7.876 2.85058 8.03128L2.94253 9.43752L2.85058 11.2187C2.85058 11.374 2.72699 11.5 2.57471 11.5C2.42244 11.5 2.29885 11.374 2.29885 11.2187ZM1.1954 11.2187L1.10345 9.43752L1.1954 7.65625C1.1954 7.501 1.31899 7.375 1.47126 7.375C1.62354 7.375 1.74713 7.501 1.74713 7.65625L1.83908 9.43752L1.74713 11.2187C1.74713 11.374 1.62354 11.5 1.47126 11.5C1.31899 11.5 1.1954 11.374 1.1954 11.2187ZM0.0919544 10.4687L0 9.43752L0.0919544 8.40624C0.0919544 8.25096 0.21554 8.12496 0.367816 8.12496C0.520092 8.12496 0.643678 8.25096 0.643678 8.40624L0.735632 9.43752L0.643678 10.4687C0.643678 10.624 0.520092 10.75 0.367816 10.75C0.21554 10.75 0.0919544 10.624 0.0919544 10.4687ZM13.0098 7.14638C13.2533 7.05208 13.5172 7 13.7931 7C15.0119 7 16 8.00736 16 9.25C16 10.4926 15.0119 11.5 13.7931 11.5H8.27608C7.97126 11.5 7.72414 11.2473 7.72414 10.937V4.9375C7.72414 4 9.37928 4 9.37928 4C11.2091 4 12.7266 5.36234 13.0098 7.14638Z" fill="#FF00FF"/>
</svg>
