<svg width="16" height="16" viewBox="0 0 16 16" fill="none" xmlns="http://www.w3.org/2000/svg">
<g clip-path="url(#clip0_1_1208)">
<path d="M7.99969 0.0263824C3.59502 0.0263824 0.0241699 3.59714 0.0241699 8.00184C0.0241699 12.4066 3.59502 15.9771 7.99969 15.9771C12.4048 15.9771 15.9753 12.4066 15.9753 8.00184C15.9753 3.59743 12.4049 0.0263824 7.99969 0.0263824Z" fill="#1ED760"/>
<path d="M11.6572 11.5292C11.5144 11.7635 11.2076 11.8378 10.9734 11.694C9.10083 10.5502 6.74348 10.2911 3.96729 10.9254C3.69977 10.9864 3.43309 10.8187 3.37214 10.5511C3.31091 10.2835 3.47786 10.0169 3.74605 9.95592C6.78414 9.26152 9.39011 9.56064 11.4924 10.8454C11.7268 10.9892 11.801 11.295 11.6572 11.5292ZM12.6334 9.35728C12.4534 9.65016 12.0705 9.74256 11.7781 9.56256C9.63435 8.24456 6.36643 7.86294 3.83072 8.63264C3.50186 8.732 3.15453 8.54664 3.05472 8.2184C2.95567 7.88951 3.14109 7.54284 3.46938 7.44284C6.36586 6.56399 9.96675 6.9897 12.4286 8.50256C12.721 8.68256 12.8134 9.06528 12.6334 9.35728ZM12.7172 7.09599C10.1468 5.56923 5.90577 5.42884 3.45157 6.1737C3.05748 6.29323 2.64072 6.07075 2.52129 5.67665C2.40186 5.28237 2.62414 4.86589 3.01853 4.74608C5.83577 3.89084 10.5191 4.05608 13.4785 5.81294C13.8338 6.02332 13.95 6.48113 13.7395 6.83513C13.53 7.1896 13.0705 7.30647 12.7172 7.09599Z" fill="black"/>
</g>
<defs>
<clipPath id="clip0_1_1208">
<rect width="16" height="16" fill="white"/>
</clipPath>
</defs>
</svg>
