<svg width="16" height="16" viewBox="0 0 16 16" fill="none" xmlns="http://www.w3.org/2000/svg">
<g clip-path="url(#clip0_1406_3338)">
<path d="M7.99994 0.0263672C3.59528 0.0263672 0.0244141 3.59713 0.0244141 8.00176C0.0244141 12.4066 3.59528 15.9771 7.99994 15.9771C12.4051 15.9771 15.9756 12.4066 15.9756 8.00176C15.9756 3.59742 12.4052 0.0263672 7.99994 0.0263672ZM11.6575 11.5292C11.5146 11.7635 11.208 11.8378 10.9736 11.694C9.10108 10.5502 6.74375 10.2911 3.96756 10.9254C3.70004 10.9864 3.43336 10.8187 3.37241 10.5511C3.31118 10.2835 3.47813 10.0169 3.74632 9.95592C6.78441 9.26152 9.39044 9.56064 11.4927 10.8454C11.727 10.9892 11.8012 11.295 11.6575 11.5292ZM12.6336 9.35736C12.4536 9.65016 12.0708 9.74256 11.7784 9.56256C9.6346 8.24456 6.3667 7.86294 3.83099 8.63264C3.50213 8.732 3.1548 8.54664 3.05499 8.2184C2.95594 7.88951 3.14136 7.54284 3.46965 7.44284C6.36613 6.56398 9.967 6.9897 12.4289 8.50256C12.7212 8.68256 12.8136 9.06536 12.6336 9.35736ZM12.7175 7.09598C10.147 5.56922 5.90604 5.42884 3.45184 6.1737C3.05775 6.29322 2.64099 6.07075 2.52156 5.67666C2.40213 5.28237 2.62441 4.86589 3.0188 4.74608C5.83604 3.89084 10.5194 4.05608 13.4788 5.81294C13.834 6.02332 13.9502 6.48113 13.7397 6.83513C13.5302 7.18961 13.0708 7.30646 12.7175 7.09598Z" fill="#FF00FF"/>
</g>
<defs>
<clipPath id="clip0_1406_3338">
<rect width="16" height="16" fill="white"/>
</clipPath>
</defs>
</svg>
