<svg width="16" height="16" viewBox="0 0 16 16" fill="none" xmlns="http://www.w3.org/2000/svg">
<g clip-path="url(#clip0_348_3795)">
<path d="M7.99976 0.0263672C3.59509 0.0263672 0.024231 3.59713 0.024231 8.0018C0.024231 12.4067 3.59509 15.9771 7.99976 15.9771C12.4049 15.9771 15.9754 12.4067 15.9754 8.0018C15.9754 3.59741 12.4049 0.0267481 7.99966 0.0267481L7.99976 0.0263672ZM11.6573 11.5292C11.5144 11.7635 11.2078 11.8378 10.9735 11.694C9.1009 10.5502 6.74356 10.2911 3.96737 10.9254C3.69985 10.9864 3.43318 10.8187 3.37223 10.5511C3.31099 10.2835 3.47795 10.0168 3.74614 9.95589C6.78423 9.26151 9.39023 9.56065 11.4925 10.8454C11.7268 10.9892 11.8011 11.2949 11.6573 11.5292ZM12.6335 9.35732C12.4535 9.65018 12.0706 9.74256 11.7782 9.56256C9.63442 8.24456 6.36652 7.86294 3.8308 8.63265C3.50195 8.73199 3.15461 8.54665 3.0548 8.21837C2.95575 7.88951 3.14118 7.54284 3.46947 7.44284C6.36595 6.56399 9.9668 6.9897 12.4287 8.50256C12.7211 8.68256 12.8135 9.06541 12.6335 9.35742V9.35732ZM12.7173 7.09599C10.1468 5.56922 5.90585 5.42884 3.45166 6.1737C3.05756 6.29322 2.6408 6.07075 2.52137 5.67665C2.40195 5.28237 2.62423 4.86589 3.01861 4.74608C5.83585 3.89084 10.5192 4.05608 13.4786 5.81294C13.8338 6.02332 13.95 6.48113 13.7396 6.83513C13.53 7.18961 13.071 7.30646 12.7177 7.09599H12.7173Z" fill="#FF00FF"/>
</g>
<defs>
<clipPath id="clip0_348_3795">
<rect width="16" height="16" fill="white"/>
</clipPath>
</defs>
</svg>
