<svg width="16" height="16" viewBox="0 0 16 16" fill="none" xmlns="http://www.w3.org/2000/svg">
<g clip-path="url(#clip0_1406_3337)">
<path d="M7.99994 0.0263672C3.59527 0.0263672 0.0244141 3.59713 0.0244141 8.00182C0.0244141 12.4066 3.59527 15.9771 7.99994 15.9771C12.4051 15.9771 15.9756 12.4066 15.9756 8.00182C15.9756 3.59741 12.4052 0.0263672 7.99994 0.0263672Z" fill="#1ED760"/>
<path d="M11.6575 11.5292C11.5146 11.7635 11.2079 11.8378 10.9736 11.694C9.10108 10.5502 6.74372 10.2911 3.96753 10.9254C3.70001 10.9864 3.43334 10.8187 3.37239 10.5511C3.31116 10.2835 3.47811 10.0169 3.74629 9.95591C6.78439 9.26151 9.39036 9.56063 11.4927 10.8454C11.727 10.9892 11.8012 11.295 11.6575 11.5292ZM12.6336 9.35727C12.4536 9.65015 12.0708 9.74255 11.7784 9.56255C9.6346 8.24455 6.36667 7.86293 3.83096 8.63263C3.50211 8.73199 3.15477 8.54663 3.05496 8.21839C2.95592 7.88951 3.14134 7.54283 3.46963 7.44283C6.36611 6.56398 9.967 6.98969 12.4288 8.50255C12.7212 8.68255 12.8136 9.06527 12.6336 9.35727ZM12.7175 7.09598C10.147 5.56922 5.90601 5.42883 3.45182 6.17369C3.05772 6.29322 2.64096 6.07074 2.52153 5.67664C2.40211 5.28236 2.62439 4.86588 3.01877 4.74607C5.83601 3.89083 10.5193 4.05607 13.4788 5.81293C13.834 6.02331 13.9502 6.48112 13.7397 6.83512C13.5302 7.18959 13.0708 7.30646 12.7175 7.09598Z" fill="black"/>
</g>
<defs>
<clipPath id="clip0_1406_3337">
<rect width="16" height="16" fill="white"/>
</clipPath>
</defs>
</svg>
