<svg width="16" height="16" viewBox="0 0 16 16" fill="none" xmlns="http://www.w3.org/2000/svg">
<g clip-path="url(#clip0_1_1206)">
<path d="M7.99969 0.0263672C3.59503 0.0263672 0.0241699 3.59713 0.0241699 8.00176C0.0241699 12.4066 3.59503 15.9771 7.99969 15.9771C12.4048 15.9771 15.9753 12.4066 15.9753 8.00176C15.9753 3.59742 12.4049 0.0263672 7.99969 0.0263672ZM11.6572 11.5292C11.5144 11.7635 11.2077 11.8378 10.9734 11.694C9.10083 10.5502 6.7435 10.2911 3.96731 10.9254C3.69979 10.9864 3.43312 10.8187 3.37217 10.5511C3.31094 10.2835 3.47789 10.0169 3.74607 9.95592C6.78417 9.26152 9.39019 9.56064 11.4924 10.8454C11.7268 10.9892 11.801 11.295 11.6572 11.5292ZM12.6334 9.35736C12.4534 9.65016 12.0705 9.74256 11.7782 9.56256C9.63435 8.24456 6.36646 7.86294 3.83074 8.63264C3.50189 8.732 3.15455 8.54664 3.05474 8.2184C2.9557 7.88951 3.14112 7.54284 3.46941 7.44284C6.36589 6.56398 9.96675 6.9897 12.4287 8.50256C12.721 8.68256 12.8134 9.06536 12.6334 9.35736ZM12.7172 7.09598C10.1468 5.56922 5.90579 5.42884 3.4516 6.1737C3.0575 6.29322 2.64074 6.07075 2.52131 5.67666C2.40189 5.28237 2.62417 4.86589 3.01855 4.74608C5.83579 3.89084 10.5192 4.05608 13.4785 5.81294C13.8338 6.02332 13.95 6.48113 13.7395 6.83513C13.53 7.18961 13.0705 7.30646 12.7172 7.09598Z" fill="#FF00FF"/>
</g>
<defs>
<clipPath id="clip0_1_1206">
<rect width="16" height="16" fill="white"/>
</clipPath>
</defs>
</svg>
