<svg width="16" height="16" viewBox="0 0 16 16" fill="none" xmlns="http://www.w3.org/2000/svg">
<g clip-path="url(#clip0_1406_3336)">
<mask id="mask0_1406_3336" style="mask-type:luminance" maskUnits="userSpaceOnUse" x="0" y="0" width="16" height="16">
<path d="M16 0H0V16H16V0Z" fill="white"/>
</mask>
<g mask="url(#mask0_1406_3336)">
<path fill-rule="evenodd" clip-rule="evenodd" d="M11.5528 11.4081L4.57098 9.94066L4.86447 8.54426L11.8463 10.0123L11.5528 11.4081ZM11.9624 9.6097L5.49487 6.59753L6.09722 5.30404L12.5649 8.31618L11.9624 9.6097ZM12.7675 7.9904L7.28448 3.42448L8.19762 2.32807L13.6807 6.89386L12.7675 7.9904ZM9.67874 0.90108L10.8238 0.0494385L15.0817 5.77458L13.9367 6.62609L9.67874 0.90108ZM11.5511 13.2063H4.44331V11.7848H11.5511V13.2063ZM14.3941 10.3632H12.9726V14.6279H3.02166V10.3632H1.6001V16.0495H14.3941V10.3632Z" fill="#FF00FF"/>
</g>
</g>
<defs>
<clipPath id="clip0_1406_3336">
<rect width="16" height="16" fill="white"/>
</clipPath>
</defs>
</svg>
