<svg width="16" height="16" viewBox="0 0 16 16" fill="none" xmlns="http://www.w3.org/2000/svg">
<g clip-path="url(#clip0_348_3856)">
<path fill-rule="evenodd" clip-rule="evenodd" d="M12.9725 10.3633H14.394V16.0495H1.59998V10.3633H3.02154V14.628H12.9725V10.3633Z" fill="#BBBBBB"/>
<path d="M4.57091 9.94053L11.5527 11.408L11.8462 10.0123L4.86439 8.54417L4.57091 9.94053ZM5.49479 6.59741L11.9624 9.60957L12.5649 8.31608L6.09714 5.30392L5.49479 6.59741ZM7.2844 3.42436L12.7675 7.99028L13.6807 6.89374L8.19756 2.32795L7.2844 3.42436ZM10.8237 0.0493164L9.6787 0.90096L13.9367 6.62597L15.0817 5.77446L10.8237 0.0493164ZM4.44324 13.2062H11.551V11.7847H4.44324V13.2062Z" fill="#F58025"/>
</g>
<defs>
<clipPath id="clip0_348_3856">
<rect width="16" height="16" fill="white"/>
</clipPath>
</defs>
</svg>
