<svg width="16" height="16" viewBox="0 0 16 16" fill="none" xmlns="http://www.w3.org/2000/svg">
<g clip-path="url(#clip0_1_1221)">
<mask id="mask0_1_1221" style="mask-type:luminance" maskUnits="userSpaceOnUse" x="0" y="0" width="16" height="16">
<path d="M16 0H0V16H16V0Z" fill="white"/>
</mask>
<g mask="url(#mask0_1_1221)">
<path fill-rule="evenodd" clip-rule="evenodd" d="M12.9725 10.3632H14.394V16.0494H1.60001V10.3632H3.02157V14.6278H12.9725V10.3632Z" fill="#BBBBBB"/>
<path d="M4.57084 9.94064L11.5526 11.4081L11.8461 10.0123L4.86433 8.54424L4.57084 9.94064ZM5.49473 6.59751L11.9623 9.60968L12.5648 8.31616L6.09708 5.30402L5.49473 6.59751ZM7.28434 3.42446L12.7674 7.99038L13.6806 6.89384L8.19753 2.32805L7.28434 3.42446ZM10.8236 0.0494156L9.67865 0.901058L13.9366 6.62607L15.0816 5.77455L10.8236 0.0494156ZM4.44318 13.2063H11.551V11.7848H4.44318V13.2063Z" fill="#F58025"/>
</g>
</g>
<defs>
<clipPath id="clip0_1_1221">
<rect width="16" height="16" fill="white"/>
</clipPath>
</defs>
</svg>
