<svg width="16" height="16" viewBox="0 0 16 16" fill="none" xmlns="http://www.w3.org/2000/svg">
<g clip-path="url(#clip0_1_1215)">
<mask id="mask0_1_1215" style="mask-type:luminance" maskUnits="userSpaceOnUse" x="0" y="0" width="16" height="16">
<path d="M16 0H0V16H16V0Z" fill="white"/>
</mask>
<g mask="url(#mask0_1_1215)">
<path fill-rule="evenodd" clip-rule="evenodd" d="M11.5527 11.4081L4.57088 9.94064L4.86437 8.54424L11.8462 10.0123L11.5527 11.4081ZM11.9623 9.60968L5.49477 6.59751L6.09712 5.30402L12.5648 8.31616L11.9623 9.60968ZM12.7674 7.99038L7.28438 3.42446L8.19752 2.32805L13.6806 6.89384L12.7674 7.99038ZM9.67864 0.901058L10.8237 0.0494156L15.0816 5.77455L13.9366 6.62607L9.67864 0.901058ZM11.551 13.2063H4.44321V11.7848H11.551V13.2063ZM14.394 10.3632H12.9725V14.6278H3.02156V10.3632H1.6V16.0494H14.394V10.3632Z" fill="#FF00FF"/>
</g>
</g>
<defs>
<clipPath id="clip0_1_1215">
<rect width="16" height="16" fill="white"/>
</clipPath>
</defs>
</svg>
