<svg width="16" height="16" viewBox="0 0 16 16" fill="none" xmlns="http://www.w3.org/2000/svg">
<g clip-path="url(#clip0_348_3869)">
<path d="M11.5527 11.408L4.57089 9.94053L4.86437 8.54417L11.8462 10.0123L11.5527 11.408Z" fill="#FF00FF"/>
<path d="M11.9624 9.60957L5.49477 6.59741L6.09713 5.30392L12.5648 8.31608L11.9624 9.60957Z" fill="#FF00FF"/>
<path d="M12.7675 7.99028L7.28439 3.42436L8.19755 2.32795L13.6806 6.89374L12.7675 7.99028Z" fill="#FF00FF"/>
<path d="M9.67868 0.90096L10.8237 0.0493164L15.0816 5.77446L13.9366 6.62597L9.67868 0.90096Z" fill="#FF00FF"/>
<path d="M11.551 13.2062H4.44322V11.7847H11.551V13.2062Z" fill="#FF00FF"/>
<path d="M14.394 10.3631H12.9725V14.6278H3.02157V10.3631H1.60001V16.0493H14.394V10.3631Z" fill="#FF00FF"/>
</g>
<defs>
<clipPath id="clip0_348_3869">
<rect width="16" height="16" fill="white"/>
</clipPath>
</defs>
</svg>
