<svg width="16" height="16" viewBox="0 0 16 16" fill="none" xmlns="http://www.w3.org/2000/svg">
<g clip-path="url(#clip0_1406_3335)">
<mask id="mask0_1406_3335" style="mask-type:luminance" maskUnits="userSpaceOnUse" x="0" y="0" width="16" height="16">
<path d="M16 0H0V16H16V0Z" fill="white"/>
</mask>
<g mask="url(#mask0_1406_3335)">
<path fill-rule="evenodd" clip-rule="evenodd" d="M12.9726 10.3632H14.3941V16.0495H1.6001V10.3632H3.02166V14.6279H12.9726V10.3632Z" fill="#BBBBBB"/>
<path d="M4.57102 9.94067L11.5528 11.4081L11.8463 10.0123L4.86451 8.54426L4.57102 9.94067ZM5.49491 6.59753L11.9625 9.6097L12.565 8.31618L6.09726 5.30404L5.49491 6.59753ZM7.28452 3.42448L12.7676 7.9904L13.6808 6.89386L8.19771 2.32807L7.28452 3.42448ZM10.8238 0.0494385L9.67883 0.90108L13.9368 6.62609L15.0818 5.77458L10.8238 0.0494385ZM4.44336 13.2063H11.5512V11.7848H4.44336V13.2063Z" fill="#F58025"/>
</g>
</g>
<defs>
<clipPath id="clip0_1406_3335">
<rect width="16" height="16" fill="white"/>
</clipPath>
</defs>
</svg>
