<svg width="16" height="16" viewBox="0 0 16 16" fill="none" xmlns="http://www.w3.org/2000/svg">
<g clip-path="url(#clip0_1_1234)">
<path fill-rule="evenodd" clip-rule="evenodd" d="M2.39999 1.6H13.6C14.0418 1.6 14.4 1.95818 14.4 2.4V13.6C14.4 14.0418 14.0418 14.4 13.6 14.4H2.39999C1.95816 14.4 1.59999 14.0418 1.59999 13.6V2.4C1.59999 1.95818 1.95816 1.6 2.39999 1.6ZM0.799988 2.4C0.799988 1.51634 1.51633 0.799999 2.39999 0.799999H13.6C14.4837 0.799999 15.2 1.51634 15.2 2.4V13.6C15.2 14.4837 14.4837 15.2 13.6 15.2H2.39999C1.51633 15.2 0.799988 14.4837 0.799988 13.6V2.4ZM8.05815 5.66298C7.55349 5.66298 7.23476 5.81349 7.23476 6.20305C7.23476 6.62743 7.76775 6.81349 8.43063 7.04491C9.51039 7.42183 10.9347 7.91906 10.9621 9.76224C10.9621 11.5418 9.58103 12.56 7.58005 12.56C6.66476 12.5593 5.75985 12.3662 4.92394 11.9934V9.61176C5.73498 10.081 6.64462 10.3539 7.58005 10.4086C8.07583 10.4086 8.46543 10.2581 8.46543 9.79768C8.46543 9.3316 7.89128 9.11936 7.19747 8.86288C6.1382 8.47128 4.79999 7.97655 4.79999 6.31816C4.79999 4.56512 6.10148 3.52038 8.05815 3.52038C8.87703 3.51149 9.68951 3.66496 10.4486 3.97192V6.30045C9.71439 5.89961 8.89455 5.68098 8.05815 5.66298Z" fill="#FF00FF"/>
</g>
<defs>
<clipPath id="clip0_1_1234">
<rect width="16" height="16" fill="white"/>
</clipPath>
</defs>
</svg>
