<svg width="16" height="16" viewBox="0 0 16 16" fill="none" xmlns="http://www.w3.org/2000/svg">
<g clip-path="url(#clip0_348_3725)">
<path d="M8.05815 5.66279C7.55349 5.66279 7.23476 5.8133 7.23476 6.20286C7.23476 6.62724 7.76775 6.8133 8.43066 7.04471C9.51038 7.42163 10.9347 7.91887 10.9622 9.76205C10.9622 11.5416 9.58099 12.5598 7.58005 12.5598C6.66477 12.5591 5.75985 12.366 4.92394 11.9932V9.61154C5.73498 10.0808 6.64462 10.3537 7.58005 10.4084C8.07586 10.4084 8.46542 10.2579 8.46542 9.79747C8.46542 9.33143 7.89128 9.11918 7.19746 8.86268C6.1382 8.47108 4.79999 7.97635 4.79999 6.31796C4.79999 4.56493 6.10148 3.52019 8.05815 3.52019C8.87699 3.5113 9.68947 3.66476 10.4487 3.97173V6.30025C9.71436 5.89941 8.89454 5.68079 8.05815 5.66279Z" fill="#FF00FF"/>
<path fill-rule="evenodd" clip-rule="evenodd" d="M0.799988 2.3998C0.799988 1.51615 1.51633 0.799805 2.39999 0.799805H13.6C14.4836 0.799805 15.2 1.51615 15.2 2.3998V13.5998C15.2 14.4835 14.4836 15.1998 13.6 15.1998H2.39999C1.51633 15.1998 0.799988 14.4835 0.799988 13.5998V2.3998ZM2.39999 1.5998H13.6C14.0418 1.5998 14.4 1.95798 14.4 2.3998V13.5998C14.4 14.0416 14.0418 14.3998 13.6 14.3998H2.39999C1.95816 14.3998 1.59999 14.0416 1.59999 13.5998V2.3998C1.59999 1.95798 1.95816 1.5998 2.39999 1.5998Z" fill="#FF00FF"/>
</g>
<defs>
<clipPath id="clip0_348_3725">
<rect width="16" height="16" fill="white"/>
</clipPath>
</defs>
</svg>
