<svg width="16" height="16" viewBox="0 0 16 16" fill="none" xmlns="http://www.w3.org/2000/svg">
<g clip-path="url(#clip0_1406_3334)">
<path fill-rule="evenodd" clip-rule="evenodd" d="M2.40005 1.59999H13.6C14.0419 1.59999 14.4 1.95816 14.4 2.39999V13.6C14.4 14.0418 14.0419 14.4 13.6 14.4H2.40005C1.95822 14.4 1.60005 14.0418 1.60005 13.6V2.39999C1.60005 1.95816 1.95822 1.59999 2.40005 1.59999ZM0.800049 2.39999C0.800049 1.51633 1.51639 0.799988 2.40005 0.799988H13.6C14.4837 0.799988 15.2 1.51633 15.2 2.39999V13.6C15.2 14.4837 14.4837 15.2 13.6 15.2H2.40005C1.51639 15.2 0.800049 14.4837 0.800049 13.6V2.39999ZM8.05821 5.66297C7.55355 5.66297 7.23482 5.81348 7.23482 6.20304C7.23482 6.62742 7.76781 6.81348 8.43069 7.0449C9.51045 7.42182 10.9348 7.91905 10.9622 9.76223C10.9622 11.5418 9.58109 12.56 7.58011 12.56C6.66482 12.5593 5.75991 12.3662 4.924 11.9933V9.61175C5.73504 10.081 6.64468 10.3539 7.58011 10.4085C8.07589 10.4085 8.46549 10.2581 8.46549 9.79767C8.46549 9.33159 7.89134 9.11935 7.19753 8.86287C6.13826 8.47127 4.80005 7.97654 4.80005 6.31815C4.80005 4.56511 6.10154 3.52037 8.05821 3.52037C8.87709 3.51148 9.68957 3.66495 10.4487 3.97191V6.30044C9.71445 5.8996 8.89461 5.68097 8.05821 5.66297Z" fill="#FF00FF"/>
</g>
<defs>
<clipPath id="clip0_1406_3334">
<rect width="16" height="16" fill="white"/>
</clipPath>
</defs>
</svg>
