<svg width="16" height="16" viewBox="0 0 16 16" fill="none" xmlns="http://www.w3.org/2000/svg">
<path fill-rule="evenodd" clip-rule="evenodd" d="M7.67267 0.062071C7.68 0.0974098 7.71988 0.274018 7.7613 0.454566C7.80272 0.635114 7.86886 0.924133 7.90828 1.09683C7.9477 1.26953 8.00422 1.50996 8.03385 1.63114C8.0635 1.75231 8.10772 1.95141 8.13216 2.07359C8.15659 2.19576 8.1875 2.32784 8.20089 2.36709C8.21428 2.40634 8.23983 2.5091 8.25764 2.59545C8.27545 2.6818 8.31647 2.86163 8.34881 2.99508C8.38113 3.12853 8.41372 3.26983 8.42123 3.30908C8.42871 3.34833 8.46522 3.50889 8.50233 3.66589C8.53944 3.82289 8.60415 4.10548 8.64611 4.29388C8.68807 4.48228 8.76597 4.81626 8.81926 5.03606C8.87253 5.25585 8.93627 5.5256 8.96088 5.6355C8.98548 5.7454 9.02924 5.93808 9.05813 6.06368C9.08699 6.18928 9.14374 6.43976 9.18424 6.62031C9.22472 6.80086 9.27653 7.02565 9.29937 7.11985C9.3222 7.21405 9.33148 7.30071 9.32 7.31244C9.30853 7.32415 9.01848 7.40444 8.67546 7.49085C8.33243 7.57725 8.02797 7.64793 7.99885 7.64793C7.96973 7.64793 7.9459 7.64097 7.9459 7.63246C7.9459 7.62395 7.92612 7.51797 7.90194 7.39696C7.87773 7.27596 7.84722 7.14482 7.83412 7.10557C7.82099 7.06633 7.79509 6.96356 7.77654 6.87721C7.75801 6.79086 7.72339 6.63672 7.69958 6.53467C7.67581 6.43262 7.64526 6.30417 7.6317 6.24922C7.61814 6.19427 7.57313 5.99517 7.53165 5.80677C7.49018 5.61837 7.43708 5.38716 7.41362 5.29296C7.39018 5.19876 7.34505 4.99966 7.31331 4.85051C7.28157 4.70136 7.24714 4.57091 7.23678 4.56061C7.22645 4.5503 6.60142 4.69605 5.84783 4.88445C5.09424 5.07285 4.47356 5.23096 4.46856 5.23581C4.46354 5.24064 4.47262 5.29402 4.48874 5.35442C4.50487 5.41482 4.54937 5.59911 4.58765 5.76396C4.62593 5.9288 4.69213 6.21782 4.7348 6.40622C4.77748 6.59462 4.85461 6.9286 4.90622 7.14839C4.95783 7.36819 5.04223 7.72563 5.09379 7.94272C5.17331 8.27764 5.18133 8.34135 5.14659 8.36333C5.12407 8.37757 5.08088 8.38942 5.0506 8.38968C5.02031 8.3899 4.95608 8.40304 4.90787 8.41885C4.85966 8.43466 4.60978 8.49889 4.35258 8.56157C4.09542 8.62426 3.86212 8.67556 3.83415 8.67556C3.79638 8.67556 3.77843 8.64438 3.76427 8.55424C3.75376 8.48753 3.73438 8.39439 3.72117 8.34729C3.70795 8.30019 3.67104 8.14604 3.6391 8.00475C3.60716 7.86345 3.56071 7.65792 3.53591 7.54802C3.51107 7.43813 3.47922 7.30325 3.46506 7.2483C3.45093 7.19335 3.42672 7.09059 3.41128 7.01994C3.39581 6.94929 3.36221 6.80157 3.33661 6.69167C3.311 6.58177 3.27849 6.4469 3.26436 6.39195C3.25023 6.337 3.2309 6.2535 3.22143 6.2064C3.21195 6.1593 3.18497 6.03727 3.16148 5.93523C3.13799 5.83318 3.10787 5.70472 3.09454 5.64977C3.08121 5.59483 3.05758 5.49206 3.04205 5.42141C3.02652 5.35076 2.98622 5.17093 2.95253 5.02178C2.91882 4.87263 2.87803 4.69922 2.86187 4.63642C2.84569 4.57362 2.82111 4.48371 2.80727 4.43661C2.79339 4.38951 2.756 4.22894 2.72414 4.07979C2.69229 3.93065 2.64116 3.69943 2.6105 3.56598C2.57988 3.43253 2.534 3.22701 2.5086 3.10926C2.48319 2.99151 2.4297 2.7603 2.38974 2.59545C2.34975 2.4306 2.31072 2.25719 2.30299 2.21009C2.29522 2.16299 2.26965 2.05381 2.2461 1.96746C2.22258 1.88111 2.18007 1.71052 2.15164 1.58841L2.09998 1.36635L2.18984 1.32885C2.23925 1.30821 2.33108 1.28255 2.39388 1.27181C2.45668 1.26105 2.6622 1.21364 2.8506 1.1664C3.039 1.11918 3.23259 1.06814 3.2808 1.05299C3.32901 1.03786 3.39558 1.02547 3.42875 1.02547C3.46189 1.02547 3.49517 1.04793 3.50271 1.07542C3.51025 1.10291 3.53143 1.19603 3.54975 1.28237C3.56808 1.36872 3.61969 1.59352 3.66442 1.78191C3.70918 1.97031 3.77198 2.24006 3.804 2.38136C3.836 2.52266 3.89481 2.77956 3.93463 2.95226C3.97445 3.12496 4.01906 3.31122 4.03379 3.36617C4.04849 3.42112 4.08292 3.57198 4.11029 3.7014C4.1377 3.83082 4.16958 3.95208 4.1812 3.97089C4.19684 3.99619 4.39409 3.95816 4.93944 3.8248C5.34487 3.72566 5.70225 3.63469 5.73365 3.62262C5.76505 3.61054 5.94489 3.56564 6.13328 3.52282C6.32168 3.48003 6.50152 3.43476 6.53292 3.42223C6.56432 3.40973 6.6703 3.38292 6.76841 3.36266C6.87763 3.34013 6.94682 3.31136 6.94682 3.2885C6.94682 3.26794 6.92824 3.17745 6.90552 3.08742C6.88279 2.99739 6.81717 2.71819 6.75965 2.467C6.70213 2.2158 6.63588 1.9332 6.61241 1.839C6.58895 1.7448 6.53825 1.52643 6.49975 1.35374C6.46124 1.18104 6.41894 0.994782 6.40572 0.939833C6.3925 0.884884 6.36804 0.775698 6.35134 0.697199C6.33467 0.6187 6.30775 0.509887 6.29157 0.455394C6.26953 0.381262 6.27104 0.348264 6.29759 0.324343C6.31712 0.30676 6.45513 0.263086 6.60428 0.227262C6.75343 0.191466 6.92042 0.151845 6.97537 0.1392C7.03031 0.126583 7.17161 0.0906448 7.28936 0.0593308C7.40711 0.0280168 7.53853 0.00138412 7.58141 0.000128132C7.64021 -0.00158457 7.66262 0.0136014 7.67267 0.062071ZM12.7301 3.22027C12.7756 3.23423 12.922 3.27916 13.0555 3.32012C13.1889 3.36106 13.413 3.42668 13.5535 3.46593C13.694 3.50518 13.8207 3.54906 13.835 3.56341C13.8496 3.57797 13.8505 3.60646 13.8371 3.62773C13.8239 3.64871 13.7722 3.82646 13.7223 4.0227C13.6723 4.21895 13.5908 4.54008 13.5411 4.73633C13.4914 4.93258 13.4398 5.11884 13.4265 5.15024C13.4132 5.18163 13.3963 5.23944 13.3889 5.27869C13.3815 5.31794 13.3343 5.51704 13.2839 5.72114C13.2335 5.92523 13.181 6.11791 13.1671 6.14931C13.1532 6.18071 13.1041 6.36055 13.058 6.54895C13.0119 6.73734 12.9479 6.97992 12.9158 7.08802C12.8837 7.19609 12.8528 7.28923 12.847 7.29497C12.8413 7.30074 12.7799 7.29334 12.7105 7.27853C12.6412 7.26374 12.4753 7.21967 12.3418 7.18056C12.2084 7.14146 11.9935 7.07934 11.8643 7.04252C11.7352 7.00567 11.6148 6.96085 11.5968 6.9429C11.5723 6.91838 11.5833 6.83311 11.6408 6.60113C11.6829 6.43114 11.7281 6.26635 11.7412 6.23495C11.7543 6.20355 11.8047 6.01729 11.8533 5.82105C11.9018 5.6248 11.9879 5.29082 12.0446 5.07887C12.1013 4.86693 12.1993 4.48799 12.2623 4.23679C12.3253 3.9856 12.3881 3.75438 12.4016 3.72298C12.4152 3.69158 12.4318 3.63378 12.4386 3.59453C12.4454 3.55528 12.4579 3.5039 12.4663 3.48035C12.4748 3.4568 12.4957 3.38292 12.5128 3.31621C12.535 3.22955 12.5586 3.1949 12.5956 3.1949C12.624 3.1949 12.6846 3.20631 12.7301 3.22027ZM11.9231 9.18429C11.9954 9.21626 12.118 9.30175 12.1955 9.37428C12.2735 9.4473 12.3695 9.57598 12.4105 9.66253C12.4689 9.78579 12.4846 9.8626 12.4847 10.0251C12.4848 10.1493 12.4649 10.2874 12.4348 10.3726C12.4048 10.4571 12.3246 10.5789 12.2351 10.6758C12.1386 10.7802 12.0323 10.8608 11.9354 10.9028C11.8528 10.9387 11.7181 10.9714 11.636 10.9755C11.5539 10.9795 11.425 10.9666 11.3494 10.9466C11.2738 10.9267 11.1477 10.8679 11.0693 10.816C10.9909 10.7641 10.8866 10.6627 10.8375 10.5906C10.7884 10.5186 10.7279 10.4099 10.703 10.3491C10.678 10.2881 10.6577 10.1574 10.6577 10.0576C10.6577 9.9455 10.6798 9.81753 10.7157 9.72145C10.7477 9.63613 10.8251 9.50802 10.8878 9.43677C10.9506 9.36549 11.0472 9.27914 11.1027 9.24489C11.1581 9.21061 11.2638 9.16522 11.3374 9.14401C11.411 9.1228 11.5433 9.1101 11.6314 9.11581C11.7196 9.12149 11.8508 9.15232 11.9231 9.18429ZM13.2742 13.7066C13.2865 13.7263 13.2993 13.761 13.3028 13.7838C13.3062 13.8067 13.3165 13.9479 13.3257 14.0978C13.3349 14.2477 13.3563 14.4956 13.3732 14.6487C13.3902 14.8018 13.3973 14.9447 13.389 14.9663C13.3803 14.9891 13.3046 15.015 13.2076 15.0283C13.1161 15.0409 13.0348 15.053 13.0269 15.0551C13.0191 15.0572 12.8649 15.0702 12.6844 15.0839C12.5038 15.0977 12.3497 15.1106 12.3418 15.1127C12.334 15.1147 12.1991 15.1262 12.0421 15.1382C11.8851 15.1502 11.7246 15.1656 11.6853 15.1725C11.6461 15.1794 11.4855 15.1975 11.3285 15.2129C11.1715 15.2282 10.9724 15.2477 10.886 15.2563C10.7997 15.2649 10.4657 15.2967 10.1439 15.327C9.82203 15.3573 9.4752 15.3892 9.37315 15.3978C9.27111 15.4065 9.08485 15.426 8.95925 15.4411C8.83365 15.4563 8.58317 15.4823 8.40262 15.4989C8.22207 15.5154 8.0037 15.5345 7.91735 15.5412C7.831 15.5478 7.61906 15.5671 7.44636 15.5839C7.27366 15.6007 7.0296 15.6263 6.904 15.6409C6.7784 15.6554 6.5793 15.6755 6.46155 15.6854C6.3438 15.6954 6.20893 15.708 6.16183 15.7134C6.11473 15.7189 5.91563 15.7375 5.71938 15.7548C5.52313 15.7722 5.24054 15.7982 5.09139 15.8128C4.94224 15.8273 4.67891 15.8519 4.50621 15.8674C4.33352 15.8829 4.15368 15.902 4.10658 15.9099C4.05948 15.9178 3.89892 15.932 3.74977 15.9413C3.60062 15.9506 3.40283 15.9699 3.31026 15.9841C3.21769 15.9982 3.13259 16.0041 3.12118 15.997C3.10979 15.99 3.09317 15.878 3.0843 15.7481C3.07542 15.6183 3.05421 15.3272 3.03717 15.1013C3.0201 14.8754 3.01219 14.6844 3.01959 14.677C3.02698 14.6697 3.15255 14.6529 3.29864 14.6397C3.44471 14.6266 3.71195 14.6026 3.89249 14.5864C4.07304 14.5702 4.26572 14.5504 4.32067 14.5424C4.37562 14.5344 4.57472 14.5145 4.76312 14.4983C4.95152 14.482 5.16989 14.4625 5.24839 14.4549C5.32689 14.4473 5.44892 14.4344 5.51957 14.4263C5.59021 14.4182 5.77647 14.3998 5.93347 14.3855C6.09047 14.3712 6.36022 14.3458 6.53292 14.3291C6.70561 14.3124 6.91756 14.2922 7.00391 14.2842C7.09026 14.2762 7.28936 14.2565 7.44636 14.2405C7.60336 14.2244 7.86026 14.1995 8.01726 14.185C8.17426 14.1705 8.37978 14.151 8.47398 14.1415C8.56818 14.1321 8.76086 14.1125 8.90216 14.0981C9.04346 14.0837 9.25541 14.065 9.37315 14.0565C9.4909 14.0481 9.62578 14.035 9.67288 14.0275C9.71998 14.02 9.90623 14.0007 10.0868 13.9846C10.2673 13.9685 10.46 13.9501 10.515 13.9436C10.5699 13.9372 10.769 13.9177 10.9574 13.9003C11.1458 13.8828 11.3706 13.8623 11.4569 13.8548C11.5433 13.8472 11.7424 13.828 11.8994 13.8121C12.0564 13.7963 12.3069 13.771 12.456 13.7559C12.6052 13.7409 12.83 13.7174 12.9556 13.7038C13.0812 13.6902 13.1992 13.6772 13.2179 13.675C13.2366 13.6728 13.2619 13.687 13.2742 13.7066Z" fill="#FF00FF"/>
</svg>
