<svg width="16" height="16" viewBox="0 0 16 16" fill="none" xmlns="http://www.w3.org/2000/svg">
<g clip-path="url(#clip0_348_3688)">
<rect width="16" height="16" fill="#2727E7"/>
<path fill-rule="evenodd" clip-rule="evenodd" d="M7.72315 2.88436C7.72772 2.90637 7.75256 3.01636 7.77835 3.12881C7.80415 3.24125 7.84534 3.42125 7.86989 3.52881C7.89444 3.63636 7.92964 3.7861 7.94809 3.86157C7.96656 3.93704 7.9941 4.06104 8.00932 4.13713C8.02454 4.21321 8.04379 4.29547 8.05213 4.31992C8.06047 4.34436 8.07638 4.40836 8.08747 4.46214C8.09856 4.51592 8.12411 4.62792 8.14425 4.71103C8.16438 4.79414 8.18468 4.88214 8.18936 4.90658C8.19401 4.93103 8.21675 5.03103 8.23986 5.1288C8.26297 5.22658 8.30328 5.40258 8.32941 5.51992C8.35554 5.63725 8.40406 5.84525 8.43725 5.98214C8.47042 6.11903 8.51012 6.28703 8.52544 6.35547C8.54077 6.42392 8.56802 6.54392 8.58601 6.62214C8.60399 6.70036 8.63933 6.85636 8.66456 6.9688C8.68976 7.08125 8.72203 7.22125 8.73625 7.27992C8.75048 7.33858 8.75625 7.39256 8.74911 7.39986C8.74196 7.40715 8.56132 7.45716 8.34769 7.51097C8.13405 7.56479 7.94443 7.60881 7.9263 7.60881C7.90816 7.60881 7.89332 7.60447 7.89332 7.59917C7.89332 7.59387 7.881 7.52786 7.86594 7.4525C7.85087 7.37714 7.83186 7.29547 7.8237 7.27103C7.81553 7.24658 7.7994 7.18258 7.78784 7.1288C7.77631 7.07503 7.75474 6.97903 7.73992 6.91547C7.72511 6.85192 7.70608 6.77192 7.69764 6.73769C7.6892 6.70347 7.66116 6.57947 7.63533 6.46214C7.6095 6.3448 7.57643 6.2008 7.56182 6.14214C7.54722 6.08347 7.51912 5.95947 7.49935 5.86658C7.47958 5.77369 7.45814 5.69245 7.45168 5.68603C7.44525 5.67961 7.05599 5.77039 6.58665 5.88772C6.11732 6.00505 5.73076 6.10352 5.72765 6.10655C5.72452 6.10955 5.73017 6.1428 5.74022 6.18041C5.75026 6.21803 5.77798 6.3328 5.80182 6.43547C5.82566 6.53814 5.86688 6.71814 5.89346 6.83547C5.92004 6.9528 5.96808 7.1608 6.00022 7.29769C6.03236 7.43458 6.08493 7.6572 6.11704 7.7924C6.16657 8.00098 6.17156 8.04066 6.14992 8.05435C6.1359 8.06322 6.109 8.0706 6.09014 8.07076C6.07128 8.0709 6.03128 8.07908 6.00125 8.08893C5.97122 8.09878 5.8156 8.13878 5.65542 8.17782C5.49526 8.21686 5.34996 8.24881 5.33254 8.24881C5.30902 8.24881 5.29784 8.22939 5.28902 8.17325C5.28248 8.1317 5.2704 8.07369 5.26217 8.04436C5.25394 8.01503 5.23096 7.91903 5.21106 7.83103C5.19117 7.74303 5.16224 7.61503 5.1468 7.54658C5.13133 7.47814 5.11149 7.39414 5.10267 7.35992C5.09387 7.32569 5.0788 7.26169 5.06918 7.21769C5.05954 7.17369 5.03862 7.08169 5.02267 7.01325C5.00672 6.9448 4.98648 6.8608 4.97768 6.82658C4.96888 6.79236 4.95684 6.74036 4.95094 6.71103C4.94504 6.68169 4.92824 6.60569 4.9136 6.54214C4.89897 6.47858 4.88022 6.39858 4.87192 6.36436C4.86361 6.33014 4.84889 6.26614 4.83922 6.22214C4.82955 6.17814 4.80445 6.06614 4.78347 5.97325C4.76248 5.88036 4.73707 5.77236 4.72701 5.73325C4.71693 5.69414 4.70162 5.63814 4.693 5.6088C4.68436 5.57947 4.66107 5.47947 4.64123 5.38658C4.62139 5.29369 4.58955 5.14969 4.57046 5.06658C4.55138 4.98347 4.52281 4.85547 4.50699 4.78214C4.49117 4.7088 4.45785 4.5648 4.43296 4.46214C4.40806 4.35947 4.38376 4.25147 4.37894 4.22214C4.3741 4.1928 4.35817 4.1248 4.34351 4.07103C4.32886 4.01725 4.30239 3.91101 4.28468 3.83496L4.2525 3.69666L4.30847 3.6733C4.33924 3.66045 4.39643 3.64447 4.43554 3.63778C4.47465 3.63108 4.60265 3.60155 4.71999 3.57213C4.83732 3.54273 4.95789 3.51094 4.98792 3.5015C5.01794 3.49208 5.0594 3.48436 5.08006 3.48436C5.1007 3.48436 5.12143 3.49835 5.12612 3.51547C5.13081 3.53259 5.14401 3.59058 5.15542 3.64436C5.16683 3.69814 5.19897 3.83814 5.22683 3.95547C5.25471 4.07281 5.29382 4.2408 5.31376 4.3288C5.33369 4.4168 5.37032 4.5768 5.39512 4.68436C5.41992 4.79192 5.4477 4.90792 5.45688 4.94214C5.46603 4.97636 5.48747 5.07032 5.50452 5.15092C5.52159 5.23152 5.54145 5.30704 5.54868 5.31876C5.55842 5.33451 5.68127 5.31083 6.02091 5.22777C6.27341 5.16603 6.49599 5.10937 6.51554 5.10185C6.5351 5.09433 6.6471 5.06637 6.76443 5.0397C6.88176 5.01305 6.99376 4.98486 7.01332 4.97705C7.03288 4.96927 7.09888 4.95257 7.15999 4.93995C7.228 4.92593 7.2711 4.908 7.2711 4.89376C7.2711 4.88096 7.25953 4.82461 7.24537 4.76854C7.23122 4.71247 7.19035 4.53858 7.15453 4.38214C7.11871 4.22569 7.07744 4.04969 7.06283 3.99103C7.04822 3.93236 7.01664 3.79636 6.99266 3.68881C6.96868 3.58125 6.94233 3.46525 6.9341 3.43103C6.92587 3.39681 6.91064 3.32881 6.90024 3.27992C6.88985 3.23103 6.87309 3.16326 6.86301 3.12932C6.84929 3.08315 6.85023 3.0626 6.86676 3.0477C6.87892 3.03675 6.96488 3.00955 7.05776 2.98724C7.15065 2.96495 7.25465 2.94027 7.28888 2.9324C7.3231 2.92454 7.4111 2.90216 7.48443 2.88265C7.55776 2.86315 7.63961 2.84657 7.66632 2.84578C7.70294 2.84472 7.71689 2.85417 7.72315 2.88436ZM10.8729 4.85128C10.9012 4.85997 10.9924 4.88795 11.0755 4.91346C11.1587 4.93896 11.2982 4.97983 11.3857 5.00427C11.4732 5.02872 11.5521 5.05604 11.5611 5.06498C11.5701 5.07405 11.5707 5.09179 11.5623 5.10504C11.5541 5.1181 11.5219 5.2288 11.4908 5.35103C11.4597 5.47325 11.4089 5.67325 11.378 5.79547C11.347 5.91769 11.3149 6.03369 11.3066 6.05325C11.2983 6.0728 11.2878 6.1088 11.2832 6.13325C11.2786 6.15769 11.2492 6.28169 11.2178 6.4088C11.1864 6.53592 11.1537 6.65592 11.1451 6.67547C11.1364 6.69503 11.1059 6.80703 11.0771 6.92436C11.0484 7.04169 11.0085 7.19277 10.9886 7.26009C10.9686 7.3274 10.9493 7.38541 10.9457 7.38898C10.9422 7.39257 10.9039 7.38797 10.8607 7.37874C10.8175 7.36953 10.7142 7.34208 10.6311 7.31773C10.548 7.29337 10.4142 7.25469 10.3337 7.23176C10.2533 7.2088 10.1783 7.18089 10.1671 7.16971C10.1518 7.15444 10.1587 7.10134 10.1945 6.95686C10.2207 6.85099 10.2489 6.74836 10.257 6.7288C10.2652 6.70925 10.2966 6.59325 10.3268 6.47103C10.357 6.3488 10.4106 6.1408 10.446 6.0088C10.4813 5.8768 10.5423 5.6408 10.5816 5.48436C10.6208 5.32792 10.6599 5.18392 10.6683 5.16436C10.6768 5.1448 10.6872 5.1088 10.6914 5.08436C10.6956 5.05992 10.7033 5.02792 10.7086 5.01325C10.7139 4.99858 10.7269 4.95257 10.7376 4.91103C10.7514 4.85705 10.7661 4.83547 10.7891 4.83547C10.8068 4.83547 10.8445 4.84258 10.8729 4.85128ZM10.3703 8.56564C10.4153 8.58555 10.4917 8.6388 10.54 8.68397C10.5886 8.72944 10.6483 8.80959 10.6739 8.86349C10.7102 8.94025 10.72 8.98809 10.7201 9.08928C10.7201 9.16665 10.7078 9.25268 10.689 9.30569C10.6703 9.35833 10.6203 9.43419 10.5646 9.49453C10.5045 9.5596 10.4383 9.60976 10.3779 9.63595C10.3265 9.65828 10.2426 9.67862 10.1915 9.68118C10.1404 9.68372 10.0601 9.67565 10.013 9.66322C9.96591 9.6508 9.88742 9.61419 9.83858 9.58187C9.78973 9.54955 9.72475 9.48639 9.69419 9.44152C9.66363 9.39663 9.62594 9.32895 9.61042 9.29108C9.59487 9.25311 9.58221 9.17168 9.58221 9.10952C9.58221 9.03972 9.59597 8.96002 9.61835 8.90018C9.63825 8.84704 9.68648 8.76726 9.72553 8.72288C9.76461 8.67849 9.82482 8.62472 9.85937 8.60338C9.89389 8.58203 9.95967 8.55377 10.0055 8.54056C10.0514 8.52735 10.1338 8.51944 10.1887 8.52299C10.2436 8.52653 10.3253 8.54573 10.3703 8.56564ZM11.2118 11.3821C11.2194 11.3944 11.2274 11.416 11.2296 11.4302C11.2317 11.4444 11.2381 11.5324 11.2439 11.6258C11.2496 11.7191 11.2629 11.8735 11.2734 11.9689C11.284 12.0642 11.2884 12.1532 11.2833 12.1666C11.2778 12.1808 11.2307 12.197 11.1703 12.2053C11.1133 12.2131 11.0627 12.2206 11.0578 12.2219C11.0529 12.2233 10.9569 12.2313 10.8444 12.2399C10.732 12.2485 10.636 12.2565 10.6311 12.2578C10.6262 12.2591 10.5422 12.2662 10.4444 12.2737C10.3467 12.2812 10.2467 12.2908 10.2222 12.2951C10.1978 12.2994 10.0978 12.3107 9.99999 12.3202C9.90221 12.3298 9.77821 12.3419 9.72443 12.3473C9.67065 12.3526 9.46265 12.3724 9.26221 12.3913C9.06177 12.4102 8.84576 12.43 8.78221 12.4354C8.71865 12.4408 8.60265 12.4529 8.52443 12.4624C8.44621 12.4718 8.29021 12.488 8.17776 12.4983C8.06532 12.5086 7.92932 12.5205 7.87554 12.5247C7.82176 12.5288 7.68976 12.5408 7.58221 12.5513C7.47465 12.5617 7.32265 12.5777 7.24443 12.5868C7.16621 12.5958 7.04221 12.6083 6.96888 12.6145C6.89554 12.6207 6.81154 12.6286 6.78221 12.632C6.75288 12.6353 6.62888 12.647 6.50665 12.6577C6.38443 12.6686 6.20843 12.6848 6.11554 12.6939C6.02265 12.7029 5.85865 12.7182 5.7511 12.7278C5.64354 12.7375 5.53154 12.7494 5.50221 12.7544C5.47288 12.7593 5.37288 12.7681 5.27999 12.7739C5.1871 12.7797 5.06392 12.7917 5.00626 12.8005C4.94861 12.8093 4.89561 12.813 4.8885 12.8086C4.88141 12.8042 4.87106 12.7344 4.86553 12.6536C4.86 12.5727 4.8468 12.3915 4.83618 12.2507C4.82555 12.11 4.82063 11.9911 4.82523 11.9865C4.82984 11.9819 4.90804 11.9715 4.99903 11.9633C5.09 11.9551 5.25643 11.9402 5.36888 11.9301C5.48132 11.92 5.60132 11.9076 5.63554 11.9027C5.66976 11.8977 5.79376 11.8853 5.9111 11.8752C6.02843 11.8651 6.16443 11.8529 6.21332 11.8482C6.26221 11.8434 6.33821 11.8354 6.38221 11.8304C6.42621 11.8253 6.54221 11.8139 6.63999 11.8049C6.73776 11.796 6.90576 11.7802 7.01332 11.7698C7.12088 11.7594 7.25288 11.7468 7.30665 11.7418C7.36043 11.7369 7.48443 11.7246 7.58221 11.7146C7.67999 11.7046 7.83999 11.6891 7.93776 11.6801C8.03554 11.6711 8.16354 11.6589 8.22221 11.653C8.28088 11.6471 8.40088 11.6349 8.48888 11.626C8.57688 11.617 8.70888 11.6053 8.78221 11.6001C8.85554 11.5948 8.93954 11.5867 8.96888 11.582C8.99821 11.5773 9.11421 11.5653 9.22665 11.5552C9.3391 11.5452 9.4591 11.5337 9.49332 11.5297C9.52754 11.5257 9.65154 11.5136 9.76888 11.5027C9.88621 11.4919 10.0262 11.4791 10.08 11.4744C10.1338 11.4697 10.2578 11.4577 10.3555 11.4478C10.4533 11.438 10.6093 11.4222 10.7022 11.4128C10.7951 11.4035 10.9351 11.3889 11.0133 11.3804C11.0915 11.3719 11.1651 11.3638 11.1767 11.3624C11.1884 11.3611 11.2041 11.3699 11.2118 11.3821Z" fill="white"/>
</g>
<defs>
<clipPath id="clip0_348_3688">
<rect width="16" height="16" fill="white"/>
</clipPath>
</defs>
</svg>
