<svg width="16" height="16" viewBox="0 0 16 16" fill="none" xmlns="http://www.w3.org/2000/svg">
<path d="M13.8137 2.117C12.3274 -0.00954514 9.39197 -0.63979 7.26972 0.712164L3.54256 3.08738C3.03951 3.40333 2.60786 3.82069 2.27518 4.31283C1.9425 4.80497 1.71607 5.36107 1.61038 5.94563C1.43214 6.93225 1.58805 7.95014 2.05341 8.83816C1.73446 9.322 1.51714 9.8656 1.41458 10.4359C1.30814 11.0334 1.3222 11.6462 1.45595 12.2382C1.58971 12.8301 1.84046 13.3894 2.19346 13.883C3.67975 16.0095 6.61518 16.6398 8.73741 15.2878L12.4646 12.9226C12.9671 12.606 13.3983 12.1885 13.7308 11.6964C14.0635 11.2044 14.2903 10.6486 14.3968 10.0644C14.5744 9.07808 14.418 8.06072 13.9523 7.17325C14.2711 6.68918 14.4888 6.14574 14.5926 5.57549C14.6987 4.978 14.6844 4.36534 14.5507 3.77342C14.417 3.1815 14.1664 2.62224 13.8137 2.12843" fill="#FF3E00"/>
<path d="M6.90522 14.0888C6.31846 14.2411 5.6991 14.2097 5.13074 13.9988C4.56237 13.788 4.07237 13.4079 3.72685 12.9098C3.5147 12.613 3.36406 12.2768 3.28381 11.9209C3.20355 11.5651 3.1953 11.1967 3.25952 10.8375C3.28061 10.7207 3.31022 10.6056 3.34813 10.4931L3.41816 10.2787L3.60966 10.4217C4.04984 10.7431 4.54126 10.9875 5.06308 11.1448L5.20599 11.1863L5.19314 11.3292C5.17938 11.5251 5.23448 11.7197 5.3489 11.8794C5.45317 12.0292 5.60084 12.1435 5.77203 12.2069C5.94322 12.2703 6.12973 12.2797 6.30642 12.2339C6.38722 12.2121 6.4643 12.1784 6.53508 12.1338L10.2566 9.75857C10.3479 9.70105 10.4263 9.62505 10.4866 9.53545C10.5469 9.44593 10.5878 9.34465 10.6066 9.23833C10.6257 9.13001 10.6229 9.01889 10.5983 8.91169C10.5738 8.80441 10.528 8.70313 10.4638 8.61385C10.3595 8.46401 10.2118 8.34969 10.0406 8.28633C9.86944 8.22297 9.68296 8.21353 9.50624 8.25945C9.42536 8.28089 9.34824 8.31457 9.2776 8.35945L7.84845 9.26697C7.61471 9.41513 7.3598 9.52697 7.09244 9.59849C6.50664 9.74985 5.88854 9.71809 5.32131 9.50761C4.75409 9.29705 4.26497 8.91777 3.91978 8.42089C3.70827 8.12385 3.55823 7.7875 3.47847 7.43165C3.39871 7.0758 3.39084 6.7076 3.45531 6.34867C3.51842 5.99636 3.65436 5.6611 3.85442 5.36432C4.05449 5.06755 4.31428 4.81579 4.61719 4.62514L8.35008 2.24993C8.5824 2.10202 8.83592 1.99023 9.10176 1.91837C9.68832 1.76601 10.3075 1.79737 10.8757 2.00823C11.4438 2.21908 11.9336 2.59927 12.2787 3.0974C12.4911 3.39409 12.642 3.73027 12.7226 4.08615C12.803 4.44204 12.8115 4.81043 12.7475 5.16964C12.7252 5.28712 12.6956 5.40311 12.6589 5.51692L12.5874 5.73128L12.3974 5.58837C11.9562 5.26456 11.4634 5.0181 10.9397 4.85952L10.7967 4.81808L10.8096 4.67516C10.8261 4.47824 10.7725 4.28183 10.6581 4.12066C10.5532 3.9734 10.4059 3.86156 10.2359 3.80004C10.0659 3.73852 9.8812 3.73021 9.70632 3.77624C9.62544 3.79768 9.54832 3.83143 9.47768 3.87628L5.74906 6.2472C5.658 6.30476 5.57986 6.38058 5.51959 6.46987C5.45933 6.55916 5.41824 6.65999 5.39893 6.76597C5.38024 6.87458 5.38326 6.98581 5.40778 7.09324C5.43231 7.20068 5.47787 7.3022 5.54184 7.39193C5.64562 7.54041 5.7921 7.65383 5.96183 7.71713C6.13158 7.78043 6.31654 7.79062 6.49221 7.74636C6.5729 7.72434 6.64994 7.69064 6.72087 7.64632L8.15 6.74025C8.38352 6.59042 8.63912 6.47807 8.90744 6.40726C9.49384 6.25454 10.113 6.28559 10.6812 6.4962C11.2494 6.70681 11.7392 7.08683 12.0844 7.58487C12.2966 7.88162 12.4474 8.21777 12.5279 8.57369C12.6084 8.92953 12.617 9.29785 12.5531 9.65713C12.49 10.0094 12.3541 10.3447 12.154 10.6415C11.954 10.9383 11.6942 11.19 11.3913 11.3807L7.66266 13.7559C7.42849 13.9045 7.1731 14.0168 6.90522 14.0888Z" fill="white"/>
</svg>
