<svg width="16" height="16" viewBox="0 0 16 16" fill="none" xmlns="http://www.w3.org/2000/svg">
<path d="M13.8137 2.117C12.3274 -0.00954509 9.39198 -0.63979 7.26972 0.712164L3.54256 3.08737C3.03951 3.40332 2.60787 3.82069 2.27518 4.31283C1.94249 4.80497 1.71607 5.36107 1.61038 5.94563C1.43215 6.93225 1.58805 7.95013 2.05341 8.83818C1.73447 9.32202 1.51713 9.86559 1.41459 10.4359C1.30813 11.0334 1.3222 11.6462 1.45596 12.2381C1.58971 12.8301 1.84046 13.3893 2.19346 13.883C3.67975 16.0095 6.61518 16.6398 8.73744 15.2878L12.4646 12.9226C12.9671 12.606 13.3983 12.1885 13.7309 11.6964C14.0635 11.2044 14.2902 10.6486 14.3968 10.0644C14.5744 9.07806 14.418 8.06069 13.9523 7.17325C14.2711 6.68918 14.4889 6.14574 14.5926 5.57549C14.6987 4.978 14.6845 4.36533 14.5507 3.77342C14.417 3.1815 14.1664 2.62224 13.8137 2.12843" fill="#FF3E00"/>
<path d="M6.90529 14.0888C6.31852 14.241 5.69916 14.2096 5.13079 13.9988C4.56243 13.788 4.07243 13.4078 3.72691 12.9097C3.51476 12.6129 3.36413 12.2767 3.28387 11.9208C3.20361 11.565 3.19536 11.1966 3.25958 10.8375C3.28067 10.7207 3.31028 10.6056 3.34819 10.4931L3.41822 10.2787L3.60972 10.4216C4.0499 10.743 4.54132 10.9875 5.06314 11.1448L5.20606 11.1862L5.19319 11.3291C5.17944 11.5251 5.23454 11.7197 5.34897 11.8793C5.45323 12.0292 5.6009 12.1435 5.77209 12.2068C5.94329 12.2702 6.12979 12.2796 6.30648 12.2338C6.38728 12.212 6.46436 12.1783 6.53514 12.1337L10.2566 9.75851C10.348 9.70099 10.4264 9.62501 10.4867 9.53542C10.547 9.44583 10.5879 9.34463 10.6067 9.2383C10.6258 9.12994 10.6229 9.01885 10.5984 8.91159C10.5739 8.80434 10.5281 8.70307 10.4638 8.61378C10.3596 8.46393 10.2119 8.34963 10.0407 8.28626C9.8695 8.2229 9.683 8.21351 9.5063 8.25935C9.42541 8.2808 9.34829 8.31454 9.27764 8.35939L7.84851 9.26689C7.61478 9.41509 7.35986 9.52689 7.0925 9.59844C6.5067 9.74979 5.8886 9.71806 5.32137 9.50753C4.75415 9.29699 4.26503 8.91775 3.91984 8.42084C3.70833 8.12377 3.55829 7.78744 3.47854 7.43159C3.39878 7.07574 3.3909 6.70754 3.45537 6.34861C3.51848 5.9963 3.65442 5.66104 3.85448 5.36427C4.05455 5.06749 4.31434 4.81573 4.61726 4.62508L8.35014 2.24987C8.58249 2.10196 8.83595 1.99017 9.10186 1.91831C9.68842 1.76595 10.3076 1.79731 10.8758 2.00817C11.4439 2.21902 11.9337 2.59921 12.2788 3.09734C12.4912 3.39403 12.6421 3.73021 12.7226 4.08609C12.8031 4.44197 12.8116 4.81036 12.7476 5.16958C12.7253 5.28706 12.6957 5.40305 12.659 5.51686L12.5875 5.73123L12.3974 5.58831C11.9563 5.2645 11.4634 5.01804 10.9397 4.85946L10.7968 4.81801L10.8097 4.6751C10.8262 4.47818 10.7725 4.28177 10.6582 4.1206C10.5533 3.97333 10.406 3.8615 10.236 3.79998C10.066 3.73845 9.88123 3.73015 9.70638 3.77618C9.62549 3.79762 9.54837 3.83136 9.47772 3.87622L5.74912 6.24714C5.65806 6.3047 5.57992 6.38052 5.51966 6.46981C5.45939 6.5591 5.4183 6.65993 5.39899 6.76591C5.3803 6.87452 5.38331 6.98575 5.40784 7.09318C5.43237 7.20062 5.47793 7.30214 5.5419 7.39187C5.64568 7.54035 5.79216 7.65377 5.9619 7.71707C6.13163 7.78037 6.31661 7.79056 6.49227 7.74629C6.57296 7.72428 6.65 7.69058 6.72093 7.64626L8.15006 6.74019C8.38362 6.59036 8.63919 6.478 8.9075 6.4072C9.4939 6.25448 10.1131 6.28553 10.6813 6.49614C11.2494 6.70675 11.7393 7.08677 12.0844 7.5848C12.2967 7.88156 12.4475 8.21775 12.528 8.57361C12.6085 8.92946 12.6171 9.29782 12.5532 9.65704C12.4901 10.0093 12.3542 10.3446 12.1541 10.6414C11.954 10.9382 11.6942 11.1899 11.3913 11.3806L7.66273 13.7558C7.42855 13.9045 7.17316 14.0167 6.90529 14.0888Z" fill="white"/>
</svg>
