<svg width="16" height="16" viewBox="0 0 16 16" fill="none" xmlns="http://www.w3.org/2000/svg">
<g clip-path="url(#clip0_1_1240)">
<mask id="mask0_1_1240" style="mask-type:luminance" maskUnits="userSpaceOnUse" x="0" y="0" width="16" height="16">
<path d="M16 0H0V16H16V0Z" fill="white"/>
</mask>
<g mask="url(#mask0_1_1240)">
<path fill-rule="evenodd" clip-rule="evenodd" d="M7.26966 0.712164C9.39191 -0.63979 12.3273 -0.00954513 13.8137 2.117V2.12843C14.1664 2.62224 14.4169 3.1815 14.5506 3.77342C14.6844 4.36534 14.6986 4.978 14.5925 5.57549C14.4888 6.14574 14.271 6.68918 13.9522 7.17325C14.4179 8.06072 14.5743 9.07808 14.3967 10.0644C14.2902 10.6486 14.0634 11.2044 13.7308 11.6964C13.3982 12.1885 12.967 12.606 12.4645 12.9226L8.73735 15.2878C6.61512 16.6398 3.67969 16.0095 2.1934 13.883C1.8404 13.3894 1.58965 12.8301 1.45589 12.2382C1.32214 11.6462 1.30808 11.0334 1.41452 10.4359C1.51708 9.8656 1.7344 9.322 2.05335 8.83816C1.58799 7.95014 1.43208 6.93225 1.61032 5.94563C1.71601 5.36107 1.94244 4.80497 2.27512 4.31283C2.6078 3.82069 3.03945 3.40333 3.5425 3.08738L7.26966 0.712164ZM5.13072 13.9988C5.69908 14.2097 6.31844 14.241 6.90521 14.0888C7.17309 14.0168 7.42848 13.9045 7.66265 13.7558L11.3913 11.3806C11.6941 11.19 11.954 10.9382 12.154 10.6414C12.3541 10.3446 12.49 10.0094 12.5531 9.65712C12.617 9.29784 12.6084 8.92952 12.5279 8.57368C12.4474 8.21776 12.2966 7.88161 12.0844 7.58486C11.7392 7.08682 11.2493 6.7068 10.6812 6.49618C10.113 6.28558 9.49383 6.25453 8.90743 6.40725C8.63911 6.47806 8.38351 6.59041 8.14999 6.74024L6.72086 7.6463C6.64992 7.69062 6.57289 7.72433 6.4922 7.74634C6.31653 7.79061 6.13156 7.78042 5.96182 7.71712C5.79208 7.65382 5.64561 7.5404 5.54183 7.39192C5.47786 7.30218 5.4323 7.20067 5.40777 7.09323C5.38324 6.9858 5.38023 6.87457 5.39892 6.76596C5.41823 6.65998 5.45931 6.55915 5.51958 6.46986C5.57985 6.38057 5.65799 6.30474 5.74905 6.24719L9.47767 3.87626C9.54831 3.83142 9.62543 3.79767 9.70631 3.77622C9.88119 3.7302 10.0659 3.7385 10.2359 3.80002C10.4059 3.86155 10.5532 3.97338 10.6581 4.12065C10.7725 4.28182 10.8261 4.47823 10.8096 4.67515L10.7967 4.81806L10.9397 4.8595C11.4633 5.01809 11.9562 5.26455 12.3973 5.58836L12.5874 5.73127L12.6589 5.5169C12.6956 5.4031 12.7252 5.28711 12.7475 5.16962C12.8115 4.81042 12.803 4.44202 12.7225 4.08614C12.642 3.73026 12.4911 3.39408 12.2787 3.09739C11.9336 2.59926 11.4438 2.21907 10.8757 2.00822C10.3075 1.79736 9.68831 1.766 9.10175 1.91836C8.83591 1.99022 8.58239 2.10201 8.35007 2.24992L4.61718 4.62513C4.31427 4.81578 4.05448 5.06754 3.85441 5.36431C3.65435 5.66109 3.51841 5.99635 3.4553 6.34866C3.39083 6.70759 3.3987 7.07578 3.47846 7.43164C3.55822 7.78749 3.70826 8.12384 3.91977 8.42088C4.26496 8.91776 4.75408 9.29704 5.3213 9.5076C5.88852 9.71808 6.50663 9.74984 7.09243 9.59848C7.35979 9.52696 7.6147 9.41512 7.84844 9.26696L9.27759 8.35944C9.34823 8.31456 9.42535 8.28088 9.50623 8.25944C9.68295 8.21352 9.86943 8.22296 10.0406 8.28632C10.2118 8.34968 10.3595 8.464 10.4637 8.61384C10.528 8.70312 10.5737 8.8044 10.5983 8.91168C10.6229 9.01888 10.6257 9.13 10.6066 9.23832C10.5877 9.34464 10.5469 9.44592 10.4865 9.53544C10.4263 9.62504 10.3479 9.70104 10.2565 9.75856L6.53507 12.1338C6.46428 12.1784 6.3872 12.2121 6.30641 12.2338C6.12972 12.2797 5.94321 12.2702 5.77202 12.2069C5.60083 12.1435 5.45316 12.0292 5.34889 11.8794C5.23447 11.7197 5.17937 11.5251 5.19312 11.3292L5.20598 11.1862L5.06307 11.1448C4.54125 10.9875 4.04983 10.743 3.60964 10.4217L3.41815 10.2787L3.34812 10.4931C3.3102 10.6056 3.2806 10.7207 3.25951 10.8375C3.19528 11.1966 3.20354 11.565 3.2838 11.9209C3.36405 12.2768 3.51469 12.613 3.72684 12.9098C4.07236 13.4079 4.56236 13.788 5.13072 13.9988Z" fill="#FF00FF"/>
</g>
</g>
<defs>
<clipPath id="clip0_1_1240">
<rect width="16" height="16" fill="white"/>
</clipPath>
</defs>
</svg>
