<svg width="16" height="16" viewBox="0 0 16 16" fill="none" xmlns="http://www.w3.org/2000/svg">
<path d="M13.8137 2.117C12.3273 -0.00954513 9.39191 -0.63979 7.26966 0.712164L3.5425 3.08738C3.03945 3.40333 2.6078 3.82069 2.27512 4.31283C1.94244 4.80497 1.71601 5.36107 1.61032 5.94563C1.43208 6.93225 1.58799 7.95014 2.05335 8.83816C1.7344 9.322 1.51708 9.8656 1.41452 10.4359C1.30808 11.0334 1.32214 11.6462 1.45589 12.2382C1.58965 12.8301 1.8404 13.3894 2.1934 13.883C3.67969 16.0095 6.61512 16.6398 8.73735 15.2878L12.4645 12.9226C12.967 12.606 13.3982 12.1885 13.7308 11.6964C14.0634 11.2044 14.2902 10.6486 14.3967 10.0644C14.5743 9.07808 14.4179 8.06072 13.9522 7.17325C14.271 6.68918 14.4888 6.14574 14.5925 5.57549C14.6986 4.978 14.6844 4.36534 14.5506 3.77342C14.4169 3.1815 14.1664 2.62224 13.8137 2.12843" fill="#FF3E00"/>
<path d="M6.90522 14.0888C6.31846 14.241 5.6991 14.2097 5.13074 13.9988C4.56237 13.788 4.07237 13.4079 3.72685 12.9098C3.5147 12.613 3.36406 12.2768 3.28381 11.9209C3.20355 11.565 3.1953 11.1966 3.25952 10.8375C3.28061 10.7207 3.31022 10.6056 3.34813 10.4931L3.41816 10.2787L3.60966 10.4217C4.04984 10.743 4.54126 10.9875 5.06308 11.1448L5.20599 11.1862L5.19314 11.3292C5.17938 11.5251 5.23448 11.7197 5.3489 11.8794C5.45317 12.0292 5.60084 12.1435 5.77203 12.2069C5.94322 12.2702 6.12973 12.2797 6.30642 12.2338C6.38722 12.2121 6.4643 12.1784 6.53508 12.1338L10.2566 9.75856C10.3479 9.70104 10.4263 9.62504 10.4866 9.53544C10.5469 9.44592 10.5878 9.34464 10.6066 9.23832C10.6257 9.13 10.6229 9.01888 10.5983 8.91168C10.5738 8.8044 10.528 8.70312 10.4638 8.61384C10.3595 8.464 10.2118 8.34968 10.0406 8.28632C9.86944 8.22296 9.68296 8.21352 9.50624 8.25944C9.42536 8.28088 9.34824 8.31456 9.2776 8.35944L7.84845 9.26696C7.61471 9.41512 7.3598 9.52696 7.09244 9.59848C6.50664 9.74984 5.88854 9.71808 5.32131 9.5076C4.75409 9.29704 4.26497 8.91776 3.91978 8.42088C3.70827 8.12384 3.55823 7.78749 3.47847 7.43164C3.39871 7.07578 3.39084 6.70759 3.45531 6.34866C3.51842 5.99635 3.65436 5.66109 3.85442 5.36431C4.05449 5.06754 4.31428 4.81578 4.61719 4.62513L8.35008 2.24992C8.5824 2.10201 8.83592 1.99022 9.10176 1.91836C9.68832 1.766 10.3075 1.79736 10.8757 2.00822C11.4438 2.21907 11.9336 2.59926 12.2787 3.09739C12.4911 3.39408 12.642 3.73026 12.7226 4.08614C12.803 4.44202 12.8115 4.81042 12.7475 5.16962C12.7252 5.28711 12.6956 5.4031 12.6589 5.5169L12.5874 5.73127L12.3974 5.58836C11.9562 5.26455 11.4634 5.01809 10.9397 4.8595L10.7967 4.81806L10.8096 4.67515C10.8261 4.47823 10.7725 4.28182 10.6581 4.12065C10.5532 3.97338 10.4059 3.86155 10.2359 3.80002C10.0659 3.7385 9.8812 3.7302 9.70632 3.77622C9.62544 3.79767 9.54832 3.83142 9.47768 3.87626L5.74906 6.24719C5.658 6.30474 5.57986 6.38057 5.51959 6.46986C5.45933 6.55915 5.41824 6.65998 5.39893 6.76596C5.38024 6.87457 5.38326 6.9858 5.40778 7.09323C5.43231 7.20067 5.47787 7.30218 5.54184 7.39192C5.64562 7.5404 5.7921 7.65382 5.96183 7.71712C6.13158 7.78042 6.31654 7.79061 6.49221 7.74634C6.5729 7.72433 6.64994 7.69062 6.72087 7.6463L8.15 6.74024C8.38352 6.59041 8.63912 6.47806 8.90744 6.40725C9.49384 6.25453 10.113 6.28558 10.6812 6.49618C11.2494 6.7068 11.7392 7.08682 12.0844 7.58486C12.2966 7.88161 12.4474 8.21776 12.5279 8.57368C12.6084 8.92952 12.617 9.29784 12.5531 9.65712C12.49 10.0094 12.3541 10.3446 12.154 10.6414C11.954 10.9382 11.6942 11.19 11.3913 11.3806L7.66266 13.7558C7.42849 13.9045 7.1731 14.0168 6.90522 14.0888Z" fill="white"/>
</svg>
