<svg width="16" height="16" viewBox="0 0 16 16" fill="none" xmlns="http://www.w3.org/2000/svg">
<g clip-path="url(#clip0_1406_3329)">
<path d="M15.9989 4.43168C15.9979 4.27077 15.9962 4.10994 15.9917 3.94883C15.9823 3.59839 15.9616 3.24478 15.8994 2.89809C15.8362 2.54601 15.7328 2.21863 15.57 1.89879C15.4102 1.5847 15.2012 1.29727 14.9519 1.04802C14.7027 0.798775 14.4154 0.589854 14.1011 0.429938C13.7815 0.2673 13.4541 0.164011 13.1023 0.10081C12.7554 0.0383358 12.4018 0.0177535 12.0511 0.00827064C11.8902 0.00390632 11.7293 0.00207439 11.5683 0.00107761C11.3772 0 11.1861 0 10.995 0H6.75962H5.00498C4.81378 0 4.6228 0 4.4318 0.00110454C4.27078 0.00210133 4.10973 0.00393326 3.94895 0.0082976C3.86129 0.0106683 3.77343 0.0137394 3.68553 0.017969C3.42184 0.0306848 3.15774 0.053988 2.89772 0.100837C2.6339 0.148251 2.38373 0.218188 2.14035 0.31881C2.05923 0.352323 1.97885 0.389285 1.89894 0.429938C1.66326 0.549875 1.44262 0.697373 1.24195 0.868768C1.17506 0.925904 1.11038 0.985688 1.04809 1.048C0.798786 1.29725 0.589838 1.58467 0.430002 1.89877C0.267176 2.2186 0.163995 2.54598 0.100739 2.89806C0.0385078 3.24475 0.0178177 3.59837 0.00838864 3.94881C0.00397046 4.1099 0.0021116 4.27074 0.00106094 4.43166C-0.000151374 4.62277 1.02671e-05 4.8139 1.02671e-05 5.00497V7.61328V10.995C1.02671e-05 11.1862 -0.000178314 11.3771 0.00106094 11.5684C0.0021116 11.7293 0.00397046 11.8902 0.00838864 12.051C0.0178177 12.4016 0.0384808 12.7553 0.100739 13.1018C0.163995 13.4538 0.267176 13.7814 0.430002 14.1012C0.589838 14.4154 0.798786 14.7027 1.04809 14.9519C1.29721 15.2013 1.58471 15.4102 1.89897 15.5702C2.21856 15.7328 2.54596 15.836 2.8978 15.8992C3.24446 15.9616 3.59835 15.9823 3.94898 15.9917C4.10975 15.996 4.2708 15.9979 4.43182 15.9988C4.62283 16.0002 4.81381 16 5.005 16H10.995C11.1861 16 11.3772 16.0002 11.5682 15.9988C11.7292 15.9979 11.8901 15.996 12.0511 15.9917C12.4018 15.9823 12.7554 15.9615 13.1023 15.8992C13.4541 15.836 13.7815 15.7328 14.101 15.5702C14.4153 15.4102 14.7027 15.2013 14.9519 14.9519C15.2012 14.7027 15.4102 14.4154 15.5699 14.1012C15.7328 13.7814 15.8361 13.4538 15.8993 13.1018C15.9616 12.7553 15.9823 12.4016 15.9917 12.051C15.9961 11.8902 15.9978 11.7294 15.9989 11.5684C16.0001 11.3771 16 11.1862 16 10.995V5.00497C16 4.8139 16.0001 4.62277 15.9989 4.43168Z" fill="#F05138"/>
<path d="M12.6781 9.8765L12.677 9.87522C12.6947 9.81498 12.713 9.75506 12.7284 9.69338C13.3925 7.04758 11.7718 3.91957 9.02914 2.27258C10.231 3.90189 10.7624 5.87537 10.2903 7.60121C10.2482 7.75514 10.1975 7.90288 10.1416 8.0465C10.0809 8.00658 10.0043 7.96129 9.90162 7.90463C9.90162 7.90463 7.17341 6.22015 4.21649 3.2407C4.1389 3.1625 5.79324 5.60524 7.67072 7.58881C6.78617 7.09239 4.32105 5.29879 2.76045 3.87046C2.95219 4.19021 3.18024 4.4981 3.43091 4.79453C4.73414 6.44728 6.43372 8.4865 8.46986 10.0524C7.03925 10.9279 5.01774 10.996 3.00501 10.0533C2.50719 9.82002 2.03918 9.5385 1.60596 9.21866C2.45794 10.5815 3.77012 11.7572 5.36716 12.4436C7.27169 13.2621 9.16562 13.2066 10.5762 12.4571L10.5751 12.4587C10.5815 12.4546 10.5897 12.4502 10.5964 12.446C10.6543 12.4149 10.7118 12.3832 10.768 12.3497C11.4458 11.9979 12.7844 11.641 13.5029 13.0391C13.6789 13.3812 14.0528 11.568 12.6781 9.8765Z" fill="white"/>
</g>
<defs>
<clipPath id="clip0_1406_3329">
<rect width="16" height="16" fill="white"/>
</clipPath>
</defs>
</svg>
