<svg width="16" height="16" viewBox="0 0 16 16" fill="none" xmlns="http://www.w3.org/2000/svg">
<g clip-path="url(#clip0_1406_3326)">
<path d="M8 16C12.4182 16 16 12.4182 16 8C16 3.58172 12.4182 0 8 0C3.58172 0 0 3.58172 0 8C0 12.4182 3.58172 16 8 16Z" fill="url(#paint0_linear_1406_3326)"/>
<path fill-rule="evenodd" clip-rule="evenodd" d="M3.62118 7.91552C5.95334 6.89944 7.50849 6.22957 8.28662 5.90593C10.5083 4.98186 10.9699 4.82134 11.2709 4.81604C11.337 4.81487 11.4849 4.83127 11.5809 4.90904C11.6617 4.97472 11.6841 5.06343 11.6947 5.12569C11.7053 5.18796 11.7186 5.3298 11.7081 5.44063C11.5877 6.70561 11.0667 9.77543 10.8017 11.1922C10.6896 11.7917 10.4688 11.9927 10.2549 12.0124C9.79038 12.0551 9.43766 11.7053 8.98766 11.4104C8.28358 10.9489 7.88578 10.6615 7.20233 10.2112C6.41248 9.69063 6.9245 9.40463 7.37464 8.93703C7.49244 8.81471 9.53934 6.95288 9.57902 6.78398C9.5839 6.76285 9.58854 6.68412 9.54174 6.64254C9.49502 6.60096 9.42598 6.61518 9.37614 6.62649C9.3055 6.64252 8.1807 7.38597 6.00168 8.85687C5.68241 9.07607 5.39321 9.18295 5.13411 9.17735C4.84847 9.17119 4.29901 9.01583 3.89054 8.88303C3.38954 8.72023 2.99136 8.63407 3.02603 8.35751C3.04409 8.21343 3.24247 8.06615 3.62118 7.91552Z" fill="white"/>
</g>
<defs>
<linearGradient id="paint0_linear_1406_3326" x1="8" y1="0" x2="8" y2="15.8814" gradientUnits="userSpaceOnUse">
<stop stop-color="#2AABEE"/>
<stop offset="1" stop-color="#229ED9"/>
</linearGradient>
<clipPath id="clip0_1406_3326">
<rect width="16" height="16" fill="white"/>
</clipPath>
</defs>
</svg>
