<svg width="16" height="16" viewBox="0 0 16 16" fill="none" xmlns="http://www.w3.org/2000/svg">
<g clip-path="url(#clip0_1406_3327)">
<path fill-rule="evenodd" clip-rule="evenodd" d="M16 8C16 12.4182 12.4182 16 8 16C3.58172 16 0 12.4182 0 8C0 3.58172 3.58172 0 8 0C12.4182 0 16 3.58172 16 8ZM8.28672 5.90597C7.50858 6.22961 5.95344 6.89947 3.62128 7.91556C3.24257 8.06616 3.04419 8.21352 3.02613 8.35752C2.99561 8.60104 3.3005 8.69688 3.71566 8.82744C3.77214 8.8452 3.83066 8.8636 3.89064 8.88312C4.2991 9.01584 4.84857 9.1712 5.13421 9.17736C5.39331 9.18296 5.6825 9.07616 6.00178 8.85688C8.1808 7.38601 9.3056 6.64255 9.37624 6.62653C9.42608 6.61522 9.49512 6.601 9.54184 6.64258C9.58864 6.68415 9.584 6.76289 9.57912 6.78402C9.54888 6.91278 8.35208 8.02544 7.73276 8.6012C7.53969 8.78072 7.40273 8.908 7.37474 8.93712C7.31202 9.00224 7.2481 9.06384 7.18667 9.12304C6.80719 9.48888 6.52262 9.7632 7.20242 10.2112C7.52911 10.4265 7.79052 10.6045 8.05128 10.7821C8.33616 10.9761 8.62024 11.1695 8.98776 11.4105C9.08144 11.4718 9.1708 11.5356 9.25792 11.5977C9.58936 11.834 9.8872 12.0462 10.255 12.0124C10.4689 11.9927 10.6897 11.7918 10.8018 11.1922C11.0668 9.77544 11.5878 6.70565 11.7082 5.44066C11.7187 5.32983 11.7054 5.18799 11.6948 5.12573C11.6842 5.06346 11.6618 4.97475 11.581 4.90908C11.485 4.8313 11.3371 4.8149 11.271 4.81607C10.97 4.82138 10.5084 4.9819 8.28672 5.90597Z" fill="#FF00FF"/>
</g>
<defs>
<clipPath id="clip0_1406_3327">
<rect width="16" height="16" fill="white"/>
</clipPath>
</defs>
</svg>
