<svg width="16" height="16" viewBox="0 0 16 16" fill="none" xmlns="http://www.w3.org/2000/svg">
<g clip-path="url(#clip0_348_3779)">
<path d="M8 16C12.4183 16 16 12.4183 16 8C16 3.58172 12.4183 0 8 0C3.58172 0 0 3.58172 0 8C0 12.4183 3.58172 16 8 16Z" fill="url(#paint0_linear_348_3779)"/>
<path fill-rule="evenodd" clip-rule="evenodd" d="M3.6213 7.91546C5.95346 6.89938 7.50861 6.22951 8.28672 5.90587C10.5084 4.9818 10.9701 4.82127 11.2709 4.81597C11.3371 4.81481 11.4851 4.83121 11.581 4.90898C11.6619 4.97466 11.6842 5.06337 11.6948 5.12563C11.7055 5.1879 11.7187 5.32974 11.7082 5.44057C11.5878 6.70555 11.0668 9.77534 10.8018 11.1921C10.6897 11.7916 10.4689 11.9927 10.2551 12.0123C9.79052 12.0551 9.43775 11.7053 8.98778 11.4103C8.28368 10.9488 7.8859 10.6615 7.20245 10.2111C6.4126 9.6906 6.92463 9.40453 7.37476 8.937C7.49256 8.81465 9.53949 6.95281 9.57911 6.78392C9.58406 6.76279 9.58866 6.68406 9.54188 6.64248C9.49511 6.6009 9.42607 6.61512 9.37625 6.62643C9.30563 6.64245 8.18081 7.38591 6.0018 8.8568C5.68253 9.07604 5.39334 9.18286 5.13423 9.17726C4.84859 9.17109 4.29913 9.01576 3.89067 8.88298C3.38966 8.72013 2.99148 8.63403 3.02615 8.35745C3.04421 8.21339 3.2426 8.06606 3.6213 7.91546Z" fill="white"/>
</g>
<defs>
<linearGradient id="paint0_linear_348_3779" x1="8" y1="0" x2="8" y2="15.8813" gradientUnits="userSpaceOnUse">
<stop stop-color="#2AABEE"/>
<stop offset="1" stop-color="#229ED9"/>
</linearGradient>
<clipPath id="clip0_348_3779">
<rect width="16" height="16" fill="white"/>
</clipPath>
</defs>
</svg>
