<svg width="16" height="16" viewBox="0 0 16 16" fill="none" xmlns="http://www.w3.org/2000/svg">
<g clip-path="url(#clip0_1_1297)">
<path d="M8 16C12.4182 16 16 12.4182 16 8C16 3.58172 12.4182 0 8 0C3.58172 0 0 3.58172 0 8C0 12.4182 3.58172 16 8 16Z" fill="url(#paint0_linear_1_1297)"/>
<path fill-rule="evenodd" clip-rule="evenodd" d="M3.6213 7.91553C5.95346 6.89945 7.50861 6.22958 8.28674 5.90594C10.5084 4.98187 10.97 4.82135 11.271 4.81605C11.3371 4.81488 11.4851 4.83128 11.581 4.90906C11.6619 4.97473 11.6842 5.06344 11.6948 5.1257C11.7055 5.18797 11.7187 5.32981 11.7082 5.44064C11.5878 6.70562 11.0668 9.77544 10.8018 11.1922C10.6897 11.7917 10.4689 11.9927 10.2551 12.0124C9.7905 12.0551 9.43778 11.7054 8.98778 11.4104C8.2837 10.9489 7.8859 10.6615 7.20245 10.2112C6.4126 9.69064 6.92462 9.40464 7.37476 8.93704C7.49256 8.81472 9.53946 6.95289 9.57914 6.78399C9.58402 6.76286 9.58866 6.68413 9.54186 6.64255C9.49514 6.60098 9.4261 6.61519 9.37626 6.6265C9.30562 6.64253 8.18082 7.38598 6.0018 8.85688C5.68253 9.07608 5.39334 9.18296 5.13423 9.17736C4.84859 9.1712 4.29913 9.01584 3.89066 8.88304C3.38966 8.72024 2.99148 8.63408 3.02615 8.35752C3.04422 8.21344 3.24259 8.06616 3.6213 7.91553Z" fill="white"/>
</g>
<defs>
<linearGradient id="paint0_linear_1_1297" x1="8" y1="0" x2="8" y2="15.8814" gradientUnits="userSpaceOnUse">
<stop stop-color="#2AABEE"/>
<stop offset="1" stop-color="#229ED9"/>
</linearGradient>
<clipPath id="clip0_1_1297">
<rect width="16" height="16" fill="white"/>
</clipPath>
</defs>
</svg>
