<svg width="16" height="16" viewBox="0 0 16 16" fill="none" xmlns="http://www.w3.org/2000/svg">
<g clip-path="url(#clip0_348_3858)">
<path d="M0 6.4C0 3.38301 0 1.87452 0.937258 0.937258C1.87452 0 3.38301 0 6.4 0H9.6C12.617 0 14.1255 0 15.0627 0.937258C16 1.87452 16 3.38301 16 6.4V9.6C16 12.617 16 14.1255 15.0627 15.0627C14.1255 16 12.617 16 9.6 16H6.4C3.38301 16 1.87452 16 0.937258 15.0627C0 14.1255 0 12.617 0 9.6V6.4Z" fill="#100F0D"/>
<path d="M3.73317 8.26684L5.86678 6.13323L8.00007 8.26651L5.86657 10.4L8.00021 12.5337L10.1334 10.4L8.00007 8.26651L10.1332 6.13323L12.2668 8.26684L14.4 6.13319L12.2668 4L10.1332 6.13323L8.00021 4.00027L5.86678 6.13323L3.73317 4L1.59998 6.13319L3.73317 8.26684Z" fill="white"/>
</g>
<defs>
<clipPath id="clip0_348_3858">
<rect width="16" height="16" fill="white"/>
</clipPath>
</defs>
</svg>
