<svg width="16" height="16" viewBox="0 0 16 16" fill="none" xmlns="http://www.w3.org/2000/svg">
<path fill-rule="evenodd" clip-rule="evenodd" d="M14.3713 5.48487C14.3713 9.824 11.0696 14.8258 5.03218 14.8258C3.17739 14.8258 1.45304 14.2822 0 13.3501C0.257391 13.3806 0.518261 13.3962 0.782609 13.3962C2.32174 13.3962 3.73652 12.871 4.85913 11.9918C3.42348 11.9649 2.21043 11.017 1.79304 9.71272C1.99304 9.75008 2.19913 9.77008 2.41043 9.77008C2.71043 9.77008 3.00087 9.73096 3.27566 9.65616C1.77391 9.3536 0.642609 8.02744 0.642609 6.43618C0.642609 6.42226 0.642609 6.40922 0.642609 6.3953C1.08522 6.64139 1.59218 6.78922 2.12957 6.80661C1.2487 6.21704 0.668696 5.21357 0.668696 4.07357C0.668696 3.4727 0.830432 2.90834 1.11391 2.42313C2.73218 4.41009 5.15218 5.71618 7.88 5.85357C7.82435 5.6127 7.79566 5.36313 7.79566 5.10487C7.79566 3.2927 9.26432 1.824 11.0774 1.824C12.0218 1.824 12.8748 2.22139 13.4739 2.85965C14.2209 2.71182 14.9234 2.43878 15.5582 2.06313C15.313 2.82922 14.7922 3.4727 14.1148 3.87878C14.7791 3.79878 15.4104 3.624 16 3.36226C15.56 4.02139 15.0034 4.59878 14.3618 5.06052C14.3687 5.20139 14.3713 5.344 14.3713 5.48487Z" fill="#1DA1F2"/>
</svg>
