<svg width="16" height="16" viewBox="0 0 16 16" fill="none" xmlns="http://www.w3.org/2000/svg">
<path fill-rule="evenodd" clip-rule="evenodd" d="M14.3713 5.48509C14.3713 9.82422 11.0696 14.826 5.03217 14.826C3.17739 14.826 1.45304 14.2825 0 13.3503C0.257391 13.3807 0.518261 13.3964 0.782609 13.3964C2.32174 13.3964 3.73652 12.8712 4.85913 11.992C3.42348 11.9651 2.21043 11.0173 1.79304 9.71291C1.99304 9.75031 2.19913 9.77031 2.41043 9.77031C2.71043 9.77031 3.00087 9.73117 3.27565 9.65639C1.77391 9.35378 0.642609 8.0277 0.642609 6.43639C0.642609 6.42248 0.642609 6.40944 0.642609 6.39552C1.08522 6.64161 1.59217 6.78944 2.12957 6.80683C1.2487 6.21726 0.668696 5.21378 0.668696 4.07378C0.668696 3.47291 0.830435 2.90857 1.11391 2.42335C2.73217 4.41031 5.15217 5.71639 7.88 5.85378C7.82435 5.61291 7.79565 5.36335 7.79565 5.10509C7.79565 3.29291 9.26435 1.82422 11.0774 1.82422C12.0217 1.82422 12.8748 2.22161 13.4739 2.85987C14.2209 2.71204 14.9235 2.439 15.5583 2.06335C15.313 2.82944 14.7922 3.47291 14.1148 3.879C14.7791 3.799 15.4104 3.62422 16 3.36248C15.56 4.02161 15.0035 4.599 14.3617 5.06074C14.3687 5.20161 14.3713 5.34422 14.3713 5.48509Z" fill="#1DA1F2"/>
</svg>
