<svg width="16" height="16" viewBox="0 0 16 16" fill="none" xmlns="http://www.w3.org/2000/svg">
<path d="M14.3713 5.26087C14.3713 9.6 11.0696 14.6018 5.03218 14.6018C3.17739 14.6018 1.45304 14.0582 0 13.1261C0.257391 13.1566 0.518261 13.1722 0.782609 13.1722C2.32174 13.1722 3.73652 12.647 4.85913 11.7678C3.42348 11.7409 2.21043 10.793 1.79304 9.48872C1.99304 9.52608 2.19913 9.54608 2.41043 9.54608C2.71043 9.54608 3.00087 9.50696 3.27566 9.43216C1.77391 9.1296 0.642609 7.80348 0.642609 6.21218C0.642609 6.19826 0.642609 6.18522 0.642609 6.1713C1.08522 6.41739 1.59218 6.56522 2.12957 6.58261C1.2487 5.99304 0.668696 4.98957 0.668696 3.84957C0.668696 3.2487 0.830432 2.68434 1.11391 2.19913C2.73218 4.18609 5.15218 5.49218 7.88 5.62957C7.82435 5.3887 7.79566 5.13913 7.79566 4.88087C7.79566 3.0687 9.26432 1.6 11.0774 1.6C12.0218 1.6 12.8748 1.99739 13.4739 2.63566C14.2209 2.48782 14.9234 2.21478 15.5582 1.83913C15.313 2.60522 14.7922 3.2487 14.1148 3.65478C14.7791 3.57478 15.4104 3.4 16 3.13826C15.56 3.79739 15.0034 4.37478 14.3618 4.83652C14.3687 4.97739 14.3713 5.12 14.3713 5.26087Z" fill="#FF00FF"/>
</svg>
