<svg width="16" height="16" viewBox="0 0 16 16" fill="none" xmlns="http://www.w3.org/2000/svg">
<path d="M14.3713 5.26085C14.3713 9.59998 11.0696 14.6017 5.03218 14.6017C3.17739 14.6017 1.45304 14.0582 0 13.1261C0.257391 13.1565 0.518261 13.1721 0.782609 13.1721C2.32174 13.1721 3.73652 12.6469 4.85913 11.7678C3.42348 11.7409 2.21043 10.793 1.79304 9.4887C1.99304 9.52606 2.19913 9.54606 2.41043 9.54606C2.71043 9.54606 3.00087 9.50694 3.27566 9.43214C1.77391 9.12958 0.642609 7.80346 0.642609 6.21215C0.642609 6.19824 0.642609 6.18519 0.642609 6.17128C1.08522 6.41737 1.59218 6.56519 2.12957 6.58258C1.2487 5.99302 0.668696 4.98954 0.668696 3.84954C0.668696 3.24867 0.830432 2.68432 1.11391 2.1991C2.73218 4.18606 5.15218 5.49215 7.88 5.62954C7.82435 5.38867 7.79566 5.1391 7.79566 4.88085C7.79566 3.06867 9.26432 1.59998 11.0774 1.59998C12.0218 1.59998 12.8748 1.99737 13.4739 2.63563C14.2209 2.4878 14.9234 2.21476 15.5582 1.8391C15.313 2.60519 14.7922 3.24867 14.1148 3.65476C14.7791 3.57476 15.4104 3.39998 16 3.13824C15.56 3.79737 15.0034 4.37476 14.3618 4.8365C14.3687 4.97737 14.3713 5.11998 14.3713 5.26085Z" fill="#FF00FF"/>
</svg>
