<svg width="16" height="16" viewBox="0 0 16 16" fill="none" xmlns="http://www.w3.org/2000/svg">
<g clip-path="url(#clip0_1_1332)">
<mask id="mask0_1_1332" style="mask-type:luminance" maskUnits="userSpaceOnUse" x="0" y="0" width="16" height="16">
<path d="M16 0H0V16H16V0Z" fill="white"/>
</mask>
<g mask="url(#mask0_1_1332)">
<path fill-rule="evenodd" clip-rule="evenodd" d="M0.607306 0H15.3934C15.7286 0 16.0003 0.268629 16.0003 0.6V15.4C16.0003 15.7314 15.7286 16 15.3934 16H0.607306C0.27217 16 0.000488281 15.7314 0.000488281 15.4V0.6C0.000488281 0.268629 0.27217 0 0.607306 0ZM8.81378 8.51224V7.2H3.05475V8.51224H5.11082V14.355H6.74762V8.51224H8.81378ZM9.46634 14.2008C9.73026 14.3338 10.0424 14.4337 10.4028 14.5002C10.7632 14.5667 11.1431 14.6 11.5424 14.6C11.9315 14.6 12.3012 14.5634 12.6515 14.4902C13.0017 14.417 13.3088 14.2964 13.5727 14.1284C13.8367 13.9604 14.0456 13.741 14.1996 13.4698C14.3536 13.1986 14.4306 12.8635 14.4306 12.4643C14.4306 12.1749 14.3866 11.9213 14.2986 11.7034C14.2107 11.4854 14.0838 11.2917 13.9179 11.122C13.7521 10.9524 13.5533 10.8002 13.3215 10.6654C13.0896 10.5308 12.8283 10.4035 12.5373 10.2838C12.324 10.1972 12.1328 10.1132 11.9637 10.0318C11.7944 9.95024 11.6507 9.86704 11.5323 9.78224C11.4138 9.69744 11.3224 9.6076 11.2582 9.5128C11.1939 9.418 11.1617 9.31072 11.1617 9.19096C11.1617 9.0812 11.1904 8.98224 11.248 8.89408C11.3055 8.80592 11.3867 8.73024 11.4916 8.66704C11.5966 8.60384 11.7251 8.5548 11.8774 8.51984C12.0296 8.48496 12.1989 8.46744 12.385 8.46744C12.5203 8.46744 12.6633 8.47744 12.8139 8.49736C12.9645 8.51736 13.1159 8.54816 13.2682 8.58968C13.4205 8.63128 13.5686 8.6836 13.7123 8.74688C13.8562 8.81008 13.989 8.88328 14.1108 8.9664V7.47446C13.8638 7.38129 13.5939 7.31225 13.3011 7.26738C13.0085 7.22246 12.6726 7.2 12.2936 7.2C11.9079 7.2 11.5424 7.24074 11.1972 7.32228C10.852 7.40375 10.5483 7.53102 10.2861 7.704C10.0238 7.87698 9.81658 8.09736 9.66426 8.36512C9.51202 8.63296 9.43586 8.95312 9.43586 9.32568C9.43586 9.80144 9.57546 10.2073 9.85466 10.5432C10.1339 10.8792 10.5576 11.1636 11.1262 11.3965C11.3495 11.4863 11.5576 11.5745 11.7505 11.661C11.9434 11.7474 12.11 11.8373 12.2504 11.9304C12.3909 12.0236 12.5017 12.125 12.583 12.2348C12.6642 12.3446 12.7048 12.4693 12.7048 12.609C12.7048 12.7122 12.6794 12.8078 12.6286 12.8959C12.5779 12.9842 12.5008 13.0606 12.3976 13.1254C12.2944 13.1903 12.1659 13.2411 12.0119 13.2777C11.8579 13.3142 11.6777 13.3326 11.4713 13.3326C11.1194 13.3326 10.7708 13.2718 10.4256 13.1505C10.0806 13.029 9.76074 12.8469 9.46634 12.6041V14.2008Z" fill="#3178C6"/>
</g>
</g>
<defs>
<clipPath id="clip0_1_1332">
<rect width="16" height="16" fill="white"/>
</clipPath>
</defs>
</svg>
