<svg width="16" height="16" viewBox="0 0 16 16" fill="none" xmlns="http://www.w3.org/2000/svg">
<g clip-path="url(#clip0_348_3955)">
<path fill-rule="evenodd" clip-rule="evenodd" d="M0.607185 0H15.3933C15.7284 0 16.0001 0.268629 16.0001 0.6V15.4C16.0001 15.7314 15.7284 16 15.3933 16H0.607185C0.272048 16 0.000366211 15.7314 0.000366211 15.4V0.6C0.000366211 0.268629 0.272048 0 0.607185 0ZM8.81365 8.51225V7.2H3.05463V8.51225H5.11069V14.3551H6.7475V8.51225H8.81365ZM9.4662 14.2008C9.73014 14.3338 10.0423 14.4337 10.4027 14.5002C10.7631 14.5667 11.1429 14.6 11.5423 14.6C11.9314 14.6 12.3011 14.5634 12.6514 14.4902C13.0016 14.417 13.3087 14.2964 13.5726 14.1284C13.8365 13.9604 14.0455 13.7409 14.1995 13.4698C14.3535 13.1986 14.4305 12.8635 14.4305 12.4643C14.4305 12.1749 14.3865 11.9213 14.2985 11.7034C14.2105 11.4855 14.0836 11.2917 13.9178 11.122C13.752 10.9524 13.5532 10.8002 13.3213 10.6655C13.0895 10.5308 12.8282 10.4035 12.5372 10.2838C12.3239 10.1972 12.1327 10.1132 11.9636 10.0318C11.7943 9.95028 11.6505 9.86708 11.5321 9.78228C11.4136 9.69742 11.3223 9.60763 11.258 9.5128C11.1937 9.41803 11.1616 9.31071 11.1616 9.19095C11.1616 9.08117 11.1903 8.98222 11.2479 8.89409C11.3054 8.80591 11.3866 8.73022 11.4915 8.66702C11.5964 8.60382 11.725 8.55477 11.8773 8.51982C12.0295 8.48492 12.1988 8.46745 12.3848 8.46745C12.5202 8.46745 12.6632 8.47742 12.8138 8.49735C12.9644 8.51735 13.1158 8.54812 13.2681 8.58966C13.4204 8.63126 13.5684 8.68363 13.7122 8.74689C13.8561 8.81009 13.9889 8.88326 14.1107 8.9664V7.47446C13.8636 7.38129 13.5938 7.31225 13.301 7.26738C13.0084 7.22246 12.6725 7.2 12.2935 7.2C11.9077 7.2 11.5423 7.24074 11.1971 7.32228C10.8519 7.40375 10.5482 7.53102 10.286 7.704C10.0237 7.87698 9.81642 8.09735 9.66417 8.36511C9.51186 8.63292 9.43574 8.95311 9.43574 9.32566C9.43574 9.80142 9.57531 10.2073 9.85451 10.5432C10.1337 10.8792 10.5575 11.1636 11.126 11.3965C11.3494 11.4863 11.5575 11.5745 11.7504 11.661C11.9432 11.7474 12.1099 11.8373 12.2503 11.9304C12.3908 12.0236 12.5016 12.125 12.5828 12.2348C12.664 12.3446 12.7047 12.4693 12.7047 12.609C12.7047 12.7122 12.6792 12.8078 12.6285 12.8959C12.5777 12.9841 12.5007 13.0606 12.3975 13.1255C12.2943 13.1903 12.1658 13.2411 12.0118 13.2777C11.8578 13.3143 11.6776 13.3326 11.4712 13.3326C11.1192 13.3326 10.7707 13.2719 10.4255 13.1505C10.0804 13.029 9.7606 12.8469 9.4662 12.6041V14.2008Z" fill="#FF00FF"/>
</g>
<defs>
<clipPath id="clip0_348_3955">
<rect width="16" height="16" fill="white"/>
</clipPath>
</defs>
</svg>
