<svg width="16" height="16" viewBox="0 0 16 16" fill="none" xmlns="http://www.w3.org/2000/svg">
<path fill-rule="evenodd" clip-rule="evenodd" d="M10.0025 6.66001C9.72941 6.72936 9.50459 6.78906 9.27567 6.84984C9.09314 6.89832 8.90797 6.94749 8.6937 7.00278L8.68082 7.00623C8.57612 7.03436 8.5652 7.03729 8.46778 6.92488C8.35093 6.79245 8.26524 6.70675 8.10164 6.62885C7.61086 6.38736 7.13566 6.45747 6.69162 6.74571C6.16188 7.08847 5.88923 7.59484 5.89702 8.22584C5.90481 8.84906 6.33327 9.36321 6.94869 9.44891C7.47843 9.51902 7.92247 9.33205 8.27303 8.93475C8.32503 8.8712 8.37274 8.80336 8.4257 8.72806C8.44415 8.70183 8.46324 8.67469 8.48336 8.64652H6.97985C6.81626 8.64652 6.77731 8.54524 6.83184 8.41281C6.93311 8.17131 7.12008 7.76622 7.22914 7.56368C7.25251 7.51694 7.30704 7.43903 7.4239 7.43903H9.93094C10.0435 7.08233 10.2262 6.74528 10.4699 6.42636C11.0386 5.6785 11.7241 5.28899 12.6511 5.12539C13.4458 4.98517 14.1936 5.06307 14.8714 5.5227C15.4868 5.94337 15.8685 6.51205 15.9698 7.25991C16.1022 8.31159 15.7984 9.16851 15.0739 9.90079C14.5597 10.4227 13.9287 10.7499 13.2043 10.8979C13.0661 10.9235 12.9279 10.9357 12.7919 10.9476C12.7209 10.9538 12.6505 10.96 12.581 10.968C11.8721 10.9525 11.2255 10.7499 10.6802 10.2825C10.2967 9.95097 10.0325 9.54348 9.9012 9.0691C9.8101 9.25309 9.70116 9.42929 9.57399 9.59692C9.0131 10.337 8.28082 10.7966 7.35378 10.9213C6.59034 11.0225 5.88143 10.8745 5.25822 10.4071C4.68174 9.97085 4.35455 9.39438 4.26886 8.67768C4.16759 7.82854 4.41688 7.0651 4.93103 6.39515C5.48413 5.67066 6.21641 5.21103 7.11229 5.04744C7.84457 4.91501 8.54568 5.0007 9.17669 5.42916C9.58957 5.70182 9.8856 6.07575 10.0804 6.52758C10.1271 6.59769 10.0959 6.63664 10.0025 6.66001ZM14.4297 7.7375C14.426 7.67405 14.4228 7.61889 14.4117 7.56373C14.2715 6.7925 13.5626 6.35625 12.8225 6.52763C12.098 6.69123 11.6306 7.15085 11.4592 7.88313C11.319 8.49076 11.6151 9.10619 12.1759 9.35548C12.6044 9.54244 13.0329 9.51907 13.4458 9.30873C14.0612 8.98934 14.3962 8.49076 14.4351 7.82081C14.4328 7.79126 14.4312 7.76365 14.4297 7.7375Z" fill="#FF00FF"/>
<path d="M1.18399 6.76135C1.16841 6.78472 1.1762 6.8003 1.20736 6.8003L4.02741 6.80809C4.05078 6.80809 4.08973 6.78472 4.10531 6.76135L4.23775 6.55881C4.25333 6.53543 4.24554 6.51206 4.21438 6.51206H1.43327C1.40211 6.51206 1.36316 6.52764 1.34758 6.55102L1.18399 6.76135Z" fill="#FF00FF"/>
<path d="M0.00779021 7.47803C-0.00779021 7.5014 0 7.51698 0.0311608 7.51698L3.71593 7.50919C3.74709 7.50919 3.77825 7.49361 3.78604 7.46245L3.84836 7.27548C3.85615 7.25211 3.84057 7.22874 3.80941 7.22874H0.257077C0.225916 7.22874 0.186965 7.24432 0.171385 7.26769L0.00779021 7.47803Z" fill="#FF00FF"/>
<path d="M1.91634 8.23379C1.88518 8.23379 1.87739 8.21042 1.89297 8.18704L2.00203 7.99229C2.01761 7.96892 2.04878 7.94555 2.07994 7.94555H3.63798C3.66914 7.94555 3.68472 7.96892 3.68472 8.00008L3.66914 8.18704C3.66914 8.21821 3.63798 8.24158 3.61461 8.24158L1.91634 8.23379Z" fill="#FF00FF"/>
</svg>
