<svg width="16" height="16" viewBox="0 0 16 16" fill="none" xmlns="http://www.w3.org/2000/svg">
<g clip-path="url(#clip0_348_3944)">
<path fill-rule="evenodd" clip-rule="evenodd" d="M0 8.00007C0 3.58171 3.58169 0 8 0C12.4182 0 16 3.58171 16 8.00007C16 12.4183 12.4182 16 8 16C3.58169 16 0 12.4183 0 8.00007ZM0.5 8.00006C0.5 3.85785 3.85783 0.5 8 0.5C12.142 0.5 15.5 3.85785 15.5 8.00006C15.5 12.1421 12.142 15.5 8 15.5C3.85783 15.5 0.5 12.1421 0.5 8.00006Z" fill="#2B2C2A"/>
<path fill-rule="evenodd" clip-rule="evenodd" d="M11.5821 10.3839C11.2934 10.3824 11.18 10.2143 11.18 10.2143C11.1644 10.1363 11.1375 9.00777 11.1279 7.87868C11.1182 6.70907 11.1267 5.53839 11.186 5.5349C11.519 4.91607 12.5813 3.66808 12.5813 3.66808C10.5972 4.0554 9.51513 5.34271 9.51513 5.34271C9.19593 5.09349 8.544 5.13496 8.544 5.13496C8.84913 5.30124 9.15439 5.78559 9.15439 6.18687V10.1313C9.15439 10.1313 8.48839 10.7125 7.97502 10.7125C7.67165 10.7125 7.48452 10.5481 7.38222 10.4136C7.31145 10.3204 7.28128 10.2419 7.28128 10.2419V5.37036C7.21836 5.41532 7.12878 5.45303 7.03691 5.45249C6.92785 5.45196 6.81513 5.39787 6.73841 5.23857C6.6805 5.11886 6.64329 4.93942 6.64329 4.67825C6.64329 3.7788 7.67003 3.18359 7.67003 3.18359C6.36576 3.52958 5.15865 4.1939 3.54926 6.02086C1.93987 7.84768 2.24513 9.3563 2.24513 9.3563C2.24513 9.3563 2.68909 8.31821 3.75751 7.22496C4.26344 6.70706 4.64177 6.5338 4.8998 6.53326C5.1868 6.53246 5.32509 6.7449 5.32509 6.93427V10.6433C5.32509 11.0092 5.08707 11.089 4.8676 11.0852C4.68019 11.0817 4.50673 11.0172 4.50673 11.0172C5.60261 12.5948 8.2248 12.8163 8.2248 12.8163L9.37644 11.5984L9.40336 11.6213L10.4585 12.5116C12.3871 11.3769 13.3167 9.27323 13.3167 9.27323C12.4564 10.1754 11.9077 10.3857 11.5821 10.3839Z" fill="#2B2C2A"/>
</g>
<defs>
<clipPath id="clip0_348_3944">
<rect width="16" height="16" fill="white"/>
</clipPath>
</defs>
</svg>
