<svg width="16" height="16" viewBox="0 0 16 16" fill="none" xmlns="http://www.w3.org/2000/svg">
<g clip-path="url(#clip0_1406_3313)">
<path fill-rule="evenodd" clip-rule="evenodd" d="M11.5823 10.384C11.2935 10.3825 11.1801 10.2143 11.1801 10.2143C11.1646 10.1364 11.1376 9.00786 11.128 7.87875C11.1183 6.70914 11.1268 5.53845 11.1861 5.53496C11.5191 4.91614 12.5814 3.66814 12.5814 3.66814C10.5973 4.05546 9.51522 5.34277 9.51522 5.34277C9.19602 5.09355 8.5441 5.13502 8.5441 5.13502C8.84922 5.3013 9.1545 5.78566 9.1545 6.18694V10.1314C9.1545 10.1314 8.4885 10.7125 7.97515 10.7125C7.67178 10.7125 7.48464 10.5481 7.38235 10.4136C7.31158 10.3205 7.2814 10.242 7.2814 10.242V5.37042C7.21848 5.41538 7.12891 5.45309 7.03703 5.45256C6.92797 5.45202 6.81526 5.39794 6.73854 5.23863C6.68062 5.11892 6.64341 4.93949 6.64341 4.67832C6.64341 3.77886 7.67015 3.18365 7.67015 3.18365C6.36589 3.52964 5.15878 4.19397 3.54939 6.02093C1.93999 7.84774 2.24526 9.35634 2.24526 9.35634C2.24526 9.35634 2.68921 8.31825 3.75763 7.22502C4.26356 6.70712 4.64189 6.53386 4.89993 6.53333C5.18692 6.53252 5.32521 6.74497 5.32521 6.93434V10.6434C5.32521 11.0093 5.08719 11.0891 4.86772 11.0852C4.68031 11.0817 4.50685 11.0173 4.50685 11.0173C5.60273 12.5949 8.2249 12.8163 8.2249 12.8163L9.37658 11.5984L9.40346 11.6214L10.4587 12.5117C12.3872 11.377 13.3168 9.2733 13.3168 9.2733C12.4565 10.1755 11.9079 10.3857 11.5823 10.384Z" fill="#FF00FF"/>
<path fill-rule="evenodd" clip-rule="evenodd" d="M8 0.352025C10.0428 0.352025 11.9634 1.1476 13.4078 2.59207C14.8524 4.03654 15.6478 5.95717 15.6478 8.00008C15.6478 10.0428 14.8524 11.9634 13.4078 13.4079C11.9634 14.8524 10.0428 15.648 8 15.648C5.95707 15.648 4.0366 14.8524 2.59202 13.4079C1.14758 11.9634 0.351944 10.0428 0.351944 8.00008C0.351944 5.95717 1.14758 4.03654 2.59202 2.59207C4.0366 1.1476 5.95707 0.352025 8 0.352025ZM8 0C3.58169 0 0 3.58171 0 8.00008C0 12.4183 3.58169 16 8 16C12.4182 16 16 12.4183 16 8.00008C16 3.58171 12.4182 0 8 0Z" fill="#FF00FF"/>
</g>
<defs>
<clipPath id="clip0_1406_3313">
<rect width="16" height="16" fill="white"/>
</clipPath>
</defs>
</svg>
