<svg width="16" height="16" viewBox="0 0 16 16" fill="none" xmlns="http://www.w3.org/2000/svg">
<g clip-path="url(#clip0_1_1351)">
<path fill-rule="evenodd" clip-rule="evenodd" d="M11.5821 10.384C11.2934 10.3825 11.18 10.2143 11.18 10.2143C11.1645 10.1364 11.1375 9.00784 11.1279 7.87874C11.1181 6.70912 11.1267 5.53843 11.186 5.53494C11.5189 4.91612 12.5813 3.66813 12.5813 3.66813C10.5972 4.05545 9.5151 5.34276 9.5151 5.34276C9.1959 5.09354 8.54398 5.13501 8.54398 5.13501C8.8491 5.30129 9.15438 5.78564 9.15438 6.18692V10.1314C9.15438 10.1314 8.48838 10.7125 7.97502 10.7125C7.67166 10.7125 7.48452 10.5481 7.38222 10.4136C7.31146 10.3205 7.28128 10.242 7.28128 10.242V5.37041C7.21836 5.41537 7.12878 5.45308 7.03691 5.45254C6.92785 5.45201 6.81514 5.39792 6.73842 5.23862C6.6805 5.1189 6.64329 4.93947 6.64329 4.6783C6.64329 3.77885 7.67003 3.18364 7.67003 3.18364C6.36577 3.52962 5.15866 4.19395 3.54926 6.02091C1.93987 7.84773 2.24514 9.35632 2.24514 9.35632C2.24514 9.35632 2.68909 8.31824 3.7575 7.22501C4.26344 6.7071 4.64177 6.53385 4.89981 6.53331C5.1868 6.5325 5.32509 6.74495 5.32509 6.93432V10.6434C5.32509 11.0093 5.08707 11.0891 4.8676 11.0852C4.68019 11.0817 4.50673 11.0173 4.50673 11.0173C5.60261 12.5949 8.22478 12.8163 8.22478 12.8163L9.37646 11.5984L9.40334 11.6214L10.4585 12.5117C12.3871 11.377 13.3167 9.27328 13.3167 9.27328C12.4564 10.1754 11.9077 10.3857 11.5821 10.384Z" fill="#2B2C2A"/>
<path fill-rule="evenodd" clip-rule="evenodd" d="M8 0.352025C10.0428 0.352025 11.9634 1.1476 13.4078 2.59207C14.8524 4.03654 15.6478 5.95717 15.6478 8.00008C15.6478 10.0428 14.8524 11.9634 13.4078 13.4079C11.9634 14.8524 10.0428 15.648 8 15.648C5.95707 15.648 4.0366 14.8524 2.59202 13.4079C1.14758 11.9634 0.351944 10.0428 0.351944 8.00008C0.351944 5.95717 1.14758 4.03654 2.59202 2.59207C4.0366 1.1476 5.95707 0.352025 8 0.352025ZM8 0C3.58169 0 0 3.58171 0 8.00008C0 12.4183 3.58169 16 8 16C12.4182 16 16 12.4183 16 8.00008C16 3.58171 12.4182 0 8 0Z" fill="#2B2C2A"/>
</g>
<defs>
<clipPath id="clip0_1_1351">
<rect width="16" height="16" fill="white"/>
</clipPath>
</defs>
</svg>
