<svg width="16" height="16" viewBox="0 0 16 16" fill="none" xmlns="http://www.w3.org/2000/svg">
<path d="M5.87271 8.38804C6.48888 8.77574 7.21825 9 8 9C8.78175 9 9.51112 8.77574 10.1273 8.38804M5.87271 8.38804C4.74765 7.68015 4 6.42739 4 5C4 2.79086 5.79086 1 8 1C10.2091 1 12 2.79086 12 5C12 6.42739 11.2523 7.68015 10.1273 8.38804M5.87271 8.38804C3.60905 9.24657 2 11.4354 2 14C2 14.3407 2.0284 14.6748 2.08296 15M10.1273 8.38804C12.3909 9.24657 14 11.4354 14 14C14 14.3407 13.9716 14.6748 13.917 15" stroke="#FF00FF" stroke-width="1.5" stroke-linecap="round" stroke-linejoin="round"/>
<path d="M12 5C12 7.20914 10.2091 9 8 9C5.79086 9 4 7.20914 4 5C4 2.79086 5.79086 1 8 1C10.2091 1 12 2.79086 12 5Z" stroke="#FF00FF" stroke-width="1.5" stroke-linecap="round" stroke-linejoin="round"/>
</svg>
