<svg width="20" height="20" viewBox="0 0 20 20" fill="none" xmlns="http://www.w3.org/2000/svg">
<g clip-path="url(#clip0_341_2774)">
<path fill-rule="evenodd" clip-rule="evenodd" d="M10.7367 0.802817C10.3404 0.371066 9.65947 0.371066 9.2632 0.802817L7.74504 2.4569C7.52481 2.69685 7.20153 2.81452 6.87859 2.77227L4.65238 2.48101C4.0713 2.40499 3.54968 2.84268 3.52365 3.42814L3.4239 5.67109C3.40943 5.99647 3.23741 6.29441 2.96287 6.46962L1.07028 7.67749C0.576277 7.99276 0.458036 8.66334 0.814416 9.12856L2.17975 10.9109C2.37781 11.1694 2.43755 11.5082 2.33987 11.8189L1.66646 13.9607C1.49069 14.5198 1.83115 15.1095 2.40319 15.2368L4.59475 15.7245C4.91267 15.7953 5.17621 16.0164 5.30109 16.3172L6.16196 18.3908C6.38667 18.932 7.02653 19.1649 7.54656 18.8947L9.5389 17.8596C9.82791 17.7095 10.172 17.7095 10.461 17.8596L12.4533 18.8947C12.9734 19.1649 13.6132 18.932 13.8379 18.3908L14.6988 16.3172C14.8237 16.0164 15.0872 15.7953 15.4051 15.7245L17.5967 15.2368C18.1687 15.1095 18.5092 14.5198 18.3334 13.9607L17.66 11.8189C17.5623 11.5082 17.6221 11.1694 17.8201 10.9109L19.1855 9.12856C19.5418 8.66334 19.4236 7.99276 18.9296 7.67749L17.037 6.46962C16.7625 6.29441 16.5904 5.99647 16.576 5.67109L16.4762 3.42814C16.4502 2.84268 15.9286 2.40499 15.3475 2.48101L13.1213 2.77227C12.7983 2.81452 12.4751 2.69685 12.2548 2.4569L10.7367 0.802817ZM8.99983 14.4143L15.707 7.70724L14.2927 6.29303L8.99983 11.5859L6.70693 9.29303L5.29272 10.7072L8.99983 14.4143Z" fill="#FF00FF"/>
</g>
<defs>
<clipPath id="clip0_341_2774">
<rect width="20" height="20" fill="white"/>
</clipPath>
</defs>
</svg>
