<svg width="16" height="16" viewBox="0 0 16 16" fill="none" xmlns="http://www.w3.org/2000/svg">
<g clip-path="url(#clip0_1406_3308)">
<mask id="mask0_1406_3308" style="mask-type:luminance" maskUnits="userSpaceOnUse" x="0" y="0" width="16" height="16">
<path d="M16 0H0V16H16V0Z" fill="white"/>
</mask>
<g mask="url(#mask0_1406_3308)">
<path d="M15.4341 1.73319L12.1394 0.146852C11.7581 -0.0367655 11.3023 0.0406887 11.003 0.339981L0.217365 10.1739C-0.0727413 10.4385 -0.0724078 10.8952 0.218084 11.1593L1.09909 11.9602C1.33658 12.1761 1.69424 12.1919 1.94994 11.998L14.9383 2.14473C15.3741 1.81417 15.9999 2.12495 15.9999 2.6719V2.63364C15.9999 2.24972 15.78 1.89974 15.4341 1.73319Z" fill="#0065A9"/>
<path d="M15.4341 14.2707L12.1394 15.8571C11.7581 16.0406 11.3023 15.9632 11.003 15.664L0.217365 5.82994C-0.0727413 5.56543 -0.0724078 5.10869 0.218084 4.84461L1.09909 4.04369C1.33658 3.82779 1.69424 3.8119 1.94994 4.00588L14.9383 13.8592C15.3741 14.1897 15.9999 13.8789 15.9999 13.332V13.3703C15.9999 13.7541 15.78 14.1041 15.4341 14.2707Z" fill="#007ACC"/>
<path d="M12.1397 15.8573C11.7583 16.0407 11.3025 15.9632 11.0032 15.6639C11.372 16.0327 12.0025 15.7714 12.0025 15.2499V0.753841C12.0025 0.232283 11.372 -0.0289166 11.0032 0.339882C11.3025 0.0405622 11.7583 -0.0370013 12.1397 0.146455L15.4338 1.73062C15.7801 1.89707 16.0001 2.24718 16.0001 2.63127V13.3725C16.0001 13.7566 15.7801 14.1067 15.4338 14.2732L12.1397 15.8573Z" fill="#1F9CF0"/>
<path style="mix-blend-mode:overlay" opacity="0.25" fill-rule="evenodd" clip-rule="evenodd" d="M11.339 15.8878C11.5908 15.9859 11.878 15.9797 12.1322 15.8573L15.4243 14.2732C15.7702 14.1067 15.9902 13.7566 15.9902 13.3725V2.63126C15.9902 2.24718 15.7702 1.89707 15.4243 1.73061L12.1322 0.146455C11.7986 -0.014069 11.4082 0.0252492 11.1154 0.238109C11.0736 0.268516 11.0337 0.302467 10.9963 0.339882L4.69394 6.08966L1.94876 4.00584C1.69322 3.81186 1.33576 3.82775 1.09842 4.04365L0.217952 4.84457C-0.0723641 5.10866 -0.072697 5.56538 0.217233 5.8299L2.59795 8.0019L0.217233 10.1738C-0.072697 10.4384 -0.0723641 10.8951 0.217952 11.1592L1.09842 11.9601C1.33576 12.176 1.69322 12.1919 1.94876 11.9979L4.69394 9.91406L10.9963 15.6639C11.096 15.7637 11.2131 15.8388 11.339 15.8878ZM11.9951 4.3719L7.21305 8.0019L11.9951 11.6318V4.3719Z" fill="url(#paint0_linear_1406_3308)"/>
</g>
</g>
<defs>
<linearGradient id="paint0_linear_1406_3308" x1="7.99514" y1="0.0479736" x2="7.99514" y2="15.9557" gradientUnits="userSpaceOnUse">
<stop stop-color="white"/>
<stop offset="1" stop-color="white" stop-opacity="0"/>
</linearGradient>
<clipPath id="clip0_1406_3308">
<rect width="16" height="16" fill="white"/>
</clipPath>
</defs>
</svg>
