<svg width="16" height="16" viewBox="0 0 16 16" fill="none" xmlns="http://www.w3.org/2000/svg">
<g clip-path="url(#clip0_348_3750)">
<path opacity="0.75" d="M15.4341 14.2709L12.1394 15.8572C11.7581 16.0408 11.3023 15.9634 11.003 15.6641L0.217365 5.83012C-0.0727413 5.56562 -0.0724078 5.10888 0.218084 4.84479L1.09909 4.04388C1.33658 3.82798 1.69424 3.81208 1.94994 4.00607L14.9383 13.8593C15.3741 14.1899 15.9999 13.8791 15.9999 13.3322V13.3704C15.9999 13.7543 15.78 14.1043 15.4341 14.2709Z" fill="#FF00FF"/>
<path d="M12.1396 15.8572C11.7582 16.0406 11.3024 15.9631 11.0031 15.6638C11.3718 16.0325 12.0024 15.7713 12.0024 15.2498V0.753719C12.0024 0.232161 11.3718 -0.0290388 11.0031 0.33976C11.3024 0.0404401 11.7582 -0.0371233 12.1396 0.146333L15.4337 1.73049C15.7799 1.89695 16 2.24706 16 2.63115V13.3724C16 13.7565 15.7799 14.1066 15.4337 14.2731L12.1396 15.8572Z" fill="#FF00FF"/>
<g opacity="0.4">
<path d="M11.7304 15.9552C11.5968 15.9592 11.4635 15.9362 11.339 15.8877C11.2131 15.8386 11.096 15.7635 10.9963 15.6638L4.69394 9.91395L1.94876 11.9978C1.69321 12.1917 1.33576 12.1759 1.09842 11.96L0.217952 11.1591C-0.072364 10.895 -0.0726969 10.4383 0.217233 10.1737L2.59795 8.00175L0.217233 5.82978L11.003 15.6637C11.1997 15.8604 11.464 15.9613 11.7304 15.9552Z" fill="#FF00FF"/>
<path d="M15.985 13.4749C15.9885 13.4411 15.9903 13.4069 15.9903 13.3724V2.63114C15.9903 2.24705 15.7703 1.89695 15.4243 1.73049L12.1322 0.146333C11.7986 -0.0141911 11.4082 0.0251272 11.1154 0.237987C11.0736 0.268394 11.0337 0.302345 10.9963 0.33976L4.69525 6.08835L7.21525 8.00007L11.9951 4.37178V11.6262L14.9383 13.859C15.3344 14.1594 15.8876 13.93 15.985 13.4749Z" fill="#FF00FF"/>
</g>
</g>
<defs>
<clipPath id="clip0_348_3750">
<rect width="16" height="16" fill="white"/>
</clipPath>
</defs>
</svg>
