<svg width="16" height="16" viewBox="0 0 16 16" fill="none" xmlns="http://www.w3.org/2000/svg">
<g clip-path="url(#clip0_1_1381)">
<path opacity="0.75" d="M15.4341 14.2707L12.1394 15.8571C11.7581 16.0406 11.3023 15.9632 11.003 15.664L0.217365 5.82998C-0.0727413 5.56547 -0.0724078 5.10873 0.218084 4.84465L1.09909 4.04373C1.33658 3.82783 1.69424 3.81194 1.94994 4.00592L14.9383 13.8592C15.3741 14.1898 15.9999 13.879 15.9999 13.332V13.3703C15.9999 13.7542 15.78 14.1042 15.4341 14.2707Z" fill="#FF00FF"/>
<path d="M12.1397 15.8573C11.7582 16.0407 11.3025 15.9632 11.0031 15.6639C11.3719 16.0327 12.0025 15.7714 12.0025 15.2499V0.753864C12.0025 0.232306 11.3719 -0.0288938 11.0031 0.339905C11.3025 0.0405851 11.7582 -0.0369784 12.1397 0.146478L15.4338 1.73064C15.78 1.89709 16.0001 2.24721 16.0001 2.63129V13.3726C16.0001 13.7566 15.78 14.1067 15.4338 14.2732L12.1397 15.8573Z" fill="#FF00FF"/>
<path opacity="0.4" fill-rule="evenodd" clip-rule="evenodd" d="M11.7304 15.9554C11.5968 15.9594 11.4635 15.9363 11.339 15.8878C11.2131 15.8388 11.096 15.7637 10.9963 15.6639L4.69394 9.91408L1.94876 11.9979C1.69322 12.1919 1.33576 12.176 1.09842 11.9601L0.217952 11.1592C-0.0723641 10.8951 -0.072697 10.4384 0.217233 10.1738L2.59795 8.00192L0.217233 5.82993L11.003 15.6639C11.1998 15.8606 11.4641 15.9614 11.7304 15.9554ZM15.985 13.4751C15.9885 13.4413 15.9902 13.407 15.9902 13.3726V2.63129C15.9902 2.2472 15.7702 1.89709 15.4243 1.73063L12.1322 0.146478C11.7986 -0.0140461 11.4082 0.0252721 11.1154 0.238132C11.0736 0.268539 11.0337 0.30249 10.9963 0.339905L4.69525 6.08849L7.21526 8.00024L11.9951 4.37193V11.6263L14.9383 13.8591C15.3344 14.1596 15.8876 13.9302 15.985 13.4751Z" fill="#FF00FF"/>
</g>
<defs>
<clipPath id="clip0_1_1381">
<rect width="16" height="16" fill="white"/>
</clipPath>
</defs>
</svg>
