<svg width="16" height="16" viewBox="0 0 16 16" fill="none" xmlns="http://www.w3.org/2000/svg">
<g clip-path="url(#clip0_348_3739)">
<path d="M15.4341 1.73331L12.1394 0.146975C11.7581 -0.0366435 11.3023 0.0408107 11.003 0.340103L0.217365 10.1741C-0.0727413 10.4386 -0.0724078 10.8953 0.218084 11.1594L1.09909 11.9603C1.33658 12.1762 1.69424 12.1921 1.94994 11.9982L14.9383 2.14485C15.3741 1.81429 15.9999 2.12507 15.9999 2.67202V2.63376C15.9999 2.24984 15.78 1.89986 15.4341 1.73331Z" fill="#0065A9"/>
<path d="M15.4341 14.2709L12.1394 15.8572C11.7581 16.0408 11.3023 15.9634 11.003 15.6641L0.217365 5.83012C-0.0727413 5.56562 -0.0724078 5.10888 0.218084 4.84479L1.09909 4.04388C1.33658 3.82798 1.69424 3.81208 1.94994 4.00607L14.9383 13.8593C15.3741 14.1899 15.9999 13.8791 15.9999 13.3322V13.3704C15.9999 13.7543 15.78 14.1043 15.4341 14.2709Z" fill="#007ACC"/>
<path d="M12.1396 15.8572C11.7581 16.0406 11.3023 15.9631 11.003 15.6638C11.3718 16.0325 12.0024 15.7713 12.0024 15.2498V0.753719C12.0024 0.232161 11.3718 -0.0290388 11.003 0.33976C11.3023 0.0404401 11.7581 -0.0371233 12.1396 0.146333L15.4337 1.73049C15.7799 1.89695 16 2.24706 16 2.63115V13.3724C16 13.7565 15.7799 14.1066 15.4337 14.2731L12.1396 15.8572Z" fill="#1F9CF0"/>
<path style="mix-blend-mode:overlay" opacity="0.25" fill-rule="evenodd" clip-rule="evenodd" d="M11.339 15.8877C11.5908 15.9857 11.878 15.9795 12.1322 15.8572L15.4243 14.273C15.7703 14.1066 15.9903 13.7565 15.9903 13.3724V2.63114C15.9903 2.24705 15.7703 1.89695 15.4243 1.73049L12.1322 0.146333C11.7986 -0.0141911 11.4082 0.0251272 11.1154 0.237987C11.0736 0.268394 11.0337 0.302345 10.9963 0.33976L4.69394 6.08954L1.94876 4.00572C1.69321 3.81174 1.33576 3.82763 1.09842 4.04352L0.217952 4.84444C-0.0723641 5.10853 -0.072697 5.56526 0.217233 5.82978L2.59795 8.00175L0.217233 10.1737C-0.072697 10.4383 -0.0723641 10.895 0.217952 11.1591L1.09842 11.96C1.33576 12.1759 1.69321 12.1917 1.94876 11.9978L4.69394 9.91395L10.9963 15.6638C11.096 15.7635 11.2131 15.8386 11.339 15.8877ZM11.9951 4.37178L7.21305 8.00175L11.9951 11.6317V4.37178Z" fill="url(#paint0_linear_348_3739)"/>
</g>
<defs>
<linearGradient id="paint0_linear_348_3739" x1="7.99513" y1="0.0478515" x2="7.99513" y2="15.9556" gradientUnits="userSpaceOnUse">
<stop stop-color="white"/>
<stop offset="1" stop-color="white" stop-opacity="0"/>
</linearGradient>
<clipPath id="clip0_348_3739">
<rect width="16" height="16" fill="white"/>
</clipPath>
</defs>
</svg>
