<svg width="16" height="16" viewBox="0 0 16 16" fill="none" xmlns="http://www.w3.org/2000/svg">
<g clip-path="url(#clip0_1406_3309)">
<path opacity="0.75" d="M15.4341 14.2707L12.1394 15.8571C11.7581 16.0407 11.3023 15.9632 11.003 15.664L0.217365 5.83C-0.0727413 5.5655 -0.0724078 5.10875 0.218084 4.84467L1.09909 4.04375C1.33658 3.82786 1.69424 3.81196 1.94994 4.00594L14.9383 13.8592C15.3741 14.1898 15.9999 13.879 15.9999 13.332V13.3703C15.9999 13.7542 15.78 14.1042 15.4341 14.2707Z" fill="#FF00FF"/>
<path d="M12.1397 15.8573C11.7583 16.0407 11.3025 15.9632 11.0032 15.6639C11.372 16.0327 12.0025 15.7714 12.0025 15.2499V0.753841C12.0025 0.232283 11.372 -0.0289166 11.0032 0.339882C11.3025 0.0405622 11.7583 -0.0370013 12.1397 0.146455L15.4338 1.73062C15.7801 1.89707 16.0001 2.24718 16.0001 2.63127V13.3725C16.0001 13.7566 15.7801 14.1067 15.4338 14.2732L12.1397 15.8573Z" fill="#FF00FF"/>
<path opacity="0.4" fill-rule="evenodd" clip-rule="evenodd" d="M11.7304 15.9553C11.5968 15.9593 11.4635 15.9363 11.339 15.8878C11.2131 15.8388 11.096 15.7637 10.9963 15.6639L4.69394 9.91406L1.94876 11.9979C1.69322 12.1919 1.33576 12.176 1.09842 11.9601L0.217952 11.1592C-0.0723641 10.8951 -0.072697 10.4384 0.217233 10.1738L2.59795 8.0019L0.217233 5.8299L11.003 15.6639C11.1998 15.8605 11.4641 15.9614 11.7304 15.9553ZM15.985 13.4751C15.9885 13.4413 15.9902 13.407 15.9902 13.3725V2.63126C15.9902 2.24718 15.7702 1.89707 15.4243 1.73061L12.1322 0.146455C11.7986 -0.014069 11.4082 0.0252492 11.1154 0.238109C11.0736 0.268516 11.0337 0.302467 10.9963 0.339882L4.69525 6.08846L7.21526 8.00022L11.9951 4.3719V11.6263L14.9383 13.8591C15.3344 14.1596 15.8876 13.9301 15.985 13.4751Z" fill="#FF00FF"/>
</g>
<defs>
<clipPath id="clip0_1406_3309">
<rect width="16" height="16" fill="white"/>
</clipPath>
</defs>
</svg>
