<svg width="16" height="16" viewBox="0 0 16 16" fill="none" xmlns="http://www.w3.org/2000/svg">
<g clip-path="url(#clip0_1_1385)">
<mask id="mask0_1_1385" style="mask-type:luminance" maskUnits="userSpaceOnUse" x="0" y="0" width="16" height="16">
<path d="M16 0H0V16H16V0Z" fill="white"/>
</mask>
<g mask="url(#mask0_1_1385)">
<path d="M15.4341 1.73322L12.1394 0.146875C11.7581 -0.0367426 11.3023 0.0407115 11.003 0.340004L0.217365 10.174C-0.0727413 10.4385 -0.0724078 10.8952 0.218084 11.1593L1.09909 11.9602C1.33658 12.1761 1.69424 12.192 1.94994 11.998L14.9383 2.14475C15.3741 1.81419 15.9999 2.12498 15.9999 2.67192V2.63366C15.9999 2.24974 15.78 1.89976 15.4341 1.73322Z" fill="#0065A9"/>
<path d="M15.4341 14.2707L12.1394 15.8571C11.7581 16.0406 11.3023 15.9632 11.003 15.664L0.217365 5.82998C-0.0727413 5.56547 -0.0724078 5.10873 0.218084 4.84465L1.09909 4.04373C1.33658 3.82783 1.69424 3.81194 1.94994 4.00592L14.9383 13.8592C15.3741 14.1898 15.9999 13.879 15.9999 13.332V13.3703C15.9999 13.7542 15.78 14.1042 15.4341 14.2707Z" fill="#007ACC"/>
<path d="M12.1397 15.8573C11.7582 16.0407 11.3025 15.9632 11.0031 15.6639C11.3719 16.0327 12.0025 15.7714 12.0025 15.2499V0.753864C12.0025 0.232306 11.3719 -0.0288938 11.0031 0.339905C11.3025 0.0405851 11.7582 -0.0369784 12.1397 0.146478L15.4338 1.73064C15.78 1.89709 16.0001 2.24721 16.0001 2.63129V13.3726C16.0001 13.7566 15.78 14.1067 15.4338 14.2732L12.1397 15.8573Z" fill="#1F9CF0"/>
<path style="mix-blend-mode:overlay" opacity="0.25" fill-rule="evenodd" clip-rule="evenodd" d="M11.339 15.8878C11.5908 15.9859 11.878 15.9797 12.1322 15.8574L15.4243 14.2732C15.7702 14.1067 15.9902 13.7566 15.9902 13.3726V2.63129C15.9902 2.2472 15.7702 1.89709 15.4243 1.73063L12.1322 0.146478C11.7986 -0.0140461 11.4082 0.0252721 11.1154 0.238132C11.0736 0.268539 11.0337 0.30249 10.9963 0.339905L4.69394 6.08969L1.94876 4.00586C1.69322 3.81188 1.33576 3.82777 1.09842 4.04367L0.217952 4.84459C-0.0723641 5.10868 -0.072697 5.56541 0.217233 5.82993L2.59795 8.00192L0.217233 10.1738C-0.072697 10.4384 -0.0723641 10.8951 0.217952 11.1592L1.09842 11.9601C1.33576 12.176 1.69322 12.1919 1.94876 11.9979L4.69394 9.91408L10.9963 15.6639C11.096 15.7637 11.2131 15.8388 11.339 15.8878ZM11.9951 4.37193L7.21305 8.00192L11.9951 11.6318V4.37193Z" fill="url(#paint0_linear_1_1385)"/>
</g>
</g>
<defs>
<linearGradient id="paint0_linear_1_1385" x1="7.99514" y1="0.0479964" x2="7.99514" y2="15.9558" gradientUnits="userSpaceOnUse">
<stop stop-color="white"/>
<stop offset="1" stop-color="white" stop-opacity="0"/>
</linearGradient>
<clipPath id="clip0_1_1385">
<rect width="16" height="16" fill="white"/>
</clipPath>
</defs>
</svg>
