<svg width="20" height="21" viewBox="0 0 20 21" fill="none" xmlns="http://www.w3.org/2000/svg">
<path fill-rule="evenodd" clip-rule="evenodd" d="M11.7066 3.29255C10.9267 2.01642 9.07331 2.01642 8.29345 3.29255L0.859563 15.4571C0.0451307 16.7898 1.00427 18.5 2.56613 18.5H17.4339C18.9958 18.5 19.9549 16.7898 19.1405 15.4571L11.7066 3.29255ZM10.779 12.786L11.059 6.49999H8.91701L9.21101 12.786H10.779ZM9.99501 15.978C9.37901 15.978 8.87501 15.46 8.87501 14.858C8.87501 14.242 9.37901 13.724 9.99501 13.724C10.611 13.724 11.129 14.242 11.129 14.858C11.129 15.46 10.611 15.978 9.99501 15.978Z" fill="#FF00FF"/>
</svg>
