<svg width="16" height="16" viewBox="0 0 16 16" fill="none" xmlns="http://www.w3.org/2000/svg">
<g clip-path="url(#clip0_348_3960)">
<path d="M0 2C0 0.89543 0.89543 0 2 0H14C15.1046 0 16 0.89543 16 2V14C16 15.1046 15.1046 16 14 16H2C0.89543 16 0 15.1046 0 14V2Z" fill="#4353FF"/>
<path d="M10.8361 6.70369C10.8361 6.70369 10.0241 9.24769 9.96407 9.46369C9.94007 9.25169 9.34807 4.67969 9.34807 4.67969C7.96407 4.67969 7.22807 5.66369 6.83607 6.70369C6.83607 6.70369 5.84807 9.25569 5.76807 9.46769C5.76407 9.26769 5.61607 6.72769 5.61607 6.72769C5.53207 5.45169 4.36807 4.67969 3.42407 4.67969L4.56007 11.6037C6.00807 11.5997 6.78807 10.6197 7.19607 9.57569C7.19607 9.57569 8.06407 7.32369 8.10007 7.22369C8.10807 7.31969 8.72407 11.6037 8.72407 11.6037C10.1761 11.6037 10.9601 10.6877 11.3801 9.68369L13.4161 4.67969C11.9801 4.67969 11.2241 5.65969 10.8361 6.70369Z" fill="white"/>
</g>
<defs>
<clipPath id="clip0_348_3960">
<rect width="16" height="16" fill="white"/>
</clipPath>
</defs>
</svg>
