<svg width="16" height="16" viewBox="0 0 16 16" fill="none" xmlns="http://www.w3.org/2000/svg">
<g clip-path="url(#clip0_348_3827)">
<path fill-rule="evenodd" clip-rule="evenodd" d="M1.05898 3.78144L7.72481 0.0107422V2.77805L3.45348 5.12781L3.4194 5.14699L1.05898 3.78144ZM0.779907 4.27994V11.9683L3.15736 10.5964V5.65401L0.779907 4.27994ZM15.2406 4.27994V11.9683L12.8632 10.5964V5.65401L15.2406 4.27994ZM8.29574 16.0479L14.7954 12.371L12.3455 10.9564L8.29574 13.1847V16.0479ZM1.22515 12.371L7.72481 16.0479V13.1847L3.67291 10.9564L1.22515 12.371ZM8.29574 0.0107422L14.9616 3.78144L12.6012 5.14486L12.5671 5.12568L8.29574 2.77805V0.0107422Z" fill="#FF00FF"/>
<path fill-rule="evenodd" clip-rule="evenodd" d="M8.01027 3.27442L3.99885 5.47932L8.01027 7.795L12.0217 5.47932L8.01027 3.27442ZM7.72481 12.5329L3.72829 10.3344V5.98208L7.72481 8.28923V12.5329ZM8.29574 12.5329L12.2923 10.3365V5.98208L8.29574 8.28923V12.5329Z" fill="#FF00FF"/>
</g>
<defs>
<clipPath id="clip0_348_3827">
<rect width="16" height="16" fill="white"/>
</clipPath>
</defs>
</svg>
