<svg width="16" height="16" viewBox="0 0 16 16" fill="none" xmlns="http://www.w3.org/2000/svg">
<g clip-path="url(#clip0_1406_3304)">
<path fill-rule="evenodd" clip-rule="evenodd" d="M1.05821 3.76196L7.70858 0V2.76089L3.44716 5.1052L3.41315 5.12433L1.05821 3.76196ZM0.779785 4.2593V11.9299L3.15173 10.5611V5.63018L0.779785 4.2593ZM15.207 4.2593V11.9299L12.835 10.5611V5.63018L15.207 4.2593ZM8.27815 16L14.7628 12.3316L12.3186 10.9203L8.27815 13.1434V16ZM1.22399 12.3316L7.70858 16V13.1434L3.66607 10.9203L1.22399 12.3316ZM8.27815 0L14.9285 3.76196L12.5736 5.1222L12.5396 5.10308L8.27815 2.76089V0Z" fill="#8ED6FB"/>
<path fill-rule="evenodd" clip-rule="evenodd" d="M7.99375 3.2561L3.9916 5.45589L7.99375 7.7662L11.9959 5.45589L7.99375 3.2561ZM7.70892 12.4931L3.72168 10.2996V5.95748L7.70892 8.25927V12.4931ZM8.27853 12.4931L12.2657 10.3018V5.95748L8.27853 8.25927V12.4931Z" fill="#1C78C0"/>
</g>
<defs>
<clipPath id="clip0_1406_3304">
<rect width="16" height="16" fill="white"/>
</clipPath>
</defs>
</svg>
