<svg width="16" height="16" viewBox="0 0 16 16" fill="none" xmlns="http://www.w3.org/2000/svg">
<g clip-path="url(#clip0_1_1401)">
<path fill-rule="evenodd" clip-rule="evenodd" d="M1.05831 3.76196L7.70867 0V2.76089L3.44725 5.1052L3.41324 5.12433L1.05831 3.76196ZM0.779877 4.2593V11.9299L3.15182 10.5611V5.63018L0.779877 4.2593ZM15.2071 4.2593V11.9299L12.8351 10.5611V5.63018L15.2071 4.2593ZM8.27825 16L14.7629 12.3316L12.3187 10.9203L8.27825 13.1434V16ZM1.22408 12.3316L7.70867 16V13.1434L3.66617 10.9203L1.22408 12.3316ZM8.27825 0L14.9286 3.76196L12.5737 5.1222L12.5397 5.10308L8.27825 2.76089V0Z" fill="#FF00FF"/>
<path fill-rule="evenodd" clip-rule="evenodd" d="M7.99357 3.2561L3.99142 5.45589L7.99357 7.7662L11.9957 5.45589L7.99357 3.2561ZM7.70874 12.4931L3.7215 10.2996V5.95748L7.70874 8.25927V12.4931ZM8.27835 12.4931L12.2656 10.3018V5.95748L8.27835 8.25927V12.4931Z" fill="#FF00FF"/>
</g>
<defs>
<clipPath id="clip0_1_1401">
<rect width="16" height="16" fill="white"/>
</clipPath>
</defs>
</svg>
