<svg width="16" height="16" viewBox="0 0 16 16" fill="none" xmlns="http://www.w3.org/2000/svg">
<g clip-path="url(#clip0_348_3814)">
<path fill-rule="evenodd" clip-rule="evenodd" d="M1.059 3.78144L7.72482 0.0107422V2.77805L3.4535 5.12781L3.41941 5.14699L1.059 3.78144ZM0.779922 4.27994V11.9683L3.15738 10.5964V5.65401L0.779922 4.27994ZM15.2407 4.27994V11.9683L12.8632 10.5964V5.65401L15.2407 4.27994ZM8.29575 16.0479L14.7954 12.371L12.3455 10.9564L8.29575 13.1847V16.0479ZM1.22516 12.371L7.72482 16.0479V13.1847L3.67292 10.9564L1.22516 12.371ZM8.29575 0.0107422L14.9616 3.78144L12.6012 5.14486L12.5671 5.12568L8.29575 2.77805V0.0107422Z" fill="#8ED6FB"/>
<path fill-rule="evenodd" clip-rule="evenodd" d="M8.01028 3.27441L3.99885 5.47931L8.01028 7.79499L12.0217 5.47931L8.01028 3.27441ZM7.72482 12.5329L3.7283 10.3344V5.98207L7.72482 8.28923V12.5329ZM8.29575 12.5329L12.2923 10.3365V5.98207L8.29575 8.28923V12.5329Z" fill="#1C78C0"/>
</g>
<defs>
<clipPath id="clip0_348_3814">
<rect width="16" height="16" fill="white"/>
</clipPath>
</defs>
</svg>
