<svg width="16" height="16" viewBox="0 0 16 16" fill="none" xmlns="http://www.w3.org/2000/svg">
<g clip-path="url(#clip0_1406_3303)">
<mask id="mask0_1406_3303" style="mask-type:luminance" maskUnits="userSpaceOnUse" x="0" y="0" width="16" height="16">
<path d="M16 0H0V16H16V0Z" fill="white"/>
</mask>
<g mask="url(#mask0_1406_3303)">
<path fill-rule="evenodd" clip-rule="evenodd" d="M7.99759 0.00152588C10.119 0.00246398 12.1102 0.828156 13.6077 2.32666C15.105 3.82528 15.9292 5.81729 15.9285 7.93587C15.9266 12.3071 12.3685 15.8643 7.99759 15.8643H7.99418C6.66693 15.8637 5.3627 15.5308 4.20431 14.8991L0 16.0015L1.12514 11.8932C0.431169 10.6908 0.0660634 9.32681 0.0665786 7.92947C0.0683359 3.55802 3.62595 0.00152588 7.99759 0.00152588ZM7.99502 14.5252H7.99759C11.6307 14.5252 14.5878 11.5689 14.5894 7.93537C14.5899 6.17446 13.905 4.51875 12.6604 3.27324C11.4158 2.02772 9.76088 1.34139 8.00008 1.34066C4.364 1.34066 1.40704 4.2966 1.4056 7.93C1.40509 9.17505 1.75346 10.3877 2.41338 11.437L2.57027 11.6863L1.90417 14.1179L4.3991 13.4638L4.63992 13.6065C5.65182 14.207 6.81197 14.5246 7.99502 14.5252ZM5.56951 4.27273C5.71073 4.27851 5.86701 4.28512 6.01544 4.61512C6.11687 4.84068 6.28754 5.26115 6.42356 5.59628C6.52383 5.84332 6.60529 6.044 6.62631 6.08605C6.67586 6.18514 6.7089 6.30084 6.64283 6.43319C6.63293 6.453 6.62377 6.47169 6.61502 6.48955C6.56538 6.59082 6.52891 6.66524 6.44485 6.76361C6.4119 6.80209 6.37783 6.84353 6.34376 6.88498C6.27536 6.96818 6.20695 7.0514 6.14757 7.11066C6.04815 7.20945 5.94494 7.3168 6.06054 7.515C6.17616 7.71338 6.57389 8.36201 7.16299 8.88729C7.79584 9.45153 8.3456 9.69017 8.6248 9.81137C8.6796 9.83521 8.724 9.85449 8.75656 9.87081C8.95472 9.96985 9.0704 9.95337 9.186 9.82089C9.3016 9.68881 9.68112 9.24257 9.81328 9.04441C9.94544 8.84601 10.0775 8.87897 10.2592 8.94505C10.4409 9.01113 11.4151 9.49065 11.6133 9.58969C11.652 9.60905 11.6881 9.62649 11.7216 9.64265C11.8599 9.70937 11.9533 9.75449 11.9932 9.82089C12.0427 9.90385 12.0427 10.3004 11.8775 10.7631C11.7124 11.2259 10.9034 11.6721 10.54 11.7051C10.505 11.7083 10.4702 11.7123 10.4346 11.7166C10.0987 11.7561 9.67496 11.8059 8.162 11.2093C6.30047 10.4752 5.07305 8.65601 4.81942 8.28017C4.79862 8.24929 4.78436 8.22817 4.77685 8.21817L4.77469 8.21529C4.66796 8.07265 3.96767 7.1369 3.96767 6.16865C3.96767 5.25607 4.41626 4.77769 4.62264 4.5576C4.63675 4.54256 4.64972 4.52872 4.66134 4.51604C4.84291 4.31773 5.05762 4.26808 5.18975 4.26808H5.2114C5.33618 4.26807 5.46032 4.26805 5.56951 4.27273Z" fill="#FF00FF"/>
</g>
</g>
<defs>
<clipPath id="clip0_1406_3303">
<rect width="16" height="16" fill="white"/>
</clipPath>
</defs>
</svg>
