<svg width="16" height="16" viewBox="0 0 16 16" fill="none" xmlns="http://www.w3.org/2000/svg">
<g clip-path="url(#clip0_1_1413)">
<mask id="mask0_1_1413" style="mask-type:luminance" maskUnits="userSpaceOnUse" x="0" y="0" width="16" height="16">
<path d="M16 0H0V16H16V0Z" fill="white"/>
</mask>
<g mask="url(#mask0_1_1413)">
<path d="M0.275757 15.7246L1.36199 11.7585C0.691853 10.5977 0.339442 9.2808 0.339865 7.93204C0.341622 3.71192 3.77622 0.278564 7.99626 0.278564C10.0445 0.279489 11.9668 1.07658 13.4121 2.52329C14.8578 3.96998 15.6535 5.89294 15.6526 7.93802C15.6509 12.1582 12.2161 15.5919 7.99656 15.5919C7.99678 15.5919 7.99626 15.5919 7.99656 15.5919H7.99315C6.71182 15.5915 5.45278 15.2698 4.33456 14.6604L0.275757 15.7246Z" fill="url(#paint0_linear_1_1413)"/>
<path fill-rule="evenodd" clip-rule="evenodd" d="M6.01536 4.61511C5.86693 4.2851 5.71065 4.27849 5.56942 4.27272C5.45392 4.26777 5.32169 4.26807 5.18966 4.26807C5.05753 4.26807 4.84283 4.31772 4.66126 4.51602C4.47958 4.71432 3.96759 5.19369 3.96759 6.16864C3.96759 7.1437 4.67777 8.08584 4.77677 8.21816C4.87586 8.35032 6.14769 10.415 8.16193 11.2093C9.83593 11.8694 10.1766 11.7381 10.5399 11.7051C10.9032 11.6721 11.7123 11.2258 11.8775 10.763C12.0427 10.3004 12.0427 9.90384 11.9931 9.82096C11.9435 9.73832 11.8114 9.6888 11.6132 9.58968C11.4151 9.49064 10.4408 9.01112 10.2591 8.94504C10.0775 8.87896 9.94529 8.846 9.81321 9.0444C9.68105 9.24256 9.30153 9.6888 9.18593 9.82096C9.07025 9.95336 8.95465 9.96984 8.75649 9.8708C8.55825 9.77136 7.92005 9.56232 7.16291 8.88728C6.57381 8.362 6.17608 7.71337 6.06046 7.51498C5.94485 7.31679 6.04807 7.20943 6.14748 7.11065C6.23645 7.02186 6.34567 6.87931 6.44477 6.7636C6.54365 6.64788 6.57669 6.5653 6.64275 6.43317C6.70881 6.30083 6.67578 6.18513 6.62623 6.08604C6.57669 5.98694 6.19156 5.00695 6.01536 4.61511Z" fill="white"/>
<path d="M13.6077 2.32664C12.1102 0.828141 10.119 0.00244872 7.99759 0.00151062C3.62595 0.00151062 0.0683359 3.558 0.0665786 7.92945C0.0660634 9.3268 0.431169 10.6908 1.12514 11.8932L0 16.0015L4.20431 14.899C5.3627 15.5308 6.66693 15.8637 7.99418 15.8642H7.99755C12.3684 15.8642 15.9266 12.3071 15.9285 7.93585C15.9292 5.81728 15.105 3.82526 13.6077 2.32664ZM7.99759 14.5252H7.99502C6.81197 14.5246 5.65182 14.207 4.63992 13.6065L4.3991 13.4638L1.90417 14.1179L2.57027 11.6862L2.41338 11.437C1.75346 10.3877 1.40509 9.17504 1.4056 7.92998C1.40704 4.29659 4.364 1.34064 8.00008 1.34064C9.76088 1.34137 11.4158 2.02771 12.6604 3.27322C13.905 4.51873 14.5899 6.17444 14.5894 7.93536C14.5878 11.5689 11.6307 14.5252 7.99759 14.5252Z" fill="white"/>
</g>
</g>
<defs>
<linearGradient id="paint0_linear_1_1413" x1="7.96421" y1="15.7246" x2="7.96421" y2="0.27859" gradientUnits="userSpaceOnUse">
<stop stop-color="#20B038"/>
<stop offset="1" stop-color="#60D66A"/>
</linearGradient>
<clipPath id="clip0_1_1413">
<rect width="16" height="16" fill="white"/>
</clipPath>
</defs>
</svg>
