<svg width="16" height="16" viewBox="0 0 16 16" fill="none" xmlns="http://www.w3.org/2000/svg">
<g clip-path="url(#clip0_1_1407)">
<mask id="mask0_1_1407" style="mask-type:luminance" maskUnits="userSpaceOnUse" x="0" y="0" width="16" height="16">
<path d="M16 0H0V16H16V0Z" fill="white"/>
</mask>
<g mask="url(#mask0_1_1407)">
<path fill-rule="evenodd" clip-rule="evenodd" d="M7.99759 0.00151062C10.119 0.00244872 12.1102 0.828141 13.6077 2.32664C15.105 3.82526 15.9292 5.81728 15.9285 7.93585C15.9266 12.3071 12.3685 15.8642 7.99759 15.8642H7.99418C6.66693 15.8637 5.3627 15.5308 4.20431 14.899L0 16.0015L1.12514 11.8932C0.431169 10.6908 0.0660634 9.3268 0.0665786 7.92945C0.0683359 3.558 3.62595 0.00151062 7.99759 0.00151062ZM7.99502 14.5252H7.99759C11.6307 14.5252 14.5878 11.5689 14.5894 7.93536C14.5899 6.17444 13.905 4.51873 12.6604 3.27322C11.4158 2.02771 9.76088 1.34137 8.00008 1.34064C4.364 1.34064 1.40704 4.29659 1.4056 7.92998C1.40509 9.17504 1.75346 10.3877 2.41338 11.437L2.57027 11.6862L1.90417 14.1179L4.3991 13.4638L4.63992 13.6065C5.65182 14.207 6.81197 14.5246 7.99502 14.5252ZM5.56951 4.27272C5.71073 4.27849 5.86701 4.2851 6.01544 4.61511C6.11687 4.84067 6.28754 5.26113 6.42356 5.59626C6.52383 5.8433 6.60529 6.04398 6.62631 6.08604C6.67586 6.18512 6.7089 6.30083 6.64283 6.43317C6.63293 6.45298 6.62377 6.47168 6.61502 6.48953C6.56538 6.5908 6.52891 6.66523 6.44485 6.7636C6.4119 6.80208 6.37783 6.84352 6.34376 6.88496C6.27536 6.96816 6.20695 7.05138 6.14757 7.11064C6.04815 7.20944 5.94494 7.31679 6.06054 7.51498C6.17616 7.71336 6.57389 8.362 7.16299 8.88728C7.79584 9.45152 8.3456 9.69016 8.6248 9.81136C8.6796 9.8352 8.724 9.85448 8.75656 9.8708C8.95472 9.96984 9.0704 9.95336 9.186 9.82088C9.3016 9.6888 9.68112 9.24256 9.81328 9.0444C9.94544 8.846 10.0775 8.87896 10.2592 8.94504C10.4409 9.01112 11.4151 9.49064 11.6133 9.58968C11.652 9.60904 11.6881 9.62648 11.7216 9.64264C11.8599 9.70936 11.9533 9.75448 11.9932 9.82088C12.0427 9.90384 12.0427 10.3004 11.8775 10.763C11.7124 11.2258 10.9034 11.6721 10.54 11.7051C10.505 11.7082 10.4702 11.7123 10.4346 11.7166C10.0987 11.7561 9.67496 11.8059 8.162 11.2093C6.30047 10.4752 5.07305 8.656 4.81942 8.28016C4.79862 8.24928 4.78436 8.22816 4.77685 8.21816L4.77469 8.21528C4.66796 8.07264 3.96767 7.13688 3.96767 6.16864C3.96767 5.25605 4.41626 4.77768 4.62264 4.55758C4.63675 4.54254 4.64972 4.5287 4.66134 4.51602C4.84291 4.31772 5.05762 4.26807 5.18975 4.26807H5.2114C5.33618 4.26805 5.46032 4.26804 5.56951 4.27272Z" fill="#FF00FF"/>
</g>
</g>
<defs>
<clipPath id="clip0_1_1407">
<rect width="16" height="16" fill="white"/>
</clipPath>
</defs>
</svg>
