<svg width="16" height="16" viewBox="0 0 16 16" fill="none" xmlns="http://www.w3.org/2000/svg">
<g clip-path="url(#clip0_1406_3302)">
<mask id="mask0_1406_3302" style="mask-type:luminance" maskUnits="userSpaceOnUse" x="0" y="0" width="16" height="16">
<path d="M16 0H0V16H16V0Z" fill="white"/>
</mask>
<g mask="url(#mask0_1406_3302)">
<path d="M0.275879 15.7246L1.36211 11.7585C0.691975 10.5977 0.339564 9.2808 0.339987 7.93204C0.341744 3.71192 3.77634 0.278564 7.99638 0.278564C10.0446 0.279489 11.9669 1.07658 13.4123 2.52329C14.8579 3.96998 15.6536 5.89294 15.6527 7.93802C15.651 12.1582 12.2162 15.5919 7.99668 15.5919C7.99638 15.5919 7.9969 15.5919 7.99668 15.5919H7.99327C6.71194 15.5915 5.45291 15.2698 4.33468 14.6604L0.275879 15.7246Z" fill="url(#paint0_linear_1406_3302)"/>
<path fill-rule="evenodd" clip-rule="evenodd" d="M6.01554 4.61511C5.86711 4.2851 5.71083 4.27849 5.56961 4.27272C5.4541 4.26777 5.32187 4.26807 5.18985 4.26807C5.05772 4.26807 4.84301 4.31772 4.66145 4.51602C4.47977 4.71432 3.96777 5.19369 3.96777 6.16864C3.96777 7.1437 4.67796 8.08584 4.77695 8.21816C4.87605 8.35032 6.14788 10.415 8.16212 11.2093C9.83612 11.8694 10.1768 11.7381 10.5401 11.7051C10.9034 11.6721 11.7125 11.2258 11.8776 10.763C12.0428 10.3004 12.0428 9.90384 11.9932 9.82096C11.9437 9.73832 11.8116 9.6888 11.6134 9.58968C11.4152 9.49064 10.441 9.01112 10.2593 8.94504C10.0776 8.87896 9.94548 8.846 9.8134 9.0444C9.68124 9.24256 9.30172 9.6888 9.18612 9.82096C9.07044 9.95336 8.95484 9.96984 8.75668 9.8708C8.55844 9.77136 7.92023 9.56232 7.16309 8.88728C6.57399 8.362 6.17626 7.71337 6.06065 7.51498C5.94504 7.31679 6.04825 7.20943 6.14766 7.11065C6.23664 7.02186 6.34585 6.87931 6.44495 6.7636C6.54384 6.64788 6.57687 6.5653 6.64293 6.43317C6.709 6.30083 6.67597 6.18513 6.62641 6.08604C6.57687 5.98694 6.19174 5.00695 6.01554 4.61511Z" fill="white"/>
<path d="M13.6077 2.32666C12.1102 0.828156 10.119 0.00246398 7.99759 0.00152588C3.62595 0.00152588 0.0683359 3.55802 0.0665786 7.92947C0.0660634 9.32681 0.431169 10.6908 1.12514 11.8932L0 16.0015L4.20431 14.8991C5.3627 15.5308 6.66693 15.8637 7.99418 15.8643H7.99755C12.3684 15.8643 15.9266 12.3071 15.9285 7.93587C15.9292 5.81729 15.105 3.82528 13.6077 2.32666ZM7.99759 14.5252H7.99502C6.81197 14.5246 5.65182 14.207 4.63992 13.6065L4.3991 13.4638L1.90417 14.1179L2.57027 11.6863L2.41338 11.437C1.75346 10.3877 1.40509 9.17505 1.4056 7.93C1.40704 4.2966 4.364 1.34066 8.00008 1.34066C9.76088 1.34139 11.4158 2.02772 12.6604 3.27324C13.905 4.51875 14.5899 6.17446 14.5894 7.93537C14.5878 11.5689 11.6307 14.5252 7.99759 14.5252Z" fill="white"/>
</g>
</g>
<defs>
<linearGradient id="paint0_linear_1406_3302" x1="7.96433" y1="15.7246" x2="7.96433" y2="0.27859" gradientUnits="userSpaceOnUse">
<stop stop-color="#20B038"/>
<stop offset="1" stop-color="#60D66A"/>
</linearGradient>
<clipPath id="clip0_1406_3302">
<rect width="16" height="16" fill="white"/>
</clipPath>
</defs>
</svg>
