<svg width="20" height="21" viewBox="0 0 20 21" fill="none" xmlns="http://www.w3.org/2000/svg">
<path d="M10 18.5C14.4183 18.5 18 14.9183 18 10.5C18 6.08172 14.4183 2.5 10 2.5C5.58172 2.5 2 6.08172 2 10.5C2 14.9183 5.58172 18.5 10 18.5Z" stroke="#FF00FF"/>
<path d="M11 18.5V16.5C11 14.2909 12.7909 12.5 15 12.5H17.5" stroke="#FF00FF"/>
<path d="M8.5 18.5V16.5C8.5 14.2909 6.70914 12.5 4.5 12.5H2" stroke="#FF00FF"/>
<path d="M18 9.5C18 9.5 14 8.5 10 8.5C6 8.5 2 9.5 2 9.5" stroke="#FF00FF"/>
</svg>
