<svg xmlns="http://www.w3.org/2000/svg" fill="none" viewBox="0 0 16 16"><path fill="currentColor" fill-rule="evenodd" d="M8 3.61q.23 0 .46.012a.75.75 0 0 0 .08-1.498A9.892 9.892 0 0 0 .992 5.015a.75.75 0 1 0 1.06 1.061A8.4 8.4 0 0 1 8 3.61m6.99 1.323a.75.75 0 1 0-.98 1.134q.23.201.451.42a.75.75 0 0 0 1.06-1.06q-.258-.258-.53-.494M6.704 6.395a.75.75 0 0 1-.443.964 5 5 0 0 0-1.789 1.149.75.75 0 0 1-1.06-1.06 6.5 6.5 0 0 1 2.328-1.496.75.75 0 0 1 .964.443m4.705 1.145a.75.75 0 0 1 1.052-.132q.318.248.611.54a.75.75 0 0 1-1.06 1.06 5 5 0 0 0-.471-.416.75.75 0 0 1-.132-1.052m-4.98 4.86a2 2 0 1 0 2.808-2.809z" clip-rule="evenodd" opacity=".4"/><path fill="currentColor" fill-rule="evenodd" d="M13.53 2.47a.75.75 0 0 1 0 1.06l-10 10a.75.75 0 0 1-1.06-1.06l10-10a.75.75 0 0 1 1.06 0" clip-rule="evenodd"/></svg>