<svg width="16" height="16" viewBox="0 0 16 16" fill="none" xmlns="http://www.w3.org/2000/svg">
<path d="M11.0228 4.86941C11.0228 5.34138 11.4202 5.73883 11.917 5.73883C12.4387 5.73883 12.8486 5.35379 12.8486 4.86941C12.8486 4.38502 12.4387 4 11.917 4C11.4202 4 11.0228 4.38502 11.0228 4.86941Z" fill="#FF00FF"/>
<path d="M12.712 11.5763V6.5958H11.1718V11.5763H12.712Z" fill="#FF00FF"/>
<path d="M15.0469 5.73883C14.5501 5.73883 14.1402 5.34138 14.1402 4.86941C14.1402 4.38502 14.5501 4 15.0469 4C15.5562 4 15.966 4.38502 15.966 4.86941C15.966 5.35379 15.5562 5.73883 15.0469 5.73883Z" fill="#FF00FF"/>
<path d="M15.8294 11.5763V6.5958H14.2893V11.5763H15.8294Z" fill="#FF00FF"/>
<path d="M7.38365 9.70088L8.72505 4.42226H10.3521C10.3521 4.42226 8.79956 10.0486 8.58842 10.7069C8.41454 11.2161 8.02951 11.626 7.44577 11.626C6.78748 11.626 6.47698 11.1416 6.32794 10.7069C6.1913 10.2598 5.18527 6.54612 5.18527 6.54612C5.18527 6.54612 4.17922 10.2598 4.03017 10.7069C3.89356 11.1416 3.58304 11.626 2.91236 11.626C2.34104 11.626 1.94357 11.2161 1.78212 10.7069C1.57097 10.0486 0.0184326 4.42226 0.0184326 4.42226H1.63308L2.98688 9.70088C2.98688 9.70088 4.01777 5.73881 4.17922 5.16746C4.35312 4.60856 4.68847 4.36016 5.18527 4.36016C5.66966 4.36016 6.01743 4.60856 6.17889 5.16746C6.35278 5.73881 7.38365 9.70088 7.38365 9.70088Z" fill="#FF00FF"/>
</svg>
