<svg width="16" height="16" viewBox="0 0 16 16" fill="none" xmlns="http://www.w3.org/2000/svg">
<path d="M11.0227 4.86941C11.0227 5.34138 11.4202 5.73883 11.917 5.73883C12.4386 5.73883 12.8485 5.35379 12.8485 4.86941C12.8485 4.38502 12.4386 4 11.917 4C11.4202 4 11.0227 4.38502 11.0227 4.86941Z" fill="#8B8B8B"/>
<path d="M12.7119 11.5763V6.5958H11.1718V11.5763H12.7119Z" fill="#8B8B8B"/>
<path d="M15.0469 5.73883C14.5501 5.73883 14.1402 5.34138 14.1402 4.86941C14.1402 4.38502 14.5501 4 15.0469 4C15.5561 4 15.966 4.38502 15.966 4.86941C15.966 5.35379 15.5561 5.73883 15.0469 5.73883Z" fill="#8B8B8B"/>
<path d="M15.8294 11.5763V6.5958H14.2893V11.5763H15.8294Z" fill="#8B8B8B"/>
<path d="M7.38361 9.70088L8.72501 4.42226H10.3521C10.3521 4.42226 8.79952 10.0486 8.58838 10.7069C8.4145 11.2161 8.02947 11.626 7.44573 11.626C6.78743 11.626 6.47694 11.1416 6.3279 10.7069C6.19126 10.2598 5.18522 6.54612 5.18522 6.54612C5.18522 6.54612 4.17918 10.2598 4.03013 10.7069C3.89352 11.1416 3.583 11.626 2.91232 11.626C2.34099 11.626 1.94353 11.2161 1.78208 10.7069C1.57093 10.0486 0.0183907 4.42226 0.0183907 4.42226H1.63303L2.98684 9.70088C2.98684 9.70088 4.01773 5.73881 4.17918 5.16746C4.35308 4.60856 4.68842 4.36016 5.18522 4.36016C5.66962 4.36016 6.01739 4.60856 6.17885 5.16746C6.35274 5.73881 7.38361 9.70088 7.38361 9.70088Z" fill="#8B8B8B"/>
</svg>
