<svg width="16" height="16" viewBox="0 0 16 16" fill="none" xmlns="http://www.w3.org/2000/svg">
<path fill-rule="evenodd" clip-rule="evenodd" d="M11.0227 4.86941C11.0227 5.34138 11.4202 5.73883 11.917 5.73883C12.4387 5.73883 12.8485 5.35378 12.8485 4.86941C12.8485 4.38502 12.4387 4 11.917 4C11.4202 4 11.0227 4.38502 11.0227 4.86941ZM12.7119 11.5763V6.5958H11.1718V11.5763H12.7119ZM15.0469 5.73883C14.5501 5.73883 14.1402 5.34138 14.1402 4.86941C14.1402 4.38502 14.5501 4 15.0469 4C15.5561 4 15.966 4.38502 15.966 4.86941C15.966 5.35378 15.5561 5.73883 15.0469 5.73883ZM15.8294 11.5763V6.5958H14.2893V11.5763H15.8294ZM7.38359 9.70088L8.72497 4.42226H10.352C10.352 4.42226 8.79953 10.0486 8.58833 10.7069C8.41449 11.2162 8.02945 11.626 7.44571 11.626C6.78741 11.626 6.47692 11.1416 6.32788 10.7069C6.19124 10.2598 5.1852 6.54612 5.1852 6.54612C5.1852 6.54612 4.17916 10.2598 4.03012 10.7069C3.8935 11.1416 3.58298 11.626 2.9123 11.626C2.34097 11.626 1.94351 11.2162 1.78206 10.7069C1.57092 10.0486 0.0183716 4.42226 0.0183716 4.42226H1.63301L2.98682 9.70088C2.98682 9.70088 4.01771 5.73881 4.17916 5.16746C4.35305 4.60856 4.6884 4.36016 5.1852 4.36016C5.6696 4.36016 6.01736 4.60856 6.17883 5.16746C6.35272 5.73881 7.38359 9.70088 7.38359 9.70088Z" fill="#8B8B8B"/>
</svg>
