<svg width="16" height="16" viewBox="0 0 16 16" fill="none" xmlns="http://www.w3.org/2000/svg">
<g clip-path="url(#clip0_348_3807)">
<path d="M15.7885 10.4742L12.4753 11.1786L12.8126 14.4733L9.70858 13.1419L7.99827 16.0004L6.28755 13.1411L3.18315 14.472L3.52083 11.1782L0.208008 10.4721L2.46441 8.0005L0.20885 5.5281L3.52125 4.82368L3.18483 1.52897L6.28881 2.86033L7.99827 0.000976562L9.709 2.86033L12.8134 1.52981L12.4761 4.8241L15.7885 5.52978L13.533 8.00177L15.7885 10.4742Z" fill="#F16850"/>
<path d="M7.99679 4.99427L6.28733 2.85912L3.18335 1.52734L5.03092 3.96396L7.99679 4.99427Z" fill="#FD694F"/>
<path d="M3.52083 4.82178L0.208008 5.52662L2.46357 7.99902L5.11871 7.03692L3.52083 4.82178Z" fill="#FF3413"/>
<path d="M5.03092 3.96396L3.18335 1.52734L3.51977 4.82206L5.11765 7.0372L5.03092 3.96396Z" fill="#DC1D23"/>
<path d="M9.70803 2.85893L7.9973 0L6.28784 2.85893L7.9973 4.99407L9.70803 2.85893Z" fill="#FF9281"/>
<path d="M13.5325 8.00048L15.7884 5.5285L12.476 4.82324L10.8773 7.03712L13.5325 8.00048Z" fill="#FF8B79"/>
<path d="M10.8773 7.03685L12.476 4.82297L12.8133 1.52783L10.9641 3.9636L10.8773 7.03685Z" fill="#FD694F"/>
<path d="M10.9633 3.9636L12.8126 1.52783L9.70816 2.85877L7.99744 4.99391L10.9633 3.9636Z" fill="#EF5240"/>
<path d="M12.7969 9.4733L15.788 10.4725L13.5325 8.00047L10.8773 7.03711L12.7969 9.4733Z" fill="#FF482C"/>
<path d="M5.11913 7.03711L2.46399 7.99921L0.208008 10.4708L3.19957 9.4733L5.11913 7.03711Z" fill="#EC2101"/>
<path d="M7.99744 12.8783V15.9992L9.70732 13.1406L9.77679 10.3428L7.99744 12.8783Z" fill="#D21C22"/>
<path d="M12.7964 9.47314L9.7771 10.3426L12.4748 11.1771L15.7876 10.4723L12.7964 9.47314Z" fill="#C90901"/>
<path d="M9.70703 13.1406L12.811 14.472L12.4742 11.1773L9.7765 10.3428L9.70703 13.1406Z" fill="#EC2101"/>
<path d="M3.19957 9.47314L0.208008 10.4706L3.52083 11.1763L6.21891 10.3426L3.19957 9.47314Z" fill="#B6171E"/>
<path d="M6.21777 10.3428L6.2864 13.1402L7.99713 15.9992V12.8783L6.21777 10.3428Z" fill="#B4151B"/>
<path d="M3.51932 11.1765L3.18164 14.4707L6.28604 13.1402L6.21741 10.3428L3.51932 11.1765Z" fill="#D21C22"/>
<path d="M10.8766 7.03711L10.9633 3.96387L7.99744 4.99418V7.98447L10.8766 7.03711Z" fill="#E63320"/>
<path d="M7.99847 4.99418L5.03259 3.96387L5.11933 7.03711L7.99847 7.98447V4.99418Z" fill="#FF4527"/>
<path d="M6.21777 10.3427L7.99713 12.8782L9.77649 10.3427L7.99713 7.98438L6.21777 10.3427Z" fill="#FF9281"/>
<path d="M7.99744 7.98447L9.77679 10.3428L12.7961 9.4733L10.8766 7.03711L7.99744 7.98447Z" fill="#FD684D"/>
<path d="M5.11756 7.03711L3.198 9.4733L6.21735 10.3428L7.9967 7.98447L5.11756 7.03711Z" fill="#FD745C"/>
</g>
<defs>
<clipPath id="clip0_348_3807">
<rect width="16" height="16" fill="white"/>
</clipPath>
</defs>
</svg>
