<svg width="16" height="16" viewBox="0 0 16 16" fill="none" xmlns="http://www.w3.org/2000/svg">
<g clip-path="url(#clip0_348_3820)">
<path fill-rule="evenodd" clip-rule="evenodd" d="M7.99875 0.000488281L9.70774 2.85694L12.8128 1.52615L12.4757 4.81926L15.7936 5.52612L13.5351 8.00133L15.7937 10.4771L12.4749 11.1827L12.812 14.4762L9.70731 13.1446L7.99882 16L6.28992 13.1437L3.18479 14.475L3.52237 11.1822L0.203979 10.4749L2.46334 8.00007L0.204789 5.52439L3.52284 4.81877L3.18655 1.52527L6.29106 2.85686L7.99875 0.000488281ZM7.99891 0.989352L6.49893 3.4983L3.77909 2.33171L4.07406 5.22046L1.17668 5.83662L3.1505 8.00019L1.17591 10.1631L4.07374 10.7807L3.77769 13.6686L6.4977 12.5024L7.99883 15.0114L9.49958 12.5032L12.2192 13.6697L11.9235 10.781L14.8217 10.1648L12.848 8.0013L14.8218 5.83805L11.9243 5.22076L12.22 2.33241L9.49994 3.49822L7.99891 0.989352Z" fill="#FF00FF"/>
<path fill-rule="evenodd" clip-rule="evenodd" d="M3.28187 1.77071C3.35283 1.67997 3.47599 1.6484 3.58185 1.69382L6.49402 2.94331C6.53234 2.95974 6.56601 2.98537 6.59207 3.01791L8.1959 5.02112C8.26657 5.1094 8.27032 5.23379 8.20507 5.32616C8.13982 5.41852 8.02133 5.45657 7.91451 5.41946L5.13191 4.45282C5.0846 4.43639 5.04322 4.40633 5.01296 4.36642L3.27956 2.08037C3.20997 1.98859 3.21091 1.86145 3.28187 1.77071ZM4.26422 2.5389L5.37101 3.99856L7.24946 4.65111L6.23554 3.38471L4.26422 2.5389Z" fill="#FF00FF"/>
<path fill-rule="evenodd" clip-rule="evenodd" d="M3.90703 4.73545L5.69959 7.22047L2.73297 8.29543L0.203979 5.52331L3.90703 4.73545ZM1.1758 5.83547L2.87918 7.7026L4.89471 6.97227L3.68898 5.30076L1.1758 5.83547Z" fill="#FF00FF"/>
<path fill-rule="evenodd" clip-rule="evenodd" d="M3.38878 1.69092C3.49462 1.64923 3.61528 1.68306 3.68401 1.77371L5.41741 4.05976C5.44939 4.10192 5.46738 4.15303 5.46887 4.20593L5.55025 7.08927C5.55339 7.20065 5.48351 7.30105 5.37798 7.3368C5.27244 7.37254 5.15593 7.33526 5.09075 7.24489L3.5916 5.16663C3.56556 5.13054 3.54948 5.08822 3.54495 5.04394L3.22932 1.95282C3.21777 1.83965 3.28293 1.73261 3.38878 1.69092ZM3.82615 2.80122L4.04299 4.9248L5.01961 6.27868L4.96381 4.30159L3.82615 2.80122Z" fill="#FF00FF"/>
<path fill-rule="evenodd" clip-rule="evenodd" d="M7.99875 0.000488281L9.91282 3.19749L7.9994 5.58562L6.08738 3.19748L7.99875 0.000488281ZM7.99955 0.988561L6.7039 3.15542L7.99954 4.77369L9.29615 3.15541L7.99955 0.988561Z" fill="#FF00FF"/>
<path fill-rule="evenodd" clip-rule="evenodd" d="M12.0928 4.73662L15.7954 5.52496L13.2659 8.29665L10.2993 7.22028L12.0928 4.73662ZM12.3107 5.30194L11.1043 6.97244L13.1199 7.70373L14.8235 5.83696L12.3107 5.30194Z" fill="#FF00FF"/>
<path fill-rule="evenodd" clip-rule="evenodd" d="M12.6102 1.69164C12.716 1.73338 12.7811 1.84041 12.7695 1.95356L12.4531 5.04508C12.4486 5.08939 12.4325 5.13172 12.4064 5.16782L10.9065 7.2449C10.8413 7.33521 10.7248 7.37243 10.6193 7.33667C10.5138 7.30091 10.4439 7.20052 10.447 7.08916L10.5284 4.20582C10.5299 4.15287 10.5479 4.10172 10.58 4.05953L12.315 1.77427C12.3837 1.68368 12.5044 1.64991 12.6102 1.69164ZM11.0335 4.30157L10.9777 6.27934L11.9551 4.92578L12.1726 2.80119L11.0335 4.30157Z" fill="#FF00FF"/>
<path fill-rule="evenodd" clip-rule="evenodd" d="M12.8106 1.52471L12.4516 5.04509C12.4471 5.08942 12.431 5.13178 12.4049 5.16791L10.9049 7.24499C10.8397 7.33529 10.7233 7.37252 10.6178 7.33678C10.5123 7.30104 10.4424 7.2007 10.4455 7.08936L10.5155 4.57341L8.0801 5.41945C7.97326 5.45657 7.85476 5.4185 7.78952 5.32611C7.72428 5.23372 7.72805 5.1093 7.79877 5.02104L9.40379 3.01783C9.42985 2.9853 9.46353 2.95969 9.50184 2.94327L12.8106 1.52471ZM11.0308 4.30162L10.9758 6.2799L11.9536 4.92592L12.1703 2.80078L11.0308 4.30162ZM11.7312 2.53971L10.6237 3.99852L8.74571 4.65091L9.76019 3.38475L11.7312 2.53971Z" fill="#FF00FF"/>
<path fill-rule="evenodd" clip-rule="evenodd" d="M10.495 6.94764C10.5614 6.85575 10.6807 6.81905 10.7873 6.85772L13.2784 7.76155C13.317 7.77556 13.3516 7.79872 13.3793 7.82906L15.4955 10.1483C15.5733 10.2337 15.5837 10.3609 15.5207 10.4577C15.4577 10.5546 15.3372 10.5967 15.2276 10.5601L12.4213 9.62264C12.3743 9.60696 12.333 9.57788 12.3023 9.539L10.5014 7.25335C10.4312 7.1643 10.4286 7.03952 10.495 6.94764ZM11.451 7.63849L12.6541 9.16527L14.4626 9.7694L13.0465 8.21735L11.451 7.63849Z" fill="#FF00FF"/>
<path fill-rule="evenodd" clip-rule="evenodd" d="M5.50395 6.94768C5.57032 7.03956 5.56771 7.16432 5.49756 7.25335L3.69661 9.539C3.66595 9.57792 3.62456 9.60701 3.57755 9.62269L0.770848 10.5585C0.661235 10.5951 0.540771 10.553 0.477798 10.4561C0.414825 10.3592 0.425241 10.232 0.503137 10.1467L2.61972 7.82784C2.64742 7.79749 2.68207 7.77433 2.7207 7.76033L5.21177 6.85768C5.31833 6.81907 5.43758 6.8558 5.50395 6.94768ZM2.95242 8.21622L1.53552 9.76852L3.34495 9.16521L4.54835 7.63793L2.95242 8.21622Z" fill="#FF00FF"/>
<path fill-rule="evenodd" clip-rule="evenodd" d="M9.74567 9.95672C9.85192 9.99174 9.92271 10.0922 9.91993 10.204L9.85475 12.829C9.85367 12.8728 9.8413 12.9155 9.81884 12.953L8.21461 15.6349C8.15602 15.7328 8.03926 15.7796 7.92924 15.7492C7.81923 15.7188 7.74304 15.6187 7.74304 15.5046V12.5766C7.74304 12.5245 7.75912 12.4736 7.78909 12.4308L9.45849 10.052C9.52276 9.96039 9.63941 9.9217 9.74567 9.95672ZM8.2506 12.6568V14.586L9.349 12.7497L9.39168 11.0308L8.2506 12.6568Z" fill="#FF00FF"/>
<path fill-rule="evenodd" clip-rule="evenodd" d="M9.42101 9.85615L12.4327 10.7878L12.8097 14.475L9.34324 12.9882L9.42101 9.85615ZM9.91176 10.5393L9.85917 12.6572L12.2171 13.6685L11.962 11.1735L9.91176 10.5393Z" fill="#FF00FF"/>
<path fill-rule="evenodd" clip-rule="evenodd" d="M3.41701 9.14125C3.4657 9.12502 3.51818 9.12393 3.5675 9.13813L6.40028 9.95387C6.5081 9.98492 6.58274 10.0831 6.58382 10.1953C6.5849 10.3075 6.51218 10.4071 6.40497 10.4402L3.87361 11.2224C3.8322 11.2352 3.7882 11.2372 3.74582 11.2281L0.637703 10.566C0.525735 10.5422 0.443598 10.4463 0.437193 10.332C0.430788 10.2177 0.501701 10.1133 0.610303 10.0771L3.41701 9.14125ZM3.50279 9.64768L1.65498 10.2638L3.78692 10.7179L5.44269 10.2063L3.50279 9.64768Z" fill="#FF00FF"/>
<path fill-rule="evenodd" clip-rule="evenodd" d="M6.24867 9.95671C6.35492 9.92171 6.47155 9.9604 6.53581 10.052L8.20521 12.4308C8.23518 12.4736 8.25126 12.5245 8.25126 12.5766V15.5046C8.25126 15.6187 8.17508 15.7188 8.06508 15.7492C7.95507 15.7796 7.83831 15.7328 7.77971 15.6349L6.17469 12.9526C6.15221 12.9151 6.13983 12.8723 6.13876 12.8286L6.07437 10.204C6.07163 10.0921 6.14243 9.9917 6.24867 9.95671ZM6.60236 11.0304L6.64453 12.7493L7.7437 14.5862V12.6568L6.60236 11.0304Z" fill="#FF00FF"/>
<path fill-rule="evenodd" clip-rule="evenodd" d="M6.57181 9.85625L6.64864 12.9879L3.18171 14.4738L3.55963 10.787L6.57181 9.85625ZM4.0303 11.1728L3.77459 13.6675L6.1328 12.6567L6.08085 10.5392L4.0303 11.1728Z" fill="#FF00FF"/>
<path fill-rule="evenodd" clip-rule="evenodd" d="M10.9294 4.00825C10.9967 4.05754 11.0355 4.13675 11.0331 4.22012L10.9517 7.10346C10.9487 7.21038 10.879 7.30393 10.7774 7.33737L8.07614 8.22619C7.99882 8.25163 7.91398 8.23844 7.84804 8.19071C7.78209 8.14299 7.74304 8.06652 7.74304 7.98512V5.17961C7.74304 5.07155 7.81147 4.97534 7.91354 4.93988L10.6961 3.97323C10.7749 3.94587 10.8621 3.95896 10.9294 4.00825ZM8.2506 5.3601V7.63445L10.4494 6.91095L10.5155 4.57341L8.2506 5.3601Z" fill="#FF00FF"/>
<path fill-rule="evenodd" clip-rule="evenodd" d="M5.06792 4.00825C5.1352 3.95896 5.22241 3.94587 5.3012 3.97323L8.0838 4.93988C8.18587 4.97534 8.2543 5.07155 8.2543 5.17961V7.98512C8.2543 8.06652 8.21525 8.14299 8.14931 8.19071C8.08336 8.23844 7.99852 8.25163 7.9212 8.22619L5.21997 7.33737C5.11837 7.30393 5.04863 7.21038 5.04561 7.10346L4.96424 4.22012C4.96188 4.13675 5.00065 4.05754 5.06792 4.00825ZM5.48197 4.57335L5.54794 6.91095L7.74674 7.63445V5.3601L5.48197 4.57335Z" fill="#FF00FF"/>
<path fill-rule="evenodd" clip-rule="evenodd" d="M7.99748 7.73145C8.0771 7.73145 8.15211 7.76881 8.20006 7.83237L9.86947 10.0449C9.93578 10.1328 9.93786 10.2535 9.87462 10.3436L8.20521 12.7225C8.1577 12.7902 8.08018 12.8305 7.99748 12.8305C7.91477 12.8305 7.83725 12.7902 7.78974 12.7225L6.12034 10.3436C6.0571 10.2535 6.05918 10.1328 6.12549 10.0449L7.79489 7.83237C7.84285 7.76881 7.91786 7.73145 7.99748 7.73145ZM6.64191 10.2032L7.99748 12.1349L9.35305 10.2032L7.99748 8.40658L6.64191 10.2032Z" fill="#FF00FF"/>
<path fill-rule="evenodd" clip-rule="evenodd" d="M10.6187 6.85521C10.72 6.82187 10.8314 6.85544 10.8974 6.93921L12.6983 9.22486C12.7506 9.29124 12.7665 9.37929 12.7406 9.45972C12.7147 9.54015 12.6504 9.60242 12.5692 9.6258L9.73646 10.4415C9.63545 10.4706 9.52696 10.4344 9.46364 10.3505L7.79424 8.13795C7.74492 8.07259 7.73017 7.98745 7.75463 7.90931C7.77908 7.83117 7.83973 7.76962 7.9175 7.74403L10.6187 6.85521ZM8.413 8.11532L9.76371 9.90551L12.0661 9.24251L10.6086 7.39286L8.413 8.11532Z" fill="#FF00FF"/>
<path fill-rule="evenodd" clip-rule="evenodd" d="M5.09609 6.93921C5.1621 6.85544 5.27344 6.82187 5.37475 6.85521L8.07598 7.74403C8.15376 7.76962 8.21441 7.83117 8.23886 7.90931C8.26331 7.98745 8.24856 8.07259 8.19924 8.13795L6.52984 10.3505C6.46653 10.4344 6.35804 10.4706 6.25703 10.4415L3.42426 9.6258C3.34305 9.60242 3.27882 9.54015 3.25292 9.45972C3.22702 9.37929 3.24285 9.29124 3.29514 9.22486L5.09609 6.93921ZM5.38484 7.39286L3.92743 9.24251L6.22978 9.90551L7.58049 8.11532L5.38484 7.39286Z" fill="#FF00FF"/>
</g>
<defs>
<clipPath id="clip0_348_3820">
<rect width="16" height="16" fill="white"/>
</clipPath>
</defs>
</svg>
