<svg width="16" height="16" viewBox="0 0 16 16" fill="none" xmlns="http://www.w3.org/2000/svg">
<g clip-path="url(#clip0_1_1465)">
<mask id="mask0_1_1465" style="mask-type:luminance" maskUnits="userSpaceOnUse" x="0" y="0" width="16" height="16">
<path d="M16 0H0V16H16V0Z" fill="white"/>
</mask>
<g mask="url(#mask0_1_1465)">
<path d="M7.19823 15.9671C5.96636 15.8491 4.71926 15.4068 3.64797 14.7078C2.75027 14.1223 2.54769 13.8813 2.54769 13.4008C2.54769 12.4357 3.60894 10.7449 5.42478 8.81792C6.45573 7.72321 7.89204 6.44078 8.0472 6.47536C8.34944 6.54282 10.7638 8.89784 11.6678 10.0066C13.097 11.7593 13.7538 13.1949 13.42 13.8348C13.1663 14.3212 11.5918 15.272 10.4351 15.6372C9.48168 15.9383 8.22952 16.0658 7.19823 15.9671ZM1.33515 12.3974C0.589114 11.2529 0.212193 10.1262 0.0304235 8.49656C-0.0297946 7.9585 -0.00860677 7.65091 0.166658 6.54617C0.38467 5.17082 1.16843 3.57802 2.11074 2.59854C2.51182 2.18222 2.5475 2.17106 3.03668 2.33648C3.62957 2.53721 4.26334 2.97509 5.24654 3.86423L5.82084 4.38352L5.50674 4.76825C4.05184 6.55434 2.51628 9.0876 1.93826 10.6544C1.62416 11.5056 1.49778 12.3606 1.63345 12.7165C1.72452 12.957 1.64089 12.8674 1.33422 12.3979L1.33515 12.3974ZM14.4294 12.5919C14.5032 12.2322 14.4099 11.5716 14.1915 10.9051C13.7185 9.46192 12.137 6.77719 10.685 4.95169L10.2278 4.37702L10.7225 3.92297C11.3682 3.33008 11.8164 2.97509 12.3004 2.67344C12.682 2.43554 13.2274 2.22497 13.462 2.22497C13.6064 2.22497 14.1155 2.75466 14.5262 3.33082C15.1626 4.22294 15.6306 5.3065 15.8678 6.43279C16.0211 7.16136 16.0339 8.71888 15.8925 9.44552C15.7754 10.0418 15.5301 10.8146 15.2922 11.3389C15.1119 11.7316 14.6677 12.4946 14.4726 12.7429C14.3722 12.8706 14.3722 12.8704 14.4279 12.595L14.4294 12.5919ZM7.33019 1.9525C6.65998 1.61238 5.62624 1.24717 5.05529 1.14866C4.8553 1.11428 4.51388 1.09476 4.29698 1.10591C3.82565 1.1297 3.84665 1.10517 4.60235 0.748136C5.23055 0.45132 5.75467 0.276799 6.4665 0.12737C7.26662 -0.0408324 8.77112 -0.042691 9.55864 0.12328C10.409 0.302634 11.4106 0.675279 11.9748 1.02283L12.1428 1.1258L11.7581 1.10647C10.9931 1.06781 9.87832 1.3769 8.68136 1.959C8.32048 2.13482 8.00672 2.27496 7.98367 2.27124C7.96081 2.26678 7.66734 2.12349 7.33019 1.9525Z" fill="#107C10"/>
</g>
</g>
<defs>
<clipPath id="clip0_1_1465">
<rect width="16" height="16" fill="white"/>
</clipPath>
</defs>
</svg>
