<svg width="16" height="16" viewBox="0 0 16 16" fill="none" xmlns="http://www.w3.org/2000/svg">
<g clip-path="url(#clip0_348_3761)">
<mask id="mask0_348_3761" style="mask-type:alpha" maskUnits="userSpaceOnUse" x="-1" y="1" width="17" height="13">
<path d="M12.5378 9.99007C13.5686 11.3191 14.7157 12.6096 15.9988 13.8677C15.4284 13.5184 14.8919 13.1809 14.3893 12.8559C12.0376 11.3058 9.8866 9.68185 7.94627 7.96292C6.03772 9.85071 3.91815 11.5272 1.56665 12.9931C1.06419 13.3085 0.522598 13.6307 -0.0592041 13.963C0.59343 13.3748 1.31717 12.6071 2.11935 11.6564C3.3952 10.1483 4.68173 8.37671 6.01053 6.33116L4.11249 4.4962L4.10272 4.48643C3.42172 3.8053 2.8448 3.22826 2.39357 2.72461C2.03499 2.33984 1.68831 1.9445 1.35307 1.53906C1.93674 1.98141 2.65134 2.41269 3.49687 2.82997C4.11891 3.14633 4.85715 3.47324 5.73221 3.82106L5.74831 3.82742L5.74931 3.82784C6.10448 3.96785 6.84691 4.26054 7.94675 4.68573C10.0136 3.8951 11.5849 3.23076 12.6711 2.66139C13.3599 2.31189 13.9305 1.96721 14.3853 1.63065C12.2082 3.9911 10.7137 5.55771 9.90172 6.32027C10.9774 7.88101 11.8523 9.10434 12.5378 9.99007Z" fill="#242320"/>
</mask>
<g mask="url(#mask0_348_3761)">
<path d="M7.95085 5.1605L2.12988 2.43994V10.6016L7.95085 10.5805V5.1605Z" fill="url(#paint0_linear_348_3761)"/>
<path d="M13.7188 2.43994L7.94754 5.16036V10.6016H13.7188V2.43994Z" fill="url(#paint1_linear_348_3761)"/>
<path d="M14.7125 13.7632V13.0463L9.92505 6.93018V13.7633H14.7125V13.7632Z" fill="url(#paint2_linear_348_3761)"/>
<path d="M6.00025 13.8037V6.9707L1.2128 13.0868V13.8037H6.00025Z" fill="url(#paint3_linear_348_3761)"/>
<path d="M0.832947 1.32227L1.81364 2.22921C3.22674 3.26259 5.27242 4.23261 7.95097 5.16063V4.65434L0.832947 1.32227Z" fill="url(#paint4_linear_348_3761)"/>
<path d="M13.7188 2.44027L14.4147 1.59668L7.94577 4.65344L7.94714 5.16068C10.7733 4.0006 12.696 3.09379 13.7188 2.44027Z" fill="url(#paint5_linear_348_3761)"/>
<path d="M9.90359 6.31885L9.92453 6.98318C11.4641 9.19773 13.1198 11.3173 14.8702 13.3525L16.5154 14.1328L9.90359 6.31885Z" fill="url(#paint6_linear_348_3761)"/>
<path d="M5.99901 7.01646L6.00955 6.33105L-0.253937 14.2502L0.91655 13.5434C2.35058 12.1835 4.04829 10.0112 5.99901 7.01646Z" fill="url(#paint7_linear_348_3761)"/>
</g>
</g>
<defs>
<linearGradient id="paint0_linear_348_3761" x1="1.46678" y1="10.084" x2="7.24313" y2="4.3076" gradientUnits="userSpaceOnUse">
<stop offset="0.17" stop-color="#C9CA4C"/>
<stop offset="0.418" stop-color="#C8C94C"/>
<stop offset="0.578" stop-color="#C2C74D"/>
<stop offset="0.713" stop-color="#B9C350"/>
<stop offset="0.834" stop-color="#ABBD52"/>
<stop offset="0.944" stop-color="#9AB656"/>
<stop offset="1" stop-color="#90B258"/>
</linearGradient>
<linearGradient id="paint1_linear_348_3761" x1="8.62747" y1="4.31513" x2="14.3789" y2="10.0666" gradientUnits="userSpaceOnUse">
<stop stop-color="#637E3E"/>
<stop offset="0.077" stop-color="#78974A"/>
<stop offset="0.151" stop-color="#89AB54"/>
<stop offset="0.192" stop-color="#90B258"/>
<stop offset="0.197" stop-color="#93B357"/>
<stop offset="0.229" stop-color="#A3BA54"/>
<stop offset="0.266" stop-color="#B2C051"/>
<stop offset="0.309" stop-color="#BDC54F"/>
<stop offset="0.362" stop-color="#C4C84D"/>
<stop offset="0.437" stop-color="#C8CA4C"/>
<stop offset="0.644" stop-color="#C9CA4C"/>
</linearGradient>
<linearGradient id="paint2_linear_348_3761" x1="8.13552" y1="8.55701" x2="14.0911" y2="14.5126" gradientUnits="userSpaceOnUse">
<stop stop-color="#66813F"/>
<stop offset="0.226" stop-color="#90B258"/>
<stop offset="0.259" stop-color="#96B457"/>
<stop offset="0.379" stop-color="#A8BC53"/>
<stop offset="0.507" stop-color="#B7C250"/>
<stop offset="0.644" stop-color="#C1C74E"/>
<stop offset="0.798" stop-color="#C8C94C"/>
<stop offset="1" stop-color="#C9CA4C"/>
</linearGradient>
<linearGradient id="paint3_linear_348_3761" x1="7.78129" y1="8.60629" x2="1.82568" y2="14.5619" gradientUnits="userSpaceOnUse">
<stop stop-color="#577036"/>
<stop offset="0.271" stop-color="#90B258"/>
<stop offset="0.316" stop-color="#9AB656"/>
<stop offset="0.409" stop-color="#ABBD53"/>
<stop offset="0.511" stop-color="#B9C350"/>
<stop offset="0.623" stop-color="#C2C74D"/>
<stop offset="0.756" stop-color="#C8C94C"/>
<stop offset="0.961" stop-color="#C9CA4C"/>
</linearGradient>
<linearGradient id="paint4_linear_348_3761" x1="1.15875" y1="3.24138" x2="5.68512" y2="3.24138" gradientUnits="userSpaceOnUse">
<stop stop-color="#839363"/>
<stop offset="0.234" stop-color="#707E57"/>
<stop offset="0.575" stop-color="#586346"/>
<stop offset="0.842" stop-color="#475039"/>
<stop offset="1" stop-color="#404934"/>
</linearGradient>
<linearGradient id="paint5_linear_348_3761" x1="7.93852" y1="3.37868" x2="13.7087" y2="3.37868" gradientUnits="userSpaceOnUse">
<stop stop-color="#49503D"/>
<stop offset="1" stop-color="#78875B"/>
</linearGradient>
<linearGradient id="paint6_linear_348_3761" x1="9.89484" y1="10.2259" x2="16.5066" y2="10.2259" gradientUnits="userSpaceOnUse">
<stop stop-color="#434A39"/>
<stop offset="0.165" stop-color="#4B533F"/>
<stop offset="0.46" stop-color="#5E684D"/>
<stop offset="0.847" stop-color="#78865D"/>
<stop offset="1" stop-color="#839363"/>
</linearGradient>
<linearGradient id="paint7_linear_348_3761" x1="-1.5993" y1="10.2906" x2="4.69019" y2="10.2906" gradientUnits="userSpaceOnUse">
<stop stop-color="#739148"/>
<stop offset="1" stop-color="#64724C"/>
</linearGradient>
<clipPath id="clip0_348_3761">
<rect width="16" height="16" fill="white"/>
</clipPath>
</defs>
</svg>
