<svg width="16" height="16" viewBox="0 0 16 16" fill="none" xmlns="http://www.w3.org/2000/svg">
<g clip-path="url(#clip0_1_1471)">
<mask id="mask0_1_1471" style="mask-type:luminance" maskUnits="userSpaceOnUse" x="0" y="0" width="16" height="16">
<path d="M16 0H0V16H16V0Z" fill="white"/>
</mask>
<g mask="url(#mask0_1_1471)">
<mask id="mask1_1_1471" style="mask-type:alpha" maskUnits="userSpaceOnUse" x="-188" y="-182" width="1625" height="1286">
<path fill-rule="evenodd" clip-rule="evenodd" d="M1436.8 -181.6H-188V1104H1436.8V-181.6ZM-0.843686 -0.776383H-0.369138C-0.140451 -0.434794 0.0946195 -0.098746 0.33627 0.23154L7.53144 -0.401725L15.3951 0.532272C15.7232 0.174338 16.0643 -0.198661 16.4185 -0.586722L16.6467 14.2606C17.2795 14.6409 17.9506 15.0341 18.6598 15.4393V15.914H-2.44043V15.2603L-2.20849 15.1443C-1.73313 14.891 -1.27832 14.6446 -0.843686 14.4038V-0.776383ZM12.5378 9.99C13.5686 11.319 14.7156 12.6095 15.9987 13.8676C15.4284 13.5184 14.8919 13.1809 14.3893 12.8558C12.0376 11.3058 9.88656 9.68176 7.94627 7.96286C6.0377 9.85064 3.91813 11.5272 1.56663 12.9931C1.06419 13.3084 0.522586 13.6306 -0.0592257 13.9629C0.593411 13.3747 1.31716 12.607 2.11934 11.6563C3.39519 10.1482 4.68171 8.37664 6.01051 6.3311L4.11248 4.49615L4.10275 4.48641C3.42157 3.80511 2.84488 3.22829 2.39356 2.72454C2.03498 2.33978 1.6883 1.94445 1.35307 1.539C1.93672 1.98136 2.65133 2.41263 3.49685 2.8299C4.1189 3.14628 4.85713 3.47316 5.73219 3.821L5.74826 3.82734C6.10303 3.9672 6.84583 4.26007 7.94673 4.68567C10.0136 3.89503 11.5849 3.2307 12.6711 2.66132C13.3598 2.31184 13.9305 1.96715 14.3853 1.6306C12.2082 3.99106 10.7136 5.55764 9.90169 6.32021C10.9774 7.88096 11.8523 9.10424 12.5378 9.99Z" fill="#C4C4C4"/>
</mask>
<g mask="url(#mask1_1_1471)">
<path fill-rule="evenodd" clip-rule="evenodd" d="M0.832968 1.32211L1.81366 2.22906C1.91578 2.30372 2.02118 2.37807 2.1299 2.45208V10.6014L2.63335 10.5996L-0.253906 14.2501L0.916584 13.5434C1.01411 13.4509 1.11286 13.3546 1.21283 13.2546V13.8035H6.00028V10.5874L7.94757 10.5804V10.6016H9.92504V13.7631H14.7125V13.1685C14.765 13.2298 14.8176 13.2911 14.8702 13.3524L16.5154 14.1327L13.5276 10.6016H13.7189V2.43994L14.4148 1.59633L7.94722 4.65242L0.832968 1.32211Z" fill="#FF00FF"/>
</g>
</g>
</g>
<defs>
<clipPath id="clip0_1_1471">
<rect width="16" height="16" fill="white"/>
</clipPath>
</defs>
</svg>
