<svg width="16" height="16" viewBox="0 0 16 16" fill="none" xmlns="http://www.w3.org/2000/svg">
<g clip-path="url(#clip0_348_3773)">
<path d="M12.5378 9.99007C13.5686 11.3191 14.7157 12.6096 15.9988 13.8677C15.4284 13.5184 14.8919 13.1809 14.3893 12.8559C12.0376 11.3058 9.8866 9.68185 7.94627 7.96292C6.03772 9.85071 3.91815 11.5272 1.56665 12.9931C1.06419 13.3085 0.522598 13.6307 -0.0592041 13.963C0.59343 13.3748 1.31717 12.6071 2.11935 11.6564C3.3952 10.1483 4.68173 8.37671 6.01053 6.33116L4.11249 4.4962L4.10272 4.48643C3.42172 3.8053 2.8448 3.22826 2.39357 2.72461C2.03499 2.33984 1.68831 1.9445 1.35307 1.53906C1.93674 1.98141 2.65134 2.41269 3.49687 2.82997C4.11891 3.14633 4.85715 3.47324 5.73221 3.82106L5.74831 3.82742L5.74931 3.82784C6.10448 3.96785 6.84691 4.26054 7.94675 4.68573C10.0136 3.8951 11.5849 3.23076 12.6711 2.66139C13.3599 2.31189 13.9305 1.96721 14.3853 1.63065C12.2082 3.9911 10.7137 5.55771 9.90172 6.32027C10.9774 7.88101 11.8523 9.10434 12.5378 9.99007Z" fill="#FF00FF"/>
</g>
<defs>
<clipPath id="clip0_348_3773">
<rect width="16" height="16" fill="white"/>
</clipPath>
</defs>
</svg>
