<svg width="16" height="16" viewBox="0 0 16 16" fill="none" xmlns="http://www.w3.org/2000/svg">
<g clip-path="url(#clip0_1406_3292)">
<mask id="mask0_1406_3292" style="mask-type:luminance" maskUnits="userSpaceOnUse" x="0" y="0" width="16" height="16">
<path d="M16 0H0V16H16V0Z" fill="white"/>
</mask>
<g mask="url(#mask0_1406_3292)">
<mask id="mask1_1406_3292" style="mask-type:alpha" maskUnits="userSpaceOnUse" x="-188" y="-182" width="1625" height="1286">
<path fill-rule="evenodd" clip-rule="evenodd" d="M1436.8 -181.6H-188V1104H1436.8V-181.6ZM-0.843689 -0.776352H-0.369141C-0.140457 -0.434769 0.0946198 -0.0987091 0.336273 0.231567L7.53143 -0.401688L15.3951 0.532303C15.7232 0.174362 16.0643 -0.198624 16.4185 -0.586685L16.6467 14.2607C17.2795 14.6409 17.9506 15.0341 18.6598 15.4393V15.914H-2.44043V15.2603L-2.2085 15.1443C-1.73312 14.891 -1.27832 14.6446 -0.843689 14.4039V-0.776352ZM12.5378 9.99004C13.5686 11.3191 14.7156 12.6095 15.9987 13.8676C15.4284 13.5184 14.8919 13.1809 14.3893 12.8559C12.0376 11.3058 9.88657 9.68179 7.94627 7.96289C6.0377 9.85066 3.91814 11.5272 1.56664 12.9931C1.06419 13.3084 0.522583 13.6307 -0.0592194 13.9629C0.593414 13.3747 1.31717 12.6071 2.11934 11.6564C3.39519 10.1483 4.68172 8.37666 6.01051 6.33113L4.11247 4.49619L4.10275 4.48643C3.42157 3.80513 2.84488 3.22832 2.39355 2.72458C2.03499 2.33981 1.68829 1.94447 1.35307 1.53903C1.93672 1.98138 2.65132 2.41266 3.49686 2.82994C4.1189 3.14632 4.85713 3.47319 5.73219 3.82103L5.74826 3.82738C6.10303 3.96724 6.84583 4.2601 7.94673 4.6857C10.0136 3.89505 11.5849 3.23073 12.6711 2.66136C13.3598 2.31187 13.9305 1.96718 14.3853 1.63063C12.2082 3.99109 10.7136 5.55766 9.90169 6.32024C10.9774 7.88098 11.8523 9.10426 12.5378 9.99004Z" fill="#C4C4C4"/>
</mask>
<g mask="url(#mask1_1406_3292)">
<path fill-rule="evenodd" clip-rule="evenodd" d="M0.832968 1.32214L1.81366 2.22909C1.91578 2.30375 2.02118 2.3781 2.1299 2.45211V10.6015L2.63335 10.5996L-0.253906 14.2501L0.916584 13.5434C1.01411 13.4509 1.11286 13.3547 1.21283 13.2546V13.8035H6.00028V10.5875L7.94757 10.5804V10.6016H9.92504V13.7631H14.7125V13.1685C14.765 13.2299 14.8176 13.2911 14.8702 13.3524L16.5154 14.1327L13.5276 10.6016H13.7189V2.43997L14.4148 1.59636L7.94722 4.65245L0.832968 1.32214Z" fill="#FF00FF"/>
</g>
</g>
</g>
<defs>
<clipPath id="clip0_1406_3292">
<rect width="16" height="16" fill="white"/>
</clipPath>
</defs>
</svg>
