<svg xmlns="http://www.w3.org/2000/svg" fill="none" viewBox="0 0 16 16"><g fill="currentColor" clip-path="url(#2-a)"><path d="M11.716 6.35c.721 0 .955.518.955 1.163h-1.972c0-.62.241-1.163 1.017-1.163"/><path fill-rule="evenodd" d="M15.307 0H.693A.69.69 0 0 0 0 .693v14.614c0 .384.31.693.693.693h14.614c.384 0 .693-.31.693-.693V.693A.69.69 0 0 0 15.307 0M7.68 9.863V4.347h-.216c-.214 0-.408-.087-.408-.301V3.71c0-.167.131-.282.353-.282h.787c.422 0 .43.419.43.732v5.7c0 .143-.03.368-.366.368h-.223c-.22 0-.357-.085-.357-.365m4.02-4.239c-1.135 0-1.986.502-1.986 2.231v.386c0 1.554.798 2.048 1.872 2.048h.502c.77 0 1.256-.182 1.256-.411v-.273c0-.154-.1-.275-.26-.275-.084 0-.17.017-.277.037-.18.034-.42.08-.813.08-.936 0-1.315-.11-1.315-1.16h2.243c.285 0 .613-.114.613-.555v-.206c0-1.24-.624-1.902-1.835-1.902m-8.793 5.694c-.092 0-.287.005-.287.276v.27c0 .33.49.387 1.212.387 1.155 0 1.4-.702 1.468-.898l.011-.032L6.46 6.684s.105-.43.105-.6c0-.211-.11-.336-.324-.336h-.268c-.235 0-.331.136-.375.318l-.762 3.295c-.475 0-.504-.113-.563-.346l-.031-.116-.688-2.626c-.129-.445-.185-.525-.44-.525h-.217c-.18 0-.378.057-.378.342 0 .158.066.393.066.393l.717 2.572q.023.078.044.165c.108.43.242.964.989.964h.339l-.038.179c-.15.705-.216 1.018-.892 1.018-.188 0-.339-.018-.479-.035a3 3 0 0 0-.356-.028" clip-rule="evenodd"/></g><defs><clipPath id="2-a"><path fill="#fff" d="M0 0h16v16H0z"/></clipPath></defs></svg>