<svg width="16" height="16" viewBox="0 0 16 16" fill="none" xmlns="http://www.w3.org/2000/svg">
<path fill-rule="evenodd" clip-rule="evenodd" d="M14.2511 2.73426C14.9395 2.91825 15.4816 3.46047 15.6656 4.14875C16 5.39664 16 7.9999 16 7.9999C16 7.9999 16 10.6033 15.6656 11.851C15.4816 12.5394 14.9395 13.0817 14.2511 13.2655C13.0034 13.5999 7.99994 13.5999 7.99994 13.5999C7.99994 13.5999 2.99665 13.5999 1.74889 13.2655C1.06048 13.0817 0.518385 12.5394 0.334395 11.851C0 10.6033 0 7.9999 0 7.9999C0 7.9999 0 5.39664 0.334395 4.14875C0.518385 3.46047 1.06048 2.91825 1.74889 2.73426C2.99665 2.39999 7.99994 2.39999 7.99994 2.39999C7.99994 2.39999 13.0034 2.39999 14.2511 2.73426ZM10.5565 8.00007L6.39978 10.3999V5.59989L10.5565 8.00007Z" fill="#FF00FF"/>
</svg>
