<svg width="16" height="16" viewBox="0 0 16 16" fill="none" xmlns="http://www.w3.org/2000/svg">
<path fill-rule="evenodd" clip-rule="evenodd" d="M14.2511 2.73429C14.9395 2.91828 15.4816 3.4605 15.6656 4.14878C16 5.39667 16 7.99993 16 7.99993C16 7.99993 16 10.6033 15.6656 11.8511C15.4816 12.5394 14.9395 13.0817 14.2511 13.2655C13.0034 13.5999 7.99994 13.5999 7.99994 13.5999C7.99994 13.5999 2.99665 13.5999 1.74889 13.2655C1.06048 13.0817 0.518385 12.5394 0.334395 11.8511C0 10.6033 0 7.99993 0 7.99993C0 7.99993 0 5.39667 0.334395 4.14878C0.518385 3.4605 1.06048 2.91828 1.74889 2.73429C2.99665 2.40002 7.99994 2.40002 7.99994 2.40002C7.99994 2.40002 13.0034 2.40002 14.2511 2.73429ZM10.5565 8.0001L6.39978 10.3999V5.59992L10.5565 8.0001Z" fill="#FF00FF"/>
</svg>
