<svg width="16" height="16" viewBox="0 0 16 16" fill="none" xmlns="http://www.w3.org/2000/svg">
<path fill-rule="evenodd" clip-rule="evenodd" d="M15.6656 4.14875C15.4816 3.46047 14.9395 2.91825 14.2511 2.73426C13.0034 2.39999 7.99994 2.39999 7.99994 2.39999C7.99994 2.39999 2.99665 2.39999 1.74889 2.73426C1.06048 2.91825 0.518385 3.46047 0.334395 4.14875C0 5.39664 0 7.9999 0 7.9999C0 7.9999 0 10.6033 0.334395 11.851C0.518385 12.5394 1.06048 13.0817 1.74889 13.2655C2.99665 13.5999 7.99994 13.5999 7.99994 13.5999C7.99994 13.5999 13.0034 13.5999 14.2511 13.2655C14.9395 13.0817 15.4816 12.5394 15.6656 11.851C16 10.6033 16 7.9999 16 7.9999C16 7.9999 16 5.39664 15.6656 4.14875Z" fill="#D9252A"/>
<path fill-rule="evenodd" clip-rule="evenodd" d="M6.39981 10.4L10.5565 8.00008L6.39981 5.5999V10.4Z" fill="#FFFFFE"/>
</svg>
