<svg width="16" height="16" viewBox="0 0 16 16" fill="none" xmlns="http://www.w3.org/2000/svg">
<path fill-rule="evenodd" clip-rule="evenodd" d="M2.18577 10.1475L0.727539 8.51664L5.19108 6.89206L5.88581 8.8008L2.18577 10.1475Z" fill="#F89920"/>
<path fill-rule="evenodd" clip-rule="evenodd" d="M2.17504 10.1182L2.10626 12.3048L6.56981 10.6802L5.87508 8.77144L2.17504 10.1182Z" fill="#FFBE22"/>
<path fill-rule="evenodd" clip-rule="evenodd" d="M14.5787 5.64014C15.2156 7.48533 13.1634 9.90984 9.97137 11.0716C6.77924 12.2334 3.64877 11.6953 2.95059 9.8724L14.5787 5.64014Z" fill="#F0670A"/>
<path fill-rule="evenodd" clip-rule="evenodd" d="M14.5787 5.6401C13.8851 3.8125 10.7514 3.27196 7.55578 4.43506C4.36019 5.59816 2.30703 8.02656 2.95045 9.87248L14.5787 5.6401Z" fill="#FFD00E"/>
<path fill-rule="evenodd" clip-rule="evenodd" d="M14.5784 5.64027C14.9755 6.87486 12.7475 8.79752 9.56521 9.95576C6.38293 11.114 3.44043 11.0733 2.95099 9.87232L14.5784 5.64027Z" fill="#F89920"/>
<path fill-rule="evenodd" clip-rule="evenodd" d="M14.5786 5.64022C14.0965 4.43355 11.1495 4.39079 7.96197 5.55097C4.77439 6.71115 2.54439 8.63816 2.95072 9.8724L14.5786 5.64022Z" fill="#FFBE22"/>
<path d="M9.21432 3.96548C8.91056 2.9153 8.56488 2.33271 8.17216 2.34391C7.41246 2.36557 7.15704 4.77414 7.40289 7.86052C7.65134 10.9796 8.29584 13.3226 9.09936 13.3015C9.57856 13.289 9.84832 12.5224 9.94304 11.1915C9.94496 11.1643 9.91464 11.1832 9.91648 11.1555C9.91648 11.1555 9.91256 11.1069 9.89456 11.1057C9.86056 11.1035 9.79264 11.0991 9.79264 11.0991C9.70912 12.3913 9.45632 13.1358 9.0952 13.1454C8.43488 13.1627 7.79736 10.8449 7.55865 7.84812C7.32387 4.90076 7.57663 2.5172 8.17664 2.50009C8.46056 2.492 8.77872 3.02843 9.06032 3.99565L9.21432 3.96548Z" fill="#F0670A"/>
<path d="M5.44994 3.2161C4.80284 3.61471 5.78593 5.8283 7.54203 8.37824C9.31672 10.9552 11.0464 12.6622 11.7317 12.2421C12.1147 12.0074 12.0072 11.2946 11.5141 10.2188C11.4961 10.1796 11.4497 10.1623 11.4105 10.1803C11.3713 10.1983 11.354 10.2447 11.372 10.2839C11.8305 11.2842 11.9291 11.9378 11.6501 12.1089C11.0869 12.4541 9.37584 10.7655 7.67072 8.2896C5.99372 5.85454 5.02084 3.66394 5.53188 3.34914C5.80329 3.18194 6.44871 3.5853 7.30158 4.45666C7.31106 4.46635 7.3657 4.52289 7.37782 4.52658C7.40426 4.53462 7.39091 4.47854 7.41206 4.45784C7.44289 4.42766 7.44342 4.3782 7.41324 4.34737C6.50213 3.41649 5.81834 2.98916 5.44994 3.2161Z" fill="#F0670A"/>
</svg>
