<svg width="16" height="16" viewBox="0 0 16 16" fill="none" xmlns="http://www.w3.org/2000/svg">
<path fill-rule="evenodd" clip-rule="evenodd" d="M8.17209 2.34391C8.56481 2.33271 8.91049 2.9153 9.21425 3.96548C9.21441 3.96602 9.06025 3.99565 9.06025 3.99565C8.77865 3.02843 8.46057 2.492 8.17657 2.50009C7.83984 2.50969 7.61248 3.26468 7.5193 4.44637C7.46392 4.4667 7.40888 4.4874 7.3542 4.50848C7.33558 4.49155 7.31229 4.46768 7.3036 4.45877L7.30153 4.45665C6.44867 3.58529 5.80325 3.18194 5.53184 3.34913C5.25811 3.51776 5.41012 4.22456 5.86806 5.21887C5.82182 5.24576 5.776 5.27293 5.7306 5.30036C5.23342 4.21578 5.09118 3.43707 5.44989 3.21609C5.81267 2.99262 6.48128 3.40359 7.37161 4.30507C7.48245 3.10803 7.74912 2.35596 8.17209 2.34391ZM7.5954 8.17984C7.6203 8.21632 7.64544 8.25304 7.67065 8.2896C8.45633 9.43056 9.24337 10.4042 9.91873 11.0888C9.86345 11.1086 9.80825 11.128 9.75305 11.1468L9.78705 11.1814C9.69825 12.4228 9.44849 13.1361 9.09521 13.1454C8.75697 13.1542 8.42481 12.5506 8.14905 11.557C8.67305 11.4682 9.21193 11.3326 9.75425 11.148C9.10217 10.4816 8.36449 9.56272 7.61636 8.48584C7.73869 9.68696 7.9253 10.7506 8.14905 11.557C8.09649 11.5659 8.04401 11.5741 7.9918 11.5821C8.29289 12.661 8.67377 13.3127 9.09929 13.3015C9.56209 13.2894 9.82961 12.574 9.93265 11.3261C10.7239 12.0966 11.3718 12.4627 11.7317 12.2421C12.1005 12.016 12.0144 11.3468 11.5672 10.3368C13.8119 9.06024 15.1015 7.15498 14.5786 5.64014C13.885 3.81254 10.7513 3.27196 7.55568 4.43507L7.51911 4.44845C7.44643 5.372 7.45564 6.55587 7.55858 7.84812C7.56708 7.95476 7.57608 8.06056 7.58556 8.16544C7.58884 8.17024 7.59212 8.17504 7.5954 8.17984ZM11.566 10.3342C11.5491 10.2962 11.5319 10.2578 11.514 10.2188C11.496 10.1796 11.4496 10.1623 11.4104 10.1803C11.3712 10.1983 11.3539 10.2447 11.3719 10.2839C11.392 10.3277 11.4114 10.3709 11.4301 10.4133C10.9783 10.6608 10.4898 10.8829 9.97121 11.0717L9.92001 11.0902C10.7096 11.8903 11.3465 12.2949 11.65 12.1089C11.9171 11.9452 11.8383 11.3394 11.429 10.4107C11.4751 10.3854 11.5207 10.3599 11.566 10.3342ZM3.32756 7.57024C3.81961 6.75166 4.65558 5.95508 5.73202 5.30352C6.11312 6.13417 6.70211 7.1439 7.43349 8.21976C7.55386 9.53928 7.7463 10.7025 7.9918 11.5821C6.73618 11.7734 5.57462 11.6938 4.67052 11.3714L2.10612 12.3048L2.17436 10.135L0.727356 8.51664L3.32756 7.57024ZM7.35441 4.51056C6.82347 4.71572 6.32598 4.95579 5.86943 5.22189C6.22037 5.98331 6.75043 6.91295 7.40587 7.89845L7.40282 7.86052C7.30154 6.58899 7.28533 5.4325 7.35441 4.51056Z" fill="#FF00FF"/>
</svg>
