<svg width="16" height="16" viewBox="0 0 16 16" fill="none" xmlns="http://www.w3.org/2000/svg">
<path d="M8.17218 2.34391C8.5649 2.33271 8.91057 2.9153 9.21431 3.96549C9.21447 3.96603 9.06035 3.99565 9.06035 3.99565C8.77872 3.02843 8.4606 2.492 8.17663 2.5001C7.83991 2.5097 7.61255 3.26468 7.51936 4.44639C7.46398 4.46671 7.40895 4.48742 7.35428 4.50849C7.33565 4.49157 7.31237 4.46771 7.30368 4.45879L7.30159 4.45666C6.44873 3.5853 5.80331 3.18194 5.5319 3.34913C5.25817 3.51776 5.41019 4.22458 5.86813 5.21888C5.82189 5.24578 5.77607 5.27295 5.73067 5.30037C5.23348 4.21579 5.09124 3.43707 5.44995 3.2161C5.81273 2.99262 6.48134 3.40359 7.37168 4.30507C7.48252 3.10803 7.74918 2.35597 8.17218 2.34391Z" fill="#FF00FF"/>
<path fill-rule="evenodd" clip-rule="evenodd" d="M7.59547 8.17985C7.62036 8.21634 7.6455 8.25303 7.67071 8.28964C8.45643 9.43055 9.24342 10.4043 9.91876 11.0888C9.86353 11.1087 9.80831 11.128 9.75313 11.1468L9.78709 11.1814C9.69829 12.4228 9.44858 13.136 9.09525 13.1453C8.75706 13.1542 8.42485 12.5506 8.14914 11.557C8.67308 11.4682 9.21202 11.3326 9.7543 11.148C9.10221 10.4816 8.36457 9.56269 7.61642 8.48582C7.73875 9.68699 7.9254 10.7506 8.14914 11.557C8.0966 11.5659 8.04408 11.5741 7.99185 11.5821C8.29297 12.661 8.67386 13.3127 9.09936 13.3015C9.56216 13.2894 9.82967 12.574 9.9327 11.3261C10.7239 12.0967 11.3718 12.4627 11.7317 12.2421C12.1006 12.016 12.0145 11.3468 11.5672 10.3368C13.812 9.06025 15.1015 7.15498 14.5786 5.64015C13.885 3.81255 10.7513 3.27197 7.55574 4.43507L7.51917 4.44845C7.44649 5.37201 7.4557 6.55587 7.55864 7.84812C7.56713 7.95477 7.57614 8.06055 7.58562 8.16541C7.5889 8.17022 7.59218 8.17503 7.59547 8.17985ZM11.566 10.3341C11.5492 10.2962 11.5319 10.2577 11.514 10.2188C11.4961 10.1796 11.4497 10.1624 11.4105 10.1803C11.3712 10.1983 11.354 10.2447 11.372 10.2839C11.3921 10.3277 11.4115 10.3708 11.4302 10.4133C10.9784 10.6608 10.4899 10.8829 9.97125 11.0716L9.92006 11.0901C10.7097 11.8903 11.3466 12.2949 11.6501 12.1089C11.9172 11.9452 11.8383 11.3394 11.4291 10.4107C11.4751 10.3855 11.5208 10.3599 11.566 10.3341Z" fill="#FF00FF"/>
<path d="M3.32763 7.57024C3.81967 6.75166 4.65564 5.95509 5.73208 5.30352C6.11318 6.13418 6.70217 7.14391 7.43356 8.21974C7.55392 9.5393 7.74635 10.7025 7.99185 11.5821C6.73624 11.7735 5.57468 11.6938 4.67059 11.3714L2.10619 12.3048L2.17443 10.135L0.727417 8.51664L3.32763 7.57024Z" fill="#FF00FF"/>
<path d="M7.35448 4.51057C6.82353 4.71572 6.32604 4.95579 5.86949 5.2219C6.22043 5.98331 6.75049 6.91295 7.40593 7.89846L7.40288 7.86053C7.3016 6.58899 7.28539 5.4325 7.35448 4.51057Z" fill="#FF00FF"/>
</svg>
