<svg width="16" height="16" viewBox="0 0 16 16" fill="none" xmlns="http://www.w3.org/2000/svg">
<path fill-rule="evenodd" clip-rule="evenodd" d="M8.17228 2.34391C8.565 2.33271 8.91068 2.9153 9.21444 3.96548C9.2146 3.96602 9.06044 3.99565 9.06044 3.99565C8.77884 3.02843 8.46076 2.492 8.17676 2.50009C7.84003 2.50969 7.61267 3.26468 7.51948 4.44637C7.4641 4.4667 7.40907 4.4874 7.35439 4.50848C7.33576 4.49155 7.31248 4.46768 7.30379 4.45877L7.30172 4.45665C6.44885 3.58529 5.80344 3.18194 5.53203 3.34913C5.25829 3.51776 5.41031 4.22456 5.86824 5.21887C5.822 5.24576 5.77618 5.27293 5.73079 5.30036C5.2336 4.21578 5.09136 3.43707 5.45007 3.21609C5.81285 2.99262 6.48146 3.40359 7.3718 4.30507C7.48264 3.10803 7.7493 2.35596 8.17228 2.34391ZM7.59559 8.17984C7.62048 8.21632 7.64562 8.25304 7.67084 8.2896C8.45652 9.43056 9.24356 10.4042 9.91892 11.0888C9.86364 11.1086 9.80844 11.128 9.75324 11.1468L9.78724 11.1814C9.69844 12.4228 9.44868 13.1361 9.0954 13.1454C8.75716 13.1542 8.425 12.5506 8.14924 11.557C8.67324 11.4682 9.21212 11.3326 9.75444 11.148C9.10236 10.4816 8.36468 9.56272 7.61655 8.48584C7.73888 9.68696 7.92548 10.7506 8.14924 11.557C8.09668 11.5659 8.0442 11.5741 7.99198 11.5821C8.29308 12.661 8.67396 13.3127 9.09948 13.3015C9.56228 13.2894 9.8298 12.574 9.93284 11.3261C10.724 12.0966 11.372 12.4627 11.7319 12.2421C12.1007 12.016 12.0146 11.3468 11.5674 10.3368C13.8121 9.06024 15.1016 7.15498 14.5788 5.64014C13.8852 3.81254 10.7515 3.27196 7.55586 4.43507L7.51929 4.44845C7.44661 5.372 7.45583 6.55587 7.55876 7.84812C7.56726 7.95476 7.57626 8.06056 7.58575 8.16544C7.58902 8.17024 7.5923 8.17504 7.59559 8.17984ZM11.5662 10.3342C11.5493 10.2962 11.532 10.2578 11.5142 10.2188C11.4962 10.1796 11.4498 10.1623 11.4106 10.1803C11.3714 10.1983 11.3541 10.2447 11.3721 10.2839C11.3922 10.3277 11.4116 10.3709 11.4303 10.4133C10.9785 10.6608 10.49 10.8829 9.9714 11.0717L9.9202 11.0902C10.7098 11.8903 11.3467 12.2949 11.6502 12.1089C11.9173 11.9452 11.8384 11.3394 11.4292 10.4107C11.4752 10.3854 11.5209 10.3599 11.5662 10.3342ZM3.32775 7.57024C3.8198 6.75166 4.65576 5.95508 5.7322 5.30352C6.11331 6.13417 6.70229 7.1439 7.43368 8.21976C7.55404 9.53928 7.74648 10.7025 7.99198 11.5821C6.73636 11.7734 5.5748 11.6938 4.67071 11.3714L2.10631 12.3048L2.17455 10.135L0.727539 8.51664L3.32775 7.57024ZM7.3546 4.51056C6.82365 4.71572 6.32616 4.95579 5.86961 5.22189C6.22056 5.98331 6.75061 6.91295 7.40605 7.89845L7.403 7.86052C7.30172 6.58899 7.28552 5.4325 7.3546 4.51056Z" fill="#FF00FF"/>
</svg>
